<svg width="450" height="36" viewBox="0 0 450 36" fill="none" xmlns="http://www.w3.org/2000/svg">
<path d="M0 8C0 3.58172 3.58172 0 8 0H126C130.418 0 134 3.58172 134 8V28C134 32.4183 130.418 36 126 36H8C3.58172 36 0 32.4183 0 28V8Z" fill="#CBFBDB"/>
<g clip-path="url(#clip0_631_808)">
<path fill-rule="evenodd" clip-rule="evenodd" d="M8 17.9994C8 21.8593 11.1401 24.9994 15 24.9994C18.8599 24.9994 22 21.8593 22 17.9994C22 14.1395 18.8599 10.9994 15 10.9994C11.1401 10.9994 8 14.1395 8 17.9994ZM12.9438 21.3279C13.0963 21.4093 13.2666 21.4515 13.4395 21.4508C13.6468 21.4508 13.8493 21.3889 14.0211 21.2729C14.1154 21.2098 14.1987 21.1318 14.2678 21.0419L18.8429 15.2534C18.8816 15.2088 18.9109 15.1567 18.9289 15.1005C18.947 15.0442 18.9534 14.9849 18.9479 14.926C18.9424 14.8672 18.925 14.8101 18.8968 14.7581C18.8686 14.7062 18.8302 14.6605 18.7838 14.6238C18.7375 14.5872 18.6842 14.5603 18.6272 14.5447C18.5702 14.5292 18.5106 14.5254 18.452 14.5336C18.3935 14.5417 18.3372 14.5616 18.2866 14.5921C18.236 14.6226 18.1921 14.663 18.1575 14.7109L13.5772 20.5064C13.5612 20.5279 13.5405 20.5454 13.5166 20.5574C13.4927 20.5695 13.4663 20.5758 13.4395 20.5758C13.4088 20.5757 13.3787 20.5677 13.3521 20.5525C13.3254 20.5374 13.3031 20.5157 13.2872 20.4894L11.8581 18.4612C11.825 18.4142 11.783 18.3742 11.7344 18.3434C11.6858 18.3127 11.6317 18.2918 11.5751 18.2819C11.5184 18.2721 11.4604 18.2735 11.4043 18.2861C11.3482 18.2987 11.2952 18.3222 11.2482 18.3553C11.2012 18.3884 11.1612 18.4304 11.1304 18.479C11.0997 18.5276 11.0788 18.5817 11.0689 18.6383C11.0591 18.695 11.0605 18.753 11.0731 18.8091C11.0857 18.8651 11.1092 18.9182 11.1423 18.9652L12.5657 20.9847C12.6614 21.1286 12.7913 21.2466 12.9438 21.3279Z" fill="#014F2D"/>
</g>
<path d="M28.028 21H27.02V12.6H28.028V16.212H33.188V12.6H34.196V21H33.188V17.136H28.028V21ZM38.8349 21.132C36.9509 21.132 35.7029 19.752 35.7029 17.844C35.7029 15.672 37.1069 14.496 38.7149 14.496C40.4669 14.496 41.5949 15.672 41.6309 17.712V17.988H36.6989C36.7589 19.344 37.5509 20.268 38.8349 20.268C39.7229 20.268 40.3709 19.824 40.6349 18.996H41.6069C41.3189 20.304 40.2869 21.132 38.8349 21.132ZM36.7589 17.16H40.5869C40.4069 16.044 39.7349 15.36 38.7149 15.36C37.7069 15.36 36.9629 16.02 36.7589 17.16ZM43.937 21H42.941V14.64H43.733L43.853 15.852C44.261 15.036 45.005 14.604 46.061 14.604H46.277V15.588H46.061C44.717 15.588 43.937 16.356 43.937 17.664V21ZM52.9209 21.132C51.0369 21.132 49.7889 19.752 49.7889 17.844C49.7889 15.672 51.1929 14.496 52.8009 14.496C54.5529 14.496 55.6809 15.672 55.7169 17.712V17.988H50.7849C50.8449 19.344 51.6369 20.268 52.9209 20.268C53.8089 20.268 54.4569 19.824 54.7209 18.996H55.6929C55.4049 20.304 54.3729 21.132 52.9209 21.132ZM50.8449 17.16H54.6729C54.4929 16.044 53.8209 15.36 52.8009 15.36C51.7929 15.36 51.0489 16.02 50.8449 17.16ZM58.0229 21H57.0269V14.64H57.8189L57.9389 15.852C58.3469 15.036 59.0909 14.604 60.1469 14.604H60.3629V15.588H60.1469C58.8029 15.588 58.0229 16.356 58.0229 17.664V21ZM67.0068 21.132C65.1228 21.132 63.8748 19.752 63.8748 17.844C63.8748 15.672 65.2788 14.496 66.8868 14.496C68.6388 14.496 69.7668 15.672 69.8028 17.712V17.988H64.8708C64.9308 19.344 65.7228 20.268 67.0068 20.268C67.8948 20.268 68.5428 19.824 68.8068 18.996H69.7788C69.4908 20.304 68.4588 21.132 67.0068 21.132ZM64.9308 17.16H68.7588C68.5788 16.044 67.9068 15.36 66.8868 15.36C65.8788 15.36 65.1348 16.02 64.9308 17.16ZM72.1089 21H71.1129V14.64H71.9049L72.0009 15.612C72.4329 14.94 73.2609 14.496 74.2089 14.496C75.5769 14.496 76.4889 15.384 76.4889 16.788V21H75.4929V16.824C75.4929 15.936 74.9169 15.372 73.9569 15.372C72.8169 15.372 72.1209 16.164 72.1089 17.136V21ZM81.7417 21H80.7457V14.64H81.5377L81.6337 15.624C82.0657 14.94 82.8937 14.496 83.8057 14.496C84.7657 14.496 85.4857 14.988 85.8097 15.756C86.2177 15.012 87.0937 14.496 88.0657 14.496C89.4097 14.496 90.2737 15.444 90.2737 16.74V21H89.2777V16.776C89.2777 15.924 88.7497 15.372 87.8977 15.372C86.7097 15.372 86.0137 16.164 86.0017 17.136V21H85.0177V16.776C85.0177 15.924 84.4897 15.372 83.6377 15.372C82.4497 15.372 81.7537 16.164 81.7417 17.136V21ZM94.6396 21.132C92.7556 21.132 91.5076 19.752 91.5076 17.844C91.5076 15.672 92.9116 14.496 94.5196 14.496C96.2716 14.496 97.3996 15.672 97.4356 17.712V17.988H92.5036C92.5636 19.344 93.3556 20.268 94.6396 20.268C95.5276 20.268 96.1756 19.824 96.4396 18.996H97.4116C97.1236 20.304 96.0916 21.132 94.6396 21.132ZM92.5636 17.16H96.3916C96.2116 16.044 95.5396 15.36 94.5196 15.36C93.5116 15.36 92.7676 16.02 92.5636 17.16ZM99.7777 21H98.7817V12H99.7777V21ZM104.009 21.132C102.305 21.132 101.117 19.764 101.117 17.784C101.117 15.84 102.293 14.496 103.997 14.496C104.957 14.496 105.761 14.916 106.217 15.588V12H107.213V21H106.421L106.313 19.776C105.893 20.604 105.053 21.132 104.009 21.132ZM104.165 20.268C105.377 20.268 106.217 19.236 106.217 17.76C106.217 16.332 105.401 15.348 104.225 15.348C103.001 15.348 102.149 16.344 102.149 17.784C102.149 19.248 102.977 20.268 104.165 20.268ZM109.386 13.572C108.966 13.572 108.642 13.248 108.642 12.828C108.642 12.408 108.966 12.096 109.386 12.096C109.806 12.096 110.118 12.408 110.118 12.828C110.118 13.248 109.806 13.572 109.386 13.572ZM109.878 21H108.882V14.64H109.878V21ZM112.503 21H111.507V14.64H112.299L112.395 15.612C112.827 14.94 113.655 14.496 114.603 14.496C115.971 14.496 116.883 15.384 116.883 16.788V21H115.887V16.824C115.887 15.936 115.311 15.372 114.351 15.372C113.211 15.372 112.515 16.164 112.503 17.136V21ZM121.217 23.544C119.501 23.544 118.337 22.716 118.337 21.372H119.333C119.333 22.128 120.101 22.704 121.217 22.704C122.525 22.704 123.209 21.924 123.209 20.832V19.8C122.765 20.46 121.997 20.892 121.025 20.892C119.333 20.892 118.121 19.596 118.121 17.724C118.121 15.816 119.345 14.496 121.025 14.496C122.045 14.496 122.873 14.976 123.305 15.744L123.413 14.64H124.193V20.832C124.193 22.44 123.113 23.544 121.217 23.544ZM121.169 20.028C122.369 20.028 123.209 19.068 123.209 17.688C123.209 16.32 122.369 15.36 121.169 15.36C119.981 15.36 119.153 16.32 119.153 17.712C119.153 19.08 119.981 20.028 121.169 20.028Z" fill="#014F2D"/>
<path d="M158 8C158 3.58172 161.582 0 166 0H284C288.418 0 292 3.58172 292 8V28C292 32.4183 288.418 36 284 36H166C161.582 36 158 32.4183 158 28V8Z" fill="#ECE6F9"/>
<g clip-path="url(#clip1_631_808)">
<path fill-rule="evenodd" clip-rule="evenodd" d="M166 18C166 21.8599 169.14 25 173 25C176.86 25 180 21.8599 180 18C180 14.1401 176.86 11 173 11C169.14 11 166 14.1401 166 18ZM172.781 15.8125C173.144 15.8125 173.437 15.5187 173.437 15.1562C173.437 14.7938 173.144 14.5 172.781 14.5C172.419 14.5 172.125 14.7938 172.125 15.1562C172.125 15.5187 172.419 15.8125 172.781 15.8125ZM173.875 21.0625C173.527 21.0622 173.193 20.9238 172.947 20.6777C172.701 20.4317 172.563 20.098 172.562 19.75V17.5625H172.125C172.009 17.5625 171.898 17.5164 171.816 17.4344C171.734 17.3523 171.688 17.241 171.688 17.125C171.688 17.009 171.734 16.8977 171.816 16.8156C171.898 16.7336 172.009 16.6875 172.125 16.6875H172.562C173.045 16.6875 173.437 17.0801 173.437 17.5625V19.75C173.437 19.9915 173.634 20.1875 173.875 20.1875H174.312C174.429 20.1875 174.54 20.2336 174.622 20.3156C174.704 20.3977 174.75 20.509 174.75 20.625C174.75 20.741 174.704 20.8523 174.622 20.9344C174.54 21.0164 174.429 21.0625 174.312 21.0625H173.875Z" fill="#4420B0"/>
</g>
<path d="M186.028 21H185.02V12.6H186.028V16.212H191.188V12.6H192.196V21H191.188V17.136H186.028V21ZM196.835 21.132C194.951 21.132 193.703 19.752 193.703 17.844C193.703 15.672 195.107 14.496 196.715 14.496C198.467 14.496 199.595 15.672 199.631 17.712V17.988H194.699C194.759 19.344 195.551 20.268 196.835 20.268C197.723 20.268 198.371 19.824 198.635 18.996H199.607C199.319 20.304 198.287 21.132 196.835 21.132ZM194.759 17.16H198.587C198.407 16.044 197.735 15.36 196.715 15.36C195.707 15.36 194.963 16.02 194.759 17.16ZM201.937 21H200.941V14.64H201.733L201.853 15.852C202.261 15.036 203.005 14.604 204.061 14.604H204.277V15.588H204.061C202.717 15.588 201.937 16.356 201.937 17.664V21ZM210.921 21.132C209.037 21.132 207.789 19.752 207.789 17.844C207.789 15.672 209.193 14.496 210.801 14.496C212.553 14.496 213.681 15.672 213.717 17.712V17.988H208.785C208.845 19.344 209.637 20.268 210.921 20.268C211.809 20.268 212.457 19.824 212.721 18.996H213.693C213.405 20.304 212.373 21.132 210.921 21.132ZM208.845 17.16H212.673C212.493 16.044 211.821 15.36 210.801 15.36C209.793 15.36 209.049 16.02 208.845 17.16ZM216.023 21H215.027V14.64H215.819L215.939 15.852C216.347 15.036 217.091 14.604 218.147 14.604H218.363V15.588H218.147C216.803 15.588 216.023 16.356 216.023 17.664V21ZM225.007 21.132C223.123 21.132 221.875 19.752 221.875 17.844C221.875 15.672 223.279 14.496 224.887 14.496C226.639 14.496 227.767 15.672 227.803 17.712V17.988H222.871C222.931 19.344 223.723 20.268 225.007 20.268C225.895 20.268 226.543 19.824 226.807 18.996H227.779C227.491 20.304 226.459 21.132 225.007 21.132ZM222.931 17.16H226.759C226.579 16.044 225.907 15.36 224.887 15.36C223.879 15.36 223.135 16.02 222.931 17.16ZM230.109 21H229.113V14.64H229.905L230.001 15.612C230.433 14.94 231.261 14.496 232.209 14.496C233.577 14.496 234.489 15.384 234.489 16.788V21H233.493V16.824C233.493 15.936 232.917 15.372 231.957 15.372C230.817 15.372 230.121 16.164 230.109 17.136V21ZM239.742 21H238.746V14.64H239.538L239.634 15.624C240.066 14.94 240.894 14.496 241.806 14.496C242.766 14.496 243.486 14.988 243.81 15.756C244.218 15.012 245.094 14.496 246.066 14.496C247.41 14.496 248.274 15.444 248.274 16.74V21H247.278V16.776C247.278 15.924 246.75 15.372 245.898 15.372C244.71 15.372 244.014 16.164 244.002 17.136V21H243.018V16.776C243.018 15.924 242.49 15.372 241.638 15.372C240.45 15.372 239.754 16.164 239.742 17.136V21ZM252.64 21.132C250.756 21.132 249.508 19.752 249.508 17.844C249.508 15.672 250.912 14.496 252.52 14.496C254.272 14.496 255.4 15.672 255.436 17.712V17.988H250.504C250.564 19.344 251.356 20.268 252.64 20.268C253.528 20.268 254.176 19.824 254.44 18.996H255.412C255.124 20.304 254.092 21.132 252.64 21.132ZM250.564 17.16H254.392C254.212 16.044 253.54 15.36 252.52 15.36C251.512 15.36 250.768 16.02 250.564 17.16ZM257.778 21H256.782V12H257.778V21ZM262.009 21.132C260.305 21.132 259.117 19.764 259.117 17.784C259.117 15.84 260.293 14.496 261.997 14.496C262.957 14.496 263.761 14.916 264.217 15.588V12H265.213V21H264.421L264.313 19.776C263.893 20.604 263.053 21.132 262.009 21.132ZM262.165 20.268C263.377 20.268 264.217 19.236 264.217 17.76C264.217 16.332 263.401 15.348 262.225 15.348C261.001 15.348 260.149 16.344 260.149 17.784C260.149 19.248 260.977 20.268 262.165 20.268ZM267.386 13.572C266.966 13.572 266.642 13.248 266.642 12.828C266.642 12.408 266.966 12.096 267.386 12.096C267.806 12.096 268.118 12.408 268.118 12.828C268.118 13.248 267.806 13.572 267.386 13.572ZM267.878 21H266.882V14.64H267.878V21ZM270.503 21H269.507V14.64H270.299L270.395 15.612C270.827 14.94 271.655 14.496 272.603 14.496C273.971 14.496 274.883 15.384 274.883 16.788V21H273.887V16.824C273.887 15.936 273.311 15.372 272.351 15.372C271.211 15.372 270.515 16.164 270.503 17.136V21ZM279.217 23.544C277.501 23.544 276.337 22.716 276.337 21.372H277.333C277.333 22.128 278.101 22.704 279.217 22.704C280.525 22.704 281.209 21.924 281.209 20.832V19.8C280.765 20.46 279.997 20.892 279.025 20.892C277.333 20.892 276.121 19.596 276.121 17.724C276.121 15.816 277.345 14.496 279.025 14.496C280.045 14.496 280.873 14.976 281.305 15.744L281.413 14.64H282.193V20.832C282.193 22.44 281.113 23.544 279.217 23.544ZM279.169 20.028C280.369 20.028 281.209 19.068 281.209 17.688C281.209 16.32 280.369 15.36 279.169 15.36C277.981 15.36 277.153 16.32 277.153 17.712C277.153 19.08 277.981 20.028 279.169 20.028Z" fill="#4420B0"/>
<path d="M316 8C316 3.58172 319.582 0 324 0H442C446.418 0 450 3.58172 450 8V28C450 32.4183 446.418 36 442 36H324C319.582 36 316 32.4183 316 28V8Z" fill="#FFE6D2"/>
<g clip-path="url(#clip2_631_808)">
<path fill-rule="evenodd" clip-rule="evenodd" d="M324 18C324 21.8599 327.14 25 331 25C334.86 25 338 21.8599 338 18C338 14.1401 334.86 11 331 11C327.14 11 324 14.1401 324 18ZM331 19.3125C330.884 19.3125 330.773 19.2664 330.691 19.1844C330.609 19.1023 330.562 18.991 330.562 18.875V14.0625C330.562 13.9465 330.609 13.8352 330.691 13.7531C330.773 13.6711 330.884 13.625 331 13.625C331.116 13.625 331.227 13.6711 331.309 13.7531C331.391 13.8352 331.437 13.9465 331.437 14.0625V18.875C331.437 18.991 331.391 19.1023 331.309 19.1844C331.227 19.2664 331.116 19.3125 331 19.3125ZM331 21.5C331.362 21.5 331.656 21.2062 331.656 20.8438C331.656 20.4813 331.362 20.1875 331 20.1875C330.638 20.1875 330.344 20.4813 330.344 20.8438C330.344 21.2062 330.638 21.5 331 21.5Z" fill="#623A0E"/>
</g>
<path d="M344.028 21H343.02V12.6H344.028V16.212H349.188V12.6H350.196V21H349.188V17.136H344.028V21ZM354.835 21.132C352.951 21.132 351.703 19.752 351.703 17.844C351.703 15.672 353.107 14.496 354.715 14.496C356.467 14.496 357.595 15.672 357.631 17.712V17.988H352.699C352.759 19.344 353.551 20.268 354.835 20.268C355.723 20.268 356.371 19.824 356.635 18.996H357.607C357.319 20.304 356.287 21.132 354.835 21.132ZM352.759 17.16H356.587C356.407 16.044 355.735 15.36 354.715 15.36C353.707 15.36 352.963 16.02 352.759 17.16ZM359.937 21H358.941V14.64H359.733L359.853 15.852C360.261 15.036 361.005 14.604 362.061 14.604H362.277V15.588H362.061C360.717 15.588 359.937 16.356 359.937 17.664V21ZM368.921 21.132C367.037 21.132 365.789 19.752 365.789 17.844C365.789 15.672 367.193 14.496 368.801 14.496C370.553 14.496 371.681 15.672 371.717 17.712V17.988H366.785C366.845 19.344 367.637 20.268 368.921 20.268C369.809 20.268 370.457 19.824 370.721 18.996H371.693C371.405 20.304 370.373 21.132 368.921 21.132ZM366.845 17.16H370.673C370.493 16.044 369.821 15.36 368.801 15.36C367.793 15.36 367.049 16.02 366.845 17.16ZM374.023 21H373.027V14.64H373.819L373.939 15.852C374.347 15.036 375.091 14.604 376.147 14.604H376.363V15.588H376.147C374.803 15.588 374.023 16.356 374.023 17.664V21ZM383.007 21.132C381.123 21.132 379.875 19.752 379.875 17.844C379.875 15.672 381.279 14.496 382.887 14.496C384.639 14.496 385.767 15.672 385.803 17.712V17.988H380.871C380.931 19.344 381.723 20.268 383.007 20.268C383.895 20.268 384.543 19.824 384.807 18.996H385.779C385.491 20.304 384.459 21.132 383.007 21.132ZM380.931 17.16H384.759C384.579 16.044 383.907 15.36 382.887 15.36C381.879 15.36 381.135 16.02 380.931 17.16ZM388.109 21H387.113V14.64H387.905L388.001 15.612C388.433 14.94 389.261 14.496 390.209 14.496C391.577 14.496 392.489 15.384 392.489 16.788V21H391.493V16.824C391.493 15.936 390.917 15.372 389.957 15.372C388.817 15.372 388.121 16.164 388.109 17.136V21ZM397.742 21H396.746V14.64H397.538L397.634 15.624C398.066 14.94 398.894 14.496 399.806 14.496C400.766 14.496 401.486 14.988 401.81 15.756C402.218 15.012 403.094 14.496 404.066 14.496C405.41 14.496 406.274 15.444 406.274 16.74V21H405.278V16.776C405.278 15.924 404.75 15.372 403.898 15.372C402.71 15.372 402.014 16.164 402.002 17.136V21H401.018V16.776C401.018 15.924 400.49 15.372 399.638 15.372C398.45 15.372 397.754 16.164 397.742 17.136V21ZM410.64 21.132C408.756 21.132 407.508 19.752 407.508 17.844C407.508 15.672 408.912 14.496 410.52 14.496C412.272 14.496 413.4 15.672 413.436 17.712V17.988H408.504C408.564 19.344 409.356 20.268 410.64 20.268C411.528 20.268 412.176 19.824 412.44 18.996H413.412C413.124 20.304 412.092 21.132 410.64 21.132ZM408.564 17.16H412.392C412.212 16.044 411.54 15.36 410.52 15.36C409.512 15.36 408.768 16.02 408.564 17.16ZM415.778 21H414.782V12H415.778V21ZM420.009 21.132C418.305 21.132 417.117 19.764 417.117 17.784C417.117 15.84 418.293 14.496 419.997 14.496C420.957 14.496 421.761 14.916 422.217 15.588V12H423.213V21H422.421L422.313 19.776C421.893 20.604 421.053 21.132 420.009 21.132ZM420.165 20.268C421.377 20.268 422.217 19.236 422.217 17.76C422.217 16.332 421.401 15.348 420.225 15.348C419.001 15.348 418.149 16.344 418.149 17.784C418.149 19.248 418.977 20.268 420.165 20.268ZM425.386 13.572C424.966 13.572 424.642 13.248 424.642 12.828C424.642 12.408 424.966 12.096 425.386 12.096C425.806 12.096 426.118 12.408 426.118 12.828C426.118 13.248 425.806 13.572 425.386 13.572ZM425.878 21H424.882V14.64H425.878V21ZM428.503 21H427.507V14.64H428.299L428.395 15.612C428.827 14.94 429.655 14.496 430.603 14.496C431.971 14.496 432.883 15.384 432.883 16.788V21H431.887V16.824C431.887 15.936 431.311 15.372 430.351 15.372C429.211 15.372 428.515 16.164 428.503 17.136V21ZM437.217 23.544C435.501 23.544 434.337 22.716 434.337 21.372H435.333C435.333 22.128 436.101 22.704 437.217 22.704C438.525 22.704 439.209 21.924 439.209 20.832V19.8C438.765 20.46 437.997 20.892 437.025 20.892C435.333 20.892 434.121 19.596 434.121 17.724C434.121 15.816 435.345 14.496 437.025 14.496C438.045 14.496 438.873 14.976 439.305 15.744L439.413 14.64H440.193V20.832C440.193 22.44 439.113 23.544 437.217 23.544ZM437.169 20.028C438.369 20.028 439.209 19.068 439.209 17.688C439.209 16.32 438.369 15.36 437.169 15.36C435.981 15.36 435.153 16.32 435.153 17.712C435.153 19.08 435.981 20.028 437.169 20.028Z" fill="#623A0E"/>
<defs>
<clipPath id="clip0_631_808">
<rect width="14" height="14" fill="white" transform="translate(8 11)"/>
</clipPath>
<clipPath id="clip1_631_808">
<rect width="14" height="14" fill="white" transform="translate(166 11)"/>
</clipPath>
<clipPath id="clip2_631_808">
<rect width="14" height="14" fill="white" transform="translate(324 11)"/>
</clipPath>
</defs>
</svg>
