<svg width="733" height="242" viewBox="0 0 733 242" fill="none" xmlns="http://www.w3.org/2000/svg">
<rect width="733" height="242" rx="24" fill="white"/>
<rect x="24" y="24" width="20" height="20" rx="10" fill="#CE3871"/>
<g clip-path="url(#clip0_826_79479)">
<path d="M41.5 42C41.3667 42 41.2407 41.948 41.1467 41.8533L34 34.7076L26.8533 41.8533C26.7587 41.948 26.6333 42 26.5 42C26.3667 42 26.2407 41.948 26.1467 41.8533C25.952 41.6587 25.952 41.3414 26.1467 41.146L33.2933 33.9997L26.1467 26.854C26.052 26.76 26 26.634 26 26.5006C26 26.3673 26.052 26.2413 26.1467 26.1473C26.2407 26.0527 26.3667 26.0007 26.5 26.0007C26.6333 26.0007 26.7593 26.0527 26.8533 26.1473L34 33.293L41.1467 26.1467C41.2413 26.052 41.3667 26 41.5 26C41.6333 26 41.7593 26.052 41.8533 26.1467C41.948 26.2413 42 26.3673 42 26.5006C42 26.634 41.948 26.76 41.8533 26.854L34.7067 34.0003L41.8533 41.1467C42.048 41.3414 42.048 41.6587 41.8533 41.854C41.7593 41.948 41.6333 42 41.5 42Z" fill="#FDF9F9"/>
</g>
<path d="M54.366 40H53.19V30.2H54.366V35.562L59.42 30.2H60.946L57.04 34.288L61.212 40H59.756L56.228 35.142L54.366 37.088V40ZM63.616 40H62.454V32.58H63.378L63.49 33.714C63.994 32.93 64.96 32.412 66.066 32.412C67.662 32.412 68.726 33.448 68.726 35.086V40H67.564V35.128C67.564 34.092 66.892 33.434 65.772 33.434C64.442 33.434 63.63 34.358 63.616 35.492V40ZM72.9417 40.112C71.2617 40.112 70.1837 39.244 70.1837 37.886C70.1837 36.178 71.8357 35.856 73.3197 35.702C74.4537 35.59 75.4337 35.604 75.4477 35.002C75.4337 34.064 74.6637 33.406 73.5437 33.406C72.4657 33.406 71.6257 34.008 71.4997 34.89H70.3517C70.4917 33.434 71.8077 32.412 73.5717 32.412C75.4057 32.412 76.5817 33.504 76.5817 35.072V38.684C76.5817 38.922 76.7077 39.048 76.9597 39.048H77.3797V40H76.7217C75.9237 40 75.5037 39.636 75.5037 38.95V38.726C75.0697 39.58 74.2297 40.112 72.9417 40.112ZM73.1097 39.118C74.4957 39.118 75.4477 38.236 75.4477 37.004V36.038C75.1257 36.472 74.2997 36.556 73.3897 36.654C72.3677 36.766 71.3457 36.906 71.3457 37.858C71.3457 38.628 72.0457 39.118 73.1097 39.118ZM79.8725 42.8H78.7105V32.58H79.6345L79.7605 33.924C80.2925 33 81.2725 32.412 82.4765 32.412C84.4365 32.412 85.8085 33.98 85.8085 36.248C85.8085 38.558 84.4365 40.154 82.4765 40.154C81.3425 40.154 80.4045 39.636 79.8725 38.768V42.8ZM82.2945 39.146C83.6665 39.146 84.6045 37.956 84.6045 36.248C84.6045 34.582 83.6665 33.42 82.2805 33.42C80.8805 33.42 79.8725 34.554 79.8725 36.192C79.8725 37.928 80.8805 39.146 82.2945 39.146ZM88.5268 42.8H87.3648V32.58H88.2888L88.4148 33.924C88.9468 33 89.9268 32.412 91.1308 32.412C93.0908 32.412 94.4628 33.98 94.4628 36.248C94.4628 38.558 93.0908 40.154 91.1308 40.154C89.9968 40.154 89.0588 39.636 88.5268 38.768V42.8ZM90.9488 39.146C92.3208 39.146 93.2588 37.956 93.2588 36.248C93.2588 34.582 92.3208 33.42 90.9348 33.42C89.5348 33.42 88.5268 34.554 88.5268 36.192C88.5268 37.928 89.5348 39.146 90.9488 39.146ZM99.2671 40.154C97.0691 40.154 95.6131 38.544 95.6131 36.318C95.6131 33.784 97.2511 32.412 99.1271 32.412C101.171 32.412 102.487 33.784 102.529 36.164V36.486H96.7751C96.8451 38.068 97.7691 39.146 99.2671 39.146C100.303 39.146 101.059 38.628 101.367 37.662H102.501C102.165 39.188 100.961 40.154 99.2671 40.154ZM96.8451 35.52H101.311C101.101 34.218 100.317 33.42 99.1271 33.42C97.9511 33.42 97.0831 34.19 96.8451 35.52ZM105.219 40H104.057V32.58H104.981L105.093 33.714C105.597 32.93 106.563 32.412 107.669 32.412C109.265 32.412 110.329 33.448 110.329 35.086V40H109.167V35.128C109.167 34.092 108.495 33.434 107.375 33.434C106.045 33.434 105.233 34.358 105.219 35.492V40ZM118.068 40.154C116.304 40.154 115.002 39.23 114.904 37.662H116.038C116.122 38.628 117.004 39.16 118.124 39.16C119.174 39.16 119.678 38.754 119.678 38.012C119.678 37.312 119.132 37.158 118.362 36.892L117.284 36.528C116.192 36.164 115.1 35.828 115.1 34.484C115.1 33.224 116.08 32.412 117.704 32.412C119.342 32.412 120.476 33.294 120.658 34.946H119.524C119.398 33.91 118.67 33.406 117.662 33.406C116.752 33.406 116.22 33.812 116.22 34.456C116.22 35.226 117.032 35.38 117.648 35.59L118.656 35.926C120.014 36.374 120.826 36.836 120.826 38.068C120.826 39.37 119.874 40.154 118.068 40.154ZM123.459 40H122.297V29.5H123.459V36.234L127.071 32.58H128.471L125.797 35.282L128.877 40H127.519L124.999 36.094L123.459 37.648V40ZM132.182 40.112C130.502 40.112 129.424 39.244 129.424 37.886C129.424 36.178 131.076 35.856 132.56 35.702C133.694 35.59 134.674 35.604 134.688 35.002C134.674 34.064 133.904 33.406 132.784 33.406C131.706 33.406 130.866 34.008 130.74 34.89H129.592C129.732 33.434 131.048 32.412 132.812 32.412C134.646 32.412 135.822 33.504 135.822 35.072V38.684C135.822 38.922 135.948 39.048 136.2 39.048H136.62V40H135.962C135.164 40 134.744 39.636 134.744 38.95V38.726C134.31 39.58 133.47 40.112 132.182 40.112ZM132.35 39.118C133.736 39.118 134.688 38.236 134.688 37.004V36.038C134.366 36.472 133.54 36.556 132.63 36.654C131.608 36.766 130.586 36.906 130.586 37.858C130.586 38.628 131.286 39.118 132.35 39.118ZM139.127 40H137.965V29.5H139.127V40ZM144.8 31.334C144.31 31.334 143.932 30.956 143.932 30.466C143.932 29.976 144.31 29.612 144.8 29.612C145.29 29.612 145.654 29.976 145.654 30.466C145.654 30.956 145.29 31.334 144.8 31.334ZM145.374 40H144.212V32.58H145.374V40ZM148.478 40H147.316V29.5H148.478V36.234L152.09 32.58H153.49L150.816 35.282L153.896 40H152.538L150.018 36.094L148.478 37.648V40ZM156.08 40H154.918V29.5H156.08V36.234L159.692 32.58H161.092L158.418 35.282L161.498 40H160.14L157.62 36.094L156.08 37.648V40ZM165.357 40.154C163.159 40.154 161.703 38.544 161.703 36.318C161.703 33.784 163.341 32.412 165.217 32.412C167.261 32.412 168.577 33.784 168.619 36.164V36.486H162.865C162.935 38.068 163.859 39.146 165.357 39.146C166.393 39.146 167.149 38.628 167.457 37.662H168.591C168.255 39.188 167.051 40.154 165.357 40.154ZM162.935 35.52H167.401C167.191 34.218 166.407 33.42 165.217 33.42C164.041 33.42 163.173 34.19 162.935 35.52ZM177.1 40.154C175.882 40.154 174.888 39.552 174.384 38.586L174.258 40H173.334V29.5H174.496V33.742C175.042 32.93 175.98 32.412 177.1 32.412C179.06 32.412 180.432 33.98 180.432 36.248C180.432 38.558 179.06 40.154 177.1 40.154ZM176.918 39.146C178.29 39.146 179.228 37.956 179.228 36.248C179.228 34.582 178.29 33.42 176.904 33.42C175.504 33.42 174.496 34.554 174.496 36.192C174.496 37.928 175.504 39.146 176.918 39.146ZM183.122 40H181.96V32.58H182.884L183.024 33.994C183.5 33.042 184.368 32.538 185.6 32.538H185.852V33.686H185.6C184.032 33.686 183.122 34.582 183.122 36.108V40ZM190.117 40.154C187.919 40.154 186.463 38.544 186.463 36.318C186.463 33.784 188.101 32.412 189.977 32.412C192.021 32.412 193.337 33.784 193.379 36.164V36.486H187.625C187.695 38.068 188.619 39.146 190.117 39.146C191.153 39.146 191.909 38.628 192.217 37.662H193.351C193.015 39.188 191.811 40.154 190.117 40.154ZM187.695 35.52H192.161C191.951 34.218 191.167 33.42 189.977 33.42C188.801 33.42 187.933 34.19 187.695 35.52ZM196.111 40H194.949V29.5H196.111V36.234L199.723 32.58H201.123L198.449 35.282L201.529 40H200.171L197.651 36.094L196.111 37.648V40ZM203.713 40H202.551V29.5H203.713V36.234L207.325 32.58H208.725L206.051 35.282L209.131 40H207.773L205.253 36.094L203.713 37.648V40ZM212.99 40.154C210.792 40.154 209.336 38.544 209.336 36.318C209.336 33.784 210.974 32.412 212.85 32.412C214.894 32.412 216.21 33.784 216.252 36.164V36.486H210.498C210.568 38.068 211.492 39.146 212.99 39.146C214.026 39.146 214.782 38.628 215.09 37.662H216.224C215.888 39.188 214.684 40.154 212.99 40.154ZM210.568 35.52H215.034C214.824 34.218 214.04 33.42 212.85 33.42C211.674 33.42 210.806 34.19 210.568 35.52ZM224.187 40.154C221.807 40.154 220.547 38.46 220.547 36.22C220.547 33.742 222.171 32.412 224.187 32.412C226.553 32.412 227.827 34.12 227.827 36.22C227.827 38.782 226.273 40.154 224.187 40.154ZM224.187 39.146C225.769 39.146 226.637 37.83 226.637 36.22C226.637 34.554 225.671 33.42 224.187 33.42C222.703 33.42 221.737 34.554 221.737 36.22C221.737 38.124 222.843 39.146 224.187 39.146ZM232.713 40H231.495L228.401 32.58H229.661L232.111 38.642L234.547 32.58H235.807L232.713 40ZM240.046 40.154C237.848 40.154 236.392 38.544 236.392 36.318C236.392 33.784 238.03 32.412 239.906 32.412C241.95 32.412 243.266 33.784 243.308 36.164V36.486H237.554C237.624 38.068 238.548 39.146 240.046 39.146C241.082 39.146 241.838 38.628 242.146 37.662H243.28C242.944 39.188 241.74 40.154 240.046 40.154ZM237.624 35.52H242.09C241.88 34.218 241.096 33.42 239.906 33.42C238.73 33.42 237.862 34.19 237.624 35.52ZM245.999 40H244.837V32.58H245.761L245.901 33.994C246.377 33.042 247.245 32.538 248.477 32.538H248.729V33.686H248.477C246.909 33.686 245.999 34.582 245.999 36.108V40ZM257.068 40H256.242C254.8 40 254.03 39.258 254.03 37.886V33.56H252.658V32.58H254.03V30.046H255.192V32.58H257.194V33.56H255.192V37.886C255.192 38.628 255.556 39.02 256.242 39.02H257.068V40ZM261.648 40.154C259.268 40.154 258.008 38.46 258.008 36.22C258.008 33.742 259.632 32.412 261.648 32.412C264.014 32.412 265.288 34.12 265.288 36.22C265.288 38.782 263.734 40.154 261.648 40.154ZM261.648 39.146C263.23 39.146 264.098 37.83 264.098 36.22C264.098 34.554 263.132 33.42 261.648 33.42C260.164 33.42 259.198 34.554 259.198 36.22C259.198 38.124 260.304 39.146 261.648 39.146ZM271.156 40H269.994V29.5H271.156V40ZM273.685 31.334C273.195 31.334 272.817 30.956 272.817 30.466C272.817 29.976 273.195 29.612 273.685 29.612C274.175 29.612 274.539 29.976 274.539 30.466C274.539 30.956 274.175 31.334 273.685 31.334ZM274.259 40H273.097V32.58H274.259V40ZM277.321 40H276.159V32.58H277.083L277.195 33.714C277.699 32.93 278.665 32.412 279.771 32.412C281.367 32.412 282.431 33.448 282.431 35.086V40H281.269V35.128C281.269 34.092 280.597 33.434 279.477 33.434C278.147 33.434 277.335 34.358 277.321 35.492V40ZM284.841 31.334C284.337 31.334 283.973 30.97 283.973 30.466C283.973 29.976 284.337 29.612 284.841 29.612C285.331 29.612 285.695 29.976 285.695 30.466C285.695 30.97 285.331 31.334 284.841 31.334ZM283.203 42.8H282.167V41.82H283.203C283.889 41.82 284.253 41.428 284.253 40.686V32.58H285.415V40.686C285.415 42.058 284.645 42.8 283.203 42.8ZM290.591 40.154C288.393 40.154 286.937 38.544 286.937 36.318C286.937 33.784 288.575 32.412 290.451 32.412C292.495 32.412 293.811 33.784 293.853 36.164V36.486H288.099C288.169 38.068 289.093 39.146 290.591 39.146C291.627 39.146 292.383 38.628 292.691 37.662H293.825C293.489 39.188 292.285 40.154 290.591 40.154ZM288.169 35.52H292.635C292.425 34.218 291.641 33.42 290.451 33.42C289.275 33.42 288.407 34.19 288.169 35.52ZM296.544 40H295.382V32.58H296.306L296.446 33.994C296.922 33.042 297.79 32.538 299.022 32.538H299.274V33.686H299.022C297.454 33.686 296.544 34.582 296.544 36.108V40ZM301.1 37.886L299.574 42.562L298.636 42.268L300.106 37.578L301.1 37.886ZM309.158 40.154C306.96 40.154 305.504 38.544 305.504 36.318C305.504 33.784 307.142 32.412 309.018 32.412C311.062 32.412 312.378 33.784 312.42 36.164V36.486H306.666C306.736 38.068 307.66 39.146 309.158 39.146C310.194 39.146 310.95 38.628 311.258 37.662H312.392C312.056 39.188 310.852 40.154 309.158 40.154ZM306.736 35.52H311.202C310.992 34.218 310.208 33.42 309.018 33.42C307.842 33.42 306.974 34.19 306.736 35.52ZM315.152 40H313.99V29.5H315.152V40ZM318.297 40H317.135V29.5H318.297V40ZM323.513 40.154C321.315 40.154 319.859 38.544 319.859 36.318C319.859 33.784 321.497 32.412 323.373 32.412C325.417 32.412 326.733 33.784 326.775 36.164V36.486H321.021C321.091 38.068 322.015 39.146 323.513 39.146C324.549 39.146 325.305 38.628 325.613 37.662H326.747C326.411 39.188 325.207 40.154 323.513 40.154ZM321.091 35.52H325.557C325.347 34.218 324.563 33.42 323.373 33.42C322.197 33.42 321.329 34.19 321.091 35.52ZM329.466 40H328.304V32.58H329.228L329.368 33.994C329.844 33.042 330.712 32.538 331.944 32.538H332.196V33.686H331.944C330.376 33.686 329.466 34.582 329.466 36.108V40ZM56.214 65.154C53.834 65.154 52.574 63.46 52.574 61.22C52.574 58.742 54.198 57.412 56.214 57.412C58.58 57.412 59.854 59.12 59.854 61.22C59.854 63.782 58.3 65.154 56.214 65.154ZM56.214 64.146C57.796 64.146 58.664 62.83 58.664 61.22C58.664 59.554 57.698 58.42 56.214 58.42C54.73 58.42 53.764 59.554 53.764 61.22C53.764 63.124 54.87 64.146 56.214 64.146ZM64.7404 65H63.5224L60.4284 57.58H61.6884L64.1384 63.642L66.5744 57.58H67.8344L64.7404 65ZM72.0737 65.154C69.8757 65.154 68.4197 63.544 68.4197 61.318C68.4197 58.784 70.0577 57.412 71.9337 57.412C73.9777 57.412 75.2937 58.784 75.3357 61.164V61.486H69.5817C69.6517 63.068 70.5757 64.146 72.0737 64.146C73.1097 64.146 73.8657 63.628 74.1737 62.662H75.3077C74.9717 64.188 73.7677 65.154 72.0737 65.154ZM69.6517 60.52H74.1177C73.9077 59.218 73.1237 58.42 71.9337 58.42C70.7577 58.42 69.8897 59.19 69.6517 60.52ZM78.0261 65H76.8641V57.58H77.7881L77.9281 58.994C78.4041 58.042 79.2721 57.538 80.5041 57.538H80.7561V58.686H80.5041C78.9361 58.686 78.0261 59.582 78.0261 61.108V65ZM84.6947 65.154C82.9307 65.154 81.6287 64.23 81.5307 62.662H82.6647C82.7487 63.628 83.6307 64.16 84.7507 64.16C85.8007 64.16 86.3047 63.754 86.3047 63.012C86.3047 62.312 85.7587 62.158 84.9887 61.892L83.9107 61.528C82.8187 61.164 81.7267 60.828 81.7267 59.484C81.7267 58.224 82.7067 57.412 84.3307 57.412C85.9687 57.412 87.1027 58.294 87.2847 59.946H86.1507C86.0247 58.91 85.2967 58.406 84.2887 58.406C83.3787 58.406 82.8467 58.812 82.8467 59.456C82.8467 60.226 83.6587 60.38 84.2747 60.59L85.2827 60.926C86.6407 61.374 87.4527 61.836 87.4527 63.068C87.4527 64.37 86.5007 65.154 84.6947 65.154ZM90.0857 65H88.9237V54.5H90.0857V61.234L93.6977 57.58H95.0977L92.4237 60.282L95.5037 65H94.1457L91.6257 61.094L90.0857 62.648V65ZM97.6453 65H96.4833V57.58H97.4073L97.5473 58.994C98.0233 58.042 98.8913 57.538 100.123 57.538H100.375V58.686H100.123C98.5553 58.686 97.6453 59.582 97.6453 61.108V65ZM102.294 56.334C101.804 56.334 101.426 55.956 101.426 55.466C101.426 54.976 101.804 54.612 102.294 54.612C102.784 54.612 103.148 54.976 103.148 55.466C103.148 55.956 102.784 56.334 102.294 56.334ZM102.868 65H101.706V57.58H102.868V65ZM107.764 65.154C105.776 65.154 104.39 63.558 104.39 61.248C104.39 58.98 105.762 57.412 107.75 57.412C108.87 57.412 109.808 57.902 110.34 58.686V54.5H111.502V65H110.578L110.452 63.572C109.962 64.538 108.982 65.154 107.764 65.154ZM107.946 64.146C109.36 64.146 110.34 62.942 110.34 61.22C110.34 59.554 109.388 58.406 108.016 58.406C106.588 58.406 105.594 59.568 105.594 61.248C105.594 62.956 106.56 64.146 107.946 64.146ZM116.726 65.154C114.528 65.154 113.072 63.544 113.072 61.318C113.072 58.784 114.71 57.412 116.586 57.412C118.63 57.412 119.946 58.784 119.988 61.164V61.486H114.234C114.304 63.068 115.228 64.146 116.726 64.146C117.762 64.146 118.518 63.628 118.826 62.662H119.96C119.624 64.188 118.42 65.154 116.726 65.154ZM114.304 60.52H118.77C118.56 59.218 117.776 58.42 116.586 58.42C115.41 58.42 114.542 59.19 114.304 60.52ZM125.865 65H124.703V54.5H125.865V61.234L129.477 57.58H130.877L128.203 60.282L131.283 65H129.925L127.405 61.094L125.865 62.648V65ZM133.425 65H132.263V57.58H133.187L133.299 58.714C133.803 57.93 134.769 57.412 135.875 57.412C137.471 57.412 138.535 58.448 138.535 60.086V65H137.373V60.128C137.373 59.092 136.701 58.434 135.581 58.434C134.251 58.434 133.439 59.358 133.425 60.492V65ZM142.75 65.112C141.07 65.112 139.992 64.244 139.992 62.886C139.992 61.178 141.644 60.856 143.128 60.702C144.262 60.59 145.242 60.604 145.256 60.002C145.242 59.064 144.472 58.406 143.352 58.406C142.274 58.406 141.434 59.008 141.308 59.89H140.16C140.3 58.434 141.616 57.412 143.38 57.412C145.214 57.412 146.39 58.504 146.39 60.072V63.684C146.39 63.922 146.516 64.048 146.768 64.048H147.188V65H146.53C145.732 65 145.312 64.636 145.312 63.95V63.726C144.878 64.58 144.038 65.112 142.75 65.112ZM142.918 64.118C144.304 64.118 145.256 63.236 145.256 62.004V61.038C144.934 61.472 144.108 61.556 143.198 61.654C142.176 61.766 141.154 61.906 141.154 62.858C141.154 63.628 141.854 64.118 142.918 64.118ZM149.681 67.8H148.519V57.58H149.443L149.569 58.924C150.101 58 151.081 57.412 152.285 57.412C154.245 57.412 155.617 58.98 155.617 61.248C155.617 63.558 154.245 65.154 152.285 65.154C151.151 65.154 150.213 64.636 149.681 63.768V67.8ZM152.103 64.146C153.475 64.146 154.413 62.956 154.413 61.248C154.413 59.582 153.475 58.42 152.089 58.42C150.689 58.42 149.681 59.554 149.681 61.192C149.681 62.928 150.689 64.146 152.103 64.146ZM158.335 67.8H157.173V57.58H158.097L158.223 58.924C158.755 58 159.735 57.412 160.939 57.412C162.899 57.412 164.271 58.98 164.271 61.248C164.271 63.558 162.899 65.154 160.939 65.154C159.805 65.154 158.867 64.636 158.335 63.768V67.8ZM160.757 64.146C162.129 64.146 163.067 62.956 163.067 61.248C163.067 59.582 162.129 58.42 160.743 58.42C159.343 58.42 158.335 59.554 158.335 61.192C158.335 62.928 159.343 64.146 160.757 64.146ZM169.076 65.154C166.878 65.154 165.422 63.544 165.422 61.318C165.422 58.784 167.06 57.412 168.936 57.412C170.98 57.412 172.296 58.784 172.338 61.164V61.486H166.584C166.654 63.068 167.578 64.146 169.076 64.146C170.112 64.146 170.868 63.628 171.176 62.662H172.31C171.974 64.188 170.77 65.154 169.076 65.154ZM166.654 60.52H171.12C170.91 59.218 170.126 58.42 168.936 58.42C167.76 58.42 166.892 59.19 166.654 60.52ZM175.028 65H173.866V57.58H174.79L174.902 58.714C175.406 57.93 176.372 57.412 177.478 57.412C179.074 57.412 180.138 58.448 180.138 60.086V65H178.976V60.128C178.976 59.092 178.304 58.434 177.184 58.434C175.854 58.434 175.042 59.358 175.028 60.492V65ZM184.732 65.154C182.968 65.154 181.666 64.23 181.568 62.662H182.702C182.786 63.628 183.668 64.16 184.788 64.16C185.838 64.16 186.342 63.754 186.342 63.012C186.342 62.312 185.796 62.158 185.026 61.892L183.948 61.528C182.856 61.164 181.764 60.828 181.764 59.484C181.764 58.224 182.744 57.412 184.368 57.412C186.006 57.412 187.14 58.294 187.322 59.946H186.188C186.062 58.91 185.334 58.406 184.326 58.406C183.416 58.406 182.884 58.812 182.884 59.456C182.884 60.226 183.696 60.38 184.312 60.59L185.32 60.926C186.678 61.374 187.49 61.836 187.49 63.068C187.49 64.37 186.538 65.154 184.732 65.154ZM193.225 65H192.063V57.58H192.987L193.127 58.994C193.603 58.042 194.471 57.538 195.703 57.538H195.955V58.686H195.703C194.135 58.686 193.225 59.582 193.225 61.108V65ZM199.516 65.112C197.836 65.112 196.758 64.244 196.758 62.886C196.758 61.178 198.41 60.856 199.894 60.702C201.028 60.59 202.008 60.604 202.022 60.002C202.008 59.064 201.238 58.406 200.118 58.406C199.04 58.406 198.2 59.008 198.074 59.89H196.926C197.066 58.434 198.382 57.412 200.146 57.412C201.98 57.412 203.156 58.504 203.156 60.072V63.684C203.156 63.922 203.282 64.048 203.534 64.048H203.954V65H203.296C202.498 65 202.078 64.636 202.078 63.95V63.726C201.644 64.58 200.804 65.112 199.516 65.112ZM199.684 64.118C201.07 64.118 202.022 63.236 202.022 62.004V61.038C201.7 61.472 200.874 61.556 199.964 61.654C198.942 61.766 197.92 61.906 197.92 62.858C197.92 63.628 198.62 64.118 199.684 64.118ZM206.419 65H205.257V57.58H206.181L206.293 58.728C206.797 57.93 207.763 57.412 208.827 57.412C209.947 57.412 210.787 57.986 211.165 58.882C211.641 58.014 212.663 57.412 213.797 57.412C215.365 57.412 216.373 58.518 216.373 60.03V65H215.211V60.072C215.211 59.078 214.595 58.434 213.601 58.434C212.215 58.434 211.403 59.358 211.389 60.492V65H210.241V60.072C210.241 59.078 209.625 58.434 208.631 58.434C207.245 58.434 206.433 59.358 206.419 60.492V65ZM219.352 65H218.19V57.58H219.114L219.226 58.728C219.73 57.93 220.696 57.412 221.76 57.412C222.88 57.412 223.72 57.986 224.098 58.882C224.574 58.014 225.596 57.412 226.73 57.412C228.298 57.412 229.306 58.518 229.306 60.03V65H228.144V60.072C228.144 59.078 227.528 58.434 226.534 58.434C225.148 58.434 224.336 59.358 224.322 60.492V65H223.174V60.072C223.174 59.078 222.558 58.434 221.564 58.434C220.178 58.434 219.366 59.358 219.352 60.492V65ZM234.4 65.154C232.202 65.154 230.746 63.544 230.746 61.318C230.746 58.784 232.384 57.412 234.26 57.412C236.304 57.412 237.62 58.784 237.662 61.164V61.486H231.908C231.978 63.068 232.902 64.146 234.4 64.146C235.436 64.146 236.192 63.628 236.5 62.662H237.634C237.298 64.188 236.094 65.154 234.4 65.154ZM231.978 60.52H236.444C236.234 59.218 235.45 58.42 234.26 58.42C233.084 58.42 232.216 59.19 231.978 60.52ZM240.352 65H239.19V57.58H240.114L240.254 58.994C240.73 58.042 241.598 57.538 242.83 57.538H243.082V58.686H242.83C241.262 58.686 240.352 59.582 240.352 61.108V65ZM243.977 65.14C243.473 65.14 243.095 64.762 243.095 64.258C243.095 63.768 243.473 63.39 243.977 63.39C244.481 63.39 244.859 63.768 244.859 64.258C244.859 64.762 244.481 65.14 243.977 65.14Z" fill="#481125"/>
<rect x="24.5" y="98.5" width="313" height="119" rx="12.7123" fill="#FDF9F9"/>
<rect x="24.5" y="98.5" width="313" height="119" rx="12.7123" stroke="#691837"/>
<g clip-path="url(#clip1_826_79479)">
<path d="M189.227 201.879C188.802 201.879 188.375 201.777 187.998 201.59C187.066 201.122 186.484 200.182 186.484 199.137V193.652H183.742C179.205 193.652 175.516 189.963 175.516 185.426V168.973C175.516 164.435 179.205 160.746 183.742 160.746H216.648C221.186 160.746 224.875 164.435 224.875 168.973V185.426C224.875 189.963 221.186 193.652 216.648 193.652H201.109L190.872 201.33C190.4 201.685 189.815 201.879 189.227 201.879ZM183.742 166.23C182.228 166.23 181 167.459 181 168.973V185.426C181 186.939 182.228 188.168 183.742 188.168H189.227C190.74 188.168 191.969 189.396 191.969 190.91V193.652L198.55 188.716C199.022 188.362 199.607 188.168 200.195 188.168H216.648C218.162 188.168 219.391 186.939 219.391 185.426V168.973C219.391 167.459 218.162 166.23 216.648 166.23H183.742Z" fill="#28000E"/>
<path d="M155.311 188.168C148.507 188.168 142.971 182.632 142.971 175.828C142.971 169.024 148.507 163.488 155.311 163.488C162.115 163.488 167.651 169.024 167.651 175.828C167.651 182.632 162.115 188.168 155.311 188.168ZM155.311 168.973C151.531 168.973 148.456 172.048 148.456 175.828C148.456 179.609 151.531 182.684 155.311 182.684C159.092 182.684 162.167 179.609 162.167 175.828C162.167 172.048 159.092 168.973 155.311 168.973Z" fill="#28000E"/>
<path d="M170.763 201.879C169.6 201.879 168.558 201.14 168.174 200.04C166.273 194.577 161.099 190.906 155.308 190.906C153.787 190.906 152.284 191.162 150.836 191.667C146.891 193.042 143.838 196.094 142.463 200.04C142.079 201.14 141.037 201.879 139.875 201.879C139.564 201.879 139.26 201.827 138.968 201.725C138.28 201.487 137.725 200.99 137.407 200.328C137.088 199.67 137.045 198.924 137.286 198.233C139.216 192.698 143.498 188.416 149.033 186.489C151.059 185.78 153.169 185.422 155.304 185.422C163.428 185.422 170.682 190.57 173.355 198.233C173.596 198.924 173.552 199.67 173.234 200.328C172.916 200.99 172.36 201.484 171.666 201.725C171.38 201.827 171.073 201.879 170.763 201.879Z" fill="#28000E"/>
<path d="M206.685 141.551C199.881 141.551 194.345 136.015 194.345 129.211C194.345 122.407 199.881 116.871 206.685 116.871C213.489 116.871 219.025 122.407 219.025 129.211C219.025 136.015 213.489 141.551 206.685 141.551ZM206.685 122.355C202.905 122.355 199.83 125.43 199.83 129.211C199.83 132.992 202.905 136.066 206.685 136.066C210.466 136.066 213.541 132.992 213.541 129.211C213.541 125.43 210.466 122.355 206.685 122.355Z" fill="#28000E"/>
<path d="M191.241 155.262C190.938 155.262 190.634 155.211 190.342 155.108C189.647 154.867 189.088 154.37 188.77 153.708C188.451 153.046 188.408 152.304 188.653 151.613C190.583 146.081 194.865 141.799 200.396 139.869C202.426 139.163 204.535 138.801 206.671 138.801C214.795 138.801 222.049 143.949 224.721 151.613C224.963 152.304 224.923 153.05 224.604 153.708C224.286 154.366 223.731 154.863 223.04 155.104C222.747 155.207 222.444 155.258 222.136 155.258C220.974 155.258 219.932 154.519 219.548 153.419C217.636 147.96 212.466 144.289 206.671 144.289C205.15 144.289 203.647 144.545 202.203 145.05C198.258 146.425 195.205 149.478 193.83 153.423C193.446 154.523 192.404 155.262 191.241 155.262Z" fill="#28000E"/>
<path d="M197.453 174.457C195.939 174.457 194.711 173.229 194.711 171.715C194.711 170.201 195.939 168.973 197.453 168.973H211.164C212.678 168.973 213.906 170.201 213.906 171.715C213.906 173.229 212.678 174.457 211.164 174.457H197.453Z" fill="#28000E"/>
<path d="M189.227 182.684C187.713 182.684 186.484 181.455 186.484 179.941C186.484 178.428 187.713 177.199 189.227 177.199H211.164C212.678 177.199 213.906 178.428 213.906 179.941C213.906 181.455 212.678 182.684 211.164 182.684H189.227Z" fill="#28000E"/>
<path d="M172.773 155.262C172.185 155.262 171.6 155.068 171.128 154.713L160.891 147.035H145.352C140.814 147.035 137.125 143.342 137.125 138.809V122.355C137.125 117.818 140.814 114.129 145.352 114.129H178.258C182.795 114.129 186.484 117.818 186.484 122.355V138.809C186.484 143.346 182.795 147.035 178.258 147.035H175.516V152.52C175.516 153.565 174.934 154.505 174.002 154.973C173.618 155.159 173.194 155.262 172.773 155.262ZM145.352 119.613C143.838 119.613 142.609 120.842 142.609 122.355V138.809C142.609 140.322 143.838 141.551 145.352 141.551H161.805C162.393 141.551 162.978 141.745 163.45 142.099L170.031 147.035V144.293C170.031 142.779 171.26 141.551 172.773 141.551H178.258C179.772 141.551 181 140.322 181 138.809V122.355C181 120.842 179.772 119.613 178.258 119.613H145.352Z" fill="#28000E"/>
<path d="M150.836 127.84C149.322 127.84 148.094 126.608 148.094 125.098C148.094 123.588 149.322 122.355 150.836 122.355H164.547C166.061 122.355 167.289 123.584 167.289 125.098C167.289 126.611 166.061 127.84 164.547 127.84H150.836Z" fill="#28000E"/>
<path d="M150.836 136.066C149.322 136.066 148.094 134.834 148.094 133.324C148.094 131.814 149.322 130.582 150.836 130.582H172.773C174.287 130.582 175.516 131.811 175.516 133.324C175.516 134.838 174.287 136.066 172.773 136.066H150.836Z" fill="#28000E"/>
</g>
<rect x="382.5" y="24" width="20" height="20" rx="10" fill="#03834E"/>
<path d="M390.25 38.9167H389.917C389.5 38.8333 389.167 38.5833 389 38.25L387 35.3333C386.833 35.0833 386.833 34.6667 387.167 34.5C387.25 34.4167 387.417 34.4167 387.5 34.4167C387.667 34.4167 387.917 34.5 388 34.6667L390.083 37.5833C390.167 37.6667 390.167 37.6667 390.25 37.6667H390.333C390.417 37.6667 390.417 37.6667 390.5 37.5833C390.5 37.5833 390.583 37.5833 390.583 37.5L397.167 29.25C397.25 29.0833 397.5 29 397.667 29C397.833 29 397.917 29.0833 398.083 29.1667C398.25 29.25 398.333 29.4167 398.333 29.5833C398.333 29.75 398.333 29.9167 398.167 30.0833L391.667 38.3333L391.333 38.6667C390.833 38.8333 390.583 38.9167 390.25 38.9167Z" fill="#FDF9F9"/>
<path d="M416.296 40H411.69V30.2H416.184C417.892 30.2 419.082 31.208 419.082 32.664C419.082 33.714 418.34 34.582 417.192 34.946C418.466 35.198 419.306 36.122 419.306 37.326C419.306 38.908 418.074 40 416.296 40ZM412.852 31.278V34.484H416.114C417.164 34.484 417.892 33.784 417.892 32.79C417.892 31.894 417.234 31.278 416.296 31.278H412.852ZM412.852 35.534V38.922H416.422C417.402 38.922 418.088 38.222 418.088 37.2C418.088 36.108 417.234 35.534 416.184 35.534H412.852ZM422.143 40H420.981V32.58H421.905L422.045 33.994C422.521 33.042 423.389 32.538 424.621 32.538H424.873V33.686H424.621C423.053 33.686 422.143 34.582 422.143 36.108V40ZM428.906 40.154C427.1 40.154 426.064 39.048 426.064 37.536V32.58H427.226V37.494C427.226 38.558 427.968 39.132 429.018 39.132C430.404 39.132 431.16 38.208 431.174 37.088V32.58H432.336V40H431.412L431.314 38.88C430.824 39.72 429.928 40.154 428.906 40.154ZM435.447 40H434.285V29.5H435.447V36.234L439.059 32.58H440.459L437.785 35.282L440.865 40H439.507L436.987 36.094L435.447 37.648V40ZM448.265 40.154C446.067 40.154 444.611 38.544 444.611 36.318C444.611 33.784 446.249 32.412 448.125 32.412C450.169 32.412 451.485 33.784 451.527 36.164V36.486H445.773C445.843 38.068 446.767 39.146 448.265 39.146C449.301 39.146 450.057 38.628 450.365 37.662H451.499C451.163 39.188 449.959 40.154 448.265 40.154ZM445.843 35.52H450.309C450.099 34.218 449.315 33.42 448.125 33.42C446.949 33.42 446.081 34.19 445.843 35.52ZM454.218 40H453.056V32.58H453.98L454.092 33.714C454.596 32.93 455.562 32.412 456.668 32.412C458.264 32.412 459.328 33.448 459.328 35.086V40H458.166V35.128C458.166 34.092 457.494 33.434 456.374 33.434C455.044 33.434 454.232 34.358 454.218 35.492V40ZM462.353 40H461.191V29.5H462.353V36.234L465.965 32.58H467.365L464.691 35.282L467.771 40H466.413L463.893 36.094L462.353 37.648V40ZM469.955 40H468.793V29.5H469.955V40ZM475.171 40.154C472.973 40.154 471.517 38.544 471.517 36.318C471.517 33.784 473.155 32.412 475.031 32.412C477.075 32.412 478.391 33.784 478.433 36.164V36.486H472.679C472.749 38.068 473.673 39.146 475.171 39.146C476.207 39.146 476.963 38.628 477.271 37.662H478.405C478.069 39.188 476.865 40.154 475.171 40.154ZM472.749 35.52H477.215C477.005 34.218 476.221 33.42 475.031 33.42C473.855 33.42 472.987 34.19 472.749 35.52ZM483.694 31.334C483.204 31.334 482.826 30.956 482.826 30.466C482.826 29.976 483.204 29.612 483.694 29.612C484.184 29.612 484.548 29.976 484.548 30.466C484.548 30.956 484.184 31.334 483.694 31.334ZM484.268 40H483.106V32.58H484.268V40ZM487.373 40H486.211V29.5H487.373V36.234L490.985 32.58H492.385L489.711 35.282L492.791 40H491.433L488.913 36.094L487.373 37.648V40ZM496.636 40.154C494.256 40.154 492.996 38.46 492.996 36.22C492.996 33.742 494.62 32.412 496.636 32.412C499.002 32.412 500.276 34.12 500.276 36.22C500.276 38.782 498.722 40.154 496.636 40.154ZM496.636 39.146C498.218 39.146 499.086 37.83 499.086 36.22C499.086 34.554 498.12 33.42 496.636 33.42C495.152 33.42 494.186 34.554 494.186 36.22C494.186 38.124 495.292 39.146 496.636 39.146ZM502.958 40H501.796V32.58H502.72L502.832 33.714C503.336 32.93 504.302 32.412 505.408 32.412C507.004 32.412 508.068 33.448 508.068 35.086V40H506.906V35.128C506.906 34.092 506.234 33.434 505.114 33.434C503.784 33.434 502.972 34.358 502.958 35.492V40ZM513.166 40.154C510.968 40.154 509.512 38.544 509.512 36.318C509.512 33.784 511.15 32.412 513.026 32.412C515.07 32.412 516.386 33.784 516.428 36.164V36.486H510.674C510.744 38.068 511.668 39.146 513.166 39.146C514.202 39.146 514.958 38.628 515.266 37.662H516.4C516.064 39.188 514.86 40.154 513.166 40.154ZM510.744 35.52H515.21C515 34.218 514.216 33.42 513.026 33.42C511.85 33.42 510.982 34.19 510.744 35.52ZM519.118 40H517.956V32.58H518.88L519.02 33.994C519.496 33.042 520.364 32.538 521.596 32.538H521.848V33.686H521.596C520.028 33.686 519.118 34.582 519.118 36.108V40ZM528.311 40H527.149V33.56H525.777V32.58H527.149V31.544C527.149 30.214 527.891 29.5 529.263 29.5H530.915V30.48H529.263C528.647 30.48 528.311 30.858 528.311 31.544V32.58H530.719V33.56H528.311V40ZM535.013 40.154C532.633 40.154 531.373 38.46 531.373 36.22C531.373 33.742 532.997 32.412 535.013 32.412C537.379 32.412 538.653 34.12 538.653 36.22C538.653 38.782 537.099 40.154 535.013 40.154ZM535.013 39.146C536.595 39.146 537.463 37.83 537.463 36.22C537.463 34.554 536.497 33.42 535.013 33.42C533.529 33.42 532.563 34.554 532.563 36.22C532.563 38.124 533.669 39.146 535.013 39.146ZM541.335 40H540.173V32.58H541.097L541.237 33.994C541.713 33.042 542.581 32.538 543.813 32.538H544.065V33.686H543.813C542.245 33.686 541.335 34.582 541.335 36.108V40ZM552.348 40.154C551.13 40.154 550.136 39.552 549.632 38.586L549.506 40H548.582V29.5H549.744V33.742C550.29 32.93 551.228 32.412 552.348 32.412C554.308 32.412 555.68 33.98 555.68 36.248C555.68 38.558 554.308 40.154 552.348 40.154ZM552.166 39.146C553.538 39.146 554.476 37.956 554.476 36.248C554.476 34.582 553.538 33.42 552.152 33.42C550.752 33.42 549.744 34.554 549.744 36.192C549.744 37.928 550.752 39.146 552.166 39.146ZM560.484 40.154C558.286 40.154 556.83 38.544 556.83 36.318C556.83 33.784 558.468 32.412 560.344 32.412C562.388 32.412 563.704 33.784 563.746 36.164V36.486H557.992C558.062 38.068 558.986 39.146 560.484 39.146C561.52 39.146 562.276 38.628 562.584 37.662H563.718C563.382 39.188 562.178 40.154 560.484 40.154ZM558.062 35.52H562.528C562.318 34.218 561.534 33.42 560.344 33.42C559.168 33.42 558.3 34.19 558.062 35.52ZM568.27 40.154C566.282 40.154 564.896 38.558 564.896 36.248C564.896 33.98 566.268 32.412 568.256 32.412C569.376 32.412 570.314 32.902 570.846 33.686V29.5H572.008V40H571.084L570.958 38.572C570.468 39.538 569.488 40.154 568.27 40.154ZM568.452 39.146C569.866 39.146 570.846 37.942 570.846 36.22C570.846 34.554 569.894 33.406 568.522 33.406C567.094 33.406 566.1 34.568 566.1 36.248C566.1 37.956 567.066 39.146 568.452 39.146ZM575.118 40H573.956V32.58H574.88L575.02 33.994C575.496 33.042 576.364 32.538 577.596 32.538H577.848V33.686H577.596C576.028 33.686 575.118 34.582 575.118 36.108V40ZM582.113 40.154C579.915 40.154 578.459 38.544 578.459 36.318C578.459 33.784 580.097 32.412 581.973 32.412C584.017 32.412 585.333 33.784 585.375 36.164V36.486H579.621C579.691 38.068 580.615 39.146 582.113 39.146C583.149 39.146 583.905 38.628 584.213 37.662H585.347C585.011 39.188 583.807 40.154 582.113 40.154ZM579.691 35.52H584.157C583.947 34.218 583.163 33.42 581.973 33.42C580.797 33.42 579.929 34.19 579.691 35.52ZM591.252 40H590.09V29.5H591.252V40ZM596.468 40.154C594.27 40.154 592.814 38.544 592.814 36.318C592.814 33.784 594.452 32.412 596.328 32.412C598.372 32.412 599.688 33.784 599.73 36.164V36.486H593.976C594.046 38.068 594.97 39.146 596.468 39.146C597.504 39.146 598.26 38.628 598.568 37.662H599.702C599.366 39.188 598.162 40.154 596.468 40.154ZM594.046 35.52H598.512C598.302 34.218 597.518 33.42 596.328 33.42C595.152 33.42 594.284 34.19 594.046 35.52ZM604.031 40.154C602.267 40.154 600.965 39.23 600.867 37.662H602.001C602.085 38.628 602.967 39.16 604.087 39.16C605.137 39.16 605.641 38.754 605.641 38.012C605.641 37.312 605.095 37.158 604.325 36.892L603.247 36.528C602.155 36.164 601.063 35.828 601.063 34.484C601.063 33.224 602.043 32.412 603.667 32.412C605.305 32.412 606.439 33.294 606.621 34.946H605.487C605.361 33.91 604.633 33.406 603.625 33.406C602.715 33.406 602.183 33.812 602.183 34.456C602.183 35.226 602.995 35.38 603.611 35.59L604.619 35.926C605.977 36.374 606.789 36.836 606.789 38.068C606.789 39.37 605.837 40.154 604.031 40.154ZM612.026 40.154C610.808 40.154 609.814 39.552 609.31 38.586L609.184 40H608.26V29.5H609.422V33.742C609.968 32.93 610.906 32.412 612.026 32.412C613.986 32.412 615.358 33.98 615.358 36.248C615.358 38.558 613.986 40.154 612.026 40.154ZM611.844 39.146C613.216 39.146 614.154 37.956 614.154 36.248C614.154 34.582 613.216 33.42 611.83 33.42C610.43 33.42 609.422 34.554 609.422 36.192C609.422 37.928 610.43 39.146 611.844 39.146ZM619.28 40.112C617.6 40.112 616.522 39.244 616.522 37.886C616.522 36.178 618.174 35.856 619.658 35.702C620.792 35.59 621.772 35.604 621.786 35.002C621.772 34.064 621.002 33.406 619.882 33.406C618.804 33.406 617.964 34.008 617.838 34.89H616.69C616.83 33.434 618.146 32.412 619.91 32.412C621.744 32.412 622.92 33.504 622.92 35.072V38.684C622.92 38.922 623.046 39.048 623.298 39.048H623.718V40H623.06C622.262 40 621.842 39.636 621.842 38.95V38.726C621.408 39.58 620.568 40.112 619.28 40.112ZM619.448 39.118C620.834 39.118 621.786 38.236 621.786 37.004V36.038C621.464 36.472 620.638 36.556 619.728 36.654C618.706 36.766 617.684 36.906 617.684 37.858C617.684 38.628 618.384 39.118 619.448 39.118ZM626.182 40H625.02V32.58H625.944L626.084 33.994C626.56 33.042 627.428 32.538 628.66 32.538H628.912V33.686H628.66C627.092 33.686 626.182 34.582 626.182 36.108V40ZM631.447 40H630.285V29.5H631.447V33.532C631.979 32.86 632.889 32.412 633.897 32.412C635.493 32.412 636.557 33.448 636.557 35.086V40H635.395V35.128C635.395 34.092 634.723 33.434 633.673 33.434C632.273 33.434 631.461 34.358 631.447 35.492V40ZM641.654 40.154C639.456 40.154 638 38.544 638 36.318C638 33.784 639.638 32.412 641.514 32.412C643.558 32.412 644.874 33.784 644.916 36.164V36.486H639.162C639.232 38.068 640.156 39.146 641.654 39.146C642.69 39.146 643.446 38.628 643.754 37.662H644.888C644.552 39.188 643.348 40.154 641.654 40.154ZM639.232 35.52H643.698C643.488 34.218 642.704 33.42 641.514 33.42C640.338 33.42 639.47 34.19 639.232 35.52ZM650.117 40H649.291C647.849 40 647.079 39.258 647.079 37.886V33.56H645.707V32.58H647.079V30.046H648.241V32.58H650.243V33.56H648.241V37.886C648.241 38.628 648.605 39.02 649.291 39.02H650.117V40Z" fill="#481125"/>
<rect x="383" y="98.5" width="313" height="119" rx="12.7123" fill="#FDF9F9"/>
<rect x="383" y="98.5" width="313" height="119" rx="12.7123" stroke="#691837"/>
<g clip-path="url(#clip2_826_79479)">
<path d="M564.628 194.562C564.327 194.563 564.03 194.505 563.753 194.39C563.476 194.274 563.224 194.105 563.013 193.892L549.972 180.852H548.634C538.555 180.852 530.353 172.649 530.353 162.57C530.353 152.491 538.555 144.289 548.634 144.289H557.775C567.857 144.292 576.056 152.491 576.056 162.57C576.055 165.772 575.21 168.917 573.605 171.687C572 174.458 569.693 176.756 566.916 178.35V192.277C566.916 192.578 566.857 192.875 566.742 193.153C566.626 193.43 566.458 193.682 566.245 193.894C566.033 194.107 565.781 194.275 565.503 194.389C565.225 194.504 564.928 194.563 564.628 194.562ZM548.631 148.859C544.996 148.863 541.511 150.309 538.941 152.88C536.37 155.45 534.925 158.935 534.921 162.57C534.921 170.13 541.072 176.281 548.631 176.281H550.917C551.52 176.281 552.108 176.525 552.531 176.952L562.342 186.763V176.973C562.342 176.092 562.857 175.282 563.649 174.907C565.983 173.796 567.957 172.049 569.342 169.866C570.728 167.684 571.47 165.155 571.483 162.57C571.479 158.937 570.034 155.453 567.465 152.883C564.895 150.313 561.412 148.867 557.778 148.862H548.631V148.859Z" fill="#28000E"/>
<path d="M514.354 171.711C514.054 171.712 513.756 171.654 513.478 171.539C513.2 171.425 512.948 171.257 512.736 171.044C512.523 170.832 512.355 170.579 512.24 170.302C512.126 170.024 512.068 169.726 512.069 169.426V155.502C508.313 153.346 505.449 149.919 503.995 145.84C503.18 143.586 502.82 141.192 502.937 138.798C503.054 136.403 503.644 134.056 504.674 131.891C506.159 128.77 508.495 126.133 511.415 124.283C514.334 122.433 517.717 121.447 521.173 121.438H530.35C534.284 121.456 538.108 122.733 541.262 125.084C544.416 127.434 546.734 130.733 547.876 134.496C547.977 134.837 547.997 135.197 547.934 135.547C547.872 135.897 547.729 136.227 547.517 136.512C547.304 136.797 547.029 137.029 546.711 137.189C546.394 137.349 546.044 137.433 545.688 137.434C545.196 137.431 544.718 137.271 544.324 136.978C543.93 136.684 543.64 136.271 543.498 135.8C542.64 132.978 540.901 130.504 538.535 128.741C536.169 126.979 533.3 126.021 530.35 126.008H521.21C518.613 126.009 516.07 126.746 513.875 128.133C511.679 129.519 509.922 131.5 508.806 133.844C508.034 135.467 507.592 137.226 507.505 139.02C507.417 140.815 507.687 142.609 508.297 144.298C508.898 145.991 509.829 147.549 511.036 148.88C512.243 150.211 513.703 151.289 515.329 152.053C516.124 152.427 516.639 153.241 516.639 154.118V163.911L521.88 158.67C522.091 158.456 522.342 158.286 522.619 158.17C522.897 158.054 523.194 157.994 523.495 157.994C523.795 157.994 524.093 158.054 524.37 158.17C524.647 158.286 524.899 158.456 525.11 158.67C525.537 159.1 525.777 159.681 525.777 160.287C525.777 160.893 525.537 161.474 525.11 161.903L515.969 171.044C515.757 171.256 515.506 171.425 515.228 171.539C514.951 171.654 514.654 171.712 514.354 171.711Z" fill="#28000E"/>
</g>
<defs>
<clipPath id="clip0_826_79479">
<rect width="8" height="8" fill="white" transform="translate(30 30)"/>
</clipPath>
<clipPath id="clip1_826_79479">
<rect width="87.75" height="87.75" fill="white" transform="translate(137.125 114.125)"/>
</clipPath>
<clipPath id="clip2_826_79479">
<rect width="73.125" height="73.125" fill="white" transform="translate(502.938 121.438)"/>
</clipPath>
</defs>
</svg>
