<svg width="733" height="244" viewBox="0 0 733 244" fill="none" xmlns="http://www.w3.org/2000/svg">
<rect y="0.561035" width="733" height="242.504" rx="24" fill="white"/>
<rect x="24" y="24.561" width="20" height="20" rx="10" fill="#CE3871"/>
<g clip-path="url(#clip0_826_79972)">
<path d="M41.5 42.561C41.3667 42.561 41.2407 42.509 41.1467 42.4144L34 35.2687L26.8533 42.4144C26.7587 42.509 26.6333 42.561 26.5 42.561C26.3667 42.561 26.2407 42.509 26.1467 42.4144C25.952 42.2197 25.952 41.9024 26.1467 41.7071L33.2933 34.5607L26.1467 27.415C26.052 27.321 26 27.195 26 27.0617C26 26.9284 26.052 26.8024 26.1467 26.7084C26.2407 26.6137 26.3667 26.5617 26.5 26.5617C26.6333 26.5617 26.7593 26.6137 26.8533 26.7084L34 33.8541L41.1467 26.7077C41.2413 26.613 41.3667 26.561 41.5 26.561C41.6333 26.561 41.7593 26.613 41.8533 26.7077C41.948 26.8024 42 26.9284 42 27.0617C42 27.195 41.948 27.321 41.8533 27.415L34.7067 34.5614L41.8533 41.7077C42.048 41.9024 42.048 42.2197 41.8533 42.415C41.7593 42.509 41.6333 42.561 41.5 42.561Z" fill="#FDF9F9"/>
</g>
<path d="M57.348 40.561H56.088L52.28 30.761H53.54L56.718 38.937L59.798 30.761H61.044L57.348 40.561ZM70.2287 40.715C68.6607 40.715 67.4847 39.903 66.9247 38.629C66.6027 39.875 65.6647 40.673 64.0687 40.673C62.3887 40.673 61.3107 39.805 61.3107 38.447C61.3107 36.739 62.9627 36.417 64.4467 36.263C65.5807 36.151 66.5607 36.165 66.5747 35.563C66.5607 34.625 65.7907 33.967 64.6707 33.967C63.5927 33.967 62.7527 34.569 62.6267 35.451H61.4787C61.6187 33.995 62.9347 32.973 64.6987 32.973C65.9447 32.973 66.8827 33.477 67.3587 34.289C68.0167 33.421 69.0107 32.973 70.0887 32.973C72.1327 32.973 73.4487 34.345 73.4907 36.725V37.047H67.7367C67.8067 38.629 68.7307 39.707 70.2287 39.707C71.2647 39.707 72.0207 39.189 72.3287 38.223H73.4627C73.1267 39.749 71.9227 40.715 70.2287 40.715ZM67.8067 36.081H72.2727C72.0627 34.779 71.2787 33.981 70.0887 33.981C68.9127 33.981 68.0447 34.751 67.8067 36.081ZM64.2367 39.679C65.6227 39.679 66.5747 38.797 66.5747 37.565V36.599C66.2527 37.033 65.4267 37.117 64.5167 37.215C63.4947 37.327 62.4727 37.467 62.4727 38.419C62.4727 39.189 63.1727 39.679 64.2367 39.679ZM76.1804 40.561H75.0184V33.141H75.9424L76.0824 34.555C76.5584 33.603 77.4264 33.099 78.6584 33.099H78.9104V34.247H78.6584C77.0904 34.247 76.1804 35.143 76.1804 36.669V40.561ZM86.6476 40.715C84.2676 40.715 83.0076 39.021 83.0076 36.781C83.0076 34.303 84.6316 32.973 86.6476 32.973C89.0136 32.973 90.2876 34.681 90.2876 36.781C90.2876 39.343 88.7336 40.715 86.6476 40.715ZM86.6476 39.707C88.2296 39.707 89.0976 38.391 89.0976 36.781C89.0976 35.115 88.1316 33.981 86.6476 33.981C85.1636 33.981 84.1976 35.115 84.1976 36.781C84.1976 38.685 85.3036 39.707 86.6476 39.707ZM95.6155 40.715C94.3975 40.715 93.4035 40.113 92.8995 39.147L92.7735 40.561H91.8495V30.061H93.0115V34.303C93.5575 33.491 94.4955 32.973 95.6155 32.973C97.5755 32.973 98.9475 34.541 98.9475 36.809C98.9475 39.119 97.5755 40.715 95.6155 40.715ZM95.4335 39.707C96.8055 39.707 97.7435 38.517 97.7435 36.809C97.7435 35.143 96.8055 33.981 95.4195 33.981C94.0195 33.981 93.0115 35.115 93.0115 36.753C93.0115 38.489 94.0195 39.707 95.4335 39.707ZM103.247 40.715C101.483 40.715 100.181 39.791 100.083 38.223H101.217C101.301 39.189 102.183 39.721 103.303 39.721C104.353 39.721 104.857 39.315 104.857 38.573C104.857 37.873 104.311 37.719 103.541 37.453L102.463 37.089C101.371 36.725 100.279 36.389 100.279 35.045C100.279 33.785 101.259 32.973 102.883 32.973C104.521 32.973 105.655 33.855 105.837 35.507H104.703C104.577 34.471 103.849 33.967 102.841 33.967C101.931 33.967 101.399 34.373 101.399 35.017C101.399 35.787 102.211 35.941 102.827 36.151L103.835 36.487C105.193 36.935 106.005 37.397 106.005 38.629C106.005 39.931 105.053 40.715 103.247 40.715ZM111.769 43.361H110.607V33.141H111.531L111.657 34.485C112.189 33.561 113.169 32.973 114.373 32.973C116.333 32.973 117.705 34.541 117.705 36.809C117.705 39.119 116.333 40.715 114.373 40.715C113.239 40.715 112.301 40.197 111.769 39.329V43.361ZM114.191 39.707C115.563 39.707 116.501 38.517 116.501 36.809C116.501 35.143 115.563 33.981 114.177 33.981C112.777 33.981 111.769 35.115 111.769 36.753C111.769 38.489 112.777 39.707 114.191 39.707ZM122.173 32.343C121.375 32.343 120.773 31.769 120.773 31.013C120.773 30.257 121.375 29.683 122.173 29.683C122.971 29.683 123.573 30.257 123.573 31.013C123.573 31.769 122.971 32.343 122.173 32.343ZM122.173 31.643C122.537 31.643 122.803 31.377 122.803 31.013C122.803 30.649 122.537 30.383 122.173 30.383C121.809 30.383 121.543 30.649 121.543 31.013C121.543 31.377 121.809 31.643 122.173 31.643ZM121.627 40.673C119.947 40.673 118.869 39.805 118.869 38.447C118.869 36.739 120.521 36.417 122.005 36.263C123.139 36.151 124.119 36.165 124.133 35.563C124.119 34.625 123.349 33.967 122.229 33.967C121.151 33.967 120.311 34.569 120.185 35.451H119.037C119.177 33.995 120.493 32.973 122.257 32.973C124.091 32.973 125.267 34.065 125.267 35.633V39.245C125.267 39.483 125.393 39.609 125.645 39.609H126.065V40.561H125.407C124.609 40.561 124.189 40.197 124.189 39.511V39.287C123.755 40.141 122.915 40.673 121.627 40.673ZM121.795 39.679C123.181 39.679 124.133 38.797 124.133 37.565V36.599C123.811 37.033 122.985 37.117 122.075 37.215C121.053 37.327 120.031 37.467 120.031 38.419C120.031 39.189 120.731 39.679 121.795 39.679ZM134.321 40.715C133.103 40.715 132.109 40.113 131.605 39.147L131.479 40.561H130.555V30.061H131.717V34.303C132.263 33.491 133.201 32.973 134.321 32.973C136.281 32.973 137.653 34.541 137.653 36.809C137.653 39.119 136.281 40.715 134.321 40.715ZM134.139 39.707C135.511 39.707 136.449 38.517 136.449 36.809C136.449 35.143 135.511 33.981 134.125 33.981C132.725 33.981 131.717 35.115 131.717 36.753C131.717 38.489 132.725 39.707 134.139 39.707ZM140.343 40.561H139.181V33.141H140.105L140.245 34.555C140.721 33.603 141.589 33.099 142.821 33.099H143.073V34.247H142.821C141.253 34.247 140.343 35.143 140.343 36.669V40.561ZM147.105 40.715C145.299 40.715 144.263 39.609 144.263 38.097V33.141H145.425V38.055C145.425 39.119 146.167 39.693 147.217 39.693C148.603 39.693 149.359 38.769 149.373 37.649V33.141H150.535V40.561H149.611L149.513 39.441C149.023 40.281 148.127 40.715 147.105 40.715ZM153.646 40.561H152.484V30.061H153.646V36.795L157.258 33.141H158.658L155.984 35.843L159.064 40.561H157.706L155.186 36.655L153.646 38.209V40.561ZM162.923 40.715C160.725 40.715 159.269 39.105 159.269 36.879C159.269 34.345 160.907 32.973 162.783 32.973C164.827 32.973 166.143 34.345 166.185 36.725V37.047H160.431C160.501 38.629 161.425 39.707 162.923 39.707C163.959 39.707 164.715 39.189 165.023 38.223H166.157C165.821 39.749 164.617 40.715 162.923 40.715ZM160.501 36.081H164.967C164.757 34.779 163.973 33.981 162.783 33.981C161.607 33.981 160.739 34.751 160.501 36.081ZM168.876 40.561H167.714V33.141H168.638L168.778 34.555C169.254 33.603 170.122 33.099 171.354 33.099H171.606V34.247H171.354C169.786 34.247 168.876 35.143 168.876 36.669V40.561ZM176.781 40.561H175.563L172.469 33.141H173.729L176.179 39.203L178.615 33.141H179.875L176.781 40.561ZM184.115 40.715C181.917 40.715 180.461 39.105 180.461 36.879C180.461 34.345 182.099 32.973 183.975 32.973C186.019 32.973 187.335 34.345 187.377 36.725V37.047H181.623C181.693 38.629 182.617 39.707 184.115 39.707C185.151 39.707 185.907 39.189 186.215 38.223H187.349C187.013 39.749 185.809 40.715 184.115 40.715ZM181.693 36.081H186.159C185.949 34.779 185.165 33.981 183.975 33.981C182.799 33.981 181.931 34.751 181.693 36.081ZM190.067 40.561H188.905V33.141H189.829L189.941 34.275C190.445 33.491 191.411 32.973 192.517 32.973C194.113 32.973 195.177 34.009 195.177 35.647V40.561H194.015V35.689C194.015 34.653 193.343 33.995 192.223 33.995C190.893 33.995 190.081 34.919 190.067 36.053V40.561ZM198.161 40.561H196.999V33.141H197.923L198.035 34.275C198.539 33.491 199.505 32.973 200.611 32.973C202.207 32.973 203.271 34.009 203.271 35.647V40.561H202.109V35.689C202.109 34.653 201.437 33.995 200.317 33.995C198.987 33.995 198.175 34.919 198.161 36.053V40.561ZM206.297 40.561H205.135V30.061H206.297V40.561ZM208.825 31.895C208.335 31.895 207.957 31.517 207.957 31.027C207.957 30.537 208.335 30.173 208.825 30.173C209.315 30.173 209.679 30.537 209.679 31.027C209.679 31.517 209.315 31.895 208.825 31.895ZM209.399 40.561H208.237V33.141H209.399V40.561ZM214.534 43.529C212.532 43.529 211.174 42.563 211.174 40.995H212.336C212.336 41.877 213.232 42.549 214.534 42.549C216.06 42.549 216.858 41.639 216.858 40.365V39.161C216.34 39.931 215.444 40.435 214.31 40.435C212.336 40.435 210.922 38.923 210.922 36.739C210.922 34.513 212.35 32.973 214.31 32.973C215.5 32.973 216.466 33.533 216.97 34.429L217.096 33.141H218.006V40.365C218.006 42.241 216.746 43.529 214.534 43.529ZM214.478 39.427C215.878 39.427 216.858 38.307 216.858 36.697C216.858 35.101 215.878 33.981 214.478 33.981C213.092 33.981 212.126 35.101 212.126 36.725C212.126 38.321 213.092 39.427 214.478 39.427ZM221.117 40.561H219.955V30.061H221.117V34.093C221.649 33.421 222.559 32.973 223.567 32.973C225.163 32.973 226.227 34.009 226.227 35.647V40.561H225.065V35.689C225.065 34.653 224.393 33.995 223.343 33.995C221.943 33.995 221.131 34.919 221.117 36.053V40.561ZM231.324 40.715C229.126 40.715 227.67 39.105 227.67 36.879C227.67 34.345 229.308 32.973 231.184 32.973C233.228 32.973 234.544 34.345 234.586 36.725V37.047H228.832C228.902 38.629 229.826 39.707 231.324 39.707C232.36 39.707 233.116 39.189 233.424 38.223H234.558C234.222 39.749 233.018 40.715 231.324 40.715ZM228.902 36.081H233.368C233.158 34.779 232.374 33.981 231.184 33.981C230.008 33.981 229.14 34.751 228.902 36.081ZM239.787 40.561H238.961C237.519 40.561 236.749 39.819 236.749 38.447V34.121H235.377V33.141H236.749V30.607H237.911V33.141H239.913V34.121H237.911V38.447C237.911 39.189 238.275 39.581 238.961 39.581H239.787V40.561ZM244.38 40.715C242.182 40.715 240.726 39.105 240.726 36.879C240.726 34.345 242.364 32.973 244.24 32.973C246.284 32.973 247.6 34.345 247.642 36.725V37.047H241.888C241.958 38.629 242.882 39.707 244.38 39.707C245.416 39.707 246.172 39.189 246.48 38.223H247.614C247.278 39.749 246.074 40.715 244.38 40.715ZM241.958 36.081H246.424C246.214 34.779 245.43 33.981 244.24 33.981C243.064 33.981 242.196 34.751 241.958 36.081ZM250.333 40.561H249.171V33.141H250.095L250.207 34.275C250.711 33.491 251.677 32.973 252.783 32.973C254.379 32.973 255.443 34.009 255.443 35.647V40.561H254.281V35.689C254.281 34.653 253.609 33.995 252.489 33.995C251.159 33.995 250.347 34.919 250.333 36.053V40.561ZM262.803 40.673C261.123 40.673 260.045 39.805 260.045 38.447C260.045 36.739 261.697 36.417 263.181 36.263C264.315 36.151 265.295 36.165 265.309 35.563C265.295 34.625 264.525 33.967 263.405 33.967C262.327 33.967 261.487 34.569 261.361 35.451H260.213C260.353 33.995 261.669 32.973 263.433 32.973C265.267 32.973 266.443 34.065 266.443 35.633V39.245C266.443 39.483 266.569 39.609 266.821 39.609H267.241V40.561H266.583C265.785 40.561 265.365 40.197 265.365 39.511V39.287C264.931 40.141 264.091 40.673 262.803 40.673ZM262.971 39.679C264.357 39.679 265.309 38.797 265.309 37.565V36.599C264.987 37.033 264.161 37.117 263.251 37.215C262.229 37.327 261.207 37.467 261.207 38.419C261.207 39.189 261.907 39.679 262.971 39.679ZM271.828 40.561H270.61L267.516 33.141H268.776L271.226 39.203L273.662 33.141H274.922L271.828 40.561ZM279.892 31.895C279.402 31.895 279.024 31.517 279.024 31.027C279.024 30.537 279.402 30.173 279.892 30.173C280.382 30.173 280.746 30.537 280.746 31.027C280.746 31.517 280.382 31.895 279.892 31.895ZM280.466 40.561H279.304V33.141H280.466V40.561ZM283.57 40.561H282.408V30.061H283.57V36.795L287.182 33.141H288.582L285.908 35.843L288.988 40.561H287.63L285.11 36.655L283.57 38.209V40.561ZM292.833 40.715C290.453 40.715 289.193 39.021 289.193 36.781C289.193 34.303 290.817 32.973 292.833 32.973C295.199 32.973 296.473 34.681 296.473 36.781C296.473 39.343 294.919 40.715 292.833 40.715ZM292.833 39.707C294.415 39.707 295.283 38.391 295.283 36.781C295.283 35.115 294.317 33.981 292.833 33.981C291.349 33.981 290.383 35.115 290.383 36.781C290.383 38.685 291.489 39.707 292.833 39.707ZM299.155 40.561H297.993V33.141H298.917L299.029 34.275C299.533 33.491 300.499 32.973 301.605 32.973C303.201 32.973 304.265 34.009 304.265 35.647V40.561H303.103V35.689C303.103 34.653 302.431 33.995 301.311 33.995C299.981 33.995 299.169 34.919 299.155 36.053V40.561ZM309.363 40.715C307.165 40.715 305.709 39.105 305.709 36.879C305.709 34.345 307.347 32.973 309.223 32.973C311.267 32.973 312.583 34.345 312.625 36.725V37.047H306.871C306.941 38.629 307.865 39.707 309.363 39.707C310.399 39.707 311.155 39.189 311.463 38.223H312.597C312.261 39.749 311.057 40.715 309.363 40.715ZM306.941 36.081H311.407C311.197 34.779 310.413 33.981 309.223 33.981C308.047 33.981 307.179 34.751 306.941 36.081ZM315.315 40.561H314.153V33.141H315.077L315.217 34.555C315.693 33.603 316.561 33.099 317.793 33.099H318.045V34.247H317.793C316.225 34.247 315.315 35.143 315.315 36.669V40.561ZM325.292 40.715C323.528 40.715 322.226 39.791 322.128 38.223H323.262C323.346 39.189 324.228 39.721 325.348 39.721C326.398 39.721 326.902 39.315 326.902 38.573C326.902 37.873 326.356 37.719 325.586 37.453L324.508 37.089C323.416 36.725 322.324 36.389 322.324 35.045C322.324 33.785 323.304 32.973 324.928 32.973C326.566 32.973 327.7 33.855 327.882 35.507H326.748C326.622 34.471 325.894 33.967 324.886 33.967C323.976 33.967 323.444 34.373 323.444 35.017C323.444 35.787 324.256 35.941 324.872 36.151L325.88 36.487C327.238 36.935 328.05 37.397 328.05 38.629C328.05 39.931 327.098 40.715 325.292 40.715ZM332.741 40.715C330.361 40.715 329.101 39.021 329.101 36.781C329.101 34.303 330.725 32.973 332.741 32.973C335.107 32.973 336.381 34.681 336.381 36.781C336.381 39.343 334.827 40.715 332.741 40.715ZM332.741 39.707C334.323 39.707 335.191 38.391 335.191 36.781C335.191 35.115 334.225 33.981 332.741 33.981C331.257 33.981 330.291 35.115 330.291 36.781C330.291 38.685 331.397 39.707 332.741 39.707ZM339.063 40.561H337.901V33.141H338.825L338.937 34.289C339.441 33.491 340.407 32.973 341.471 32.973C342.591 32.973 343.431 33.547 343.809 34.443C344.285 33.575 345.307 32.973 346.441 32.973C348.009 32.973 349.017 34.079 349.017 35.591V40.561H347.855V35.633C347.855 34.639 347.239 33.995 346.245 33.995C344.859 33.995 344.047 34.919 344.033 36.053V40.561H342.885V35.633C342.885 34.639 342.269 33.995 341.275 33.995C339.889 33.995 339.077 34.919 339.063 36.053V40.561ZM53.54 56.895C53.05 56.895 52.672 56.517 52.672 56.027C52.672 55.537 53.05 55.173 53.54 55.173C54.03 55.173 54.394 55.537 54.394 56.027C54.394 56.517 54.03 56.895 53.54 56.895ZM54.114 65.561H52.952V58.141H54.114V65.561ZM57.2185 65.561H56.0565V55.061H57.2185V61.795L60.8305 58.141H62.2305L59.5565 60.843L62.6365 65.561H61.2785L58.7585 61.655L57.2185 63.209V65.561ZM64.8201 65.561H63.6581V55.061H64.8201V61.795L68.4321 58.141H69.8321L67.1581 60.843L70.2381 65.561H68.8801L66.3601 61.655L64.8201 63.209V65.561ZM74.0971 65.715C71.8991 65.715 70.4431 64.105 70.4431 61.879C70.4431 59.345 72.0811 57.973 73.9571 57.973C76.0011 57.973 77.3171 59.345 77.3591 61.725V62.047H71.6051C71.6751 63.629 72.5991 64.707 74.0971 64.707C75.1331 64.707 75.8891 64.189 76.1971 63.223H77.3311C76.9951 64.749 75.7911 65.715 74.0971 65.715ZM71.6751 61.081H76.1411C75.9311 59.779 75.1471 58.981 73.9571 58.981C72.7811 58.981 71.9131 59.751 71.6751 61.081ZM84.8041 65.715C83.0401 65.715 81.7381 64.791 81.6401 63.223H82.7741C82.8581 64.189 83.7401 64.721 84.8601 64.721C85.9101 64.721 86.4141 64.315 86.4141 63.573C86.4141 62.873 85.8681 62.719 85.0981 62.453L84.0201 62.089C82.9281 61.725 81.8361 61.389 81.8361 60.045C81.8361 58.785 82.8161 57.973 84.4401 57.973C86.0781 57.973 87.2121 58.855 87.3941 60.507H86.2601C86.1341 59.471 85.4061 58.967 84.3981 58.967C83.4881 58.967 82.9561 59.373 82.9561 60.017C82.9561 60.787 83.7681 60.941 84.3841 61.151L85.3921 61.487C86.7501 61.935 87.5621 62.397 87.5621 63.629C87.5621 64.931 86.6101 65.715 84.8041 65.715ZM92.6637 65.561H91.8377C90.3957 65.561 89.6257 64.819 89.6257 63.447V59.121H88.2537V58.141H89.6257V55.607H90.7877V58.141H92.7897V59.121H90.7877V63.447C90.7877 64.189 91.1517 64.581 91.8377 64.581H92.6637V65.561ZM100.757 57.973L99.9173 59.051C100.547 59.737 100.883 60.703 100.883 61.781C100.883 64.343 99.3293 65.715 97.2433 65.715C96.4033 65.715 95.7033 65.505 95.1433 65.127L94.3173 66.177L93.7293 65.771L94.5973 64.665C93.9393 63.951 93.6033 62.943 93.6033 61.781C93.6033 59.303 95.2273 57.973 97.2433 57.973C98.0973 57.973 98.8113 58.197 99.3713 58.575L100.155 57.567L100.757 57.973ZM94.7933 61.781C94.7933 62.593 94.9893 63.251 95.3253 63.727L98.6853 59.443C98.2933 59.149 97.8033 58.981 97.2433 58.981C95.7593 58.981 94.7933 60.115 94.7933 61.781ZM97.2433 64.707C98.8253 64.707 99.6933 63.391 99.6933 61.781C99.6933 61.067 99.5113 60.437 99.1893 59.975L95.8293 64.245C96.2353 64.553 96.7253 64.707 97.2433 64.707ZM106.076 65.561H105.25C103.808 65.561 103.038 64.819 103.038 63.447V59.121H101.666V58.141H103.038V55.607H104.2V58.141H107.084V55.607H108.246V58.141H110.248V59.121H108.246V63.447C108.246 64.189 108.61 64.581 109.296 64.581H110.122V65.561H109.296C107.854 65.561 107.084 64.819 107.084 63.447V59.121H104.2V63.447C104.2 64.189 104.564 64.581 105.25 64.581H106.076V65.561ZM114.716 65.715C112.518 65.715 111.062 64.105 111.062 61.879C111.062 59.345 112.7 57.973 114.576 57.973C116.62 57.973 117.936 59.345 117.978 61.725V62.047H112.224C112.294 63.629 113.218 64.707 114.716 64.707C115.752 64.707 116.508 64.189 116.816 63.223H117.95C117.614 64.749 116.41 65.715 114.716 65.715ZM112.294 61.081H116.76C116.55 59.779 115.766 58.981 114.576 58.981C113.4 58.981 112.532 59.751 112.294 61.081ZM122.279 65.715C120.515 65.715 119.213 64.791 119.115 63.223H120.249C120.333 64.189 121.215 64.721 122.335 64.721C123.385 64.721 123.889 64.315 123.889 63.573C123.889 62.873 123.343 62.719 122.573 62.453L121.495 62.089C120.403 61.725 119.311 61.389 119.311 60.045C119.311 58.785 120.291 57.973 121.915 57.973C123.553 57.973 124.687 58.855 124.869 60.507H123.735C123.609 59.471 122.881 58.967 121.873 58.967C120.963 58.967 120.431 59.373 120.431 60.017C120.431 60.787 121.243 60.941 121.859 61.151L122.867 61.487C124.225 61.935 125.037 62.397 125.037 63.629C125.037 64.931 124.085 65.715 122.279 65.715ZM130.772 65.561H129.61V58.141H130.534L130.646 59.289C131.15 58.491 132.116 57.973 133.18 57.973C134.3 57.973 135.14 58.547 135.518 59.443C135.994 58.575 137.016 57.973 138.15 57.973C139.718 57.973 140.726 59.079 140.726 60.591V65.561H139.564V60.633C139.564 59.639 138.948 58.995 137.954 58.995C136.568 58.995 135.756 59.919 135.742 61.053V65.561H134.594V60.633C134.594 59.639 133.978 58.995 132.984 58.995C131.598 58.995 130.786 59.919 130.772 61.053V65.561ZM145.82 65.715C143.622 65.715 142.166 64.105 142.166 61.879C142.166 59.345 143.804 57.973 145.68 57.973C147.724 57.973 149.04 59.345 149.082 61.725V62.047H143.328C143.398 63.629 144.322 64.707 145.82 64.707C146.856 64.707 147.612 64.189 147.92 63.223H149.054C148.718 64.749 147.514 65.715 145.82 65.715ZM143.398 61.081H147.864C147.654 59.779 146.87 58.981 145.68 58.981C144.504 58.981 143.636 59.751 143.398 61.081ZM153.606 65.715C151.618 65.715 150.232 64.119 150.232 61.809C150.232 59.541 151.604 57.973 153.592 57.973C154.712 57.973 155.65 58.463 156.182 59.247V55.061H157.344V65.561H156.42L156.294 64.133C155.804 65.099 154.824 65.715 153.606 65.715ZM153.788 64.707C155.202 64.707 156.182 63.503 156.182 61.781C156.182 60.115 155.23 58.967 153.858 58.967C152.43 58.967 151.436 60.129 151.436 61.809C151.436 63.517 152.402 64.707 153.788 64.707ZM166.3 65.561H165.474C164.032 65.561 163.262 64.819 163.262 63.447V59.121H161.89V58.141H163.262V55.607H164.424V58.141H166.426V59.121H164.424V63.447C164.424 64.189 164.788 64.581 165.474 64.581H166.3V65.561ZM170.894 65.715C168.696 65.715 167.24 64.105 167.24 61.879C167.24 59.345 168.878 57.973 170.754 57.973C172.798 57.973 174.114 59.345 174.156 61.725V62.047H168.402C168.472 63.629 169.396 64.707 170.894 64.707C171.93 64.707 172.686 64.189 172.994 63.223H174.128C173.792 64.749 172.588 65.715 170.894 65.715ZM168.472 61.081H172.938C172.728 59.779 171.944 58.981 170.754 58.981C169.578 58.981 168.71 59.751 168.472 61.081ZM176.888 65.561H175.726V55.061H176.888V61.795L180.5 58.141H181.9L179.226 60.843L182.306 65.561H180.948L178.428 61.655L176.888 63.209V65.561ZM186.031 65.715C184.267 65.715 182.965 64.791 182.867 63.223H184.001C184.085 64.189 184.967 64.721 186.087 64.721C187.137 64.721 187.641 64.315 187.641 63.573C187.641 62.873 187.095 62.719 186.325 62.453L185.247 62.089C184.155 61.725 183.063 61.389 183.063 60.045C183.063 58.785 184.043 57.973 185.667 57.973C187.305 57.973 188.439 58.855 188.621 60.507H187.487C187.361 59.471 186.633 58.967 185.625 58.967C184.715 58.967 184.183 59.373 184.183 60.017C184.183 60.787 184.995 60.941 185.611 61.151L186.619 61.487C187.977 61.935 188.789 62.397 188.789 63.629C188.789 64.931 187.837 65.715 186.031 65.715ZM193.89 65.561H193.064C191.622 65.561 190.852 64.819 190.852 63.447V59.121H189.48V58.141H190.852V55.607H192.014V58.141H194.016V59.121H192.014V63.447C192.014 64.189 192.378 64.581 193.064 64.581H193.89V65.561ZM196.016 65.701C195.512 65.701 195.134 65.323 195.134 64.819C195.134 64.329 195.512 63.951 196.016 63.951C196.52 63.951 196.898 64.329 196.898 64.819C196.898 65.323 196.52 65.701 196.016 65.701Z" fill="#481125"/>
<rect x="24.5" y="99.061" width="313" height="119.504" rx="12.7123" fill="#FDF9F9"/>
<rect x="24.5" y="99.061" width="313" height="119.504" rx="12.7123" stroke="#691837"/>
<path d="M137.974 124.553C137.974 119.034 142.447 114.561 147.966 114.561H214.035C219.553 114.561 224.026 119.034 224.026 124.553V193.074C224.026 198.592 219.553 203.065 214.035 203.065H147.966C142.447 203.065 137.974 198.592 137.974 193.074V124.553Z" fill="#F9EAED"/>
<g clip-path="url(#clip1_826_79972)">
<path d="M167.716 175.361C166.893 175.361 166.104 175.034 165.522 174.452C164.941 173.87 164.614 173.081 164.613 172.259V152.607C164.614 151.785 164.941 150.996 165.522 150.414C166.104 149.832 166.893 149.505 167.716 149.504H170.499C170.773 149.504 171.036 149.613 171.23 149.807C171.424 150.001 171.533 150.264 171.533 150.539C171.533 150.813 171.424 151.076 171.23 151.27C171.036 151.464 170.773 151.573 170.499 151.573H167.716C167.441 151.573 167.178 151.682 166.984 151.876C166.79 152.07 166.681 152.333 166.681 152.607V172.259C166.681 172.829 167.145 173.293 167.716 173.293H170.499C170.773 173.293 171.036 173.402 171.23 173.596C171.424 173.79 171.533 174.053 171.533 174.327C171.533 174.601 171.424 174.864 171.23 175.058C171.036 175.252 170.773 175.361 170.499 175.361H167.716Z" fill="#6A1830"/>
<path d="M175.99 175.362C175.167 175.361 174.378 175.034 173.797 174.452C173.215 173.87 172.888 173.081 172.887 172.259V145.367C172.887 143.656 174.28 142.265 175.99 142.265H180.127C180.95 142.265 181.738 142.593 182.32 143.174C182.902 143.756 183.229 144.545 183.23 145.367V147.69L185.096 146.981C185.447 146.847 185.82 146.778 186.196 146.778C187.477 146.778 188.644 147.582 189.099 148.778L197.188 170.045C197.334 170.426 197.403 170.832 197.391 171.239C197.379 171.647 197.286 172.047 197.118 172.419C196.952 172.791 196.714 173.127 196.417 173.407C196.121 173.687 195.772 173.905 195.39 174.049L193.457 174.784C193.076 174.93 192.67 174.999 192.262 174.987C191.855 174.976 191.453 174.884 191.081 174.717C190.709 174.55 190.374 174.311 190.094 174.015C189.814 173.718 189.596 173.368 189.452 172.987L183.228 156.623V172.259C183.228 173.081 182.901 173.87 182.319 174.452C181.737 175.034 180.948 175.361 180.126 175.362H175.99ZM175.99 144.333C175.716 144.333 175.452 144.442 175.259 144.636C175.065 144.83 174.956 145.093 174.956 145.367V172.259C174.956 172.83 175.419 173.293 175.99 173.293H180.127C180.401 173.293 180.664 173.184 180.858 172.99C181.052 172.796 181.161 172.533 181.161 172.259V145.367C181.161 145.093 181.052 144.83 180.858 144.636C180.664 144.442 180.401 144.333 180.127 144.333H175.99ZM186.198 148.845C186.072 148.845 185.948 148.868 185.831 148.913L183.897 149.648C183.639 149.746 183.435 149.939 183.322 150.191C183.209 150.444 183.201 150.724 183.299 150.983L191.388 172.25C191.462 172.447 191.594 172.617 191.767 172.736C191.94 172.855 192.145 172.918 192.355 172.917C192.48 172.917 192.603 172.893 192.722 172.848L194.657 172.113C194.784 172.065 194.901 171.992 195 171.899C195.099 171.806 195.179 171.694 195.235 171.57C195.291 171.446 195.321 171.312 195.325 171.176C195.329 171.04 195.305 170.905 195.256 170.778L187.166 149.513C187.09 149.317 186.958 149.149 186.785 149.029C186.612 148.91 186.407 148.846 186.198 148.845Z" fill="#6A1830"/>
</g>
<rect x="382.5" y="24.561" width="20" height="20" rx="10" fill="#03834E"/>
<path d="M390.25 39.4777H389.917C389.5 39.3944 389.167 39.1444 389 38.811L387 35.8944C386.833 35.6444 386.833 35.2277 387.167 35.061C387.25 34.9777 387.417 34.9777 387.5 34.9777C387.667 34.9777 387.917 35.061 388 35.2277L390.083 38.1444C390.167 38.2277 390.167 38.2277 390.25 38.2277H390.333C390.417 38.2277 390.417 38.2277 390.5 38.1444C390.5 38.1444 390.583 38.1444 390.583 38.061L397.167 29.811C397.25 29.6444 397.5 29.561 397.667 29.561C397.833 29.561 397.917 29.6444 398.083 29.7277C398.25 29.811 398.333 29.9777 398.333 30.1444C398.333 30.311 398.333 30.4777 398.167 30.6444L391.667 38.8944L391.333 39.2277C390.833 39.3944 390.583 39.4777 390.25 39.4777Z" fill="#FDF9F9"/>
<path d="M415.554 40.561H414.378V31.839H410.99V30.761H418.942V31.839H415.554V40.561ZM422.261 40.715C420.063 40.715 418.607 39.105 418.607 36.879C418.607 34.345 420.245 32.973 422.121 32.973C424.165 32.973 425.481 34.345 425.523 36.725V37.047H419.769C419.839 38.629 420.763 39.707 422.261 39.707C423.297 39.707 424.053 39.189 424.361 38.223H425.495C425.159 39.749 423.955 40.715 422.261 40.715ZM419.839 36.081H424.305C424.095 34.779 423.311 33.981 422.121 33.981C420.945 33.981 420.077 34.751 419.839 36.081ZM428.256 40.561H427.094V30.061H428.256V36.795L431.868 33.141H433.268L430.594 35.843L433.674 40.561H432.316L429.796 36.655L428.256 38.209V40.561ZM437.398 40.715C435.634 40.715 434.332 39.791 434.234 38.223H435.368C435.452 39.189 436.334 39.721 437.454 39.721C438.504 39.721 439.008 39.315 439.008 38.573C439.008 37.873 438.462 37.719 437.692 37.453L436.614 37.089C435.522 36.725 434.43 36.389 434.43 35.045C434.43 33.785 435.41 32.973 437.034 32.973C438.672 32.973 439.806 33.855 439.988 35.507H438.854C438.728 34.471 438 33.967 436.992 33.967C436.082 33.967 435.55 34.373 435.55 35.017C435.55 35.787 436.362 35.941 436.978 36.151L437.986 36.487C439.344 36.935 440.156 37.397 440.156 38.629C440.156 39.931 439.204 40.715 437.398 40.715ZM445.257 40.561H444.431C442.989 40.561 442.219 39.819 442.219 38.447V34.121H440.847V33.141H442.219V30.607H443.381V33.141H445.383V34.121H443.381V38.447C443.381 39.189 443.745 39.581 444.431 39.581H445.257V40.561ZM452.669 40.715C450.905 40.715 449.603 39.791 449.505 38.223H450.639C450.723 39.189 451.605 39.721 452.725 39.721C453.775 39.721 454.279 39.315 454.279 38.573C454.279 37.873 453.733 37.719 452.963 37.453L451.885 37.089C450.793 36.725 449.701 36.389 449.701 35.045C449.701 33.785 450.681 32.973 452.305 32.973C453.943 32.973 455.077 33.855 455.259 35.507H454.125C453.999 34.471 453.271 33.967 452.263 33.967C451.353 33.967 450.821 34.373 450.821 35.017C450.821 35.787 451.633 35.941 452.249 36.151L453.257 36.487C454.615 36.935 455.427 37.397 455.427 38.629C455.427 39.931 454.475 40.715 452.669 40.715ZM459.346 40.673C457.666 40.673 456.588 39.805 456.588 38.447C456.588 36.739 458.24 36.417 459.724 36.263C460.858 36.151 461.838 36.165 461.852 35.563C461.838 34.625 461.068 33.967 459.948 33.967C458.87 33.967 458.03 34.569 457.904 35.451H456.756C456.896 33.995 458.212 32.973 459.976 32.973C461.81 32.973 462.986 34.065 462.986 35.633V39.245C462.986 39.483 463.112 39.609 463.364 39.609H463.784V40.561H463.126C462.328 40.561 461.908 40.197 461.908 39.511V39.287C461.474 40.141 460.634 40.673 459.346 40.673ZM459.514 39.679C460.9 39.679 461.852 38.797 461.852 37.565V36.599C461.53 37.033 460.704 37.117 459.794 37.215C458.772 37.327 457.75 37.467 457.75 38.419C457.75 39.189 458.45 39.679 459.514 39.679ZM466.249 40.561H465.087V33.141H466.011L466.123 34.289C466.627 33.491 467.593 32.973 468.657 32.973C469.777 32.973 470.617 33.547 470.995 34.443C471.471 33.575 472.493 32.973 473.627 32.973C475.195 32.973 476.203 34.079 476.203 35.591V40.561H475.041V35.633C475.041 34.639 474.425 33.995 473.431 33.995C472.045 33.995 471.233 34.919 471.219 36.053V40.561H470.071V35.633C470.071 34.639 469.455 33.995 468.461 33.995C467.075 33.995 466.263 34.919 466.249 36.053V40.561ZM479.182 40.561H478.02V33.141H478.944L479.056 34.289C479.56 33.491 480.526 32.973 481.59 32.973C482.71 32.973 483.55 33.547 483.928 34.443C484.404 33.575 485.426 32.973 486.56 32.973C488.128 32.973 489.136 34.079 489.136 35.591V40.561H487.974V35.633C487.974 34.639 487.358 33.995 486.364 33.995C484.978 33.995 484.166 34.919 484.152 36.053V40.561H483.004V35.633C483.004 34.639 482.388 33.995 481.394 33.995C480.008 33.995 479.196 34.919 479.182 36.053V40.561ZM494.23 40.715C492.032 40.715 490.576 39.105 490.576 36.879C490.576 34.345 492.214 32.973 494.09 32.973C496.134 32.973 497.45 34.345 497.492 36.725V37.047H491.738C491.808 38.629 492.732 39.707 494.23 39.707C495.266 39.707 496.022 39.189 496.33 38.223H497.464C497.128 39.749 495.924 40.715 494.23 40.715ZM491.808 36.081H496.274C496.064 34.779 495.28 33.981 494.09 33.981C492.914 33.981 492.046 34.751 491.808 36.081ZM500.182 40.561H499.02V33.141H499.944L500.056 34.275C500.56 33.491 501.526 32.973 502.632 32.973C504.228 32.973 505.292 34.009 505.292 35.647V40.561H504.13V35.689C504.13 34.653 503.458 33.995 502.338 33.995C501.008 33.995 500.196 34.919 500.182 36.053V40.561ZM511.421 40.561H510.259V33.141H511.183L511.295 34.289C511.799 33.491 512.765 32.973 513.829 32.973C514.949 32.973 515.789 33.547 516.167 34.443C516.643 33.575 517.665 32.973 518.799 32.973C520.367 32.973 521.375 34.079 521.375 35.591V40.561H520.213V35.633C520.213 34.639 519.597 33.995 518.603 33.995C517.217 33.995 516.405 34.919 516.391 36.053V40.561H515.243V35.633C515.243 34.639 514.627 33.995 513.633 33.995C512.247 33.995 511.435 34.919 511.421 36.053V40.561ZM526.468 40.715C524.27 40.715 522.814 39.105 522.814 36.879C522.814 34.345 524.452 32.973 526.328 32.973C528.372 32.973 529.688 34.345 529.73 36.725V37.047H523.976C524.046 38.629 524.97 39.707 526.468 39.707C527.504 39.707 528.26 39.189 528.568 38.223H529.702C529.366 39.749 528.162 40.715 526.468 40.715ZM524.046 36.081H528.512C528.302 34.779 527.518 33.981 526.328 33.981C525.152 33.981 524.284 34.751 524.046 36.081ZM534.255 40.715C532.267 40.715 530.881 39.119 530.881 36.809C530.881 34.541 532.253 32.973 534.241 32.973C535.361 32.973 536.299 33.463 536.831 34.247V30.061H537.993V40.561H537.069L536.943 39.133C536.453 40.099 535.473 40.715 534.255 40.715ZM534.437 39.707C535.851 39.707 536.831 38.503 536.831 36.781C536.831 35.115 535.879 33.967 534.507 33.967C533.079 33.967 532.085 35.129 532.085 36.809C532.085 38.517 533.051 39.707 534.437 39.707ZM543.673 31.895C543.183 31.895 542.805 31.517 542.805 31.027C542.805 30.537 543.183 30.173 543.673 30.173C544.163 30.173 544.527 30.537 544.527 31.027C544.527 31.517 544.163 31.895 543.673 31.895ZM544.247 40.561H543.085V33.141H544.247V40.561ZM547.351 40.561H546.189V30.061H547.351V36.795L550.963 33.141H552.363L549.689 35.843L552.769 40.561H551.411L548.891 36.655L547.351 38.209V40.561ZM556.614 40.715C554.234 40.715 552.974 39.021 552.974 36.781C552.974 34.303 554.598 32.973 556.614 32.973C558.98 32.973 560.254 34.681 560.254 36.781C560.254 39.343 558.7 40.715 556.614 40.715ZM556.614 39.707C558.196 39.707 559.064 38.391 559.064 36.781C559.064 35.115 558.098 33.981 556.614 33.981C555.13 33.981 554.164 35.115 554.164 36.781C554.164 38.685 555.27 39.707 556.614 39.707ZM562.936 40.561H561.774V33.141H562.698L562.81 34.275C563.314 33.491 564.28 32.973 565.386 32.973C566.982 32.973 568.046 34.009 568.046 35.647V40.561H566.884V35.689C566.884 34.653 566.212 33.995 565.092 33.995C563.762 33.995 562.95 34.919 562.936 36.053V40.561ZM575.785 40.715C574.021 40.715 572.719 39.791 572.621 38.223H573.755C573.839 39.189 574.721 39.721 575.841 39.721C576.891 39.721 577.395 39.315 577.395 38.573C577.395 37.873 576.849 37.719 576.079 37.453L575.001 37.089C573.909 36.725 572.817 36.389 572.817 35.045C572.817 33.785 573.797 32.973 575.421 32.973C577.059 32.973 578.193 33.855 578.375 35.507H577.241C577.115 34.471 576.387 33.967 575.379 33.967C574.469 33.967 573.937 34.373 573.937 35.017C573.937 35.787 574.749 35.941 575.365 36.151L576.373 36.487C577.731 36.935 578.543 37.397 578.543 38.629C578.543 39.931 577.591 40.715 575.785 40.715ZM583.644 40.561H582.818C581.376 40.561 580.606 39.819 580.606 38.447V34.121H579.234V33.141H580.606V30.607H581.768V33.141H583.77V34.121H581.768V38.447C581.768 39.189 582.132 39.581 582.818 39.581H583.644V40.561ZM591.738 32.973L590.898 34.051C591.528 34.737 591.864 35.703 591.864 36.781C591.864 39.343 590.31 40.715 588.224 40.715C587.384 40.715 586.684 40.505 586.124 40.127L585.298 41.177L584.71 40.771L585.578 39.665C584.92 38.951 584.584 37.943 584.584 36.781C584.584 34.303 586.208 32.973 588.224 32.973C589.078 32.973 589.792 33.197 590.352 33.575L591.136 32.567L591.738 32.973ZM585.774 36.781C585.774 37.593 585.97 38.251 586.306 38.727L589.666 34.443C589.274 34.149 588.784 33.981 588.224 33.981C586.74 33.981 585.774 35.115 585.774 36.781ZM588.224 39.707C589.806 39.707 590.674 38.391 590.674 36.781C590.674 36.067 590.492 35.437 590.17 34.975L586.81 39.245C587.216 39.553 587.706 39.707 588.224 39.707ZM597.056 40.561H596.23C594.788 40.561 594.018 39.819 594.018 38.447V34.121H592.646V33.141H594.018V30.607H595.18V33.141H598.064V30.607H599.226V33.141H601.228V34.121H599.226V38.447C599.226 39.189 599.59 39.581 600.276 39.581H601.102V40.561H600.276C598.834 40.561 598.064 39.819 598.064 38.447V34.121H595.18V38.447C595.18 39.189 595.544 39.581 596.23 39.581H597.056V40.561ZM605.697 40.715C603.499 40.715 602.043 39.105 602.043 36.879C602.043 34.345 603.681 32.973 605.557 32.973C607.601 32.973 608.917 34.345 608.959 36.725V37.047H603.205C603.275 38.629 604.199 39.707 605.697 39.707C606.733 39.707 607.489 39.189 607.797 38.223H608.931C608.595 39.749 607.391 40.715 605.697 40.715ZM603.275 36.081H607.741C607.531 34.779 606.747 33.981 605.557 33.981C604.381 33.981 603.513 34.751 603.275 36.081ZM611.649 40.561H610.487V33.141H611.411L611.551 34.555C612.027 33.603 612.895 33.099 614.127 33.099H614.379V34.247H614.127C612.559 34.247 611.649 35.143 611.649 36.669V40.561ZM620.016 40.561H618.854V33.141H619.778L619.89 34.275C620.394 33.491 621.36 32.973 622.466 32.973C624.062 32.973 625.126 34.009 625.126 35.647V40.561H623.964V35.689C623.964 34.653 623.292 33.995 622.172 33.995C620.842 33.995 620.03 34.919 620.016 36.053V40.561ZM629.342 40.673C627.662 40.673 626.584 39.805 626.584 38.447C626.584 36.739 628.236 36.417 629.72 36.263C630.854 36.151 631.834 36.165 631.848 35.563C631.834 34.625 631.064 33.967 629.944 33.967C628.866 33.967 628.026 34.569 627.9 35.451H626.752C626.892 33.995 628.208 32.973 629.972 32.973C631.806 32.973 632.982 34.065 632.982 35.633V39.245C632.982 39.483 633.108 39.609 633.36 39.609H633.78V40.561H633.122C632.324 40.561 631.904 40.197 631.904 39.511V39.287C631.47 40.141 630.63 40.673 629.342 40.673ZM629.51 39.679C630.896 39.679 631.848 38.797 631.848 37.565V36.599C631.526 37.033 630.7 37.117 629.79 37.215C628.768 37.327 627.746 37.467 627.746 38.419C627.746 39.189 628.446 39.679 629.51 39.679ZM638.367 40.561H637.149L634.055 33.141H635.315L637.765 39.203L640.201 33.141H641.461L638.367 40.561ZM643.286 31.895C642.796 31.895 642.418 31.517 642.418 31.027C642.418 30.537 642.796 30.173 643.286 30.173C643.776 30.173 644.14 30.537 644.14 31.027C644.14 31.517 643.776 31.895 643.286 31.895ZM643.86 40.561H642.698V33.141H643.86V40.561ZM648.995 43.529C646.993 43.529 645.635 42.563 645.635 40.995H646.797C646.797 41.877 647.693 42.549 648.995 42.549C650.521 42.549 651.319 41.639 651.319 40.365V39.161C650.801 39.931 649.905 40.435 648.771 40.435C646.797 40.435 645.383 38.923 645.383 36.739C645.383 34.513 646.811 32.973 648.771 32.973C649.961 32.973 650.927 33.533 651.431 34.429L651.557 33.141H652.467V40.365C652.467 42.241 651.207 43.529 648.995 43.529ZM648.939 39.427C650.339 39.427 651.319 38.307 651.319 36.697C651.319 35.101 650.339 33.981 648.939 33.981C647.553 33.981 646.587 35.101 646.587 36.725C646.587 38.321 647.553 39.427 648.939 39.427ZM656.768 40.673C655.088 40.673 654.01 39.805 654.01 38.447C654.01 36.739 655.662 36.417 657.146 36.263C658.28 36.151 659.26 36.165 659.274 35.563C659.26 34.625 658.49 33.967 657.37 33.967C656.292 33.967 655.452 34.569 655.326 35.451H654.178C654.318 33.995 655.634 32.973 657.398 32.973C659.232 32.973 660.408 34.065 660.408 35.633V39.245C660.408 39.483 660.534 39.609 660.786 39.609H661.206V40.561H660.548C659.75 40.561 659.33 40.197 659.33 39.511V39.287C658.896 40.141 658.056 40.673 656.768 40.673ZM656.936 39.679C658.322 39.679 659.274 38.797 659.274 37.565V36.599C658.952 37.033 658.126 37.117 657.216 37.215C656.194 37.327 655.172 37.467 655.172 38.419C655.172 39.189 655.872 39.679 656.936 39.679ZM665.281 40.715C663.517 40.715 662.215 39.791 662.117 38.223H663.251C663.335 39.189 664.217 39.721 665.337 39.721C666.387 39.721 666.891 39.315 666.891 38.573C666.891 37.873 666.345 37.719 665.575 37.453L664.497 37.089C663.405 36.725 662.313 36.389 662.313 35.045C662.313 33.785 663.293 32.973 664.917 32.973C666.555 32.973 667.689 33.855 667.871 35.507H666.737C666.611 34.471 665.883 33.967 664.875 33.967C663.965 33.967 663.433 34.373 663.433 35.017C663.433 35.787 664.245 35.941 664.861 36.151L665.869 36.487C667.227 36.935 668.039 37.397 668.039 38.629C668.039 39.931 667.087 40.715 665.281 40.715ZM670.056 31.895C669.552 31.895 669.188 31.531 669.188 31.027C669.188 30.537 669.552 30.173 670.056 30.173C670.546 30.173 670.91 30.537 670.91 31.027C670.91 31.531 670.546 31.895 670.056 31.895ZM668.418 43.361H667.382V42.381H668.418C669.104 42.381 669.468 41.989 669.468 41.247V33.141H670.63V41.247C670.63 42.619 669.86 43.361 668.418 43.361ZM675.792 40.715C673.412 40.715 672.152 39.021 672.152 36.781C672.152 34.303 673.776 32.973 675.792 32.973C678.158 32.973 679.432 34.681 679.432 36.781C679.432 39.343 677.878 40.715 675.792 40.715ZM675.792 39.707C677.374 39.707 678.242 38.391 678.242 36.781C678.242 35.115 677.276 33.981 675.792 33.981C674.308 33.981 673.342 35.115 673.342 36.781C673.342 38.685 674.448 39.707 675.792 39.707ZM682.114 40.561H680.952V33.141H681.876L681.988 34.275C682.492 33.491 683.458 32.973 684.564 32.973C686.16 32.973 687.224 34.009 687.224 35.647V40.561H686.062V35.689C686.062 34.653 685.39 33.995 684.27 33.995C682.94 33.995 682.128 34.919 682.114 36.053V40.561ZM692.322 40.715C690.124 40.715 688.668 39.105 688.668 36.879C688.668 34.345 690.306 32.973 692.182 32.973C694.226 32.973 695.542 34.345 695.584 36.725V37.047H689.83C689.9 38.629 690.824 39.707 692.322 39.707C693.358 39.707 694.114 39.189 694.422 38.223H695.556C695.22 39.749 694.016 40.715 692.322 40.715ZM689.9 36.081H694.366C694.156 34.779 693.372 33.981 692.182 33.981C691.006 33.981 690.138 34.751 689.9 36.081ZM698.274 40.561H697.112V33.141H698.036L698.148 34.275C698.652 33.491 699.618 32.973 700.724 32.973C702.32 32.973 703.384 34.009 703.384 35.647V40.561H702.222V35.689C702.222 34.653 701.55 33.995 700.43 33.995C699.1 33.995 698.288 34.919 698.274 36.053V40.561ZM705.836 40.701C705.332 40.701 704.954 40.323 704.954 39.819C704.954 39.329 705.332 38.951 705.836 38.951C706.34 38.951 706.718 39.329 706.718 39.819C706.718 40.323 706.34 40.701 705.836 40.701Z" fill="#481125"/>
<rect x="383" y="99.061" width="313" height="119.504" rx="12.7123" fill="#FDF9F9"/>
<rect x="383" y="99.061" width="313" height="119.504" rx="12.7123" stroke="#691837"/>
<path d="M429.735 124.553C429.735 119.034 434.209 114.561 439.727 114.561H639.273C644.791 114.561 649.265 119.034 649.265 124.553V193.074C649.265 198.592 644.791 203.065 639.273 203.065H439.727C434.209 203.065 429.735 198.592 429.735 193.074V124.553Z" fill="#F9EAED"/>
<path d="M467.174 168.313H458.463V149.779H466.963C470.193 149.779 472.443 151.685 472.443 154.439C472.443 156.425 471.04 158.066 468.869 158.755C471.278 159.231 472.867 160.979 472.867 163.256C472.867 166.248 470.537 168.313 467.174 168.313ZM460.661 151.818V157.881H466.83C468.816 157.881 470.193 156.557 470.193 154.677C470.193 152.983 468.948 151.818 467.174 151.818H460.661ZM460.661 159.867V166.274H467.413C469.266 166.274 470.564 164.951 470.564 163.018C470.564 160.952 468.948 159.867 466.963 159.867H460.661ZM477.148 151.924C476.221 151.924 475.506 151.209 475.506 150.282C475.506 149.355 476.221 148.667 477.148 148.667C478.074 148.667 478.763 149.355 478.763 150.282C478.763 151.209 478.074 151.924 477.148 151.924ZM478.233 168.313H476.036V154.28H478.233V168.313ZM489.029 168.604C486.726 168.604 484.846 167.466 483.893 165.639L483.654 168.313H481.907V148.455H484.105V156.478C485.137 154.942 486.911 153.962 489.029 153.962C492.736 153.962 495.331 156.928 495.331 161.217C495.331 165.586 492.736 168.604 489.029 168.604ZM488.685 166.698C491.28 166.698 493.054 164.448 493.054 161.217C493.054 158.066 491.28 155.869 488.659 155.869C486.011 155.869 484.105 158.013 484.105 161.111C484.105 164.395 486.011 166.698 488.685 166.698ZM500.498 168.313H498.3V148.455H500.498V168.313ZM505.28 151.924C504.353 151.924 503.638 151.209 503.638 150.282C503.638 149.355 504.353 148.667 505.28 148.667C506.207 148.667 506.895 149.355 506.895 150.282C506.895 151.209 506.207 151.924 505.28 151.924ZM506.366 168.313H504.168V154.28H506.366V168.313ZM516.129 168.604C511.628 168.604 509.245 165.401 509.245 161.164C509.245 156.478 512.316 153.962 516.129 153.962C520.604 153.962 523.013 157.193 523.013 161.164C523.013 166.01 520.074 168.604 516.129 168.604ZM516.129 166.698C519.121 166.698 520.763 164.209 520.763 161.164C520.763 158.013 518.936 155.869 516.129 155.869C513.323 155.869 511.496 158.013 511.496 161.164C511.496 164.765 513.587 166.698 516.129 166.698ZM532.834 168.313H531.271C528.544 168.313 527.088 166.91 527.088 164.315V156.134H524.493V154.28H527.088V149.488H529.286V154.28H533.072V156.134H529.286V164.315C529.286 165.718 529.974 166.46 531.271 166.46H532.834V168.313ZM541.521 168.604C537.364 168.604 534.611 165.56 534.611 161.35C534.611 156.557 537.709 153.962 541.257 153.962C545.122 153.962 547.611 156.557 547.691 161.058V161.667H536.808C536.941 164.659 538.688 166.698 541.521 166.698C543.481 166.698 544.91 165.718 545.493 163.891H547.638C547.002 166.778 544.725 168.604 541.521 168.604ZM536.941 159.84H545.387C544.99 157.378 543.507 155.869 541.257 155.869C539.032 155.869 537.391 157.325 536.941 159.84ZM552.858 168.313H550.661V148.455H552.858V161.191L559.689 154.28H562.337L557.28 159.39L563.105 168.313H560.537L555.771 160.926L552.858 163.865V168.313Z" fill="#481125"/>
<g clip-path="url(#clip2_826_79972)">
<path d="M592.954 175.361C592.132 175.361 591.343 175.034 590.761 174.452C590.179 173.87 589.852 173.081 589.852 172.259V152.607C589.852 151.785 590.179 150.996 590.761 150.414C591.343 149.832 592.132 149.505 592.954 149.504H595.737C596.012 149.504 596.275 149.613 596.469 149.807C596.663 150.001 596.772 150.264 596.772 150.539C596.772 150.813 596.663 151.076 596.469 151.27C596.275 151.464 596.012 151.573 595.737 151.573H592.954C592.68 151.573 592.417 151.682 592.223 151.876C592.029 152.07 591.92 152.333 591.92 152.607V172.259C591.92 172.829 592.384 173.293 592.954 173.293H595.737C596.012 173.293 596.275 173.402 596.469 173.596C596.663 173.79 596.772 174.053 596.772 174.327C596.772 174.601 596.663 174.864 596.469 175.058C596.275 175.252 596.012 175.361 595.737 175.361H592.954Z" fill="#6A1830"/>
<path d="M601.229 175.362C600.406 175.361 599.617 175.034 599.035 174.452C598.454 173.87 598.127 173.081 598.126 172.259V145.367C598.126 143.656 599.519 142.265 601.229 142.265H605.366C606.189 142.265 606.977 142.593 607.559 143.174C608.141 143.756 608.468 144.545 608.469 145.367V147.69L610.335 146.981C610.686 146.847 611.059 146.778 611.435 146.778C612.716 146.778 613.883 147.582 614.338 148.778L622.427 170.045C622.573 170.426 622.642 170.832 622.63 171.239C622.618 171.647 622.525 172.047 622.357 172.419C622.191 172.791 621.953 173.127 621.656 173.407C621.36 173.687 621.01 173.905 620.629 174.049L618.696 174.784C618.315 174.93 617.909 174.999 617.501 174.987C617.094 174.976 616.692 174.884 616.32 174.717C615.948 174.55 615.612 174.311 615.333 174.015C615.053 173.718 614.835 173.368 614.691 172.987L608.467 156.623V172.259C608.467 173.081 608.139 173.87 607.558 174.452C606.976 175.034 606.187 175.361 605.364 175.362H601.229ZM601.229 144.333C600.954 144.333 600.691 144.442 600.497 144.636C600.303 144.83 600.194 145.093 600.194 145.367V172.259C600.194 172.83 600.658 173.293 601.229 173.293H605.366C605.64 173.293 605.903 173.184 606.097 172.99C606.291 172.796 606.4 172.533 606.4 172.259V145.367C606.4 145.093 606.291 144.83 606.097 144.636C605.903 144.442 605.64 144.333 605.366 144.333H601.229ZM611.436 148.845C611.311 148.845 611.187 148.868 611.07 148.913L609.136 149.648C608.878 149.746 608.674 149.939 608.561 150.191C608.448 150.444 608.44 150.724 608.538 150.983L616.627 172.25C616.701 172.447 616.833 172.617 617.006 172.736C617.178 172.855 617.384 172.918 617.594 172.917C617.719 172.917 617.842 172.893 617.961 172.848L619.895 172.113C620.023 172.065 620.14 171.992 620.239 171.899C620.338 171.806 620.418 171.694 620.474 171.57C620.529 171.446 620.56 171.312 620.564 171.176C620.567 171.04 620.544 170.905 620.495 170.778L612.404 149.513C612.329 149.317 612.196 149.149 612.024 149.029C611.851 148.91 611.646 148.846 611.436 148.845Z" fill="#6A1830"/>
</g>
<defs>
<clipPath id="clip0_826_79972">
<rect width="8" height="8" fill="white" transform="translate(30 30.561)"/>
</clipPath>
<clipPath id="clip1_826_79972">
<rect width="33.0969" height="33.0969" fill="white" transform="translate(164.452 142.265)"/>
</clipPath>
<clipPath id="clip2_826_79972">
<rect width="33.0969" height="33.0969" fill="white" transform="translate(589.69 142.265)"/>
</clipPath>
</defs>
</svg>
