<svg width="733" height="268" viewBox="0 0 733 268" fill="none" xmlns="http://www.w3.org/2000/svg">
<rect y="0.518799" width="733" height="267" rx="24" fill="white"/>
<rect x="24" y="24.5188" width="20" height="20" rx="10" fill="#CE3871"/>
<g clip-path="url(#clip0_826_79693)">
<path d="M41.5 42.5188C41.3667 42.5188 41.2407 42.4668 41.1467 42.3721L34 35.2264L26.8533 42.3721C26.7587 42.4668 26.6333 42.5188 26.5 42.5188C26.3667 42.5188 26.2407 42.4668 26.1467 42.3721C25.952 42.1775 25.952 41.8602 26.1467 41.6648L33.2933 34.5185L26.1467 27.3728C26.052 27.2788 26 27.1528 26 27.0194C26 26.8861 26.052 26.7601 26.1467 26.6661C26.2407 26.5715 26.3667 26.5195 26.5 26.5195C26.6333 26.5195 26.7593 26.5715 26.8533 26.6661L34 33.8118L41.1467 26.6655C41.2413 26.5708 41.3667 26.5188 41.5 26.5188C41.6333 26.5188 41.7593 26.5708 41.8533 26.6655C41.948 26.7601 42 26.8861 42 27.0194C42 27.1528 41.948 27.2788 41.8533 27.3728L34.7067 34.5191L41.8533 41.6655C42.048 41.8602 42.048 42.1775 41.8533 42.3728C41.7593 42.4668 41.6333 42.5188 41.5 42.5188Z" fill="#FDF9F9"/>
</g>
<path d="M57.012 40.6728C54.478 40.6728 53.106 39.0908 53.106 37.2288V30.7188H54.282V37.2008C54.282 38.7548 55.514 39.5808 57.012 39.5808C58.51 39.5808 59.742 38.7548 59.742 37.2008V30.7188H60.918V37.2288C60.918 39.0908 59.532 40.6868 57.012 40.6728ZM64.1355 40.5188H62.9735V33.0988H63.8975L64.0095 34.2328C64.5135 33.4488 65.4795 32.9308 66.5855 32.9308C68.1815 32.9308 69.2455 33.9668 69.2455 35.6048V40.5188H68.0835V35.6468C68.0835 34.6108 67.4115 33.9528 66.2915 33.9528C64.9615 33.9528 64.1495 34.8768 64.1355 36.0108V40.5188ZM72.2292 40.5188H71.0672V33.0988H71.9912L72.1032 34.2328C72.6072 33.4488 73.5732 32.9308 74.6792 32.9308C76.2752 32.9308 77.3392 33.9668 77.3392 35.6048V40.5188H76.1772V35.6468C76.1772 34.6108 75.5052 33.9528 74.3852 33.9528C73.0552 33.9528 72.2432 34.8768 72.2292 36.0108V40.5188ZM82.395 43.4868C80.393 43.4868 79.035 42.5208 79.035 40.9528H80.197C80.197 41.8348 81.093 42.5068 82.395 42.5068C83.921 42.5068 84.719 41.5968 84.719 40.3228V39.1188C84.201 39.8888 83.305 40.3928 82.171 40.3928C80.197 40.3928 78.783 38.8808 78.783 36.6968C78.783 34.4708 80.211 32.9308 82.171 32.9308C83.361 32.9308 84.327 33.4908 84.831 34.3868L84.957 33.0988H85.867V40.3228C85.867 42.1988 84.607 43.4868 82.395 43.4868ZM82.339 39.3848C83.739 39.3848 84.719 38.2648 84.719 36.6548C84.719 35.0588 83.739 33.9388 82.339 33.9388C80.953 33.9388 79.987 35.0588 79.987 36.6828C79.987 38.2788 80.953 39.3848 82.339 39.3848ZM90.7143 32.3008C89.9163 32.3008 89.3143 31.7268 89.3143 30.9708C89.3143 30.2148 89.9163 29.6408 90.7143 29.6408C91.5123 29.6408 92.1143 30.2148 92.1143 30.9708C92.1143 31.7268 91.5123 32.3008 90.7143 32.3008ZM90.7143 31.6008C91.0783 31.6008 91.3443 31.3348 91.3443 30.9708C91.3443 30.6068 91.0783 30.3408 90.7143 30.3408C90.3503 30.3408 90.0843 30.6068 90.0843 30.9708C90.0843 31.3348 90.3503 31.6008 90.7143 31.6008ZM90.1683 40.6308C88.4883 40.6308 87.4103 39.7628 87.4103 38.4048C87.4103 36.6968 89.0623 36.3748 90.5463 36.2208C91.6803 36.1088 92.6603 36.1228 92.6743 35.5208C92.6603 34.5828 91.8903 33.9248 90.7703 33.9248C89.6923 33.9248 88.8523 34.5268 88.7263 35.4088H87.5783C87.7183 33.9528 89.0343 32.9308 90.7983 32.9308C92.6323 32.9308 93.8083 34.0228 93.8083 35.5908V39.2028C93.8083 39.4408 93.9343 39.5668 94.1863 39.5668H94.6063V40.5188H93.9483C93.1503 40.5188 92.7303 40.1548 92.7303 39.4688V39.2448C92.2963 40.0988 91.4563 40.6308 90.1683 40.6308ZM90.3363 39.6368C91.7223 39.6368 92.6743 38.7548 92.6743 37.5228V36.5568C92.3523 36.9908 91.5263 37.0748 90.6163 37.1728C89.5943 37.2848 88.5723 37.4248 88.5723 38.3768C88.5723 39.1468 89.2723 39.6368 90.3363 39.6368ZM101.994 32.3008C101.196 32.3008 100.594 31.7268 100.594 30.9708C100.594 30.2148 101.196 29.6408 101.994 29.6408C102.792 29.6408 103.394 30.2148 103.394 30.9708C103.394 31.7268 102.792 32.3008 101.994 32.3008ZM101.994 31.6008C102.358 31.6008 102.624 31.3348 102.624 30.9708C102.624 30.6068 102.358 30.3408 101.994 30.3408C101.63 30.3408 101.364 30.6068 101.364 30.9708C101.364 31.3348 101.63 31.6008 101.994 31.6008ZM101.448 40.6308C99.7676 40.6308 98.6896 39.7628 98.6896 38.4048C98.6896 36.6968 100.342 36.3748 101.826 36.2208C102.96 36.1088 103.94 36.1228 103.954 35.5208C103.94 34.5828 103.17 33.9248 102.05 33.9248C100.972 33.9248 100.132 34.5268 100.006 35.4088H98.8576C98.9976 33.9528 100.314 32.9308 102.078 32.9308C103.912 32.9308 105.088 34.0228 105.088 35.5908V39.2028C105.088 39.4408 105.214 39.5668 105.466 39.5668H105.886V40.5188H105.228C104.43 40.5188 104.01 40.1548 104.01 39.4688V39.2448C103.576 40.0988 102.736 40.6308 101.448 40.6308ZM101.616 39.6368C103.002 39.6368 103.954 38.7548 103.954 37.5228V36.5568C103.632 36.9908 102.806 37.0748 101.896 37.1728C100.874 37.2848 99.8516 37.4248 99.8516 38.3768C99.8516 39.1468 100.552 39.6368 101.616 39.6368ZM110.921 31.8528C110.417 31.8528 110.053 31.4888 110.053 30.9848C110.053 30.4948 110.417 30.1308 110.921 30.1308C111.411 30.1308 111.775 30.4948 111.775 30.9848C111.775 31.4888 111.411 31.8528 110.921 31.8528ZM109.283 43.3188H108.247V42.3388H109.283C109.969 42.3388 110.333 41.9468 110.333 41.2048V33.0988H111.495V41.2048C111.495 42.5768 110.725 43.3188 109.283 43.3188ZM116.097 40.6728C114.291 40.6728 113.255 39.5668 113.255 38.0548V33.0988H114.417V38.0128C114.417 39.0768 115.159 39.6508 116.209 39.6508C117.595 39.6508 118.351 38.7268 118.365 37.6068V33.0988H119.527V40.5188H118.603L118.505 39.3988C118.015 40.2388 117.119 40.6728 116.097 40.6728ZM124.206 40.6728C122.442 40.6728 121.14 39.7488 121.042 38.1808H122.176C122.26 39.1468 123.142 39.6788 124.262 39.6788C125.312 39.6788 125.816 39.2728 125.816 38.5308C125.816 37.8308 125.27 37.6768 124.5 37.4108L123.422 37.0468C122.33 36.6828 121.238 36.3468 121.238 35.0028C121.238 33.7428 122.218 32.9308 123.842 32.9308C125.48 32.9308 126.614 33.8128 126.796 35.4648H125.662C125.536 34.4288 124.808 33.9248 123.8 33.9248C122.89 33.9248 122.358 34.3308 122.358 34.9748C122.358 35.7448 123.17 35.8988 123.786 36.1088L124.794 36.4448C126.152 36.8928 126.964 37.3548 126.964 38.5868C126.964 39.8888 126.012 40.6728 124.206 40.6728ZM132.066 40.5188H131.24C129.798 40.5188 129.028 39.7768 129.028 38.4048V34.0788H127.656V33.0988H129.028V30.5648H130.19V33.0988H132.192V34.0788H130.19V38.4048C130.19 39.1468 130.554 39.5388 131.24 39.5388H132.066V40.5188ZM136.66 40.6728C134.462 40.6728 133.006 39.0628 133.006 36.8368C133.006 34.3028 134.644 32.9308 136.52 32.9308C138.564 32.9308 139.88 34.3028 139.922 36.6828V37.0048H134.168C134.238 38.5868 135.162 39.6648 136.66 39.6648C137.696 39.6648 138.452 39.1468 138.76 38.1808H139.894C139.558 39.7068 138.354 40.6728 136.66 40.6728ZM134.238 36.0388H138.704C138.494 34.7368 137.71 33.9388 136.52 33.9388C135.344 33.9388 134.476 34.7088 134.238 36.0388ZM142.612 40.5188H141.45V33.0988H142.374L142.514 34.5128C142.99 33.5608 143.858 33.0568 145.09 33.0568H145.342V34.2048H145.09C143.522 34.2048 142.612 35.1008 142.612 36.6268V40.5188ZM149.607 40.6728C147.409 40.6728 145.953 39.0628 145.953 36.8368C145.953 34.3028 147.591 32.9308 149.467 32.9308C151.511 32.9308 152.827 34.3028 152.869 36.6828V37.0048H147.115C147.185 38.5868 148.109 39.6648 149.607 39.6648C150.643 39.6648 151.399 39.1468 151.707 38.1808H152.841C152.505 39.7068 151.301 40.6728 149.607 40.6728ZM147.185 36.0388H151.651C151.441 34.7368 150.657 33.9388 149.467 33.9388C148.291 33.9388 147.423 34.7088 147.185 36.0388ZM161.182 40.5188H159.964L156.87 33.0988H158.13L160.58 39.1608L163.016 33.0988H164.276L161.182 40.5188ZM168.515 40.6728C166.317 40.6728 164.861 39.0628 164.861 36.8368C164.861 34.3028 166.499 32.9308 168.375 32.9308C170.419 32.9308 171.735 34.3028 171.777 36.6828V37.0048H166.023C166.093 38.5868 167.017 39.6648 168.515 39.6648C169.551 39.6648 170.307 39.1468 170.615 38.1808H171.749C171.413 39.7068 170.209 40.6728 168.515 40.6728ZM166.093 36.0388H170.559C170.349 34.7368 169.565 33.9388 168.375 33.9388C167.199 33.9388 166.331 34.7088 166.093 36.0388ZM174.51 40.5188H173.348V30.0188H174.51V36.7528L178.122 33.0988H179.522L176.848 35.8008L179.928 40.5188H178.57L176.05 36.6128L174.51 38.1668V40.5188ZM184.771 40.5188H183.945C182.503 40.5188 181.733 39.7768 181.733 38.4048V34.0788H180.361V33.0988H181.733V30.5648H182.895V33.0988H184.897V34.0788H182.895V38.4048C182.895 39.1468 183.259 39.5388 183.945 39.5388H184.771V40.5188ZM189.365 40.6728C187.167 40.6728 185.711 39.0628 185.711 36.8368C185.711 34.3028 187.349 32.9308 189.225 32.9308C191.269 32.9308 192.585 34.3028 192.627 36.6828V37.0048H186.873C186.943 38.5868 187.867 39.6648 189.365 39.6648C190.401 39.6648 191.157 39.1468 191.465 38.1808H192.599C192.263 39.7068 191.059 40.6728 189.365 40.6728ZM186.943 36.0388H191.409C191.199 34.7368 190.415 33.9388 189.225 33.9388C188.049 33.9388 187.181 34.7088 186.943 36.0388ZM195.317 40.5188H194.155V33.0988H195.079L195.191 34.2328C195.695 33.4488 196.661 32.9308 197.767 32.9308C199.363 32.9308 200.427 33.9668 200.427 35.6048V40.5188H199.265V35.6468C199.265 34.6108 198.593 33.9528 197.473 33.9528C196.143 33.9528 195.331 34.8768 195.317 36.0108V40.5188ZM206.583 43.3188H205.421V33.0988H206.345L206.471 34.4428C207.003 33.5188 207.983 32.9308 209.187 32.9308C211.147 32.9308 212.519 34.4988 212.519 36.7668C212.519 39.0768 211.147 40.6728 209.187 40.6728C208.053 40.6728 207.115 40.1548 206.583 39.2868V43.3188ZM209.005 39.6648C210.377 39.6648 211.315 38.4748 211.315 36.7668C211.315 35.1008 210.377 33.9388 208.991 33.9388C207.591 33.9388 206.583 35.0728 206.583 36.7108C206.583 38.4468 207.591 39.6648 209.005 39.6648ZM216.988 32.3008C216.19 32.3008 215.588 31.7268 215.588 30.9708C215.588 30.2148 216.19 29.6408 216.988 29.6408C217.786 29.6408 218.388 30.2148 218.388 30.9708C218.388 31.7268 217.786 32.3008 216.988 32.3008ZM216.988 31.6008C217.352 31.6008 217.618 31.3348 217.618 30.9708C217.618 30.6068 217.352 30.3408 216.988 30.3408C216.624 30.3408 216.358 30.6068 216.358 30.9708C216.358 31.3348 216.624 31.6008 216.988 31.6008ZM216.442 40.6308C214.762 40.6308 213.684 39.7628 213.684 38.4048C213.684 36.6968 215.336 36.3748 216.82 36.2208C217.954 36.1088 218.934 36.1228 218.948 35.5208C218.934 34.5828 218.164 33.9248 217.044 33.9248C215.966 33.9248 215.126 34.5268 215 35.4088H213.852C213.992 33.9528 215.308 32.9308 217.072 32.9308C218.906 32.9308 220.082 34.0228 220.082 35.5908V39.2028C220.082 39.4408 220.208 39.5668 220.46 39.5668H220.88V40.5188H220.222C219.424 40.5188 219.004 40.1548 219.004 39.4688V39.2448C218.57 40.0988 217.73 40.6308 216.442 40.6308ZM216.61 39.6368C217.996 39.6368 218.948 38.7548 218.948 37.5228V36.5568C218.626 36.9908 217.8 37.0748 216.89 37.1728C215.868 37.2848 214.846 37.4248 214.846 38.3768C214.846 39.1468 215.546 39.6368 216.61 39.6368ZM225.915 31.8528C225.425 31.8528 225.047 31.4748 225.047 30.9848C225.047 30.4948 225.425 30.1308 225.915 30.1308C226.405 30.1308 226.769 30.4948 226.769 30.9848C226.769 31.4748 226.405 31.8528 225.915 31.8528ZM226.489 40.5188H225.327V33.0988H226.489V40.5188ZM229.594 40.5188H228.432V30.0188H229.594V36.7528L233.206 33.0988H234.606L231.932 35.8008L235.012 40.5188H233.654L231.133 36.6128L229.594 38.1668V40.5188ZM238.857 40.6728C236.477 40.6728 235.217 38.9788 235.217 36.7388C235.217 34.2608 236.841 32.9308 238.857 32.9308C241.223 32.9308 242.497 34.6388 242.497 36.7388C242.497 39.3008 240.943 40.6728 238.857 40.6728ZM238.857 39.6648C240.439 39.6648 241.307 38.3488 241.307 36.7388C241.307 35.0728 240.341 33.9388 238.857 33.9388C237.373 33.9388 236.407 35.0728 236.407 36.7388C236.407 38.6428 237.513 39.6648 238.857 39.6648ZM245.178 40.5188H244.016V33.0988H244.94L245.052 34.2328C245.556 33.4488 246.522 32.9308 247.628 32.9308C249.224 32.9308 250.288 33.9668 250.288 35.6048V40.5188H249.126V35.6468C249.126 34.6108 248.454 33.9528 247.334 33.9528C246.004 33.9528 245.192 34.8768 245.178 36.0108V40.5188ZM255.386 40.6728C253.188 40.6728 251.732 39.0628 251.732 36.8368C251.732 34.3028 253.37 32.9308 255.246 32.9308C257.29 32.9308 258.606 34.3028 258.648 36.6828V37.0048H252.894C252.964 38.5868 253.888 39.6648 255.386 39.6648C256.422 39.6648 257.178 39.1468 257.486 38.1808H258.62C258.284 39.7068 257.08 40.6728 255.386 40.6728ZM252.964 36.0388H257.43C257.22 34.7368 256.436 33.9388 255.246 33.9388C254.07 33.9388 253.202 34.7088 252.964 36.0388ZM263.849 40.5188H263.023C261.581 40.5188 260.811 39.7768 260.811 38.4048V34.0788H259.439V33.0988H260.811V30.5648H261.973V33.0988H263.975V34.0788H261.973V38.4048C261.973 39.1468 262.337 39.5388 263.023 39.5388H263.849V40.5188ZM272.129 40.5188H270.911L267.817 33.0988H269.077L271.527 39.1608L273.963 33.0988H275.223L272.129 40.5188ZM277.048 31.8528C276.558 31.8528 276.18 31.4748 276.18 30.9848C276.18 30.4948 276.558 30.1308 277.048 30.1308C277.538 30.1308 277.902 30.4948 277.902 30.9848C277.902 31.4748 277.538 31.8528 277.048 31.8528ZM277.622 40.5188H276.46V33.0988H277.622V40.5188ZM281.916 40.6308C280.236 40.6308 279.158 39.7628 279.158 38.4048C279.158 36.6968 280.81 36.3748 282.294 36.2208C283.428 36.1088 284.408 36.1228 284.422 35.5208C284.408 34.5828 283.638 33.9248 282.518 33.9248C281.44 33.9248 280.6 34.5268 280.474 35.4088H279.326C279.466 33.9528 280.782 32.9308 282.546 32.9308C284.38 32.9308 285.556 34.0228 285.556 35.5908V39.2028C285.556 39.4408 285.682 39.5668 285.934 39.5668H286.354V40.5188H285.696C284.898 40.5188 284.478 40.1548 284.478 39.4688V39.2448C284.044 40.0988 283.204 40.6308 281.916 40.6308ZM282.084 39.6368C283.47 39.6368 284.422 38.7548 284.422 37.5228V36.5568C284.1 36.9908 283.274 37.0748 282.364 37.1728C281.342 37.2848 280.32 37.4248 280.32 38.3768C280.32 39.1468 281.02 39.6368 282.084 39.6368ZM293.574 40.6728C291.81 40.6728 290.508 39.7488 290.41 38.1808H291.544C291.628 39.1468 292.51 39.6788 293.63 39.6788C294.68 39.6788 295.184 39.2728 295.184 38.5308C295.184 37.8308 294.638 37.6768 293.868 37.4108L292.79 37.0468C291.698 36.6828 290.606 36.3468 290.606 35.0028C290.606 33.7428 291.586 32.9308 293.21 32.9308C294.848 32.9308 295.982 33.8128 296.164 35.4648H295.03C294.904 34.4288 294.176 33.9248 293.168 33.9248C292.258 33.9248 291.726 34.3308 291.726 34.9748C291.726 35.7448 292.538 35.8988 293.154 36.1088L294.162 36.4448C295.52 36.8928 296.332 37.3548 296.332 38.5868C296.332 39.8888 295.38 40.6728 293.574 40.6728ZM301.433 40.5188H300.607C299.165 40.5188 298.395 39.7768 298.395 38.4048V34.0788H297.023V33.0988H298.395V30.5648H299.557V33.0988H301.559V34.0788H299.557V38.4048C299.557 39.1468 299.921 39.5388 300.607 39.5388H301.433V40.5188ZM304.091 40.5188H302.929V33.0988H303.853L303.993 34.5128C304.469 33.5608 305.337 33.0568 306.569 33.0568H306.821V34.2048H306.569C305.001 34.2048 304.091 35.1008 304.091 36.6268V40.5188ZM311.071 40.6728C308.691 40.6728 307.431 38.9788 307.431 36.7388C307.431 34.2608 309.055 32.9308 311.071 32.9308C313.437 32.9308 314.711 34.6388 314.711 36.7388C314.711 39.3008 313.157 40.6728 311.071 40.6728ZM311.071 39.6648C312.653 39.6648 313.521 38.3488 313.521 36.7388C313.521 35.0728 312.555 33.9388 311.071 33.9388C309.587 33.9388 308.621 35.0728 308.621 36.7388C308.621 38.6428 309.727 39.6648 311.071 39.6648ZM317.435 40.5188H316.273V30.0188H317.435V36.7528L321.047 33.0988H322.447L319.773 35.8008L322.853 40.5188H321.495L318.975 36.6128L317.435 38.1668V40.5188ZM326.712 40.6728C324.514 40.6728 323.058 39.0628 323.058 36.8368C323.058 34.3028 324.696 32.9308 326.572 32.9308C328.616 32.9308 329.932 34.3028 329.974 36.6828V37.0048H324.22C324.29 38.5868 325.214 39.6648 326.712 39.6648C327.748 39.6648 328.504 39.1468 328.812 38.1808H329.946C329.61 39.7068 328.406 40.6728 326.712 40.6728ZM324.29 36.0388H328.756C328.546 34.7368 327.762 33.9388 326.572 33.9388C325.396 33.9388 324.528 34.7088 324.29 36.0388ZM335.235 31.8528C334.745 31.8528 334.367 31.4748 334.367 30.9848C334.367 30.4948 334.745 30.1308 335.235 30.1308C335.725 30.1308 336.089 30.4948 336.089 30.9848C336.089 31.4748 335.725 31.8528 335.235 31.8528ZM335.809 40.5188H334.647V33.0988H335.809V40.5188ZM342.268 40.5188H341.092V30.7188H347.77V31.7968H342.268V34.9748H347.35V36.0528H342.268V40.5188ZM349.892 31.8528C349.402 31.8528 349.024 31.4748 349.024 30.9848C349.024 30.4948 349.402 30.1308 349.892 30.1308C350.382 30.1308 350.746 30.4948 350.746 30.9848C350.746 31.4748 350.382 31.8528 349.892 31.8528ZM350.466 40.5188H349.304V33.0988H350.466V40.5188ZM355.6 43.4868C353.598 43.4868 352.24 42.5208 352.24 40.9528H353.402C353.402 41.8348 354.298 42.5068 355.6 42.5068C357.126 42.5068 357.924 41.5968 357.924 40.3228V39.1188C357.406 39.8888 356.51 40.3928 355.376 40.3928C353.402 40.3928 351.988 38.8808 351.988 36.6968C351.988 34.4708 353.416 32.9308 355.376 32.9308C356.566 32.9308 357.532 33.4908 358.036 34.3868L358.162 33.0988H359.072V40.3228C359.072 42.1988 357.812 43.4868 355.6 43.4868ZM355.544 39.3848C356.944 39.3848 357.924 38.2648 357.924 36.6548C357.924 35.0588 356.944 33.9388 355.544 33.9388C354.158 33.9388 353.192 35.0588 353.192 36.6828C353.192 38.2788 354.158 39.3848 355.544 39.3848ZM362.141 40.5188H360.979V33.0988H361.903L362.015 34.2468C362.519 33.4488 363.485 32.9308 364.549 32.9308C365.669 32.9308 366.509 33.5048 366.887 34.4008C367.363 33.5328 368.385 32.9308 369.519 32.9308C371.087 32.9308 372.095 34.0368 372.095 35.5488V40.5188H370.933V35.5908C370.933 34.5968 370.317 33.9528 369.323 33.9528C367.937 33.9528 367.125 34.8768 367.111 36.0108V40.5188H365.963V35.5908C365.963 34.5968 365.347 33.9528 364.353 33.9528C362.967 33.9528 362.155 34.8768 362.141 36.0108V40.5188ZM376.307 40.6308C374.627 40.6308 373.549 39.7628 373.549 38.4048C373.549 36.6968 375.201 36.3748 376.685 36.2208C377.819 36.1088 378.799 36.1228 378.813 35.5208C378.799 34.5828 378.029 33.9248 376.909 33.9248C375.831 33.9248 374.991 34.5268 374.865 35.4088H373.717C373.857 33.9528 375.173 32.9308 376.937 32.9308C378.771 32.9308 379.947 34.0228 379.947 35.5908V39.2028C379.947 39.4408 380.073 39.5668 380.325 39.5668H380.745V40.5188H380.087C379.289 40.5188 378.869 40.1548 378.869 39.4688V39.2448C378.435 40.0988 377.595 40.6308 376.307 40.6308ZM376.475 39.6368C377.861 39.6368 378.813 38.7548 378.813 37.5228V36.5568C378.491 36.9908 377.665 37.0748 376.755 37.1728C375.733 37.2848 374.711 37.4248 374.711 38.3768C374.711 39.1468 375.411 39.6368 376.475 39.6368ZM382.869 40.6588C382.365 40.6588 381.987 40.2808 381.987 39.7768C381.987 39.2868 382.365 38.9088 382.869 38.9088C383.373 38.9088 383.751 39.2868 383.751 39.7768C383.751 40.2808 383.373 40.6588 382.869 40.6588Z" fill="#481125"/>
<rect x="24.5" y="74.0188" width="684" height="169" rx="12.7123" fill="#FDF9F9"/>
<rect x="24.5" y="74.0188" width="684" height="169" rx="12.7123" stroke="#691837"/>
<mask id="mask0_826_79693" style="mask-type:luminance" maskUnits="userSpaceOnUse" x="87" y="89" width="559" height="138">
<path d="M646 89.635H87V226.975H646V89.635Z" fill="white"/>
</mask>
<g mask="url(#mask0_826_79693)">
<path d="M119.034 123.584L130.309 134.485M122.135 108.152C125.275 115.295 121.831 123.546 114.442 126.582C107.053 129.618 98.517 126.288 95.3767 119.145C92.2364 112.002 95.6808 103.751 103.07 100.715C110.459 97.6798 118.995 101.009 122.135 108.152Z" stroke="#28000E" stroke-width="0.772857" stroke-linecap="round" stroke-linejoin="round"/>
<path d="M114.159 182.94H112.542V172.799C111.907 173.618 110.868 174.027 109.463 174.027H109.232V172.502H109.463C111.484 172.502 112.562 171.664 112.562 170.101V169.915H114.159V182.94Z" fill="#28000E"/>
<path d="M91.3149 211.625H89.8392L87.3209 203.407H88.6843L90.6412 210.028L92.534 203.407H93.6889L95.5816 209.997L97.5225 203.407H98.8859L96.3676 211.625H94.9079L93.1114 205.361L91.3149 211.625ZM103.937 211.796C101.419 211.796 99.7505 210.013 99.7505 207.547C99.7505 204.741 101.627 203.221 103.777 203.221C106.118 203.221 107.626 204.741 107.674 207.377V207.733H101.082C101.162 209.486 102.221 210.679 103.937 210.679C105.124 210.679 105.99 210.106 106.343 209.036H107.642C107.257 210.726 105.878 211.796 103.937 211.796ZM101.162 206.664H106.279C106.038 205.221 105.14 204.338 103.777 204.338C102.429 204.338 101.435 205.19 101.162 206.664ZM110.099 202.027C109.538 202.027 109.105 201.609 109.105 201.066C109.105 200.523 109.538 200.12 110.099 200.12C110.661 200.12 111.078 200.523 111.078 201.066C111.078 201.609 110.661 202.027 110.099 202.027ZM110.757 211.625H109.426V203.407H110.757V211.625ZM116.64 214.913C114.346 214.913 112.79 213.843 112.79 212.106H114.121C114.121 213.083 115.148 213.827 116.64 213.827C118.388 213.827 119.302 212.819 119.302 211.408V210.075C118.709 210.928 117.682 211.486 116.383 211.486C114.121 211.486 112.501 209.811 112.501 207.392C112.501 204.927 114.137 203.221 116.383 203.221C117.746 203.221 118.853 203.841 119.431 204.834L119.575 203.407H120.618V211.408C120.618 213.486 119.174 214.913 116.64 214.913ZM116.575 210.369C118.179 210.369 119.302 209.129 119.302 207.346C119.302 205.578 118.179 204.338 116.575 204.338C114.987 204.338 113.881 205.578 113.881 207.377C113.881 209.144 114.987 210.369 116.575 210.369ZM124.182 211.625H122.851V199.996H124.182V204.462C124.792 203.717 125.834 203.221 126.989 203.221C128.818 203.221 130.037 204.369 130.037 206.183V211.625H128.706V206.229C128.706 205.082 127.936 204.353 126.733 204.353C125.129 204.353 124.198 205.377 124.182 206.632V211.625ZM136.393 211.625H135.447C133.795 211.625 132.913 210.804 132.913 209.284V204.493H131.341V203.407H132.913V200.601H134.244V203.407H136.538V204.493H134.244V209.284C134.244 210.106 134.661 210.54 135.447 210.54H136.393V211.625Z" fill="#28000E"/>
<path d="M169.607 101.536C169.607 96.3974 173.916 92.2322 179.231 92.2322H223.342C228.656 92.2322 232.966 96.3974 232.966 101.536V215.502C232.966 220.64 228.656 224.805 223.342 224.805H179.231C173.916 224.805 169.607 220.64 169.607 215.502V101.536Z" fill="#F9EAED"/>
<path d="M208.057 123.584L219.332 134.485M211.158 108.152C214.298 115.295 210.854 123.546 203.465 126.582C196.076 129.618 187.54 126.288 184.399 119.145C181.26 112.002 184.703 103.751 192.093 100.715C199.482 97.6798 208.018 101.009 211.158 108.152Z" stroke="#28000E" stroke-width="1.15929" stroke-linecap="round" stroke-linejoin="round"/>
<path d="M194.761 182.94H193.144V172.799C192.509 173.618 191.47 174.027 190.065 174.027H189.834V172.502H190.065C192.086 172.502 193.164 171.664 193.164 170.101V169.915H194.761V182.94ZM200.306 180.13L198.208 186.345L196.919 185.954L198.94 179.721L200.306 180.13ZM207.158 183.145C204.463 183.145 202.481 181.544 202.192 179.014H203.866C204.078 180.67 205.387 181.712 207.158 181.712C209.063 181.712 210.334 180.484 210.334 178.698C210.334 176.93 209.063 175.702 207.235 175.702C206.215 175.702 205.31 176.093 204.444 176.986H202.654L203.751 169.915H211.392V171.348H205.098L204.405 175.739C205.233 174.865 206.33 174.362 207.658 174.362C210.18 174.362 211.97 176.149 211.97 178.679C211.97 181.321 210.026 183.145 207.158 183.145Z" fill="#28000E"/>
<path d="M180.338 211.625H178.862L176.344 203.407H177.707L179.664 210.028L181.557 203.407H182.712L184.604 209.997L186.545 203.407H187.909L185.39 211.625H183.931L182.134 205.361L180.338 211.625ZM192.96 211.796C190.441 211.796 188.773 210.013 188.773 207.547C188.773 204.741 190.65 203.221 192.799 203.221C195.141 203.221 196.649 204.741 196.697 207.377V207.733H190.105C190.185 209.486 191.243 210.679 192.96 210.679C194.147 210.679 195.013 210.106 195.366 209.036H196.665C196.28 210.726 194.901 211.796 192.96 211.796ZM190.185 206.664H195.302C195.061 205.221 194.163 204.338 192.799 204.338C191.452 204.338 190.458 205.19 190.185 206.664ZM199.122 202.027C198.561 202.027 198.128 201.609 198.128 201.066C198.128 200.523 198.561 200.12 199.122 200.12C199.684 200.12 200.101 200.523 200.101 201.066C200.101 201.609 199.684 202.027 199.122 202.027ZM199.78 211.625H198.449V203.407H199.78V211.625ZM205.663 214.913C203.369 214.913 201.813 213.843 201.813 212.106H203.144C203.144 213.083 204.171 213.827 205.663 213.827C207.411 213.827 208.325 212.819 208.325 211.408V210.075C207.732 210.928 206.705 211.486 205.406 211.486C203.144 211.486 201.524 209.811 201.524 207.392C201.524 204.927 203.161 203.221 205.406 203.221C206.77 203.221 207.876 203.841 208.454 204.834L208.598 203.407H209.641V211.408C209.641 213.486 208.197 214.913 205.663 214.913ZM205.599 210.369C207.203 210.369 208.325 209.129 208.325 207.346C208.325 205.578 207.203 204.338 205.599 204.338C204.011 204.338 202.904 205.578 202.904 207.377C202.904 209.144 204.011 210.369 205.599 210.369ZM213.205 211.625H211.874V199.996H213.205V204.462C213.814 203.717 214.857 203.221 216.012 203.221C217.84 203.221 219.06 204.369 219.06 206.183V211.625H217.728V206.229C217.728 205.082 216.958 204.353 215.755 204.353C214.151 204.353 213.221 205.377 213.205 206.632V211.625ZM225.416 211.625H224.47C222.818 211.625 221.936 210.804 221.936 209.284V204.493H220.364V203.407H221.936V200.601H223.267V203.407H225.561V204.493H223.267V209.284C223.267 210.106 223.684 210.54 224.47 210.54H225.416V211.625Z" fill="#28000E"/>
<path d="M297.08 123.584L308.354 134.485M300.18 108.152C303.321 115.295 299.876 123.546 292.487 126.582C285.099 129.618 276.563 126.288 273.422 119.145C270.282 112.002 273.726 103.751 281.116 100.715C288.505 97.6798 297.04 101.009 300.18 108.152Z" stroke="#28000E" stroke-width="1.54571" stroke-linecap="round" stroke-linejoin="round"/>
<path d="M294.723 173.451C294.723 177.916 287.659 177.73 287.659 181.507H294.531V182.94H285.946V181.712C285.946 176.93 293.049 176.986 293.049 173.451C293.049 172.074 292.048 171.143 290.431 171.143C288.737 171.143 287.39 172.167 287.351 174.269H285.658C285.812 171.292 287.833 169.711 290.45 169.711C293.03 169.711 294.723 171.218 294.723 173.451Z" fill="#28000E"/>
<path d="M269.361 211.625H267.885L265.367 203.407H266.73L268.687 210.028L270.58 203.407H271.735L273.628 209.997L275.568 203.407H276.932L274.414 211.625H272.954L271.157 205.361L269.361 211.625ZM281.983 211.796C279.465 211.796 277.796 210.013 277.796 207.547C277.796 204.741 279.673 203.221 281.822 203.221C284.164 203.221 285.672 204.741 285.72 207.377V207.733H279.128C279.208 209.486 280.267 210.679 281.983 210.679C283.17 210.679 284.036 210.106 284.389 209.036H285.688C285.303 210.726 283.924 211.796 281.983 211.796ZM279.208 206.664H284.325C284.084 205.221 283.186 204.338 281.822 204.338C280.475 204.338 279.481 205.19 279.208 206.664ZM288.146 202.027C287.584 202.027 287.151 201.609 287.151 201.066C287.151 200.523 287.584 200.12 288.146 200.12C288.707 200.12 289.124 200.523 289.124 201.066C289.124 201.609 288.707 202.027 288.146 202.027ZM288.803 211.625H287.472V203.407H288.803V211.625ZM294.686 214.913C292.392 214.913 290.836 213.843 290.836 212.106H292.168C292.168 213.083 293.194 213.827 294.686 213.827C296.434 213.827 297.349 212.819 297.349 211.408V210.075C296.755 210.928 295.729 211.486 294.429 211.486C292.168 211.486 290.548 209.811 290.548 207.392C290.548 204.927 292.184 203.221 294.429 203.221C295.793 203.221 296.899 203.841 297.477 204.834L297.621 203.407H298.664V211.408C298.664 213.486 297.22 214.913 294.686 214.913ZM294.622 210.369C296.226 210.369 297.349 209.129 297.349 207.346C297.349 205.578 296.226 204.338 294.622 204.338C293.034 204.338 291.927 205.578 291.927 207.377C291.927 209.144 293.034 210.369 294.622 210.369ZM302.228 211.625H300.897V199.996H302.228V204.462C302.838 203.717 303.88 203.221 305.035 203.221C306.864 203.221 308.083 204.369 308.083 206.183V211.625H306.751V206.229C306.751 205.082 305.981 204.353 304.778 204.353C303.174 204.353 302.244 205.377 302.228 206.632V211.625ZM314.439 211.625H313.493C311.841 211.625 310.959 210.804 310.959 209.284V204.493H309.387V203.407H310.959V200.601H312.29V203.407H314.584V204.493H312.29V209.284C312.29 210.106 312.707 210.54 313.493 210.54H314.439V211.625Z" fill="#28000E"/>
<path d="M379.687 123.584L390.961 134.485M382.787 108.152C385.928 115.295 382.483 123.546 375.094 126.582C367.705 129.618 359.17 126.288 356.029 119.145C352.889 112.002 356.333 103.751 363.723 100.715C371.112 97.6798 379.647 101.009 382.787 108.152Z" stroke="#28000E" stroke-width="2.31857" stroke-linecap="round" stroke-linejoin="round"/>
<path d="M372.945 183.145C369.904 183.145 367.844 181.452 367.671 178.791H369.346C369.461 180.577 370.866 181.712 372.964 181.712C374.889 181.712 376.14 180.726 376.14 179.237C376.14 177.786 374.947 176.893 372.907 176.893H371.097V175.609H372.907C374.504 175.609 375.621 174.716 375.621 173.395C375.621 172.092 374.523 171.143 372.887 171.143C371.213 171.143 369.962 172.167 369.711 173.767H368.037C368.383 171.292 370.308 169.711 372.984 169.711C375.486 169.711 377.237 171.106 377.237 173.079C377.237 174.586 376.217 175.739 374.716 176.13C376.641 176.558 377.738 177.73 377.738 179.405C377.738 181.619 375.832 183.145 372.945 183.145Z" fill="#28000E"/>
<path d="M351.968 211.625H350.492L347.974 203.407H349.337L351.294 210.028L353.187 203.407H354.342L356.235 209.997L358.175 203.407H359.539L357.02 211.625H355.561L353.764 205.361L351.968 211.625ZM364.59 211.796C362.072 211.796 360.403 210.013 360.403 207.547C360.403 204.741 362.28 203.221 364.429 203.221C366.771 203.221 368.279 204.741 368.327 207.377V207.733H361.735C361.815 209.486 362.874 210.679 364.59 210.679C365.777 210.679 366.643 210.106 366.996 209.036H368.295C367.91 210.726 366.531 211.796 364.59 211.796ZM361.815 206.664H366.932C366.691 205.221 365.793 204.338 364.429 204.338C363.082 204.338 362.088 205.19 361.815 206.664ZM370.752 202.027C370.191 202.027 369.758 201.609 369.758 201.066C369.758 200.523 370.191 200.12 370.752 200.12C371.314 200.12 371.731 200.523 371.731 201.066C371.731 201.609 371.314 202.027 370.752 202.027ZM371.41 211.625H370.079V203.407H371.41V211.625ZM377.293 214.913C374.999 214.913 373.443 213.843 373.443 212.106H374.775C374.775 213.083 375.801 213.827 377.293 213.827C379.041 213.827 379.956 212.819 379.956 211.408V210.075C379.362 210.928 378.335 211.486 377.036 211.486C374.775 211.486 373.154 209.811 373.154 207.392C373.154 204.927 374.791 203.221 377.036 203.221C378.4 203.221 379.506 203.841 380.084 204.834L380.228 203.407H381.271V211.408C381.271 213.486 379.827 214.913 377.293 214.913ZM377.229 210.369C378.833 210.369 379.956 209.129 379.956 207.346C379.956 205.578 378.833 204.338 377.229 204.338C375.641 204.338 374.534 205.578 374.534 207.377C374.534 209.144 375.641 210.369 377.229 210.369ZM384.835 211.625H383.504V199.996H384.835V204.462C385.444 203.717 386.487 203.221 387.642 203.221C389.471 203.221 390.69 204.369 390.69 206.183V211.625H389.358V206.229C389.358 205.082 388.588 204.353 387.385 204.353C385.781 204.353 384.851 205.377 384.835 206.632V211.625ZM397.046 211.625H396.1C394.448 211.625 393.566 210.804 393.566 209.284V204.493H391.994V203.407H393.566V200.601H394.897V203.407H397.191V204.493H394.897V209.284C394.897 210.106 395.314 210.54 396.1 210.54H397.046V211.625Z" fill="#28000E"/>
<path d="M473.56 135.642C473.402 135.642 473.246 135.612 473.1 135.554C472.954 135.495 472.821 135.409 472.71 135.301L462.26 125.197C461.033 126.211 459.652 127.037 458.165 127.646C456.263 128.431 454.22 128.845 452.153 128.863C450.085 128.882 448.035 128.504 446.119 127.753C444.199 127.01 442.45 125.906 440.974 124.506C439.5 123.105 438.326 121.435 437.523 119.593C435.879 115.854 435.838 111.717 437.412 107.949C438.985 104.181 441.982 101.229 445.851 99.6393C447.751 98.852 449.795 98.4372 451.863 98.4189C453.93 98.4005 455.982 98.779 457.897 99.5323C459.817 100.275 461.565 101.379 463.041 102.779C464.516 104.18 465.689 105.849 466.493 107.691C467.307 109.529 467.736 111.504 467.755 113.503C467.774 115.502 467.382 117.484 466.603 119.336C465.965 120.871 465.072 122.294 463.958 123.551L474.412 133.657C474.61 133.657 474.805 133.704 474.979 133.795C475.154 133.885 475.302 134.015 475.412 134.174C475.522 134.334 475.589 134.516 475.608 134.707C475.628 134.897 475.598 135.089 475.523 135.266C475.446 135.442 475.327 135.598 475.174 135.719C475.021 135.841 474.839 135.924 474.645 135.961C474.451 135.998 474.251 135.988 474.061 135.933C473.872 135.877 473.7 135.777 473.56 135.642ZM452.005 100.745C450.213 100.745 448.44 101.097 446.792 101.779C445.178 102.437 443.715 103.398 442.488 104.607C441.26 105.815 440.293 107.247 439.642 108.819C438.981 110.387 438.65 112.067 438.666 113.76C438.682 115.453 439.046 117.127 439.735 118.683C440.415 120.244 441.409 121.658 442.659 122.845C443.91 124.031 445.39 124.966 447.017 125.596C448.639 126.233 450.377 126.554 452.129 126.538C453.88 126.522 455.611 126.171 457.222 125.504C458.773 124.87 460.184 123.956 461.382 122.812C461.418 122.767 461.459 122.728 461.506 122.695C462.743 121.483 463.716 120.045 464.371 118.465C465.031 116.896 465.362 115.216 465.346 113.523C465.33 111.83 464.966 110.156 464.276 108.6C463.595 107.04 462.601 105.625 461.351 104.439C460.102 103.252 458.62 102.317 456.994 101.688C455.409 101.066 453.715 100.746 452.005 100.745Z" fill="#28000E"/>
<path d="M458.574 182.94H456.957V179.684H450.278V178.288L456.938 169.915H458.574V178.251H460.941V179.684H458.574V182.94ZM456.957 172.092L452.049 178.251H456.957V172.092Z" fill="#28000E"/>
<path d="M434.575 211.625H433.099L430.581 203.407H431.944L433.901 210.028L435.794 203.407H436.949L438.841 209.997L440.782 203.407H442.146L439.627 211.625H438.168L436.371 205.361L434.575 211.625ZM447.197 211.796C444.678 211.796 443.01 210.013 443.01 207.547C443.01 204.741 444.887 203.221 447.036 203.221C449.378 203.221 450.886 204.741 450.934 207.377V207.733H444.342C444.422 209.486 445.48 210.679 447.197 210.679C448.384 210.679 449.25 210.106 449.603 209.036H450.902C450.517 210.726 449.138 211.796 447.197 211.796ZM444.422 206.664H449.539C449.298 205.221 448.4 204.338 447.036 204.338C445.689 204.338 444.694 205.19 444.422 206.664ZM453.359 202.027C452.798 202.027 452.365 201.609 452.365 201.066C452.365 200.523 452.798 200.12 453.359 200.12C453.921 200.12 454.338 200.523 454.338 201.066C454.338 201.609 453.921 202.027 453.359 202.027ZM454.017 211.625H452.686V203.407H454.017V211.625ZM459.9 214.913C457.606 214.913 456.05 213.843 456.05 212.106H457.381C457.381 213.083 458.408 213.827 459.9 213.827C461.648 213.827 462.562 212.819 462.562 211.408V210.075C461.969 210.928 460.942 211.486 459.643 211.486C457.381 211.486 455.761 209.811 455.761 207.392C455.761 204.927 457.397 203.221 459.643 203.221C461.006 203.221 462.113 203.841 462.691 204.834L462.835 203.407H463.878V211.408C463.878 213.486 462.434 214.913 459.9 214.913ZM459.836 210.369C461.44 210.369 462.562 209.129 462.562 207.346C462.562 205.578 461.44 204.338 459.836 204.338C458.248 204.338 457.141 205.578 457.141 207.377C457.141 209.144 458.248 210.369 459.836 210.369ZM467.442 211.625H466.11V199.996H467.442V204.462C468.051 203.717 469.094 203.221 470.249 203.221C472.077 203.221 473.296 204.369 473.296 206.183V211.625H471.965V206.229C471.965 205.082 471.195 204.353 469.992 204.353C468.388 204.353 467.458 205.377 467.442 206.632V211.625ZM479.653 211.625H478.707C477.055 211.625 476.172 210.804 476.172 209.284V204.493H474.601V203.407H476.172V200.601H477.504V203.407H479.798V204.493H477.504V209.284C477.504 210.106 477.921 210.54 478.707 210.54H479.653V211.625Z" fill="#28000E"/>
<path d="M544.901 123.584L556.175 134.485M548.001 108.152C551.142 115.295 547.697 123.546 540.308 126.582C532.919 129.618 524.383 126.288 521.243 119.145C518.103 112.002 521.547 103.751 528.936 100.715C536.325 97.6798 544.86 101.009 548.001 108.152Z" stroke="#28000E" stroke-width="3.86429" stroke-linecap="round" stroke-linejoin="round"/>
<path d="M538.024 183.145C535.329 183.145 533.347 181.544 533.058 179.014H534.732C534.944 180.67 536.253 181.712 538.024 181.712C539.929 181.712 541.2 180.484 541.2 178.698C541.2 176.93 539.93 175.702 538.101 175.702C537.081 175.702 536.176 176.093 535.31 176.986H533.52L534.617 169.915H542.259V171.348H535.964L535.271 175.739C536.099 174.865 537.196 174.362 538.524 174.362C541.046 174.362 542.836 176.149 542.836 178.679C542.836 181.321 540.892 183.145 538.024 183.145Z" fill="#28000E"/>
<path d="M517.182 211.625H515.706L513.188 203.407H514.551L516.508 210.028L518.401 203.407H519.556L521.448 209.997L523.389 203.407H524.753L522.234 211.625H520.775L518.978 205.361L517.182 211.625ZM529.804 211.796C527.285 211.796 525.617 210.013 525.617 207.547C525.617 204.741 527.494 203.221 529.643 203.221C531.985 203.221 533.493 204.741 533.541 207.377V207.733H526.948C527.029 209.486 528.087 210.679 529.804 210.679C530.991 210.679 531.857 210.106 532.21 209.036H533.509C533.124 210.726 531.744 211.796 529.804 211.796ZM527.029 206.664H532.146C531.905 205.221 531.007 204.338 529.643 204.338C528.296 204.338 527.301 205.19 527.029 206.664ZM535.966 202.027C535.405 202.027 534.972 201.609 534.972 201.066C534.972 200.523 535.405 200.12 535.966 200.12C536.528 200.12 536.945 200.523 536.945 201.066C536.945 201.609 536.528 202.027 535.966 202.027ZM536.624 211.625H535.293V203.407H536.624V211.625ZM542.507 214.913C540.213 214.913 538.657 213.843 538.657 212.106H539.988C539.988 213.083 541.015 213.827 542.507 213.827C544.255 213.827 545.169 212.819 545.169 211.408V210.075C544.576 210.928 543.549 211.486 542.25 211.486C539.988 211.486 538.368 209.811 538.368 207.392C538.368 204.927 540.004 203.221 542.25 203.221C543.613 203.221 544.72 203.841 545.298 204.834L545.442 203.407H546.485V211.408C546.485 213.486 545.041 214.913 542.507 214.913ZM542.442 210.369C544.046 210.369 545.169 209.129 545.169 207.346C545.169 205.578 544.046 204.338 542.442 204.338C540.855 204.338 539.748 205.578 539.748 207.377C539.748 209.144 540.855 210.369 542.442 210.369ZM550.049 211.625H548.717V199.996H550.049V204.462C550.658 203.717 551.701 203.221 552.856 203.221C554.684 203.221 555.903 204.369 555.903 206.183V211.625H554.572V206.229C554.572 205.082 553.802 204.353 552.599 204.353C550.995 204.353 550.065 205.377 550.049 206.632V211.625ZM562.26 211.625H561.314C559.662 211.625 558.779 210.804 558.779 209.284V204.493H557.207V203.407H558.779V200.601H560.111V203.407H562.404V204.493H560.111V209.284C560.111 210.106 560.528 210.54 561.314 210.54H562.26V211.625Z" fill="#28000E"/>
<path d="M627.507 123.584L638.782 134.485M630.608 108.152C633.749 115.295 630.304 123.546 622.915 126.582C615.526 129.618 606.99 126.288 603.85 119.145C600.71 112.002 604.154 103.751 611.543 100.715C618.932 97.6798 627.467 101.009 630.608 108.152Z" stroke="#28000E" stroke-width="4.63714" stroke-linecap="round" stroke-linejoin="round"/>
<path d="M620.923 183.145C617.246 183.145 615.341 180.242 615.341 176.335C615.341 172.13 617.535 169.711 620.904 169.711C623.464 169.711 625.427 171.367 625.677 173.767H624.003C623.81 172.223 622.54 171.143 620.904 171.143C618.247 171.143 616.823 173.339 616.823 176.428C616.823 176.707 616.842 176.93 616.861 177.172C617.323 175.628 618.96 174.325 621.173 174.325C623.733 174.325 625.581 176.111 625.581 178.698C625.581 181.321 623.675 183.145 620.923 183.145ZM620.807 181.731C622.366 181.731 623.926 180.726 623.926 178.698C623.926 176.651 622.405 175.665 620.846 175.665C619.267 175.665 617.651 176.707 617.651 178.716C617.651 180.707 619.229 181.731 620.807 181.731Z" fill="#28000E"/>
<path d="M599.789 211.625H598.313L595.795 203.407H597.158L599.115 210.028L601.008 203.407H602.163L604.055 209.997L605.996 203.407H607.36L604.841 211.625H603.382L601.585 205.361L599.789 211.625ZM612.411 211.796C609.892 211.796 608.224 210.013 608.224 207.547C608.224 204.741 610.101 203.221 612.25 203.221C614.592 203.221 616.1 204.741 616.148 207.377V207.733H609.555C609.636 209.486 610.694 210.679 612.411 210.679C613.598 210.679 614.464 210.106 614.817 209.036H616.116C615.731 210.726 614.351 211.796 612.411 211.796ZM609.636 206.664H614.752C614.512 205.221 613.614 204.338 612.25 204.338C610.903 204.338 609.908 205.19 609.636 206.664ZM618.573 202.027C618.012 202.027 617.579 201.609 617.579 201.066C617.579 200.523 618.012 200.12 618.573 200.12C619.135 200.12 619.552 200.523 619.552 201.066C619.552 201.609 619.135 202.027 618.573 202.027ZM619.231 211.625H617.899V203.407H619.231V211.625ZM625.114 214.913C622.82 214.913 621.264 213.843 621.264 212.106H622.595C622.595 213.083 623.622 213.827 625.114 213.827C626.862 213.827 627.776 212.819 627.776 211.408V210.075C627.183 210.928 626.156 211.486 624.857 211.486C622.595 211.486 620.975 209.811 620.975 207.392C620.975 204.927 622.611 203.221 624.857 203.221C626.22 203.221 627.327 203.841 627.905 204.834L628.049 203.407H629.092V211.408C629.092 213.486 627.648 214.913 625.114 214.913ZM625.049 210.369C626.653 210.369 627.776 209.129 627.776 207.346C627.776 205.578 626.653 204.338 625.049 204.338C623.461 204.338 622.355 205.578 622.355 207.377C622.355 209.144 623.461 210.369 625.049 210.369ZM632.656 211.625H631.324V199.996H632.656V204.462C633.265 203.717 634.308 203.221 635.463 203.221C637.291 203.221 638.51 204.369 638.51 206.183V211.625H637.179V206.229C637.179 205.082 636.409 204.353 635.206 204.353C633.602 204.353 632.672 205.377 632.656 206.632V211.625ZM644.867 211.625H643.921C642.269 211.625 641.386 210.804 641.386 209.284V204.493H639.814V203.407H641.386V200.601H642.718V203.407H645.011V204.493H642.718V209.284C642.718 210.106 643.135 210.54 643.921 210.54H644.867V211.625Z" fill="#28000E"/>
</g>
<defs>
<clipPath id="clip0_826_79693">
<rect width="8" height="8" fill="white" transform="translate(30 30.5188)"/>
</clipPath>
</defs>
</svg>
