<svg width="733" height="217" viewBox="0 0 733 217" fill="none" xmlns="http://www.w3.org/2000/svg">
<rect y="0.923828" width="733" height="215.319" rx="24" fill="white"/>
<rect x="24" y="24.9238" width="20" height="20" rx="10" fill="#CE3871"/>
<g clip-path="url(#clip0_826_79931)">
<path d="M41.5 42.9238C41.3667 42.9238 41.2407 42.8718 41.1467 42.7772L34 35.6315L26.8533 42.7772C26.7587 42.8718 26.6333 42.9238 26.5 42.9238C26.3667 42.9238 26.2407 42.8718 26.1467 42.7772C25.952 42.5825 25.952 42.2652 26.1467 42.0699L33.2933 34.9235L26.1467 27.7778C26.052 27.6838 26 27.5578 26 27.4245C26 27.2911 26.052 27.1652 26.1467 27.0712C26.2407 26.9765 26.3667 26.9245 26.5 26.9245C26.6333 26.9245 26.7593 26.9765 26.8533 27.0712L34 34.2169L41.1467 27.0705C41.2413 26.9758 41.3667 26.9238 41.5 26.9238C41.6333 26.9238 41.7593 26.9758 41.8533 27.0705C41.948 27.1652 42 27.2911 42 27.4245C42 27.5578 41.948 27.6838 41.8533 27.7778L34.7067 34.9242L41.8533 42.0705C42.048 42.2652 42.048 42.5825 41.8533 42.7778C41.7593 42.8718 41.6333 42.9238 41.5 42.9238Z" fill="#FDF9F9"/>
</g>
<path d="M54.366 40.9238H53.19V31.1238H54.366V40.9238ZM57.7107 40.9238H56.5487V30.4238H57.7107V37.1578L61.3227 33.5038H62.7227L60.0487 36.2058L63.1287 40.9238H61.7707L59.2507 37.0178L57.7107 38.5718V40.9238ZM65.3123 40.9238H64.1503V30.4238H65.3123V37.1578L68.9243 33.5038H70.3243L67.6503 36.2058L70.7303 40.9238H69.3723L66.8522 37.0178L65.3123 38.5718V40.9238ZM74.5893 41.0778C72.3913 41.0778 70.9353 39.4678 70.9353 37.2418C70.9353 34.7078 72.5733 33.3358 74.4493 33.3358C76.4933 33.3358 77.8093 34.7078 77.8513 37.0878V37.4098H72.0973C72.1673 38.9918 73.0913 40.0698 74.5893 40.0698C75.6253 40.0698 76.3813 39.5518 76.6893 38.5858H77.8233C77.4873 40.1118 76.2833 41.0778 74.5893 41.0778ZM72.1673 36.4438H76.6333C76.4233 35.1418 75.6393 34.3438 74.4493 34.3438C73.2733 34.3438 72.4053 35.1138 72.1673 36.4438ZM86.3323 41.0778C85.1143 41.0778 84.1203 40.4758 83.6163 39.5098L83.4903 40.9238H82.5663V30.4238H83.7283V34.6658C84.2743 33.8538 85.2123 33.3358 86.3323 33.3358C88.2923 33.3358 89.6643 34.9038 89.6643 37.1718C89.6643 39.4818 88.2923 41.0778 86.3323 41.0778ZM86.1503 40.0698C87.5223 40.0698 88.4603 38.8798 88.4603 37.1718C88.4603 35.5058 87.5223 34.3438 86.1363 34.3438C84.7363 34.3438 83.7283 35.4778 83.7283 37.1158C83.7283 38.8518 84.7363 40.0698 86.1503 40.0698ZM92.3542 40.9238H91.1922V33.5038H92.1162L92.2562 34.9178C92.7322 33.9658 93.6002 33.4618 94.8322 33.4618H95.0842V34.6098H94.8322C93.2642 34.6098 92.3542 35.5058 92.3542 37.0318V40.9238ZM99.1169 41.0778C97.3109 41.0778 96.2749 39.9718 96.2749 38.4598V33.5038H97.4369V38.4178C97.4369 39.4818 98.1789 40.0558 99.2289 40.0558C100.615 40.0558 101.371 39.1318 101.385 38.0118V33.5038H102.547V40.9238H101.623L101.525 39.8038C101.035 40.6438 100.139 41.0778 99.1169 41.0778ZM105.658 40.9238H104.496V30.4238H105.658V37.1578L109.27 33.5038H110.67L107.996 36.2058L111.076 40.9238H109.718L107.198 37.0178L105.658 38.5718V40.9238ZM117.188 40.9238H116.026V34.4838H114.654V33.5038H116.026V32.4678C116.026 31.1378 116.768 30.4238 118.14 30.4238H119.792V31.4038H118.14C117.524 31.4038 117.188 31.7818 117.188 32.4678V33.5038H119.596V34.4838H117.188V40.9238ZM123.89 41.0778C121.51 41.0778 120.25 39.3838 120.25 37.1438C120.25 34.6658 121.874 33.3358 123.89 33.3358C126.256 33.3358 127.53 35.0438 127.53 37.1438C127.53 39.7058 125.976 41.0778 123.89 41.0778ZM123.89 40.0698C125.472 40.0698 126.34 38.7538 126.34 37.1438C126.34 35.4778 125.374 34.3438 123.89 34.3438C122.406 34.3438 121.44 35.4778 121.44 37.1438C121.44 39.0478 122.546 40.0698 123.89 40.0698ZM130.212 40.9238H129.05V33.5038H129.974L130.114 34.9178C130.59 33.9658 131.458 33.4618 132.69 33.4618H132.942V34.6098H132.69C131.122 34.6098 130.212 35.5058 130.212 37.0318V40.9238ZM136.88 41.0778C135.116 41.0778 133.814 40.1538 133.716 38.5858H134.85C134.934 39.5518 135.816 40.0838 136.936 40.0838C137.986 40.0838 138.49 39.6778 138.49 38.9358C138.49 38.2358 137.944 38.0818 137.174 37.8158L136.096 37.4518C135.004 37.0878 133.912 36.7518 133.912 35.4078C133.912 34.1478 134.892 33.3358 136.516 33.3358C138.154 33.3358 139.288 34.2178 139.47 35.8698H138.336C138.21 34.8338 137.482 34.3298 136.474 34.3298C135.564 34.3298 135.032 34.7358 135.032 35.3798C135.032 36.1498 135.844 36.3038 136.46 36.5138L137.468 36.8498C138.826 37.2978 139.638 37.7598 139.638 38.9918C139.638 40.2938 138.686 41.0778 136.88 41.0778ZM142.271 40.9238H141.109V30.4238H142.271V37.1578L145.883 33.5038H147.283L144.609 36.2058L147.689 40.9238H146.331L143.811 37.0178L142.271 38.5718V40.9238ZM149.257 32.2578C148.753 32.2578 148.389 31.8938 148.389 31.3898C148.389 30.8998 148.753 30.5358 149.257 30.5358C149.747 30.5358 150.111 30.8998 150.111 31.3898C150.111 31.8938 149.747 32.2578 149.257 32.2578ZM147.619 43.7238H146.583V42.7438H147.619C148.305 42.7438 148.669 42.3518 148.669 41.6098V33.5038H149.831V41.6098C149.831 42.9818 149.061 43.7238 147.619 43.7238ZM155.007 41.0778C152.809 41.0778 151.353 39.4678 151.353 37.2418C151.353 34.7078 152.991 33.3358 154.867 33.3358C156.911 33.3358 158.227 34.7078 158.269 37.0878V37.4098H152.515C152.585 38.9918 153.509 40.0698 155.007 40.0698C156.043 40.0698 156.799 39.5518 157.107 38.5858H158.241C157.905 40.1118 156.701 41.0778 155.007 41.0778ZM152.585 36.4438H157.051C156.841 35.1418 156.057 34.3438 154.867 34.3438C153.691 34.3438 152.823 35.1138 152.585 36.4438ZM161.002 40.9238H159.84V30.4238H161.002V40.9238ZM164.146 40.9238H162.984V30.4238H164.146V40.9238ZM166.675 32.2578C166.185 32.2578 165.807 31.8798 165.807 31.3898C165.807 30.8998 166.185 30.5358 166.675 30.5358C167.165 30.5358 167.529 30.8998 167.529 31.3898C167.529 31.8798 167.165 32.2578 166.675 32.2578ZM167.249 40.9238H166.087V33.5038H167.249V40.9238ZM172.383 43.8918C170.381 43.8918 169.023 42.9258 169.023 41.3578H170.185C170.185 42.2398 171.081 42.9118 172.383 42.9118C173.909 42.9118 174.707 42.0018 174.707 40.7278V39.5238C174.189 40.2938 173.293 40.7978 172.159 40.7978C170.185 40.7978 168.771 39.2858 168.771 37.1018C168.771 34.8758 170.199 33.3358 172.159 33.3358C173.349 33.3358 174.315 33.8958 174.819 34.7918L174.945 33.5038H175.855V40.7278C175.855 42.6038 174.595 43.8918 172.383 43.8918ZM172.327 39.7898C173.727 39.7898 174.707 38.6698 174.707 37.0598C174.707 35.4638 173.727 34.3438 172.327 34.3438C170.941 34.3438 169.975 35.4638 169.975 37.0878C169.975 38.6838 170.941 39.7898 172.327 39.7898ZM184.547 40.9238H183.329L180.235 33.5038H181.495L183.945 39.5658L186.381 33.5038H187.641L184.547 40.9238ZM191.88 41.0778C189.682 41.0778 188.226 39.4678 188.226 37.2418C188.226 34.7078 189.864 33.3358 191.74 33.3358C193.784 33.3358 195.1 34.7078 195.142 37.0878V37.4098H189.388C189.458 38.9918 190.382 40.0698 191.88 40.0698C192.916 40.0698 193.672 39.5518 193.98 38.5858H195.114C194.778 40.1118 193.574 41.0778 191.88 41.0778ZM189.458 36.4438H193.924C193.714 35.1418 192.93 34.3438 191.74 34.3438C190.564 34.3438 189.696 35.1138 189.458 36.4438ZM197.875 40.9238H196.713V30.4238H197.875V37.1578L201.487 33.5038H202.887L200.213 36.2058L203.293 40.9238H201.935L199.415 37.0178L197.875 38.5718V40.9238ZM208.136 40.9238H207.31C205.868 40.9238 205.098 40.1818 205.098 38.8098V34.4838H203.726V33.5038H205.098V30.9698H206.26V33.5038H208.262V34.4838H206.26V38.8098C206.26 39.5518 206.624 39.9438 207.31 39.9438H208.136V40.9238ZM213.966 43.7238H212.804V33.5038H213.728L213.854 34.8478C214.386 33.9238 215.366 33.3358 216.57 33.3358C218.53 33.3358 219.902 34.9038 219.902 37.1718C219.902 39.4818 218.53 41.0778 216.57 41.0778C215.436 41.0778 214.498 40.5598 213.966 39.6918V43.7238ZM216.388 40.0698C217.76 40.0698 218.698 38.8798 218.698 37.1718C218.698 35.5058 217.76 34.3438 216.374 34.3438C214.974 34.3438 213.966 35.4778 213.966 37.1158C213.966 38.8518 214.974 40.0698 216.388 40.0698ZM224.371 32.7058C223.573 32.7058 222.971 32.1318 222.971 31.3758C222.971 30.6198 223.573 30.0458 224.371 30.0458C225.169 30.0458 225.771 30.6198 225.771 31.3758C225.771 32.1318 225.169 32.7058 224.371 32.7058ZM224.371 32.0058C224.735 32.0058 225.001 31.7398 225.001 31.3758C225.001 31.0118 224.735 30.7458 224.371 30.7458C224.007 30.7458 223.741 31.0118 223.741 31.3758C223.741 31.7398 224.007 32.0058 224.371 32.0058ZM223.825 41.0358C222.145 41.0358 221.067 40.1678 221.067 38.8098C221.067 37.1018 222.719 36.7798 224.203 36.6258C225.337 36.5138 226.317 36.5278 226.331 35.9258C226.317 34.9878 225.547 34.3298 224.427 34.3298C223.349 34.3298 222.509 34.9318 222.383 35.8138H221.235C221.375 34.3578 222.691 33.3358 224.455 33.3358C226.289 33.3358 227.465 34.4278 227.465 35.9958V39.6078C227.465 39.8458 227.591 39.9718 227.843 39.9718H228.263V40.9238H227.605C226.807 40.9238 226.387 40.5598 226.387 39.8738V39.6498C225.953 40.5038 225.113 41.0358 223.825 41.0358ZM223.993 40.0418C225.379 40.0418 226.331 39.1598 226.331 37.9278V36.9618C226.009 37.3958 225.183 37.4798 224.273 37.5778C223.251 37.6898 222.229 37.8298 222.229 38.7818C222.229 39.5518 222.929 40.0418 223.993 40.0418ZM233.298 32.2578C232.808 32.2578 232.43 31.8798 232.43 31.3898C232.43 30.8998 232.808 30.5358 233.298 30.5358C233.788 30.5358 234.152 30.8998 234.152 31.3898C234.152 31.8798 233.788 32.2578 233.298 32.2578ZM233.872 40.9238H232.71V33.5038H233.872V40.9238ZM236.976 40.9238H235.814V30.4238H236.976V37.1578L240.588 33.5038H241.988L239.314 36.2058L242.394 40.9238H241.036L238.516 37.0178L236.976 38.5718V40.9238ZM246.239 41.0778C243.859 41.0778 242.599 39.3838 242.599 37.1438C242.599 34.6658 244.223 33.3358 246.239 33.3358C248.605 33.3358 249.879 35.0438 249.879 37.1438C249.879 39.7058 248.325 41.0778 246.239 41.0778ZM246.239 40.0698C247.821 40.0698 248.689 38.7538 248.689 37.1438C248.689 35.4778 247.723 34.3438 246.239 34.3438C244.755 34.3438 243.789 35.4778 243.789 37.1438C243.789 39.0478 244.895 40.0698 246.239 40.0698ZM252.561 40.9238H251.399V33.5038H252.323L252.435 34.6378C252.939 33.8538 253.905 33.3358 255.011 33.3358C256.607 33.3358 257.671 34.3718 257.671 36.0098V40.9238H256.509V36.0518C256.509 35.0158 255.837 34.3578 254.717 34.3578C253.387 34.3578 252.575 35.2818 252.561 36.4158V40.9238ZM265.9 41.0778C263.52 41.0778 262.26 39.3838 262.26 37.1438C262.26 34.6658 263.884 33.3358 265.9 33.3358C268.266 33.3358 269.54 35.0438 269.54 37.1438C269.54 39.7058 267.986 41.0778 265.9 41.0778ZM265.9 40.0698C267.482 40.0698 268.35 38.7538 268.35 37.1438C268.35 35.4778 267.384 34.3438 265.9 34.3438C264.416 34.3438 263.45 35.4778 263.45 37.1438C263.45 39.0478 264.556 40.0698 265.9 40.0698ZM274.293 43.8918C272.291 43.8918 270.933 42.9258 270.933 41.3578H272.095C272.095 42.2398 272.991 42.9118 274.293 42.9118C275.819 42.9118 276.617 42.0018 276.617 40.7278V39.5238C276.099 40.2938 275.203 40.7978 274.069 40.7978C272.095 40.7978 270.681 39.2858 270.681 37.1018C270.681 34.8758 272.109 33.3358 274.069 33.3358C275.259 33.3358 276.225 33.8958 276.729 34.7918L276.855 33.5038H277.765V40.7278C277.765 42.6038 276.505 43.8918 274.293 43.8918ZM274.237 39.7898C275.637 39.7898 276.617 38.6698 276.617 37.0598C276.617 35.4638 275.637 34.3438 274.237 34.3438C272.851 34.3438 271.885 35.4638 271.885 37.0878C271.885 38.6838 272.851 39.7898 274.237 39.7898ZM286.681 40.9238H285.855C284.413 40.9238 283.643 40.1818 283.643 38.8098V34.4838H282.271V33.5038H283.643V30.9698H284.805V33.5038H286.807V34.4838H284.805V38.8098C284.805 39.5518 285.169 39.9438 285.855 39.9438H286.681V40.9238ZM291.275 41.0778C289.077 41.0778 287.621 39.4678 287.621 37.2418C287.621 34.7078 289.259 33.3358 291.135 33.3358C293.179 33.3358 294.495 34.7078 294.537 37.0878V37.4098H288.783C288.853 38.9918 289.777 40.0698 291.275 40.0698C292.311 40.0698 293.067 39.5518 293.375 38.5858H294.509C294.173 40.1118 292.969 41.0778 291.275 41.0778ZM288.853 36.4438H293.319C293.109 35.1418 292.325 34.3438 291.135 34.3438C289.959 34.3438 289.091 35.1138 288.853 36.4438ZM297.269 40.9238H296.107V30.4238H297.269V37.1578L300.881 33.5038H302.281L299.607 36.2058L302.687 40.9238H301.329L298.809 37.0178L297.269 38.5718V40.9238ZM306.412 41.0778C304.648 41.0778 303.346 40.1538 303.248 38.5858H304.382C304.466 39.5518 305.348 40.0838 306.468 40.0838C307.518 40.0838 308.022 39.6778 308.022 38.9358C308.022 38.2358 307.476 38.0818 306.706 37.8158L305.628 37.4518C304.535 37.0878 303.444 36.7518 303.444 35.4078C303.444 34.1478 304.424 33.3358 306.048 33.3358C307.686 33.3358 308.82 34.2178 309.002 35.8698H307.868C307.742 34.8338 307.014 34.3298 306.006 34.3298C305.096 34.3298 304.564 34.7358 304.564 35.3798C304.564 36.1498 305.376 36.3038 305.992 36.5138L307 36.8498C308.358 37.2978 309.17 37.7598 309.17 38.9918C309.17 40.2938 308.218 41.0778 306.412 41.0778ZM314.271 40.9238H313.445C312.003 40.9238 311.233 40.1818 311.233 38.8098V34.4838H309.861V33.5038H311.233V30.9698H312.395V33.5038H314.397V34.4838H312.395V38.8098C312.395 39.5518 312.759 39.9438 313.445 39.9438H314.271V40.9238ZM316.396 41.0638C315.892 41.0638 315.514 40.6858 315.514 40.1818C315.514 39.6918 315.892 39.3138 316.396 39.3138C316.9 39.3138 317.278 39.6918 317.278 40.1818C317.278 40.6858 316.9 41.0638 316.396 41.0638Z" fill="#481125"/>
<rect x="24.5" y="74.4238" width="313" height="117.319" rx="12.7123" fill="#FDF9F9"/>
<rect x="24.5" y="74.4238" width="313" height="117.319" rx="12.7123" stroke="#691837"/>
<path d="M67.6246 99.6686C67.6246 94.2867 71.9875 89.9238 77.3694 89.9238H284.631C290.012 89.9238 294.375 94.2867 294.375 99.6686V166.498C294.375 171.88 290.012 176.242 284.631 176.242H77.3694C71.9875 176.242 67.6246 171.88 67.6246 166.498V99.6686Z" fill="#F9EAED"/>
<path d="M103.365 142.367C98.3806 142.367 94.817 138.7 94.817 132.993C94.817 127.622 98.0966 123.723 103.597 123.723C108.194 123.723 111.37 126.512 112.119 130.953H109.872C109.201 127.648 106.902 125.711 103.597 125.711C99.5943 125.711 97.0894 128.474 97.0894 132.993C97.0894 137.564 99.646 140.379 103.365 140.379C106.748 140.379 108.891 138.081 108.891 134.801H102.796V132.942H109.149C111.034 132.942 112.041 133.897 112.041 135.653V142.083H110.105V135.911H110.053C109.717 139.888 107.367 142.367 103.365 142.367ZM120.928 126.925C119.456 126.925 118.346 125.866 118.346 124.471C118.346 123.077 119.456 122.018 120.928 122.018C122.4 122.018 123.511 123.077 123.511 124.471C123.511 125.866 122.4 126.925 120.928 126.925ZM120.928 125.634C121.6 125.634 122.09 125.143 122.09 124.471C122.09 123.8 121.6 123.309 120.928 123.309C120.257 123.309 119.766 123.8 119.766 124.471C119.766 125.143 120.257 125.634 120.928 125.634ZM119.921 142.29C116.822 142.29 114.834 140.689 114.834 138.184C114.834 135.033 117.881 134.439 120.618 134.155C122.71 133.949 124.518 133.975 124.543 132.864C124.518 131.134 123.097 129.92 121.031 129.92C119.043 129.92 117.494 131.031 117.261 132.658H115.144C115.402 129.972 117.829 128.087 121.083 128.087C124.466 128.087 126.635 130.101 126.635 132.993V139.656C126.635 140.095 126.868 140.327 127.332 140.327H128.107V142.083H126.893C125.421 142.083 124.647 141.412 124.647 140.146V139.733C123.846 141.309 122.297 142.29 119.921 142.29ZM120.231 140.456C122.787 140.456 124.543 138.829 124.543 136.557V134.775C123.95 135.576 122.426 135.731 120.747 135.911C118.862 136.118 116.977 136.376 116.977 138.132C116.977 139.553 118.268 140.456 120.231 140.456ZM143.025 142.083H140.778L135.071 128.397H137.395L141.914 139.578L146.407 128.397H148.732L143.025 142.083ZM152.097 126.098C151.194 126.098 150.496 125.401 150.496 124.497C150.496 123.593 151.194 122.922 152.097 122.922C153.001 122.922 153.673 123.593 153.673 124.497C153.673 125.401 153.001 126.098 152.097 126.098ZM153.156 142.083H151.013V128.397H153.156V142.083ZM162.188 142.367C158.521 142.367 155.964 139.423 155.964 135.163C155.964 130.979 158.495 128.087 162.162 128.087C164.228 128.087 165.958 128.991 166.94 130.437V122.715H169.083V142.083H167.379L167.146 139.449C166.242 141.231 164.435 142.367 162.188 142.367ZM162.524 140.508C165.132 140.508 166.94 138.287 166.94 135.111C166.94 132.038 165.184 129.92 162.653 129.92C160.019 129.92 158.185 132.064 158.185 135.163C158.185 138.313 159.967 140.508 162.524 140.508ZM178.718 142.367C174.664 142.367 171.978 139.398 171.978 135.292C171.978 130.618 175 128.087 178.46 128.087C182.23 128.087 184.658 130.618 184.735 135.008V135.602H174.122C174.251 138.52 175.955 140.508 178.718 140.508C180.629 140.508 182.024 139.553 182.592 137.771H184.683C184.064 140.585 181.843 142.367 178.718 142.367ZM174.251 133.82H182.488C182.101 131.418 180.655 129.946 178.46 129.946C176.291 129.946 174.69 131.366 174.251 133.82ZM189.698 142.083H187.554V128.397H189.259L189.517 131.005C190.395 129.249 191.996 128.319 194.268 128.319H194.733V130.437H194.268C191.376 130.437 189.698 132.089 189.698 134.904V142.083ZM202.6 142.367C198.546 142.367 195.86 139.398 195.86 135.292C195.86 130.618 198.881 128.087 202.342 128.087C206.112 128.087 208.539 130.618 208.617 135.008V135.602H198.003C198.133 138.52 199.837 140.508 202.6 140.508C204.511 140.508 205.905 139.553 206.474 137.771H208.565C207.946 140.585 205.725 142.367 202.6 142.367ZM198.133 133.82H206.37C205.983 131.418 204.537 129.946 202.342 129.946C200.173 129.946 198.572 131.366 198.133 133.82Z" fill="#481125"/>
<path d="M237.281 133.083H267.543M267.543 133.083L253.421 147.205M267.543 133.083L253.421 118.961" stroke="#481125" stroke-width="7.17325" stroke-linecap="round" stroke-linejoin="round"/>
<rect x="382.5" y="24.9238" width="20" height="20" rx="10" fill="#03834E"/>
<path d="M390.25 39.8405H389.917C389.5 39.7572 389.167 39.5072 389 39.1738L387 36.2572C386.833 36.0072 386.833 35.5905 387.167 35.4238C387.25 35.3405 387.417 35.3405 387.5 35.3405C387.667 35.3405 387.917 35.4238 388 35.5905L390.083 38.5072C390.167 38.5905 390.167 38.5905 390.25 38.5905H390.333C390.417 38.5905 390.417 38.5905 390.5 38.5072C390.5 38.5072 390.583 38.5072 390.583 38.4238L397.167 30.1738C397.25 30.0072 397.5 29.9238 397.667 29.9238C397.833 29.9238 397.917 30.0072 398.083 30.0905C398.25 30.1738 398.333 30.3405 398.333 30.5072C398.333 30.6738 398.333 30.8405 398.167 31.0072L391.667 39.2572L391.333 39.5905C390.833 39.7572 390.583 39.8405 390.25 39.8405Z" fill="#FDF9F9"/>
<path d="M416.296 40.9238H411.69V31.1238H416.184C417.892 31.1238 419.082 32.1318 419.082 33.5878C419.082 34.6378 418.34 35.5058 417.192 35.8698C418.466 36.1218 419.306 37.0458 419.306 38.2498C419.306 39.8318 418.074 40.9238 416.296 40.9238ZM412.852 32.2018V35.4078H416.114C417.164 35.4078 417.892 34.7078 417.892 33.7138C417.892 32.8178 417.234 32.2018 416.296 32.2018H412.852ZM412.852 36.4578V39.8458H416.422C417.402 39.8458 418.088 39.1458 418.088 38.1238C418.088 37.0318 417.234 36.4578 416.184 36.4578H412.852ZM422.143 40.9238H420.981V33.5038H421.905L422.045 34.9178C422.521 33.9658 423.389 33.4618 424.621 33.4618H424.873V34.6098H424.621C423.053 34.6098 422.143 35.5058 422.143 37.0318V40.9238ZM428.906 41.0778C427.1 41.0778 426.064 39.9718 426.064 38.4598V33.5038H427.226V38.4178C427.226 39.4818 427.968 40.0558 429.018 40.0558C430.404 40.0558 431.16 39.1318 431.174 38.0118V33.5038H432.336V40.9238H431.412L431.314 39.8038C430.824 40.6438 429.928 41.0778 428.906 41.0778ZM435.447 40.9238H434.285V30.4238H435.447V37.1578L439.059 33.5038H440.459L437.785 36.2058L440.865 40.9238H439.507L436.987 37.0178L435.447 38.5718V40.9238ZM447.761 41.0778C445.997 41.0778 444.695 40.1538 444.597 38.5858H445.731C445.815 39.5518 446.697 40.0838 447.817 40.0838C448.867 40.0838 449.371 39.6778 449.371 38.9358C449.371 38.2358 448.825 38.0818 448.055 37.8158L446.977 37.4518C445.885 37.0878 444.793 36.7518 444.793 35.4078C444.793 34.1478 445.773 33.3358 447.397 33.3358C449.035 33.3358 450.169 34.2178 450.351 35.8698H449.217C449.091 34.8338 448.363 34.3298 447.355 34.3298C446.445 34.3298 445.913 34.7358 445.913 35.3798C445.913 36.1498 446.725 36.3038 447.341 36.5138L448.349 36.8498C449.707 37.2978 450.519 37.7598 450.519 38.9918C450.519 40.2938 449.567 41.0778 447.761 41.0778ZM454.438 41.0358C452.758 41.0358 451.68 40.1678 451.68 38.8098C451.68 37.1018 453.332 36.7798 454.816 36.6258C455.95 36.5138 456.93 36.5278 456.944 35.9258C456.93 34.9878 456.16 34.3298 455.04 34.3298C453.962 34.3298 453.122 34.9318 452.996 35.8138H451.848C451.988 34.3578 453.304 33.3358 455.068 33.3358C456.902 33.3358 458.078 34.4278 458.078 35.9958V39.6078C458.078 39.8458 458.204 39.9718 458.456 39.9718H458.876V40.9238H458.218C457.42 40.9238 457 40.5598 457 39.8738V39.6498C456.566 40.5038 455.726 41.0358 454.438 41.0358ZM454.606 40.0418C455.992 40.0418 456.944 39.1598 456.944 37.9278V36.9618C456.622 37.3958 455.796 37.4798 454.886 37.5778C453.864 37.6898 452.842 37.8298 452.842 38.7818C452.842 39.5518 453.542 40.0418 454.606 40.0418ZM461.341 40.9238H460.179V33.5038H461.103L461.215 34.6518C461.719 33.8538 462.685 33.3358 463.749 33.3358C464.869 33.3358 465.709 33.9098 466.087 34.8058C466.563 33.9378 467.585 33.3358 468.719 33.3358C470.287 33.3358 471.295 34.4418 471.295 35.9538V40.9238H470.133V35.9958C470.133 35.0018 469.517 34.3578 468.523 34.3578C467.137 34.3578 466.325 35.2818 466.311 36.4158V40.9238H465.163V35.9958C465.163 35.0018 464.547 34.3578 463.553 34.3578C462.167 34.3578 461.355 35.2818 461.341 36.4158V40.9238ZM474.274 40.9238H473.112V33.5038H474.036L474.148 34.6518C474.652 33.8538 475.618 33.3358 476.682 33.3358C477.802 33.3358 478.642 33.9098 479.02 34.8058C479.496 33.9378 480.518 33.3358 481.652 33.3358C483.22 33.3358 484.228 34.4418 484.228 35.9538V40.9238H483.066V35.9958C483.066 35.0018 482.45 34.3578 481.456 34.3578C480.07 34.3578 479.258 35.2818 479.244 36.4158V40.9238H478.096V35.9958C478.096 35.0018 477.48 34.3578 476.486 34.3578C475.1 34.3578 474.288 35.2818 474.274 36.4158V40.9238ZM489.322 41.0778C487.124 41.0778 485.668 39.4678 485.668 37.2418C485.668 34.7078 487.306 33.3358 489.182 33.3358C491.226 33.3358 492.542 34.7078 492.584 37.0878V37.4098H486.83C486.9 38.9918 487.824 40.0698 489.322 40.0698C490.358 40.0698 491.114 39.5518 491.422 38.5858H492.556C492.22 40.1118 491.016 41.0778 489.322 41.0778ZM486.9 36.4438H491.366C491.156 35.1418 490.372 34.3438 489.182 34.3438C488.006 34.3438 487.138 35.1138 486.9 36.4438ZM500.897 40.9238H499.679L496.585 33.5038H497.845L500.295 39.5658L502.731 33.5038H503.991L500.897 40.9238ZM508.23 41.0778C506.032 41.0778 504.576 39.4678 504.576 37.2418C504.576 34.7078 506.214 33.3358 508.09 33.3358C510.134 33.3358 511.45 34.7078 511.492 37.0878V37.4098H505.738C505.808 38.9918 506.732 40.0698 508.23 40.0698C509.266 40.0698 510.022 39.5518 510.33 38.5858H511.464C511.128 40.1118 509.924 41.0778 508.23 41.0778ZM505.808 36.4438H510.274C510.064 35.1418 509.28 34.3438 508.09 34.3438C506.914 34.3438 506.046 35.1138 505.808 36.4438ZM514.224 40.9238H513.062V30.4238H514.224V37.1578L517.836 33.5038H519.236L516.562 36.2058L519.642 40.9238H518.284L515.764 37.0178L514.224 38.5718V40.9238ZM524.486 40.9238H523.66C522.218 40.9238 521.448 40.1818 521.448 38.8098V34.4838H520.076V33.5038H521.448V30.9698H522.61V33.5038H524.612V34.4838H522.61V38.8098C522.61 39.5518 522.974 39.9438 523.66 39.9438H524.486V40.9238ZM526.569 32.2578C526.079 32.2578 525.701 31.8798 525.701 31.3898C525.701 30.8998 526.079 30.5358 526.569 30.5358C527.059 30.5358 527.423 30.8998 527.423 31.3898C527.423 31.8798 527.059 32.2578 526.569 32.2578ZM527.143 40.9238H525.981V33.5038H527.143V40.9238ZM530.206 40.9238H529.044V33.5038H529.968L530.08 34.6378C530.584 33.8538 531.55 33.3358 532.656 33.3358C534.252 33.3358 535.316 34.3718 535.316 36.0098V40.9238H534.154V36.0518C534.154 35.0158 533.482 34.3578 532.362 34.3578C531.032 34.3578 530.22 35.2818 530.206 36.4158V40.9238ZM540.372 43.8918C538.37 43.8918 537.012 42.9258 537.012 41.3578H538.174C538.174 42.2398 539.07 42.9118 540.372 42.9118C541.898 42.9118 542.696 42.0018 542.696 40.7278V39.5238C542.178 40.2938 541.282 40.7978 540.148 40.7978C538.174 40.7978 536.76 39.2858 536.76 37.1018C536.76 34.8758 538.188 33.3358 540.148 33.3358C541.338 33.3358 542.304 33.8958 542.808 34.7918L542.934 33.5038H543.844V40.7278C543.844 42.6038 542.584 43.8918 540.372 43.8918ZM540.316 39.7898C541.716 39.7898 542.696 38.6698 542.696 37.0598C542.696 35.4638 541.716 34.3438 540.316 34.3438C538.93 34.3438 537.964 35.4638 537.964 37.0878C537.964 38.6838 538.93 39.7898 540.316 39.7898ZM550.085 43.7238H548.923V33.5038H549.847L549.973 34.8478C550.505 33.9238 551.485 33.3358 552.689 33.3358C554.649 33.3358 556.021 34.9038 556.021 37.1718C556.021 39.4818 554.649 41.0778 552.689 41.0778C551.555 41.0778 550.617 40.5598 550.085 39.6918V43.7238ZM552.507 40.0698C553.879 40.0698 554.817 38.8798 554.817 37.1718C554.817 35.5058 553.879 34.3438 552.493 34.3438C551.093 34.3438 550.085 35.4778 550.085 37.1158C550.085 38.8518 551.093 40.0698 552.507 40.0698ZM560.49 32.7058C559.692 32.7058 559.09 32.1318 559.09 31.3758C559.09 30.6198 559.692 30.0458 560.49 30.0458C561.288 30.0458 561.89 30.6198 561.89 31.3758C561.89 32.1318 561.288 32.7058 560.49 32.7058ZM560.49 32.0058C560.854 32.0058 561.12 31.7398 561.12 31.3758C561.12 31.0118 560.854 30.7458 560.49 30.7458C560.126 30.7458 559.86 31.0118 559.86 31.3758C559.86 31.7398 560.126 32.0058 560.49 32.0058ZM559.944 41.0358C558.264 41.0358 557.186 40.1678 557.186 38.8098C557.186 37.1018 558.838 36.7798 560.322 36.6258C561.456 36.5138 562.436 36.5278 562.45 35.9258C562.436 34.9878 561.666 34.3298 560.546 34.3298C559.468 34.3298 558.628 34.9318 558.502 35.8138H557.354C557.494 34.3578 558.81 33.3358 560.574 33.3358C562.408 33.3358 563.584 34.4278 563.584 35.9958V39.6078C563.584 39.8458 563.71 39.9718 563.962 39.9718H564.382V40.9238H563.724C562.926 40.9238 562.506 40.5598 562.506 39.8738V39.6498C562.072 40.5038 561.232 41.0358 559.944 41.0358ZM560.112 40.0418C561.498 40.0418 562.45 39.1598 562.45 37.9278V36.9618C562.128 37.3958 561.302 37.4798 560.392 37.5778C559.37 37.6898 558.348 37.8298 558.348 38.7818C558.348 39.5518 559.048 40.0418 560.112 40.0418ZM569.417 32.2578C568.927 32.2578 568.549 31.8798 568.549 31.3898C568.549 30.8998 568.927 30.5358 569.417 30.5358C569.907 30.5358 570.271 30.8998 570.271 31.3898C570.271 31.8798 569.907 32.2578 569.417 32.2578ZM569.991 40.9238H568.829V33.5038H569.991V40.9238ZM573.095 40.9238H571.933V30.4238H573.095V37.1578L576.707 33.5038H578.107L575.433 36.2058L578.513 40.9238H577.155L574.635 37.0178L573.095 38.5718V40.9238ZM582.359 41.0778C579.979 41.0778 578.719 39.3838 578.719 37.1438C578.719 34.6658 580.343 33.3358 582.359 33.3358C584.725 33.3358 585.999 35.0438 585.999 37.1438C585.999 39.7058 584.445 41.0778 582.359 41.0778ZM582.359 40.0698C583.941 40.0698 584.809 38.7538 584.809 37.1438C584.809 35.4778 583.843 34.3438 582.359 34.3438C580.875 34.3438 579.909 35.4778 579.909 37.1438C579.909 39.0478 581.015 40.0698 582.359 40.0698ZM588.68 40.9238H587.518V33.5038H588.442L588.554 34.6378C589.058 33.8538 590.024 33.3358 591.13 33.3358C592.726 33.3358 593.79 34.3718 593.79 36.0098V40.9238H592.628V36.0518C592.628 35.0158 591.956 34.3578 590.836 34.3578C589.506 34.3578 588.694 35.2818 588.68 36.4158V40.9238ZM602.019 41.0778C599.639 41.0778 598.379 39.3838 598.379 37.1438C598.379 34.6658 600.003 33.3358 602.019 33.3358C604.385 33.3358 605.659 35.0438 605.659 37.1438C605.659 39.7058 604.105 41.0778 602.019 41.0778ZM602.019 40.0698C603.601 40.0698 604.469 38.7538 604.469 37.1438C604.469 35.4778 603.503 34.3438 602.019 34.3438C600.535 34.3438 599.569 35.4778 599.569 37.1438C599.569 39.0478 600.675 40.0698 602.019 40.0698ZM610.413 43.8918C608.411 43.8918 607.053 42.9258 607.053 41.3578H608.215C608.215 42.2398 609.111 42.9118 610.413 42.9118C611.939 42.9118 612.737 42.0018 612.737 40.7278V39.5238C612.219 40.2938 611.323 40.7978 610.189 40.7978C608.215 40.7978 606.801 39.2858 606.801 37.1018C606.801 34.8758 608.229 33.3358 610.189 33.3358C611.379 33.3358 612.345 33.8958 612.849 34.7918L612.975 33.5038H613.885V40.7278C613.885 42.6038 612.625 43.8918 610.413 43.8918ZM610.357 39.7898C611.757 39.7898 612.737 38.6698 612.737 37.0598C612.737 35.4638 611.757 34.3438 610.357 34.3438C608.971 34.3438 608.005 35.4638 608.005 37.0878C608.005 38.6838 608.971 39.7898 610.357 39.7898ZM622.8 40.9238H621.974C620.532 40.9238 619.762 40.1818 619.762 38.8098V34.4838H618.39V33.5038H619.762V30.9698H620.924V33.5038H622.926V34.4838H620.924V38.8098C620.924 39.5518 621.288 39.9438 621.974 39.9438H622.8V40.9238ZM627.394 41.0778C625.196 41.0778 623.74 39.4678 623.74 37.2418C623.74 34.7078 625.378 33.3358 627.254 33.3358C629.298 33.3358 630.614 34.7078 630.656 37.0878V37.4098H624.902C624.972 38.9918 625.896 40.0698 627.394 40.0698C628.43 40.0698 629.186 39.5518 629.494 38.5858H630.628C630.292 40.1118 629.088 41.0778 627.394 41.0778ZM624.972 36.4438H629.438C629.228 35.1418 628.444 34.3438 627.254 34.3438C626.078 34.3438 625.21 35.1138 624.972 36.4438ZM633.388 40.9238H632.226V30.4238H633.388V37.1578L637 33.5038H638.4L635.726 36.2058L638.806 40.9238H637.448L634.928 37.0178L633.388 38.5718V40.9238ZM642.531 41.0778C640.767 41.0778 639.465 40.1538 639.367 38.5858H640.501C640.585 39.5518 641.467 40.0838 642.587 40.0838C643.637 40.0838 644.141 39.6778 644.141 38.9358C644.141 38.2358 643.595 38.0818 642.825 37.8158L641.747 37.4518C640.655 37.0878 639.563 36.7518 639.563 35.4078C639.563 34.1478 640.543 33.3358 642.167 33.3358C643.805 33.3358 644.939 34.2178 645.121 35.8698H643.987C643.861 34.8338 643.133 34.3298 642.125 34.3298C641.215 34.3298 640.683 34.7358 640.683 35.3798C640.683 36.1498 641.495 36.3038 642.111 36.5138L643.119 36.8498C644.477 37.2978 645.289 37.7598 645.289 38.9918C645.289 40.2938 644.337 41.0778 642.531 41.0778ZM650.39 40.9238H649.564C648.122 40.9238 647.352 40.1818 647.352 38.8098V34.4838H645.98V33.5038H647.352V30.9698H648.514V33.5038H650.516V34.4838H648.514V38.8098C648.514 39.5518 648.878 39.9438 649.564 39.9438H650.39V40.9238ZM652.516 41.0638C652.012 41.0638 651.634 40.6858 651.634 40.1818C651.634 39.6918 652.012 39.3138 652.516 39.3138C653.02 39.3138 653.398 39.6918 653.398 40.1818C653.398 40.6858 653.02 41.0638 652.516 41.0638Z" fill="#481125"/>
<rect x="383" y="74.4238" width="313" height="117.319" rx="12.7123" fill="#FDF9F9"/>
<rect x="383" y="74.4238" width="313" height="117.319" rx="12.7123" stroke="#691837"/>
<path d="M426.125 99.6686C426.125 94.2867 430.488 89.9238 435.869 89.9238H643.131C648.512 89.9238 652.875 94.2867 652.875 99.6686V166.498C652.875 171.88 648.512 176.242 643.131 176.242H435.869C430.488 176.242 426.125 171.88 426.125 166.498V99.6686Z" fill="#F9EAED"/>
<path d="M461.865 142.367C456.881 142.367 453.317 138.7 453.317 132.993C453.317 127.622 456.597 123.723 462.097 123.723C466.694 123.723 469.87 126.512 470.619 130.953H468.372C467.701 127.648 465.402 125.711 462.097 125.711C458.094 125.711 455.589 128.474 455.589 132.993C455.589 137.564 458.146 140.379 461.865 140.379C465.248 140.379 467.391 138.081 467.391 134.801H461.296V132.942H467.649C469.534 132.942 470.541 133.897 470.541 135.653V142.083H468.605V135.911H468.553C468.217 139.888 465.867 142.367 461.865 142.367ZM479.428 126.925C477.956 126.925 476.846 125.866 476.846 124.471C476.846 123.077 477.956 122.018 479.428 122.018C480.9 122.018 482.011 123.077 482.011 124.471C482.011 125.866 480.9 126.925 479.428 126.925ZM479.428 125.634C480.1 125.634 480.59 125.143 480.59 124.471C480.59 123.8 480.1 123.309 479.428 123.309C478.757 123.309 478.266 123.8 478.266 124.471C478.266 125.143 478.757 125.634 479.428 125.634ZM478.421 142.29C475.322 142.29 473.334 140.689 473.334 138.184C473.334 135.033 476.381 134.439 479.118 134.155C481.21 133.949 483.018 133.975 483.043 132.864C483.018 131.134 481.597 129.92 479.531 129.92C477.543 129.92 475.994 131.031 475.761 132.658H473.644C473.902 129.972 476.329 128.087 479.583 128.087C482.966 128.087 485.135 130.101 485.135 132.993V139.656C485.135 140.095 485.368 140.327 485.832 140.327H486.607V142.083H485.393C483.921 142.083 483.147 141.412 483.147 140.146V139.733C482.346 141.309 480.797 142.29 478.421 142.29ZM478.731 140.456C481.287 140.456 483.043 138.829 483.043 136.557V134.775C482.45 135.576 480.926 135.731 479.247 135.911C477.362 136.118 475.477 136.376 475.477 138.132C475.477 139.553 476.768 140.456 478.731 140.456ZM501.525 142.083H499.278L493.571 128.397H495.895L500.414 139.578L504.907 128.397H507.232L501.525 142.083ZM510.597 126.098C509.694 126.098 508.996 125.401 508.996 124.497C508.996 123.593 509.694 122.922 510.597 122.922C511.501 122.922 512.173 123.593 512.173 124.497C512.173 125.401 511.501 126.098 510.597 126.098ZM511.656 142.083H509.513V128.397H511.656V142.083ZM520.688 142.367C517.021 142.367 514.464 139.423 514.464 135.163C514.464 130.979 516.995 128.087 520.662 128.087C522.728 128.087 524.458 128.991 525.44 130.437V122.715H527.583V142.083H525.879L525.646 139.449C524.742 141.231 522.935 142.367 520.688 142.367ZM521.024 140.508C523.632 140.508 525.44 138.287 525.44 135.111C525.44 132.038 523.684 129.92 521.153 129.92C518.519 129.92 516.685 132.064 516.685 135.163C516.685 138.313 518.467 140.508 521.024 140.508ZM537.218 142.367C533.164 142.367 530.478 139.398 530.478 135.292C530.478 130.618 533.5 128.087 536.96 128.087C540.73 128.087 543.158 130.618 543.235 135.008V135.602H532.622C532.751 138.52 534.455 140.508 537.218 140.508C539.129 140.508 540.524 139.553 541.092 137.771H543.183C542.564 140.585 540.343 142.367 537.218 142.367ZM532.751 133.82H540.988C540.601 131.418 539.155 129.946 536.96 129.946C534.791 129.946 533.19 131.366 532.751 133.82ZM548.198 142.083H546.054V128.397H547.759L548.017 131.005C548.895 129.249 550.496 128.319 552.768 128.319H553.233V130.437H552.768C549.876 130.437 548.198 132.089 548.198 134.904V142.083ZM561.1 142.367C557.046 142.367 554.36 139.398 554.36 135.292C554.36 130.618 557.381 128.087 560.842 128.087C564.612 128.087 567.039 130.618 567.117 135.008V135.602H556.503C556.633 138.52 558.337 140.508 561.1 140.508C563.011 140.508 564.405 139.553 564.974 137.771H567.065C566.446 140.585 564.225 142.367 561.1 142.367ZM556.633 133.82H564.87C564.483 131.418 563.037 129.946 560.842 129.946C558.673 129.946 557.072 131.366 556.633 133.82Z" fill="#481125"/>
<g clip-path="url(#clip1_826_79931)">
<path d="M595.781 133.083H626.043M626.043 133.083L611.921 147.205M626.043 133.083L611.921 118.961" stroke="#481125" stroke-width="2.42097" stroke-linecap="round" stroke-linejoin="round"/>
</g>
<defs>
<clipPath id="clip0_826_79931">
<rect width="8" height="8" fill="white" transform="translate(30 30.9238)"/>
</clipPath>
<clipPath id="clip1_826_79931">
<rect width="32.2796" height="32.2796" fill="white" transform="translate(594.772 116.943)"/>
</clipPath>
</defs>
</svg>
