<svg width="733" height="241" viewBox="0 0 733 241" fill="none" xmlns="http://www.w3.org/2000/svg">
<rect y="0.242432" width="733" height="240.319" rx="24" fill="white"/>
<rect x="24" y="24.2424" width="20" height="20" rx="10" fill="#CE3871"/>
<g clip-path="url(#clip0_826_79948)">
<path d="M41.5 42.2424C41.3667 42.2424 41.2407 42.1904 41.1467 42.0958L34 34.9501L26.8533 42.0958C26.7587 42.1904 26.6333 42.2424 26.5 42.2424C26.3667 42.2424 26.2407 42.1904 26.1467 42.0958C25.952 41.9011 25.952 41.5838 26.1467 41.3885L33.2933 34.2421L26.1467 27.0964C26.052 27.0024 26 26.8764 26 26.7431C26 26.6097 26.052 26.4838 26.1467 26.3898C26.2407 26.2951 26.3667 26.2431 26.5 26.2431C26.6333 26.2431 26.7593 26.2951 26.8533 26.3898L34 33.5355L41.1467 26.3891C41.2413 26.2944 41.3667 26.2424 41.5 26.2424C41.6333 26.2424 41.7593 26.2944 41.8533 26.3891C41.948 26.4838 42 26.6097 42 26.7431C42 26.8764 41.948 27.0024 41.8533 27.0964L34.7067 34.2428L41.8533 41.3891C42.048 41.5838 42.048 41.9011 41.8533 42.0964C41.7593 42.1904 41.6333 42.2424 41.5 42.2424Z" fill="#FDF9F9"/>
</g>
<path d="M54.366 40.2424H53.19V30.4424H54.366V40.2424ZM57.7107 40.2424H56.5487V29.7424H57.7107V36.4764L61.3227 32.8224H62.7227L60.0487 35.5244L63.1287 40.2424H61.7707L59.2507 36.3364L57.7107 37.8904V40.2424ZM65.3123 40.2424H64.1503V29.7424H65.3123V36.4764L68.9243 32.8224H70.3243L67.6503 35.5244L70.7303 40.2424H69.3723L66.8522 36.3364L65.3123 37.8904V40.2424ZM74.5893 40.3964C72.3913 40.3964 70.9353 38.7864 70.9353 36.5604C70.9353 34.0264 72.5733 32.6544 74.4493 32.6544C76.4933 32.6544 77.8093 34.0264 77.8513 36.4064V36.7284H72.0973C72.1673 38.3104 73.0913 39.3884 74.5893 39.3884C75.6253 39.3884 76.3813 38.8704 76.6893 37.9044H77.8233C77.4873 39.4304 76.2833 40.3964 74.5893 40.3964ZM72.1673 35.7624H76.6333C76.4233 34.4604 75.6393 33.6624 74.4493 33.6624C73.2733 33.6624 72.4053 34.4324 72.1673 35.7624ZM83.7283 40.2424H82.5663V29.7424H83.7283V40.2424ZM88.0628 40.3544C86.3828 40.3544 85.3048 39.4864 85.3048 38.1284C85.3048 36.4204 86.9568 36.0984 88.4408 35.9444C89.5748 35.8324 90.5548 35.8464 90.5688 35.2444C90.5548 34.3064 89.7848 33.6484 88.6648 33.6484C87.5868 33.6484 86.7468 34.2504 86.6208 35.1324H85.4728C85.6128 33.6764 86.9288 32.6544 88.6928 32.6544C90.5268 32.6544 91.7028 33.7464 91.7028 35.3144V38.9264C91.7028 39.1644 91.8288 39.2904 92.0808 39.2904H92.5008V40.2424H91.8428C91.0448 40.2424 90.6248 39.8784 90.6248 39.1924V38.9684C90.1908 39.8224 89.3508 40.3544 88.0628 40.3544ZM88.2308 39.3604C89.6168 39.3604 90.5688 38.4784 90.5688 37.2464V36.2804C90.2468 36.7144 89.4208 36.7984 88.5108 36.8964C87.4888 37.0084 86.4668 37.1484 86.4668 38.1004C86.4668 38.8704 87.1668 39.3604 88.2308 39.3604ZM100.812 40.2424H99.9861C98.5441 40.2424 97.7741 39.5004 97.7741 38.1284V33.8024H96.4021V32.8224H97.7741V30.2884H98.9361V32.8224H100.938V33.8024H98.9361V38.1284C98.9361 38.8704 99.3001 39.2624 99.9861 39.2624H100.812V40.2424ZM105.406 40.3964C103.208 40.3964 101.752 38.7864 101.752 36.5604C101.752 34.0264 103.39 32.6544 105.266 32.6544C107.31 32.6544 108.626 34.0264 108.668 36.4064V36.7284H102.914C102.984 38.3104 103.908 39.3884 105.406 39.3884C106.442 39.3884 107.198 38.8704 107.506 37.9044H108.64C108.304 39.4304 107.1 40.3964 105.406 40.3964ZM102.984 35.7624H107.45C107.24 34.4604 106.456 33.6624 105.266 33.6624C104.09 33.6624 103.222 34.4324 102.984 35.7624ZM111.4 40.2424H110.238V29.7424H111.4V36.4764L115.012 32.8224H116.412L113.738 35.5244L116.818 40.2424H115.46L112.94 36.3364L111.4 37.8904V40.2424ZM120.542 40.3964C118.778 40.3964 117.476 39.4724 117.378 37.9044H118.512C118.596 38.8704 119.478 39.4024 120.598 39.4024C121.648 39.4024 122.152 38.9964 122.152 38.2544C122.152 37.5544 121.606 37.4004 120.836 37.1344L119.758 36.7704C118.666 36.4064 117.574 36.0704 117.574 34.7264C117.574 33.4664 118.554 32.6544 120.178 32.6544C121.816 32.6544 122.95 33.5364 123.132 35.1884H121.998C121.872 34.1524 121.144 33.6484 120.136 33.6484C119.226 33.6484 118.694 34.0544 118.694 34.6984C118.694 35.4684 119.506 35.6224 120.122 35.8324L121.13 36.1684C122.488 36.6164 123.3 37.0784 123.3 38.3104C123.3 39.6124 122.348 40.3964 120.542 40.3964ZM128.402 40.2424H127.576C126.134 40.2424 125.364 39.5004 125.364 38.1284V33.8024H123.992V32.8224H125.364V30.2884H126.526V32.8224H128.528V33.8024H126.526V38.1284C126.526 38.8704 126.89 39.2624 127.576 39.2624H128.402V40.2424ZM136.304 40.3964C133.924 40.3964 132.664 38.7024 132.664 36.4624C132.664 33.9844 134.288 32.6544 136.304 32.6544C138.67 32.6544 139.944 34.3624 139.944 36.4624C139.944 39.0244 138.39 40.3964 136.304 40.3964ZM136.304 39.3884C137.886 39.3884 138.754 38.0724 138.754 36.4624C138.754 34.7964 137.788 33.6624 136.304 33.6624C134.82 33.6624 133.854 34.7964 133.854 36.4624C133.854 38.3664 134.96 39.3884 136.304 39.3884ZM144.698 43.2104C142.696 43.2104 141.338 42.2444 141.338 40.6764H142.5C142.5 41.5584 143.396 42.2304 144.698 42.2304C146.224 42.2304 147.022 41.3204 147.022 40.0464V38.8424C146.504 39.6124 145.608 40.1164 144.474 40.1164C142.5 40.1164 141.086 38.6044 141.086 36.4204C141.086 34.1944 142.514 32.6544 144.474 32.6544C145.664 32.6544 146.63 33.2144 147.134 34.1104L147.26 32.8224H148.17V40.0464C148.17 41.9224 146.91 43.2104 144.698 43.2104ZM144.642 39.1084C146.042 39.1084 147.022 37.9884 147.022 36.3784C147.022 34.7824 146.042 33.6624 144.642 33.6624C143.256 33.6624 142.29 34.7824 142.29 36.4064C142.29 38.0024 143.256 39.1084 144.642 39.1084ZM153.81 31.5764C153.32 31.5764 152.942 31.1984 152.942 30.7084C152.942 30.2184 153.32 29.8544 153.81 29.8544C154.3 29.8544 154.664 30.2184 154.664 30.7084C154.664 31.1984 154.3 31.5764 153.81 31.5764ZM154.384 40.2424H153.222V32.8224H154.384V40.2424ZM157.488 40.2424H156.326V29.7424H157.488V36.4764L161.1 32.8224H162.5L159.826 35.5244L162.906 40.2424H161.548L159.028 36.3364L157.488 37.8904V40.2424ZM166.751 40.3964C164.371 40.3964 163.111 38.7024 163.111 36.4624C163.111 33.9844 164.735 32.6544 166.751 32.6544C169.117 32.6544 170.391 34.3624 170.391 36.4624C170.391 39.0244 168.837 40.3964 166.751 40.3964ZM166.751 39.3884C168.333 39.3884 169.201 38.0724 169.201 36.4624C169.201 34.7964 168.235 33.6624 166.751 33.6624C165.267 33.6624 164.301 34.7964 164.301 36.4624C164.301 38.3664 165.407 39.3884 166.751 39.3884ZM173.073 40.2424H171.911V32.8224H172.835L172.947 33.9564C173.451 33.1724 174.417 32.6544 175.523 32.6544C177.119 32.6544 178.183 33.6904 178.183 35.3284V40.2424H177.021V35.3704C177.021 34.3344 176.349 33.6764 175.229 33.6764C173.899 33.6764 173.087 34.6004 173.073 35.7344V40.2424ZM184.353 40.2424H183.191V29.7424H184.353V33.7744C184.885 33.1024 185.795 32.6544 186.803 32.6544C188.399 32.6544 189.463 33.6904 189.463 35.3284V40.2424H188.301V35.3704C188.301 34.3344 187.629 33.6764 186.579 33.6764C185.179 33.6764 184.367 34.6004 184.353 35.7344V40.2424ZM193.678 40.3544C191.998 40.3544 190.92 39.4864 190.92 38.1284C190.92 36.4204 192.572 36.0984 194.056 35.9444C195.19 35.8324 196.17 35.8464 196.184 35.2444C196.17 34.3064 195.4 33.6484 194.28 33.6484C193.202 33.6484 192.362 34.2504 192.236 35.1324H191.088C191.228 33.6764 192.544 32.6544 194.308 32.6544C196.142 32.6544 197.318 33.7464 197.318 35.3144V38.9264C197.318 39.1644 197.444 39.2904 197.696 39.2904H198.116V40.2424H197.458C196.66 40.2424 196.24 39.8784 196.24 39.1924V38.9684C195.806 39.8224 194.966 40.3544 193.678 40.3544ZM193.846 39.3604C195.232 39.3604 196.184 38.4784 196.184 37.2464V36.2804C195.862 36.7144 195.036 36.7984 194.126 36.8964C193.104 37.0084 192.082 37.1484 192.082 38.1004C192.082 38.8704 192.782 39.3604 193.846 39.3604ZM205.335 40.3964C203.571 40.3964 202.269 39.4724 202.171 37.9044H203.305C203.389 38.8704 204.271 39.4024 205.391 39.4024C206.441 39.4024 206.945 38.9964 206.945 38.2544C206.945 37.5544 206.399 37.4004 205.629 37.1344L204.551 36.7704C203.459 36.4064 202.367 36.0704 202.367 34.7264C202.367 33.4664 203.347 32.6544 204.971 32.6544C206.609 32.6544 207.743 33.5364 207.925 35.1884H206.791C206.665 34.1524 205.937 33.6484 204.929 33.6484C204.019 33.6484 203.487 34.0544 203.487 34.6984C203.487 35.4684 204.299 35.6224 204.915 35.8324L205.923 36.1684C207.281 36.6164 208.093 37.0784 208.093 38.3104C208.093 39.6124 207.141 40.3964 205.335 40.3964ZM212.012 40.3544C210.332 40.3544 209.254 39.4864 209.254 38.1284C209.254 36.4204 210.906 36.0984 212.39 35.9444C213.524 35.8324 214.504 35.8464 214.518 35.2444C214.504 34.3064 213.734 33.6484 212.614 33.6484C211.536 33.6484 210.696 34.2504 210.57 35.1324H209.422C209.562 33.6764 210.878 32.6544 212.642 32.6544C214.476 32.6544 215.652 33.7464 215.652 35.3144V38.9264C215.652 39.1644 215.778 39.2904 216.03 39.2904H216.45V40.2424H215.792C214.994 40.2424 214.574 39.8784 214.574 39.1924V38.9684C214.14 39.8224 213.3 40.3544 212.012 40.3544ZM212.18 39.3604C213.566 39.3604 214.518 38.4784 214.518 37.2464V36.2804C214.196 36.7144 213.37 36.7984 212.46 36.8964C211.438 37.0084 210.416 37.1484 210.416 38.1004C210.416 38.8704 211.116 39.3604 212.18 39.3604ZM218.915 40.2424H217.753V32.8224H218.677L218.789 33.9704C219.293 33.1724 220.259 32.6544 221.323 32.6544C222.443 32.6544 223.283 33.2284 223.661 34.1244C224.137 33.2564 225.159 32.6544 226.293 32.6544C227.861 32.6544 228.869 33.7604 228.869 35.2724V40.2424H227.707V35.3144C227.707 34.3204 227.091 33.6764 226.097 33.6764C224.711 33.6764 223.899 34.6004 223.885 35.7344V40.2424H222.737V35.3144C222.737 34.3204 222.121 33.6764 221.127 33.6764C219.741 33.6764 218.929 34.6004 218.915 35.7344V40.2424ZM231.848 40.2424H230.686V32.8224H231.61L231.722 33.9704C232.226 33.1724 233.192 32.6544 234.256 32.6544C235.376 32.6544 236.216 33.2284 236.594 34.1244C237.07 33.2564 238.092 32.6544 239.226 32.6544C240.794 32.6544 241.802 33.7604 241.802 35.2724V40.2424H240.64V35.3144C240.64 34.3204 240.024 33.6764 239.03 33.6764C237.644 33.6764 236.832 34.6004 236.818 35.7344V40.2424H235.67V35.3144C235.67 34.3204 235.054 33.6764 234.06 33.6764C232.674 33.6764 231.862 34.6004 231.848 35.7344V40.2424ZM246.896 40.3964C244.698 40.3964 243.242 38.7864 243.242 36.5604C243.242 34.0264 244.88 32.6544 246.756 32.6544C248.8 32.6544 250.116 34.0264 250.158 36.4064V36.7284H244.404C244.474 38.3104 245.398 39.3884 246.896 39.3884C247.932 39.3884 248.688 38.8704 248.996 37.9044H250.13C249.794 39.4304 248.59 40.3964 246.896 40.3964ZM244.474 35.7624H248.94C248.73 34.4604 247.946 33.6624 246.756 33.6624C245.58 33.6624 244.712 34.4324 244.474 35.7624ZM258.695 40.2424H257.869C256.427 40.2424 255.657 39.5004 255.657 38.1284V33.8024H254.285V32.8224H255.657V30.2884H256.819V32.8224H258.821V33.8024H256.819V38.1284C256.819 38.8704 257.183 39.2624 257.869 39.2624H258.695V40.2424ZM263.275 40.3964C260.895 40.3964 259.635 38.7024 259.635 36.4624C259.635 33.9844 261.259 32.6544 263.275 32.6544C265.641 32.6544 266.915 34.3624 266.915 36.4624C266.915 39.0244 265.361 40.3964 263.275 40.3964ZM263.275 39.3884C264.857 39.3884 265.725 38.0724 265.725 36.4624C265.725 34.7964 264.759 33.6624 263.275 33.6624C261.791 33.6624 260.825 34.7964 260.825 36.4624C260.825 38.3664 261.931 39.3884 263.275 39.3884ZM269.624 43.0424H268.462V32.8224H269.386L269.512 34.1664C270.044 33.2424 271.024 32.6544 272.228 32.6544C274.188 32.6544 275.56 34.2224 275.56 36.4904C275.56 38.8004 274.188 40.3964 272.228 40.3964C271.094 40.3964 270.156 39.8784 269.624 39.0104V43.0424ZM272.046 39.3884C273.418 39.3884 274.356 38.1984 274.356 36.4904C274.356 34.8244 273.418 33.6624 272.032 33.6624C270.632 33.6624 269.624 34.7964 269.624 36.4344C269.624 38.1704 270.632 39.3884 272.046 39.3884ZM278.279 43.0424H277.117V32.8224H278.041L278.167 34.1664C278.699 33.2424 279.679 32.6544 280.883 32.6544C282.843 32.6544 284.215 34.2224 284.215 36.4904C284.215 38.8004 282.843 40.3964 280.883 40.3964C279.749 40.3964 278.811 39.8784 278.279 39.0104V43.0424ZM280.701 39.3884C282.073 39.3884 283.011 38.1984 283.011 36.4904C283.011 34.8244 282.073 33.6624 280.687 33.6624C279.287 33.6624 278.279 34.7964 278.279 36.4344C278.279 38.1704 279.287 39.3884 280.701 39.3884ZM292.164 40.3964C289.966 40.3964 288.51 38.7864 288.51 36.5604C288.51 34.0264 290.148 32.6544 292.024 32.6544C294.068 32.6544 295.384 34.0264 295.426 36.4064V36.7284H289.672C289.742 38.3104 290.666 39.3884 292.164 39.3884C293.2 39.3884 293.956 38.8704 294.264 37.9044H295.398C295.062 39.4304 293.858 40.3964 292.164 40.3964ZM289.742 35.7624H294.208C293.998 34.4604 293.214 33.6624 292.024 33.6624C290.848 33.6624 289.98 34.4324 289.742 35.7624ZM298.158 40.2424H296.996V29.7424H298.158V40.2424ZM301.302 40.2424H300.14V29.7424H301.302V40.2424ZM306.519 40.3964C304.321 40.3964 302.865 38.7864 302.865 36.5604C302.865 34.0264 304.503 32.6544 306.379 32.6544C308.423 32.6544 309.739 34.0264 309.781 36.4064V36.7284H304.027C304.097 38.3104 305.021 39.3884 306.519 39.3884C307.555 39.3884 308.311 38.8704 308.619 37.9044H309.753C309.417 39.4304 308.213 40.3964 306.519 40.3964ZM304.097 35.7624H308.563C308.353 34.4604 307.569 33.6624 306.379 33.6624C305.203 33.6624 304.335 34.4324 304.097 35.7624ZM312.471 40.2424H311.309V32.8224H312.233L312.373 34.2364C312.849 33.2844 313.717 32.7804 314.949 32.7804H315.201V33.9284H314.949C313.381 33.9284 312.471 34.8244 312.471 36.3504V40.2424ZM56.76 65.3964C55.542 65.3964 54.548 64.7944 54.044 63.8284L53.918 65.2424H52.994V54.7424H54.156V58.9844C54.702 58.1724 55.64 57.6544 56.76 57.6544C58.72 57.6544 60.092 59.2224 60.092 61.4904C60.092 63.8004 58.72 65.3964 56.76 65.3964ZM56.578 64.3884C57.95 64.3884 58.888 63.1984 58.888 61.4904C58.888 59.8244 57.95 58.6624 56.564 58.6624C55.164 58.6624 54.156 59.7964 54.156 61.4344C54.156 63.1704 55.164 64.3884 56.578 64.3884ZM64.322 65.3964C62.516 65.3964 61.48 64.2904 61.48 62.7784V57.8224H62.642V62.7364C62.642 63.8004 63.384 64.3744 64.434 64.3744C65.82 64.3744 66.576 63.4504 66.59 62.3304V57.8224H67.752V65.2424H66.828L66.73 64.1224C66.24 64.9624 65.344 65.3964 64.322 65.3964ZM70.821 65.2424H69.659V57.8224H70.583L70.695 58.9564C71.199 58.1724 72.165 57.6544 73.271 57.6544C74.867 57.6544 75.931 58.6904 75.931 60.3284V65.2424H74.769V60.3704C74.769 59.3344 74.097 58.6764 72.977 58.6764C71.647 58.6764 70.835 59.6004 70.821 60.7344V65.2424ZM78.9148 65.2424H77.7528V57.8224H78.6768L78.7888 58.9564C79.2928 58.1724 80.2588 57.6544 81.3648 57.6544C82.9608 57.6544 84.0248 58.6904 84.0248 60.3284V65.2424H82.8628V60.3704C82.8628 59.3344 82.1908 58.6764 81.0708 58.6764C79.7408 58.6764 78.9288 59.6004 78.9148 60.7344V65.2424ZM90.1951 65.2424H89.0331V54.7424H90.1951V65.2424ZM92.7236 56.5764C92.2336 56.5764 91.8556 56.1984 91.8556 55.7084C91.8556 55.2184 92.2336 54.8544 92.7236 54.8544C93.2136 54.8544 93.5776 55.2184 93.5776 55.7084C93.5776 56.1984 93.2136 56.5764 92.7236 56.5764ZM93.2976 65.2424H92.1356V57.8224H93.2976V65.2424ZM96.3601 65.2424H95.1981V57.8224H96.1221L96.2341 58.9564C96.7381 58.1724 97.7041 57.6544 98.8101 57.6544C100.406 57.6544 101.47 58.6904 101.47 60.3284V65.2424H100.308V60.3704C100.308 59.3344 99.6361 58.6764 98.5161 58.6764C97.1861 58.6764 96.3741 59.6004 96.3601 60.7344V65.2424ZM103.88 56.5764C103.376 56.5764 103.012 56.2124 103.012 55.7084C103.012 55.2184 103.376 54.8544 103.88 54.8544C104.37 54.8544 104.734 55.2184 104.734 55.7084C104.734 56.2124 104.37 56.5764 103.88 56.5764ZM102.242 68.0424H101.206V67.0624H102.242C102.928 67.0624 103.292 66.6704 103.292 65.9284V57.8224H104.454V65.9284C104.454 67.3004 103.684 68.0424 102.242 68.0424ZM109.63 65.3964C107.432 65.3964 105.976 63.7864 105.976 61.5604C105.976 59.0264 107.614 57.6544 109.49 57.6544C111.534 57.6544 112.85 59.0264 112.892 61.4064V61.7284H107.138C107.208 63.3104 108.132 64.3884 109.63 64.3884C110.666 64.3884 111.422 63.8704 111.73 62.9044H112.864C112.528 64.4304 111.324 65.3964 109.63 65.3964ZM107.208 60.7624H111.674C111.464 59.4604 110.68 58.6624 109.49 58.6624C108.314 58.6624 107.446 59.4324 107.208 60.7624ZM115.051 65.3824C114.547 65.3824 114.169 65.0044 114.169 64.5004C114.169 64.0104 114.547 63.6324 115.051 63.6324C115.555 63.6324 115.933 64.0104 115.933 64.5004C115.933 65.0044 115.555 65.3824 115.051 65.3824Z" fill="#481125"/>
<rect x="24.5" y="98.7424" width="313" height="117.319" rx="12.7123" fill="#FDF9F9"/>
<rect x="24.5" y="98.7424" width="313" height="117.319" rx="12.7123" stroke="#691837"/>
<path d="M67.6246 123.987C67.6246 118.605 71.9875 114.242 77.3694 114.242H284.631C290.012 114.242 294.375 118.605 294.375 123.987V190.816C294.375 196.198 290.012 200.561 284.631 200.561H77.3694C71.9875 200.561 67.6246 196.198 67.6246 190.816V123.987Z" fill="#F9EAED"/>
<path d="M103.365 168.879C98.3809 168.879 94.8172 165.212 94.8172 159.505C94.8172 154.134 98.0968 150.235 103.597 150.235C108.194 150.235 111.37 153.024 112.119 157.465H109.872C109.201 154.16 106.903 152.223 103.597 152.223C99.5946 152.223 97.0897 154.986 97.0897 159.505C97.0897 164.076 99.6462 166.891 103.365 166.891C106.748 166.891 108.891 164.593 108.891 161.313H102.797V159.454H109.149C111.034 159.454 112.042 160.409 112.042 162.165V168.595H110.105V162.423H110.053C109.717 166.4 107.368 168.879 103.365 168.879ZM120.928 153.437C119.456 153.437 118.346 152.378 118.346 150.983C118.346 149.589 119.456 148.53 120.928 148.53C122.4 148.53 123.511 149.589 123.511 150.983C123.511 152.378 122.4 153.437 120.928 153.437ZM120.928 152.146C121.6 152.146 122.09 151.655 122.09 150.983C122.09 150.312 121.6 149.821 120.928 149.821C120.257 149.821 119.766 150.312 119.766 150.983C119.766 151.655 120.257 152.146 120.928 152.146ZM119.921 168.802C116.822 168.802 114.834 167.201 114.834 164.696C114.834 161.545 117.881 160.951 120.619 160.667C122.71 160.461 124.518 160.487 124.544 159.376C124.518 157.646 123.098 156.432 121.032 156.432C119.043 156.432 117.494 157.543 117.261 159.17H115.144C115.402 156.484 117.83 154.599 121.083 154.599C124.466 154.599 126.635 156.613 126.635 159.505V166.168C126.635 166.607 126.868 166.839 127.333 166.839H128.107V168.595H126.894C125.422 168.595 124.647 167.924 124.647 166.658V166.245C123.846 167.821 122.297 168.802 119.921 168.802ZM120.231 166.968C122.788 166.968 124.544 165.341 124.544 163.069V161.287C123.95 162.088 122.426 162.243 120.748 162.423C118.862 162.63 116.977 162.888 116.977 164.644C116.977 166.064 118.269 166.968 120.231 166.968ZM143.025 168.595H140.778L135.071 154.909H137.395L141.914 166.09L146.408 154.909H148.732L143.025 168.595ZM152.098 152.61C151.194 152.61 150.497 151.913 150.497 151.009C150.497 150.105 151.194 149.434 152.098 149.434C153.001 149.434 153.673 150.105 153.673 151.009C153.673 151.913 153.001 152.61 152.098 152.61ZM153.156 168.595H151.013V154.909H153.156V168.595ZM162.188 168.879C158.521 168.879 155.965 165.935 155.965 161.674C155.965 157.491 158.495 154.599 162.162 154.599C164.228 154.599 165.958 155.503 166.94 156.949V149.227H169.083V168.595H167.379L167.146 165.961C166.243 167.743 164.435 168.879 162.188 168.879ZM162.524 167.02C165.132 167.02 166.94 164.799 166.94 161.623C166.94 158.55 165.184 156.432 162.653 156.432C160.019 156.432 158.186 158.576 158.186 161.674C158.186 164.825 159.967 167.02 162.524 167.02ZM178.718 168.879C174.664 168.879 171.978 165.91 171.978 161.804C171.978 157.129 175 154.599 178.46 154.599C182.23 154.599 184.658 157.129 184.735 161.52V162.113H174.122C174.251 165.032 175.955 167.02 178.718 167.02C180.629 167.02 182.024 166.064 182.592 164.283H184.684C184.064 167.097 181.843 168.879 178.718 168.879ZM174.251 160.332H182.489C182.101 157.93 180.655 156.458 178.46 156.458C176.291 156.458 174.69 157.878 174.251 160.332ZM189.698 168.595H187.555V154.909H189.259L189.517 157.517C190.395 155.761 191.996 154.831 194.269 154.831H194.734V156.949H194.269C191.376 156.949 189.698 158.601 189.698 161.416V168.595ZM202.6 168.879C198.546 168.879 195.86 165.91 195.86 161.804C195.86 157.129 198.882 154.599 202.342 154.599C206.112 154.599 208.54 157.129 208.617 161.52V162.113H198.004C198.133 165.032 199.837 167.02 202.6 167.02C204.511 167.02 205.906 166.064 206.474 164.283H208.566C207.946 167.097 205.725 168.879 202.6 168.879ZM198.133 160.332H206.371C205.983 157.93 204.537 156.458 202.342 156.458C200.173 156.458 198.572 157.878 198.133 160.332Z" fill="#6A1830"/>
<g clip-path="url(#clip1_826_79948)">
<path d="M237.281 164.456H267.543M267.543 164.456L253.421 178.578M267.543 164.456L253.421 150.333" stroke="#6A1830" stroke-width="2.42097" stroke-linecap="round" stroke-linejoin="round"/>
</g>
<line x1="58.189" y1="145.764" x2="303.811" y2="145.764" stroke="#A35E70" stroke-width="0.956433" stroke-dasharray="1.91 1.91"/>
<line x1="58.189" y1="169.764" x2="303.811" y2="169.764" stroke="#A35E70" stroke-width="0.956433" stroke-dasharray="1.91 1.91"/>
<rect x="382.5" y="24.2424" width="20" height="20" rx="10" fill="#03834E"/>
<path d="M390.25 39.1591H389.917C389.5 39.0758 389.167 38.8258 389 38.4924L387 35.5758C386.833 35.3258 386.833 34.9091 387.167 34.7424C387.25 34.6591 387.417 34.6591 387.5 34.6591C387.667 34.6591 387.917 34.7424 388 34.9091L390.083 37.8258C390.167 37.9091 390.167 37.9091 390.25 37.9091H390.333C390.417 37.9091 390.417 37.9091 390.5 37.8258C390.5 37.8258 390.583 37.8258 390.583 37.7424L397.167 29.4924C397.25 29.3258 397.5 29.2424 397.667 29.2424C397.833 29.2424 397.917 29.3258 398.083 29.4091C398.25 29.4924 398.333 29.6591 398.333 29.8258C398.333 29.9924 398.333 30.1591 398.167 30.3258L391.667 38.5758L391.333 38.9091C390.833 39.0758 390.583 39.1591 390.25 39.1591Z" fill="#FDF9F9"/>
<path d="M415.484 40.3964C413.02 40.3964 411.326 39.1224 411.2 37.2744H412.432C412.572 38.5344 413.762 39.3324 415.484 39.3324C416.982 39.3324 417.766 38.7164 417.766 37.6944C417.766 36.7004 416.898 36.3224 415.96 36.0284L414.266 35.4964C413.482 35.2444 411.508 34.8244 411.508 32.9064C411.508 31.3244 412.81 30.2884 414.84 30.2884C417.08 30.2884 418.466 31.4224 418.62 33.5084H417.402C417.304 32.1224 416.338 31.3524 414.784 31.3524C413.552 31.3524 412.684 31.9124 412.684 32.8504C412.684 33.9284 413.804 34.1524 414.644 34.4184L416.226 34.9084C417.472 35.3004 418.97 35.7904 418.97 37.6384C418.97 39.3604 417.654 40.3964 415.484 40.3964ZM423.792 40.3964C421.594 40.3964 420.138 38.7864 420.138 36.5604C420.138 34.0264 421.776 32.6544 423.652 32.6544C425.696 32.6544 427.012 34.0264 427.054 36.4064V36.7284H421.3C421.37 38.3104 422.294 39.3884 423.792 39.3884C424.828 39.3884 425.584 38.8704 425.892 37.9044H427.026C426.69 39.4304 425.486 40.3964 423.792 40.3964ZM421.37 35.7624H425.836C425.626 34.4604 424.842 33.6624 423.652 33.6624C422.476 33.6624 421.608 34.4324 421.37 35.7624ZM429.745 40.2424H428.583V32.8224H429.507L429.619 33.9564C430.123 33.1724 431.089 32.6544 432.195 32.6544C433.791 32.6544 434.855 33.6904 434.855 35.3284V40.2424H433.693V35.3704C433.693 34.3344 433.021 33.6764 431.901 33.6764C430.571 33.6764 429.759 34.6004 429.745 35.7344V40.2424ZM440.404 40.2424H439.578C438.136 40.2424 437.366 39.5004 437.366 38.1284V33.8024H435.994V32.8224H437.366V30.2884H438.528V32.8224H440.53V33.8024H438.528V38.1284C438.528 38.8704 438.892 39.2624 439.578 39.2624H440.404V40.2424ZM443.061 40.2424H441.899V32.8224H442.823L442.963 34.2364C443.439 33.2844 444.307 32.7804 445.539 32.7804H445.791V33.9284H445.539C443.971 33.9284 443.061 34.8244 443.061 36.3504V40.2424ZM450.056 40.3964C447.858 40.3964 446.402 38.7864 446.402 36.5604C446.402 34.0264 448.04 32.6544 449.916 32.6544C451.96 32.6544 453.276 34.0264 453.318 36.4064V36.7284H447.564C447.634 38.3104 448.558 39.3884 450.056 39.3884C451.092 39.3884 451.848 38.8704 452.156 37.9044H453.29C452.954 39.4304 451.75 40.3964 450.056 40.3964ZM447.634 35.7624H452.1C451.89 34.4604 451.106 33.6624 449.916 33.6624C448.74 33.6624 447.872 34.4324 447.634 35.7624ZM456.009 40.2424H454.847V32.8224H455.771L455.911 34.2364C456.387 33.2844 457.255 32.7804 458.487 32.7804H458.739V33.9284H458.487C456.919 33.9284 456.009 34.8244 456.009 36.3504V40.2424ZM463.802 31.5764C463.312 31.5764 462.934 31.1984 462.934 30.7084C462.934 30.2184 463.312 29.8544 463.802 29.8544C464.292 29.8544 464.656 30.2184 464.656 30.7084C464.656 31.1984 464.292 31.5764 463.802 31.5764ZM464.376 40.2424H463.214V32.8224H464.376V40.2424ZM467.48 40.2424H466.318V29.7424H467.48V36.4764L471.092 32.8224H472.492L469.818 35.5244L472.898 40.2424H471.54L469.02 36.3364L467.48 37.8904V40.2424ZM476.743 40.3964C474.363 40.3964 473.103 38.7024 473.103 36.4624C473.103 33.9844 474.727 32.6544 476.743 32.6544C479.109 32.6544 480.383 34.3624 480.383 36.4624C480.383 39.0244 478.829 40.3964 476.743 40.3964ZM476.743 39.3884C478.325 39.3884 479.193 38.0724 479.193 36.4624C479.193 34.7964 478.227 33.6624 476.743 33.6624C475.259 33.6624 474.293 34.7964 474.293 36.4624C474.293 38.3664 475.399 39.3884 476.743 39.3884ZM483.065 40.2424H481.903V32.8224H482.827L482.939 33.9564C483.443 33.1724 484.409 32.6544 485.515 32.6544C487.111 32.6544 488.175 33.6904 488.175 35.3284V40.2424H487.013V35.3704C487.013 34.3344 486.341 33.6764 485.221 33.6764C483.891 33.6764 483.079 34.6004 483.065 35.7344V40.2424ZM496.403 40.3964C494.023 40.3964 492.763 38.7024 492.763 36.4624C492.763 33.9844 494.387 32.6544 496.403 32.6544C498.769 32.6544 500.043 34.3624 500.043 36.4624C500.043 39.0244 498.489 40.3964 496.403 40.3964ZM496.403 39.3884C497.985 39.3884 498.853 38.0724 498.853 36.4624C498.853 34.7964 497.887 33.6624 496.403 33.6624C494.919 33.6624 493.953 34.7964 493.953 36.4624C493.953 38.3664 495.059 39.3884 496.403 39.3884ZM504.797 43.2104C502.795 43.2104 501.437 42.2444 501.437 40.6764H502.599C502.599 41.5584 503.495 42.2304 504.797 42.2304C506.323 42.2304 507.121 41.3204 507.121 40.0464V38.8424C506.603 39.6124 505.707 40.1164 504.573 40.1164C502.599 40.1164 501.185 38.6044 501.185 36.4204C501.185 34.1944 502.613 32.6544 504.573 32.6544C505.763 32.6544 506.729 33.2144 507.233 34.1104L507.359 32.8224H508.269V40.0464C508.269 41.9224 507.009 43.2104 504.797 43.2104ZM504.741 39.1084C506.141 39.1084 507.121 37.9884 507.121 36.3784C507.121 34.7824 506.141 33.6624 504.741 33.6624C503.355 33.6624 502.389 34.7824 502.389 36.4064C502.389 38.0024 503.355 39.1084 504.741 39.1084ZM517.185 40.2424H516.359C514.917 40.2424 514.147 39.5004 514.147 38.1284V33.8024H512.775V32.8224H514.147V30.2884H515.309V32.8224H517.311V33.8024H515.309V38.1284C515.309 38.8704 515.673 39.2624 516.359 39.2624H517.185V40.2424ZM521.779 40.3964C519.581 40.3964 518.125 38.7864 518.125 36.5604C518.125 34.0264 519.763 32.6544 521.639 32.6544C523.683 32.6544 524.999 34.0264 525.041 36.4064V36.7284H519.287C519.357 38.3104 520.281 39.3884 521.779 39.3884C522.815 39.3884 523.571 38.8704 523.879 37.9044H525.013C524.677 39.4304 523.473 40.3964 521.779 40.3964ZM519.357 35.7624H523.823C523.613 34.4604 522.829 33.6624 521.639 33.6624C520.463 33.6624 519.595 34.4324 519.357 35.7624ZM527.773 40.2424H526.611V29.7424H527.773V36.4764L531.385 32.8224H532.785L530.111 35.5244L533.191 40.2424H531.833L529.313 36.3364L527.773 37.8904V40.2424ZM536.915 40.3964C535.151 40.3964 533.849 39.4724 533.751 37.9044H534.885C534.969 38.8704 535.851 39.4024 536.971 39.4024C538.021 39.4024 538.525 38.9964 538.525 38.2544C538.525 37.5544 537.979 37.4004 537.209 37.1344L536.131 36.7704C535.039 36.4064 533.947 36.0704 533.947 34.7264C533.947 33.4664 534.927 32.6544 536.551 32.6544C538.189 32.6544 539.323 33.5364 539.505 35.1884H538.371C538.245 34.1524 537.517 33.6484 536.509 33.6484C535.599 33.6484 535.067 34.0544 535.067 34.6984C535.067 35.4684 535.879 35.6224 536.495 35.8324L537.503 36.1684C538.861 36.6164 539.673 37.0784 539.673 38.3104C539.673 39.6124 538.721 40.3964 536.915 40.3964ZM544.775 40.2424H543.949C542.507 40.2424 541.737 39.5004 541.737 38.1284V33.8024H540.365V32.8224H541.737V30.2884H542.899V32.8224H544.901V33.8024H542.899V38.1284C542.899 38.8704 543.263 39.2624 543.949 39.2624H544.775V40.2424ZM550.003 31.5764C549.513 31.5764 549.135 31.1984 549.135 30.7084C549.135 30.2184 549.513 29.8544 550.003 29.8544C550.493 29.8544 550.857 30.2184 550.857 30.7084C550.857 31.1984 550.493 31.5764 550.003 31.5764ZM550.577 40.2424H549.415V32.8224H550.577V40.2424ZM556.784 40.2424H555.622V32.8224H556.546L556.658 33.9704C557.162 33.1724 558.128 32.6544 559.192 32.6544C560.312 32.6544 561.152 33.2284 561.53 34.1244C562.006 33.2564 563.028 32.6544 564.162 32.6544C565.73 32.6544 566.738 33.7604 566.738 35.2724V40.2424H565.576V35.3144C565.576 34.3204 564.96 33.6764 563.966 33.6764C562.58 33.6764 561.768 34.6004 561.754 35.7344V40.2424H560.606V35.3144C560.606 34.3204 559.99 33.6764 558.996 33.6764C557.61 33.6764 556.798 34.6004 556.784 35.7344V40.2424ZM569.144 31.5764C568.654 31.5764 568.276 31.1984 568.276 30.7084C568.276 30.2184 568.654 29.8544 569.144 29.8544C569.634 29.8544 569.998 30.2184 569.998 30.7084C569.998 31.1984 569.634 31.5764 569.144 31.5764ZM569.718 40.2424H568.556V32.8224H569.718V40.2424ZM574.614 40.3964C572.626 40.3964 571.24 38.8004 571.24 36.4904C571.24 34.2224 572.612 32.6544 574.6 32.6544C575.72 32.6544 576.658 33.1444 577.19 33.9284V29.7424H578.352V40.2424H577.428L577.302 38.8144C576.812 39.7804 575.832 40.3964 574.614 40.3964ZM574.796 39.3884C576.21 39.3884 577.19 38.1844 577.19 36.4624C577.19 34.7964 576.238 33.6484 574.866 33.6484C573.438 33.6484 572.444 34.8104 572.444 36.4904C572.444 38.1984 573.41 39.3884 574.796 39.3884ZM584.164 40.2424H583.338C581.896 40.2424 581.126 39.5004 581.126 38.1284V33.8024H579.754V32.8224H581.126V30.2884H582.288V32.8224H584.29V33.8024H582.288V38.1284C582.288 38.8704 582.652 39.2624 583.338 39.2624H584.164V40.2424ZM588.757 40.3964C586.559 40.3964 585.103 38.7864 585.103 36.5604C585.103 34.0264 586.741 32.6544 588.617 32.6544C590.661 32.6544 591.977 34.0264 592.019 36.4064V36.7284H586.265C586.335 38.3104 587.259 39.3884 588.757 39.3884C589.793 39.3884 590.549 38.8704 590.857 37.9044H591.991C591.655 39.4304 590.451 40.3964 588.757 40.3964ZM586.335 35.7624H590.801C590.591 34.4604 589.807 33.6624 588.617 33.6624C587.441 33.6624 586.573 34.4324 586.335 35.7624ZM594.71 40.2424H593.548V32.8224H594.472L594.584 33.9564C595.088 33.1724 596.054 32.6544 597.16 32.6544C598.756 32.6544 599.82 33.6904 599.82 35.3284V40.2424H598.658V35.3704C598.658 34.3344 597.986 33.6764 596.866 33.6764C595.536 33.6764 594.724 34.6004 594.71 35.7344V40.2424ZM602.271 40.3824C601.767 40.3824 601.389 40.0044 601.389 39.5004C601.389 39.0104 601.767 38.6324 602.271 38.6324C602.775 38.6324 603.153 39.0104 603.153 39.5004C603.153 40.0044 602.775 40.3824 602.271 40.3824Z" fill="#481125"/>
<rect x="383" y="98.7424" width="313" height="117.319" rx="12.7123" fill="#FDF9F9"/>
<rect x="383" y="98.7424" width="313" height="117.319" rx="12.7123" stroke="#691837"/>
<path d="M426.125 123.987C426.125 118.605 430.488 114.242 435.869 114.242H643.131C648.512 114.242 652.875 118.605 652.875 123.987V190.816C652.875 196.198 648.512 200.561 643.131 200.561H435.869C430.488 200.561 426.125 196.198 426.125 190.816V123.987Z" fill="#F9EAED"/>
<path d="M461.865 166.686C456.881 166.686 453.317 163.019 453.317 157.312C453.317 151.941 456.597 148.041 462.097 148.041C466.694 148.041 469.87 150.83 470.619 155.272H468.372C467.701 151.966 465.402 150.03 462.097 150.03C458.094 150.03 455.589 152.793 455.589 157.312C455.589 161.883 458.146 164.697 461.865 164.697C465.248 164.697 467.391 162.399 467.391 159.12H461.296V157.26H467.649C469.534 157.26 470.541 158.216 470.541 159.972V166.402H468.605V160.23H468.553C468.217 164.207 465.867 166.686 461.865 166.686ZM479.428 151.243C477.956 151.243 476.846 150.185 476.846 148.79C476.846 147.396 477.956 146.337 479.428 146.337C480.9 146.337 482.011 147.396 482.011 148.79C482.011 150.185 480.9 151.243 479.428 151.243ZM479.428 149.952C480.1 149.952 480.59 149.462 480.59 148.79C480.59 148.119 480.1 147.628 479.428 147.628C478.757 147.628 478.266 148.119 478.266 148.79C478.266 149.462 478.757 149.952 479.428 149.952ZM478.421 166.608C475.322 166.608 473.334 165.007 473.334 162.502C473.334 159.352 476.381 158.758 479.118 158.474C481.21 158.267 483.018 158.293 483.043 157.183C483.018 155.453 481.597 154.239 479.531 154.239C477.543 154.239 475.994 155.349 475.761 156.976H473.644C473.902 154.291 476.329 152.405 479.583 152.405C482.966 152.405 485.135 154.42 485.135 157.312V163.974C485.135 164.413 485.368 164.646 485.832 164.646H486.607V166.402H485.393C483.921 166.402 483.147 165.73 483.147 164.465V164.052C482.346 165.627 480.797 166.608 478.421 166.608ZM478.731 164.775C481.287 164.775 483.043 163.148 483.043 160.876V159.094C482.45 159.894 480.926 160.049 479.247 160.23C477.362 160.437 475.477 160.695 475.477 162.451C475.477 163.871 476.768 164.775 478.731 164.775ZM501.525 166.402H499.278L493.571 152.715H495.895L500.414 163.897L504.907 152.715H507.232L501.525 166.402ZM510.597 150.417C509.694 150.417 508.996 149.72 508.996 148.816C508.996 147.912 509.694 147.241 510.597 147.241C511.501 147.241 512.173 147.912 512.173 148.816C512.173 149.72 511.501 150.417 510.597 150.417ZM511.656 166.402H509.513V152.715H511.656V166.402ZM520.688 166.686C517.021 166.686 514.464 163.742 514.464 159.481C514.464 155.298 516.995 152.405 520.662 152.405C522.728 152.405 524.458 153.309 525.44 154.755V147.034H527.583V166.402H525.879L525.646 163.768C524.742 165.55 522.935 166.686 520.688 166.686ZM521.024 164.827C523.632 164.827 525.44 162.606 525.44 159.429C525.44 156.356 523.684 154.239 521.153 154.239C518.519 154.239 516.685 156.382 516.685 159.481C516.685 162.632 518.467 164.827 521.024 164.827ZM537.218 166.686C533.164 166.686 530.478 163.716 530.478 159.61C530.478 154.936 533.5 152.405 536.96 152.405C540.73 152.405 543.158 154.936 543.235 159.326V159.92H532.622C532.751 162.838 534.455 164.827 537.218 164.827C539.129 164.827 540.524 163.871 541.092 162.089H543.183C542.564 164.904 540.343 166.686 537.218 166.686ZM532.751 158.138H540.988C540.601 155.737 539.155 154.265 536.96 154.265C534.791 154.265 533.19 155.685 532.751 158.138ZM548.198 166.402H546.054V152.715H547.759L548.017 155.323C548.895 153.567 550.496 152.638 552.768 152.638H553.233V154.755H552.768C549.876 154.755 548.198 156.408 548.198 159.223V166.402ZM561.1 166.686C557.046 166.686 554.36 163.716 554.36 159.61C554.36 154.936 557.381 152.405 560.842 152.405C564.612 152.405 567.039 154.936 567.117 159.326V159.92H556.503C556.633 162.838 558.337 164.827 561.1 164.827C563.011 164.827 564.405 163.871 564.974 162.089H567.065C566.446 164.904 564.225 166.686 561.1 166.686ZM556.633 158.138H564.87C564.483 155.737 563.037 154.265 560.842 154.265C558.673 154.265 557.072 155.685 556.633 158.138Z" fill="#481125"/>
<g clip-path="url(#clip2_826_79948)">
<path d="M595.781 157.402H626.043M626.043 157.402L611.921 171.524M626.043 157.402L611.921 143.279" stroke="#481125" stroke-width="2.42097" stroke-linecap="round" stroke-linejoin="round"/>
</g>
<line x1="416.689" y1="140.764" x2="662.311" y2="140.764" stroke="#A35E70" stroke-width="0.956433" stroke-dasharray="1.91 1.91"/>
<line x1="416.689" y1="173.764" x2="662.311" y2="173.764" stroke="#A35E70" stroke-width="0.956433" stroke-dasharray="1.91 1.91"/>
<defs>
<clipPath id="clip0_826_79948">
<rect width="8" height="8" fill="white" transform="translate(30 30.2424)"/>
</clipPath>
<clipPath id="clip1_826_79948">
<rect width="32.2796" height="32.2796" fill="white" transform="translate(236.272 148.316)"/>
</clipPath>
<clipPath id="clip2_826_79948">
<rect width="32.2796" height="32.2796" fill="white" transform="translate(594.772 141.262)"/>
</clipPath>
</defs>
</svg>
