<svg width="733" height="302" viewBox="0 0 733 302" fill="none" xmlns="http://www.w3.org/2000/svg">
<rect y="0.518799" width="733" height="301.405" rx="24" fill="white"/>
<rect x="24" y="24.5188" width="20" height="20" rx="10" fill="#CE3871"/>
<g clip-path="url(#clip0_826_79730)">
<path d="M41.5 42.5188C41.3667 42.5188 41.2407 42.4668 41.1467 42.3721L34 35.2264L26.8533 42.3721C26.7587 42.4668 26.6333 42.5188 26.5 42.5188C26.3667 42.5188 26.2407 42.4668 26.1467 42.3721C25.952 42.1775 25.952 41.8602 26.1467 41.6648L33.2933 34.5185L26.1467 27.3728C26.052 27.2788 26 27.1528 26 27.0194C26 26.8861 26.052 26.7601 26.1467 26.6661C26.2407 26.5715 26.3667 26.5195 26.5 26.5195C26.6333 26.5195 26.7593 26.5715 26.8533 26.6661L34 33.8118L41.1467 26.6655C41.2413 26.5708 41.3667 26.5188 41.5 26.5188C41.6333 26.5188 41.7593 26.5708 41.8533 26.6655C41.948 26.7601 42 26.8861 42 27.0194C42 27.1528 41.948 27.2788 41.8533 27.3728L34.7067 34.5191L41.8533 41.6655C42.048 41.8602 42.048 42.1775 41.8533 42.3728C41.7593 42.4668 41.6333 42.5188 41.5 42.5188Z" fill="#FDF9F9"/>
</g>
<path d="M57.012 40.6728C54.478 40.6728 53.106 39.0908 53.106 37.2288V30.7188H54.282V37.2008C54.282 38.7548 55.514 39.5808 57.012 39.5808C58.51 39.5808 59.742 38.7548 59.742 37.2008V30.7188H60.918V37.2288C60.918 39.0908 59.532 40.6868 57.012 40.6728ZM64.1355 40.5188H62.9735V33.0988H63.8975L64.0095 34.2328C64.5135 33.4488 65.4795 32.9308 66.5855 32.9308C68.1815 32.9308 69.2455 33.9668 69.2455 35.6048V40.5188H68.0835V35.6468C68.0835 34.6108 67.4115 33.9528 66.2915 33.9528C64.9615 33.9528 64.1495 34.8768 64.1355 36.0108V40.5188ZM72.2292 40.5188H71.0672V33.0988H71.9912L72.1032 34.2328C72.6072 33.4488 73.5732 32.9308 74.6792 32.9308C76.2752 32.9308 77.3392 33.9668 77.3392 35.6048V40.5188H76.1772V35.6468C76.1772 34.6108 75.5052 33.9528 74.3852 33.9528C73.0552 33.9528 72.2432 34.8768 72.2292 36.0108V40.5188ZM82.395 43.4868C80.393 43.4868 79.035 42.5208 79.035 40.9528H80.197C80.197 41.8348 81.093 42.5068 82.395 42.5068C83.921 42.5068 84.719 41.5968 84.719 40.3228V39.1188C84.201 39.8888 83.305 40.3928 82.171 40.3928C80.197 40.3928 78.783 38.8808 78.783 36.6968C78.783 34.4708 80.211 32.9308 82.171 32.9308C83.361 32.9308 84.327 33.4908 84.831 34.3868L84.957 33.0988H85.867V40.3228C85.867 42.1988 84.607 43.4868 82.395 43.4868ZM82.339 39.3848C83.739 39.3848 84.719 38.2648 84.719 36.6548C84.719 35.0588 83.739 33.9388 82.339 33.9388C80.953 33.9388 79.987 35.0588 79.987 36.6828C79.987 38.2788 80.953 39.3848 82.339 39.3848ZM90.7143 32.3008C89.9163 32.3008 89.3143 31.7268 89.3143 30.9708C89.3143 30.2148 89.9163 29.6408 90.7143 29.6408C91.5123 29.6408 92.1143 30.2148 92.1143 30.9708C92.1143 31.7268 91.5123 32.3008 90.7143 32.3008ZM90.7143 31.6008C91.0783 31.6008 91.3443 31.3348 91.3443 30.9708C91.3443 30.6068 91.0783 30.3408 90.7143 30.3408C90.3503 30.3408 90.0843 30.6068 90.0843 30.9708C90.0843 31.3348 90.3503 31.6008 90.7143 31.6008ZM90.1683 40.6308C88.4883 40.6308 87.4103 39.7628 87.4103 38.4048C87.4103 36.6968 89.0623 36.3748 90.5463 36.2208C91.6803 36.1088 92.6603 36.1228 92.6743 35.5208C92.6603 34.5828 91.8903 33.9248 90.7703 33.9248C89.6923 33.9248 88.8523 34.5268 88.7263 35.4088H87.5783C87.7183 33.9528 89.0343 32.9308 90.7983 32.9308C92.6323 32.9308 93.8083 34.0228 93.8083 35.5908V39.2028C93.8083 39.4408 93.9343 39.5668 94.1863 39.5668H94.6063V40.5188H93.9483C93.1503 40.5188 92.7303 40.1548 92.7303 39.4688V39.2448C92.2963 40.0988 91.4563 40.6308 90.1683 40.6308ZM90.3363 39.6368C91.7223 39.6368 92.6743 38.7548 92.6743 37.5228V36.5568C92.3523 36.9908 91.5263 37.0748 90.6163 37.1728C89.5943 37.2848 88.5723 37.4248 88.5723 38.3768C88.5723 39.1468 89.2723 39.6368 90.3363 39.6368ZM101.994 32.3008C101.196 32.3008 100.594 31.7268 100.594 30.9708C100.594 30.2148 101.196 29.6408 101.994 29.6408C102.792 29.6408 103.394 30.2148 103.394 30.9708C103.394 31.7268 102.792 32.3008 101.994 32.3008ZM101.994 31.6008C102.358 31.6008 102.624 31.3348 102.624 30.9708C102.624 30.6068 102.358 30.3408 101.994 30.3408C101.63 30.3408 101.364 30.6068 101.364 30.9708C101.364 31.3348 101.63 31.6008 101.994 31.6008ZM101.448 40.6308C99.7676 40.6308 98.6896 39.7628 98.6896 38.4048C98.6896 36.6968 100.342 36.3748 101.826 36.2208C102.96 36.1088 103.94 36.1228 103.954 35.5208C103.94 34.5828 103.17 33.9248 102.05 33.9248C100.972 33.9248 100.132 34.5268 100.006 35.4088H98.8576C98.9976 33.9528 100.314 32.9308 102.078 32.9308C103.912 32.9308 105.088 34.0228 105.088 35.5908V39.2028C105.088 39.4408 105.214 39.5668 105.466 39.5668H105.886V40.5188H105.228C104.43 40.5188 104.01 40.1548 104.01 39.4688V39.2448C103.576 40.0988 102.736 40.6308 101.448 40.6308ZM101.616 39.6368C103.002 39.6368 103.954 38.7548 103.954 37.5228V36.5568C103.632 36.9908 102.806 37.0748 101.896 37.1728C100.874 37.2848 99.8516 37.4248 99.8516 38.3768C99.8516 39.1468 100.552 39.6368 101.616 39.6368ZM110.921 31.8528C110.417 31.8528 110.053 31.4888 110.053 30.9848C110.053 30.4948 110.417 30.1308 110.921 30.1308C111.411 30.1308 111.775 30.4948 111.775 30.9848C111.775 31.4888 111.411 31.8528 110.921 31.8528ZM109.283 43.3188H108.247V42.3388H109.283C109.969 42.3388 110.333 41.9468 110.333 41.2048V33.0988H111.495V41.2048C111.495 42.5768 110.725 43.3188 109.283 43.3188ZM116.097 40.6728C114.291 40.6728 113.255 39.5668 113.255 38.0548V33.0988H114.417V38.0128C114.417 39.0768 115.159 39.6508 116.209 39.6508C117.595 39.6508 118.351 38.7268 118.365 37.6068V33.0988H119.527V40.5188H118.603L118.505 39.3988C118.015 40.2388 117.119 40.6728 116.097 40.6728ZM124.206 40.6728C122.442 40.6728 121.14 39.7488 121.042 38.1808H122.176C122.26 39.1468 123.142 39.6788 124.262 39.6788C125.312 39.6788 125.816 39.2728 125.816 38.5308C125.816 37.8308 125.27 37.6768 124.5 37.4108L123.422 37.0468C122.33 36.6828 121.238 36.3468 121.238 35.0028C121.238 33.7428 122.218 32.9308 123.842 32.9308C125.48 32.9308 126.614 33.8128 126.796 35.4648H125.662C125.536 34.4288 124.808 33.9248 123.8 33.9248C122.89 33.9248 122.358 34.3308 122.358 34.9748C122.358 35.7448 123.17 35.8988 123.786 36.1088L124.794 36.4448C126.152 36.8928 126.964 37.3548 126.964 38.5868C126.964 39.8888 126.012 40.6728 124.206 40.6728ZM132.066 40.5188H131.24C129.798 40.5188 129.028 39.7768 129.028 38.4048V34.0788H127.656V33.0988H129.028V30.5648H130.19V33.0988H132.192V34.0788H130.19V38.4048C130.19 39.1468 130.554 39.5388 131.24 39.5388H132.066V40.5188ZM136.66 40.6728C134.462 40.6728 133.006 39.0628 133.006 36.8368C133.006 34.3028 134.644 32.9308 136.52 32.9308C138.564 32.9308 139.88 34.3028 139.922 36.6828V37.0048H134.168C134.238 38.5868 135.162 39.6648 136.66 39.6648C137.696 39.6648 138.452 39.1468 138.76 38.1808H139.894C139.558 39.7068 138.354 40.6728 136.66 40.6728ZM134.238 36.0388H138.704C138.494 34.7368 137.71 33.9388 136.52 33.9388C135.344 33.9388 134.476 34.7088 134.238 36.0388ZM142.612 40.5188H141.45V33.0988H142.374L142.514 34.5128C142.99 33.5608 143.858 33.0568 145.09 33.0568H145.342V34.2048H145.09C143.522 34.2048 142.612 35.1008 142.612 36.6268V40.5188ZM149.607 40.6728C147.409 40.6728 145.953 39.0628 145.953 36.8368C145.953 34.3028 147.591 32.9308 149.467 32.9308C151.511 32.9308 152.827 34.3028 152.869 36.6828V37.0048H147.115C147.185 38.5868 148.109 39.6648 149.607 39.6648C150.643 39.6648 151.399 39.1468 151.707 38.1808H152.841C152.505 39.7068 151.301 40.6728 149.607 40.6728ZM147.185 36.0388H151.651C151.441 34.7368 150.657 33.9388 149.467 33.9388C148.291 33.9388 147.423 34.7088 147.185 36.0388ZM161.182 40.5188H159.964L156.87 33.0988H158.13L160.58 39.1608L163.016 33.0988H164.276L161.182 40.5188ZM168.515 40.6728C166.317 40.6728 164.861 39.0628 164.861 36.8368C164.861 34.3028 166.499 32.9308 168.375 32.9308C170.419 32.9308 171.735 34.3028 171.777 36.6828V37.0048H166.023C166.093 38.5868 167.017 39.6648 168.515 39.6648C169.551 39.6648 170.307 39.1468 170.615 38.1808H171.749C171.413 39.7068 170.209 40.6728 168.515 40.6728ZM166.093 36.0388H170.559C170.349 34.7368 169.565 33.9388 168.375 33.9388C167.199 33.9388 166.331 34.7088 166.093 36.0388ZM174.51 40.5188H173.348V30.0188H174.51V36.7528L178.122 33.0988H179.522L176.848 35.8008L179.928 40.5188H178.57L176.05 36.6128L174.51 38.1668V40.5188ZM184.771 40.5188H183.945C182.503 40.5188 181.733 39.7768 181.733 38.4048V34.0788H180.361V33.0988H181.733V30.5648H182.895V33.0988H184.897V34.0788H182.895V38.4048C182.895 39.1468 183.259 39.5388 183.945 39.5388H184.771V40.5188ZM189.365 40.6728C187.167 40.6728 185.711 39.0628 185.711 36.8368C185.711 34.3028 187.349 32.9308 189.225 32.9308C191.269 32.9308 192.585 34.3028 192.627 36.6828V37.0048H186.873C186.943 38.5868 187.867 39.6648 189.365 39.6648C190.401 39.6648 191.157 39.1468 191.465 38.1808H192.599C192.263 39.7068 191.059 40.6728 189.365 40.6728ZM186.943 36.0388H191.409C191.199 34.7368 190.415 33.9388 189.225 33.9388C188.049 33.9388 187.181 34.7088 186.943 36.0388ZM195.317 40.5188H194.155V33.0988H195.079L195.191 34.2328C195.695 33.4488 196.661 32.9308 197.767 32.9308C199.363 32.9308 200.427 33.9668 200.427 35.6048V40.5188H199.265V35.6468C199.265 34.6108 198.593 33.9528 197.473 33.9528C196.143 33.9528 195.331 34.8768 195.317 36.0108V40.5188ZM206.583 43.3188H205.421V33.0988H206.345L206.471 34.4428C207.003 33.5188 207.983 32.9308 209.187 32.9308C211.147 32.9308 212.519 34.4988 212.519 36.7668C212.519 39.0768 211.147 40.6728 209.187 40.6728C208.053 40.6728 207.115 40.1548 206.583 39.2868V43.3188ZM209.005 39.6648C210.377 39.6648 211.315 38.4748 211.315 36.7668C211.315 35.1008 210.377 33.9388 208.991 33.9388C207.591 33.9388 206.583 35.0728 206.583 36.7108C206.583 38.4468 207.591 39.6648 209.005 39.6648ZM216.988 32.3008C216.19 32.3008 215.588 31.7268 215.588 30.9708C215.588 30.2148 216.19 29.6408 216.988 29.6408C217.786 29.6408 218.388 30.2148 218.388 30.9708C218.388 31.7268 217.786 32.3008 216.988 32.3008ZM216.988 31.6008C217.352 31.6008 217.618 31.3348 217.618 30.9708C217.618 30.6068 217.352 30.3408 216.988 30.3408C216.624 30.3408 216.358 30.6068 216.358 30.9708C216.358 31.3348 216.624 31.6008 216.988 31.6008ZM216.442 40.6308C214.762 40.6308 213.684 39.7628 213.684 38.4048C213.684 36.6968 215.336 36.3748 216.82 36.2208C217.954 36.1088 218.934 36.1228 218.948 35.5208C218.934 34.5828 218.164 33.9248 217.044 33.9248C215.966 33.9248 215.126 34.5268 215 35.4088H213.852C213.992 33.9528 215.308 32.9308 217.072 32.9308C218.906 32.9308 220.082 34.0228 220.082 35.5908V39.2028C220.082 39.4408 220.208 39.5668 220.46 39.5668H220.88V40.5188H220.222C219.424 40.5188 219.004 40.1548 219.004 39.4688V39.2448C218.57 40.0988 217.73 40.6308 216.442 40.6308ZM216.61 39.6368C217.996 39.6368 218.948 38.7548 218.948 37.5228V36.5568C218.626 36.9908 217.8 37.0748 216.89 37.1728C215.868 37.2848 214.846 37.4248 214.846 38.3768C214.846 39.1468 215.546 39.6368 216.61 39.6368ZM225.915 31.8528C225.425 31.8528 225.047 31.4748 225.047 30.9848C225.047 30.4948 225.425 30.1308 225.915 30.1308C226.405 30.1308 226.769 30.4948 226.769 30.9848C226.769 31.4748 226.405 31.8528 225.915 31.8528ZM226.489 40.5188H225.327V33.0988H226.489V40.5188ZM229.594 40.5188H228.432V30.0188H229.594V36.7528L233.206 33.0988H234.606L231.932 35.8008L235.012 40.5188H233.654L231.133 36.6128L229.594 38.1668V40.5188ZM238.857 40.6728C236.477 40.6728 235.217 38.9788 235.217 36.7388C235.217 34.2608 236.841 32.9308 238.857 32.9308C241.223 32.9308 242.497 34.6388 242.497 36.7388C242.497 39.3008 240.943 40.6728 238.857 40.6728ZM238.857 39.6648C240.439 39.6648 241.307 38.3488 241.307 36.7388C241.307 35.0728 240.341 33.9388 238.857 33.9388C237.373 33.9388 236.407 35.0728 236.407 36.7388C236.407 38.6428 237.513 39.6648 238.857 39.6648ZM245.178 40.5188H244.016V33.0988H244.94L245.052 34.2328C245.556 33.4488 246.522 32.9308 247.628 32.9308C249.224 32.9308 250.288 33.9668 250.288 35.6048V40.5188H249.126V35.6468C249.126 34.6108 248.454 33.9528 247.334 33.9528C246.004 33.9528 245.192 34.8768 245.178 36.0108V40.5188ZM255.386 40.6728C253.188 40.6728 251.732 39.0628 251.732 36.8368C251.732 34.3028 253.37 32.9308 255.246 32.9308C257.29 32.9308 258.606 34.3028 258.648 36.6828V37.0048H252.894C252.964 38.5868 253.888 39.6648 255.386 39.6648C256.422 39.6648 257.178 39.1468 257.486 38.1808H258.62C258.284 39.7068 257.08 40.6728 255.386 40.6728ZM252.964 36.0388H257.43C257.22 34.7368 256.436 33.9388 255.246 33.9388C254.07 33.9388 253.202 34.7088 252.964 36.0388ZM263.849 40.5188H263.023C261.581 40.5188 260.811 39.7768 260.811 38.4048V34.0788H259.439V33.0988H260.811V30.5648H261.973V33.0988H263.975V34.0788H261.973V38.4048C261.973 39.1468 262.337 39.5388 263.023 39.5388H263.849V40.5188ZM272.129 40.5188H270.911L267.817 33.0988H269.077L271.527 39.1608L273.963 33.0988H275.223L272.129 40.5188ZM277.048 31.8528C276.558 31.8528 276.18 31.4748 276.18 30.9848C276.18 30.4948 276.558 30.1308 277.048 30.1308C277.538 30.1308 277.902 30.4948 277.902 30.9848C277.902 31.4748 277.538 31.8528 277.048 31.8528ZM277.622 40.5188H276.46V33.0988H277.622V40.5188ZM281.916 40.6308C280.236 40.6308 279.158 39.7628 279.158 38.4048C279.158 36.6968 280.81 36.3748 282.294 36.2208C283.428 36.1088 284.408 36.1228 284.422 35.5208C284.408 34.5828 283.638 33.9248 282.518 33.9248C281.44 33.9248 280.6 34.5268 280.474 35.4088H279.326C279.466 33.9528 280.782 32.9308 282.546 32.9308C284.38 32.9308 285.556 34.0228 285.556 35.5908V39.2028C285.556 39.4408 285.682 39.5668 285.934 39.5668H286.354V40.5188H285.696C284.898 40.5188 284.478 40.1548 284.478 39.4688V39.2448C284.044 40.0988 283.204 40.6308 281.916 40.6308ZM282.084 39.6368C283.47 39.6368 284.422 38.7548 284.422 37.5228V36.5568C284.1 36.9908 283.274 37.0748 282.364 37.1728C281.342 37.2848 280.32 37.4248 280.32 38.3768C280.32 39.1468 281.02 39.6368 282.084 39.6368ZM293.574 40.6728C291.81 40.6728 290.508 39.7488 290.41 38.1808H291.544C291.628 39.1468 292.51 39.6788 293.63 39.6788C294.68 39.6788 295.184 39.2728 295.184 38.5308C295.184 37.8308 294.638 37.6768 293.868 37.4108L292.79 37.0468C291.698 36.6828 290.606 36.3468 290.606 35.0028C290.606 33.7428 291.586 32.9308 293.21 32.9308C294.848 32.9308 295.982 33.8128 296.164 35.4648H295.03C294.904 34.4288 294.176 33.9248 293.168 33.9248C292.258 33.9248 291.726 34.3308 291.726 34.9748C291.726 35.7448 292.538 35.8988 293.154 36.1088L294.162 36.4448C295.52 36.8928 296.332 37.3548 296.332 38.5868C296.332 39.8888 295.38 40.6728 293.574 40.6728ZM301.433 40.5188H300.607C299.165 40.5188 298.395 39.7768 298.395 38.4048V34.0788H297.023V33.0988H298.395V30.5648H299.557V33.0988H301.559V34.0788H299.557V38.4048C299.557 39.1468 299.921 39.5388 300.607 39.5388H301.433V40.5188ZM304.091 40.5188H302.929V33.0988H303.853L303.993 34.5128C304.469 33.5608 305.337 33.0568 306.569 33.0568H306.821V34.2048H306.569C305.001 34.2048 304.091 35.1008 304.091 36.6268V40.5188ZM311.071 40.6728C308.691 40.6728 307.431 38.9788 307.431 36.7388C307.431 34.2608 309.055 32.9308 311.071 32.9308C313.437 32.9308 314.711 34.6388 314.711 36.7388C314.711 39.3008 313.157 40.6728 311.071 40.6728ZM311.071 39.6648C312.653 39.6648 313.521 38.3488 313.521 36.7388C313.521 35.0728 312.555 33.9388 311.071 33.9388C309.587 33.9388 308.621 35.0728 308.621 36.7388C308.621 38.6428 309.727 39.6648 311.071 39.6648ZM317.435 40.5188H316.273V30.0188H317.435V36.7528L321.047 33.0988H322.447L319.773 35.8008L322.853 40.5188H321.495L318.975 36.6128L317.435 38.1668V40.5188ZM326.712 40.6728C324.514 40.6728 323.058 39.0628 323.058 36.8368C323.058 34.3028 324.696 32.9308 326.572 32.9308C328.616 32.9308 329.932 34.3028 329.974 36.6828V37.0048H324.22C324.29 38.5868 325.214 39.6648 326.712 39.6648C327.748 39.6648 328.504 39.1468 328.812 38.1808H329.946C329.61 39.7068 328.406 40.6728 326.712 40.6728ZM324.29 36.0388H328.756C328.546 34.7368 327.762 33.9388 326.572 33.9388C325.396 33.9388 324.528 34.7088 324.29 36.0388ZM335.235 31.8528C334.745 31.8528 334.367 31.4748 334.367 30.9848C334.367 30.4948 334.745 30.1308 335.235 30.1308C335.725 30.1308 336.089 30.4948 336.089 30.9848C336.089 31.4748 335.725 31.8528 335.235 31.8528ZM335.809 40.5188H334.647V33.0988H335.809V40.5188ZM54.366 65.5188H53.19V55.7188H59.868V56.7968H54.366V59.9748H59.448V61.0528H54.366V65.5188ZM61.9892 56.8528C61.4992 56.8528 61.1212 56.4748 61.1212 55.9848C61.1212 55.4948 61.4992 55.1308 61.9892 55.1308C62.4792 55.1308 62.8432 55.4948 62.8432 55.9848C62.8432 56.4748 62.4792 56.8528 61.9892 56.8528ZM62.5632 65.5188H61.4012V58.0988H62.5632V65.5188ZM67.6977 68.4868C65.6957 68.4868 64.3377 67.5208 64.3377 65.9528H65.4997C65.4997 66.8348 66.3957 67.5068 67.6977 67.5068C69.2237 67.5068 70.0217 66.5968 70.0217 65.3228V64.1188C69.5037 64.8888 68.6077 65.3928 67.4737 65.3928C65.4997 65.3928 64.0857 63.8808 64.0857 61.6968C64.0857 59.4708 65.5137 57.9308 67.4737 57.9308C68.6637 57.9308 69.6297 58.4908 70.1337 59.3868L70.2597 58.0988H71.1697V65.3228C71.1697 67.1988 69.9097 68.4868 67.6977 68.4868ZM67.6417 64.3848C69.0417 64.3848 70.0217 63.2648 70.0217 61.6548C70.0217 60.0588 69.0417 58.9388 67.6417 58.9388C66.2557 58.9388 65.2897 60.0588 65.2897 61.6828C65.2897 63.2788 66.2557 64.3848 67.6417 64.3848ZM74.239 65.5188H73.077V58.0988H74.001L74.113 59.2468C74.617 58.4488 75.583 57.9308 76.647 57.9308C77.767 57.9308 78.607 58.5048 78.985 59.4008C79.461 58.5328 80.483 57.9308 81.617 57.9308C83.185 57.9308 84.193 59.0368 84.193 60.5488V65.5188H83.031V60.5908C83.031 59.5968 82.415 58.9528 81.421 58.9528C80.035 58.9528 79.223 59.8768 79.209 61.0108V65.5188H78.061V60.5908C78.061 59.5968 77.445 58.9528 76.451 58.9528C75.065 58.9528 74.253 59.8768 74.239 61.0108V65.5188ZM88.4046 65.6308C86.7246 65.6308 85.6466 64.7628 85.6466 63.4048C85.6466 61.6968 87.2986 61.3748 88.7826 61.2208C89.9166 61.1088 90.8966 61.1228 90.9106 60.5208C90.8966 59.5828 90.1266 58.9248 89.0066 58.9248C87.9286 58.9248 87.0886 59.5268 86.9626 60.4088H85.8146C85.9546 58.9528 87.2706 57.9308 89.0346 57.9308C90.8686 57.9308 92.0446 59.0228 92.0446 60.5908V64.2028C92.0446 64.4408 92.1706 64.5668 92.4226 64.5668H92.8426V65.5188H92.1846C91.3866 65.5188 90.9666 65.1548 90.9666 64.4688V64.2448C90.5326 65.0988 89.6926 65.6308 88.4046 65.6308ZM88.5726 64.6368C89.9586 64.6368 90.9106 63.7548 90.9106 62.5228V61.5568C90.5886 61.9908 89.7626 62.0748 88.8526 62.1728C87.8306 62.2848 86.8086 62.4248 86.8086 63.3768C86.8086 64.1468 87.5086 64.6368 88.5726 64.6368ZM94.9668 65.6588C94.4628 65.6588 94.0848 65.2808 94.0848 64.7768C94.0848 64.2868 94.4628 63.9088 94.9668 63.9088C95.4708 63.9088 95.8488 64.2868 95.8488 64.7768C95.8488 65.2808 95.4708 65.6588 94.9668 65.6588Z" fill="#481125"/>
<rect x="24.5" y="99.0188" width="313" height="125.58" rx="12.7123" fill="#FDF9F9"/>
<rect x="24.5" y="99.0188" width="313" height="125.58" rx="12.7123" stroke="#691837"/>
<g clip-path="url(#clip1_826_79730)">
<path d="M57.0997 139.74C57.0997 136.954 59.3581 134.696 62.144 134.696H91.7792C94.5651 134.696 96.8234 136.954 96.8234 139.74V204.055C96.8234 206.84 94.5651 209.099 91.7792 209.099H62.144C59.3581 209.099 57.0997 206.84 57.0997 204.055V139.74Z" fill="#F9EAED"/>
<path d="M80.5102 153.377L86.4195 159.287M82.1353 145.009C83.7812 148.882 81.9759 153.356 78.1031 155.002C74.2303 156.648 69.7564 154.843 68.1105 150.97C66.4646 147.097 68.2699 142.623 72.1427 140.977C76.0155 139.331 80.4894 141.137 82.1353 145.009Z" stroke="#28000E" stroke-width="1.51329" stroke-linecap="round" stroke-linejoin="round"/>
<path d="M68.7142 191.949C68.7142 194.975 64.0861 194.849 64.0861 197.409H68.5881V198.38H62.9638V197.548C62.9638 194.307 67.6171 194.345 67.6171 191.949C67.6171 191.015 66.9614 190.385 65.9021 190.385C64.7923 190.385 63.9096 191.078 63.8843 192.503H62.7746C62.8755 190.486 64.1996 189.414 65.9147 189.414C67.6045 189.414 68.7142 190.435 68.7142 191.949ZM73.3346 198.519C71.2791 198.519 69.9676 196.728 69.9676 193.941C69.9676 191.179 71.2791 189.414 73.3346 189.414C75.3902 189.414 76.7017 191.179 76.7017 193.941C76.7017 196.728 75.3902 198.519 73.3346 198.519ZM73.3346 197.548C74.7218 197.548 75.6172 196.135 75.6172 193.941C75.6172 191.772 74.7218 190.385 73.3346 190.385C71.9474 190.385 71.0521 191.772 71.0521 193.941C71.0521 196.135 71.9474 197.548 73.3346 197.548ZM79.295 200.902H78.2483V191.696H79.0806L79.1941 192.907C79.6733 192.075 80.5561 191.545 81.6406 191.545C83.4061 191.545 84.642 192.957 84.642 195C84.642 197.081 83.4061 198.519 81.6406 198.519C80.6191 198.519 79.7742 198.052 79.295 197.27V200.902ZM81.4767 197.611C82.7125 197.611 83.5574 196.539 83.5574 195C83.5574 193.5 82.7125 192.453 81.4641 192.453C80.203 192.453 79.295 193.474 79.295 194.95C79.295 196.514 80.203 197.611 81.4767 197.611ZM86.3172 198.38H85.1318L87.5531 195.063L85.1571 191.696H86.3298L88.1458 194.282L89.9491 191.696H91.1219L88.7259 195.051L91.1471 198.38H89.9617L88.1458 195.807L86.3172 198.38Z" fill="#28000E"/>
<path d="M145.85 152.068L152.941 159.161M147.8 142.028C149.775 146.675 147.608 152.044 142.961 154.019C138.314 155.994 132.945 153.828 130.971 149.18C128.995 144.533 131.162 139.164 135.809 137.189C140.456 135.214 145.825 137.38 147.8 142.028Z" stroke="#28000E" stroke-width="1.51329" stroke-linecap="round" stroke-linejoin="round"/>
<path d="M131.049 198.519C129.056 198.519 127.707 197.371 127.593 195.568H128.691C128.766 196.778 129.687 197.548 131.061 197.548C132.322 197.548 133.142 196.879 133.142 195.871C133.142 194.887 132.36 194.282 131.024 194.282H129.838V193.411H131.024C132.07 193.411 132.802 192.806 132.802 191.911C132.802 191.028 132.083 190.385 131.011 190.385C129.914 190.385 129.094 191.078 128.93 192.163H127.833C128.06 190.486 129.321 189.414 131.074 189.414C132.713 189.414 133.861 190.36 133.861 191.696C133.861 192.718 133.193 193.5 132.209 193.765C133.47 194.055 134.189 194.849 134.189 195.984C134.189 197.485 132.94 198.519 131.049 198.519ZM141.307 191.949C141.307 194.975 136.679 194.849 136.679 197.409H141.181V198.38H135.556V197.548C135.556 194.307 140.21 194.345 140.21 191.949C140.21 191.015 139.554 190.385 138.495 190.385C137.385 190.385 136.502 191.078 136.477 192.503H135.367C135.468 190.486 136.792 189.414 138.507 189.414C140.197 189.414 141.307 190.435 141.307 191.949ZM143.822 200.902H142.775V191.696H143.607L143.721 192.907C144.2 192.075 145.083 191.545 146.167 191.545C147.933 191.545 149.168 192.957 149.168 195C149.168 197.081 147.933 198.519 146.167 198.519C145.146 198.519 144.301 198.052 143.822 197.27V200.902ZM146.003 197.611C147.239 197.611 148.084 196.539 148.084 195C148.084 193.5 147.239 192.453 145.991 192.453C144.73 192.453 143.822 193.474 143.822 194.95C143.822 196.514 144.73 197.611 146.003 197.611ZM150.843 198.38H149.658L152.079 195.063L149.683 191.696H150.856L152.672 194.282L154.475 191.696H155.648L153.252 195.051L155.673 198.38H154.488L152.672 195.807L150.843 198.38Z" fill="#28000E"/>
<path d="M213.224 149.452L222.679 158.909M215.823 136.064C218.457 142.261 215.569 149.419 209.372 152.052C203.175 154.686 196.018 151.797 193.384 145.601C190.751 139.404 193.639 132.246 199.835 129.613C206.032 126.979 213.19 129.868 215.823 136.064Z" stroke="#28000E" stroke-width="1.51329" stroke-linecap="round" stroke-linejoin="round"/>
<path d="M198.352 198.38H197.293V196.173H192.917V195.227L197.281 189.553H198.352V195.202H199.904V196.173H198.352V198.38ZM197.293 191.028L194.077 195.202H197.293V191.028ZM204.256 198.519C202.201 198.519 200.889 196.728 200.889 193.941C200.889 191.179 202.201 189.414 204.256 189.414C206.312 189.414 207.623 191.179 207.623 193.941C207.623 196.728 206.312 198.519 204.256 198.519ZM204.256 197.548C205.643 197.548 206.539 196.135 206.539 193.941C206.539 191.772 205.643 190.385 204.256 190.385C202.869 190.385 201.974 191.772 201.974 193.941C201.974 196.135 202.869 197.548 204.256 197.548ZM210.217 200.902H209.17V191.696H210.002L210.116 192.907C210.595 192.075 211.478 191.545 212.562 191.545C214.328 191.545 215.564 192.957 215.564 195C215.564 197.081 214.328 198.519 212.562 198.519C211.541 198.519 210.696 198.052 210.217 197.27V200.902ZM212.398 197.611C213.634 197.611 214.479 196.539 214.479 195C214.479 193.5 213.634 192.453 212.386 192.453C211.125 192.453 210.217 193.474 210.217 194.95C210.217 196.514 211.125 197.611 212.398 197.611ZM217.239 198.38H216.054L218.475 195.063L216.079 191.696H217.252L219.067 194.282L220.871 191.696H222.044L219.648 195.051L222.069 198.38H220.883L219.067 195.807L217.239 198.38Z" fill="#28000E"/>
<path d="M286.272 146.836L298.091 158.656M289.522 130.101C292.814 137.847 289.203 146.795 281.458 150.086C273.712 153.378 264.764 149.768 261.472 142.022C258.181 134.276 261.791 125.329 269.537 122.037C277.282 118.745 286.23 122.356 289.522 130.101Z" stroke="#28000E" stroke-width="1.51329" stroke-linecap="round" stroke-linejoin="round"/>
<path d="M269.981 198.38H268.922V196.173H264.546V195.227L268.909 189.553H269.981V195.202H271.532V196.173H269.981V198.38ZM268.922 191.028L265.706 195.202H268.922V191.028ZM275.784 198.519C273.792 198.519 272.417 197.51 272.417 195.934C272.417 194.912 273.086 194.118 274.157 193.727C273.325 193.348 272.821 192.642 272.821 191.772C272.821 190.385 274.031 189.414 275.784 189.414C277.512 189.414 278.722 190.385 278.722 191.772C278.722 192.642 278.218 193.336 277.398 193.727C278.458 194.118 279.126 194.912 279.126 195.934C279.126 197.459 277.827 198.519 275.784 198.519ZM275.784 193.361C276.894 193.361 277.663 192.73 277.663 191.822C277.663 190.965 276.894 190.36 275.784 190.36C274.662 190.36 273.88 190.965 273.88 191.822C273.88 192.73 274.662 193.361 275.784 193.361ZM275.784 197.548C277.108 197.548 278.029 196.854 278.029 195.871C278.029 194.874 277.108 194.181 275.784 194.181C274.447 194.181 273.514 194.874 273.514 195.871C273.514 196.854 274.447 197.548 275.784 197.548ZM281.624 200.902H280.577V191.696H281.409L281.523 192.907C282.002 192.075 282.885 191.545 283.969 191.545C285.735 191.545 286.971 192.957 286.971 195C286.971 197.081 285.735 198.519 283.969 198.519C282.948 198.519 282.103 198.052 281.624 197.27V200.902ZM283.805 197.611C285.041 197.611 285.886 196.539 285.886 195C285.886 193.5 285.041 192.453 283.793 192.453C282.532 192.453 281.624 193.474 281.624 194.95C281.624 196.514 282.532 197.611 283.805 197.611ZM288.646 198.38H287.46L289.882 195.063L287.486 191.696H288.658L290.474 194.282L292.278 191.696H293.451L291.055 195.051L293.476 198.38H292.29L290.474 195.807L288.646 198.38Z" fill="#28000E"/>
</g>
<rect x="382.5" y="24.5188" width="20" height="20" rx="10" fill="#03834E"/>
<path d="M390.25 39.4355H389.917C389.5 39.3521 389.167 39.1021 389 38.7688L387 35.8521C386.833 35.6021 386.833 35.1855 387.167 35.0188C387.25 34.9355 387.417 34.9355 387.5 34.9355C387.667 34.9355 387.917 35.0188 388 35.1855L390.083 38.1021C390.167 38.1855 390.167 38.1855 390.25 38.1855H390.333C390.417 38.1855 390.417 38.1855 390.5 38.1021C390.5 38.1021 390.583 38.1021 390.583 38.0188L397.167 29.7688C397.25 29.6021 397.5 29.5188 397.667 29.5188C397.833 29.5188 397.917 29.6021 398.083 29.6855C398.25 29.7688 398.333 29.9355 398.333 30.1021C398.333 30.2688 398.333 30.4355 398.167 30.6021L391.667 38.8521L391.333 39.1855C390.833 39.3521 390.583 39.4355 390.25 39.4355Z" fill="#FDF9F9"/>
<path d="M416.296 40.5188H411.69V30.7188H416.184C417.892 30.7188 419.082 31.7268 419.082 33.1828C419.082 34.2328 418.34 35.1008 417.192 35.4648C418.466 35.7168 419.306 36.6408 419.306 37.8448C419.306 39.4268 418.074 40.5188 416.296 40.5188ZM412.852 31.7968V35.0028H416.114C417.164 35.0028 417.892 34.3028 417.892 33.3088C417.892 32.4128 417.234 31.7968 416.296 31.7968H412.852ZM412.852 36.0528V39.4408H416.422C417.402 39.4408 418.088 38.7408 418.088 37.7188C418.088 36.6268 417.234 36.0528 416.184 36.0528H412.852ZM422.143 40.5188H420.981V33.0988H421.905L422.045 34.5128C422.521 33.5608 423.389 33.0568 424.621 33.0568H424.873V34.2048H424.621C423.053 34.2048 422.143 35.1008 422.143 36.6268V40.5188ZM428.906 40.6728C427.1 40.6728 426.064 39.5668 426.064 38.0548V33.0988H427.226V38.0128C427.226 39.0768 427.968 39.6508 429.018 39.6508C430.404 39.6508 431.16 38.7268 431.174 37.6068V33.0988H432.336V40.5188H431.412L431.314 39.3988C430.824 40.2388 429.928 40.6728 428.906 40.6728ZM435.447 40.5188H434.285V30.0188H435.447V36.7528L439.059 33.0988H440.459L437.785 35.8008L440.865 40.5188H439.507L436.987 36.6128L435.447 38.1668V40.5188ZM444.765 34.4008L446.291 29.7248L447.229 30.0188L445.759 34.7088L444.765 34.4008ZM447.103 34.4008L448.629 29.7248L449.567 30.0188L448.097 34.7088L447.103 34.4008ZM452.173 40.5188H450.997V30.7188H452.173V36.0808L457.227 30.7188H458.753L454.847 34.8068L459.019 40.5188H457.563L454.035 35.6608L452.173 37.6068V40.5188ZM462.118 30.0048L460.592 34.6808L459.654 34.3868L461.124 29.6968L462.118 30.0048ZM464.456 30.0048L462.93 34.6808L461.992 34.3868L463.462 29.6968L464.456 30.0048ZM472.793 40.5188H471.967C470.525 40.5188 469.755 39.7768 469.755 38.4048V34.0788H468.383V33.0988H469.755V30.5648H470.917V33.0988H472.919V34.0788H470.917V38.4048C470.917 39.1468 471.281 39.5388 471.967 39.5388H472.793V40.5188ZM476.682 40.6308C475.002 40.6308 473.924 39.7628 473.924 38.4048C473.924 36.6968 475.576 36.3748 477.06 36.2208C478.194 36.1088 479.174 36.1228 479.188 35.5208C479.174 34.5828 478.404 33.9248 477.284 33.9248C476.206 33.9248 475.366 34.5268 475.24 35.4088H474.092C474.232 33.9528 475.548 32.9308 477.312 32.9308C479.146 32.9308 480.322 34.0228 480.322 35.5908V39.2028C480.322 39.4408 480.448 39.5668 480.7 39.5668H481.12V40.5188H480.462C479.664 40.5188 479.244 40.1548 479.244 39.4688V39.2448C478.81 40.0988 477.97 40.6308 476.682 40.6308ZM476.85 39.6368C478.236 39.6368 479.188 38.7548 479.188 37.5228V36.5568C478.866 36.9908 478.04 37.0748 477.13 37.1728C476.108 37.2848 475.086 37.4248 475.086 38.3768C475.086 39.1468 475.786 39.6368 476.85 39.6368ZM485.195 40.6728C483.431 40.6728 482.129 39.7488 482.031 38.1808H483.165C483.249 39.1468 484.131 39.6788 485.251 39.6788C486.301 39.6788 486.805 39.2728 486.805 38.5308C486.805 37.8308 486.259 37.6768 485.489 37.4108L484.411 37.0468C483.319 36.6828 482.227 36.3468 482.227 35.0028C482.227 33.7428 483.207 32.9308 484.831 32.9308C486.469 32.9308 487.603 33.8128 487.785 35.4648H486.651C486.525 34.4288 485.797 33.9248 484.789 33.9248C483.879 33.9248 483.347 34.3308 483.347 34.9748C483.347 35.7448 484.159 35.8988 484.775 36.1088L485.783 36.4448C487.141 36.8928 487.953 37.3548 487.953 38.5868C487.953 39.8888 487.001 40.6728 485.195 40.6728ZM493.054 40.5188H492.228C490.786 40.5188 490.016 39.7768 490.016 38.4048V34.0788H488.644V33.0988H490.016V30.5648H491.178V33.0988H493.18V34.0788H491.178V38.4048C491.178 39.1468 491.542 39.5388 492.228 39.5388H493.054V40.5188ZM497.648 40.6728C495.45 40.6728 493.994 39.0628 493.994 36.8368C493.994 34.3028 495.632 32.9308 497.508 32.9308C499.552 32.9308 500.868 34.3028 500.91 36.6828V37.0048H495.156C495.226 38.5868 496.15 39.6648 497.648 39.6648C498.684 39.6648 499.44 39.1468 499.748 38.1808H500.882C500.546 39.7068 499.342 40.6728 497.648 40.6728ZM495.226 36.0388H499.692C499.482 34.7368 498.698 33.9388 497.508 33.9388C496.332 33.9388 495.464 34.7088 495.226 36.0388ZM503.6 40.5188H502.438V33.0988H503.362L503.474 34.2328C503.978 33.4488 504.944 32.9308 506.05 32.9308C507.646 32.9308 508.71 33.9668 508.71 35.6048V40.5188H507.548V35.6468C507.548 34.6108 506.876 33.9528 505.756 33.9528C504.426 33.9528 503.614 34.8768 503.6 36.0108V40.5188ZM517.541 40.5188H516.715C515.273 40.5188 514.503 39.7768 514.503 38.4048V34.0788H513.131V33.0988H514.503V30.5648H515.665V33.0988H517.667V34.0788H515.665V38.4048C515.665 39.1468 516.029 39.5388 516.715 39.5388H517.541V40.5188ZM519.624 31.8528C519.134 31.8528 518.756 31.4748 518.756 30.9848C518.756 30.4948 519.134 30.1308 519.624 30.1308C520.114 30.1308 520.478 30.4948 520.478 30.9848C520.478 31.4748 520.114 31.8528 519.624 31.8528ZM520.198 40.5188H519.036V33.0988H520.198V40.5188ZM523.302 40.5188H522.14V30.0188H523.302V40.5188ZM531.328 32.3008C530.53 32.3008 529.928 31.7268 529.928 30.9708C529.928 30.2148 530.53 29.6408 531.328 29.6408C532.126 29.6408 532.728 30.2148 532.728 30.9708C532.728 31.7268 532.126 32.3008 531.328 32.3008ZM531.328 31.6008C531.692 31.6008 531.958 31.3348 531.958 30.9708C531.958 30.6068 531.692 30.3408 531.328 30.3408C530.964 30.3408 530.698 30.6068 530.698 30.9708C530.698 31.3348 530.964 31.6008 531.328 31.6008ZM530.782 40.6308C529.102 40.6308 528.024 39.7628 528.024 38.4048C528.024 36.6968 529.676 36.3748 531.16 36.2208C532.294 36.1088 533.274 36.1228 533.288 35.5208C533.274 34.5828 532.504 33.9248 531.384 33.9248C530.306 33.9248 529.466 34.5268 529.34 35.4088H528.192C528.332 33.9528 529.648 32.9308 531.412 32.9308C533.246 32.9308 534.422 34.0228 534.422 35.5908V39.2028C534.422 39.4408 534.548 39.5668 534.8 39.5668H535.22V40.5188H534.562C533.764 40.5188 533.344 40.1548 533.344 39.4688V39.2448C532.91 40.0988 532.07 40.6308 530.782 40.6308ZM530.95 39.6368C532.336 39.6368 533.288 38.7548 533.288 37.5228V36.5568C532.966 36.9908 532.14 37.0748 531.23 37.1728C530.208 37.2848 529.186 37.4248 529.186 38.3768C529.186 39.1468 529.886 39.6368 530.95 39.6368ZM542.439 40.6728C540.675 40.6728 539.373 39.7488 539.275 38.1808H540.409C540.493 39.1468 541.375 39.6788 542.495 39.6788C543.545 39.6788 544.049 39.2728 544.049 38.5308C544.049 37.8308 543.503 37.6768 542.733 37.4108L541.655 37.0468C540.563 36.6828 539.471 36.3468 539.471 35.0028C539.471 33.7428 540.451 32.9308 542.075 32.9308C543.713 32.9308 544.847 33.8128 545.029 35.4648H543.895C543.769 34.4288 543.041 33.9248 542.033 33.9248C541.123 33.9248 540.591 34.3308 540.591 34.9748C540.591 35.7448 541.403 35.8988 542.019 36.1088L543.027 36.4448C544.385 36.8928 545.197 37.3548 545.197 38.5868C545.197 39.8888 544.245 40.6728 542.439 40.6728ZM547.83 40.5188H546.668V30.0188H547.83V36.7528L551.442 33.0988H552.842L550.168 35.8008L553.248 40.5188H551.89L549.37 36.6128L547.83 38.1668V40.5188ZM556.553 40.6308C554.873 40.6308 553.795 39.7628 553.795 38.4048C553.795 36.6968 555.447 36.3748 556.931 36.2208C558.065 36.1088 559.045 36.1228 559.059 35.5208C559.045 34.5828 558.275 33.9248 557.155 33.9248C556.077 33.9248 555.237 34.5268 555.111 35.4088H553.963C554.103 33.9528 555.419 32.9308 557.183 32.9308C559.017 32.9308 560.193 34.0228 560.193 35.5908V39.2028C560.193 39.4408 560.319 39.5668 560.571 39.5668H560.991V40.5188H560.333C559.535 40.5188 559.115 40.1548 559.115 39.4688V39.2448C558.681 40.0988 557.841 40.6308 556.553 40.6308ZM556.721 39.6368C558.107 39.6368 559.059 38.7548 559.059 37.5228V36.5568C558.737 36.9908 557.911 37.0748 557.001 37.1728C555.979 37.2848 554.957 37.4248 554.957 38.3768C554.957 39.1468 555.657 39.6368 556.721 39.6368ZM563.498 40.5188H562.336V30.0188H563.498V40.5188ZM568.714 40.6728C566.516 40.6728 565.06 39.0628 565.06 36.8368C565.06 34.3028 566.698 32.9308 568.574 32.9308C570.618 32.9308 571.934 34.3028 571.976 36.6828V37.0048H566.222C566.292 38.5868 567.216 39.6648 568.714 39.6648C569.75 39.6648 570.506 39.1468 570.814 38.1808H571.948C571.612 39.7068 570.408 40.6728 568.714 40.6728ZM566.292 36.0388H570.758C570.548 34.7368 569.764 33.9388 568.574 33.9388C567.398 33.9388 566.53 34.7088 566.292 36.0388ZM574.667 40.5188H573.505V33.0988H574.429L574.569 34.5128C575.045 33.5608 575.913 33.0568 577.145 33.0568H577.397V34.2048H577.145C575.577 34.2048 574.667 35.1008 574.667 36.6268V40.5188ZM581.662 40.6728C579.464 40.6728 578.008 39.0628 578.008 36.8368C578.008 34.3028 579.646 32.9308 581.522 32.9308C583.566 32.9308 584.882 34.3028 584.924 36.6828V37.0048H579.17C579.24 38.5868 580.164 39.6648 581.662 39.6648C582.698 39.6648 583.454 39.1468 583.762 38.1808H584.896C584.56 39.7068 583.356 40.6728 581.662 40.6728ZM579.24 36.0388H583.706C583.496 34.7368 582.712 33.9388 581.522 33.9388C580.346 33.9388 579.478 34.7088 579.24 36.0388ZM591.585 40.5188H590.423V34.0788H589.051V33.0988H590.423V32.0628C590.423 30.7328 591.165 30.0188 592.537 30.0188H594.189V30.9988H592.537C591.921 30.9988 591.585 31.3768 591.585 32.0628V33.0988H593.993V34.0788H591.585V40.5188ZM598.286 40.6728C595.906 40.6728 594.646 38.9788 594.646 36.7388C594.646 34.2608 596.27 32.9308 598.286 32.9308C600.652 32.9308 601.926 34.6388 601.926 36.7388C601.926 39.3008 600.372 40.6728 598.286 40.6728ZM598.286 39.6648C599.868 39.6648 600.736 38.3488 600.736 36.7388C600.736 35.0728 599.77 33.9388 598.286 33.9388C596.802 33.9388 595.836 35.0728 595.836 36.7388C595.836 38.6428 596.942 39.6648 598.286 39.6648ZM604.608 40.5188H603.446V33.0988H604.37L604.51 34.5128C604.986 33.5608 605.854 33.0568 607.086 33.0568H607.338V34.2048H607.086C605.518 34.2048 604.608 35.1008 604.608 36.6268V40.5188ZM612.975 40.5188H611.813V33.0988H612.737L612.877 34.5128C613.353 33.5608 614.221 33.0568 615.453 33.0568H615.705V34.2048H615.453C613.885 34.2048 612.975 35.1008 612.975 36.6268V40.5188ZM617.624 31.8528C617.134 31.8528 616.756 31.4748 616.756 30.9848C616.756 30.4948 617.134 30.1308 617.624 30.1308C618.114 30.1308 618.478 30.4948 618.478 30.9848C618.478 31.4748 618.114 31.8528 617.624 31.8528ZM618.198 40.5188H617.036V33.0988H618.198V40.5188ZM621.302 40.5188H620.14V30.0188H621.302V36.7528L624.914 33.0988H626.314L623.64 35.8008L626.72 40.5188H625.362L622.842 36.6128L621.302 38.1668V40.5188ZM631.564 40.5188H630.738C629.296 40.5188 628.526 39.7768 628.526 38.4048V34.0788H627.154V33.0988H628.526V30.5648H629.688V33.0988H631.69V34.0788H629.688V38.4048C629.688 39.1468 630.052 39.5388 630.738 39.5388H631.564V40.5188ZM633.647 31.8528C633.157 31.8528 632.779 31.4748 632.779 30.9848C632.779 30.4948 633.157 30.1308 633.647 30.1308C634.137 30.1308 634.501 30.4948 634.501 30.9848C634.501 31.4748 634.137 31.8528 633.647 31.8528ZM634.221 40.5188H633.059V33.0988H634.221V40.5188ZM639.356 43.4868C637.354 43.4868 635.996 42.5208 635.996 40.9528H637.158C637.158 41.8348 638.054 42.5068 639.356 42.5068C640.882 42.5068 641.68 41.5968 641.68 40.3228V39.1188C641.162 39.8888 640.266 40.3928 639.132 40.3928C637.158 40.3928 635.744 38.8808 635.744 36.6968C635.744 34.4708 637.172 32.9308 639.132 32.9308C640.322 32.9308 641.288 33.4908 641.792 34.3868L641.918 33.0988H642.828V40.3228C642.828 42.1988 641.568 43.4868 639.356 43.4868ZM639.3 39.3848C640.7 39.3848 641.68 38.2648 641.68 36.6548C641.68 35.0588 640.7 33.9388 639.3 33.9388C637.914 33.9388 636.948 35.0588 636.948 36.6828C636.948 38.2788 637.914 39.3848 639.3 39.3848ZM649.084 40.5188H647.922V30.0188H649.084V34.0508C649.616 33.3788 650.526 32.9308 651.534 32.9308C653.13 32.9308 654.194 33.9668 654.194 35.6048V40.5188H653.032V35.6468C653.032 34.6108 652.36 33.9528 651.31 33.9528C649.91 33.9528 649.098 34.8768 649.084 36.0108V40.5188ZM662.791 32.9308L661.951 34.0088C662.581 34.6948 662.917 35.6608 662.917 36.7388C662.917 39.3008 661.363 40.6728 659.277 40.6728C658.437 40.6728 657.737 40.4628 657.177 40.0848L656.351 41.1348L655.763 40.7288L656.631 39.6228C655.973 38.9088 655.637 37.9008 655.637 36.7388C655.637 34.2608 657.261 32.9308 659.277 32.9308C660.131 32.9308 660.845 33.1548 661.405 33.5328L662.189 32.5248L662.791 32.9308ZM656.827 36.7388C656.827 37.5508 657.023 38.2088 657.359 38.6848L660.719 34.4008C660.327 34.1068 659.837 33.9388 659.277 33.9388C657.793 33.9388 656.827 35.0728 656.827 36.7388ZM659.277 39.6648C660.859 39.6648 661.727 38.3488 661.727 36.7388C661.727 36.0248 661.545 35.3948 661.223 34.9328L657.863 39.2028C658.269 39.5108 658.758 39.6648 659.277 39.6648ZM665.059 43.3188H663.869V42.3388H665.059C665.815 42.3388 666.137 42.0728 666.305 41.6248L666.711 40.5188H666.431L663.491 33.0988H664.737L667.145 39.3568L669.469 33.0988H670.659L667.327 42.0728C667.019 42.8848 666.333 43.3188 665.059 43.3188ZM674.61 40.6728C672.622 40.6728 671.236 39.0768 671.236 36.7668C671.236 34.4988 672.608 32.9308 674.596 32.9308C675.716 32.9308 676.654 33.4208 677.186 34.2048V30.0188H678.348V40.5188H677.424L677.298 39.0908C676.808 40.0568 675.828 40.6728 674.61 40.6728ZM674.792 39.6648C676.206 39.6648 677.186 38.4608 677.186 36.7388C677.186 35.0728 676.234 33.9248 674.862 33.9248C673.434 33.9248 672.44 35.0868 672.44 36.7668C672.44 38.4748 673.406 39.6648 674.792 39.6648ZM683.572 40.6728C681.374 40.6728 679.918 39.0628 679.918 36.8368C679.918 34.3028 681.556 32.9308 683.432 32.9308C685.476 32.9308 686.792 34.3028 686.834 36.6828V37.0048H681.08C681.15 38.5868 682.074 39.6648 683.572 39.6648C684.608 39.6648 685.364 39.1468 685.672 38.1808H686.806C686.47 39.7068 685.266 40.6728 683.572 40.6728ZM681.15 36.0388H685.616C685.406 34.7368 684.622 33.9388 683.432 33.9388C682.256 33.9388 681.388 34.7088 681.15 36.0388ZM694.769 40.6728C692.389 40.6728 691.129 38.9788 691.129 36.7388C691.129 34.2608 692.753 32.9308 694.769 32.9308C697.135 32.9308 698.409 34.6388 698.409 36.7388C698.409 39.3008 696.855 40.6728 694.769 40.6728ZM694.769 39.6648C696.351 39.6648 697.219 38.3488 697.219 36.7388C697.219 35.0728 696.253 33.9388 694.769 33.9388C693.285 33.9388 692.319 35.0728 692.319 36.7388C692.319 38.6428 693.425 39.6648 694.769 39.6648ZM703.163 43.4868C701.161 43.4868 699.803 42.5208 699.803 40.9528H700.965C700.965 41.8348 701.861 42.5068 703.163 42.5068C704.689 42.5068 705.487 41.5968 705.487 40.3228V39.1188C704.969 39.8888 704.073 40.3928 702.939 40.3928C700.965 40.3928 699.551 38.8808 699.551 36.6968C699.551 34.4708 700.979 32.9308 702.939 32.9308C704.129 32.9308 705.095 33.4908 705.599 34.3868L705.725 33.0988H706.635V40.3228C706.635 42.1988 705.375 43.4868 703.163 43.4868ZM703.107 39.3848C704.507 39.3848 705.487 38.2648 705.487 36.6548C705.487 35.0588 704.507 33.9388 703.107 33.9388C701.721 33.9388 700.755 35.0588 700.755 36.6828C700.755 38.2788 701.721 39.3848 703.107 39.3848ZM415.092 65.5188H413.874L410.78 58.0988H412.04L414.49 64.1608L416.926 58.0988H418.186L415.092 65.5188ZM422.425 65.6728C420.227 65.6728 418.771 64.0628 418.771 61.8368C418.771 59.3028 420.409 57.9308 422.285 57.9308C424.329 57.9308 425.645 59.3028 425.687 61.6828V62.0048H419.933C420.003 63.5868 420.927 64.6648 422.425 64.6648C423.461 64.6648 424.217 64.1468 424.525 63.1808H425.659C425.323 64.7068 424.119 65.6728 422.425 65.6728ZM420.003 61.0388H424.469C424.259 59.7368 423.475 58.9388 422.285 58.9388C421.109 58.9388 420.241 59.7088 420.003 61.0388ZM428.42 65.5188H427.258V55.0188H428.42V61.7528L432.032 58.0988H433.432L430.758 60.8008L433.838 65.5188H432.48L429.96 61.6128L428.42 63.1668V65.5188ZM438.681 65.5188H437.855C436.413 65.5188 435.643 64.7768 435.643 63.4048V59.0788H434.271V58.0988H435.643V55.5648H436.805V58.0988H438.807V59.0788H436.805V63.4048C436.805 64.1468 437.169 64.5388 437.855 64.5388H438.681V65.5188ZM446.023 65.6728C444.217 65.6728 443.181 64.5668 443.181 63.0548V58.0988H444.343V63.0128C444.343 64.0768 445.085 64.6508 446.135 64.6508C447.521 64.6508 448.277 63.7268 448.291 62.6068V58.0988H449.453V65.5188H448.529L448.431 64.3988C447.941 65.2388 447.045 65.6728 446.023 65.6728ZM455.224 65.5188H454.398C452.956 65.5188 452.186 64.7768 452.186 63.4048V59.0788H450.814V58.0988H452.186V55.5648H453.348V58.0988H455.35V59.0788H453.348V63.4048C453.348 64.1468 453.712 64.5388 454.398 64.5388H455.224V65.5188ZM459.804 65.6728C457.424 65.6728 456.164 63.9788 456.164 61.7388C456.164 59.2608 457.788 57.9308 459.804 57.9308C462.17 57.9308 463.444 59.6388 463.444 61.7388C463.444 64.3008 461.89 65.6728 459.804 65.6728ZM459.804 64.6648C461.386 64.6648 462.254 63.3488 462.254 61.7388C462.254 60.0728 461.288 58.9388 459.804 58.9388C458.32 58.9388 457.354 60.0728 457.354 61.7388C457.354 63.6428 458.46 64.6648 459.804 64.6648ZM468.33 65.5188H467.112L464.018 58.0988H465.278L467.728 64.1608L470.164 58.0988H471.424L468.33 65.5188ZM475.664 65.6728C473.466 65.6728 472.01 64.0628 472.01 61.8368C472.01 59.3028 473.648 57.9308 475.524 57.9308C477.568 57.9308 478.884 59.3028 478.926 61.6828V62.0048H473.172C473.242 63.5868 474.166 64.6648 475.664 64.6648C476.7 64.6648 477.456 64.1468 477.764 63.1808H478.898C478.562 64.7068 477.358 65.6728 475.664 65.6728ZM473.242 61.0388H477.708C477.498 59.7368 476.714 58.9388 475.524 58.9388C474.348 58.9388 473.48 59.7088 473.242 61.0388ZM481.616 65.5188H480.454V58.0988H481.378L481.518 59.5128C481.994 58.5608 482.862 58.0568 484.094 58.0568H484.346V59.2048H484.094C482.526 59.2048 481.616 60.1008 481.616 61.6268V65.5188ZM492.055 68.4868C490.053 68.4868 488.695 67.5208 488.695 65.9528H489.857C489.857 66.8348 490.753 67.5068 492.055 67.5068C493.581 67.5068 494.379 66.5968 494.379 65.3228V64.1188C493.861 64.8888 492.965 65.3928 491.831 65.3928C489.857 65.3928 488.443 63.8808 488.443 61.6968C488.443 59.4708 489.871 57.9308 491.831 57.9308C493.021 57.9308 493.987 58.4908 494.491 59.3868L494.617 58.0988H495.527V65.3228C495.527 67.1988 494.267 68.4868 492.055 68.4868ZM491.999 64.3848C493.399 64.3848 494.379 63.2648 494.379 61.6548C494.379 60.0588 493.399 58.9388 491.999 58.9388C490.613 58.9388 489.647 60.0588 489.647 61.6828C489.647 63.2788 490.613 64.3848 491.999 64.3848ZM498.596 65.5188H497.434V58.0988H498.358L498.498 59.5128C498.974 58.5608 499.842 58.0568 501.074 58.0568H501.326V59.2048H501.074C499.506 59.2048 498.596 60.1008 498.596 61.6268V65.5188ZM505.359 65.6728C503.553 65.6728 502.517 64.5668 502.517 63.0548V58.0988H503.679V63.0128C503.679 64.0768 504.421 64.6508 505.471 64.6508C506.857 64.6508 507.613 63.7268 507.627 62.6068V58.0988H508.789V65.5188H507.865L507.767 64.3988C507.277 65.2388 506.381 65.6728 505.359 65.6728ZM511.858 65.5188H510.696V58.0988H511.62L511.732 59.2328C512.236 58.4488 513.202 57.9308 514.308 57.9308C515.904 57.9308 516.968 58.9668 516.968 60.6048V65.5188H515.806V60.6468C515.806 59.6108 515.134 58.9528 514.014 58.9528C512.684 58.9528 511.872 59.8768 511.858 61.0108V65.5188ZM519.952 65.5188H518.79V58.0988H519.714L519.826 59.2328C520.33 58.4488 521.296 57.9308 522.402 57.9308C523.998 57.9308 525.062 58.9668 525.062 60.6048V65.5188H523.9V60.6468C523.9 59.6108 523.228 58.9528 522.108 58.9528C520.778 58.9528 519.966 59.8768 519.952 61.0108V65.5188ZM529.656 65.6728C527.892 65.6728 526.59 64.7488 526.492 63.1808H527.626C527.71 64.1468 528.592 64.6788 529.712 64.6788C530.762 64.6788 531.266 64.2728 531.266 63.5308C531.266 62.8308 530.72 62.6768 529.95 62.4108L528.872 62.0468C527.78 61.6828 526.688 61.3468 526.688 60.0028C526.688 58.7428 527.668 57.9308 529.292 57.9308C530.93 57.9308 532.064 58.8128 532.246 60.4648H531.112C530.986 59.4288 530.258 58.9248 529.25 58.9248C528.34 58.9248 527.808 59.3308 527.808 59.9748C527.808 60.7448 528.62 60.8988 529.236 61.1088L530.244 61.4448C531.602 61.8928 532.414 62.3548 532.414 63.5868C532.414 64.8888 531.462 65.6728 529.656 65.6728ZM537.515 65.5188H536.689C535.247 65.5188 534.477 64.7768 534.477 63.4048V59.0788H533.105V58.0988H534.477V55.5648H535.639V58.0988H537.641V59.0788H535.639V63.4048C535.639 64.1468 536.003 64.5388 536.689 64.5388H537.515V65.5188ZM545.609 57.9308L544.769 59.0088C545.399 59.6948 545.735 60.6608 545.735 61.7388C545.735 64.3008 544.181 65.6728 542.095 65.6728C541.255 65.6728 540.555 65.4628 539.995 65.0848L539.169 66.1348L538.581 65.7288L539.449 64.6228C538.791 63.9088 538.455 62.9008 538.455 61.7388C538.455 59.2608 540.079 57.9308 542.095 57.9308C542.949 57.9308 543.663 58.1548 544.223 58.5328L545.007 57.5248L545.609 57.9308ZM539.645 61.7388C539.645 62.5508 539.841 63.2088 540.177 63.6848L543.537 59.4008C543.145 59.1068 542.655 58.9388 542.095 58.9388C540.611 58.9388 539.645 60.0728 539.645 61.7388ZM542.095 64.6648C543.677 64.6648 544.545 63.3488 544.545 61.7388C544.545 61.0248 544.363 60.3948 544.041 59.9328L540.681 64.2028C541.087 64.5108 541.577 64.6648 542.095 64.6648ZM548.417 65.5188H547.255V58.0988H548.179L548.319 59.5128C548.795 58.5608 549.663 58.0568 550.895 58.0568H551.147V59.2048H550.895C549.327 59.2048 548.417 60.1008 548.417 61.6268V65.5188ZM553.639 65.5188H552.477V58.0988H553.401L553.541 59.5128C554.017 58.5608 554.885 58.0568 556.117 58.0568H556.369V59.2048H556.117C554.549 59.2048 553.639 60.1008 553.639 61.6268V65.5188ZM560.634 65.6728C558.436 65.6728 556.98 64.0628 556.98 61.8368C556.98 59.3028 558.618 57.9308 560.494 57.9308C562.538 57.9308 563.854 59.3028 563.896 61.6828V62.0048H558.142C558.212 63.5868 559.136 64.6648 560.634 64.6648C561.67 64.6648 562.426 64.1468 562.734 63.1808H563.868C563.532 64.7068 562.328 65.6728 560.634 65.6728ZM558.212 61.0388H562.678C562.468 59.7368 561.684 58.9388 560.494 58.9388C559.318 58.9388 558.45 59.7088 558.212 61.0388ZM566.629 65.5188H565.467V55.0188H566.629V65.5188ZM571.341 65.6728C569.577 65.6728 568.275 64.7488 568.177 63.1808H569.311C569.395 64.1468 570.277 64.6788 571.397 64.6788C572.447 64.6788 572.951 64.2728 572.951 63.5308C572.951 62.8308 572.405 62.6768 571.635 62.4108L570.557 62.0468C569.465 61.6828 568.373 61.3468 568.373 60.0028C568.373 58.7428 569.353 57.9308 570.977 57.9308C572.615 57.9308 573.749 58.8128 573.931 60.4648H572.797C572.671 59.4288 571.943 58.9248 570.935 58.9248C570.025 58.9248 569.493 59.3308 569.493 59.9748C569.493 60.7448 570.305 60.8988 570.921 61.1088L571.929 61.4448C573.287 61.8928 574.099 62.3548 574.099 63.5868C574.099 64.8888 573.147 65.6728 571.341 65.6728ZM578.804 65.6728C576.606 65.6728 575.15 64.0628 575.15 61.8368C575.15 59.3028 576.788 57.9308 578.664 57.9308C580.708 57.9308 582.024 59.3028 582.066 61.6828V62.0048H576.312C576.382 63.5868 577.306 64.6648 578.804 64.6648C579.84 64.6648 580.596 64.1468 580.904 63.1808H582.038C581.702 64.7068 580.498 65.6728 578.804 65.6728ZM576.382 61.0388H580.848C580.638 59.7368 579.854 58.9388 578.664 58.9388C577.488 58.9388 576.62 59.7088 576.382 61.0388ZM584.757 65.5188H583.595V58.0988H584.519L584.631 59.2328C585.135 58.4488 586.101 57.9308 587.207 57.9308C588.803 57.9308 589.867 58.9668 589.867 60.6048V65.5188H588.705V60.6468C588.705 59.6108 588.033 58.9528 586.913 58.9528C585.583 58.9528 584.771 59.8768 584.757 61.0108V65.5188ZM601.175 58.3788C601.175 61.7388 596.037 61.5988 596.037 64.4408H601.035V65.5188H594.791V64.5948C594.791 60.9968 599.957 61.0388 599.957 58.3788C599.957 57.3428 599.229 56.6428 598.053 56.6428C596.821 56.6428 595.841 57.4128 595.813 58.9948H594.581C594.693 56.7548 596.163 55.5648 598.067 55.5648C599.943 55.5648 601.175 56.6988 601.175 58.3788ZM606.304 65.6728C604.022 65.6728 602.566 63.6848 602.566 60.5908C602.566 57.5248 604.022 55.5648 606.304 55.5648C608.586 55.5648 610.042 57.5248 610.042 60.5908C610.042 63.6848 608.586 65.6728 606.304 65.6728ZM606.304 64.5948C607.844 64.5948 608.838 63.0268 608.838 60.5908C608.838 58.1828 607.844 56.6428 606.304 56.6428C604.764 56.6428 603.77 58.1828 603.77 60.5908C603.77 63.0268 604.764 64.5948 606.304 64.5948ZM612.921 68.3188H611.759V58.0988H612.683L612.809 59.4428C613.341 58.5188 614.321 57.9308 615.525 57.9308C617.485 57.9308 618.857 59.4988 618.857 61.7668C618.857 64.0768 617.485 65.6728 615.525 65.6728C614.391 65.6728 613.453 65.1548 612.921 64.2868V68.3188ZM615.343 64.6648C616.715 64.6648 617.653 63.4748 617.653 61.7668C617.653 60.1008 616.715 58.9388 615.329 58.9388C613.929 58.9388 612.921 60.0728 612.921 61.7108C612.921 63.4468 613.929 64.6648 615.343 64.6648ZM620.717 65.5188H619.401L622.089 61.8368L619.429 58.0988H620.731L622.747 60.9688L624.749 58.0988H626.051L623.391 61.8228L626.079 65.5188H624.763L622.747 62.6628L620.717 65.5188ZM628.439 65.6588C627.935 65.6588 627.557 65.2808 627.557 64.7768C627.557 64.2868 627.935 63.9088 628.439 63.9088C628.943 63.9088 629.321 64.2868 629.321 64.7768C629.321 65.2808 628.943 65.6588 628.439 65.6588Z" fill="#481125"/>
<rect x="383" y="99.0188" width="313" height="178.405" rx="12.7123" fill="#FDF9F9"/>
<rect x="383" y="99.0188" width="313" height="178.405" rx="12.7123" stroke="#691837"/>
<g clip-path="url(#clip2_826_79730)">
<path d="M450.251 168.251L456.622 174.624M452.003 159.229C453.778 163.405 451.831 168.229 447.655 170.003C443.479 171.778 438.655 169.832 436.881 165.656C435.106 161.48 437.052 156.656 441.228 154.881C445.404 153.106 450.228 155.053 452.003 159.229Z" stroke="#28000E" stroke-width="1.63158" stroke-linecap="round" stroke-linejoin="round"/>
<path d="M502.143 166.84L509.789 174.488M504.246 156.014C506.375 161.025 504.039 166.814 499.029 168.943C494.017 171.073 488.229 168.737 486.099 163.726C483.969 158.715 486.305 152.926 491.316 150.797C496.328 148.667 502.116 151.003 504.246 156.014Z" stroke="#28000E" stroke-width="1.95789" stroke-linecap="round" stroke-linejoin="round"/>
<path d="M561.328 164.019L571.523 174.216M564.131 149.584C566.971 156.265 563.856 163.984 557.175 166.823C550.493 169.663 542.775 166.548 539.935 159.867C537.096 153.185 540.211 145.467 546.892 142.627C553.573 139.788 561.292 142.902 564.131 149.584Z" stroke="#28000E" stroke-width="2.61052" stroke-linecap="round" stroke-linejoin="round"/>
<path d="M629.215 161.198L641.959 173.944M632.72 143.154C636.269 151.506 632.376 161.154 624.024 164.703C615.672 168.253 606.024 164.359 602.474 156.007C598.925 147.656 602.818 138.008 611.17 134.458C619.522 130.909 629.17 134.802 632.72 143.154Z" stroke="#28000E" stroke-width="3.26315" stroke-linecap="round" stroke-linejoin="round"/>
<path d="M501.304 220.72C501.304 223.983 496.314 223.847 496.314 226.607H501.168V227.655H495.104V226.757C495.104 223.262 500.121 223.303 500.121 220.72C500.121 219.713 499.414 219.034 498.272 219.034C497.075 219.034 496.123 219.781 496.096 221.318H494.9C495.008 219.142 496.436 217.987 498.285 217.987C500.107 217.987 501.304 219.088 501.304 220.72ZM506.286 227.804C504.07 227.804 502.656 225.873 502.656 222.868C502.656 219.89 504.07 217.987 506.286 217.987C508.503 217.987 509.917 219.89 509.917 222.868C509.917 225.873 508.503 227.804 506.286 227.804ZM506.286 226.757C507.782 226.757 508.747 225.234 508.747 222.868C508.747 220.529 507.782 219.034 506.286 219.034C504.79 219.034 503.825 220.529 503.825 222.868C503.825 225.234 504.79 226.757 506.286 226.757ZM512.713 230.374H511.585V220.448H512.482L512.604 221.753C513.121 220.856 514.073 220.285 515.242 220.285C517.146 220.285 518.479 221.808 518.479 224.01C518.479 226.254 517.146 227.804 515.242 227.804C514.141 227.804 513.23 227.301 512.713 226.458V230.374ZM515.066 226.825C516.398 226.825 517.309 225.669 517.309 224.01C517.309 222.392 516.398 221.264 515.052 221.264C513.692 221.264 512.713 222.365 512.713 223.956C512.713 225.642 513.692 226.825 515.066 226.825ZM520.285 227.655H519.007L521.618 224.078L519.034 220.448H520.299L522.257 223.235L524.201 220.448H525.466L522.882 224.065L525.493 227.655H524.215L522.257 224.881L520.285 227.655ZM533.256 226.485H532.222V223.902H529.516V222.95H532.222V220.366H533.256V222.95H535.962V223.902H533.256V226.485Z" fill="#28000E"/>
<path d="M542.491 206.45C542.491 204.268 544.26 202.499 546.444 202.499H580.693C582.875 202.499 584.644 204.268 584.644 206.45V240.7C584.644 242.883 582.875 244.652 580.693 244.652H546.444C544.26 244.652 542.491 242.883 542.491 240.7V206.45Z" fill="#691837"/>
<path d="M560.041 228.675H558.732V215.765H560.041V223.161L566.994 215.765H568.709L563.601 221.095L569.134 228.675H567.511L562.697 222.054L560.041 224.839V228.675Z" fill="#FDF9F9"/>
</g>
<defs>
<clipPath id="clip0_826_79730">
<rect width="8" height="8" fill="white" transform="translate(30 30.5188)"/>
</clipPath>
<clipPath id="clip1_826_79730">
<rect width="247.801" height="94.5804" fill="white" transform="translate(57.0997 114.519)"/>
</clipPath>
<clipPath id="clip2_826_79730">
<rect width="252.236" height="156.373" fill="white" transform="translate(413.382 110.035)"/>
</clipPath>
</defs>
</svg>
