<svg width="642" height="307" viewBox="0 0 642 307" fill="none" xmlns="http://www.w3.org/2000/svg">
<path d="M246.44 158.489V157.574L249.875 153.815C250.278 153.375 250.609 152.992 250.87 152.667C251.131 152.338 251.324 152.03 251.449 151.742C251.578 151.451 251.642 151.146 251.642 150.827C251.642 150.461 251.555 150.145 251.379 149.877C251.206 149.61 250.968 149.403 250.667 149.258C250.366 149.112 250.027 149.039 249.651 149.039C249.251 149.039 248.902 149.122 248.605 149.288C248.31 149.451 248.081 149.679 247.918 149.974C247.759 150.268 247.68 150.614 247.68 151.01H246.481C246.481 150.401 246.622 149.865 246.902 149.405C247.184 148.944 247.566 148.585 248.05 148.328C248.539 148.07 249.086 147.942 249.692 147.942C250.301 147.942 250.842 148.07 251.313 148.328C251.783 148.585 252.153 148.933 252.42 149.37C252.688 149.807 252.821 150.292 252.821 150.827C252.821 151.21 252.752 151.584 252.613 151.951C252.478 152.313 252.24 152.717 251.902 153.165C251.566 153.608 251.101 154.15 250.505 154.79L248.168 157.29V157.371H253.004V158.489H246.44ZM258.496 158.631C257.731 158.631 257.079 158.423 256.54 158.006C256.001 157.586 255.59 156.978 255.305 156.182C255.021 155.383 254.879 154.418 254.879 153.286C254.879 152.162 255.021 151.202 255.305 150.406C255.593 149.606 256.007 148.997 256.545 148.577C257.087 148.153 257.737 147.942 258.496 147.942C259.255 147.942 259.903 148.153 260.442 148.577C260.984 148.997 261.397 149.606 261.682 150.406C261.969 151.202 262.113 152.162 262.113 153.286C262.113 154.418 261.971 155.383 261.687 156.182C261.402 156.978 260.991 157.586 260.452 158.006C259.914 158.423 259.261 158.631 258.496 158.631ZM258.496 157.514C259.255 157.514 259.844 157.148 260.264 156.416C260.684 155.684 260.894 154.641 260.894 153.286C260.894 152.386 260.798 151.618 260.605 150.985C260.415 150.352 260.141 149.869 259.782 149.537C259.426 149.205 258.997 149.039 258.496 149.039C257.744 149.039 257.157 149.41 256.733 150.152C256.31 150.89 256.098 151.935 256.098 153.286C256.098 154.187 256.193 154.953 256.383 155.583C256.573 156.213 256.845 156.692 257.201 157.021C257.56 157.349 257.992 157.514 258.496 157.514ZM264.064 161.415V150.685H265.223V151.925H265.365C265.453 151.79 265.575 151.617 265.731 151.407C265.89 151.193 266.116 151.004 266.412 150.838C266.709 150.668 267.112 150.584 267.621 150.584C268.277 150.584 268.857 150.748 269.358 151.076C269.859 151.405 270.251 151.871 270.532 152.473C270.813 153.076 270.953 153.788 270.953 154.607C270.953 155.434 270.813 156.15 270.532 156.757C270.251 157.359 269.861 157.827 269.363 158.159C268.865 158.487 268.291 158.651 267.641 158.651C267.14 158.651 266.738 158.568 266.437 158.403C266.136 158.233 265.903 158.041 265.741 157.828C265.578 157.612 265.453 157.432 265.365 157.29H265.264V161.415H264.064ZM265.243 154.587C265.243 155.177 265.33 155.696 265.502 156.147C265.675 156.594 265.927 156.944 266.259 157.198C266.591 157.449 266.997 157.574 267.478 157.574C267.98 157.574 268.398 157.442 268.733 157.178C269.072 156.91 269.326 156.552 269.495 156.101C269.668 155.647 269.754 155.143 269.754 154.587C269.754 154.038 269.67 153.543 269.5 153.103C269.334 152.66 269.082 152.309 268.743 152.052C268.408 151.791 267.986 151.661 267.478 151.661C266.991 151.661 266.581 151.784 266.249 152.032C265.917 152.276 265.667 152.617 265.497 153.058C265.328 153.494 265.243 154.004 265.243 154.587ZM273.355 150.685L275.225 153.876L277.095 150.685H278.476L275.956 154.587L278.476 158.489H277.095L275.225 155.461L273.355 158.489H271.973L274.453 154.587L271.973 150.685H273.355Z" fill="#28000E"/>
<path d="M137.844 257.518V256.604L141.279 252.844C141.682 252.403 142.013 252.021 142.274 251.695C142.535 251.367 142.728 251.059 142.853 250.771C142.982 250.48 143.046 250.175 143.046 249.856C143.046 249.491 142.958 249.174 142.782 248.907C142.609 248.639 142.372 248.432 142.071 248.287C141.769 248.141 141.431 248.069 141.055 248.069C140.655 248.069 140.306 248.151 140.008 248.317C139.714 248.48 139.485 248.708 139.322 249.003C139.164 249.298 139.084 249.643 139.084 250.04H137.884C137.884 249.43 138.025 248.895 138.306 248.434C138.587 247.974 138.97 247.614 139.455 247.357C139.942 247.1 140.489 246.971 141.095 246.971C141.705 246.971 142.246 247.1 142.716 247.357C143.187 247.614 143.556 247.962 143.823 248.398C144.091 248.835 144.225 249.321 144.225 249.856C144.225 250.239 144.156 250.613 144.016 250.979C143.881 251.342 143.644 251.747 143.305 252.193C142.97 252.637 142.505 253.179 141.909 253.819L139.571 256.319V256.4H144.408V257.518H137.844ZM149.9 257.66C149.135 257.66 148.482 257.452 147.944 257.035C147.406 256.615 146.994 256.007 146.709 255.211C146.425 254.412 146.283 253.447 146.283 252.316C146.283 251.191 146.425 250.231 146.709 249.435C146.997 248.636 147.411 248.026 147.949 247.606C148.491 247.183 149.141 246.971 149.9 246.971C150.658 246.971 151.307 247.183 151.846 247.606C152.387 248.026 152.801 248.636 153.086 249.435C153.373 250.231 153.517 251.191 153.517 252.316C153.517 253.447 153.375 254.412 153.09 255.211C152.806 256.007 152.395 256.615 151.855 257.035C151.317 257.452 150.666 257.66 149.9 257.66ZM149.9 256.542C150.658 256.542 151.248 256.176 151.668 255.445C152.088 254.714 152.298 253.67 152.298 252.316C152.298 251.415 152.201 250.647 152.008 250.014C151.818 249.381 151.544 248.898 151.185 248.566C150.83 248.234 150.401 248.069 149.9 248.069C149.148 248.069 148.56 248.439 148.137 249.181C147.714 249.919 147.501 250.964 147.501 252.316C147.501 253.217 147.596 253.982 147.786 254.612C147.976 255.242 148.249 255.721 148.604 256.049C148.963 256.378 149.395 256.542 149.9 256.542ZM155.468 260.444V249.715H156.626V250.954H156.769C156.856 250.818 156.979 250.645 157.135 250.435C157.294 250.222 157.521 250.032 157.815 249.867C158.113 249.698 158.516 249.612 159.024 249.612C159.682 249.612 160.26 249.777 160.762 250.106C161.263 250.434 161.654 250.9 161.935 251.503C162.217 252.106 162.357 252.817 162.357 253.637C162.357 254.463 162.217 255.179 161.935 255.785C161.654 256.388 161.265 256.855 160.767 257.188C160.269 257.516 159.695 257.68 159.045 257.68C158.543 257.68 158.142 257.597 157.84 257.431C157.539 257.262 157.307 257.071 157.144 256.857C156.982 256.641 156.856 256.461 156.769 256.319H156.667V260.444H155.468ZM156.646 253.616C156.646 254.205 156.733 254.725 156.905 255.176C157.078 255.623 157.331 255.974 157.662 256.227C157.995 256.478 158.401 256.604 158.882 256.604C159.383 256.604 159.802 256.472 160.137 256.207C160.476 255.94 160.73 255.58 160.899 255.13C161.072 254.676 161.158 254.172 161.158 253.616C161.158 253.068 161.074 252.573 160.904 252.133C160.738 251.689 160.485 251.338 160.147 251.081C159.812 250.82 159.39 250.69 158.882 250.69C158.395 250.69 157.984 250.814 157.653 251.061C157.321 251.304 157.07 251.646 156.901 252.087C156.732 252.524 156.646 253.033 156.646 253.616ZM164.759 249.715L166.629 252.904L168.498 249.715H169.88L167.36 253.616L169.88 257.518H168.498L166.629 254.49L164.759 257.518H163.377L165.856 253.616L163.377 249.715H164.759Z" fill="#28000E"/>
<path d="M184.506 183.696L235.871 235.068M198.632 110.965C212.939 144.628 197.247 183.516 163.584 197.822C129.92 212.129 91.0327 196.437 76.7261 162.774C62.4195 129.11 78.1113 90.2228 111.775 75.9161C145.438 61.6095 184.325 77.3012 198.632 110.965Z" stroke="#28000E" stroke-width="10.9615" stroke-linecap="round" stroke-linejoin="round"/>
<path d="M241.756 64.7632H63.9586V241.756H241.756V64.7632Z" stroke="#28000E" stroke-width="0.804511"/>
<path d="M517.802 64.6963H341.48V241.018H517.802V64.6963Z" stroke="#28000E" stroke-width="0.67089"/>
<path d="M357.738 197.128H501.544M357.738 152.88H501.544M357.738 108.632H501.544" stroke="#28000E" stroke-width="12.118" stroke-linecap="round" stroke-linejoin="round"/>
<path d="M523.225 159.293V158.379L526.659 154.619C527.062 154.179 527.394 153.796 527.654 153.471C527.915 153.143 528.108 152.835 528.234 152.547C528.362 152.255 528.427 151.95 528.427 151.632C528.427 151.266 528.339 150.95 528.163 150.682C527.99 150.415 527.752 150.208 527.452 150.062C527.15 149.917 526.811 149.843 526.435 149.843C526.036 149.843 525.686 149.926 525.389 150.093C525.094 150.255 524.865 150.484 524.702 150.778C524.543 151.073 524.464 151.419 524.464 151.814H523.265C523.265 151.205 523.406 150.67 523.686 150.209C523.968 149.749 524.35 149.39 524.834 149.132C525.323 148.875 525.87 148.746 526.476 148.746C527.085 148.746 527.626 148.875 528.097 149.132C528.567 149.39 528.937 149.737 529.204 150.174C529.472 150.611 529.605 151.097 529.605 151.632C529.605 152.015 529.536 152.389 529.397 152.755C529.262 153.117 529.024 153.522 528.686 153.969C528.35 154.412 527.885 154.955 527.289 155.595L524.952 158.095V158.176H529.789V159.293H523.225ZM535.28 159.436C534.515 159.436 533.863 159.227 533.324 158.811C532.785 158.391 532.374 157.782 532.09 156.987C531.806 156.187 531.663 155.222 531.663 154.09C531.663 152.967 531.806 152.006 532.09 151.21C532.378 150.411 532.791 149.802 533.329 149.382C533.872 148.958 534.522 148.746 535.28 148.746C536.039 148.746 536.687 148.958 537.226 149.382C537.768 149.802 538.181 150.411 538.466 151.21C538.753 152.006 538.897 152.967 538.897 154.09C538.897 155.222 538.755 156.187 538.471 156.987C538.186 157.782 537.775 158.391 537.236 158.811C536.698 159.227 536.045 159.436 535.28 159.436ZM535.28 158.318C536.039 158.318 536.629 157.952 537.049 157.22C537.468 156.489 537.678 155.445 537.678 154.09C537.678 153.19 537.582 152.423 537.389 151.79C537.199 151.156 536.925 150.674 536.566 150.341C536.21 150.009 535.781 149.843 535.28 149.843C534.528 149.843 533.941 150.214 533.518 150.956C533.094 151.695 532.882 152.74 532.882 154.09C532.882 154.992 532.977 155.757 533.167 156.387C533.357 157.017 533.629 157.497 533.985 157.825C534.344 158.153 534.776 158.318 535.28 158.318ZM540.848 162.219V151.489H542.007V152.729H542.149C542.237 152.594 542.359 152.421 542.515 152.211C542.674 151.998 542.901 151.808 543.196 151.642C543.493 151.473 543.897 151.388 544.405 151.388C545.061 151.388 545.641 151.552 546.142 151.88C546.643 152.21 547.035 152.675 547.316 153.278C547.597 153.88 547.737 154.592 547.737 155.411C547.737 156.239 547.597 156.955 547.316 157.561C547.035 158.164 546.646 158.631 546.148 158.963C545.65 159.292 545.075 159.456 544.425 159.456C543.924 159.456 543.522 159.373 543.221 159.207C542.92 159.037 542.687 158.846 542.525 158.633C542.362 158.416 542.237 158.236 542.149 158.095H542.048V162.219H540.848ZM542.027 155.391C542.027 155.981 542.114 156.501 542.286 156.951C542.459 157.399 542.711 157.749 543.043 158.003C543.375 158.254 543.781 158.379 544.263 158.379C544.764 158.379 545.182 158.247 545.518 157.983C545.856 157.715 546.11 157.356 546.279 156.905C546.452 156.452 546.539 155.947 546.539 155.391C546.539 154.843 546.454 154.348 546.284 153.908C546.119 153.465 545.866 153.114 545.527 152.856C545.193 152.596 544.77 152.465 544.263 152.465C543.775 152.465 543.365 152.588 543.033 152.836C542.701 153.08 542.451 153.422 542.281 153.862C542.112 154.299 542.027 154.809 542.027 155.391ZM550.14 151.489L552.009 154.68L553.879 151.489H555.26L552.741 155.391L555.26 159.293H553.879L552.009 156.265L550.14 159.293H548.757L551.237 155.391L548.757 151.489H550.14Z" fill="#28000E"/>
<path d="M414.628 257.518V256.604L418.063 252.844C418.466 252.403 418.797 252.021 419.058 251.695C419.319 251.367 419.512 251.059 419.637 250.771C419.766 250.48 419.83 250.175 419.83 249.856C419.83 249.491 419.743 249.174 419.566 248.907C419.393 248.639 419.156 248.432 418.855 248.287C418.554 248.141 418.215 248.069 417.839 248.069C417.439 248.069 417.09 248.151 416.792 248.317C416.498 248.48 416.27 248.708 416.106 249.003C415.948 249.298 415.868 249.643 415.868 250.04H414.669C414.669 249.43 414.809 248.895 415.09 248.434C415.372 247.974 415.755 247.614 416.239 247.357C416.726 247.1 417.274 246.971 417.879 246.971C418.489 246.971 419.03 247.1 419.5 247.357C419.971 247.614 420.34 247.962 420.607 248.398C420.875 248.835 421.009 249.321 421.009 249.856C421.009 250.239 420.94 250.613 420.801 250.979C420.665 251.342 420.428 251.747 420.089 252.193C419.755 252.637 419.289 253.179 418.693 253.819L416.356 256.319V256.4H421.192V257.518H414.628ZM426.684 257.66C425.919 257.66 425.266 257.452 424.728 257.035C424.19 256.615 423.778 256.007 423.493 255.211C423.209 254.412 423.067 253.447 423.067 252.316C423.067 251.191 423.209 250.231 423.493 249.435C423.781 248.636 424.195 248.026 424.733 247.606C425.275 247.183 425.925 246.971 426.684 246.971C427.443 246.971 428.091 247.183 428.63 247.606C429.171 248.026 429.585 248.636 429.87 249.435C430.157 250.231 430.301 251.191 430.301 252.316C430.301 253.447 430.159 254.412 429.875 255.211C429.59 256.007 429.179 256.615 428.64 257.035C428.101 257.452 427.45 257.66 426.684 257.66ZM426.684 256.542C427.443 256.542 428.032 256.176 428.452 255.445C428.872 254.714 429.082 253.67 429.082 252.316C429.082 251.415 428.986 250.647 428.793 250.014C428.603 249.381 428.328 248.898 427.97 248.566C427.614 248.234 427.185 248.069 426.684 248.069C425.932 248.069 425.344 248.439 424.921 249.181C424.498 249.919 424.286 250.964 424.286 252.316C424.286 253.217 424.381 253.982 424.57 254.612C424.76 255.242 425.033 255.721 425.389 256.049C425.747 256.378 426.179 256.542 426.684 256.542ZM432.252 260.444V249.715H433.41V250.954H433.553C433.641 250.818 433.763 250.645 433.919 250.435C434.078 250.222 434.305 250.032 434.6 249.867C434.897 249.698 435.3 249.612 435.809 249.612C436.466 249.612 437.044 249.777 437.546 250.106C438.048 250.434 438.439 250.9 438.719 251.503C439.001 252.106 439.141 252.817 439.141 253.637C439.141 254.463 439.001 255.179 438.719 255.785C438.439 256.388 438.049 256.855 437.551 257.188C437.053 257.516 436.479 257.68 435.829 257.68C435.328 257.68 434.926 257.597 434.624 257.431C434.324 257.262 434.091 257.071 433.929 256.857C433.766 256.641 433.641 256.461 433.553 256.319H433.451V260.444H432.252ZM433.431 253.616C433.431 254.205 433.517 254.725 433.69 255.176C433.863 255.623 434.115 255.974 434.447 256.227C434.779 256.478 435.185 256.604 435.666 256.604C436.167 256.604 436.586 256.472 436.921 256.207C437.26 255.94 437.514 255.58 437.683 255.13C437.856 254.676 437.942 254.172 437.942 253.616C437.942 253.068 437.858 252.573 437.688 252.133C437.522 251.689 437.27 251.338 436.931 251.081C436.596 250.82 436.174 250.69 435.666 250.69C435.179 250.69 434.768 250.814 434.437 251.061C434.105 251.304 433.855 251.646 433.685 252.087C433.516 252.524 433.431 253.033 433.431 253.616ZM441.543 249.715L443.413 252.904L445.283 249.715H446.664L444.144 253.616L446.664 257.518H445.283L443.413 254.49L441.543 257.518H440.161L442.641 253.616L440.161 249.715H441.543Z" fill="#28000E"/>
</svg>
