<svg width="736" height="320" viewBox="0 0 736 320" fill="none" xmlns="http://www.w3.org/2000/svg">
<rect width="736" height="320" rx="24" fill="white"/>
<path d="M24 32C24 27.5817 27.5817 24 32 24H144C148.418 24 152 27.5817 152 32V56C152 60.4183 148.418 64 144 64H32C27.5817 64 24 60.4183 24 56V32Z" fill="#DC134F"/>
<path d="M45.696 48.676C42.88 48.676 40.944 47.22 40.8 45.108H42.208C42.368 46.548 43.728 47.46 45.696 47.46C47.408 47.46 48.304 46.756 48.304 45.588C48.304 44.452 47.312 44.02 46.24 43.684L44.304 43.076C43.408 42.788 41.152 42.308 41.152 40.116C41.152 38.308 42.64 37.124 44.96 37.124C47.52 37.124 49.104 38.42 49.28 40.804H47.888C47.776 39.22 46.672 38.34 44.896 38.34C43.488 38.34 42.496 38.98 42.496 40.052C42.496 41.284 43.776 41.54 44.736 41.844L46.544 42.404C47.968 42.852 49.68 43.412 49.68 45.524C49.68 47.492 48.176 48.676 45.696 48.676ZM52.8234 48.5H51.4954V36.5H52.8234V48.5ZM58.7851 48.676C56.2731 48.676 54.6091 46.836 54.6091 44.292C54.6091 41.396 56.4811 39.828 58.6251 39.828C60.9611 39.828 62.4651 41.396 62.5131 44.116V44.484H55.9371C56.0171 46.292 57.0731 47.524 58.7851 47.524C59.9691 47.524 60.8331 46.932 61.1851 45.828H62.4811C62.0971 47.572 60.7211 48.676 58.7851 48.676ZM56.0171 43.38H61.1211C60.8811 41.892 59.9851 40.98 58.6251 40.98C57.2811 40.98 56.2891 41.86 56.0171 43.38ZM68.4571 48.5H67.5131C65.8651 48.5 64.9851 47.652 64.9851 46.084V41.14H63.4171V40.02H64.9851V37.124H66.3131V40.02H69.6091V37.124H70.9371V40.02H73.2251V41.14H70.9371V46.084C70.9371 46.932 71.3531 47.38 72.1371 47.38H73.0811V48.5H72.1371C70.4891 48.5 69.6091 47.652 69.6091 46.084V41.14H66.3131V46.084C66.3131 46.932 66.7291 47.38 67.5131 47.38H68.4571V48.5ZM81.8089 48.676C79.5369 48.676 77.9529 46.852 77.9529 44.212C77.9529 41.62 79.5209 39.828 81.7929 39.828C83.0729 39.828 84.1449 40.388 84.7529 41.284V36.5H86.0809V48.5H85.0249L84.8809 46.868C84.3209 47.972 83.2009 48.676 81.8089 48.676ZM82.0169 47.524C83.6329 47.524 84.7529 46.148 84.7529 44.18C84.7529 42.276 83.6649 40.964 82.0969 40.964C80.4649 40.964 79.3289 42.292 79.3289 44.212C79.3289 46.164 80.4329 47.524 82.0169 47.524ZM91.0428 48.628C89.1228 48.628 87.8908 47.636 87.8908 46.084C87.8908 44.132 89.7788 43.764 91.4748 43.588C92.7708 43.46 93.8908 43.476 93.9068 42.788C93.8908 41.716 93.0108 40.964 91.7308 40.964C90.4988 40.964 89.5388 41.652 89.3948 42.66H88.0828C88.2428 40.996 89.7468 39.828 91.7628 39.828C93.8588 39.828 95.2028 41.076 95.2028 42.868V46.996C95.2028 47.268 95.3468 47.412 95.6348 47.412H96.1148V48.5H95.3628C94.4508 48.5 93.9708 48.084 93.9708 47.3V47.044C93.4748 48.02 92.5148 48.628 91.0428 48.628ZM91.2348 47.492C92.8188 47.492 93.9068 46.484 93.9068 45.076V43.972C93.5388 44.468 92.5948 44.564 91.5548 44.676C90.3868 44.804 89.2188 44.964 89.2188 46.052C89.2188 46.932 90.0188 47.492 91.2348 47.492ZM101.801 48.5H100.857C99.2089 48.5 98.3289 47.652 98.3289 46.084V41.14H96.7609V40.02H98.3289V37.124H99.6569V40.02H101.945V41.14H99.6569V46.084C99.6569 46.932 100.073 47.38 100.857 47.38H101.801V48.5ZM106.246 48.628C104.326 48.628 103.094 47.636 103.094 46.084C103.094 44.132 104.982 43.764 106.678 43.588C107.974 43.46 109.094 43.476 109.11 42.788C109.094 41.716 108.214 40.964 106.934 40.964C105.702 40.964 104.742 41.652 104.598 42.66H103.286C103.446 40.996 104.95 39.828 106.966 39.828C109.062 39.828 110.406 41.076 110.406 42.868V46.996C110.406 47.268 110.55 47.412 110.838 47.412H111.318V48.5H110.566C109.654 48.5 109.174 48.084 109.174 47.3V47.044C108.678 48.02 107.718 48.628 106.246 48.628ZM106.438 47.492C108.022 47.492 109.11 46.484 109.11 45.076V43.972C108.742 44.468 107.798 44.564 106.758 44.676C105.59 44.804 104.422 44.964 104.422 46.052C104.422 46.932 105.222 47.492 106.438 47.492Z" fill="#FBEAEA"/>
<g clip-path="url(#clip0_634_1896)">
<path d="M124.421 51.5C124.045 51.498 123.683 51.3558 123.407 51.1013C123.131 50.8468 122.959 50.4983 122.926 50.124L122.04 39.5H121C120.867 39.5 120.74 39.4473 120.646 39.3536C120.553 39.2598 120.5 39.1326 120.5 39C120.5 38.8674 120.553 38.7402 120.646 38.6464C120.74 38.5527 120.867 38.5 121 38.5H125V38C125 37.6023 125.159 37.221 125.44 36.9397C125.721 36.6585 126.102 36.5004 126.5 36.5H129.5C129.898 36.5004 130.279 36.6585 130.56 36.9397C130.841 37.221 131 37.6023 131 38V38.5H135C135.133 38.5 135.26 38.5527 135.354 38.6464C135.447 38.7402 135.5 38.8674 135.5 39C135.5 39.1326 135.447 39.2598 135.354 39.3536C135.26 39.4473 135.133 39.5 135 39.5H133.96L133.075 50.1247C133.042 50.4989 132.87 50.8473 132.594 51.1017C132.317 51.3561 131.956 51.4981 131.58 51.5H124.421ZM123.922 50.0413C123.943 50.2987 124.162 50.5 124.421 50.5H131.58C131.705 50.4995 131.826 50.4521 131.918 50.3673C132.01 50.2824 132.067 50.1661 132.078 50.0413L132.957 39.5H123.043L123.922 50.0413ZM130 38.5V38C130 37.8674 129.947 37.7402 129.854 37.6464C129.76 37.5527 129.633 37.5 129.5 37.5H126.5C126.367 37.5 126.24 37.5527 126.146 37.6464C126.053 37.7402 126 37.8674 126 38V38.5H130Z" fill="#FBEAEA"/>
<path d="M126.5 48C126.367 48 126.24 47.9473 126.146 47.8536C126.053 47.7598 126 47.6326 126 47.5V42.5C126 42.3674 126.053 42.2402 126.146 42.1464C126.24 42.0527 126.367 42 126.5 42C126.633 42 126.76 42.0527 126.854 42.1464C126.947 42.2402 127 42.3674 127 42.5V47.5C127 47.6326 126.947 47.7598 126.854 47.8536C126.76 47.9473 126.633 48 126.5 48Z" fill="#FBEAEA"/>
<path d="M129.5 48C129.367 48 129.24 47.9473 129.146 47.8536C129.053 47.7598 129 47.6326 129 47.5V42.5C129 42.3674 129.053 42.2402 129.146 42.1464C129.24 42.0527 129.367 42 129.5 42C129.633 42 129.76 42.0527 129.854 42.1464C129.947 42.2402 130 42.3674 130 42.5V47.5C130 47.6326 129.947 47.7598 129.854 47.8536C129.76 47.9473 129.633 48 129.5 48Z" fill="#FBEAEA"/>
</g>
<path d="M24 80C24 75.5817 27.5817 72 32 72H229C233.418 72 237 75.5817 237 80V140C237 144.418 233.418 148 229 148H32C27.5817 148 24 144.418 24 140V80Z" fill="#ECE6F9"/>
<g clip-path="url(#clip1_634_1896)">
<path fill-rule="evenodd" clip-rule="evenodd" d="M32 89C32 92.8599 35.1401 96 39 96C42.8599 96 46 92.8599 46 89C46 85.1401 42.8599 82 39 82C35.1401 82 32 85.1401 32 89ZM38.7812 86.8125C39.1437 86.8125 39.4375 86.5187 39.4375 86.1562C39.4375 85.7938 39.1437 85.5 38.7812 85.5C38.4188 85.5 38.125 85.7938 38.125 86.1562C38.125 86.5187 38.4188 86.8125 38.7812 86.8125ZM39.875 92.0625C39.527 92.0622 39.1933 91.9238 38.9473 91.6777C38.7012 91.4317 38.5628 91.098 38.5625 90.75V88.5625H38.125C38.009 88.5625 37.8977 88.5164 37.8156 88.4344C37.7336 88.3523 37.6875 88.241 37.6875 88.125C37.6875 88.009 37.7336 87.8977 37.8156 87.8156C37.8977 87.7336 38.009 87.6875 38.125 87.6875H38.5625C39.0449 87.6875 39.4375 88.0801 39.4375 88.5625V90.75C39.4375 90.9915 39.6335 91.1875 39.875 91.1875H40.3125C40.4285 91.1875 40.5398 91.2336 40.6219 91.3156C40.7039 91.3977 40.75 91.509 40.75 91.625C40.75 91.741 40.7039 91.8523 40.6219 91.9344C40.5398 92.0164 40.4285 92.0625 40.3125 92.0625H39.875Z" fill="#4420B0"/>
</g>
<path d="M53.984 93H51.02V84.6H53.984C56.396 84.6 58.076 86.304 58.076 88.752C58.076 91.26 56.396 93 53.984 93ZM52.028 85.524V92.076H54.044C55.784 92.076 57.008 90.708 57.008 88.752C57.008 86.94 55.784 85.524 54.044 85.524H52.028ZM62.331 93.132C60.447 93.132 59.199 91.752 59.199 89.844C59.199 87.672 60.603 86.496 62.211 86.496C63.963 86.496 65.091 87.672 65.127 89.712V89.988H60.195C60.255 91.344 61.047 92.268 62.331 92.268C63.219 92.268 63.867 91.824 64.131 90.996H65.103C64.815 92.304 63.783 93.132 62.331 93.132ZM60.255 89.16H64.083C63.903 88.044 63.231 87.36 62.211 87.36C61.203 87.36 60.459 88.02 60.255 89.16ZM67.4331 93H66.4371V86.64H67.2291L67.3251 87.612C67.7571 86.94 68.5851 86.496 69.5331 86.496C70.9011 86.496 71.8131 87.384 71.8131 88.788V93H70.8171V88.824C70.8171 87.936 70.2411 87.372 69.2811 87.372C68.1411 87.372 67.4451 88.164 67.4331 89.136V93ZM74.3706 93H73.3746V86.64H74.1666L74.2626 87.612C74.6946 86.94 75.5226 86.496 76.4706 86.496C77.8386 86.496 78.7506 87.384 78.7506 88.788V93H77.7546V88.824C77.7546 87.936 77.1786 87.372 76.2186 87.372C75.0786 87.372 74.3826 88.164 74.3706 89.136V93ZM83.1201 93.132C81.2361 93.132 79.9881 91.752 79.9881 89.844C79.9881 87.672 81.3921 86.496 83.0001 86.496C84.7521 86.496 85.8801 87.672 85.9161 89.712V89.988H80.9841C81.0441 91.344 81.8361 92.268 83.1201 92.268C84.0081 92.268 84.6561 91.824 84.9201 90.996H85.8921C85.6041 92.304 84.5721 93.132 83.1201 93.132ZM81.0441 89.16H84.8721C84.6921 88.044 84.0201 87.36 83.0001 87.36C81.9921 87.36 81.2481 88.02 81.0441 89.16ZM90.9535 93H89.9575V84H90.9535V87.456C91.4095 86.88 92.1895 86.496 93.0535 86.496C94.4215 86.496 95.3335 87.384 95.3335 88.788V93H94.3375V88.824C94.3375 87.936 93.7615 87.372 92.8615 87.372C91.6615 87.372 90.9655 88.164 90.9535 89.136V93ZM98.9461 93.096C97.5061 93.096 96.5821 92.352 96.5821 91.188C96.5821 89.724 97.9981 89.448 99.2701 89.316C100.242 89.22 101.082 89.232 101.094 88.716C101.082 87.912 100.422 87.348 99.4621 87.348C98.5381 87.348 97.8181 87.864 97.7101 88.62H96.7261C96.8461 87.372 97.9741 86.496 99.4861 86.496C101.058 86.496 102.066 87.432 102.066 88.776V91.872C102.066 92.076 102.174 92.184 102.39 92.184H102.75V93H102.186C101.502 93 101.142 92.688 101.142 92.1V91.908C100.77 92.64 100.05 93.096 98.9461 93.096ZM99.0901 92.244C100.278 92.244 101.094 91.488 101.094 90.432V89.604C100.818 89.976 100.11 90.048 99.3301 90.132C98.4541 90.228 97.5781 90.348 97.5781 91.164C97.5781 91.824 98.1781 92.244 99.0901 92.244ZM104.863 93H103.867V86.64H104.659L104.755 87.612C105.187 86.94 106.015 86.496 106.963 86.496C108.331 86.496 109.243 87.384 109.243 88.788V93H108.247V88.824C108.247 87.936 107.671 87.372 106.711 87.372C105.571 87.372 104.875 88.164 104.863 89.136V93ZM113.372 93.132C111.668 93.132 110.48 91.764 110.48 89.784C110.48 87.84 111.656 86.496 113.36 86.496C114.32 86.496 115.124 86.916 115.58 87.588V84H116.576V93H115.784L115.676 91.776C115.256 92.604 114.416 93.132 113.372 93.132ZM113.528 92.268C114.74 92.268 115.58 91.236 115.58 89.76C115.58 88.332 114.764 87.348 113.588 87.348C112.364 87.348 111.512 88.344 111.512 89.784C111.512 91.248 112.34 92.268 113.528 92.268ZM119.278 93H118.282V84H119.278V93ZM121.445 85.572C121.025 85.572 120.701 85.248 120.701 84.828C120.701 84.408 121.025 84.096 121.445 84.096C121.865 84.096 122.177 84.408 122.177 84.828C122.177 85.248 121.865 85.572 121.445 85.572ZM121.937 93H120.941V86.64H121.937V93ZM124.562 93H123.566V86.64H124.358L124.454 87.612C124.886 86.94 125.714 86.496 126.662 86.496C128.03 86.496 128.942 87.384 128.942 88.788V93H127.946V88.824C127.946 87.936 127.37 87.372 126.41 87.372C125.27 87.372 124.574 88.164 124.562 89.136V93ZM133.276 95.544C131.56 95.544 130.396 94.716 130.396 93.372H131.392C131.392 94.128 132.16 94.704 133.276 94.704C134.584 94.704 135.268 93.924 135.268 92.832V91.8C134.824 92.46 134.056 92.892 133.084 92.892C131.392 92.892 130.18 91.596 130.18 89.724C130.18 87.816 131.404 86.496 133.084 86.496C134.104 86.496 134.932 86.976 135.364 87.744L135.472 86.64H136.252V92.832C136.252 94.44 135.172 95.544 133.276 95.544ZM133.228 92.028C134.428 92.028 135.268 91.068 135.268 89.688C135.268 88.32 134.428 87.36 133.228 87.36C132.04 87.36 131.212 88.32 131.212 89.712C131.212 91.08 132.04 92.028 133.228 92.028ZM140.694 93.132C138.81 93.132 137.562 91.752 137.562 89.844C137.562 87.672 138.966 86.496 140.574 86.496C142.326 86.496 143.454 87.672 143.49 89.712V89.988H138.558C138.618 91.344 139.41 92.268 140.694 92.268C141.582 92.268 142.23 91.824 142.494 90.996H143.466C143.178 92.304 142.146 93.132 140.694 93.132ZM138.618 89.16H142.446C142.266 88.044 141.594 87.36 140.574 87.36C139.566 87.36 138.822 88.02 138.618 89.16ZM145.796 93H144.8V86.64H145.592L145.688 87.612C146.12 86.94 146.948 86.496 147.896 86.496C149.264 86.496 150.176 87.384 150.176 88.788V93H149.18V88.824C149.18 87.936 148.604 87.372 147.644 87.372C146.504 87.372 145.808 88.164 145.796 89.136V93ZM155.465 93H154.469V84H155.465V89.772L158.561 86.64H159.761L157.469 88.956L160.109 93H158.945L156.785 89.652L155.465 90.984V93ZM162.942 93.096C161.502 93.096 160.578 92.352 160.578 91.188C160.578 89.724 161.994 89.448 163.266 89.316C164.238 89.22 165.078 89.232 165.09 88.716C165.078 87.912 164.418 87.348 163.458 87.348C162.534 87.348 161.814 87.864 161.706 88.62H160.722C160.842 87.372 161.97 86.496 163.482 86.496C165.054 86.496 166.062 87.432 166.062 88.776V91.872C166.062 92.076 166.17 92.184 166.386 92.184H166.746V93H166.182C165.498 93 165.138 92.688 165.138 92.1V91.908C164.766 92.64 164.046 93.096 162.942 93.096ZM163.086 92.244C164.274 92.244 165.09 91.488 165.09 90.432V89.604C164.814 89.976 164.106 90.048 163.326 90.132C162.45 90.228 161.574 90.348 161.574 91.164C161.574 91.824 162.174 92.244 163.086 92.244ZM168.859 93H167.863V86.64H168.655L168.751 87.612C169.183 86.94 170.011 86.496 170.959 86.496C172.327 86.496 173.239 87.384 173.239 88.788V93H172.243V88.824C172.243 87.936 171.667 87.372 170.707 87.372C169.567 87.372 168.871 88.164 168.859 89.136V93ZM178 85.572C177.58 85.572 177.256 85.248 177.256 84.828C177.256 84.408 177.58 84.096 178 84.096C178.42 84.096 178.732 84.408 178.732 84.828C178.732 85.248 178.42 85.572 178 85.572ZM178.492 93H177.496V86.64H178.492V93ZM181.153 93H180.157V84H181.153V89.772L184.249 86.64H185.449L183.157 88.956L185.797 93H184.633L182.473 89.652L181.153 90.984V93ZM187.668 93H186.672V84H187.668V89.772L190.764 86.64H191.964L189.672 88.956L192.312 93H191.148L188.988 89.652L187.668 90.984V93ZM195.62 93.132C193.736 93.132 192.488 91.752 192.488 89.844C192.488 87.672 193.892 86.496 195.5 86.496C197.252 86.496 198.38 87.672 198.416 89.712V89.988H193.484C193.544 91.344 194.336 92.268 195.62 92.268C196.508 92.268 197.156 91.824 197.42 90.996H198.392C198.104 92.304 197.072 93.132 195.62 93.132ZM193.544 89.16H197.372C197.192 88.044 196.52 87.36 195.5 87.36C194.492 87.36 193.748 88.02 193.544 89.16ZM52.868 113.096C51.428 113.096 50.504 112.352 50.504 111.188C50.504 109.724 51.92 109.448 53.192 109.316C54.164 109.22 55.004 109.232 55.016 108.716C55.004 107.912 54.344 107.348 53.384 107.348C52.46 107.348 51.74 107.864 51.632 108.62H50.648C50.768 107.372 51.896 106.496 53.408 106.496C54.98 106.496 55.988 107.432 55.988 108.776V111.872C55.988 112.076 56.096 112.184 56.312 112.184H56.672V113H56.108C55.424 113 55.064 112.688 55.064 112.1V111.908C54.692 112.64 53.972 113.096 52.868 113.096ZM53.012 112.244C54.2 112.244 55.016 111.488 55.016 110.432V109.604C54.74 109.976 54.032 110.048 53.252 110.132C52.376 110.228 51.5 110.348 51.5 111.164C51.5 111.824 52.1 112.244 53.012 112.244ZM58.7847 113H57.7887V106.64H58.5807L58.6767 107.612C59.1087 106.94 59.9367 106.496 60.8847 106.496C62.2527 106.496 63.1647 107.384 63.1647 108.788V113H62.1687V108.824C62.1687 107.936 61.5927 107.372 60.6327 107.372C59.4927 107.372 58.7967 108.164 58.7847 109.136V113ZM67.4982 115.544C65.7822 115.544 64.6182 114.716 64.6182 113.372H65.6142C65.6142 114.128 66.3822 114.704 67.4982 114.704C68.8062 114.704 69.4902 113.924 69.4902 112.832V111.8C69.0462 112.46 68.2782 112.892 67.3062 112.892C65.6142 112.892 64.4022 111.596 64.4022 109.724C64.4022 107.816 65.6262 106.496 67.3062 106.496C68.3262 106.496 69.1542 106.976 69.5862 107.744L69.6942 106.64H70.4742V112.832C70.4742 114.44 69.3942 115.544 67.4982 115.544ZM67.4502 112.028C68.6502 112.028 69.4902 111.068 69.4902 109.688C69.4902 108.32 68.6502 107.36 67.4502 107.36C66.2622 107.36 65.4342 108.32 65.4342 109.712C65.4342 111.08 66.2622 112.028 67.4502 112.028ZM73.105 113H72.109V106.64H72.901L73.021 107.852C73.429 107.036 74.173 106.604 75.229 106.604H75.445V107.588H75.229C73.885 107.588 73.105 108.356 73.105 109.664V113ZM79.1006 113.132C77.2166 113.132 75.9686 111.752 75.9686 109.844C75.9686 107.672 77.3726 106.496 78.9806 106.496C80.7326 106.496 81.8606 107.672 81.8966 109.712V109.988H76.9646C77.0246 111.344 77.8166 112.268 79.1006 112.268C79.9886 112.268 80.6366 111.824 80.9006 110.996H81.8726C81.5846 112.304 80.5526 113.132 79.1006 113.132ZM77.0246 109.16H80.8526C80.6726 108.044 80.0006 107.36 78.9806 107.36C77.9726 107.36 77.2286 108.02 77.0246 109.16ZM85.5826 113.132C84.0706 113.132 82.9546 112.34 82.8706 110.996H83.8426C83.9146 111.824 84.6706 112.28 85.6306 112.28C86.5306 112.28 86.9626 111.932 86.9626 111.296C86.9626 110.696 86.4946 110.564 85.8346 110.336L84.9106 110.024C83.9746 109.712 83.0386 109.424 83.0386 108.272C83.0386 107.192 83.8786 106.496 85.2706 106.496C86.6746 106.496 87.6466 107.252 87.8026 108.668H86.8306C86.7226 107.78 86.0986 107.348 85.2346 107.348C84.4546 107.348 83.9986 107.696 83.9986 108.248C83.9986 108.908 84.6946 109.04 85.2226 109.22L86.0866 109.508C87.2506 109.892 87.9466 110.288 87.9466 111.344C87.9466 112.46 87.1306 113.132 85.5826 113.132ZM89.7115 113.12C89.2795 113.12 88.9555 112.796 88.9555 112.364C88.9555 111.944 89.2795 111.62 89.7115 111.62C90.1435 111.62 90.4675 111.944 90.4675 112.364C90.4675 112.796 90.1435 113.12 89.7115 113.12ZM98.3418 113H97.2618L93.9978 104.6H95.0778L97.8018 111.608L100.442 104.6H101.51L98.3418 113ZM104.647 113.132C102.763 113.132 101.515 111.752 101.515 109.844C101.515 107.672 102.919 106.496 104.527 106.496C106.279 106.496 107.407 107.672 107.443 109.712V109.988H102.511C102.571 111.344 103.363 112.268 104.647 112.268C105.535 112.268 106.183 111.824 106.447 110.996H107.419C107.131 112.304 106.099 113.132 104.647 113.132ZM102.571 109.16H106.399C106.219 108.044 105.547 107.36 104.527 107.36C103.519 107.36 102.775 108.02 102.571 109.16ZM109.75 113H108.754V106.64H109.546L109.642 107.612C110.074 106.94 110.902 106.496 111.85 106.496C113.218 106.496 114.13 107.384 114.13 108.788V113H113.134V108.824C113.134 107.936 112.558 107.372 111.598 107.372C110.458 107.372 109.762 108.164 109.75 109.136V113ZM116.687 113H115.691V106.64H116.483L116.579 107.612C117.011 106.94 117.839 106.496 118.787 106.496C120.155 106.496 121.067 107.384 121.067 108.788V113H120.071V108.824C120.071 107.936 119.495 107.372 118.535 107.372C117.395 107.372 116.699 108.164 116.687 109.136V113ZM123.661 113H122.665V104H123.661V113ZM125.828 105.572C125.408 105.572 125.084 105.248 125.084 104.828C125.084 104.408 125.408 104.096 125.828 104.096C126.248 104.096 126.56 104.408 126.56 104.828C126.56 105.248 126.248 105.572 125.828 105.572ZM126.32 113H125.324V106.64H126.32V113ZM130.721 115.544C129.005 115.544 127.841 114.716 127.841 113.372H128.837C128.837 114.128 129.605 114.704 130.721 114.704C132.029 114.704 132.713 113.924 132.713 112.832V111.8C132.269 112.46 131.501 112.892 130.529 112.892C128.837 112.892 127.625 111.596 127.625 109.724C127.625 107.816 128.849 106.496 130.529 106.496C131.549 106.496 132.377 106.976 132.809 107.744L132.917 106.64H133.697V112.832C133.697 114.44 132.617 115.544 130.721 115.544ZM130.673 112.028C131.873 112.028 132.713 111.068 132.713 109.688C132.713 108.32 131.873 107.36 130.673 107.36C129.485 107.36 128.657 108.32 128.657 109.712C128.657 111.08 129.485 112.028 130.673 112.028ZM137.708 113.132C136.196 113.132 135.08 112.34 134.996 110.996H135.968C136.04 111.824 136.796 112.28 137.756 112.28C138.656 112.28 139.088 111.932 139.088 111.296C139.088 110.696 138.62 110.564 137.96 110.336L137.036 110.024C136.1 109.712 135.164 109.424 135.164 108.272C135.164 107.192 136.004 106.496 137.396 106.496C138.8 106.496 139.772 107.252 139.928 108.668H138.956C138.848 107.78 138.224 107.348 137.36 107.348C136.58 107.348 136.124 107.696 136.124 108.248C136.124 108.908 136.82 109.04 137.348 109.22L138.212 109.508C139.376 109.892 140.072 110.288 140.072 111.344C140.072 112.46 139.256 113.132 137.708 113.132ZM144.444 113H143.736C142.5 113 141.84 112.364 141.84 111.188V107.48H140.664V106.64H141.84V104.468H142.836V106.64H144.552V107.48H142.836V111.188C142.836 111.824 143.148 112.16 143.736 112.16H144.444V113ZM150.989 113.132C149.285 113.132 148.097 111.764 148.097 109.784C148.097 107.84 149.273 106.496 150.977 106.496C151.937 106.496 152.741 106.916 153.197 107.588V104H154.193V113H153.401L153.293 111.776C152.873 112.604 152.033 113.132 150.989 113.132ZM151.145 112.268C152.357 112.268 153.197 111.236 153.197 109.76C153.197 108.332 152.381 107.348 151.205 107.348C149.981 107.348 149.129 108.344 149.129 109.784C149.129 111.248 149.957 112.268 151.145 112.268ZM158.659 113.132C156.619 113.132 155.539 111.68 155.539 109.76C155.539 107.636 156.931 106.496 158.659 106.496C160.687 106.496 161.779 107.96 161.779 109.76C161.779 111.956 160.447 113.132 158.659 113.132ZM158.659 112.268C160.015 112.268 160.759 111.14 160.759 109.76C160.759 108.332 159.931 107.36 158.659 107.36C157.387 107.36 156.559 108.332 156.559 109.76C156.559 111.392 157.507 112.268 158.659 112.268ZM166.346 113.132C165.302 113.132 164.45 112.616 164.018 111.788L163.91 113H163.118V104H164.114V107.636C164.582 106.94 165.386 106.496 166.346 106.496C168.026 106.496 169.202 107.84 169.202 109.784C169.202 111.764 168.026 113.132 166.346 113.132ZM166.19 112.268C167.366 112.268 168.17 111.248 168.17 109.784C168.17 108.356 167.366 107.36 166.178 107.36C164.978 107.36 164.114 108.332 164.114 109.736C164.114 111.224 164.978 112.268 166.19 112.268ZM173.775 113.132C172.731 113.132 171.879 112.616 171.447 111.788L171.339 113H170.547V104H171.543V107.636C172.011 106.94 172.815 106.496 173.775 106.496C175.455 106.496 176.631 107.84 176.631 109.784C176.631 111.764 175.455 113.132 173.775 113.132ZM173.619 112.268C174.795 112.268 175.599 111.248 175.599 109.784C175.599 108.356 174.795 107.36 173.607 107.36C172.407 107.36 171.543 108.332 171.543 109.736C171.543 111.224 172.407 112.268 173.619 112.268ZM180.749 113.132C178.865 113.132 177.617 111.752 177.617 109.844C177.617 107.672 179.021 106.496 180.629 106.496C182.381 106.496 183.509 107.672 183.545 109.712V109.988H178.613C178.673 111.344 179.465 112.268 180.749 112.268C181.637 112.268 182.285 111.824 182.549 110.996H183.521C183.233 112.304 182.201 113.132 180.749 113.132ZM178.673 109.16H182.501C182.321 108.044 181.649 107.36 180.629 107.36C179.621 107.36 178.877 108.02 178.673 109.16ZM185.887 113H184.891V104H185.887V113ZM190.862 113H190.154C188.918 113 188.258 112.364 188.258 111.188V107.48H187.082V106.64H188.258V104.468H189.254V106.64H190.97V107.48H189.254V111.188C189.254 111.824 189.566 112.16 190.154 112.16H190.862V113ZM194.52 113.132C193.008 113.132 191.892 112.34 191.808 110.996H192.78C192.852 111.824 193.608 112.28 194.568 112.28C195.468 112.28 195.9 111.932 195.9 111.296C195.9 110.696 195.432 110.564 194.772 110.336L193.848 110.024C192.912 109.712 191.976 109.424 191.976 108.272C191.976 107.192 192.816 106.496 194.208 106.496C195.612 106.496 196.584 107.252 196.74 108.668H195.768C195.66 107.78 195.036 107.348 194.172 107.348C193.392 107.348 192.936 107.696 192.936 108.248C192.936 108.908 193.632 109.04 194.16 109.22L195.024 109.508C196.188 109.892 196.884 110.288 196.884 111.344C196.884 112.46 196.068 113.132 194.52 113.132ZM198.613 105.572C198.181 105.572 197.869 105.26 197.869 104.828C197.869 104.408 198.181 104.096 198.613 104.096C199.033 104.096 199.345 104.408 199.345 104.828C199.345 105.26 199.033 105.572 198.613 105.572ZM197.209 115.4H196.321V114.56H197.209C197.797 114.56 198.109 114.224 198.109 113.588V106.64H199.105V113.588C199.105 114.764 198.445 115.4 197.209 115.4ZM203.542 113.132C201.658 113.132 200.41 111.752 200.41 109.844C200.41 107.672 201.814 106.496 203.422 106.496C205.174 106.496 206.302 107.672 206.338 109.712V109.988H201.406C201.466 111.344 202.258 112.268 203.542 112.268C204.43 112.268 205.078 111.824 205.342 110.996H206.314C206.026 112.304 204.994 113.132 203.542 113.132ZM201.466 109.16H205.294C205.114 108.044 204.442 107.36 203.422 107.36C202.414 107.36 201.67 108.02 201.466 109.16ZM208.68 113H207.684V104H208.68V109.772L211.776 106.64H212.976L210.684 108.956L213.324 113H212.16L210 109.652L208.68 110.984V113ZM215.196 113H214.2V104H215.196V109.772L218.292 106.64H219.492L217.2 108.956L219.84 113H218.676L216.516 109.652L215.196 110.984V113ZM51.32 125.572C50.9 125.572 50.576 125.248 50.576 124.828C50.576 124.408 50.9 124.096 51.32 124.096C51.74 124.096 52.052 124.408 52.052 124.828C52.052 125.248 51.74 125.572 51.32 125.572ZM51.812 133H50.816V126.64H51.812V133ZM54.437 133H53.441V126.64H54.233L54.329 127.612C54.761 126.94 55.589 126.496 56.537 126.496C57.905 126.496 58.817 127.384 58.817 128.788V133H57.821V128.824C57.821 127.936 57.245 127.372 56.285 127.372C55.145 127.372 54.449 128.164 54.437 129.136V133ZM61.9653 133H60.9693V127.48H59.7933V126.64H60.9693V125.752C60.9693 124.612 61.6053 124 62.7813 124H64.1973V124.84H62.7813C62.2533 124.84 61.9653 125.164 61.9653 125.752V126.64H64.0293V127.48H61.9653V133ZM67.7097 133.132C65.6697 133.132 64.5897 131.68 64.5897 129.76C64.5897 127.636 65.9817 126.496 67.7097 126.496C69.7377 126.496 70.8297 127.96 70.8297 129.76C70.8297 131.956 69.4977 133.132 67.7097 133.132ZM67.7097 132.268C69.0657 132.268 69.8097 131.14 69.8097 129.76C69.8097 128.332 68.9817 127.36 67.7097 127.36C66.4377 127.36 65.6097 128.332 65.6097 129.76C65.6097 131.392 66.5577 132.268 67.7097 132.268ZM73.1284 133H72.1324V126.64H72.9244L73.0444 127.852C73.4524 127.036 74.1964 126.604 75.2524 126.604H75.4684V127.588H75.2524C73.9084 127.588 73.1284 128.356 73.1284 129.664V133ZM77.605 133H76.609V126.64H77.401L77.497 127.624C77.929 126.94 78.757 126.496 79.669 126.496C80.629 126.496 81.349 126.988 81.673 127.756C82.081 127.012 82.957 126.496 83.929 126.496C85.273 126.496 86.137 127.444 86.137 128.74V133H85.141V128.776C85.141 127.924 84.613 127.372 83.761 127.372C82.573 127.372 81.877 128.164 81.865 129.136V133H80.881V128.776C80.881 127.924 80.353 127.372 79.501 127.372C78.313 127.372 77.617 128.164 77.605 129.136V133ZM89.7469 133.096C88.3069 133.096 87.3829 132.352 87.3829 131.188C87.3829 129.724 88.7989 129.448 90.0709 129.316C91.0429 129.22 91.8829 129.232 91.8949 128.716C91.8829 127.912 91.2229 127.348 90.2629 127.348C89.3389 127.348 88.6189 127.864 88.5109 128.62H87.5269C87.6469 127.372 88.7749 126.496 90.2869 126.496C91.8589 126.496 92.8669 127.432 92.8669 128.776V131.872C92.8669 132.076 92.9749 132.184 93.1909 132.184H93.5509V133H92.9869C92.3029 133 91.9429 132.688 91.9429 132.1V131.908C91.5709 132.64 90.8509 133.096 89.7469 133.096ZM89.8909 132.244C91.0789 132.244 91.8949 131.488 91.8949 130.432V129.604C91.6189 129.976 90.9109 130.048 90.1309 130.132C89.2549 130.228 88.3789 130.348 88.3789 131.164C88.3789 131.824 88.9789 132.244 89.8909 132.244ZM97.0436 133.132C95.5316 133.132 94.4156 132.34 94.3316 130.996H95.3036C95.3756 131.824 96.1316 132.28 97.0916 132.28C97.9916 132.28 98.4236 131.932 98.4236 131.296C98.4236 130.696 97.9556 130.564 97.2956 130.336L96.3716 130.024C95.4356 129.712 94.4996 129.424 94.4996 128.272C94.4996 127.192 95.3396 126.496 96.7316 126.496C98.1356 126.496 99.1076 127.252 99.2636 128.668H98.2916C98.1836 127.78 97.5596 127.348 96.6956 127.348C95.9156 127.348 95.4596 127.696 95.4596 128.248C95.4596 128.908 96.1556 129.04 96.6836 129.22L97.5476 129.508C98.7116 129.892 99.4076 130.288 99.4076 131.344C99.4076 132.46 98.5916 133.132 97.0436 133.132ZM101.136 125.572C100.704 125.572 100.392 125.26 100.392 124.828C100.392 124.408 100.704 124.096 101.136 124.096C101.556 124.096 101.868 124.408 101.868 124.828C101.868 125.26 101.556 125.572 101.136 125.572ZM99.7324 135.4H98.8444V134.56H99.7324C100.32 134.56 100.632 134.224 100.632 133.588V126.64H101.628V133.588C101.628 134.764 100.968 135.4 99.7324 135.4ZM106.053 133.132C104.013 133.132 102.933 131.68 102.933 129.76C102.933 127.636 104.325 126.496 106.053 126.496C108.081 126.496 109.173 127.96 109.173 129.76C109.173 131.956 107.841 133.132 106.053 133.132ZM106.053 132.268C107.409 132.268 108.153 131.14 108.153 129.76C108.153 128.332 107.325 127.36 106.053 127.36C104.781 127.36 103.953 128.332 103.953 129.76C103.953 131.392 104.901 132.268 106.053 132.268ZM111.472 133H110.476V126.64H111.268L111.364 127.612C111.796 126.94 112.624 126.496 113.572 126.496C114.94 126.496 115.852 127.384 115.852 128.788V133H114.856V128.824C114.856 127.936 114.28 127.372 113.32 127.372C112.18 127.372 111.484 128.164 111.472 129.136V133ZM120.222 133.132C118.338 133.132 117.09 131.752 117.09 129.844C117.09 127.672 118.494 126.496 120.102 126.496C121.854 126.496 122.982 127.672 123.018 129.712V129.988H118.086C118.146 131.344 118.938 132.268 120.222 132.268C121.11 132.268 121.758 131.824 122.022 130.996H122.994C122.706 132.304 121.674 133.132 120.222 133.132ZM118.146 129.16H121.974C121.794 128.044 121.122 127.36 120.102 127.36C119.094 127.36 118.35 128.02 118.146 129.16ZM125.324 133H124.328V126.64H125.12L125.216 127.612C125.648 126.94 126.476 126.496 127.424 126.496C128.792 126.496 129.704 127.384 129.704 128.788V133H128.708V128.824C128.708 127.936 128.132 127.372 127.172 127.372C126.032 127.372 125.336 128.164 125.324 129.136V133ZM135.665 133H134.669V127.48H133.493V126.64H134.669V125.752C134.669 124.612 135.305 124 136.481 124H137.897V124.84H136.481C135.953 124.84 135.665 125.164 135.665 125.752V126.64H137.729V127.48H135.665V133ZM144.421 126.496L143.701 127.42C144.241 128.008 144.529 128.836 144.529 129.76C144.529 131.956 143.197 133.132 141.409 133.132C140.689 133.132 140.089 132.952 139.609 132.628L138.901 133.528L138.397 133.18L139.141 132.232C138.577 131.62 138.289 130.756 138.289 129.76C138.289 127.636 139.681 126.496 141.409 126.496C142.141 126.496 142.753 126.688 143.233 127.012L143.905 126.148L144.421 126.496ZM139.309 129.76C139.309 130.456 139.477 131.02 139.765 131.428L142.645 127.756C142.309 127.504 141.889 127.36 141.409 127.36C140.137 127.36 139.309 128.332 139.309 129.76ZM141.409 132.268C142.765 132.268 143.509 131.14 143.509 129.76C143.509 129.148 143.353 128.608 143.077 128.212L140.197 131.872C140.545 132.136 140.965 132.268 141.409 132.268ZM146.828 133H145.832V126.64H146.624L146.744 127.852C147.152 127.036 147.896 126.604 148.952 126.604H149.168V127.588H148.952C147.608 127.588 146.828 128.356 146.828 129.664V133ZM155.572 133.132C153.868 133.132 152.68 131.764 152.68 129.784C152.68 127.84 153.856 126.496 155.56 126.496C156.52 126.496 157.324 126.916 157.78 127.588V124H158.776V133H157.984L157.876 131.776C157.456 132.604 156.616 133.132 155.572 133.132ZM155.728 132.268C156.94 132.268 157.78 131.236 157.78 129.76C157.78 128.332 156.964 127.348 155.788 127.348C154.564 127.348 153.712 128.344 153.712 129.784C153.712 131.248 154.54 132.268 155.728 132.268ZM162.761 133.132C161.213 133.132 160.325 132.184 160.325 130.888V126.64H161.321V130.852C161.321 131.764 161.957 132.256 162.857 132.256C164.045 132.256 164.693 131.464 164.705 130.504V126.64H165.701V133H164.909L164.825 132.04C164.405 132.76 163.637 133.132 162.761 133.132ZM171.735 133H170.739V127.48H169.563V126.64H170.739V125.752C170.739 124.612 171.375 124 172.551 124H173.967V124.84H172.551C172.023 124.84 171.735 125.164 171.735 125.752V126.64H173.799V127.48H171.735V133ZM177.479 133.132C175.439 133.132 174.359 131.68 174.359 129.76C174.359 127.636 175.751 126.496 177.479 126.496C179.507 126.496 180.599 127.96 180.599 129.76C180.599 131.956 179.267 133.132 177.479 133.132ZM177.479 132.268C178.835 132.268 179.579 131.14 179.579 129.76C179.579 128.332 178.751 127.36 177.479 127.36C176.207 127.36 175.379 128.332 175.379 129.76C175.379 131.392 176.327 132.268 177.479 132.268ZM182.898 133H181.902V126.64H182.694L182.814 127.852C183.222 127.036 183.966 126.604 185.022 126.604H185.238V127.588H185.022C183.678 127.588 182.898 128.356 182.898 129.664V133ZM189.691 133H188.983C187.747 133 187.087 132.364 187.087 131.188V127.48H185.911V126.64H187.087V124.468H188.083V126.64H189.799V127.48H188.083V131.188C188.083 131.824 188.395 132.16 188.983 132.16H189.691V133ZM193.348 133.132C191.836 133.132 190.72 132.34 190.636 130.996H191.608C191.68 131.824 192.436 132.28 193.396 132.28C194.296 132.28 194.728 131.932 194.728 131.296C194.728 130.696 194.26 130.564 193.6 130.336L192.676 130.024C191.74 129.712 190.804 129.424 190.804 128.272C190.804 127.192 191.644 126.496 193.036 126.496C194.44 126.496 195.412 127.252 195.568 128.668H194.596C194.488 127.78 193.864 127.348 193 127.348C192.22 127.348 191.764 127.696 191.764 128.248C191.764 128.908 192.46 129.04 192.988 129.22L193.852 129.508C195.016 129.892 195.712 130.288 195.712 131.344C195.712 132.46 194.896 133.132 193.348 133.132ZM199.745 133.132C197.861 133.132 196.613 131.752 196.613 129.844C196.613 127.672 198.017 126.496 199.625 126.496C201.377 126.496 202.505 127.672 202.541 129.712V129.988H197.609C197.669 131.344 198.461 132.268 199.745 132.268C200.633 132.268 201.281 131.824 201.545 130.996H202.517C202.229 132.304 201.197 133.132 199.745 133.132ZM197.669 129.16H201.497C201.317 128.044 200.645 127.36 199.625 127.36C198.617 127.36 197.873 128.02 197.669 129.16ZM206.999 133H206.291C205.055 133 204.395 132.364 204.395 131.188V127.48H203.219V126.64H204.395V124.468H205.391V126.64H207.863V124.468H208.859V126.64H210.575V127.48H208.859V131.188C208.859 131.824 209.171 132.16 209.759 132.16H210.467V133H209.759C208.523 133 207.863 132.364 207.863 131.188V127.48H205.391V131.188C205.391 131.824 205.703 132.16 206.291 132.16H206.999V133ZM214.405 133.132C212.521 133.132 211.273 131.752 211.273 129.844C211.273 127.672 212.677 126.496 214.285 126.496C216.037 126.496 217.165 127.672 217.201 129.712V129.988H212.269C212.329 131.344 213.121 132.268 214.405 132.268C215.293 132.268 215.941 131.824 216.205 130.996H217.177C216.889 132.304 215.857 133.132 214.405 133.132ZM212.329 129.16H216.157C215.977 128.044 215.305 127.36 214.285 127.36C213.277 127.36 212.533 128.02 212.329 129.16ZM219.507 133H218.511V126.64H219.303L219.423 127.852C219.831 127.036 220.575 126.604 221.631 126.604H221.847V127.588H221.631C220.287 127.588 219.507 128.356 219.507 129.664V133ZM222.614 133.12C222.182 133.12 221.858 132.796 221.858 132.364C221.858 131.944 222.182 131.62 222.614 131.62C223.046 131.62 223.37 131.944 223.37 132.364C223.37 132.796 223.046 133.12 222.614 133.12Z" fill="#4420B0"/>
<mask id="path-9-inside-1_634_1896" fill="white">
<path d="M269 48C269 43.5817 272.582 40 277 40H285C289.418 40 293 43.5817 293 48V56C293 60.4183 289.418 64 285 64H277C272.582 64 269 60.4183 269 56V48Z"/>
</mask>
<path d="M277 41H285V39H277V41ZM292 48V56H294V48H292ZM285 63H277V65H285V63ZM270 56V48H268V56H270ZM277 63C273.134 63 270 59.866 270 56H268C268 60.9706 272.029 65 277 65V63ZM292 56C292 59.866 288.866 63 285 63V65C289.971 65 294 60.9706 294 56H292ZM285 41C288.866 41 292 44.134 292 48H294C294 43.0294 289.971 39 285 39V41ZM277 39C272.029 39 268 43.0294 268 48H270C270 44.134 273.134 41 277 41V39Z" fill="#014F2D" mask="url(#path-9-inside-1_634_1896)"/>
<path d="M309.4 57.176C307.224 57.176 305.704 55.88 305.704 54.008V52.408H307.032V53.992C307.032 55.144 308.008 55.944 309.4 55.944C310.744 55.944 311.672 55.08 311.672 53.832V45.8H313.016V53.864C313.016 55.816 311.544 57.176 309.4 57.176ZM319.113 57.176C316.601 57.176 314.937 55.336 314.937 52.792C314.937 49.896 316.809 48.328 318.953 48.328C321.289 48.328 322.793 49.896 322.841 52.616V52.984H316.265C316.345 54.792 317.401 56.024 319.113 56.024C320.297 56.024 321.161 55.432 321.513 54.328H322.809C322.425 56.072 321.049 57.176 319.113 57.176ZM316.345 51.88H321.449C321.209 50.392 320.313 49.48 318.953 49.48C317.609 49.48 316.617 50.36 316.345 51.88ZM328.284 60.392C325.996 60.392 324.444 59.288 324.444 57.496H325.772C325.772 58.504 326.796 59.272 328.284 59.272C330.028 59.272 330.94 58.232 330.94 56.776V55.4C330.348 56.28 329.324 56.856 328.028 56.856C325.772 56.856 324.156 55.128 324.156 52.632C324.156 50.088 325.788 48.328 328.028 48.328C329.388 48.328 330.492 48.968 331.068 49.992L331.212 48.52H332.252V56.776C332.252 58.92 330.812 60.392 328.284 60.392ZM328.22 55.704C329.82 55.704 330.94 54.424 330.94 52.584C330.94 50.76 329.82 49.48 328.22 49.48C326.636 49.48 325.532 50.76 325.532 52.616C325.532 54.44 326.636 55.704 328.22 55.704ZM339.402 57H338.074V45H339.402V49.608C340.01 48.84 341.049 48.328 342.202 48.328C344.026 48.328 345.242 49.512 345.242 51.384V57H343.914V51.432C343.914 50.248 343.146 49.496 341.946 49.496C340.346 49.496 339.418 50.552 339.402 51.848V57ZM350.058 57.128C348.138 57.128 346.906 56.136 346.906 54.584C346.906 52.632 348.794 52.264 350.49 52.088C351.786 51.96 352.906 51.976 352.922 51.288C352.906 50.216 352.026 49.464 350.746 49.464C349.514 49.464 348.554 50.152 348.41 51.16H347.098C347.258 49.496 348.762 48.328 350.778 48.328C352.874 48.328 354.218 49.576 354.218 51.368V55.496C354.218 55.768 354.362 55.912 354.65 55.912H355.13V57H354.378C353.466 57 352.986 56.584 352.986 55.8V55.544C352.49 56.52 351.53 57.128 350.058 57.128ZM350.25 55.992C351.834 55.992 352.922 54.984 352.922 53.576V52.472C352.554 52.968 351.61 53.064 350.57 53.176C349.402 53.304 348.234 53.464 348.234 54.552C348.234 55.432 349.034 55.992 350.25 55.992ZM357.947 57H356.619V48.52H357.675L357.835 50.136C358.379 49.048 359.371 48.472 360.779 48.472H361.067V49.784H360.779C358.987 49.784 357.947 50.808 357.947 52.552V57ZM367.558 57H366.23V45H367.558V57ZM373.52 57.176C371.008 57.176 369.344 55.336 369.344 52.792C369.344 49.896 371.216 48.328 373.36 48.328C375.696 48.328 377.2 49.896 377.248 52.616V52.984H370.672C370.752 54.792 371.808 56.024 373.52 56.024C374.704 56.024 375.568 55.432 375.92 54.328H377.216C376.832 56.072 375.456 57.176 373.52 57.176ZM370.752 51.88H375.856C375.616 50.392 374.72 49.48 373.36 49.48C372.016 49.48 371.024 50.36 370.752 51.88ZM382.162 57.176C380.146 57.176 378.658 56.12 378.546 54.328H379.842C379.938 55.432 380.946 56.04 382.226 56.04C383.426 56.04 384.002 55.576 384.002 54.728C384.002 53.928 383.378 53.752 382.498 53.448L381.266 53.032C380.018 52.616 378.77 52.232 378.77 50.696C378.77 49.256 379.89 48.328 381.746 48.328C383.618 48.328 384.914 49.336 385.122 51.224H383.826C383.682 50.04 382.85 49.464 381.698 49.464C380.658 49.464 380.05 49.928 380.05 50.664C380.05 51.544 380.978 51.72 381.682 51.96L382.834 52.344C384.386 52.856 385.314 53.384 385.314 54.792C385.314 56.28 384.226 57.176 382.162 57.176ZM391.145 57H390.201C388.553 57 387.673 56.152 387.673 54.584V49.64H386.105V48.52H387.673V45.624H389.001V48.52H391.289V49.64H389.001V54.584C389.001 55.432 389.417 55.88 390.201 55.88H391.145V57ZM400.607 57H399.215L395.679 48.52H397.119L399.919 55.448L402.703 48.52H404.143L400.607 57ZM408.988 57.176C406.476 57.176 404.812 55.336 404.812 52.792C404.812 49.896 406.684 48.328 408.828 48.328C411.164 48.328 412.668 49.896 412.716 52.616V52.984H406.14C406.22 54.792 407.276 56.024 408.988 56.024C410.172 56.024 411.036 55.432 411.388 54.328H412.684C412.3 56.072 410.924 57.176 408.988 57.176ZM406.22 51.88H411.324C411.084 50.392 410.188 49.48 408.828 49.48C407.484 49.48 406.492 50.36 406.22 51.88ZM417.887 57.176C415.615 57.176 414.031 55.352 414.031 52.712C414.031 50.12 415.599 48.328 417.871 48.328C419.151 48.328 420.223 48.888 420.831 49.784V45H422.159V57H421.103L420.959 55.368C420.399 56.472 419.279 57.176 417.887 57.176ZM418.095 56.024C419.711 56.024 420.831 54.648 420.831 52.68C420.831 50.776 419.743 49.464 418.175 49.464C416.543 49.464 415.407 50.792 415.407 52.712C415.407 54.664 416.511 56.024 418.095 56.024ZM425.761 57H424.433V45H425.761V57ZM431.723 57.176C429.211 57.176 427.547 55.336 427.547 52.792C427.547 49.896 429.419 48.328 431.563 48.328C433.899 48.328 435.403 49.896 435.451 52.616V52.984H428.875C428.955 54.792 430.011 56.024 431.723 56.024C432.907 56.024 433.771 55.432 434.123 54.328H435.419C435.035 56.072 433.659 57.176 431.723 57.176ZM428.955 51.88H434.059C433.819 50.392 432.923 49.48 431.563 49.48C430.219 49.48 429.227 50.36 428.955 51.88ZM440.893 60.392C438.605 60.392 437.053 59.288 437.053 57.496H438.381C438.381 58.504 439.405 59.272 440.893 59.272C442.637 59.272 443.549 58.232 443.549 56.776V55.4C442.957 56.28 441.933 56.856 440.637 56.856C438.381 56.856 436.765 55.128 436.765 52.632C436.765 50.088 438.397 48.328 440.637 48.328C441.997 48.328 443.101 48.968 443.677 49.992L443.821 48.52H444.861V56.776C444.861 58.92 443.421 60.392 440.893 60.392ZM440.829 55.704C442.429 55.704 443.549 54.424 443.549 52.584C443.549 50.76 442.429 49.48 440.829 49.48C439.245 49.48 438.141 50.76 438.141 52.616C438.141 54.44 439.245 55.704 440.829 55.704ZM450.737 60.392C448.449 60.392 446.897 59.288 446.897 57.496H448.225C448.225 58.504 449.249 59.272 450.737 59.272C452.481 59.272 453.393 58.232 453.393 56.776V55.4C452.801 56.28 451.777 56.856 450.481 56.856C448.225 56.856 446.609 55.128 446.609 52.632C446.609 50.088 448.241 48.328 450.481 48.328C451.841 48.328 452.945 48.968 453.521 49.992L453.665 48.52H454.705V56.776C454.705 58.92 453.265 60.392 450.737 60.392ZM450.673 55.704C452.273 55.704 453.393 54.424 453.393 52.584C453.393 50.76 452.273 49.48 450.673 49.48C449.089 49.48 447.985 50.76 447.985 52.616C447.985 54.44 449.089 55.704 450.673 55.704ZM460.629 57.176C458.117 57.176 456.453 55.336 456.453 52.792C456.453 49.896 458.325 48.328 460.469 48.328C462.805 48.328 464.309 49.896 464.357 52.616V52.984H457.781C457.861 54.792 458.917 56.024 460.629 56.024C461.813 56.024 462.677 55.432 463.029 54.328H464.325C463.941 56.072 462.565 57.176 460.629 57.176ZM457.861 51.88H462.965C462.725 50.392 461.829 49.48 460.469 49.48C459.125 49.48 458.133 50.36 457.861 51.88ZM470.301 57H469.357C467.709 57 466.829 56.152 466.829 54.584V49.64H465.261V48.52H466.829V45.624H468.157V48.52H470.445V49.64H468.157V54.584C468.157 55.432 468.573 55.88 469.357 55.88H470.301V57ZM472.73 57.16C472.154 57.16 471.722 56.728 471.722 56.152C471.722 55.592 472.154 55.16 472.73 55.16C473.306 55.16 473.738 55.592 473.738 56.152C473.738 56.728 473.306 57.16 472.73 57.16Z" fill="#481125"/>
<path d="M305 81C305 76.5817 308.582 73 313 73H555C559.418 73 563 76.5817 563 81V101C563 105.418 559.418 109 555 109H313C308.582 109 305 105.418 305 101V81Z" fill="#FFE6D2"/>
<g clip-path="url(#clip2_634_1896)">
<path fill-rule="evenodd" clip-rule="evenodd" d="M313 91C313 94.8599 316.14 98 320 98C323.86 98 327 94.8599 327 91C327 87.1401 323.86 84 320 84C316.14 84 313 87.1401 313 91ZM320 92.3125C319.884 92.3125 319.773 92.2664 319.691 92.1844C319.609 92.1023 319.562 91.991 319.562 91.875V87.0625C319.562 86.9465 319.609 86.8352 319.691 86.7531C319.773 86.6711 319.884 86.625 320 86.625C320.116 86.625 320.227 86.6711 320.309 86.7531C320.391 86.8352 320.437 86.9465 320.437 87.0625V91.875C320.437 91.991 320.391 92.1023 320.309 92.1844C320.227 92.2664 320.116 92.3125 320 92.3125ZM320 94.5C320.362 94.5 320.656 94.2062 320.656 93.8438C320.656 93.4813 320.362 93.1875 320 93.1875C319.638 93.1875 319.344 93.4813 319.344 93.8438C319.344 94.2062 319.638 94.5 320 94.5Z" fill="#623A0E"/>
</g>
<path d="M334.984 94H332.02V85.6H334.984C337.396 85.6 339.076 87.304 339.076 89.752C339.076 92.26 337.396 94 334.984 94ZM333.028 86.524V93.076H335.044C336.784 93.076 338.008 91.708 338.008 89.752C338.008 87.94 336.784 86.524 335.044 86.524H333.028ZM342.839 94.132C341.291 94.132 340.403 93.184 340.403 91.888V87.64H341.399V91.852C341.399 92.764 342.035 93.256 342.935 93.256C344.123 93.256 344.771 92.464 344.783 91.504V87.64H345.779V94H344.987L344.903 93.04C344.483 93.76 343.715 94.132 342.839 94.132ZM351.105 94H350.109V87.64H350.901L350.997 88.624C351.429 87.94 352.257 87.496 353.169 87.496C354.129 87.496 354.849 87.988 355.173 88.756C355.581 88.012 356.457 87.496 357.429 87.496C358.773 87.496 359.637 88.444 359.637 89.74V94H358.641V89.776C358.641 88.924 358.113 88.372 357.261 88.372C356.073 88.372 355.377 89.164 355.365 90.136V94H354.381V89.776C354.381 88.924 353.853 88.372 353.001 88.372C351.813 88.372 351.117 89.164 351.105 90.136V94ZM363.715 86.956C363.031 86.956 362.515 86.464 362.515 85.816C362.515 85.168 363.031 84.676 363.715 84.676C364.399 84.676 364.915 85.168 364.915 85.816C364.915 86.464 364.399 86.956 363.715 86.956ZM363.715 86.356C364.027 86.356 364.255 86.128 364.255 85.816C364.255 85.504 364.027 85.276 363.715 85.276C363.403 85.276 363.175 85.504 363.175 85.816C363.175 86.128 363.403 86.356 363.715 86.356ZM363.247 94.096C361.807 94.096 360.883 93.352 360.883 92.188C360.883 90.724 362.299 90.448 363.571 90.316C364.543 90.22 365.383 90.232 365.395 89.716C365.383 88.912 364.723 88.348 363.763 88.348C362.839 88.348 362.119 88.864 362.011 89.62H361.027C361.147 88.372 362.275 87.496 363.787 87.496C365.359 87.496 366.367 88.432 366.367 89.776V92.872C366.367 93.076 366.475 93.184 366.691 93.184H367.051V94H366.487C365.803 94 365.443 93.688 365.443 93.1V92.908C365.071 93.64 364.351 94.096 363.247 94.096ZM363.391 93.244C364.579 93.244 365.395 92.488 365.395 91.432V90.604C365.119 90.976 364.411 91.048 363.631 91.132C362.755 91.228 361.879 91.348 361.879 92.164C361.879 92.824 362.479 93.244 363.391 93.244ZM374.127 94.132C373.083 94.132 372.231 93.616 371.799 92.788L371.691 94H370.899V85H371.895V88.636C372.363 87.94 373.167 87.496 374.127 87.496C375.807 87.496 376.983 88.84 376.983 90.784C376.983 92.764 375.807 94.132 374.127 94.132ZM373.971 93.268C375.147 93.268 375.951 92.248 375.951 90.784C375.951 89.356 375.147 88.36 373.959 88.36C372.759 88.36 371.895 89.332 371.895 90.736C371.895 92.224 372.759 93.268 373.971 93.268ZM381.101 94.132C379.217 94.132 377.969 92.752 377.969 90.844C377.969 88.672 379.373 87.496 380.981 87.496C382.733 87.496 383.861 88.672 383.897 90.712V90.988H378.965C379.025 92.344 379.817 93.268 381.101 93.268C381.989 93.268 382.637 92.824 382.901 91.996H383.873C383.585 93.304 382.553 94.132 381.101 94.132ZM379.025 90.16H382.853C382.673 89.044 382.001 88.36 380.981 88.36C379.973 88.36 379.229 89.02 379.025 90.16ZM386.239 94H385.243V85H386.239V90.772L389.335 87.64H390.535L388.243 89.956L390.883 94H389.719L387.559 90.652L386.239 91.984V94ZM392.718 94H391.722V87.64H392.514L392.634 88.852C393.042 88.036 393.786 87.604 394.842 87.604H395.058V88.588H394.842C393.498 88.588 392.718 89.356 392.718 90.664V94ZM398.714 94.132C396.83 94.132 395.582 92.752 395.582 90.844C395.582 88.672 396.986 87.496 398.594 87.496C400.346 87.496 401.474 88.672 401.51 90.712V90.988H396.578C396.638 92.344 397.43 93.268 398.714 93.268C399.602 93.268 400.25 92.824 400.514 91.996H401.486C401.198 93.304 400.166 94.132 398.714 94.132ZM396.638 90.16H400.466C400.286 89.044 399.614 88.36 398.594 88.36C397.586 88.36 396.842 89.02 396.638 90.16ZM404.36 94H403.364V88.48H402.188V87.64H403.364V86.752C403.364 85.612 404 85 405.176 85H406.592V85.84H405.176C404.648 85.84 404.36 86.164 404.36 86.752V87.64H407.24V85.468H408.236V87.64H409.952V88.48H408.236V92.188C408.236 92.824 408.548 93.16 409.136 93.16H409.844V94H409.136C407.9 94 407.24 93.364 407.24 92.188V88.48H404.36V94ZM413.784 94.132C411.9 94.132 410.652 92.752 410.652 90.844C410.652 88.672 412.056 87.496 413.664 87.496C415.416 87.496 416.544 88.672 416.58 90.712V90.988H411.648C411.708 92.344 412.5 93.268 413.784 93.268C414.672 93.268 415.32 92.824 415.584 91.996H416.556C416.268 93.304 415.236 94.132 413.784 94.132ZM411.708 90.16H415.536C415.356 89.044 414.684 88.36 413.664 88.36C412.656 88.36 411.912 89.02 411.708 90.16ZM422.638 94.096C421.198 94.096 420.274 93.352 420.274 92.188C420.274 90.724 421.69 90.448 422.962 90.316C423.934 90.22 424.774 90.232 424.786 89.716C424.774 88.912 424.114 88.348 423.154 88.348C422.23 88.348 421.51 88.864 421.402 89.62H420.418C420.538 88.372 421.666 87.496 423.178 87.496C424.75 87.496 425.758 88.432 425.758 89.776V92.872C425.758 93.076 425.866 93.184 426.082 93.184H426.442V94H425.878C425.194 94 424.834 93.688 424.834 93.1V92.908C424.462 93.64 423.742 94.096 422.638 94.096ZM422.782 93.244C423.97 93.244 424.786 92.488 424.786 91.432V90.604C424.51 90.976 423.802 91.048 423.022 91.132C422.146 91.228 421.27 91.348 421.27 92.164C421.27 92.824 421.87 93.244 422.782 93.244ZM430.706 94H429.998C428.762 94 428.102 93.364 428.102 92.188V88.48H426.926V87.64H428.102V85.468H429.098V87.64H430.814V88.48H429.098V92.188C429.098 92.824 429.41 93.16 429.998 93.16H430.706V94ZM437.251 94.132C435.547 94.132 434.359 92.764 434.359 90.784C434.359 88.84 435.535 87.496 437.239 87.496C438.199 87.496 439.003 87.916 439.459 88.588V85H440.455V94H439.663L439.555 92.776C439.135 93.604 438.295 94.132 437.251 94.132ZM437.407 93.268C438.619 93.268 439.459 92.236 439.459 90.76C439.459 89.332 438.643 88.348 437.467 88.348C436.243 88.348 435.391 89.344 435.391 90.784C435.391 92.248 436.219 93.268 437.407 93.268ZM444.441 94.132C442.893 94.132 442.005 93.184 442.005 91.888V87.64H443.001V91.852C443.001 92.764 443.637 93.256 444.537 93.256C445.725 93.256 446.373 92.464 446.385 91.504V87.64H447.381V94H446.589L446.505 93.04C446.085 93.76 445.317 94.132 444.441 94.132ZM452.743 94H451.747V85H452.743V88.456C453.199 87.88 453.979 87.496 454.843 87.496C456.211 87.496 457.123 88.384 457.123 89.788V94H456.127V89.824C456.127 88.936 455.551 88.372 454.651 88.372C453.451 88.372 452.755 89.164 452.743 90.136V94ZM460.735 94.096C459.295 94.096 458.371 93.352 458.371 92.188C458.371 90.724 459.787 90.448 461.059 90.316C462.031 90.22 462.871 90.232 462.883 89.716C462.871 88.912 462.211 88.348 461.251 88.348C460.327 88.348 459.607 88.864 459.499 89.62H458.515C458.635 88.372 459.763 87.496 461.275 87.496C462.847 87.496 463.855 88.432 463.855 89.776V92.872C463.855 93.076 463.963 93.184 464.179 93.184H464.539V94H463.975C463.291 94 462.931 93.688 462.931 93.1V92.908C462.559 93.64 461.839 94.096 460.735 94.096ZM460.879 93.244C462.067 93.244 462.883 92.488 462.883 91.432V90.604C462.607 90.976 461.899 91.048 461.119 91.132C460.243 91.228 459.367 91.348 459.367 92.164C459.367 92.824 459.967 93.244 460.879 93.244ZM466.652 94H465.656V87.64H466.448L466.568 88.852C466.976 88.036 467.72 87.604 468.776 87.604H468.992V88.588H468.776C467.432 88.588 466.652 89.356 466.652 90.664V94ZM473.86 94H472.864V85H473.86V94ZM478.331 94.132C476.447 94.132 475.199 92.752 475.199 90.844C475.199 88.672 476.603 87.496 478.211 87.496C479.963 87.496 481.091 88.672 481.127 90.712V90.988H476.195C476.255 92.344 477.047 93.268 478.331 93.268C479.219 93.268 479.867 92.824 480.131 91.996H481.103C480.815 93.304 479.783 94.132 478.331 94.132ZM476.255 90.16H480.083C479.903 89.044 479.231 88.36 478.211 88.36C477.203 88.36 476.459 89.02 476.255 90.16ZM484.813 94.132C483.301 94.132 482.185 93.34 482.101 91.996H483.073C483.145 92.824 483.901 93.28 484.861 93.28C485.761 93.28 486.193 92.932 486.193 92.296C486.193 91.696 485.725 91.564 485.065 91.336L484.141 91.024C483.205 90.712 482.269 90.424 482.269 89.272C482.269 88.192 483.109 87.496 484.501 87.496C485.905 87.496 486.877 88.252 487.033 89.668H486.061C485.953 88.78 485.329 88.348 484.465 88.348C483.685 88.348 483.229 88.696 483.229 89.248C483.229 89.908 483.925 90.04 484.453 90.22L485.317 90.508C486.481 90.892 487.177 91.288 487.177 92.344C487.177 93.46 486.361 94.132 484.813 94.132ZM491.55 94H490.842C489.606 94 488.946 93.364 488.946 92.188V88.48H487.77V87.64H488.946V85.468H489.942V87.64H491.658V88.48H489.942V92.188C489.942 92.824 490.254 93.16 490.842 93.16H491.55V94ZM498.647 94H497.603L494.951 87.64H496.031L498.131 92.836L500.219 87.64H501.299L498.647 94ZM504.933 94.132C503.049 94.132 501.801 92.752 501.801 90.844C501.801 88.672 503.205 87.496 504.813 87.496C506.565 87.496 507.693 88.672 507.729 90.712V90.988H502.797C502.857 92.344 503.649 93.268 504.933 93.268C505.821 93.268 506.469 92.824 506.733 91.996H507.705C507.417 93.304 506.385 94.132 504.933 94.132ZM502.857 90.16H506.685C506.505 89.044 505.833 88.36 504.813 88.36C503.805 88.36 503.061 89.02 502.857 90.16ZM511.607 94.132C509.903 94.132 508.715 92.764 508.715 90.784C508.715 88.84 509.891 87.496 511.595 87.496C512.555 87.496 513.359 87.916 513.815 88.588V85H514.811V94H514.019L513.911 92.776C513.491 93.604 512.651 94.132 511.607 94.132ZM511.763 93.268C512.975 93.268 513.815 92.236 513.815 90.76C513.815 89.332 512.999 88.348 511.823 88.348C510.599 88.348 509.747 89.344 509.747 90.784C509.747 92.248 510.575 93.268 511.763 93.268ZM517.512 94H516.516V85H517.512V94ZM521.983 94.132C520.099 94.132 518.851 92.752 518.851 90.844C518.851 88.672 520.255 87.496 521.863 87.496C523.615 87.496 524.743 88.672 524.779 90.712V90.988H519.847C519.907 92.344 520.699 93.268 521.983 93.268C522.871 93.268 523.519 92.824 523.783 91.996H524.755C524.467 93.304 523.435 94.132 521.983 94.132ZM519.907 90.16H523.735C523.555 89.044 522.883 88.36 521.863 88.36C520.855 88.36 520.111 89.02 519.907 90.16ZM528.861 96.544C527.145 96.544 525.981 95.716 525.981 94.372H526.977C526.977 95.128 527.745 95.704 528.861 95.704C530.169 95.704 530.853 94.924 530.853 93.832V92.8C530.409 93.46 529.641 93.892 528.669 93.892C526.977 93.892 525.765 92.596 525.765 90.724C525.765 88.816 526.989 87.496 528.669 87.496C529.689 87.496 530.517 87.976 530.949 88.744L531.057 87.64H531.837V93.832C531.837 95.44 530.757 96.544 528.861 96.544ZM528.813 93.028C530.013 93.028 530.853 92.068 530.853 90.688C530.853 89.32 530.013 88.36 528.813 88.36C527.625 88.36 526.797 89.32 526.797 90.712C526.797 92.08 527.625 93.028 528.813 93.028ZM536.244 96.544C534.528 96.544 533.364 95.716 533.364 94.372H534.36C534.36 95.128 535.128 95.704 536.244 95.704C537.552 95.704 538.236 94.924 538.236 93.832V92.8C537.792 93.46 537.024 93.892 536.052 93.892C534.36 93.892 533.148 92.596 533.148 90.724C533.148 88.816 534.372 87.496 536.052 87.496C537.072 87.496 537.9 87.976 538.332 88.744L538.44 87.64H539.22V93.832C539.22 95.44 538.14 96.544 536.244 96.544ZM536.196 93.028C537.396 93.028 538.236 92.068 538.236 90.688C538.236 89.32 537.396 88.36 536.196 88.36C535.008 88.36 534.18 89.32 534.18 90.712C534.18 92.08 535.008 93.028 536.196 93.028ZM543.663 94.132C541.779 94.132 540.531 92.752 540.531 90.844C540.531 88.672 541.935 87.496 543.543 87.496C545.295 87.496 546.423 88.672 546.459 90.712V90.988H541.527C541.587 92.344 542.379 93.268 543.663 93.268C544.551 93.268 545.199 92.824 545.463 91.996H546.435C546.147 93.304 545.115 94.132 543.663 94.132ZM541.587 90.16H545.415C545.235 89.044 544.563 88.36 543.543 88.36C542.535 88.36 541.791 89.02 541.587 90.16ZM550.917 94H550.209C548.973 94 548.313 93.364 548.313 92.188V88.48H547.137V87.64H548.313V85.468H549.309V87.64H551.025V88.48H549.309V92.188C549.309 92.824 549.621 93.16 550.209 93.16H550.917V94ZM552.739 94.12C552.307 94.12 551.983 93.796 551.983 93.364C551.983 92.944 552.307 92.62 552.739 92.62C553.171 92.62 553.495 92.944 553.495 93.364C553.495 93.796 553.171 94.12 552.739 94.12Z" fill="#623A0E"/>
<mask id="path-15-inside-2_634_1896" fill="white">
<path d="M28 184C28 179.582 31.5817 176 36 176H242C246.418 176 250 179.582 250 184V217H28V184Z"/>
</mask>
<path d="M28 176H250H28ZM250 218H28V216H250V218ZM28 217V176V217ZM250 176V217V176Z" fill="#481125" mask="url(#path-15-inside-2_634_1896)"/>
<path d="M37.808 201.16C37.232 201.16 36.8 200.728 36.8 200.152C36.8 199.592 37.232 199.16 37.808 199.16C38.384 199.16 38.816 199.592 38.816 200.152C38.816 200.728 38.384 201.16 37.808 201.16ZM45.0111 201.16C44.4351 201.16 44.0031 200.728 44.0031 200.152C44.0031 199.592 44.4351 199.16 45.0111 199.16C45.5871 199.16 46.0191 199.592 46.0191 200.152C46.0191 200.728 45.5871 201.16 45.0111 201.16ZM52.2143 201.16C51.6383 201.16 51.2063 200.728 51.2063 200.152C51.2063 199.592 51.6383 199.16 52.2143 199.16C52.7903 199.16 53.2223 199.592 53.2223 200.152C53.2223 200.728 52.7903 201.16 52.2143 201.16ZM59.4174 201.16C58.8414 201.16 58.4094 200.728 58.4094 200.152C58.4094 199.592 58.8414 199.16 59.4174 199.16C59.9934 199.16 60.4254 199.592 60.4254 200.152C60.4254 200.728 59.9934 201.16 59.4174 201.16ZM66.6205 201.16C66.0445 201.16 65.6125 200.728 65.6125 200.152C65.6125 199.592 66.0445 199.16 66.6205 199.16C67.1965 199.16 67.6285 199.592 67.6285 200.152C67.6285 200.728 67.1965 201.16 66.6205 201.16ZM73.8236 201.16C73.2476 201.16 72.8156 200.728 72.8156 200.152C72.8156 199.592 73.2476 199.16 73.8236 199.16C74.3996 199.16 74.8316 199.592 74.8316 200.152C74.8316 200.728 74.3996 201.16 73.8236 201.16ZM81.0268 201.16C80.4508 201.16 80.0188 200.728 80.0188 200.152C80.0188 199.592 80.4508 199.16 81.0268 199.16C81.6028 199.16 82.0348 199.592 82.0348 200.152C82.0348 200.728 81.6028 201.16 81.0268 201.16ZM88.2299 201.16C87.6539 201.16 87.2219 200.728 87.2219 200.152C87.2219 199.592 87.6539 199.16 88.2299 199.16C88.8059 199.16 89.2379 199.592 89.2379 200.152C89.2379 200.728 88.8059 201.16 88.2299 201.16Z" fill="#330314"/>
<g clip-path="url(#clip3_634_1896)">
<path d="M224.319 204.625C224.235 204.625 224.152 204.608 224.074 204.575C223.997 204.542 223.927 204.494 223.868 204.433C223.811 204.374 223.766 204.304 223.737 204.228C223.707 204.151 223.692 204.07 223.694 203.988C223.696 203.905 223.713 203.824 223.746 203.749C223.779 203.674 223.827 203.606 223.887 203.549L239.512 188.549C239.571 188.492 239.64 188.447 239.717 188.417C239.793 188.387 239.875 188.372 239.957 188.374C240.039 188.375 240.12 188.394 240.195 188.427C240.271 188.46 240.338 188.508 240.395 188.568C240.452 188.627 240.497 188.696 240.527 188.773C240.557 188.849 240.572 188.931 240.57 189.013C240.569 189.095 240.551 189.176 240.518 189.252C240.485 189.327 240.437 189.395 240.377 189.452L224.752 204.452C224.636 204.563 224.481 204.625 224.319 204.625Z" fill="#481125"/>
<path d="M231.99 203.375L231.898 203.376C231.025 203.376 230.146 203.24 229.284 202.973C229.143 202.928 229.022 202.833 228.943 202.707C228.865 202.581 228.834 202.43 228.857 202.283C228.879 202.136 228.953 202.002 229.066 201.905C229.178 201.807 229.321 201.753 229.47 201.752C229.533 201.752 229.595 201.761 229.655 201.78C230.395 202.01 231.155 202.127 231.912 202.127L232.12 202.128C235.331 202.128 238.583 199.806 240.557 197.633C240.683 197.494 240.753 197.313 240.752 197.125C240.752 196.937 240.682 196.756 240.556 196.617C239.81 195.799 238.984 195.058 238.09 194.406C238.023 194.358 237.967 194.297 237.924 194.227C237.882 194.157 237.853 194.079 237.841 193.998C237.823 193.876 237.841 193.751 237.893 193.639C237.945 193.528 238.029 193.434 238.134 193.37C238.239 193.305 238.361 193.274 238.484 193.278C238.608 193.283 238.727 193.324 238.827 193.396C239.789 194.099 240.679 194.897 241.482 195.778C242.176 196.547 242.176 197.704 241.485 198.472C239.33 200.843 235.739 203.377 232.121 203.377L231.99 203.375Z" fill="#481125"/>
<path d="M225.148 200.676C225.01 200.676 224.875 200.629 224.765 200.544C223.96 199.918 223.209 199.225 222.521 198.473C222.186 198.104 222.001 197.624 222 197.126C222 196.628 222.185 196.147 222.518 195.778C224.673 193.407 228.265 190.874 231.882 190.874L232.079 190.875C232.784 190.875 233.485 190.96 234.163 191.129C234.242 191.149 234.317 191.184 234.383 191.233C234.449 191.282 234.505 191.343 234.547 191.414C234.59 191.484 234.618 191.562 234.63 191.643C234.642 191.725 234.638 191.807 234.618 191.887C234.598 191.967 234.563 192.042 234.514 192.108C234.465 192.174 234.404 192.23 234.333 192.272C234.263 192.314 234.185 192.342 234.104 192.354C234.023 192.366 233.94 192.362 233.86 192.343C233.28 192.198 232.684 192.126 232.086 192.126H231.895C228.676 192.126 225.419 194.447 223.445 196.618C223.319 196.758 223.25 196.939 223.25 197.127C223.251 197.315 223.321 197.496 223.447 197.635C224.086 198.334 224.784 198.978 225.533 199.56C225.598 199.61 225.652 199.673 225.693 199.744C225.734 199.815 225.76 199.894 225.77 199.975C225.781 200.057 225.775 200.14 225.753 200.219C225.731 200.298 225.693 200.372 225.643 200.437C225.584 200.511 225.509 200.572 225.423 200.613C225.337 200.655 225.244 200.676 225.148 200.676Z" fill="#481125"/>
<path d="M228.875 197.75C228.709 197.75 228.55 197.684 228.433 197.567C228.316 197.45 228.25 197.291 228.25 197.125C228.25 196.125 228.64 195.184 229.348 194.475C229.695 194.126 230.108 193.848 230.563 193.659C231.017 193.471 231.505 193.374 231.997 193.375C232.17 193.375 232.309 193.514 232.31 193.687L232.312 194.312C232.312 194.395 232.279 194.474 232.221 194.533C232.162 194.593 232.083 194.625 232 194.625C231.672 194.624 231.346 194.689 231.043 194.815C230.739 194.941 230.464 195.125 230.232 195.358C230 195.59 229.815 195.865 229.689 196.168C229.564 196.472 229.499 196.797 229.5 197.125C229.5 197.207 229.484 197.289 229.453 197.364C229.422 197.44 229.375 197.509 229.317 197.567C229.259 197.626 229.19 197.672 229.114 197.703C229.038 197.734 228.957 197.75 228.875 197.75Z" fill="#481125"/>
<path d="M232.001 200.875C231.96 200.875 231.919 200.867 231.881 200.851C231.843 200.836 231.809 200.813 231.78 200.784C231.751 200.755 231.728 200.72 231.712 200.682C231.696 200.644 231.688 200.604 231.688 200.563L231.687 199.938C231.687 199.855 231.72 199.775 231.779 199.717C231.808 199.688 231.842 199.664 231.88 199.649C231.918 199.633 231.959 199.625 232 199.625C232.329 199.626 232.654 199.562 232.958 199.436C233.261 199.31 233.537 199.126 233.768 198.893C234.001 198.661 234.185 198.385 234.311 198.082C234.437 197.778 234.501 197.453 234.5 197.124C234.5 196.958 234.566 196.799 234.683 196.682C234.8 196.565 234.959 196.499 235.125 196.499C235.291 196.499 235.45 196.565 235.567 196.682C235.684 196.799 235.75 196.958 235.75 197.124C235.751 197.617 235.655 198.105 235.467 198.56C235.278 199.015 235.002 199.428 234.652 199.776C234.305 200.125 233.892 200.402 233.437 200.591C232.982 200.78 232.494 200.876 232.001 200.875Z" fill="#481125"/>
</g>
<path d="M28 229C28 224.582 31.5817 221 36 221H242C246.418 221 250 224.582 250 229V249C250 253.418 246.418 257 242 257H36C31.5817 257 28 253.418 28 249V229Z" fill="#CBFBDB"/>
<g clip-path="url(#clip4_634_1896)">
<path fill-rule="evenodd" clip-rule="evenodd" d="M36 238.999C36 242.859 39.1401 245.999 43 245.999C46.8599 245.999 50 242.859 50 238.999C50 235.139 46.8599 231.999 43 231.999C39.1401 231.999 36 235.139 36 238.999ZM40.9438 242.328C41.0963 242.409 41.2666 242.451 41.4395 242.451C41.6468 242.451 41.8493 242.389 42.0211 242.273C42.1154 242.21 42.1987 242.132 42.2678 242.042L46.8429 236.253C46.8816 236.209 46.9109 236.157 46.9289 236.1C46.947 236.044 46.9534 235.985 46.9479 235.926C46.9424 235.867 46.925 235.81 46.8968 235.758C46.8686 235.706 46.8302 235.661 46.7838 235.624C46.7375 235.587 46.6842 235.56 46.6272 235.545C46.5702 235.529 46.5106 235.525 46.452 235.534C46.3935 235.542 46.3372 235.562 46.2866 235.592C46.236 235.623 46.1921 235.663 46.1575 235.711L41.5772 241.506C41.5612 241.528 41.5405 241.545 41.5166 241.557C41.4927 241.569 41.4663 241.576 41.4395 241.576C41.4088 241.576 41.3787 241.568 41.3521 241.553C41.3254 241.537 41.3031 241.516 41.2872 241.489L39.8581 239.461C39.825 239.414 39.783 239.374 39.7344 239.343C39.6858 239.313 39.6317 239.292 39.5751 239.282C39.5184 239.272 39.4604 239.274 39.4043 239.286C39.3482 239.299 39.2952 239.322 39.2482 239.355C39.2012 239.388 39.1612 239.43 39.1304 239.479C39.0997 239.528 39.0788 239.582 39.0689 239.638C39.0591 239.695 39.0605 239.753 39.0731 239.809C39.0857 239.865 39.1092 239.918 39.1423 239.965L40.5657 241.985C40.6614 242.129 40.7913 242.247 40.9438 242.328Z" fill="#014F2D"/>
</g>
<path d="M56.028 242H55.02V233.6H58.992C60.744 233.6 61.68 234.716 61.68 236.06C61.68 237.764 60.48 238.676 58.992 238.676H56.028V242ZM56.028 234.524V237.752H59.04C60.084 237.752 60.648 236.996 60.648 236.06C60.648 235.064 59.928 234.524 59.04 234.524H56.028ZM65.0243 242.096C63.5843 242.096 62.6603 241.352 62.6603 240.188C62.6603 238.724 64.0763 238.448 65.3483 238.316C66.3203 238.22 67.1603 238.232 67.1723 237.716C67.1603 236.912 66.5003 236.348 65.5403 236.348C64.6163 236.348 63.8963 236.864 63.7883 237.62H62.8043C62.9243 236.372 64.0523 235.496 65.5643 235.496C67.1363 235.496 68.1443 236.432 68.1443 237.776V240.872C68.1443 241.076 68.2523 241.184 68.4683 241.184H68.8283V242H68.2643C67.5803 242 67.2203 241.688 67.2203 241.1V240.908C66.8483 241.64 66.1283 242.096 65.0243 242.096ZM65.1683 241.244C66.3563 241.244 67.1723 240.488 67.1723 239.432V238.604C66.8963 238.976 66.1883 239.048 65.4083 239.132C64.5323 239.228 63.6562 239.348 63.6562 240.164C63.6562 240.824 64.2563 241.244 65.1683 241.244ZM72.3209 242.132C70.8089 242.132 69.6929 241.34 69.6089 239.996H70.5809C70.6529 240.824 71.4089 241.28 72.3689 241.28C73.2689 241.28 73.7009 240.932 73.7009 240.296C73.7009 239.696 73.2329 239.564 72.5729 239.336L71.6489 239.024C70.7129 238.712 69.7769 238.424 69.7769 237.272C69.7769 236.192 70.6169 235.496 72.0089 235.496C73.4129 235.496 74.3849 236.252 74.5409 237.668H73.5689C73.4609 236.78 72.8369 236.348 71.9729 236.348C71.1929 236.348 70.7369 236.696 70.7369 237.248C70.7369 237.908 71.4329 238.04 71.9609 238.22L72.8249 238.508C73.9889 238.892 74.6849 239.288 74.6849 240.344C74.6849 241.46 73.8689 242.132 72.3209 242.132ZM78.2858 242.132C76.7738 242.132 75.6578 241.34 75.5738 239.996H76.5458C76.6178 240.824 77.3738 241.28 78.3338 241.28C79.2338 241.28 79.6658 240.932 79.6658 240.296C79.6658 239.696 79.1978 239.564 78.5378 239.336L77.6138 239.024C76.6777 238.712 75.7418 238.424 75.7418 237.272C75.7418 236.192 76.5818 235.496 77.9738 235.496C79.3778 235.496 80.3498 236.252 80.5058 237.668H79.5338C79.4258 236.78 78.8018 236.348 77.9378 236.348C77.1578 236.348 76.7018 236.696 76.7018 237.248C76.7018 237.908 77.3978 238.04 77.9258 238.22L78.7898 238.508C79.9538 238.892 80.6498 239.288 80.6498 240.344C80.6498 241.46 79.8338 242.132 78.2858 242.132ZM84.6706 242.132C82.6306 242.132 81.5506 240.68 81.5506 238.76C81.5506 236.636 82.9426 235.496 84.6706 235.496C86.6986 235.496 87.7906 236.96 87.7906 238.76C87.7906 240.956 86.4586 242.132 84.6706 242.132ZM84.6706 241.268C86.0266 241.268 86.7706 240.14 86.7706 238.76C86.7706 237.332 85.9426 236.36 84.6706 236.36C83.3986 236.36 82.5706 237.332 82.5706 238.76C82.5706 240.392 83.5186 241.268 84.6706 241.268ZM90.0893 242H89.0933V235.64H89.8853L90.0053 236.852C90.4133 236.036 91.1573 235.604 92.2133 235.604H92.4293V236.588H92.2133C90.8693 236.588 90.0893 237.356 90.0893 238.664V242ZM95.8449 242.132C94.1409 242.132 92.9529 240.764 92.9529 238.784C92.9529 236.84 94.1289 235.496 95.8329 235.496C96.7929 235.496 97.5969 235.916 98.0529 236.588V233H99.0489V242H98.2569L98.1489 240.776C97.7289 241.604 96.8889 242.132 95.8449 242.132ZM96.0009 241.268C97.2129 241.268 98.0529 240.236 98.0529 238.76C98.0529 237.332 97.2369 236.348 96.0609 236.348C94.8369 236.348 93.9849 237.344 93.9849 238.784C93.9849 240.248 94.8129 241.268 96.0009 241.268ZM103.526 242.132C101.642 242.132 100.394 240.752 100.394 238.844C100.394 236.672 101.798 235.496 103.406 235.496C105.158 235.496 106.286 236.672 106.322 238.712V238.988H101.39C101.45 240.344 102.242 241.268 103.526 241.268C104.414 241.268 105.062 240.824 105.326 239.996H106.298C106.01 241.304 104.978 242.132 103.526 242.132ZM101.45 238.16H105.278C105.098 237.044 104.426 236.36 103.406 236.36C102.398 236.36 101.654 237.02 101.45 238.16ZM110.78 242H110.072C108.836 242 108.176 241.364 108.176 240.188V236.48H107V235.64H108.176V233.468H109.172V235.64H110.888V236.48H109.172V240.188C109.172 240.824 109.484 241.16 110.072 241.16H110.78V242ZM117.565 242.132C115.681 242.132 114.433 240.752 114.433 238.844C114.433 236.672 115.837 235.496 117.445 235.496C119.197 235.496 120.325 236.672 120.361 238.712V238.988H115.429C115.489 240.344 116.281 241.268 117.565 241.268C118.453 241.268 119.101 240.824 119.365 239.996H120.337C120.049 241.304 119.017 242.132 117.565 242.132ZM115.489 238.16H119.317C119.137 237.044 118.465 236.36 117.445 236.36C116.437 236.36 115.693 237.02 115.489 238.16ZM122.667 242H121.671V235.64H122.463L122.583 236.852C122.991 236.036 123.735 235.604 124.791 235.604H125.007V236.588H124.791C123.447 236.588 122.667 237.356 122.667 238.664V242ZM131.615 244.544C129.899 244.544 128.735 243.716 128.735 242.372H129.731C129.731 243.128 130.499 243.704 131.615 243.704C132.923 243.704 133.607 242.924 133.607 241.832V240.8C133.163 241.46 132.395 241.892 131.423 241.892C129.731 241.892 128.519 240.596 128.519 238.724C128.519 236.816 129.743 235.496 131.423 235.496C132.443 235.496 133.271 235.976 133.703 236.744L133.811 235.64H134.591V241.832C134.591 243.44 133.511 244.544 131.615 244.544ZM131.567 241.028C132.767 241.028 133.607 240.068 133.607 238.688C133.607 237.32 132.767 236.36 131.567 236.36C130.379 236.36 129.551 237.32 129.551 238.712C129.551 240.08 130.379 241.028 131.567 241.028ZM139.022 242.132C136.982 242.132 135.902 240.68 135.902 238.76C135.902 236.636 137.294 235.496 139.022 235.496C141.05 235.496 142.142 236.96 142.142 238.76C142.142 240.956 140.81 242.132 139.022 242.132ZM139.022 241.268C140.378 241.268 141.122 240.14 141.122 238.76C141.122 237.332 140.294 236.36 139.022 236.36C137.75 236.36 136.922 237.332 136.922 238.76C136.922 240.392 137.87 241.268 139.022 241.268ZM146.013 242.132C144.309 242.132 143.121 240.764 143.121 238.784C143.121 236.84 144.297 235.496 146.001 235.496C146.961 235.496 147.765 235.916 148.221 236.588V233H149.217V242H148.425L148.317 240.776C147.897 241.604 147.057 242.132 146.013 242.132ZM146.169 241.268C147.381 241.268 148.221 240.236 148.221 238.76C148.221 237.332 147.405 236.348 146.229 236.348C145.005 236.348 144.153 237.344 144.153 238.784C144.153 240.248 144.981 241.268 146.169 241.268ZM151.918 242H150.922V233H151.918V238.772L155.014 235.64H156.214L153.922 237.956L156.562 242H155.398L153.238 238.652L151.918 239.984V242ZM157.906 234.572C157.474 234.572 157.162 234.26 157.162 233.828C157.162 233.408 157.474 233.096 157.906 233.096C158.326 233.096 158.638 233.408 158.638 233.828C158.638 234.26 158.326 234.572 157.906 234.572ZM156.502 244.4H155.614V243.56H156.502C157.09 243.56 157.402 243.224 157.402 242.588V235.64H158.398V242.588C158.398 243.764 157.738 244.4 156.502 244.4ZM162.835 242.132C160.951 242.132 159.703 240.752 159.703 238.844C159.703 236.672 161.107 235.496 162.715 235.496C164.467 235.496 165.595 236.672 165.631 238.712V238.988H160.699C160.759 240.344 161.551 241.268 162.835 241.268C163.723 241.268 164.371 240.824 164.635 239.996H165.607C165.319 241.304 164.287 242.132 162.835 242.132ZM160.759 238.16H164.587C164.407 237.044 163.735 236.36 162.715 236.36C161.707 236.36 160.963 237.02 160.759 238.16ZM167.937 242H166.941V235.64H167.733L167.829 236.612C168.261 235.94 169.089 235.496 170.037 235.496C171.405 235.496 172.317 236.384 172.317 237.788V242H171.321V237.824C171.321 236.936 170.745 236.372 169.785 236.372C168.645 236.372 167.949 237.164 167.937 238.136V242ZM177.073 242H176.365C175.129 242 174.469 241.364 174.469 240.188V236.48H173.293V235.64H174.469V233.468H175.465V235.64H177.181V236.48H175.465V240.188C175.465 240.824 175.777 241.16 176.365 241.16H177.073V242ZM178.895 242.12C178.463 242.12 178.139 241.796 178.139 241.364C178.139 240.944 178.463 240.62 178.895 240.62C179.327 240.62 179.651 240.944 179.651 241.364C179.651 241.796 179.327 242.12 178.895 242.12Z" fill="#014F2D"/>
<defs>
<clipPath id="clip0_634_1896">
<rect width="16" height="16" fill="white" transform="translate(120 36)"/>
</clipPath>
<clipPath id="clip1_634_1896">
<rect width="14" height="14" fill="white" transform="translate(32 82)"/>
</clipPath>
<clipPath id="clip2_634_1896">
<rect width="14" height="14" fill="white" transform="translate(313 84)"/>
</clipPath>
<clipPath id="clip3_634_1896">
<rect width="20" height="20" fill="white" transform="translate(222 186.5)"/>
</clipPath>
<clipPath id="clip4_634_1896">
<rect width="14" height="14" fill="white" transform="translate(36 232)"/>
</clipPath>
</defs>
</svg>
