<svg xmlns="http://www.w3.org/2000/svg" width="20" height="20" fill="none" viewBox="0 0 20 20">
  <g clip-path="url(#a)">
    <path fill="#000" d="M10 14.375a.625.625 0 0 1-.625-.625v-3.125H6.25a.625.625 0 1 1 0-1.25h3.125V6.25a.625.625 0 0 1 1.25 0v3.125h3.125a.625.625 0 1 1 0 1.25h-3.125v3.125a.624.624 0 0 1-.625.625Z"/>
    <path fill="#000" d="M3.125 20A3.128 3.128 0 0 1 0 16.875V3.125A3.128 3.128 0 0 1 3.125 0h13.75A3.128 3.128 0 0 1 20 3.125v13.75A3.128 3.128 0 0 1 16.875 20H3.125Zm0-18.75A1.877 1.877 0 0 0 1.25 3.125v13.75a1.877 1.877 0 0 0 1.875 1.875h13.75a1.876 1.876 0 0 0 1.875-1.875V3.125a1.876 1.876 0 0 0-1.875-1.875H3.125Z"/>
  </g>
  <defs>
    <clipPath id="a">
      <path fill="#fff" d="M0 0h20v20H0z"/>
    </clipPath>
  </defs>
</svg>
