<svg xmlns="http://www.w3.org/2000/svg" width="20" height="20" fill="none" viewBox="0 0 20 20">
  <g clip-path="url(#a)">
    <path fill="#000" d="M10.042 20H9.79c-.084 0-.168-.083-.168-.167l-8.789-8.75a.635.635 0 0 1-.167-.416c0-.167.083-.334.167-.417a.46.46 0 0 1 .419-.25.64.64 0 0 1 .418.167l7.701 7.666V.667c0-.417.335-.667.67-.667s.67.25.67.667v17.25l7.7-7.667a.641.641 0 0 1 .419-.167.64.64 0 0 1 .418.167c.084.083.168.25.168.417a.635.635 0 0 1-.168.416l-8.789 8.75c-.084.084-.167.084-.167.167h-.251Z"/>
  </g>
  <defs>
    <clipPath id="a">
      <path fill="#fff" d="M0 0h20v20H0z"/>
    </clipPath>
  </defs>
</svg>
