<svg width="20" height="20" viewBox="0 0 20 20" fill="none" xmlns="http://www.w3.org/2000/svg">
<g clip-path="url(#clip0_304_7)">
<path d="M10 19.9992C9.91439 19.999 9.82974 19.9813 9.75121 19.9472C9.67269 19.9131 9.60195 19.8633 9.54333 19.8009C9.52917 19.7867 7.4675 17.8026 1.03333 17.7226C0.760332 17.7183 0.499744 17.6078 0.306835 17.4146C0.113925 17.2213 0.00386654 16.9606 0 16.6876L0 3.5409C0 3.26256 0.114167 2.99173 0.3125 2.79756C0.514167 2.60423 0.776667 2.49923 1.05417 2.49923C5.81917 2.56006 8.36917 3.58423 9.6025 4.33173C9.86208 3.50059 10.3104 2.74077 10.9125 2.11173C11.802 1.12675 12.9499 0.411026 14.2258 0.0458948C14.3789 0.000708485 14.5399 -0.011292 14.6979 0.0106952C14.856 0.0326823 15.0076 0.0881508 15.1425 0.173395C15.4367 0.355062 15.6175 0.673395 15.625 1.02339V2.73423C16.7237 2.58673 17.8306 2.50852 18.9392 2.50006C19.0769 2.49852 19.2137 2.52414 19.3416 2.57544C19.4694 2.62675 19.586 2.70274 19.6845 2.79909C19.783 2.89543 19.8616 3.01023 19.9157 3.13694C19.9698 3.26365 19.9985 3.39978 20 3.53756V16.6809C19.9968 16.9552 19.8868 17.2174 19.6934 17.4119C19.5 17.6064 19.2384 17.7178 18.9642 17.7226C12.5275 17.8026 10.47 19.7876 10.45 19.8076L10.4242 19.8326C10.3092 19.9401 10.1575 19.9997 10 19.9992ZM1.25 16.4759C5.63583 16.5567 8.11083 17.4709 9.375 18.1734V5.6884C8.775 5.2334 6.5275 3.85423 1.25 3.75256V16.4759ZM15.625 14.0376C15.6248 14.1812 15.5751 14.3204 15.4844 14.4318C15.3936 14.5432 15.2673 14.62 15.1267 14.6492C13.8568 14.91 12.7007 15.5623 11.8208 16.5142C11.3993 16.9533 11.073 17.4748 10.8625 18.0459C12.1792 17.3709 14.6142 16.5509 18.7492 16.4751V3.75173C17.7035 3.76877 16.6599 3.85003 15.6242 3.99506L15.625 14.0376ZM10.625 15.9826C10.7167 15.8701 10.8125 15.7609 10.9125 15.6576C11.8487 14.6466 13.0475 13.9158 14.375 13.5467V1.30756C13.3955 1.62652 12.517 2.19724 11.8275 2.96256C11.1711 3.64591 10.7499 4.52082 10.625 5.46006V15.9826Z" fill="black"/>
</g>
<defs>
<clipPath id="clip0_304_7">
<rect width="20" height="20" fill="white"/>
</clipPath>
</defs>
</svg>
