<svg xmlns="http://www.w3.org/2000/svg" width="20" height="20" fill="none" viewBox="0 0 20 20">
  <g clip-path="url(#a)">
    <path fill="#000" d="M7.77 14.93a1.49 1.49 0 0 1-1.248-.666L4.49 11.38a.625.625 0 1 1 1.023-.72l2.041 2.898a.255.255 0 0 0 .218.123.245.245 0 0 0 .196-.1l6.544-8.278a.626.626 0 1 1 .979.775l-6.536 8.269a1.483 1.483 0 0 1-1.183.584Z"/>
    <path fill="#000" d="M10 19.999c-5.514 0-10-4.486-10-10s4.486-10 10-10 10 4.486 10 10-4.486 10-10 10Zm0-18.75c-4.825 0-8.75 3.925-8.75 8.75s3.925 8.75 8.75 8.75 8.75-3.925 8.75-8.75-3.925-8.75-8.75-8.75Z"/>
  </g>
  <defs>
    <clipPath id="a">
      <path fill="#fff" d="M0 0h20v20H0z"/>
    </clipPath>
  </defs>
</svg>
