<svg width="16" height="16" viewBox="0 0 16 16" fill="none" xmlns="http://www.w3.org/2000/svg">
<path d="M10.8333 16C10.7 16 10.574 15.948 10.48 15.8533L3.33332 8.70667C3.14465 8.518 3.04065 8.26733 3.04065 8.00067C3.04065 7.734 3.14398 7.48267 3.33265 7.294L10.48 0.146667C10.574 0.052 10.7 0 10.8333 0C10.9666 0 11.0926 0.052 11.1866 0.146667C11.2813 0.240667 11.3333 0.366667 11.3333 0.5C11.3333 0.633333 11.2813 0.759333 11.1866 0.853333L4.03998 8L11.1866 15.1467C11.2813 15.2413 11.3333 15.3667 11.3333 15.5C11.3333 15.6333 11.2813 15.7593 11.1866 15.8533C11.092 15.9473 10.9666 16 10.8333 16Z" fill="black"/>
</svg>
