<svg width="16" height="16" viewBox="0 0 16 16" fill="none" xmlns="http://www.w3.org/2000/svg">
<path d="M3.66602 16C3.53268 16 3.40668 15.948 3.31268 15.8533C3.11802 15.6587 3.11802 15.3413 3.31268 15.146L10.4593 8L3.31268 0.853333C3.21802 0.759333 3.16602 0.633333 3.16602 0.5C3.16602 0.366667 3.21802 0.240667 3.31268 0.146667C3.40668 0.052 3.53268 0 3.66602 0C3.79935 0 3.92535 0.052 4.01935 0.146667L11.166 7.29333C11.5553 7.68267 11.556 8.31667 11.1667 8.706L4.01935 15.8533C3.92535 15.948 3.79935 16 3.66602 16Z" fill="black"/>
</svg>
