<svg xmlns="http://www.w3.org/2000/svg" width="20" height="20" fill="none" viewBox="0 0 20 20">
  <g clip-path="url(#a)">
    <path fill="#000" d="M19.375 20a.619.619 0 0 1-.442-.184L10 10.883l-8.933 8.933a.62.62 0 0 1-.884 0 .627.627 0 0 1 0-.884l8.934-8.934L.183 1.066A.619.619 0 0 1 0 .624C0 .457.065.3.183.182A.619.619 0 0 1 .625 0c.167 0 .324.065.442.183L10 9.115 18.933.182a.62.62 0 0 1 .884 0 .622.622 0 0 1 0 .884l-8.934 8.933 8.934 8.934a.627.627 0 0 1-.442 1.066Z"/>
  </g>
  <defs>
    <clipPath id="a">
      <path fill="#fff" d="M0 0h20v20H0z"/>
    </clipPath>
  </defs>
</svg>
