<svg xmlns="http://www.w3.org/2000/svg" width="20" height="20" fill="none" viewBox="0 0 20 20">
  <g clip-path="url(#a)">
    <path fill="#000" d="M10 13.75a.629.629 0 0 1-.216-.04l-.018-.006a.61.61 0 0 1-.208-.137L5.81 9.817a.619.619 0 0 1-.183-.442c0-.167.065-.324.183-.442a.619.619 0 0 1 .442-.183c.167 0 .324.065.442.183l2.683 2.684V3.125a.625.625 0 0 1 1.25 0v8.49l2.683-2.683a.62.62 0 0 1 .884 0 .619.619 0 0 1 .183.442.619.619 0 0 1-.183.442l-3.75 3.75a.636.636 0 0 1-.205.136l-.022.009a.605.605 0 0 1-.215.039Z"/>
    <path fill="#000" d="M3.126 17.5a3.128 3.128 0 0 1-3.125-3.125v-1.25a.625.625 0 1 1 1.25 0v1.25a1.877 1.877 0 0 0 1.875 1.875h13.75a1.876 1.876 0 0 0 1.875-1.875v-1.25a.625.625 0 1 1 1.25 0v1.25a3.128 3.128 0 0 1-3.125 3.125H3.126Z"/>
  </g>
  <defs>
    <clipPath id="a">
      <path fill="#fff" d="M0 0h20v20H0z"/>
    </clipPath>
  </defs>
</svg>
