<svg width="16" height="16" viewBox="0 0 16 16" fill="none" xmlns="http://www.w3.org/2000/svg">
<path d="M3.54449 8.33336H5.17797V15.5C5.17797 15.6326 5.23534 15.7598 5.33745 15.8536C5.43956 15.9473 5.57805 16 5.72246 16H9.35241C9.49682 16 9.63532 15.9473 9.73743 15.8536C9.83954 15.7598 9.89691 15.6326 9.89691 15.5V8.33336H12.1475C12.2824 8.33406 12.4127 8.28877 12.5133 8.20624C12.6139 8.12372 12.6776 8.00985 12.692 7.88669L12.9969 5.22003C13.0051 5.14947 12.9969 5.0781 12.9728 5.01067C12.9487 4.94324 12.9093 4.88129 12.8571 4.82895C12.8049 4.7766 12.7412 4.73506 12.6701 4.70709C12.5991 4.67912 12.5224 4.66535 12.4451 4.6667H9.89691V3.89337C9.89691 3.6667 9.9695 3.66003 10.0857 3.66003H12.2636C12.408 3.66003 12.5465 3.60736 12.6486 3.51359C12.7508 3.41982 12.8081 3.29264 12.8081 3.16004V0.493377C12.8072 0.427715 12.7922 0.362867 12.7639 0.302536C12.7357 0.242206 12.6948 0.187575 12.6435 0.141764C12.5923 0.0959528 12.5317 0.0598583 12.4653 0.035542C12.3989 0.0112256 12.3279 -0.000836299 12.2564 4.50363e-05H9.11284C5.48289 4.50363e-05 5.17797 2.86004 5.17797 3.73337V4.6667H3.54449C3.40008 4.6667 3.26159 4.71938 3.15948 4.81315C3.05737 4.90691 3 5.03409 3 5.1667V7.83336C3 7.96596 3.05737 8.09314 3.15948 8.18691C3.26159 8.28068 3.40008 8.33336 3.54449 8.33336ZM4.08899 5.6667H5.72246C5.86687 5.6667 6.00537 5.61402 6.10748 5.52025C6.20959 5.42648 6.26696 5.29931 6.26696 5.1667V3.73337C6.26696 2.71337 6.63721 1.00004 9.11284 1.00004H11.7119V2.6667H10.0857C9.91069 2.66146 9.73649 2.69025 9.57449 2.7512C9.4125 2.81214 9.26637 2.90386 9.1457 3.02034C9.02504 3.13681 8.93256 3.2754 8.87435 3.42701C8.81613 3.57862 8.79349 3.73982 8.80792 3.90003V5.1667C8.80792 5.29931 8.86529 5.42648 8.9674 5.52025C9.06951 5.61402 9.208 5.6667 9.35241 5.6667H11.8426L11.6248 7.33336H9.35241C9.208 7.33336 9.06951 7.38604 8.9674 7.4798C8.86529 7.57357 8.80792 7.70075 8.80792 7.83336V15H6.26696V7.83336C6.26696 7.70075 6.20959 7.57357 6.10748 7.4798C6.00537 7.38604 5.86687 7.33336 5.72246 7.33336H4.08899V5.6667Z" fill="black"/>
</svg>
