<svg width="16" height="16" viewBox="0 0 16 16" fill="none" xmlns="http://www.w3.org/2000/svg">
<rect width="16" height="16" rx="8" fill="black"/>
<path fill-rule="evenodd" clip-rule="evenodd" d="M4.46447 4.53553C4.62718 4.37282 4.891 4.37282 5.05372 4.53553L11.5355 11.0173C11.6983 11.1801 11.6983 11.4439 11.5355 11.6066C11.3728 11.7693 11.109 11.7693 10.9463 11.6066L4.46447 5.12479C4.30175 4.96207 4.30175 4.69825 4.46447 4.53553Z" fill="white"/>
<path fill-rule="evenodd" clip-rule="evenodd" d="M11.5355 4.53553C11.6983 4.69825 11.6983 4.96207 11.5355 5.12479L5.05372 11.6066C4.891 11.7693 4.62718 11.7693 4.46447 11.6066C4.30175 11.4439 4.30175 11.1801 4.46447 11.0173L10.9463 4.53553C11.109 4.37282 11.3728 4.37282 11.5355 4.53553Z" fill="white"/>
</svg>
