<svg width="16" height="16" viewBox="0 0 16 16" fill="none" xmlns="http://www.w3.org/2000/svg">
<g clip-path="url(#clip0_136_24)">
<path fill-rule="evenodd" clip-rule="evenodd" d="M0 8C0 12.4113 3.58867 16 8 16C12.4113 16 16 12.4113 16 8C16 3.58867 12.4113 0 8 0C3.58867 0 0 3.58867 0 8ZM7.75 5.5C8.16421 5.5 8.5 5.16421 8.5 4.75C8.5 4.33579 8.16421 4 7.75 4C7.33579 4 7 4.33579 7 4.75C7 5.16421 7.33579 5.5 7.75 5.5ZM9 11.5C8.60228 11.4996 8.22096 11.3415 7.93973 11.0603C7.6585 10.779 7.50035 10.3977 7.5 10V7.5H7C6.86739 7.5 6.74022 7.44732 6.64645 7.35355C6.55268 7.25978 6.5 7.13261 6.5 7C6.5 6.86739 6.55268 6.74022 6.64645 6.64645C6.74022 6.55268 6.86739 6.5 7 6.5H7.5C8.05133 6.5 8.5 6.94867 8.5 7.5V10C8.5 10.276 8.724 10.5 9 10.5H9.5C9.63261 10.5 9.75978 10.5527 9.85355 10.6464C9.94732 10.7402 10 10.8674 10 11C10 11.1326 9.94732 11.2598 9.85355 11.3536C9.75978 11.4473 9.63261 11.5 9.5 11.5H9Z" fill="black"/>
</g>
<defs>
<clipPath id="clip0_136_24">
<rect width="16" height="16" fill="white"/>
</clipPath>
</defs>
</svg>
