<svg width="16" height="16" viewBox="0 0 16 16" fill="none" xmlns="http://www.w3.org/2000/svg">
<rect x="16" y="16" width="16" height="16" rx="8" transform="rotate(-180 16 16)" fill="black"/>
<path d="M8 5.90137C8.15872 5.90137 8.3096 5.95952 8.42285 6.06836V6.06934L11.9961 9.51562L12.04 9.56738C12.0528 9.58583 12.0643 9.60526 12.0732 9.62598C12.0911 9.66754 12.0997 9.7126 12.0996 9.75781C12.0996 9.84924 12.0622 9.93516 11.9961 9.99902L11.9971 10C11.9645 10.0319 11.9251 10.0571 11.8828 10.0742C11.8406 10.0912 11.7955 10.0996 11.75 10.0996C11.7045 10.0996 11.6594 10.0912 11.6172 10.0742C11.5752 10.0573 11.5363 10.0325 11.5039 10.001L8 6.62109L4.49707 10.001L4.49609 10C4.46366 10.0316 4.42586 10.0572 4.38379 10.0742C4.34162 10.0912 4.29648 10.0996 4.25098 10.0996C4.20534 10.0996 4.15948 10.0913 4.11719 10.0742C4.07496 10.0571 4.0364 10.0318 4.00391 10V9.99902C3.97173 9.96803 3.94554 9.93156 3.92773 9.89062C3.90962 9.84888 3.90039 9.8033 3.90039 9.75781C3.90045 9.71248 3.90968 9.66758 3.92773 9.62598C3.9458 9.58441 3.97201 9.54692 4.00488 9.51562L7.57715 6.06934L7.66797 5.99707C7.70054 5.97598 7.73519 5.95788 7.77148 5.94336C7.8439 5.91443 7.92182 5.90119 8 5.90137Z" fill="white" stroke="white" stroke-width="0.2"/>
</svg>
