<svg width="16" height="16" viewBox="0 0 16 16" fill="none" xmlns="http://www.w3.org/2000/svg">
<g clip-path="url(#clip0_136_23)">
<path fill-rule="evenodd" clip-rule="evenodd" d="M0 7.99936C0 12.4107 3.58867 15.9994 8 15.9994C12.4113 15.9994 16 12.4107 16 7.99936C16 3.58803 12.4113 -0.000640869 8 -0.000640869C3.58867 -0.000640869 0 3.58803 0 7.99936ZM5.65006 11.8034C5.82436 11.8964 6.01901 11.9446 6.21656 11.9438C6.45344 11.9439 6.68493 11.8731 6.88122 11.7405C6.98901 11.6684 7.08427 11.5793 7.16322 11.4765L12.3919 4.86113C12.4361 4.8101 12.4696 4.75063 12.4902 4.68631C12.5108 4.622 12.5182 4.55418 12.5119 4.48693C12.5056 4.41969 12.4857 4.35442 12.4535 4.29507C12.4212 4.23572 12.3773 4.18351 12.3244 4.14159C12.2714 4.09967 12.2105 4.06892 12.1453 4.05119C12.0802 4.03346 12.0121 4.02911 11.9452 4.03841C11.8783 4.04772 11.814 4.07047 11.7561 4.10531C11.6983 4.14016 11.6481 4.18636 11.6086 4.24113L6.37389 10.8645C6.35568 10.8891 6.33196 10.909 6.30464 10.9228C6.27732 10.9366 6.24716 10.9438 6.21656 10.9438C6.18152 10.9437 6.14711 10.9345 6.11664 10.9173C6.08616 10.9 6.06065 10.8751 6.04256 10.8451L4.40922 8.52713C4.3714 8.47342 4.32337 8.42769 4.26788 8.39254C4.21238 8.35739 4.15051 8.33351 4.08578 8.32228C4.02106 8.31104 3.95476 8.31266 3.89067 8.32705C3.82657 8.34144 3.76594 8.36831 3.71222 8.40613C3.65851 8.44395 3.61278 8.49198 3.57763 8.54748C3.54248 8.60297 3.51861 8.66485 3.50737 8.72957C3.49614 8.79429 3.49776 8.8606 3.51215 8.92469C3.52653 8.98879 3.5534 9.04942 3.59123 9.10313L5.21789 11.4111C5.32726 11.5756 5.47575 11.7104 5.65006 11.8034Z" fill="black"/>
</g>
<defs>
<clipPath id="clip0_136_23">
<rect width="16" height="16" fill="white"/>
</clipPath>
</defs>
</svg>
