<svg width="16" height="16" viewBox="0 0 16 16" fill="none" xmlns="http://www.w3.org/2000/svg">
<rect width="16" height="16" rx="8" fill="black"/>
<path d="M11.749 6.40039C11.7947 6.40039 11.8405 6.40871 11.8828 6.42578C11.9247 6.4427 11.9628 6.46762 11.9951 6.49902L12.0391 6.55078C12.052 6.56919 12.0633 6.58867 12.0723 6.60938C12.0904 6.65112 12.0996 6.6967 12.0996 6.74219C12.0995 6.78752 12.0903 6.83242 12.0723 6.87402C12.0632 6.89498 12.0521 6.91499 12.0391 6.93359L11.9951 6.98438L8.42285 10.4307C8.36716 10.4847 8.30103 10.5276 8.22852 10.5566C8.15609 10.5856 8.07818 10.5988 8 10.5986V10.5996C7.84128 10.5996 7.6904 10.5405 7.57715 10.4316V10.4307L4.00391 6.98438C3.9712 6.95297 3.94466 6.91562 3.92676 6.87402C3.9088 6.83221 3.90024 6.78669 3.90039 6.74121C3.90053 6.64953 3.93731 6.56285 4.00391 6.49902C4.0363 6.46749 4.0752 6.44274 4.11719 6.42578C4.15937 6.4088 4.20449 6.40039 4.25 6.40039C4.29552 6.40039 4.34062 6.40879 4.38281 6.42578C4.42481 6.44274 4.4637 6.46748 4.49609 6.49902L7.99902 9.87793L11.5029 6.49902V6.5C11.5355 6.46814 11.5739 6.44286 11.6162 6.42578C11.6584 6.40876 11.7035 6.40044 11.749 6.40039Z" fill="white" stroke="white" stroke-width="0.2"/>
</svg>
