<svg width="16" height="16" viewBox="0 0 16 16" fill="none" xmlns="http://www.w3.org/2000/svg">
<g clip-path="url(#clip0_136_25)">
<path fill-rule="evenodd" clip-rule="evenodd" d="M0 8C0 12.4113 3.58867 16 8 16C12.4113 16 16 12.4113 16 8C16 3.58867 12.4113 0 8 0C3.58867 0 0 3.58867 0 8ZM8 9.5C7.86739 9.5 7.74022 9.44732 7.64645 9.35355C7.55268 9.25978 7.5 9.13261 7.5 9V3.5C7.5 3.36739 7.55268 3.24021 7.64645 3.14645C7.74022 3.05268 7.86739 3 8 3C8.13261 3 8.25978 3.05268 8.35355 3.14645C8.44732 3.24021 8.5 3.36739 8.5 3.5V9C8.5 9.13261 8.44732 9.25978 8.35355 9.35355C8.25978 9.44732 8.13261 9.5 8 9.5ZM8 12C8.41421 12 8.75 11.6642 8.75 11.25C8.75 10.8358 8.41421 10.5 8 10.5C7.58579 10.5 7.25 10.8358 7.25 11.25C7.25 11.6642 7.58579 12 8 12Z" fill="black"/>
</g>
<defs>
<clipPath id="clip0_136_25">
<rect width="16" height="16" fill="white"/>
</clipPath>
</defs>
</svg>
