<svg width="16" height="16" viewBox="0 0 16 16" fill="none" xmlns="http://www.w3.org/2000/svg">
<g clip-path="url(#clip0_247_7)">
<path d="M8 0C6.41775 0 4.87103 0.469192 3.55544 1.34824C2.23985 2.22729 1.21447 3.47672 0.608967 4.93853C0.00346629 6.40034 -0.15496 8.00887 0.153721 9.56072C0.462403 11.1126 1.22433 12.538 2.34315 13.6569C3.46197 14.7757 4.88743 15.5376 6.43928 15.8463C7.99113 16.155 9.59966 15.9965 11.0615 15.391C12.5233 14.7855 13.7727 13.7602 14.6518 12.4446C15.5308 11.129 16 9.58225 16 8C15.9976 5.879 15.154 3.84556 13.6542 2.34578C12.1544 0.846012 10.121 0.00238965 8 0ZM8 14.8571C6.18137 14.8571 4.43723 14.1347 3.15127 12.8487C1.86531 11.5628 1.14286 9.81862 1.14286 8C1.14286 6.18137 1.86531 4.43723 3.15127 3.15127C4.43723 1.8653 6.18137 1.14286 8 1.14286V8L12.8464 12.8465C12.2108 13.4843 11.4555 13.9903 10.6238 14.3353C9.7921 14.6804 8.90043 14.8577 8 14.8571Z" fill="black"/>
</g>
<defs>
<clipPath id="clip0_247_7">
<rect width="16" height="16" fill="white"/>
</clipPath>
</defs>
</svg>
