<svg xmlns="http://www.w3.org/2000/svg" width="20" height="20" fill="none" viewBox="0 0 20 20">
  <g clip-path="url(#a)">
    <path fill="#000" d="M11.25 14.375A1.876 1.876 0 0 1 9.375 12.5V9.375H8.75a.625.625 0 0 1 0-1.25h.625c.69 0 1.25.56 1.25 1.25V12.5c0 .345.28.625.625.625h.625a.624.624 0 1 1 0 1.25h-.625Zm-1.562-7.5a.937.937 0 1 0 0-1.875.937.937 0 0 0 0 1.875Z"/>
    <path fill="#000" d="M10 20C4.486 20 0 15.514 0 10S4.486 0 10 0s10 4.486 10 10-4.486 10-10 10Zm0-18.75c-4.825 0-8.75 3.925-8.75 8.75s3.925 8.75 8.75 8.75 8.75-3.925 8.75-8.75S14.825 1.25 10 1.25Z"/>
  </g>
  <defs>
    <clipPath id="a">
      <path fill="#fff" d="M0 0h20v20H0z"/>
    </clipPath>
  </defs>
</svg>
