<svg xmlns="http://www.w3.org/2000/svg" width="20" height="20" fill="none" viewBox="0 0 20 20">
  <g clip-path="url(#a)">
    <path fill="#000" d="M1.875 16.25A1.876 1.876 0 0 1 0 14.375v-12.5A1.877 1.877 0 0 1 1.875 0h12.5a1.877 1.877 0 0 1 1.875 1.875v12.5a1.876 1.876 0 0 1-1.875 1.875h-12.5Zm0-15a.625.625 0 0 0-.625.625v12.5c0 .345.28.625.625.625h12.5a.624.624 0 0 0 .625-.625v-12.5a.625.625 0 0 0-.625-.625h-12.5Z"/>
    <path fill="#000" d="M5.625 20a1.876 1.876 0 0 1-1.875-1.875.625.625 0 1 1 1.25 0c0 .345.28.625.625.625h12.5a.624.624 0 0 0 .625-.625v-12.5A.625.625 0 0 0 18.125 5a.625.625 0 1 1 0-1.25A1.877 1.877 0 0 1 20 5.625v12.5A1.876 1.876 0 0 1 18.125 20h-12.5Z"/>
  </g>
  <defs>
    <clipPath id="a">
      <path fill="#fff" d="M0 0h20v20H0z"/>
    </clipPath>
  </defs>
</svg>
