<svg xmlns="http://www.w3.org/2000/svg" width="20" height="20" fill="none" viewBox="0 0 20 20">
  <g clip-path="url(#a)">
    <path fill="#000" d="M2.5 19.373a1.877 1.877 0 0 1-1.875-1.875v-15A1.877 1.877 0 0 1 2.5.623h15a1.877 1.877 0 0 1 1.875 1.875v15a1.876 1.876 0 0 1-1.875 1.875h-15Zm15-1.25a.625.625 0 0 0 .625-.625v-15a.625.625 0 0 0-.625-.625H6.875v16.25H17.5Zm-15-16.25a.625.625 0 0 0-.625.625v15c0 .345.28.625.625.625h3.125V1.873H2.5Z"/>
  </g>
  <defs>
    <clipPath id="a">
      <path fill="#fff" d="M0 0h20v20H0z"/>
    </clipPath>
  </defs>
</svg>
