<svg width="16" height="16" viewBox="0 0 16 16" fill="none" xmlns="http://www.w3.org/2000/svg">
<g clip-path="url(#clip0_551_10)">
<path d="M0.54 5.3C0.407392 5.3 0.280215 5.35268 0.186447 5.44645C0.0926784 5.54022 0.04 5.6674 0.04 5.8V15.0867C0.04 15.2193 0.0926784 15.3465 0.186447 15.4402C0.280215 15.534 0.407392 15.5867 0.54 15.5867H3.78C3.91261 15.5867 4.03979 15.534 4.13355 15.4402C4.22732 15.3465 4.28 15.2193 4.28 15.0867V5.8C4.28 5.6674 4.22732 5.54022 4.13355 5.44645C4.03979 5.35268 3.91261 5.3 3.78 5.3H0.54ZM3.28 14.5867H1.04V6.3H3.28V14.5867Z" fill="black"/>
<path d="M11.9267 5.29334C11.1026 5.29882 10.2932 5.51206 9.57333 5.91334V5.8C9.57333 5.6674 9.52066 5.54022 9.42689 5.44645C9.33312 5.35268 9.20594 5.3 9.07333 5.3H5.67333C5.54073 5.3 5.41355 5.35268 5.31978 5.44645C5.22601 5.54022 5.17333 5.6674 5.17333 5.8V15.0867C5.17333 15.2193 5.22601 15.3465 5.31978 15.4402C5.41355 15.534 5.54073 15.5867 5.67333 15.5867H9.08C9.21261 15.5867 9.33979 15.534 9.43355 15.4402C9.52732 15.3465 9.58 15.2193 9.58 15.0867V10.2533C9.58 10.0067 9.67798 9.77014 9.85239 9.59573C10.0268 9.42132 10.2633 9.32334 10.51 9.32334C10.7567 9.32334 10.9932 9.42132 11.1676 9.59573C11.342 9.77014 11.44 10.0067 11.44 10.2533V15.0867C11.44 15.2193 11.4927 15.3465 11.5864 15.4402C11.6802 15.534 11.8074 15.5867 11.94 15.5867H15.5133C15.6459 15.5867 15.7731 15.534 15.8669 15.4402C15.9607 15.3465 16.0133 15.2193 16.0133 15.0867V10.3333C16 7.22 14.4467 5.29334 11.9267 5.29334ZM15.0067 14.5867H12.4333V10.2533C12.4333 9.74147 12.23 9.25057 11.868 8.88862C11.5061 8.52668 11.0152 8.32334 10.5033 8.32334C9.99147 8.32334 9.50056 8.52668 9.13862 8.88862C8.77667 9.25057 8.57333 9.74147 8.57333 10.2533V14.5867H6.17333V6.3H8.58V6.86C8.57999 6.9573 8.60836 7.05248 8.66165 7.13389C8.71493 7.21529 8.7908 7.27939 8.87997 7.31831C8.96914 7.35723 9.06773 7.36929 9.16365 7.35302C9.25957 7.33674 9.34866 7.29283 9.42 7.22667C10.1274 6.63901 11.0138 6.30982 11.9333 6.29334C13.8867 6.29334 15.0133 7.76667 15.0133 10.3333L15.0067 14.5867Z" fill="black"/>
<path d="M2.16 4.75334C2.58881 4.75466 3.00836 4.62871 3.36555 4.39143C3.72273 4.15416 4.00147 3.81624 4.16649 3.42045C4.3315 3.02466 4.37536 2.58881 4.29251 2.16808C4.20966 1.74735 4.00384 1.36066 3.70109 1.05698C3.39834 0.753298 3.01229 0.54628 2.59182 0.462137C2.17135 0.377994 1.73536 0.42051 1.33907 0.584302C0.942771 0.748094 0.60399 1.0258 0.365617 1.38225C0.127245 1.73869 2.0299e-06 2.15786 0 2.58667C-2.71469e-06 3.16015 0.227355 3.71025 0.632243 4.11638C1.03713 4.52252 1.58652 4.75157 2.16 4.75334ZM2.16 1.42C2.39074 1.42 2.61631 1.48843 2.80817 1.61662C3.00002 1.74482 3.14956 1.92703 3.23786 2.14021C3.32616 2.35339 3.34927 2.58797 3.30425 2.81428C3.25923 3.04059 3.14812 3.24847 2.98496 3.41163C2.8218 3.57479 2.61392 3.6859 2.38761 3.73092C2.16129 3.77594 1.92672 3.75283 1.71354 3.66453C1.50036 3.57623 1.31815 3.42669 1.18995 3.23484C1.06176 3.04298 0.993333 2.81742 0.993333 2.58667C0.993333 2.27725 1.11625 1.98051 1.33504 1.76171C1.55383 1.54292 1.85058 1.42 2.16 1.42Z" fill="black"/>
</g>
<defs>
<clipPath id="clip0_551_10">
<rect width="16" height="16" fill="white"/>
</clipPath>
</defs>
</svg>
