<svg xmlns="http://www.w3.org/2000/svg" width="20" height="20" fill="none" viewBox="0 0 20 20">
  <g clip-path="url(#a)">
    <path fill="#000" d="M6.875 20A1.876 1.876 0 0 1 5 18.125v-8.75A1.877 1.877 0 0 1 6.875 7.5H8.75V5A3.755 3.755 0 0 0 5 1.25 3.755 3.755 0 0 0 1.25 5v3.125a.625.625 0 0 1-1.25 0V5c0-2.757 2.243-5 5-5s5 2.243 5 5v2.5h8.125A1.877 1.877 0 0 1 20 9.375v8.75A1.876 1.876 0 0 1 18.125 20H6.875Zm0-11.25a.625.625 0 0 0-.625.625v8.75c0 .345.28.625.625.625h11.25a.624.624 0 0 0 .625-.625v-8.75a.625.625 0 0 0-.625-.625H6.875Z"/>
    <path fill="#000" d="M12.5 15.625a.624.624 0 0 1-.625-.625v-2.5a.624.624 0 1 1 1.25 0V15a.624.624 0 0 1-.625.625Z"/>
  </g>
  <defs>
    <clipPath id="a">
      <path fill="#fff" d="M0 0h20v20H0z"/>
    </clipPath>
  </defs>
</svg>
