<svg xmlns="http://www.w3.org/2000/svg" width="20" height="20" fill="none" viewBox="0 0 20 20">
  <path fill="#000" d="M2.813 12.832A2.816 2.816 0 0 1 0 10.019a2.816 2.816 0 0 1 2.813-2.812 2.816 2.816 0 0 1 2.812 2.812 2.816 2.816 0 0 1-2.813 2.813Zm0-4.375a1.564 1.564 0 0 0-1.563 1.562c0 .862.7 1.563 1.563 1.563a1.564 1.564 0 0 0 1.104-2.667 1.564 1.564 0 0 0-1.104-.458Zm14.375 4.375a2.816 2.816 0 0 1-2.813-2.813 2.816 2.816 0 0 1 2.813-2.812A2.816 2.816 0 0 1 20 10.019a2.816 2.816 0 0 1-2.813 2.813Zm0-4.375a1.564 1.564 0 0 0-1.563 1.562c0 .862.7 1.563 1.563 1.563a1.564 1.564 0 0 0 1.104-2.667 1.564 1.564 0 0 0-1.105-.458Zm-7.375 4.668A2.816 2.816 0 0 1 7 10.312 2.816 2.816 0 0 1 9.813 7.5a2.816 2.816 0 0 1 2.812 2.813 2.816 2.816 0 0 1-2.813 2.812Zm0-4.375a1.564 1.564 0 0 0-1.563 1.563c0 .861.7 1.562 1.563 1.562a1.564 1.564 0 0 0 1.104-2.667 1.564 1.564 0 0 0-1.104-.458Z"/>
</svg>
