<svg xmlns="http://www.w3.org/2000/svg" width="20" height="20" fill="none" viewBox="0 0 20 20">
  <g clip-path="url(#a)">
    <path fill="#000" d="M1.867 3.123a.625.625 0 0 1 0-1.25h16.25a.625.625 0 1 1 0 1.25H1.867Zm2.5 3.75a.625.625 0 0 1 0-1.25h11.25a.625.625 0 1 1 0 1.25H4.367Zm-3.75 3.75a.625.625 0 0 1 0-1.25h18.75a.625.625 0 1 1 0 1.25H.617Zm3.75 3.75a.625.625 0 0 1 0-1.25h11.25a.625.625 0 1 1 0 1.25H4.367Zm-2.5 3.75a.625.625 0 0 1 0-1.25h16.25a.625.625 0 1 1 0 1.25H1.867Z"/>
  </g>
  <defs>
    <clipPath id="a">
      <path fill="#fff" d="M0 0h20v20H0z"/>
    </clipPath>
  </defs>
</svg>
