<svg xmlns="http://www.w3.org/2000/svg" width="20" height="20" fill="none" viewBox="0 0 20 20">
  <g clip-path="url(#a)">
    <path fill="#000" d="M14.375 19.998a.625.625 0 0 1-.625-.625V1.248H10v18.125a.625.625 0 0 1-1.25 0v-6.875h-2.5A6.258 6.258 0 0 1 0 6.248a6.258 6.258 0 0 1 6.25-6.25h13.125a.625.625 0 1 1 0 1.25H15v18.125a.625.625 0 0 1-.625.625ZM6.25 1.248c-2.757 0-5 2.244-5 5 0 2.757 2.243 5 5 5h2.5v-10h-2.5Z"/>
  </g>
  <defs>
    <clipPath id="a">
      <path fill="#fff" d="M0 0h20v20H0z"/>
    </clipPath>
  </defs>
</svg>
