<svg xmlns="http://www.w3.org/2000/svg" width="20" height="20" fill="none" viewBox="0 0 20 20">
  <g clip-path="url(#a)">
    <path fill="#000" d="M10 19.999c-5.514 0-10-4.486-10-10s4.486-10 10-10 10 4.486 10 10-4.486 10-10 10Zm0-18.75c-4.825 0-8.75 3.925-8.75 8.75s3.925 8.75 8.75 8.75 8.75-3.925 8.75-8.75-3.925-8.75-8.75-8.75Z"/>
    <path fill="#000" d="M13.75 14.374a.621.621 0 0 1-.442-.183L10 10.883l-3.308 3.309a.622.622 0 0 1-1.066-.442c0-.166.065-.325.182-.443L9.117 10 5.808 6.691a.619.619 0 0 1-.183-.442c0-.167.065-.324.183-.441a.619.619 0 0 1 .442-.184c.167 0 .324.065.442.184L10 9.116l3.308-3.308a.62.62 0 0 1 .884 0 .619.619 0 0 1 .183.441.619.619 0 0 1-.183.442l-3.309 3.308 3.309 3.308a.627.627 0 0 1-.442 1.067Z"/>
  </g>
  <defs>
    <clipPath id="a">
      <path fill="#fff" d="M0 0h20v20H0z"/>
    </clipPath>
  </defs>
</svg>
