<svg width="20" height="20" viewBox="0 0 20 20" fill="none" xmlns="http://www.w3.org/2000/svg">
<g clip-path="url(#clip0_307_9)">
<path d="M5.61667 20H14.3667C15.8593 20 17.2909 19.4076 18.3471 18.353C19.4033 17.2983 19.9978 15.8676 20 14.375V5.625C19.9978 4.13239 19.4033 2.70167 18.3471 1.64702C17.2909 0.592365 15.8593 -1.63314e-06 14.3667 0H5.61667C4.12695 0.00440586 2.69962 0.598718 1.64701 1.65289C0.594392 2.70707 0.00219722 4.13527 0 5.625V14.375C0.00219722 15.8647 0.594392 17.2929 1.64701 18.3471C2.69962 19.4013 4.12695 19.9956 5.61667 20ZM1.24167 5.625C1.24387 4.46535 1.70551 3.35384 2.52551 2.53384C3.3455 1.71385 4.45702 1.2522 5.61667 1.25H14.3667C15.5263 1.2522 16.6378 1.71385 17.4578 2.53384C18.2778 3.35384 18.7395 4.46535 18.7417 5.625V14.375C18.7395 15.5346 18.2778 16.6462 17.4578 17.4662C16.6378 18.2862 15.5263 18.7478 14.3667 18.75H5.61667C4.45702 18.7478 3.3455 18.2862 2.52551 17.4662C1.70551 16.6462 1.24387 15.5346 1.24167 14.375V5.625Z" fill="black"/>
<path d="M10 14.7917C10.9473 14.79 11.8729 14.5076 12.6598 13.9801C13.4467 13.4526 14.0596 12.7036 14.421 11.8279C14.7824 10.9522 14.8761 9.98904 14.6902 9.0601C14.5044 8.13116 14.0474 7.27814 13.3769 6.60885C12.7065 5.93956 11.8527 5.48402 10.9234 5.29981C9.99415 5.1156 9.03113 5.21097 8.15605 5.57389C7.28098 5.9368 6.53311 6.55096 6.00696 7.33877C5.48082 8.12657 5.2 9.05266 5.2 10C5.2022 11.2716 5.70889 12.4904 6.60883 13.3887C7.50876 14.2871 8.7284 14.7917 10 14.7917ZM10 6.45834C10.7001 6.45999 11.384 6.6691 11.9654 7.05926C12.5467 7.44943 12.9993 8.00313 13.2661 8.65043C13.5329 9.29773 13.6019 10.0096 13.4643 10.696C13.3267 11.3825 12.9887 12.0128 12.4931 12.5073C11.9974 13.0017 11.3663 13.3382 10.6796 13.4742C9.99276 13.6102 9.28108 13.5396 8.63441 13.2713C7.98774 13.003 7.4351 12.549 7.0463 11.9668C6.65751 11.3845 6.45 10.7001 6.45 10C6.4522 9.05993 6.82719 8.15911 7.49271 7.49516C8.15823 6.83121 9.05992 6.45834 10 6.45834Z" fill="black"/>
<path d="M15.7 5.33333C16.2753 5.33333 16.7417 4.86696 16.7417 4.29167C16.7417 3.71637 16.2753 3.25 15.7 3.25C15.1247 3.25 14.6583 3.71637 14.6583 4.29167C14.6583 4.86696 15.1247 5.33333 15.7 5.33333Z" fill="black"/>
</g>
<defs>
<clipPath id="clip0_307_9">
<rect width="20" height="20" fill="white"/>
</clipPath>
</defs>
</svg>
