<svg xmlns="http://www.w3.org/2000/svg" width="20" height="20" fill="none" viewBox="0 0 20 20">
  <g clip-path="url(#a)">
    <path fill="#000" d="M13.75 19.998a.619.619 0 0 1-.442-.183l-6.12-6.12-6.121 6.12a.62.62 0 0 1-.884 0 .627.627 0 0 1 0-.884l6.121-6.121-6.12-6.12A.619.619 0 0 1 0 6.248c0-.166.065-.324.183-.441a.619.619 0 0 1 .442-.184c.167 0 .324.065.442.184l6.12 6.12 6.121-6.12a.62.62 0 0 1 .884 0 .619.619 0 0 1 .183.441.619.619 0 0 1-.183.442L8.07 12.81l6.12 6.122a.627.627 0 0 1-.441 1.066Zm3.125-13.75a.626.626 0 0 1-.488-1.015l2.11-2.637c.163-.204.253-.461.253-.723a.625.625 0 0 0-1.25 0 .625.625 0 0 1-1.25 0c0-1.034.84-1.875 1.875-1.875C19.159-.002 20 .84 20 1.873c0 .545-.188 1.078-.527 1.503l-1.297 1.622h1.199a.625.625 0 0 1 0 1.25h-2.5Z"/>
  </g>
  <defs>
    <clipPath id="a">
      <path fill="#fff" d="M0 0h20v20H0z"/>
    </clipPath>
  </defs>
</svg>
