<svg xmlns="http://www.w3.org/2000/svg" width="20" height="20" fill="none" viewBox="0 0 20 20">
  <g clip-path="url(#a)">
    <path fill="#000" d="M6.25 9.383a.625.625 0 0 1 0-1.25h7.5a.625.625 0 1 1 0 1.25h-7.5Zm0 3.125a.625.625 0 1 1 0-1.25h7.5a.624.624 0 1 1 0 1.25h-7.5Zm0 3.125a.625.625 0 1 1 0-1.25h7.5a.624.624 0 1 1 0 1.25h-7.5Z"/>
    <path fill="#000" d="M3.75 20.008a1.876 1.876 0 0 1-1.875-1.875V5.008A1.877 1.877 0 0 1 3.75 3.133h2.553C6.603 1.36 8.175.008 10 .008s3.397 1.351 3.697 3.125h2.553a1.877 1.877 0 0 1 1.875 1.875v13.125a1.876 1.876 0 0 1-1.875 1.875H3.75Zm0-15.625a.625.625 0 0 0-.625.625v13.125c0 .345.28.625.625.625h12.5a.624.624 0 0 0 .625-.625V5.008a.625.625 0 0 0-.625-.625h-3.125a.625.625 0 0 1-.625-.625c0-1.378-1.122-2.5-2.5-2.5a2.503 2.503 0 0 0-2.5 2.5.625.625 0 0 1-.625.625H3.75Z"/>
    <path fill="#000" d="M10 4.383a.937.937 0 1 0 0-1.875.937.937 0 0 0 0 1.875Z"/>
  </g>
  <defs>
    <clipPath id="a">
      <path fill="#fff" d="M0 0h20v20H0z"/>
    </clipPath>
  </defs>
</svg>
