<svg xmlns="http://www.w3.org/2000/svg" width="20" height="20" fill="none" viewBox="0 0 20 20">
  <g clip-path="url(#a)">
    <path fill="#000" d="M.625 19.998a.625.625 0 0 1 0-1.25h18.75a.625.625 0 1 1 0 1.25H.625ZM10 16.25A6.258 6.258 0 0 1 3.75 10V1.248h-.625a.625.625 0 0 1 0-1.25h2.5a.625.625 0 0 1 0 1.25H5V10c0 2.757 2.243 5 5 5s5-2.243 5-5V1.248h-.625a.625.625 0 1 1 0-1.25h2.5a.625.625 0 1 1 0 1.25h-.625V10A6.258 6.258 0 0 1 10 16.25Z"/>
  </g>
  <defs>
    <clipPath id="a">
      <path fill="#fff" d="M0 0h20v20H0z"/>
    </clipPath>
  </defs>
</svg>
