<svg width="16" height="16" viewBox="0 0 16 16" fill="none" xmlns="http://www.w3.org/2000/svg">
<g clip-path="url(#clip0_439_159)">
<path d="M8.32202 6.67201C8.14602 6.67201 7.98668 6.58267 7.89468 6.43267C7.69668 6.10734 7.54202 5.76134 7.43402 5.39801C6.82268 6.09601 5.94602 6.50001 5.00002 6.50001C4.05402 6.50001 3.17735 6.09601 2.56535 5.39734C2.45668 5.76067 2.30335 6.10667 2.10535 6.43201C2.01402 6.58201 1.85402 6.67201 1.67802 6.67201C1.58668 6.67201 1.49668 6.64667 1.41802 6.59934C1.18268 6.45601 1.10735 6.14801 1.25135 5.91201C1.60068 5.33801 1.77402 4.67934 1.75135 4.00734V3.324C1.75135 3.31734 1.75202 3.30734 1.75268 3.29734C1.75068 3.27667 1.75002 3.26334 1.75002 3.25C1.75002 1.458 3.20802 0 5.00002 0C6.79202 0 8.25002 1.458 8.25002 3.25C8.25002 3.26667 8.24935 3.28334 8.24802 3.29934C8.24802 3.29934 8.24868 3.318 8.24868 3.324V3.99067C8.22602 4.67667 8.39868 5.33801 8.74868 5.91134C8.89202 6.14667 8.81802 6.45467 8.58202 6.59867C8.50335 6.64667 8.41402 6.67201 8.32202 6.67201ZM2.85335 3.91934C3.14202 4.84934 4.00602 5.50001 5.00002 5.50001C5.99268 5.50001 6.85602 4.85067 7.14602 3.922C6.34735 3.802 5.60068 3.45134 4.99935 2.91467C4.39735 3.45 3.65135 3.79934 2.85335 3.91934ZM5.00002 1.70334C5.14535 1.70334 5.28335 1.76667 5.37868 1.87667C5.85935 2.434 6.50668 2.79867 7.22402 2.922C7.06402 1.83934 6.12068 1 5.00002 1C3.88068 1 2.93802 1.83734 2.77668 2.91934C3.49335 2.796 4.14068 2.432 4.62202 1.876C4.71735 1.766 4.85468 1.70334 5.00002 1.70334Z" fill="black"/>
<path d="M0.5 12C0.224 12 0 11.7754 0 11.5C0.002 8.74402 2.246 6.50135 5.002 6.50135C5.682 6.50202 6.34067 6.63668 6.96267 6.90135C7.08533 6.95335 7.18067 7.05068 7.23067 7.17468C7.28067 7.29868 7.27933 7.43468 7.22667 7.55735C7.148 7.74202 6.968 7.86135 6.76667 7.86135C6.69933 7.86135 6.63333 7.84802 6.57067 7.82135C6.07267 7.60935 5.546 7.50135 5.00467 7.50135C3.934 7.50135 2.93 7.91668 2.174 8.67135C1.41733 9.42669 1.00067 10.4314 1 11.5C1 11.776 0.775333 12 0.5 12Z" fill="black"/>
<path d="M11.5 16C9.01867 16 7 13.9813 7 11.5C7 9.01866 9.01867 6.99999 11.5 6.99999C13.9813 6.99999 16 9.01866 16 11.5C16 13.9813 13.9813 16 11.5 16ZM11.5 7.99999C9.57 7.99999 8 9.56999 8 11.5C8 13.43 9.57 15 11.5 15C13.43 15 15 13.43 15 11.5C15 9.56999 13.43 7.99999 11.5 7.99999Z" fill="black"/>
<path d="M11.5 12C11.224 12 11 11.776 11 11.5V9.732C11 9.456 11.224 9.232 11.5 9.232C11.776 9.232 12 9.456 12 9.732V11H13.2673C13.5433 11 13.7673 11.224 13.7673 11.5C13.7673 11.776 13.5427 12 13.2673 12H11.5Z" fill="black"/>
</g>
<defs>
<clipPath id="clip0_439_159">
<rect width="16" height="16" fill="white"/>
</clipPath>
</defs>
</svg>
