<svg width="16" height="16" viewBox="0 0 16 16" fill="none" xmlns="http://www.w3.org/2000/svg">
<g clip-path="url(#clip0_439_180)">
<path d="M11.5 15.9993C9.01867 15.9993 7 13.9807 7 11.4993C7 9.018 9.01867 6.99934 11.5 6.99934C13.9813 6.99934 16 9.018 16 11.4993C16 13.9807 13.9813 15.9993 11.5 15.9993ZM11.5 7.99934C9.57 7.99934 8 9.56934 8 11.4993C8 13.4293 9.57 14.9993 11.5 14.9993C13.43 14.9993 15 13.4293 15 11.4993C15 9.56934 13.43 7.99934 11.5 7.99934Z" fill="black"/>
<path d="M13 13.4987C12.8667 13.4987 12.7407 13.4467 12.6467 13.352L11.5 12.2053L10.3533 13.352C10.2587 13.4467 10.1333 13.4987 10 13.4987C9.86667 13.4987 9.74067 13.4467 9.64667 13.352C9.452 13.1573 9.452 12.84 9.64667 12.6447L10.7933 11.498L9.64667 10.3513C9.452 10.1567 9.452 9.83934 9.64667 9.644C9.74133 9.54934 9.86667 9.49734 10 9.49734C10.1333 9.49734 10.2593 9.54934 10.3533 9.644L11.5 10.7907L12.6467 9.644C12.7413 9.54934 12.8667 9.49734 13 9.49734C13.1333 9.49734 13.2593 9.54934 13.3533 9.644C13.548 9.83867 13.548 10.156 13.3533 10.3513L12.2067 11.498L13.3533 12.6447C13.548 12.8393 13.548 13.1567 13.3533 13.352C13.2593 13.4467 13.1333 13.4987 13 13.4987Z" fill="black"/>
<path d="M8.322 6.67334C8.146 6.67334 7.98667 6.58334 7.89467 6.43334C7.69667 6.108 7.54267 5.76134 7.43467 5.398C6.82267 6.09667 5.946 6.50067 5 6.50067C4.054 6.50067 3.178 6.09667 2.566 5.39867C2.45733 5.762 2.30333 6.108 2.10467 6.43334C2.01467 6.58134 1.85067 6.67334 1.67733 6.67334C1.58533 6.67334 1.496 6.648 1.41733 6.6C1.18267 6.45667 1.10733 6.14867 1.25133 5.91334C1.60067 5.33867 1.774 4.68001 1.75133 4.00801V3.32467C1.75133 3.31867 1.752 3.31134 1.752 3.30334C1.75067 3.27934 1.75 3.26534 1.75 3.25067C1.75 1.45867 3.208 0.000671387 5 0.000671387C6.792 0.000671387 8.25 1.45867 8.25 3.25067C8.25 3.266 8.24933 3.28134 8.248 3.29667C8.24867 3.306 8.24933 3.31534 8.24933 3.32467V3.99134C8.22667 4.67734 8.39933 5.33934 8.74933 5.91334C8.89267 6.14867 8.818 6.45734 8.58267 6.60067C8.50333 6.648 8.414 6.67334 8.322 6.67334ZM2.854 3.92267C3.144 4.85134 4.00733 5.50067 5 5.50067C5.99267 5.50067 6.856 4.85134 7.146 3.92267C6.348 3.802 5.60133 3.452 5 2.91534C4.39867 3.452 3.652 3.802 2.854 3.92267ZM5 1.708C5.14733 1.708 5.28533 1.76934 5.37867 1.87734C5.85933 2.434 6.50667 2.79867 7.22467 2.92267C7.06333 1.83934 6.12067 1.00067 5 1.00067C3.87933 1.00067 2.93667 1.83934 2.776 2.92267C3.49333 2.79867 4.14067 2.434 4.62133 1.87734C4.71467 1.77 4.85267 1.708 5 1.708Z" fill="black"/>
<path d="M0.5 12.0007C0.224 12 0 11.776 0 11.5C0.002 8.744 2.246 6.50134 5.002 6.50134C5.682 6.502 6.34067 6.63667 6.96267 6.90134C7.08533 6.95334 7.18067 7.05067 7.23067 7.17467C7.28067 7.29867 7.27933 7.43467 7.22667 7.55734C7.148 7.742 6.968 7.86134 6.76667 7.86134C6.69933 7.86134 6.63333 7.848 6.57067 7.82134C6.07267 7.60934 5.546 7.50134 5.00467 7.50134C3.934 7.50134 2.93 7.91667 2.174 8.67134C1.41733 9.42667 1.00067 10.4313 1 11.5C1 11.7767 0.775333 12.0007 0.5 12.0007Z" fill="black"/>
</g>
<defs>
<clipPath id="clip0_439_180">
<rect width="16" height="16" fill="white"/>
</clipPath>
</defs>
</svg>
