<svg width="16" height="16" viewBox="0 0 16 16" fill="none" xmlns="http://www.w3.org/2000/svg">
<g clip-path="url(#clip0_439_161)">
<path d="M7.49267 16C7.35934 16 7.23333 15.948 7.13933 15.8533C7.02067 15.7353 6.96933 15.566 7.00267 15.402L7.50267 12.902C7.522 12.8047 7.56933 12.716 7.63933 12.646L12.726 7.55867C13.0867 7.198 13.566 7 14.0767 7C14.5873 7 15.0673 7.19867 15.4273 7.55867C15.4293 7.56067 15.4333 7.56533 15.438 7.56933C16.1833 8.30133 16.2067 9.49867 15.4887 10.2413C15.4467 10.284 15.4013 10.3193 15.352 10.3467L10.346 15.3533C10.2767 15.4233 10.1873 15.4707 10.09 15.49L7.59067 15.99C7.558 15.9967 7.52534 16 7.49267 16ZM8.13 14.8627L9.746 14.5393L14.7253 9.55933C14.756 9.52867 14.7907 9.502 14.8273 9.48067C15.114 9.12067 15.076 8.612 14.7313 8.27867C14.7233 8.27133 14.7147 8.262 14.7053 8.252C14.546 8.09333 14.3193 8 14.0773 8C13.8333 8 13.604 8.09467 13.432 8.26667L8.45267 13.2467L8.13 14.8627Z" fill="black"/>
<path d="M8.31467 6.672C8.14134 6.672 7.978 6.58 7.88734 6.432C7.68934 6.10733 7.53467 5.76067 7.42667 5.39733C6.81534 6.096 5.93867 6.5 4.99267 6.5C4.04667 6.5 3.17 6.096 2.558 5.398C2.45 5.76067 2.296 6.10733 2.09733 6.432C2.006 6.582 1.846 6.672 1.67 6.672C1.57867 6.672 1.48867 6.64667 1.41 6.59933C1.17533 6.45533 1.1 6.14733 1.244 5.912C1.59333 5.338 1.76667 4.67933 1.74333 4.00733V3.324C1.74333 3.31733 1.744 3.30733 1.74467 3.29733C1.74333 3.27667 1.74267 3.26333 1.74267 3.25C1.74267 1.458 3.20067 0 4.99267 0C6.78467 0 8.24267 1.458 8.24267 3.25C8.24267 3.26667 8.242 3.28333 8.24067 3.29933C8.24067 3.29933 8.24134 3.318 8.24134 3.324V3.99067C8.21867 4.67667 8.39134 5.338 8.74134 5.91133C8.81067 6.02533 8.832 6.15933 8.80067 6.28933C8.76934 6.41933 8.68934 6.52867 8.57534 6.59867C8.49667 6.64667 8.40667 6.672 8.31467 6.672ZM2.846 3.91933C3.13467 4.84933 3.99867 5.5 4.99267 5.5C5.98533 5.5 6.84867 4.85067 7.13867 3.922C6.34067 3.802 5.594 3.45133 4.992 2.91467C4.39067 3.45 3.644 3.79933 2.846 3.91933ZM4.99267 1.70333C5.138 1.70333 5.276 1.76667 5.37067 1.87667C5.85134 2.43333 6.49867 2.798 7.21667 2.922C7.05667 1.83867 6.11333 1 4.99267 1C3.87333 1 2.93067 1.83733 2.76933 2.91933C3.486 2.796 4.13334 2.432 4.61467 1.876C4.70933 1.76667 4.84733 1.70333 4.99267 1.70333Z" fill="black"/>
<path d="M0.492668 12C0.216668 12 -0.00733185 11.776 -0.00733185 11.5C-0.00733185 8.74267 2.23533 6.49933 4.99267 6.49867C6.19667 6.49867 7.36067 6.93333 8.27 7.722C8.37067 7.80933 8.43133 7.93067 8.44133 8.064C8.45067 8.19733 8.40734 8.326 8.32 8.42733C8.22467 8.53667 8.08733 8.59933 7.942 8.59933C7.822 8.59933 7.70533 8.556 7.61467 8.47733C6.88733 7.846 5.956 7.49867 4.99267 7.49867C2.78667 7.49867 0.992002 9.294 0.992002 11.5C0.992668 11.776 0.768668 12 0.492668 12Z" fill="black"/>
</g>
<defs>
<clipPath id="clip0_439_161">
<rect width="16" height="16" fill="white"/>
</clipPath>
</defs>
</svg>
