<svg width="733" height="211" viewBox="0 0 733 211" fill="none" xmlns="http://www.w3.org/2000/svg">
<rect width="733" height="210.032" rx="24" fill="white"/>
<rect x="24" y="24" width="20" height="20" rx="10" fill="#CE3871"/>
<g clip-path="url(#clip0_581_1328)">
<path d="M41.5 42C41.3667 42 41.2407 41.948 41.1467 41.8534L34 34.7077L26.8533 41.8534C26.7587 41.948 26.6333 42 26.5 42C26.3667 42 26.2407 41.948 26.1467 41.8534C25.952 41.6587 25.952 41.3414 26.1467 41.1461L33.2933 33.9997L26.1467 26.854C26.052 26.76 26 26.634 26 26.5007C26 26.3674 26.052 26.2414 26.1467 26.1474C26.2407 26.0527 26.3667 26.0007 26.5 26.0007C26.6333 26.0007 26.7593 26.0527 26.8533 26.1474L34 33.2931L41.1467 26.1467C41.2413 26.052 41.3667 26 41.5 26C41.6333 26 41.7593 26.052 41.8533 26.1467C41.948 26.2414 42 26.3674 42 26.5007C42 26.634 41.948 26.76 41.8533 26.854L34.7067 34.0004L41.8533 41.1467C42.048 41.3414 42.048 41.6587 41.8533 41.854C41.7593 41.948 41.6333 42 41.5 42Z" fill="#FDF9F9"/>
</g>
<path d="M57.012 40.154C54.478 40.154 53.106 38.572 53.106 36.71V30.2H54.282V36.682C54.282 38.236 55.514 39.062 57.012 39.062C58.51 39.062 59.742 38.236 59.742 36.682V30.2H60.918V36.71C60.918 38.572 59.532 40.168 57.012 40.154ZM64.1355 40H62.9735V32.58H63.8975L64.0095 33.714C64.5135 32.93 65.4795 32.412 66.5855 32.412C68.1815 32.412 69.2455 33.448 69.2455 35.086V40H68.0835V35.128C68.0835 34.092 67.4115 33.434 66.2915 33.434C64.9615 33.434 64.1495 34.358 64.1355 35.492V40ZM72.2292 40H71.0672V32.58H71.9912L72.1032 33.714C72.6072 32.93 73.5732 32.412 74.6792 32.412C76.2752 32.412 77.3392 33.448 77.3392 35.086V40H76.1772V35.128C76.1772 34.092 75.5052 33.434 74.3852 33.434C73.0552 33.434 72.2432 34.358 72.2292 35.492V40ZM82.395 42.968C80.393 42.968 79.035 42.002 79.035 40.434H80.197C80.197 41.316 81.093 41.988 82.395 41.988C83.921 41.988 84.719 41.078 84.719 39.804V38.6C84.201 39.37 83.305 39.874 82.171 39.874C80.197 39.874 78.783 38.362 78.783 36.178C78.783 33.952 80.211 32.412 82.171 32.412C83.361 32.412 84.327 32.972 84.831 33.868L84.957 32.58H85.867V39.804C85.867 41.68 84.607 42.968 82.395 42.968ZM82.339 38.866C83.739 38.866 84.719 37.746 84.719 36.136C84.719 34.54 83.739 33.42 82.339 33.42C80.953 33.42 79.987 34.54 79.987 36.164C79.987 37.76 80.953 38.866 82.339 38.866ZM90.7143 31.782C89.9163 31.782 89.3143 31.208 89.3143 30.452C89.3143 29.696 89.9163 29.122 90.7143 29.122C91.5123 29.122 92.1143 29.696 92.1143 30.452C92.1143 31.208 91.5123 31.782 90.7143 31.782ZM90.7143 31.082C91.0783 31.082 91.3443 30.816 91.3443 30.452C91.3443 30.088 91.0783 29.822 90.7143 29.822C90.3503 29.822 90.0843 30.088 90.0843 30.452C90.0843 30.816 90.3503 31.082 90.7143 31.082ZM90.1683 40.112C88.4883 40.112 87.4103 39.244 87.4103 37.886C87.4103 36.178 89.0623 35.856 90.5463 35.702C91.6803 35.59 92.6603 35.604 92.6743 35.002C92.6603 34.064 91.8903 33.406 90.7703 33.406C89.6923 33.406 88.8523 34.008 88.7263 34.89H87.5783C87.7183 33.434 89.0343 32.412 90.7983 32.412C92.6323 32.412 93.8083 33.504 93.8083 35.072V38.684C93.8083 38.922 93.9343 39.048 94.1863 39.048H94.6063V40H93.9483C93.1503 40 92.7303 39.636 92.7303 38.95V38.726C92.2963 39.58 91.4563 40.112 90.1683 40.112ZM90.3363 39.118C91.7223 39.118 92.6743 38.236 92.6743 37.004V36.038C92.3523 36.472 91.5263 36.556 90.6163 36.654C89.5943 36.766 88.5723 36.906 88.5723 37.858C88.5723 38.628 89.2723 39.118 90.3363 39.118ZM101.042 40H99.8796V33.56H98.5076V32.58H99.8796V31.544C99.8796 30.214 100.622 29.5 101.994 29.5H103.646V30.48H101.994C101.378 30.48 101.042 30.858 101.042 31.544V32.58H103.45V33.56H101.042V40ZM105.918 40H104.756V29.5H105.918V40ZM111.134 40.154C108.936 40.154 107.48 38.544 107.48 36.318C107.48 33.784 109.118 32.412 110.994 32.412C113.038 32.412 114.354 33.784 114.396 36.164V36.486H108.642C108.712 38.068 109.636 39.146 111.134 39.146C112.17 39.146 112.926 38.628 113.234 37.662H114.368C114.032 39.188 112.828 40.154 111.134 40.154ZM108.712 35.52H113.178C112.968 34.218 112.184 33.42 110.994 33.42C109.818 33.42 108.95 34.19 108.712 35.52ZM117.087 40H115.925V32.58H116.849L116.989 33.994C117.465 33.042 118.333 32.538 119.565 32.538H119.817V33.686H119.565C117.997 33.686 117.087 34.582 117.087 36.108V40ZM124.082 40.154C121.884 40.154 120.428 38.544 120.428 36.318C120.428 33.784 122.066 32.412 123.942 32.412C125.986 32.412 127.302 33.784 127.344 36.164V36.486H121.59C121.66 38.068 122.584 39.146 124.082 39.146C125.118 39.146 125.874 38.628 126.182 37.662H127.316C126.98 39.188 125.776 40.154 124.082 40.154ZM121.66 35.52H126.126C125.916 34.218 125.132 33.42 123.942 33.42C122.766 33.42 121.898 34.19 121.66 35.52ZM133.22 40H132.058V29.5H133.22V40ZM135.749 31.334C135.259 31.334 134.881 30.956 134.881 30.466C134.881 29.976 135.259 29.612 135.749 29.612C136.239 29.612 136.603 29.976 136.603 30.466C136.603 30.956 136.239 31.334 135.749 31.334ZM136.323 40H135.161V32.58H136.323V40ZM139.427 40H138.265V29.5H139.427V36.234L143.039 32.58H144.439L141.765 35.282L144.845 40H143.487L140.967 36.094L139.427 37.648V40ZM149.465 40H148.247L145.153 32.58H146.413L148.863 38.642L151.299 32.58H152.559L149.465 40ZM156.798 40.154C154.6 40.154 153.144 38.544 153.144 36.318C153.144 33.784 154.782 32.412 156.658 32.412C158.702 32.412 160.018 33.784 160.06 36.164V36.486H154.306C154.376 38.068 155.3 39.146 156.798 39.146C157.834 39.146 158.59 38.628 158.898 37.662H160.032C159.696 39.188 158.492 40.154 156.798 40.154ZM154.376 35.52H158.842C158.632 34.218 157.848 33.42 156.658 33.42C155.482 33.42 154.614 34.19 154.376 35.52ZM162.793 40H161.631V29.5H162.793V36.234L166.405 32.58H167.805L165.131 35.282L168.211 40H166.853L164.333 36.094L162.793 37.648V40ZM173.054 40H172.228C170.786 40 170.016 39.258 170.016 37.886V33.56H168.644V32.58H170.016V30.046H171.178V32.58H173.18V33.56H171.178V37.886C171.178 38.628 171.542 39.02 172.228 39.02H173.054V40ZM177.648 40.154C175.45 40.154 173.994 38.544 173.994 36.318C173.994 33.784 175.632 32.412 177.508 32.412C179.552 32.412 180.868 33.784 180.91 36.164V36.486H175.156C175.226 38.068 176.15 39.146 177.648 39.146C178.684 39.146 179.44 38.628 179.748 37.662H180.882C180.546 39.188 179.342 40.154 177.648 40.154ZM175.226 35.52H179.692C179.482 34.218 178.698 33.42 177.508 33.42C176.332 33.42 175.464 34.19 175.226 35.52ZM185.434 40.154C183.446 40.154 182.06 38.558 182.06 36.248C182.06 33.98 183.432 32.412 185.42 32.412C186.54 32.412 187.478 32.902 188.01 33.686V29.5H189.172V40H188.248L188.122 38.572C187.632 39.538 186.652 40.154 185.434 40.154ZM185.616 39.146C187.03 39.146 188.01 37.942 188.01 36.22C188.01 34.554 187.058 33.406 185.686 33.406C184.258 33.406 183.264 34.568 183.264 36.248C183.264 37.956 184.23 39.146 185.616 39.146ZM194.396 40.154C192.198 40.154 190.742 38.544 190.742 36.318C190.742 33.784 192.38 32.412 194.256 32.412C196.3 32.412 197.616 33.784 197.658 36.164V36.486H191.904C191.974 38.068 192.898 39.146 194.396 39.146C195.432 39.146 196.188 38.628 196.496 37.662H197.63C197.294 39.188 196.09 40.154 194.396 40.154ZM191.974 35.52H196.44C196.23 34.218 195.446 33.42 194.256 33.42C193.08 33.42 192.212 34.19 191.974 35.52ZM205.971 40H204.753L201.659 32.58H202.919L205.369 38.642L207.805 32.58H209.065L205.971 40ZM212.436 40.112C210.756 40.112 209.678 39.244 209.678 37.886C209.678 36.178 211.33 35.856 212.814 35.702C213.948 35.59 214.928 35.604 214.942 35.002C214.928 34.064 214.158 33.406 213.038 33.406C211.96 33.406 211.12 34.008 210.994 34.89H209.846C209.986 33.434 211.302 32.412 213.066 32.412C214.9 32.412 216.076 33.504 216.076 35.072V38.684C216.076 38.922 216.202 39.048 216.454 39.048H216.874V40H216.216C215.418 40 214.998 39.636 214.998 38.95V38.726C214.564 39.58 213.724 40.112 212.436 40.112ZM212.604 39.118C213.99 39.118 214.942 38.236 214.942 37.004V36.038C214.62 36.472 213.794 36.556 212.884 36.654C211.862 36.766 210.84 36.906 210.84 37.858C210.84 38.628 211.54 39.118 212.604 39.118ZM219.381 40H218.219V29.5H219.381V40ZM224.555 42.968C222.553 42.968 221.195 42.002 221.195 40.434H222.357C222.357 41.316 223.253 41.988 224.555 41.988C226.081 41.988 226.879 41.078 226.879 39.804V38.6C226.361 39.37 225.465 39.874 224.331 39.874C222.357 39.874 220.943 38.362 220.943 36.178C220.943 33.952 222.371 32.412 224.331 32.412C225.521 32.412 226.487 32.972 226.991 33.868L227.117 32.58H228.027V39.804C228.027 41.68 226.767 42.968 224.555 42.968ZM224.499 38.866C225.899 38.866 226.879 37.746 226.879 36.136C226.879 34.54 225.899 33.42 224.499 33.42C223.113 33.42 222.147 34.54 222.147 36.164C222.147 37.76 223.113 38.866 224.499 38.866ZM234.269 42.8H233.107V32.58H234.031L234.157 33.924C234.689 33 235.669 32.412 236.873 32.412C238.833 32.412 240.205 33.98 240.205 36.248C240.205 38.558 238.833 40.154 236.873 40.154C235.739 40.154 234.801 39.636 234.269 38.768V42.8ZM236.691 39.146C238.063 39.146 239.001 37.956 239.001 36.248C239.001 34.582 238.063 33.42 236.677 33.42C235.277 33.42 234.269 34.554 234.269 36.192C234.269 37.928 235.277 39.146 236.691 39.146ZM244.673 31.782C243.875 31.782 243.273 31.208 243.273 30.452C243.273 29.696 243.875 29.122 244.673 29.122C245.471 29.122 246.073 29.696 246.073 30.452C246.073 31.208 245.471 31.782 244.673 31.782ZM244.673 31.082C245.037 31.082 245.303 30.816 245.303 30.452C245.303 30.088 245.037 29.822 244.673 29.822C244.309 29.822 244.043 30.088 244.043 30.452C244.043 30.816 244.309 31.082 244.673 31.082ZM244.127 40.112C242.447 40.112 241.369 39.244 241.369 37.886C241.369 36.178 243.021 35.856 244.505 35.702C245.639 35.59 246.619 35.604 246.633 35.002C246.619 34.064 245.849 33.406 244.729 33.406C243.651 33.406 242.811 34.008 242.685 34.89H241.537C241.677 33.434 242.993 32.412 244.757 32.412C246.591 32.412 247.767 33.504 247.767 35.072V38.684C247.767 38.922 247.893 39.048 248.145 39.048H248.565V40H247.907C247.109 40 246.689 39.636 246.689 38.95V38.726C246.255 39.58 245.415 40.112 244.127 40.112ZM244.295 39.118C245.681 39.118 246.633 38.236 246.633 37.004V36.038C246.311 36.472 245.485 36.556 244.575 36.654C243.553 36.766 242.531 36.906 242.531 37.858C242.531 38.628 243.231 39.118 244.295 39.118ZM255.785 40.154C254.021 40.154 252.719 39.23 252.621 37.662H253.755C253.839 38.628 254.721 39.16 255.841 39.16C256.891 39.16 257.395 38.754 257.395 38.012C257.395 37.312 256.849 37.158 256.079 36.892L255.001 36.528C253.909 36.164 252.817 35.828 252.817 34.484C252.817 33.224 253.797 32.412 255.421 32.412C257.059 32.412 258.193 33.294 258.375 34.946H257.241C257.115 33.91 256.387 33.406 255.379 33.406C254.469 33.406 253.937 33.812 253.937 34.456C253.937 35.226 254.749 35.38 255.365 35.59L256.373 35.926C257.731 36.374 258.543 36.836 258.543 38.068C258.543 39.37 257.591 40.154 255.785 40.154ZM262.461 40.112C260.781 40.112 259.703 39.244 259.703 37.886C259.703 36.178 261.355 35.856 262.839 35.702C263.973 35.59 264.953 35.604 264.967 35.002C264.953 34.064 264.183 33.406 263.063 33.406C261.985 33.406 261.145 34.008 261.019 34.89H259.871C260.011 33.434 261.327 32.412 263.091 32.412C264.925 32.412 266.101 33.504 266.101 35.072V38.684C266.101 38.922 266.227 39.048 266.479 39.048H266.899V40H266.241C265.443 40 265.023 39.636 265.023 38.95V38.726C264.589 39.58 263.749 40.112 262.461 40.112ZM262.629 39.118C264.015 39.118 264.967 38.236 264.967 37.004V36.038C264.645 36.472 263.819 36.556 262.909 36.654C261.887 36.766 260.865 36.906 260.865 37.858C260.865 38.628 261.565 39.118 262.629 39.118ZM269.364 40H268.202V32.58H269.126L269.238 33.728C269.742 32.93 270.708 32.412 271.772 32.412C272.892 32.412 273.732 32.986 274.11 33.882C274.586 33.014 275.608 32.412 276.742 32.412C278.31 32.412 279.318 33.518 279.318 35.03V40H278.156V35.072C278.156 34.078 277.54 33.434 276.546 33.434C275.16 33.434 274.348 34.358 274.334 35.492V40H273.186V35.072C273.186 34.078 272.57 33.434 271.576 33.434C270.19 33.434 269.378 34.358 269.364 35.492V40ZM282.298 40H281.136V32.58H282.06L282.172 33.728C282.676 32.93 283.642 32.412 284.706 32.412C285.826 32.412 286.666 32.986 287.044 33.882C287.52 33.014 288.542 32.412 289.676 32.412C291.244 32.412 292.252 33.518 292.252 35.03V40H291.09V35.072C291.09 34.078 290.474 33.434 289.48 33.434C288.094 33.434 287.282 34.358 287.268 35.492V40H286.12V35.072C286.12 34.078 285.504 33.434 284.51 33.434C283.124 33.434 282.312 34.358 282.298 35.492V40ZM297.345 40.154C295.147 40.154 293.691 38.544 293.691 36.318C293.691 33.784 295.329 32.412 297.205 32.412C299.249 32.412 300.565 33.784 300.607 36.164V36.486H294.853C294.923 38.068 295.847 39.146 297.345 39.146C298.381 39.146 299.137 38.628 299.445 37.662H300.579C300.243 39.188 299.039 40.154 297.345 40.154ZM294.923 35.52H299.389C299.179 34.218 298.395 33.42 297.205 33.42C296.029 33.42 295.161 34.19 294.923 35.52ZM56.214 65.154C53.834 65.154 52.574 63.46 52.574 61.22C52.574 58.742 54.198 57.412 56.214 57.412C58.58 57.412 59.854 59.12 59.854 61.22C59.854 63.782 58.3 65.154 56.214 65.154ZM56.214 64.146C57.796 64.146 58.664 62.83 58.664 61.22C58.664 59.554 57.698 58.42 56.214 58.42C54.73 58.42 53.764 59.554 53.764 61.22C53.764 63.124 54.87 64.146 56.214 64.146ZM62.5359 65H61.3739V57.58H62.2979L62.4099 58.728C62.9139 57.93 63.8799 57.412 64.9439 57.412C66.0639 57.412 66.9039 57.986 67.2819 58.882C67.7579 58.014 68.7799 57.412 69.9139 57.412C71.4819 57.412 72.4899 58.518 72.4899 60.03V65H71.3279V60.072C71.3279 59.078 70.7119 58.434 69.7179 58.434C68.3319 58.434 67.5199 59.358 67.5059 60.492V65H66.3579V60.072C66.3579 59.078 65.7419 58.434 64.7479 58.434C63.3619 58.434 62.5499 59.358 62.5359 60.492V65ZM75.4695 65H74.3075V57.58H75.2315L75.3715 58.994C75.8475 58.042 76.7155 57.538 77.9475 57.538H78.1995V58.686H77.9475C76.3795 58.686 75.4695 59.582 75.4695 61.108V65ZM82.3061 56.782C81.5081 56.782 80.9061 56.208 80.9061 55.452C80.9061 54.696 81.5081 54.122 82.3061 54.122C83.1041 54.122 83.7061 54.696 83.7061 55.452C83.7061 56.208 83.1041 56.782 82.3061 56.782ZM82.3061 56.082C82.6701 56.082 82.9361 55.816 82.9361 55.452C82.9361 55.088 82.6701 54.822 82.3061 54.822C81.9421 54.822 81.6761 55.088 81.6761 55.452C81.6761 55.816 81.9421 56.082 82.3061 56.082ZM81.7601 65.112C80.0801 65.112 79.0021 64.244 79.0021 62.886C79.0021 61.178 80.6541 60.856 82.1381 60.702C83.2721 60.59 84.2521 60.604 84.2661 60.002C84.2521 59.064 83.4821 58.406 82.3621 58.406C81.2841 58.406 80.4441 59.008 80.3181 59.89H79.1701C79.3101 58.434 80.6261 57.412 82.3901 57.412C84.2241 57.412 85.4001 58.504 85.4001 60.072V63.684C85.4001 63.922 85.5261 64.048 85.7781 64.048H86.1981V65H85.5401C84.7421 65 84.3221 64.636 84.3221 63.95V63.726C83.8881 64.58 83.0481 65.112 81.7601 65.112ZM81.9281 64.118C83.3141 64.118 84.2661 63.236 84.2661 62.004V61.038C83.9441 61.472 83.1181 61.556 82.2081 61.654C81.1861 61.766 80.1641 61.906 80.1641 62.858C80.1641 63.628 80.8641 64.118 81.9281 64.118ZM90.4968 65.154C88.5088 65.154 87.1228 63.558 87.1228 61.248C87.1228 58.98 88.4948 57.412 90.4828 57.412C91.6028 57.412 92.5408 57.902 93.0728 58.686V54.5H94.2348V65H93.3108L93.1848 63.572C92.6948 64.538 91.7148 65.154 90.4968 65.154ZM90.6788 64.146C92.0928 64.146 93.0728 62.942 93.0728 61.22C93.0728 59.554 92.1208 58.406 90.7488 58.406C89.3208 58.406 88.3268 59.568 88.3268 61.248C88.3268 62.956 89.2928 64.146 90.6788 64.146ZM99.4585 65.154C97.2605 65.154 95.8045 63.544 95.8045 61.318C95.8045 58.784 97.4425 57.412 99.3185 57.412C101.362 57.412 102.678 58.784 102.72 61.164V61.486H96.9665C97.0365 63.068 97.9605 64.146 99.4585 64.146C100.494 64.146 101.25 63.628 101.558 62.662H102.692C102.356 64.188 101.152 65.154 99.4585 65.154ZM97.0365 60.52H101.502C101.292 59.218 100.508 58.42 99.3185 58.42C98.1425 58.42 97.2745 59.19 97.0365 60.52ZM105.756 62.886L104.23 67.562L103.292 67.268L104.762 62.578L105.756 62.886ZM113.534 65.154C111.546 65.154 110.16 63.558 110.16 61.248C110.16 58.98 111.532 57.412 113.52 57.412C114.64 57.412 115.578 57.902 116.11 58.686V54.5H117.272V65H116.348L116.222 63.572C115.732 64.538 114.752 65.154 113.534 65.154ZM113.716 64.146C115.13 64.146 116.11 62.942 116.11 61.22C116.11 59.554 115.158 58.406 113.786 58.406C112.358 58.406 111.364 59.568 111.364 61.248C111.364 62.956 112.33 64.146 113.716 64.146ZM121.614 65.112C119.934 65.112 118.856 64.244 118.856 62.886C118.856 61.178 120.508 60.856 121.992 60.702C123.126 60.59 124.106 60.604 124.12 60.002C124.106 59.064 123.336 58.406 122.216 58.406C121.138 58.406 120.298 59.008 120.172 59.89H119.024C119.164 58.434 120.48 57.412 122.244 57.412C124.078 57.412 125.254 58.504 125.254 60.072V63.684C125.254 63.922 125.38 64.048 125.632 64.048H126.052V65H125.394C124.596 65 124.176 64.636 124.176 63.95V63.726C123.742 64.58 122.902 65.112 121.614 65.112ZM121.782 64.118C123.168 64.118 124.12 63.236 124.12 62.004V61.038C123.798 61.472 122.972 61.556 122.062 61.654C121.04 61.766 120.018 61.906 120.018 62.858C120.018 63.628 120.718 64.118 121.782 64.118ZM133.495 65.154C131.507 65.154 130.121 63.558 130.121 61.248C130.121 58.98 131.493 57.412 133.481 57.412C134.601 57.412 135.539 57.902 136.071 58.686V54.5H137.233V65H136.309L136.183 63.572C135.693 64.538 134.713 65.154 133.495 65.154ZM133.677 64.146C135.091 64.146 136.071 62.942 136.071 61.22C136.071 59.554 135.119 58.406 133.747 58.406C132.319 58.406 131.325 59.568 131.325 61.248C131.325 62.956 132.291 64.146 133.677 64.146ZM142.457 65.154C140.259 65.154 138.803 63.544 138.803 61.318C138.803 58.784 140.441 57.412 142.317 57.412C144.361 57.412 145.677 58.784 145.719 61.164V61.486H139.965C140.035 63.068 140.959 64.146 142.457 64.146C143.493 64.146 144.249 63.628 144.557 62.662H145.691C145.355 64.188 144.151 65.154 142.457 65.154ZM140.035 60.52H144.501C144.291 59.218 143.507 58.42 142.317 58.42C141.141 58.42 140.273 59.19 140.035 60.52ZM150.92 65H150.094C148.652 65 147.882 64.258 147.882 62.886V58.56H146.51V57.58H147.882V55.046H149.044V57.58H151.046V58.56H149.044V62.886C149.044 63.628 149.408 64.02 150.094 64.02H150.92V65ZM158.331 65.154C156.567 65.154 155.265 64.23 155.167 62.662H156.301C156.385 63.628 157.267 64.16 158.387 64.16C159.437 64.16 159.941 63.754 159.941 63.012C159.941 62.312 159.395 62.158 158.625 61.892L157.547 61.528C156.455 61.164 155.363 60.828 155.363 59.484C155.363 58.224 156.343 57.412 157.967 57.412C159.605 57.412 160.739 58.294 160.921 59.946H159.787C159.661 58.91 158.933 58.406 157.925 58.406C157.015 58.406 156.483 58.812 156.483 59.456C156.483 60.226 157.295 60.38 157.911 60.59L158.919 60.926C160.277 61.374 161.089 61.836 161.089 63.068C161.089 64.37 160.137 65.154 158.331 65.154ZM163.722 65H162.56V54.5H163.722V61.234L167.334 57.58H168.734L166.06 60.282L169.14 65H167.782L165.262 61.094L163.722 62.648V65ZM172.446 65.112C170.766 65.112 169.688 64.244 169.688 62.886C169.688 61.178 171.34 60.856 172.824 60.702C173.958 60.59 174.938 60.604 174.952 60.002C174.938 59.064 174.168 58.406 173.048 58.406C171.97 58.406 171.13 59.008 171.004 59.89H169.856C169.996 58.434 171.312 57.412 173.076 57.412C174.91 57.412 176.086 58.504 176.086 60.072V63.684C176.086 63.922 176.212 64.048 176.464 64.048H176.884V65H176.226C175.428 65 175.008 64.636 175.008 63.95V63.726C174.574 64.58 173.734 65.112 172.446 65.112ZM172.614 64.118C174 64.118 174.952 63.236 174.952 62.004V61.038C174.63 61.472 173.804 61.556 172.894 61.654C171.872 61.766 170.85 61.906 170.85 62.858C170.85 63.628 171.55 64.118 172.614 64.118ZM179.376 67.8H178.214V57.58H179.138L179.264 58.924C179.796 58 180.776 57.412 181.98 57.412C183.94 57.412 185.312 58.98 185.312 61.248C185.312 63.558 183.94 65.154 181.98 65.154C180.846 65.154 179.908 64.636 179.376 63.768V67.8ZM181.798 64.146C183.17 64.146 184.108 62.956 184.108 61.248C184.108 59.582 183.17 58.42 181.784 58.42C180.384 58.42 179.376 59.554 179.376 61.192C179.376 62.928 180.384 64.146 181.798 64.146ZM190.117 65.154C187.919 65.154 186.463 63.544 186.463 61.318C186.463 58.784 188.101 57.412 189.977 57.412C192.021 57.412 193.337 58.784 193.379 61.164V61.486H187.625C187.695 63.068 188.619 64.146 190.117 64.146C191.153 64.146 191.909 63.628 192.217 62.662H193.351C193.015 64.188 191.811 65.154 190.117 65.154ZM187.695 60.52H192.161C191.951 59.218 191.167 58.42 189.977 58.42C188.801 58.42 187.933 59.19 187.695 60.52ZM196.069 65H194.907V57.58H195.831L195.971 58.994C196.447 58.042 197.315 57.538 198.547 57.538H198.799V58.686H198.547C196.979 58.686 196.069 59.582 196.069 61.108V65ZM205.262 65H204.1V58.56H202.728V57.58H204.1V56.544C204.1 55.214 204.842 54.5 206.214 54.5H207.866V55.48H206.214C205.598 55.48 205.262 55.858 205.262 56.544V57.58H207.67V58.56H205.262V65ZM211.964 65.154C209.584 65.154 208.324 63.46 208.324 61.22C208.324 58.742 209.948 57.412 211.964 57.412C214.33 57.412 215.604 59.12 215.604 61.22C215.604 63.782 214.05 65.154 211.964 65.154ZM211.964 64.146C213.546 64.146 214.414 62.83 214.414 61.22C214.414 59.554 213.448 58.42 211.964 58.42C210.48 58.42 209.514 59.554 209.514 61.22C209.514 63.124 210.62 64.146 211.964 64.146ZM218.286 65H217.124V57.58H218.048L218.188 58.994C218.664 58.042 219.532 57.538 220.764 57.538H221.016V58.686H220.764C219.196 58.686 218.286 59.582 218.286 61.108V65ZM226.192 65H224.974L221.88 57.58H223.14L225.59 63.642L228.026 57.58H229.286L226.192 65ZM231.11 56.334C230.62 56.334 230.242 55.956 230.242 55.466C230.242 54.976 230.62 54.612 231.11 54.612C231.6 54.612 231.964 54.976 231.964 55.466C231.964 55.956 231.6 56.334 231.11 56.334ZM231.684 65H230.522V57.58H231.684V65ZM234.747 65H233.585V57.58H234.509L234.649 58.994C235.125 58.042 235.993 57.538 237.225 57.538H237.477V58.686H237.225C235.657 58.686 234.747 59.582 234.747 61.108V65ZM239.969 65H238.807V57.58H239.731L239.871 58.994C240.347 58.042 241.215 57.538 242.447 57.538H242.699V58.686H242.447C240.879 58.686 239.969 59.582 239.969 61.108V65ZM244.618 56.334C244.128 56.334 243.75 55.956 243.75 55.466C243.75 54.976 244.128 54.612 244.618 54.612C245.108 54.612 245.472 54.976 245.472 55.466C245.472 55.956 245.108 56.334 244.618 56.334ZM245.192 65H244.03V57.58H245.192V65ZM248.255 65H247.093V57.58H248.017L248.129 58.714C248.633 57.93 249.599 57.412 250.705 57.412C252.301 57.412 253.365 58.448 253.365 60.086V65H252.203V60.128C252.203 59.092 251.531 58.434 250.411 58.434C249.081 58.434 248.269 59.358 248.255 60.492V65ZM258.42 67.968C256.418 67.968 255.06 67.002 255.06 65.434H256.222C256.222 66.316 257.118 66.988 258.42 66.988C259.946 66.988 260.744 66.078 260.744 64.804V63.6C260.226 64.37 259.33 64.874 258.196 64.874C256.222 64.874 254.808 63.362 254.808 61.178C254.808 58.952 256.236 57.412 258.196 57.412C259.386 57.412 260.352 57.972 260.856 58.868L260.982 57.58H261.892V64.804C261.892 66.68 260.632 67.968 258.42 67.968ZM258.364 63.866C259.764 63.866 260.744 62.746 260.744 61.136C260.744 59.54 259.764 58.42 258.364 58.42C256.978 58.42 256.012 59.54 256.012 61.164C256.012 62.76 256.978 63.866 258.364 63.866ZM268.932 65H267.77V58.56H266.398V57.58H267.77V56.544C267.77 55.214 268.512 54.5 269.884 54.5H271.536V55.48H269.884C269.268 55.48 268.932 55.858 268.932 56.544V57.58H271.34V58.56H268.932V65ZM275.634 65.154C273.254 65.154 271.994 63.46 271.994 61.22C271.994 58.742 273.618 57.412 275.634 57.412C278 57.412 279.274 59.12 279.274 61.22C279.274 63.782 277.72 65.154 275.634 65.154ZM275.634 64.146C277.216 64.146 278.084 62.83 278.084 61.22C278.084 59.554 277.118 58.42 275.634 58.42C274.15 58.42 273.184 59.554 273.184 61.22C273.184 63.124 274.29 64.146 275.634 64.146ZM281.956 65H280.794V57.58H281.718L281.858 58.994C282.334 58.042 283.202 57.538 284.434 57.538H284.686V58.686H284.434C282.866 58.686 281.956 59.582 281.956 61.108V65ZM292.801 65H291.583L288.489 57.58H289.749L292.199 63.642L294.635 57.58H295.895L292.801 65ZM300.134 65.154C297.936 65.154 296.48 63.544 296.48 61.318C296.48 58.784 298.118 57.412 299.994 57.412C302.038 57.412 303.354 58.784 303.396 61.164V61.486H297.642C297.712 63.068 298.636 64.146 300.134 64.146C301.17 64.146 301.926 63.628 302.234 62.662H303.368C303.032 64.188 301.828 65.154 300.134 65.154ZM297.712 60.52H302.178C301.968 59.218 301.184 58.42 299.994 58.42C298.818 58.42 297.95 59.19 297.712 60.52ZM305.513 56.334C305.023 56.334 304.645 55.956 304.645 55.466C304.645 54.976 305.023 54.612 305.513 54.612C306.003 54.612 306.367 54.976 306.367 55.466C306.367 55.956 306.003 56.334 305.513 56.334ZM306.087 65H304.925V57.58H306.087V65ZM311.263 65.154C309.065 65.154 307.609 63.544 307.609 61.318C307.609 58.784 309.247 57.412 311.123 57.412C313.167 57.412 314.483 58.784 314.525 61.164V61.486H308.771C308.841 63.068 309.765 64.146 311.263 64.146C312.299 64.146 313.055 63.628 313.363 62.662H314.497C314.161 64.188 312.957 65.154 311.263 65.154ZM308.841 60.52H313.307C313.097 59.218 312.313 58.42 311.123 58.42C309.947 58.42 309.079 59.19 308.841 60.52ZM317.216 65H316.054V57.58H316.978L317.09 58.714C317.594 57.93 318.56 57.412 319.666 57.412C321.262 57.412 322.326 58.448 322.326 60.086V65H321.164V60.128C321.164 59.092 320.492 58.434 319.372 58.434C318.042 58.434 317.23 59.358 317.216 60.492V65ZM56.592 90H55.374L52.28 82.58H53.54L55.99 88.642L58.426 82.58H59.686L56.592 90ZM61.5107 81.334C61.0207 81.334 60.6427 80.956 60.6427 80.466C60.6427 79.976 61.0207 79.612 61.5107 79.612C62.0007 79.612 62.3647 79.976 62.3647 80.466C62.3647 80.956 62.0007 81.334 61.5107 81.334ZM62.0847 90H60.9227V82.58H62.0847V90ZM66.9812 90.154C64.9932 90.154 63.6072 88.558 63.6072 86.248C63.6072 83.98 64.9792 82.412 66.9672 82.412C68.0872 82.412 69.0252 82.902 69.5572 83.686V79.5H70.7192V90H69.7952L69.6692 88.572C69.1792 89.538 68.1992 90.154 66.9812 90.154ZM67.1632 89.146C68.5772 89.146 69.5572 87.942 69.5572 86.22C69.5572 84.554 68.6052 83.406 67.2332 83.406C65.8052 83.406 64.8112 84.568 64.8112 86.248C64.8112 87.956 65.7772 89.146 67.1632 89.146ZM75.9428 90.154C73.7448 90.154 72.2888 88.544 72.2888 86.318C72.2888 83.784 73.9268 82.412 75.8028 82.412C77.8468 82.412 79.1628 83.784 79.2048 86.164V86.486H73.4508C73.5208 88.068 74.4448 89.146 75.9428 89.146C76.9788 89.146 77.7348 88.628 78.0428 87.662H79.1768C78.8408 89.188 77.6368 90.154 75.9428 90.154ZM73.5208 85.52H77.9868C77.7768 84.218 76.9928 83.42 75.8028 83.42C74.6268 83.42 73.7588 84.19 73.5208 85.52ZM81.8953 90H80.7333V82.58H81.6573L81.7973 83.994C82.2733 83.042 83.1413 82.538 84.3733 82.538H84.6253V83.686H84.3733C82.8053 83.686 81.8953 84.582 81.8953 86.108V90ZM88.8901 90.154C86.6921 90.154 85.2361 88.544 85.2361 86.318C85.2361 83.784 86.8741 82.412 88.7501 82.412C90.7941 82.412 92.1101 83.784 92.1521 86.164V86.486H86.3981C86.4681 88.068 87.3921 89.146 88.8901 89.146C89.9261 89.146 90.6821 88.628 90.9901 87.662H92.1241C91.7881 89.188 90.5841 90.154 88.8901 90.154ZM86.4681 85.52H90.9341C90.7241 84.218 89.9401 83.42 88.7501 83.42C87.5741 83.42 86.7061 84.19 86.4681 85.52ZM94.3105 90.14C93.8065 90.14 93.4285 89.762 93.4285 89.258C93.4285 88.768 93.8065 88.39 94.3105 88.39C94.8145 88.39 95.1925 88.768 95.1925 89.258C95.1925 89.762 94.8145 90.14 94.3105 90.14Z" fill="#481125"/>
<rect x="24.5" y="123.5" width="313" height="62.0322" rx="12.7123" fill="#FDF9F9"/>
<rect x="24.5" y="123.5" width="313" height="62.0322" rx="12.7123" stroke="#691837"/>
<path d="M49.5 142.516C49.5 138.098 53.0817 134.516 57.5 134.516H116.5C120.918 134.516 124.5 138.098 124.5 142.516V166.516C124.5 170.934 120.918 174.516 116.5 174.516H57.5C53.0817 174.516 49.5 170.934 49.5 166.516V142.516Z" fill="#F9EAED"/>
<path d="M71.612 160.016H70.172L65.82 148.816H67.26L70.892 158.16L74.412 148.816H75.836L71.612 160.016ZM79.2928 160.144C77.3728 160.144 76.1408 159.152 76.1408 157.6C76.1408 155.648 78.0288 155.28 79.7248 155.104C81.0208 154.976 82.1408 154.992 82.1568 154.304C82.1408 153.232 81.2608 152.48 79.9808 152.48C78.7488 152.48 77.7888 153.168 77.6448 154.176H76.3328C76.4928 152.512 77.9968 151.344 80.0128 151.344C82.1088 151.344 83.4528 152.592 83.4528 154.384V158.512C83.4528 158.784 83.5968 158.928 83.8848 158.928H84.3648V160.016H83.6128C82.7008 160.016 82.2208 159.6 82.2208 158.816V158.56C81.7248 159.536 80.7648 160.144 79.2928 160.144ZM79.4848 159.008C81.0688 159.008 82.1568 158 82.1568 156.592V155.488C81.7888 155.984 80.8448 156.08 79.8048 156.192C78.6368 156.32 77.4688 156.48 77.4688 157.568C77.4688 158.448 78.2688 159.008 79.4848 159.008ZM87.2296 160.016H85.9016V148.016H87.2296V160.016ZM93.1434 163.408C90.8554 163.408 89.3034 162.304 89.3034 160.512H90.6314C90.6314 161.52 91.6554 162.288 93.1434 162.288C94.8874 162.288 95.7994 161.248 95.7994 159.792V158.416C95.2074 159.296 94.1834 159.872 92.8874 159.872C90.6314 159.872 89.0154 158.144 89.0154 155.648C89.0154 153.104 90.6474 151.344 92.8874 151.344C94.2474 151.344 95.3514 151.984 95.9274 153.008L96.0714 151.536H97.1114V159.792C97.1114 161.936 95.6714 163.408 93.1434 163.408ZM93.0794 158.72C94.6794 158.72 95.7994 157.44 95.7994 155.6C95.7994 153.776 94.6794 152.496 93.0794 152.496C91.4954 152.496 90.3914 153.776 90.3914 155.632C90.3914 157.456 91.4954 158.72 93.0794 158.72ZM106.373 160.016H105.029V151.296C104.501 152 103.637 152.352 102.469 152.352H102.277V151.04H102.469C104.149 151.04 105.045 150.32 105.045 148.976V148.816H106.373V160.016Z" fill="#3A0710"/>
<path d="M140.5 142.516C140.5 138.098 144.082 134.516 148.5 134.516H210.5C214.918 134.516 218.5 138.098 218.5 142.516V166.516C218.5 170.934 214.918 174.516 210.5 174.516H148.5C144.082 174.516 140.5 170.934 140.5 166.516V142.516Z" fill="#F9EAED"/>
<path d="M162.612 160.016H161.172L156.82 148.816H158.26L161.892 158.16L165.412 148.816H166.836L162.612 160.016ZM170.293 160.144C168.373 160.144 167.141 159.152 167.141 157.6C167.141 155.648 169.029 155.28 170.725 155.104C172.021 154.976 173.141 154.992 173.157 154.304C173.141 153.232 172.261 152.48 170.981 152.48C169.749 152.48 168.789 153.168 168.645 154.176H167.333C167.493 152.512 168.997 151.344 171.013 151.344C173.109 151.344 174.453 152.592 174.453 154.384V158.512C174.453 158.784 174.597 158.928 174.885 158.928H175.365V160.016H174.613C173.701 160.016 173.221 159.6 173.221 158.816V158.56C172.725 159.536 171.765 160.144 170.293 160.144ZM170.485 159.008C172.069 159.008 173.157 158 173.157 156.592V155.488C172.789 155.984 171.845 156.08 170.805 156.192C169.637 156.32 168.469 156.48 168.469 157.568C168.469 158.448 169.269 159.008 170.485 159.008ZM178.23 160.016H176.902V148.016H178.23V160.016ZM184.143 163.408C181.855 163.408 180.303 162.304 180.303 160.512H181.631C181.631 161.52 182.655 162.288 184.143 162.288C185.887 162.288 186.799 161.248 186.799 159.792V158.416C186.207 159.296 185.183 159.872 183.887 159.872C181.631 159.872 180.015 158.144 180.015 155.648C180.015 153.104 181.647 151.344 183.887 151.344C185.247 151.344 186.351 151.984 186.927 153.008L187.071 151.536H188.111V159.792C188.111 161.936 186.671 163.408 184.143 163.408ZM184.079 158.72C185.679 158.72 186.799 157.44 186.799 155.6C186.799 153.776 185.679 152.496 184.079 152.496C182.495 152.496 181.391 153.776 181.391 155.632C181.391 157.456 182.495 158.72 184.079 158.72ZM201.133 151.856C201.133 155.696 195.261 155.536 195.261 158.784H200.973V160.016H193.837V158.96C193.837 154.848 199.741 154.896 199.741 151.856C199.741 150.672 198.909 149.872 197.565 149.872C196.157 149.872 195.037 150.752 195.005 152.56H193.597C193.725 150 195.405 148.64 197.581 148.64C199.725 148.64 201.133 149.936 201.133 151.856Z" fill="#3A0710"/>
<path d="M234.5 142.516C234.5 138.098 238.082 134.516 242.5 134.516H304.5C308.918 134.516 312.5 138.098 312.5 142.516V166.516C312.5 170.934 308.918 174.516 304.5 174.516H242.5C238.082 174.516 234.5 170.934 234.5 166.516V142.516Z" fill="#F9EAED"/>
<path d="M256.612 160.016H255.172L250.82 148.816H252.26L255.892 158.16L259.412 148.816H260.836L256.612 160.016ZM264.293 160.144C262.373 160.144 261.141 159.152 261.141 157.6C261.141 155.648 263.029 155.28 264.725 155.104C266.021 154.976 267.141 154.992 267.157 154.304C267.141 153.232 266.261 152.48 264.981 152.48C263.749 152.48 262.789 153.168 262.645 154.176H261.333C261.493 152.512 262.997 151.344 265.013 151.344C267.109 151.344 268.453 152.592 268.453 154.384V158.512C268.453 158.784 268.597 158.928 268.885 158.928H269.365V160.016H268.613C267.701 160.016 267.221 159.6 267.221 158.816V158.56C266.725 159.536 265.765 160.144 264.293 160.144ZM264.485 159.008C266.069 159.008 267.157 158 267.157 156.592V155.488C266.789 155.984 265.845 156.08 264.805 156.192C263.637 156.32 262.469 156.48 262.469 157.568C262.469 158.448 263.269 159.008 264.485 159.008ZM272.23 160.016H270.902V148.016H272.23V160.016ZM278.143 163.408C275.855 163.408 274.303 162.304 274.303 160.512H275.631C275.631 161.52 276.655 162.288 278.143 162.288C279.887 162.288 280.799 161.248 280.799 159.792V158.416C280.207 159.296 279.183 159.872 277.887 159.872C275.631 159.872 274.015 158.144 274.015 155.648C274.015 153.104 275.647 151.344 277.887 151.344C279.247 151.344 280.351 151.984 280.927 153.008L281.071 151.536H282.111V159.792C282.111 161.936 280.671 163.408 278.143 163.408ZM278.079 158.72C279.679 158.72 280.799 157.44 280.799 155.6C280.799 153.776 279.679 152.496 278.079 152.496C276.495 152.496 275.391 153.776 275.391 155.632C275.391 157.456 276.495 158.72 278.079 158.72ZM291.821 160.192C289.293 160.192 287.581 158.736 287.437 156.448H288.829C288.925 157.984 290.093 158.96 291.837 158.96C293.437 158.96 294.477 158.112 294.477 156.832C294.477 155.584 293.485 154.816 291.789 154.816H290.285V153.712H291.789C293.117 153.712 294.045 152.944 294.045 151.808C294.045 150.688 293.133 149.872 291.773 149.872C290.381 149.872 289.341 150.752 289.133 152.128H287.741C288.029 150 289.629 148.64 291.853 148.64C293.933 148.64 295.389 149.84 295.389 151.536C295.389 152.832 294.541 153.824 293.293 154.16C294.893 154.528 295.805 155.536 295.805 156.976C295.805 158.88 294.221 160.192 291.821 160.192Z" fill="#3A0710"/>
<rect x="382.5" y="24" width="20" height="20" rx="10" fill="#03834E"/>
<path d="M390.25 38.9167H389.917C389.5 38.8333 389.167 38.5833 389 38.25L387 35.3333C386.833 35.0833 386.833 34.6667 387.167 34.5C387.25 34.4167 387.417 34.4167 387.5 34.4167C387.667 34.4167 387.917 34.5 388 34.6667L390.083 37.5833C390.167 37.6667 390.167 37.6667 390.25 37.6667H390.333C390.417 37.6667 390.417 37.6667 390.5 37.5833C390.5 37.5833 390.583 37.5833 390.583 37.5L397.167 29.25C397.25 29.0833 397.5 29 397.667 29C397.833 29 397.917 29.0833 398.083 29.1667C398.25 29.25 398.333 29.4167 398.333 29.5833C398.333 29.75 398.333 29.9167 398.167 30.0833L391.667 38.3333L391.333 38.6667C390.833 38.8333 390.583 38.9167 390.25 38.9167Z" fill="#FDF9F9"/>
<path d="M415.848 40H414.588L410.78 30.2H412.04L415.218 38.376L418.298 30.2H419.544L415.848 40ZM423.205 40.154C421.007 40.154 419.551 38.544 419.551 36.318C419.551 33.784 421.189 32.412 423.065 32.412C425.109 32.412 426.425 33.784 426.467 36.164V36.486H420.713C420.783 38.068 421.707 39.146 423.205 39.146C424.241 39.146 424.997 38.628 425.305 37.662H426.439C426.103 39.188 424.899 40.154 423.205 40.154ZM420.783 35.52H425.249C425.039 34.218 424.255 33.42 423.065 33.42C421.889 33.42 421.021 34.19 420.783 35.52ZM429.199 40H428.037V29.5H429.199V36.234L432.811 32.58H434.211L431.537 35.282L434.617 40H433.259L430.739 36.094L429.199 37.648V40ZM439.461 40H438.635C437.193 40 436.423 39.258 436.423 37.886V33.56H435.051V32.58H436.423V30.046H437.585V32.58H439.587V33.56H437.585V37.886C437.585 38.628 437.949 39.02 438.635 39.02H439.461V40ZM442.16 40H440.998V29.5H442.16V40ZM447.376 40.154C445.178 40.154 443.722 38.544 443.722 36.318C443.722 33.784 445.36 32.412 447.236 32.412C449.28 32.412 450.596 33.784 450.638 36.164V36.486H444.884C444.954 38.068 445.878 39.146 447.376 39.146C448.412 39.146 449.168 38.628 449.476 37.662H450.61C450.274 39.188 449.07 40.154 447.376 40.154ZM444.954 35.52H449.42C449.21 34.218 448.426 33.42 447.236 33.42C446.06 33.42 445.192 34.19 444.954 35.52ZM455.401 42.968C453.399 42.968 452.041 42.002 452.041 40.434H453.203C453.203 41.316 454.099 41.988 455.401 41.988C456.927 41.988 457.725 41.078 457.725 39.804V38.6C457.207 39.37 456.311 39.874 455.177 39.874C453.203 39.874 451.789 38.362 451.789 36.178C451.789 33.952 453.217 32.412 455.177 32.412C456.367 32.412 457.333 32.972 457.837 33.868L457.963 32.58H458.873V39.804C458.873 41.68 457.613 42.968 455.401 42.968ZM455.345 38.866C456.745 38.866 457.725 37.746 457.725 36.136C457.725 34.54 456.745 33.42 455.345 33.42C453.959 33.42 452.993 34.54 452.993 36.164C452.993 37.76 453.959 38.866 455.345 38.866ZM464.014 42.968C462.012 42.968 460.654 42.002 460.654 40.434H461.816C461.816 41.316 462.712 41.988 464.014 41.988C465.54 41.988 466.338 41.078 466.338 39.804V38.6C465.82 39.37 464.924 39.874 463.79 39.874C461.816 39.874 460.402 38.362 460.402 36.178C460.402 33.952 461.83 32.412 463.79 32.412C464.98 32.412 465.946 32.972 466.45 33.868L466.576 32.58H467.486V39.804C467.486 41.68 466.226 42.968 464.014 42.968ZM463.958 38.866C465.358 38.866 466.338 37.746 466.338 36.136C466.338 34.54 465.358 33.42 463.958 33.42C462.572 33.42 461.606 34.54 461.606 36.164C461.606 37.76 462.572 38.866 463.958 38.866ZM476.178 40H474.96L471.866 32.58H473.126L475.576 38.642L478.012 32.58H479.272L476.178 40ZM481.097 31.334C480.607 31.334 480.229 30.956 480.229 30.466C480.229 29.976 480.607 29.612 481.097 29.612C481.587 29.612 481.951 29.976 481.951 30.466C481.951 30.956 481.587 31.334 481.097 31.334ZM481.671 40H480.509V32.58H481.671V40ZM484.775 40H483.613V29.5H484.775V36.234L488.387 32.58H489.787L487.113 35.282L490.193 40H488.835L486.315 36.094L484.775 37.648V40ZM495.037 40H494.211C492.769 40 491.999 39.258 491.999 37.886V33.56H490.627V32.58H491.999V30.046H493.161V32.58H495.163V33.56H493.161V37.886C493.161 38.628 493.525 39.02 494.211 39.02H495.037V40ZM497.12 31.334C496.63 31.334 496.252 30.956 496.252 30.466C496.252 29.976 496.63 29.612 497.12 29.612C497.61 29.612 497.974 29.976 497.974 30.466C497.974 30.956 497.61 31.334 497.12 31.334ZM497.694 40H496.532V32.58H497.694V40ZM502.829 42.968C500.827 42.968 499.469 42.002 499.469 40.434H500.631C500.631 41.316 501.527 41.988 502.829 41.988C504.355 41.988 505.153 41.078 505.153 39.804V38.6C504.635 39.37 503.739 39.874 502.605 39.874C500.631 39.874 499.217 38.362 499.217 36.178C499.217 33.952 500.645 32.412 502.605 32.412C503.795 32.412 504.761 32.972 505.265 33.868L505.391 32.58H506.301V39.804C506.301 41.68 505.041 42.968 502.829 42.968ZM502.773 38.866C504.173 38.866 505.153 37.746 505.153 36.136C505.153 34.54 504.173 33.42 502.773 33.42C501.387 33.42 500.421 34.54 500.421 36.164C500.421 37.76 501.387 38.866 502.773 38.866ZM509.412 40H508.25V29.5H509.412V33.532C509.944 32.86 510.854 32.412 511.862 32.412C513.458 32.412 514.522 33.448 514.522 35.086V40H513.36V35.128C513.36 34.092 512.688 33.434 511.638 33.434C510.238 33.434 509.426 34.358 509.412 35.492V40ZM519.619 40.154C517.421 40.154 515.965 38.544 515.965 36.318C515.965 33.784 517.603 32.412 519.479 32.412C521.523 32.412 522.839 33.784 522.881 36.164V36.486H517.127C517.197 38.068 518.121 39.146 519.619 39.146C520.655 39.146 521.411 38.628 521.719 37.662H522.853C522.517 39.188 521.313 40.154 519.619 40.154ZM517.197 35.52H521.663C521.453 34.218 520.669 33.42 519.479 33.42C518.303 33.42 517.435 34.19 517.197 35.52ZM528.082 40H527.256C525.814 40 525.044 39.258 525.044 37.886V33.56H523.672V32.58H525.044V30.046H526.206V32.58H528.208V33.56H526.206V37.886C526.206 38.628 526.57 39.02 527.256 39.02H528.082V40ZM532.675 40.154C530.477 40.154 529.021 38.544 529.021 36.318C529.021 33.784 530.659 32.412 532.535 32.412C534.579 32.412 535.895 33.784 535.937 36.164V36.486H530.183C530.253 38.068 531.177 39.146 532.675 39.146C533.711 39.146 534.467 38.628 534.775 37.662H535.909C535.573 39.188 534.369 40.154 532.675 40.154ZM530.253 35.52H534.719C534.509 34.218 533.725 33.42 532.535 33.42C531.359 33.42 530.491 34.19 530.253 35.52ZM538.628 40H537.466V32.58H538.39L538.502 33.714C539.006 32.93 539.972 32.412 541.078 32.412C542.674 32.412 543.738 33.448 543.738 35.086V40H542.576V35.128C542.576 34.092 541.904 33.434 540.784 33.434C539.454 33.434 538.642 34.358 538.628 35.492V40ZM549.894 42.8H548.732V32.58H549.656L549.782 33.924C550.314 33 551.294 32.412 552.498 32.412C554.458 32.412 555.83 33.98 555.83 36.248C555.83 38.558 554.458 40.154 552.498 40.154C551.364 40.154 550.426 39.636 549.894 38.768V42.8ZM552.316 39.146C553.688 39.146 554.626 37.956 554.626 36.248C554.626 34.582 553.688 33.42 552.302 33.42C550.902 33.42 549.894 34.554 549.894 36.192C549.894 37.928 550.902 39.146 552.316 39.146ZM560.298 31.782C559.5 31.782 558.898 31.208 558.898 30.452C558.898 29.696 559.5 29.122 560.298 29.122C561.096 29.122 561.698 29.696 561.698 30.452C561.698 31.208 561.096 31.782 560.298 31.782ZM560.298 31.082C560.662 31.082 560.928 30.816 560.928 30.452C560.928 30.088 560.662 29.822 560.298 29.822C559.934 29.822 559.668 30.088 559.668 30.452C559.668 30.816 559.934 31.082 560.298 31.082ZM559.752 40.112C558.072 40.112 556.994 39.244 556.994 37.886C556.994 36.178 558.646 35.856 560.13 35.702C561.264 35.59 562.244 35.604 562.258 35.002C562.244 34.064 561.474 33.406 560.354 33.406C559.276 33.406 558.436 34.008 558.31 34.89H557.162C557.302 33.434 558.618 32.412 560.382 32.412C562.216 32.412 563.392 33.504 563.392 35.072V38.684C563.392 38.922 563.518 39.048 563.77 39.048H564.19V40H563.532C562.734 40 562.314 39.636 562.314 38.95V38.726C561.88 39.58 561.04 40.112 559.752 40.112ZM559.92 39.118C561.306 39.118 562.258 38.236 562.258 37.004V36.038C561.936 36.472 561.11 36.556 560.2 36.654C559.178 36.766 558.156 36.906 558.156 37.858C558.156 38.628 558.856 39.118 559.92 39.118ZM569.842 40H568.68V29.5H569.842V36.234L573.454 32.58H574.854L572.18 35.282L575.26 40H573.902L571.382 36.094L569.842 37.648V40ZM577.401 40H576.239V32.58H577.163L577.275 33.714C577.779 32.93 578.745 32.412 579.851 32.412C581.447 32.412 582.511 33.448 582.511 35.086V40H581.349V35.128C581.349 34.092 580.677 33.434 579.557 33.434C578.227 33.434 577.415 34.358 577.401 35.492V40ZM586.727 40.112C585.047 40.112 583.969 39.244 583.969 37.886C583.969 36.178 585.621 35.856 587.105 35.702C588.239 35.59 589.219 35.604 589.233 35.002C589.219 34.064 588.449 33.406 587.329 33.406C586.251 33.406 585.411 34.008 585.285 34.89H584.137C584.277 33.434 585.593 32.412 587.357 32.412C589.191 32.412 590.367 33.504 590.367 35.072V38.684C590.367 38.922 590.493 39.048 590.745 39.048H591.165V40H590.507C589.709 40 589.289 39.636 589.289 38.95V38.726C588.855 39.58 588.015 40.112 586.727 40.112ZM586.895 39.118C588.281 39.118 589.233 38.236 589.233 37.004V36.038C588.911 36.472 588.085 36.556 587.175 36.654C586.153 36.766 585.131 36.906 585.131 37.858C585.131 38.628 585.831 39.118 586.895 39.118ZM593.658 42.8H592.496V32.58H593.42L593.546 33.924C594.078 33 595.058 32.412 596.262 32.412C598.222 32.412 599.594 33.98 599.594 36.248C599.594 38.558 598.222 40.154 596.262 40.154C595.128 40.154 594.19 39.636 593.658 38.768V42.8ZM596.08 39.146C597.452 39.146 598.39 37.956 598.39 36.248C598.39 34.582 597.452 33.42 596.066 33.42C594.666 33.42 593.658 34.554 593.658 36.192C593.658 37.928 594.666 39.146 596.08 39.146ZM602.312 42.8H601.15V32.58H602.074L602.2 33.924C602.732 33 603.712 32.412 604.916 32.412C606.876 32.412 608.248 33.98 608.248 36.248C608.248 38.558 606.876 40.154 604.916 40.154C603.782 40.154 602.844 39.636 602.312 38.768V42.8ZM604.734 39.146C606.106 39.146 607.044 37.956 607.044 36.248C607.044 34.582 606.106 33.42 604.72 33.42C603.32 33.42 602.312 34.554 602.312 36.192C602.312 37.928 603.32 39.146 604.734 39.146ZM613.052 40.154C610.854 40.154 609.398 38.544 609.398 36.318C609.398 33.784 611.036 32.412 612.912 32.412C614.956 32.412 616.272 33.784 616.314 36.164V36.486H610.56C610.63 38.068 611.554 39.146 613.052 39.146C614.088 39.146 614.844 38.628 615.152 37.662H616.286C615.95 39.188 614.746 40.154 613.052 40.154ZM610.63 35.52H615.096C614.886 34.218 614.102 33.42 612.912 33.42C611.736 33.42 610.868 34.19 610.63 35.52ZM619.005 40H617.843V32.58H618.767L618.879 33.714C619.383 32.93 620.349 32.412 621.455 32.412C623.051 32.412 624.115 33.448 624.115 35.086V40H622.953V35.128C622.953 34.092 622.281 33.434 621.161 33.434C619.831 33.434 619.019 34.358 619.005 35.492V40ZM629.212 40.154C627.014 40.154 625.558 38.544 625.558 36.318C625.558 33.784 627.196 32.412 629.072 32.412C631.116 32.412 632.432 33.784 632.474 36.164V36.486H626.72C626.79 38.068 627.714 39.146 629.212 39.146C630.248 39.146 631.004 38.628 631.312 37.662H632.446C632.11 39.188 630.906 40.154 629.212 40.154ZM626.79 35.52H631.256C631.046 34.218 630.262 33.42 629.072 33.42C627.896 33.42 627.028 34.19 626.79 35.52ZM640.787 40H639.569L636.475 32.58H637.735L640.185 38.642L642.621 32.58H643.881L640.787 40ZM645.706 31.334C645.216 31.334 644.838 30.956 644.838 30.466C644.838 29.976 645.216 29.612 645.706 29.612C646.196 29.612 646.56 29.976 646.56 30.466C646.56 30.956 646.196 31.334 645.706 31.334ZM646.28 40H645.118V32.58H646.28V40ZM650.953 40.154C649.189 40.154 647.887 39.23 647.789 37.662H648.923C649.007 38.628 649.889 39.16 651.009 39.16C652.059 39.16 652.563 38.754 652.563 38.012C652.563 37.312 652.017 37.158 651.247 36.892L650.169 36.528C649.077 36.164 647.985 35.828 647.985 34.484C647.985 33.224 648.965 32.412 650.589 32.412C652.227 32.412 653.361 33.294 653.543 34.946H652.409C652.283 33.91 651.555 33.406 650.547 33.406C649.637 33.406 649.105 33.812 649.105 34.456C649.105 35.226 649.917 35.38 650.533 35.59L651.541 35.926C652.899 36.374 653.711 36.836 653.711 38.068C653.711 39.37 652.759 40.154 650.953 40.154ZM657.842 40.154C656.035 40.154 655 39.048 655 37.536V32.58H656.162V37.494C656.162 38.558 656.904 39.132 657.954 39.132C659.34 39.132 660.096 38.208 660.11 37.088V32.58H661.272V40H660.348L660.25 38.88C659.76 39.72 658.864 40.154 657.842 40.154ZM666.455 40.154C664.257 40.154 662.801 38.544 662.801 36.318C662.801 33.784 664.439 32.412 666.315 32.412C668.359 32.412 669.675 33.784 669.717 36.164V36.486H663.963C664.033 38.068 664.957 39.146 666.455 39.146C667.491 39.146 668.247 38.628 668.555 37.662H669.689C669.353 39.188 668.149 40.154 666.455 40.154ZM664.033 35.52H668.499C668.289 34.218 667.505 33.42 666.315 33.42C665.139 33.42 664.271 34.19 664.033 35.52ZM672.449 40H671.287V29.5H672.449V40ZM678.254 40H677.428C675.986 40 675.216 39.258 675.216 37.886V33.56H673.844V32.58H675.216V30.046H676.378V32.58H678.38V33.56H676.378V37.886C676.378 38.628 676.742 39.02 677.428 39.02H678.254V40ZM684.881 40H683.719V33.56H682.347V32.58H683.719V31.544C683.719 30.214 684.461 29.5 685.833 29.5H687.485V30.48H685.833C685.217 30.48 684.881 30.858 684.881 31.544V32.58H687.289V33.56H684.881V40ZM691.583 40.154C689.203 40.154 687.943 38.46 687.943 36.22C687.943 33.742 689.567 32.412 691.583 32.412C693.949 32.412 695.223 34.12 695.223 36.22C695.223 38.782 693.669 40.154 691.583 40.154ZM691.583 39.146C693.165 39.146 694.033 37.83 694.033 36.22C694.033 34.554 693.067 33.42 691.583 33.42C690.099 33.42 689.133 34.554 689.133 36.22C689.133 38.124 690.239 39.146 691.583 39.146ZM697.905 40H696.743V32.58H697.667L697.807 33.994C698.283 33.042 699.151 32.538 700.383 32.538H700.635V33.686H700.383C698.815 33.686 697.905 34.582 697.905 36.108V40ZM414.392 56.782C413.594 56.782 412.992 56.208 412.992 55.452C412.992 54.696 413.594 54.122 414.392 54.122C415.19 54.122 415.792 54.696 415.792 55.452C415.792 56.208 415.19 56.782 414.392 56.782ZM414.392 56.082C414.756 56.082 415.022 55.816 415.022 55.452C415.022 55.088 414.756 54.822 414.392 54.822C414.028 54.822 413.762 55.088 413.762 55.452C413.762 55.816 414.028 56.082 414.392 56.082ZM413.846 65.112C412.166 65.112 411.088 64.244 411.088 62.886C411.088 61.178 412.74 60.856 414.224 60.702C415.358 60.59 416.338 60.604 416.352 60.002C416.338 59.064 415.568 58.406 414.448 58.406C413.37 58.406 412.53 59.008 412.404 59.89H411.256C411.396 58.434 412.712 57.412 414.476 57.412C416.31 57.412 417.486 58.504 417.486 60.072V63.684C417.486 63.922 417.612 64.048 417.864 64.048H418.284V65H417.626C416.828 65 416.408 64.636 416.408 63.95V63.726C415.974 64.58 415.134 65.112 413.846 65.112ZM414.014 64.118C415.4 64.118 416.352 63.236 416.352 62.004V61.038C416.03 61.472 415.204 61.556 414.294 61.654C413.272 61.766 412.25 61.906 412.25 62.858C412.25 63.628 412.95 64.118 414.014 64.118ZM423.935 65H422.773V54.5H423.935V58.532C424.467 57.86 425.377 57.412 426.385 57.412C427.981 57.412 429.045 58.448 429.045 60.086V65H427.883V60.128C427.883 59.092 427.211 58.434 426.161 58.434C424.761 58.434 423.949 59.358 423.935 60.492V65ZM431.454 56.334C430.95 56.334 430.586 55.97 430.586 55.466C430.586 54.976 430.95 54.612 431.454 54.612C431.944 54.612 432.308 54.976 432.308 55.466C432.308 55.97 431.944 56.334 431.454 56.334ZM429.816 67.8H428.78V66.82H429.816C430.502 66.82 430.866 66.428 430.866 65.686V57.58H432.028V65.686C432.028 67.058 431.258 67.8 429.816 67.8ZM437.205 65.154C435.007 65.154 433.551 63.544 433.551 61.318C433.551 58.784 435.189 57.412 437.065 57.412C439.109 57.412 440.425 58.784 440.467 61.164V61.486H434.713C434.783 63.068 435.707 64.146 437.205 64.146C438.241 64.146 438.997 63.628 439.305 62.662H440.439C440.103 64.188 438.899 65.154 437.205 65.154ZM434.783 60.52H439.249C439.039 59.218 438.255 58.42 437.065 58.42C435.889 58.42 435.021 59.19 434.783 60.52ZM443.199 65H442.037V54.5H443.199V65ZM446.33 67.8H445.168V57.58H446.092L446.218 58.924C446.75 58 447.73 57.412 448.934 57.412C450.894 57.412 452.266 58.98 452.266 61.248C452.266 63.558 450.894 65.154 448.934 65.154C447.8 65.154 446.862 64.636 446.33 63.768V67.8ZM448.752 64.146C450.124 64.146 451.062 62.956 451.062 61.248C451.062 59.582 450.124 58.42 448.738 58.42C447.338 58.42 446.33 59.554 446.33 61.192C446.33 62.928 447.338 64.146 448.752 64.146ZM457.07 65.154C454.872 65.154 453.416 63.544 453.416 61.318C453.416 58.784 455.054 57.412 456.93 57.412C458.974 57.412 460.29 58.784 460.332 61.164V61.486H454.578C454.648 63.068 455.572 64.146 457.07 64.146C458.106 64.146 458.862 63.628 459.17 62.662H460.304C459.968 64.188 458.764 65.154 457.07 65.154ZM454.648 60.52H459.114C458.904 59.218 458.12 58.42 456.93 58.42C455.754 58.42 454.886 59.19 454.648 60.52ZM468.813 65.154C467.595 65.154 466.601 64.552 466.097 63.586L465.971 65H465.047V54.5H466.209V58.742C466.755 57.93 467.693 57.412 468.813 57.412C470.773 57.412 472.145 58.98 472.145 61.248C472.145 63.558 470.773 65.154 468.813 65.154ZM468.631 64.146C470.003 64.146 470.941 62.956 470.941 61.248C470.941 59.582 470.003 58.42 468.617 58.42C467.217 58.42 466.209 59.554 466.209 61.192C466.209 62.928 467.217 64.146 468.631 64.146ZM474.835 65H473.673V57.58H474.597L474.737 58.994C475.213 58.042 476.081 57.538 477.313 57.538H477.565V58.686H477.313C475.745 58.686 474.835 59.582 474.835 61.108V65ZM481.597 65.154C479.791 65.154 478.755 64.048 478.755 62.536V57.58H479.917V62.494C479.917 63.558 480.659 64.132 481.709 64.132C483.095 64.132 483.851 63.208 483.865 62.088V57.58H485.027V65H484.103L484.005 63.88C483.515 64.72 482.619 65.154 481.597 65.154ZM488.138 65H486.976V54.5H488.138V61.234L491.75 57.58H493.15L490.476 60.282L493.556 65H492.198L489.678 61.094L488.138 62.648V65ZM497.416 65.154C495.218 65.154 493.762 63.544 493.762 61.318C493.762 58.784 495.4 57.412 497.276 57.412C499.32 57.412 500.636 58.784 500.678 61.164V61.486H494.924C494.994 63.068 495.918 64.146 497.416 64.146C498.452 64.146 499.208 63.628 499.516 62.662H500.65C500.314 64.188 499.11 65.154 497.416 65.154ZM494.994 60.52H499.46C499.25 59.218 498.466 58.42 497.276 58.42C496.1 58.42 495.232 59.19 494.994 60.52ZM503.368 65H502.206V57.58H503.13L503.27 58.994C503.746 58.042 504.614 57.538 505.846 57.538H506.098V58.686H505.846C504.278 58.686 503.368 59.582 503.368 61.108V65ZM510.363 65.154C508.165 65.154 506.709 63.544 506.709 61.318C506.709 58.784 508.347 57.412 510.223 57.412C512.267 57.412 513.583 58.784 513.625 61.164V61.486H507.871C507.941 63.068 508.865 64.146 510.363 64.146C511.399 64.146 512.155 63.628 512.463 62.662H513.597C513.261 64.188 512.057 65.154 510.363 65.154ZM507.941 60.52H512.407C512.197 59.218 511.413 58.42 510.223 58.42C509.047 58.42 508.179 59.19 507.941 60.52ZM516.315 65H515.153V57.58H516.077L516.189 58.714C516.693 57.93 517.659 57.412 518.765 57.412C520.361 57.412 521.425 58.448 521.425 60.086V65H520.263V60.128C520.263 59.092 519.591 58.434 518.471 58.434C517.141 58.434 516.329 59.358 516.315 60.492V65ZM529.387 65.154C527.399 65.154 526.013 63.558 526.013 61.248C526.013 58.98 527.385 57.412 529.373 57.412C530.493 57.412 531.431 57.902 531.963 58.686V54.5H533.125V65H532.201L532.075 63.572C531.585 64.538 530.605 65.154 529.387 65.154ZM529.569 64.146C530.983 64.146 531.963 62.942 531.963 61.22C531.963 59.554 531.011 58.406 529.639 58.406C528.211 58.406 527.217 59.568 527.217 61.248C527.217 62.956 528.183 64.146 529.569 64.146ZM535.661 56.334C535.171 56.334 534.793 55.956 534.793 55.466C534.793 54.976 535.171 54.612 535.661 54.612C536.151 54.612 536.515 54.976 536.515 55.466C536.515 55.956 536.151 56.334 535.661 56.334ZM536.235 65H535.073V57.58H536.235V65ZM542 65H541.174C539.732 65 538.962 64.258 538.962 62.886V58.56H537.59V57.58H538.962V55.046H540.124V57.58H542.126V58.56H540.124V62.886C540.124 63.628 540.488 64.02 541.174 64.02H542V65ZM549.636 65.154C547.648 65.154 546.262 63.558 546.262 61.248C546.262 58.98 547.634 57.412 549.622 57.412C550.742 57.412 551.68 57.902 552.212 58.686V54.5H553.374V65H552.45L552.324 63.572C551.834 64.538 550.854 65.154 549.636 65.154ZM549.818 64.146C551.232 64.146 552.212 62.942 552.212 61.22C552.212 59.554 551.26 58.406 549.888 58.406C548.46 58.406 547.466 59.568 547.466 61.248C547.466 62.956 548.432 64.146 549.818 64.146ZM558.597 65.154C556.399 65.154 554.943 63.544 554.943 61.318C554.943 58.784 556.581 57.412 558.457 57.412C560.501 57.412 561.817 58.784 561.859 61.164V61.486H556.105C556.175 63.068 557.099 64.146 558.597 64.146C559.633 64.146 560.389 63.628 560.697 62.662H561.831C561.495 64.188 560.291 65.154 558.597 65.154ZM556.175 60.52H560.641C560.431 59.218 559.647 58.42 558.457 58.42C557.281 58.42 556.413 59.19 556.175 60.52ZM569.304 65.154C567.54 65.154 566.238 64.23 566.14 62.662H567.274C567.358 63.628 568.24 64.16 569.36 64.16C570.41 64.16 570.914 63.754 570.914 63.012C570.914 62.312 570.368 62.158 569.598 61.892L568.52 61.528C567.428 61.164 566.336 60.828 566.336 59.484C566.336 58.224 567.316 57.412 568.94 57.412C570.578 57.412 571.712 58.294 571.894 59.946H570.76C570.634 58.91 569.906 58.406 568.898 58.406C567.988 58.406 567.456 58.812 567.456 59.456C567.456 60.226 568.268 60.38 568.884 60.59L569.892 60.926C571.25 61.374 572.062 61.836 572.062 63.068C572.062 64.37 571.11 65.154 569.304 65.154ZM574.695 65H573.533V54.5H574.695V61.234L578.307 57.58H579.707L577.033 60.282L580.113 65H578.755L576.235 61.094L574.695 62.648V65ZM583.418 65.112C581.738 65.112 580.66 64.244 580.66 62.886C580.66 61.178 582.312 60.856 583.796 60.702C584.93 60.59 585.91 60.604 585.924 60.002C585.91 59.064 585.14 58.406 584.02 58.406C582.942 58.406 582.102 59.008 581.976 59.89H580.828C580.968 58.434 582.284 57.412 584.048 57.412C585.882 57.412 587.058 58.504 587.058 60.072V63.684C587.058 63.922 587.184 64.048 587.436 64.048H587.856V65H587.198C586.4 65 585.98 64.636 585.98 63.95V63.726C585.546 64.58 584.706 65.112 583.418 65.112ZM583.586 64.118C584.972 64.118 585.924 63.236 585.924 62.004V61.038C585.602 61.472 584.776 61.556 583.866 61.654C582.844 61.766 581.822 61.906 581.822 62.858C581.822 63.628 582.522 64.118 583.586 64.118ZM590.363 65H589.201V54.5H590.363V65ZM592.934 65.14C592.43 65.14 592.052 64.762 592.052 64.258C592.052 63.768 592.43 63.39 592.934 63.39C593.438 63.39 593.816 63.768 593.816 64.258C593.816 64.762 593.438 65.14 592.934 65.14Z" fill="#481125"/>
<rect x="383" y="123.5" width="313" height="62.0322" rx="12.7123" fill="#FDF9F9"/>
<rect x="383" y="123.5" width="313" height="62.0322" rx="12.7123" stroke="#691837"/>
<path d="M421 142.516C421 138.098 424.582 134.516 429 134.516H522C526.418 134.516 530 138.098 530 142.516V166.516C530 170.934 526.418 174.516 522 174.516H429C424.582 174.516 421 170.934 421 166.516V142.516Z" fill="#F9EAED"/>
<path d="M439.704 160.016H438.36V148.816H439.704V153.632H446.584V148.816H447.928V160.016H446.584V154.864H439.704V160.016ZM453.105 160.144C451.185 160.144 449.953 159.152 449.953 157.6C449.953 155.648 451.841 155.28 453.537 155.104C454.833 154.976 455.953 154.992 455.969 154.304C455.953 153.232 455.073 152.48 453.793 152.48C452.561 152.48 451.601 153.168 451.457 154.176H450.145C450.305 152.512 451.809 151.344 453.825 151.344C455.921 151.344 457.265 152.592 457.265 154.384V158.512C457.265 158.784 457.409 158.928 457.697 158.928H458.177V160.016H457.425C456.513 160.016 456.033 159.6 456.033 158.816V158.56C455.537 159.536 454.577 160.144 453.105 160.144ZM453.297 159.008C454.881 159.008 455.969 158 455.969 156.592V155.488C455.601 155.984 454.657 156.08 453.617 156.192C452.449 156.32 451.281 156.48 451.281 157.568C451.281 158.448 452.081 159.008 453.297 159.008ZM460.994 160.016H459.666V151.536H460.722L460.85 152.832C461.426 151.936 462.53 151.344 463.794 151.344C465.618 151.344 466.834 152.528 466.834 154.4V160.016H465.506V154.448C465.506 153.264 464.738 152.512 463.458 152.512C461.938 152.512 461.01 153.568 460.994 154.864V160.016ZM472.34 160.192C470.068 160.192 468.484 158.368 468.484 155.728C468.484 153.136 470.052 151.344 472.324 151.344C473.604 151.344 474.676 151.904 475.284 152.8V148.016H476.612V160.016H475.556L475.412 158.384C474.852 159.488 473.732 160.192 472.34 160.192ZM472.548 159.04C474.164 159.04 475.284 157.664 475.284 155.696C475.284 153.792 474.196 152.48 472.628 152.48C470.996 152.48 469.86 153.808 469.86 155.728C469.86 157.68 470.964 159.04 472.548 159.04ZM480.214 160.016H478.886V148.016H480.214V160.016ZM483.104 150.112C482.544 150.112 482.112 149.68 482.112 149.12C482.112 148.56 482.544 148.144 483.104 148.144C483.664 148.144 484.08 148.56 484.08 149.12C484.08 149.68 483.664 150.112 483.104 150.112ZM483.76 160.016H482.432V151.536H483.76V160.016ZM487.26 160.016H485.932V151.536H486.988L487.116 152.832C487.692 151.936 488.796 151.344 490.06 151.344C491.884 151.344 493.1 152.528 493.1 154.4V160.016H491.772V154.448C491.772 153.264 491.004 152.512 489.724 152.512C488.204 152.512 487.276 153.568 487.26 154.864V160.016ZM498.878 163.408C496.59 163.408 495.038 162.304 495.038 160.512H496.366C496.366 161.52 497.39 162.288 498.878 162.288C500.622 162.288 501.534 161.248 501.534 159.792V158.416C500.942 159.296 499.918 159.872 498.622 159.872C496.366 159.872 494.75 158.144 494.75 155.648C494.75 153.104 496.382 151.344 498.622 151.344C499.982 151.344 501.086 151.984 501.662 153.008L501.806 151.536H502.846V159.792C502.846 161.936 501.406 163.408 498.878 163.408ZM498.814 158.72C500.414 158.72 501.534 157.44 501.534 155.6C501.534 153.776 500.414 152.496 498.814 152.496C497.23 152.496 496.126 153.776 496.126 155.632C496.126 157.456 497.23 158.72 498.814 158.72ZM512.107 160.016H510.763V151.296C510.235 152 509.371 152.352 508.203 152.352H508.011V151.04H508.203C509.883 151.04 510.779 150.32 510.779 148.976V148.816H512.107V160.016Z" fill="#3A0710"/>
<path d="M564.704 160.016H563.36V148.816H564.704V153.632H571.584V148.816H572.928V160.016H571.584V154.864H564.704V160.016ZM578.105 160.144C576.185 160.144 574.953 159.152 574.953 157.6C574.953 155.648 576.841 155.28 578.537 155.104C579.833 154.976 580.953 154.992 580.969 154.304C580.953 153.232 580.073 152.48 578.793 152.48C577.561 152.48 576.601 153.168 576.457 154.176H575.145C575.305 152.512 576.809 151.344 578.825 151.344C580.921 151.344 582.265 152.592 582.265 154.384V158.512C582.265 158.784 582.409 158.928 582.697 158.928H583.177V160.016H582.425C581.513 160.016 581.033 159.6 581.033 158.816V158.56C580.537 159.536 579.577 160.144 578.105 160.144ZM578.297 159.008C579.881 159.008 580.969 158 580.969 156.592V155.488C580.601 155.984 579.657 156.08 578.617 156.192C577.449 156.32 576.281 156.48 576.281 157.568C576.281 158.448 577.081 159.008 578.297 159.008ZM585.994 160.016H584.666V151.536H585.722L585.85 152.832C586.426 151.936 587.53 151.344 588.794 151.344C590.618 151.344 591.834 152.528 591.834 154.4V160.016H590.506V154.448C590.506 153.264 589.738 152.512 588.458 152.512C586.938 152.512 586.01 153.568 585.994 154.864V160.016ZM597.34 160.192C595.068 160.192 593.484 158.368 593.484 155.728C593.484 153.136 595.052 151.344 597.324 151.344C598.604 151.344 599.676 151.904 600.284 152.8V148.016H601.612V160.016H600.556L600.412 158.384C599.852 159.488 598.732 160.192 597.34 160.192ZM597.548 159.04C599.164 159.04 600.284 157.664 600.284 155.696C600.284 153.792 599.196 152.48 597.628 152.48C595.996 152.48 594.86 153.808 594.86 155.728C594.86 157.68 595.964 159.04 597.548 159.04ZM605.214 160.016H603.886V148.016H605.214V160.016ZM608.104 150.112C607.544 150.112 607.112 149.68 607.112 149.12C607.112 148.56 607.544 148.144 608.104 148.144C608.664 148.144 609.08 148.56 609.08 149.12C609.08 149.68 608.664 150.112 608.104 150.112ZM608.76 160.016H607.432V151.536H608.76V160.016ZM612.26 160.016H610.932V151.536H611.988L612.116 152.832C612.692 151.936 613.796 151.344 615.06 151.344C616.884 151.344 618.1 152.528 618.1 154.4V160.016H616.772V154.448C616.772 153.264 616.004 152.512 614.724 152.512C613.204 152.512 612.276 153.568 612.26 154.864V160.016ZM623.878 163.408C621.59 163.408 620.038 162.304 620.038 160.512H621.366C621.366 161.52 622.39 162.288 623.878 162.288C625.622 162.288 626.534 161.248 626.534 159.792V158.416C625.942 159.296 624.918 159.872 623.622 159.872C621.366 159.872 619.75 158.144 619.75 155.648C619.75 153.104 621.382 151.344 623.622 151.344C624.982 151.344 626.086 151.984 626.662 153.008L626.806 151.536H627.846V159.792C627.846 161.936 626.406 163.408 623.878 163.408ZM623.814 158.72C625.414 158.72 626.534 157.44 626.534 155.6C626.534 153.776 625.414 152.496 623.814 152.496C622.23 152.496 621.126 153.776 621.126 155.632C621.126 157.456 622.23 158.72 623.814 158.72ZM640.867 151.856C640.867 155.696 634.995 155.536 634.995 158.784H640.707V160.016H633.571V158.96C633.571 154.848 639.475 154.896 639.475 151.856C639.475 150.672 638.643 149.872 637.299 149.872C635.891 149.872 634.771 150.752 634.739 152.56H633.331C633.459 150 635.139 148.64 637.315 148.64C639.459 148.64 640.867 149.936 640.867 151.856Z" fill="#3A0710"/>
<defs>
<clipPath id="clip0_581_1328">
<rect width="8" height="8" fill="white" transform="translate(30 30)"/>
</clipPath>
</defs>
</svg>
