<?xml version="1.0" encoding="UTF-8"?>
<svg viewBox="0 0 31 40" version="1.1" xmlns="http://www.w3.org/2000/svg" xmlns:xlink="http://www.w3.org/1999/xlink">
    <g id="Gyldendal-logo-tree">
        <path d="M4.01325508,31.254275 C3.41635428,31.171725 2.67731872,31.015075 1.8649338,30.7112 C1.22630536,30.47265 0.687106063,30.1964 0.25026987,29.9364 L0.177572503,29.8909 C0.124760964,29.858075 0.0843373159,29.805425 0.0683634551,29.740425 C0.0354377421,29.607825 0.116937032,29.4736 0.249943873,29.4411 C1.86786777,29.070925 4.0452028,28.396875 6.40281425,27.109225 C8.611445,25.902825 10.2707705,24.544325 11.4274085,23.443875 C10.556996,23.474425 9.20247785,23.413975 7.66279327,22.88325 C6.45529979,22.466925 5.5359878,21.900125 4.91268124,21.443825 L4.83085595,21.385 C4.78619434,21.352825 4.75196464,21.3057 4.73696877,21.248175 C4.70208707,21.1172 4.78065239,20.98265 4.91235524,20.9482 C6.087575,20.65765 8.15015902,19.983925 10.2101351,18.3352 C12.051693,16.861325 13.1115098,15.2321 13.6712469,14.20835 C13.0723901,14.227525 12.1250424,14.178775 11.0678336,13.768625 C10.4386591,13.52455 9.94151341,13.2184 9.5754186,12.950925 L9.54575286,12.930125 C9.51250115,12.906075 9.4841394,12.874875 9.46327558,12.83685 C9.38829623,12.700675 9.43849979,12.529725 9.5750926,12.4553 C11.1268391,11.5947 12.6935814,10.683725 13.6454931,9.31385 C15.269285,7.120425 15.8710757,3.065075 16.0924278,0.52715 C16.0924278,0.329875 16.2472765,0.169975 16.4379848,0.169975 C16.6290191,0.169975 16.7838678,0.329875 16.7838678,0.52715 C17.0052198,3.065075 17.6066846,7.120425 19.2308025,9.31385 C20.1827142,10.683725 21.6995789,11.5947 23.2513254,12.4553 C23.3882442,12.529725 23.4381218,12.700675 23.3631424,12.83685 C23.3422786,12.874875 23.3139169,12.906075 23.2809912,12.930125 L23.2513254,12.950925 C22.8852306,13.2184 22.3880849,13.52455 21.7589104,13.768625 C20.7013756,14.178775 19.7543539,14.227525 19.1554971,14.20835 C19.6708986,15.016625 20.6394362,16.3072 22.2531221,17.420325 C24.0232867,18.6407 25.7367278,19.07295 26.7098293,19.2439 C26.8385982,19.26535 26.9253134,19.3869 26.9037976,19.51495 C26.8930397,19.577675 26.858484,19.63065 26.8108884,19.66575 L26.7098293,19.739525 C26.1275983,20.165275 25.2852217,20.683325 24.1879153,21.070075 C22.6863723,21.5995 21.3615199,21.653125 20.5194692,21.619325 C21.5300604,22.4874 23.0201934,23.5833 25.0100801,24.49395 C26.9308553,25.37275 28.8767324,25.8284 30.1680071,26.032825 C30.296776,26.054275 30.3834913,26.175825 30.3619754,26.303875 C30.3515435,26.3666 30.3169878,26.419575 30.2693923,26.45435 L30.1680071,26.52845 C29.3940899,27.09525 28.2446239,27.8044 26.7303671,28.32115 C24.8421915,28.9653 23.183518,29.038425 22.1158773,29.000725 L22.1223973,29.064425 L27.9147148,31.472675 C28.0653255,31.536375 28.1350889,31.7096 28.0711934,31.85975 C28.0395717,31.9332 27.9818702,31.987475 27.9134108,32.016075 L27.8540793,32.04825 C27.5724178,32.19775 27.2526145,32.34985 26.8956477,32.4922 C26.5191209,32.64235 26.163784,32.75675 25.8416988,32.844825 C26.0936946,33.125625 26.3541664,33.409025 26.623114,33.693725 C27.8576653,35.000225 29.0729827,36.128625 30.2136467,37.095825 C30.3310057,37.1956 30.3450236,37.37175 30.2446165,37.4894 C30.1950649,37.5466 30.1275835,37.5791 30.0578201,37.5856 C28.8431547,37.680175 27.1808952,37.67985 25.1848146,37.2515 C23.4840874,36.88685 22.0950135,36.31745 21.0596465,35.795175 C21.2011293,36.232625 21.3872737,36.721425 21.6337275,37.241425 C21.8707274,37.74095 22.1207673,38.178725 22.3607012,38.554425 C22.4444824,38.68605 22.4053628,38.8609 22.2733339,38.944425 C22.2084605,38.9857 22.1334812,38.997075 22.0637178,38.982775 C20.6671459,38.588875 18.8154821,37.9041 16.7460521,36.575175 C14.695204,35.25795 13.2513626,33.8039 12.3160767,32.706375 C12.3454165,33.1071 12.4057259,33.570875 12.5217809,34.077875 C12.6498978,34.637525 12.8161564,35.121125 12.9811109,35.520875 C11.9111882,36.10815 10.3389039,36.821525 8.33336943,37.2515 C6.33761482,37.67985 4.6753553,37.680175 3.46068989,37.5856 C3.3906005,37.5791 3.32311909,37.5466 3.27389352,37.4894 C3.17348639,37.37175 3.18717827,37.1956 3.30486325,37.095825 C4.44552731,36.128625 5.66084472,35.000225 6.89506996,33.693725 C7.94445481,32.582875 8.86311481,31.49575 9.66408983,30.467125 L9.67745571,30.393025 C8.98373376,30.843475 8.13190318,31.32415 7.12359397,31.75445 C5.79645953,32.320275 4.57820815,32.6365 3.58848078,32.819475 C3.50958946,32.83605 3.42450421,32.82305 3.35082885,32.7769 C3.20119615,32.682 3.15653454,32.484075 3.25172571,32.334575 L4.01325508,31.254275 Z" id="logo-shape"></path>
    </g>
</svg>