<svg width="735" height="251" viewBox="0 0 735 251" fill="none" xmlns="http://www.w3.org/2000/svg">
<rect width="735" height="251" rx="16" fill="white"/>
<rect x="32" y="34.5" width="20" height="20" rx="10" fill="#CE3871"/>
<g clip-path="url(#clip0_621_2657)">
<path d="M49.5 52.5C49.3667 52.5 49.2407 52.448 49.1467 52.3533L42 45.2076L34.8533 52.3533C34.7587 52.448 34.6333 52.5 34.5 52.5C34.3667 52.5 34.2407 52.448 34.1467 52.3533C33.952 52.1587 33.952 51.8414 34.1467 51.646L41.2933 44.4997L34.1467 37.354C34.052 37.26 34 37.134 34 37.0006C34 36.8673 34.052 36.7413 34.1467 36.6473C34.2407 36.5527 34.3667 36.5007 34.5 36.5007C34.6333 36.5007 34.7593 36.5527 34.8533 36.6473L42 43.793L49.1467 36.6467C49.2413 36.552 49.3667 36.5 49.5 36.5C49.6333 36.5 49.7593 36.552 49.8533 36.6467C49.948 36.7413 50 36.8673 50 37.0006C50 37.134 49.948 37.26 49.8533 37.354L42.7067 44.5003L49.8533 51.6467C50.048 51.8414 50.048 52.1587 49.8533 52.354C49.7593 52.448 49.6333 52.5 49.5 52.5Z" fill="#FDF9F9"/>
</g>
<path d="M65.012 48.154C62.478 48.154 61.106 46.572 61.106 44.71V38.2H62.282V44.682C62.282 46.236 63.514 47.062 65.012 47.062C66.51 47.062 67.742 46.236 67.742 44.682V38.2H68.918V44.71C68.918 46.572 67.532 48.168 65.012 48.154ZM72.1355 48H70.9735V40.58H71.8975L72.0095 41.714C72.5135 40.93 73.4795 40.412 74.5855 40.412C76.1815 40.412 77.2455 41.448 77.2455 43.086V48H76.0835V43.128C76.0835 42.092 75.4115 41.434 74.2915 41.434C72.9615 41.434 72.1495 42.358 72.1355 43.492V48ZM80.2292 48H79.0672V40.58H79.9912L80.1032 41.714C80.6072 40.93 81.5732 40.412 82.6792 40.412C84.2752 40.412 85.3392 41.448 85.3392 43.086V48H84.1772V43.128C84.1772 42.092 83.5052 41.434 82.3852 41.434C81.0552 41.434 80.2432 42.358 80.2292 43.492V48ZM90.395 50.968C88.393 50.968 87.035 50.002 87.035 48.434H88.197C88.197 49.316 89.093 49.988 90.395 49.988C91.921 49.988 92.719 49.078 92.719 47.804V46.6C92.201 47.37 91.305 47.874 90.171 47.874C88.197 47.874 86.783 46.362 86.783 44.178C86.783 41.952 88.211 40.412 90.171 40.412C91.361 40.412 92.327 40.972 92.831 41.868L92.957 40.58H93.867V47.804C93.867 49.68 92.607 50.968 90.395 50.968ZM90.339 46.866C91.739 46.866 92.719 45.746 92.719 44.136C92.719 42.54 91.739 41.42 90.339 41.42C88.953 41.42 87.987 42.54 87.987 44.164C87.987 45.76 88.953 46.866 90.339 46.866ZM98.7143 39.782C97.9163 39.782 97.3143 39.208 97.3143 38.452C97.3143 37.696 97.9163 37.122 98.7143 37.122C99.5123 37.122 100.114 37.696 100.114 38.452C100.114 39.208 99.5123 39.782 98.7143 39.782ZM98.7143 39.082C99.0783 39.082 99.3443 38.816 99.3443 38.452C99.3443 38.088 99.0783 37.822 98.7143 37.822C98.3503 37.822 98.0843 38.088 98.0843 38.452C98.0843 38.816 98.3503 39.082 98.7143 39.082ZM98.1683 48.112C96.4883 48.112 95.4103 47.244 95.4103 45.886C95.4103 44.178 97.0623 43.856 98.5463 43.702C99.6803 43.59 100.66 43.604 100.674 43.002C100.66 42.064 99.8903 41.406 98.7703 41.406C97.6923 41.406 96.8523 42.008 96.7263 42.89H95.5783C95.7183 41.434 97.0343 40.412 98.7983 40.412C100.632 40.412 101.808 41.504 101.808 43.072V46.684C101.808 46.922 101.934 47.048 102.186 47.048H102.606V48H101.948C101.15 48 100.73 47.636 100.73 46.95V46.726C100.296 47.58 99.4563 48.112 98.1683 48.112ZM98.3363 47.118C99.7223 47.118 100.674 46.236 100.674 45.004V44.038C100.352 44.472 99.5263 44.556 98.6163 44.654C97.5943 44.766 96.5723 44.906 96.5723 45.858C96.5723 46.628 97.2723 47.118 98.3363 47.118ZM108.258 48H107.096V37.5H108.258V48ZM112.592 48.112C110.912 48.112 109.834 47.244 109.834 45.886C109.834 44.178 111.486 43.856 112.97 43.702C114.104 43.59 115.084 43.604 115.098 43.002C115.084 42.064 114.314 41.406 113.194 41.406C112.116 41.406 111.276 42.008 111.15 42.89H110.002C110.142 41.434 111.458 40.412 113.222 40.412C115.056 40.412 116.232 41.504 116.232 43.072V46.684C116.232 46.922 116.358 47.048 116.61 47.048H117.03V48H116.372C115.574 48 115.154 47.636 115.154 46.95V46.726C114.72 47.58 113.88 48.112 112.592 48.112ZM112.76 47.118C114.146 47.118 115.098 46.236 115.098 45.004V44.038C114.776 44.472 113.95 44.556 113.04 44.654C112.018 44.766 110.996 44.906 110.996 45.858C110.996 46.628 111.696 47.118 112.76 47.118ZM119.495 48H118.333V40.58H119.257L119.369 41.714C119.873 40.93 120.839 40.412 121.945 40.412C123.541 40.412 124.605 41.448 124.605 43.086V48H123.443V43.128C123.443 42.092 122.771 41.434 121.651 41.434C120.321 41.434 119.509 42.358 119.495 43.492V48ZM129.661 50.968C127.659 50.968 126.301 50.002 126.301 48.434H127.463C127.463 49.316 128.359 49.988 129.661 49.988C131.187 49.988 131.985 49.078 131.985 47.804V46.6C131.467 47.37 130.571 47.874 129.437 47.874C127.463 47.874 126.049 46.362 126.049 44.178C126.049 41.952 127.477 40.412 129.437 40.412C130.627 40.412 131.593 40.972 132.097 41.868L132.223 40.58H133.133V47.804C133.133 49.68 131.873 50.968 129.661 50.968ZM129.605 46.866C131.005 46.866 131.985 45.746 131.985 44.136C131.985 42.54 131.005 41.42 129.605 41.42C128.219 41.42 127.253 42.54 127.253 44.164C127.253 45.76 128.219 46.866 129.605 46.866ZM138.316 48.154C136.118 48.154 134.662 46.544 134.662 44.318C134.662 41.784 136.3 40.412 138.176 40.412C140.22 40.412 141.536 41.784 141.578 44.164V44.486H135.824C135.894 46.068 136.818 47.146 138.316 47.146C139.352 47.146 140.108 46.628 140.416 45.662H141.55C141.214 47.188 140.01 48.154 138.316 48.154ZM135.894 43.52H140.36C140.15 42.218 139.366 41.42 138.176 41.42C137 41.42 136.132 42.19 135.894 43.52ZM150.115 48H149.289C147.847 48 147.077 47.258 147.077 45.886V41.56H145.705V40.58H147.077V38.046H148.239V40.58H150.241V41.56H148.239V45.886C148.239 46.628 148.603 47.02 149.289 47.02H150.115V48ZM154.708 48.154C152.51 48.154 151.054 46.544 151.054 44.318C151.054 41.784 152.692 40.412 154.568 40.412C156.612 40.412 157.928 41.784 157.97 44.164V44.486H152.216C152.286 46.068 153.21 47.146 154.708 47.146C155.744 47.146 156.5 46.628 156.808 45.662H157.942C157.606 47.188 156.402 48.154 154.708 48.154ZM152.286 43.52H156.752C156.542 42.218 155.758 41.42 154.568 41.42C153.392 41.42 152.524 42.19 152.286 43.52ZM160.703 48H159.541V37.5H160.703V44.234L164.315 40.58H165.715L163.041 43.282L166.121 48H164.763L162.243 44.094L160.703 45.648V48ZM169.845 48.154C168.081 48.154 166.779 47.23 166.681 45.662H167.815C167.899 46.628 168.781 47.16 169.901 47.16C170.951 47.16 171.455 46.754 171.455 46.012C171.455 45.312 170.909 45.158 170.139 44.892L169.061 44.528C167.969 44.164 166.877 43.828 166.877 42.484C166.877 41.224 167.857 40.412 169.481 40.412C171.119 40.412 172.253 41.294 172.435 42.946H171.301C171.175 41.91 170.447 41.406 169.439 41.406C168.529 41.406 167.997 41.812 167.997 42.456C167.997 43.226 168.809 43.38 169.425 43.59L170.433 43.926C171.791 44.374 172.603 44.836 172.603 46.068C172.603 47.37 171.651 48.154 169.845 48.154ZM177.705 48H176.879C175.437 48 174.667 47.258 174.667 45.886V41.56H173.295V40.58H174.667V38.046H175.829V40.58H178.517V39.544C178.517 38.214 179.259 37.5 180.631 37.5H182.283V38.48H180.631C180.015 38.48 179.679 38.858 179.679 39.544V40.58H182.087V41.56H179.679V48H178.517V41.56H175.829V45.886C175.829 46.628 176.193 47.02 176.879 47.02H177.705V48ZM186.441 48.154C184.243 48.154 182.787 46.544 182.787 44.318C182.787 41.784 184.425 40.412 186.301 40.412C188.345 40.412 189.661 41.784 189.703 44.164V44.486H183.949C184.019 46.068 184.943 47.146 186.441 47.146C187.477 47.146 188.233 46.628 188.541 45.662H189.675C189.339 47.188 188.135 48.154 186.441 48.154ZM184.019 43.52H188.485C188.275 42.218 187.491 41.42 186.301 41.42C185.125 41.42 184.257 42.19 184.019 43.52ZM192.435 48H191.273V37.5H192.435V48ZM198.24 48H197.414C195.972 48 195.202 47.258 195.202 45.886V41.56H193.83V40.58H195.202V38.046H196.364V40.58H198.366V41.56H196.364V45.886C196.364 46.628 196.728 47.02 197.414 47.02H198.24V48ZM206.52 48H205.302L202.208 40.58H203.468L205.918 46.642L208.354 40.58H209.614L206.52 48ZM213.853 48.154C211.655 48.154 210.199 46.544 210.199 44.318C210.199 41.784 211.837 40.412 213.713 40.412C215.757 40.412 217.073 41.784 217.115 44.164V44.486H211.361C211.431 46.068 212.355 47.146 213.853 47.146C214.889 47.146 215.645 46.628 215.953 45.662H217.087C216.751 47.188 215.547 48.154 213.853 48.154ZM211.431 43.52H215.897C215.687 42.218 214.903 41.42 213.713 41.42C212.537 41.42 211.669 42.19 211.431 43.52ZM221.639 48.154C219.651 48.154 218.265 46.558 218.265 44.248C218.265 41.98 219.637 40.412 221.625 40.412C222.745 40.412 223.683 40.902 224.215 41.686V37.5H225.377V48H224.453L224.327 46.572C223.837 47.538 222.857 48.154 221.639 48.154ZM221.821 47.146C223.235 47.146 224.215 45.942 224.215 44.22C224.215 42.554 223.263 41.406 221.891 41.406C220.463 41.406 219.469 42.568 219.469 44.248C219.469 45.956 220.435 47.146 221.821 47.146ZM233.242 48.154C231.478 48.154 230.176 47.23 230.078 45.662H231.212C231.296 46.628 232.178 47.16 233.298 47.16C234.348 47.16 234.852 46.754 234.852 46.012C234.852 45.312 234.306 45.158 233.536 44.892L232.458 44.528C231.366 44.164 230.274 43.828 230.274 42.484C230.274 41.224 231.254 40.412 232.878 40.412C234.516 40.412 235.65 41.294 235.832 42.946H234.698C234.572 41.91 233.844 41.406 232.836 41.406C231.926 41.406 231.394 41.812 231.394 42.456C231.394 43.226 232.206 43.38 232.822 43.59L233.83 43.926C235.188 44.374 236 44.836 236 46.068C236 47.37 235.048 48.154 233.242 48.154ZM241.101 48H240.275C238.833 48 238.063 47.258 238.063 45.886V41.56H236.691V40.58H238.063V38.046H239.225V40.58H241.227V41.56H239.225V45.886C239.225 46.628 239.589 47.02 240.275 47.02H241.101V48ZM249.195 40.412L248.355 41.49C248.985 42.176 249.321 43.142 249.321 44.22C249.321 46.782 247.767 48.154 245.681 48.154C244.841 48.154 244.141 47.944 243.581 47.566L242.755 48.616L242.167 48.21L243.035 47.104C242.377 46.39 242.041 45.382 242.041 44.22C242.041 41.742 243.665 40.412 245.681 40.412C246.535 40.412 247.249 40.636 247.809 41.014L248.593 40.006L249.195 40.412ZM243.231 44.22C243.231 45.032 243.427 45.69 243.763 46.166L247.123 41.882C246.731 41.588 246.241 41.42 245.681 41.42C244.197 41.42 243.231 42.554 243.231 44.22ZM245.681 47.146C247.263 47.146 248.131 45.83 248.131 44.22C248.131 43.506 247.949 42.876 247.627 42.414L244.267 46.684C244.673 46.992 245.163 47.146 245.681 47.146ZM252.003 48H250.841V40.58H251.765L251.905 41.994C252.381 41.042 253.249 40.538 254.481 40.538H254.733V41.686H254.481C252.913 41.686 252.003 42.582 252.003 44.108V48ZM257.225 48H256.063V40.58H256.987L257.127 41.994C257.603 41.042 258.471 40.538 259.703 40.538H259.955V41.686H259.703C258.135 41.686 257.225 42.582 257.225 44.108V48ZM264.22 48.154C262.022 48.154 260.566 46.544 260.566 44.318C260.566 41.784 262.204 40.412 264.08 40.412C266.124 40.412 267.44 41.784 267.482 44.164V44.486H261.728C261.798 46.068 262.722 47.146 264.22 47.146C265.256 47.146 266.012 46.628 266.32 45.662H267.454C267.118 47.188 265.914 48.154 264.22 48.154ZM261.798 43.52H266.264C266.054 42.218 265.27 41.42 264.08 41.42C262.904 41.42 262.036 42.19 261.798 43.52ZM274.927 48.154C273.163 48.154 271.861 47.23 271.763 45.662H272.897C272.981 46.628 273.863 47.16 274.983 47.16C276.033 47.16 276.537 46.754 276.537 46.012C276.537 45.312 275.991 45.158 275.221 44.892L274.143 44.528C273.051 44.164 271.959 43.828 271.959 42.484C271.959 41.224 272.939 40.412 274.563 40.412C276.201 40.412 277.335 41.294 277.517 42.946H276.383C276.257 41.91 275.529 41.406 274.521 41.406C273.611 41.406 273.079 41.812 273.079 42.456C273.079 43.226 273.891 43.38 274.507 43.59L275.515 43.926C276.873 44.374 277.685 44.836 277.685 46.068C277.685 47.37 276.733 48.154 274.927 48.154ZM280.318 48H279.156V37.5H280.318V44.234L283.93 40.58H285.33L282.656 43.282L285.736 48H284.378L281.858 44.094L280.318 45.648V48ZM287.304 39.334C286.8 39.334 286.436 38.97 286.436 38.466C286.436 37.976 286.8 37.612 287.304 37.612C287.794 37.612 288.158 37.976 288.158 38.466C288.158 38.97 287.794 39.334 287.304 39.334ZM285.666 50.8H284.63V49.82H285.666C286.352 49.82 286.716 49.428 286.716 48.686V40.58H287.878V48.686C287.878 50.058 287.108 50.8 285.666 50.8ZM293.054 48.154C290.856 48.154 289.4 46.544 289.4 44.318C289.4 41.784 291.038 40.412 292.914 40.412C294.958 40.412 296.274 41.784 296.316 44.164V44.486H290.562C290.632 46.068 291.556 47.146 293.054 47.146C294.09 47.146 294.846 46.628 295.154 45.662H296.288C295.952 47.188 294.748 48.154 293.054 48.154ZM290.632 43.52H295.098C294.888 42.218 294.104 41.42 292.914 41.42C291.738 41.42 290.87 42.19 290.632 43.52ZM299.007 48H297.845V40.58H298.769L298.909 41.994C299.385 41.042 300.253 40.538 301.485 40.538H301.737V41.686H301.485C299.917 41.686 299.007 42.582 299.007 44.108V48ZM304.229 48H303.067V40.58H303.991L304.103 41.728C304.607 40.93 305.573 40.412 306.637 40.412C307.757 40.412 308.597 40.986 308.975 41.882C309.451 41.014 310.473 40.412 311.607 40.412C313.175 40.412 314.183 41.518 314.183 43.03V48H313.021V43.072C313.021 42.078 312.405 41.434 311.411 41.434C310.025 41.434 309.213 42.358 309.199 43.492V48H308.051V43.072C308.051 42.078 307.435 41.434 306.441 41.434C305.055 41.434 304.243 42.358 304.229 43.492V48ZM318.773 48.154C317.009 48.154 315.707 47.23 315.609 45.662H316.743C316.827 46.628 317.709 47.16 318.829 47.16C319.879 47.16 320.383 46.754 320.383 46.012C320.383 45.312 319.837 45.158 319.067 44.892L317.989 44.528C316.897 44.164 315.805 43.828 315.805 42.484C315.805 41.224 316.785 40.412 318.409 40.412C320.047 40.412 321.181 41.294 321.363 42.946H320.229C320.103 41.91 319.375 41.406 318.367 41.406C317.457 41.406 316.925 41.812 316.925 42.456C316.925 43.226 317.737 43.38 318.353 43.59L319.361 43.926C320.719 44.374 321.531 44.836 321.531 46.068C321.531 47.37 320.579 48.154 318.773 48.154ZM326.632 48H325.806C324.364 48 323.594 47.258 323.594 45.886V41.56H322.222V40.58H323.594V38.046H324.756V40.58H326.758V41.56H324.756V45.886C324.756 46.628 325.12 47.02 325.806 47.02H326.632V48ZM334.726 40.412L333.886 41.49C334.516 42.176 334.852 43.142 334.852 44.22C334.852 46.782 333.298 48.154 331.212 48.154C330.372 48.154 329.672 47.944 329.112 47.566L328.286 48.616L327.698 48.21L328.566 47.104C327.908 46.39 327.572 45.382 327.572 44.22C327.572 41.742 329.196 40.412 331.212 40.412C332.066 40.412 332.78 40.636 333.34 41.014L334.124 40.006L334.726 40.412ZM328.762 44.22C328.762 45.032 328.958 45.69 329.294 46.166L332.654 41.882C332.262 41.588 331.772 41.42 331.212 41.42C329.728 41.42 328.762 42.554 328.762 44.22ZM331.212 47.146C332.794 47.146 333.662 45.83 333.662 44.22C333.662 43.506 333.48 42.876 333.158 42.414L329.798 46.684C330.204 46.992 330.694 47.146 331.212 47.146ZM337.534 48H336.372V40.58H337.296L337.436 41.994C337.912 41.042 338.78 40.538 340.012 40.538H340.264V41.686H340.012C338.444 41.686 337.534 42.582 337.534 44.108V48ZM342.757 48H341.595V40.58H342.519L342.659 41.994C343.135 41.042 344.003 40.538 345.235 40.538H345.487V41.686H345.235C343.667 41.686 342.757 42.582 342.757 44.108V48ZM349.751 48.154C347.553 48.154 346.097 46.544 346.097 44.318C346.097 41.784 347.735 40.412 349.611 40.412C351.655 40.412 352.971 41.784 353.013 44.164V44.486H347.259C347.329 46.068 348.253 47.146 349.751 47.146C350.787 47.146 351.543 46.628 351.851 45.662H352.985C352.649 47.188 351.445 48.154 349.751 48.154ZM347.329 43.52H351.795C351.585 42.218 350.801 41.42 349.611 41.42C348.435 41.42 347.567 42.19 347.329 43.52ZM355.746 48H354.584V37.5H355.746V48ZM360.458 48.154C358.694 48.154 357.392 47.23 357.294 45.662H358.428C358.512 46.628 359.394 47.16 360.514 47.16C361.564 47.16 362.068 46.754 362.068 46.012C362.068 45.312 361.522 45.158 360.752 44.892L359.674 44.528C358.582 44.164 357.49 43.828 357.49 42.484C357.49 41.224 358.47 40.412 360.094 40.412C361.732 40.412 362.866 41.294 363.048 42.946H361.914C361.788 41.91 361.06 41.406 360.052 41.406C359.142 41.406 358.61 41.812 358.61 42.456C358.61 43.226 359.422 43.38 360.038 43.59L361.046 43.926C362.404 44.374 363.216 44.836 363.216 46.068C363.216 47.37 362.264 48.154 360.458 48.154ZM367.921 48.154C365.723 48.154 364.267 46.544 364.267 44.318C364.267 41.784 365.905 40.412 367.781 40.412C369.825 40.412 371.141 41.784 371.183 44.164V44.486H365.429C365.499 46.068 366.423 47.146 367.921 47.146C368.957 47.146 369.713 46.628 370.021 45.662H371.155C370.819 47.188 369.615 48.154 367.921 48.154ZM365.499 43.52H369.965C369.755 42.218 368.971 41.42 367.781 41.42C366.605 41.42 365.737 42.19 365.499 43.52ZM373.874 48H372.712V40.58H373.636L373.776 41.994C374.252 41.042 375.12 40.538 376.352 40.538H376.604V41.686H376.352C374.784 41.686 373.874 42.582 373.874 44.108V48ZM384.075 48.154C382.087 48.154 380.701 46.558 380.701 44.248C380.701 41.98 382.073 40.412 384.061 40.412C385.181 40.412 386.119 40.902 386.651 41.686V37.5H387.813V48H386.889L386.763 46.572C386.273 47.538 385.293 48.154 384.075 48.154ZM384.257 47.146C385.671 47.146 386.651 45.942 386.651 44.22C386.651 42.554 385.699 41.406 384.327 41.406C382.899 41.406 381.905 42.568 381.905 44.248C381.905 45.956 382.871 47.146 384.257 47.146ZM392.155 48.112C390.475 48.112 389.397 47.244 389.397 45.886C389.397 44.178 391.049 43.856 392.533 43.702C393.667 43.59 394.647 43.604 394.661 43.002C394.647 42.064 393.877 41.406 392.757 41.406C391.679 41.406 390.839 42.008 390.713 42.89H389.565C389.705 41.434 391.021 40.412 392.785 40.412C394.619 40.412 395.795 41.504 395.795 43.072V46.684C395.795 46.922 395.921 47.048 396.173 47.048H396.593V48H395.935C395.137 48 394.717 47.636 394.717 46.95V46.726C394.283 47.58 393.443 48.112 392.155 48.112ZM392.323 47.118C393.709 47.118 394.661 46.236 394.661 45.004V44.038C394.339 44.472 393.513 44.556 392.603 44.654C391.581 44.766 390.559 44.906 390.559 45.858C390.559 46.628 391.259 47.118 392.323 47.118ZM404.036 48.154C402.048 48.154 400.662 46.558 400.662 44.248C400.662 41.98 402.034 40.412 404.022 40.412C405.142 40.412 406.08 40.902 406.612 41.686V37.5H407.774V48H406.85L406.724 46.572C406.234 47.538 405.254 48.154 404.036 48.154ZM404.218 47.146C405.632 47.146 406.612 45.942 406.612 44.22C406.612 42.554 405.66 41.406 404.288 41.406C402.86 41.406 401.866 42.568 401.866 44.248C401.866 45.956 402.832 47.146 404.218 47.146ZM412.998 48.154C410.8 48.154 409.344 46.544 409.344 44.318C409.344 41.784 410.982 40.412 412.858 40.412C414.902 40.412 416.218 41.784 416.26 44.164V44.486H410.506C410.576 46.068 411.5 47.146 412.998 47.146C414.034 47.146 414.79 46.628 415.098 45.662H416.232C415.896 47.188 414.692 48.154 412.998 48.154ZM410.576 43.52H415.042C414.832 42.218 414.048 41.42 412.858 41.42C411.682 41.42 410.814 42.19 410.576 43.52ZM421.461 48H420.635C419.193 48 418.423 47.258 418.423 45.886V41.56H417.051V40.58H418.423V38.046H419.585V40.58H422.469V38.046H423.631V40.58H425.633V41.56H423.631V45.886C423.631 46.628 423.995 47.02 424.681 47.02H425.507V48H424.681C423.239 48 422.469 47.258 422.469 45.886V41.56H419.585V45.886C419.585 46.628 419.949 47.02 420.635 47.02H421.461V48ZM430.101 48.154C427.903 48.154 426.447 46.544 426.447 44.318C426.447 41.784 428.085 40.412 429.961 40.412C432.005 40.412 433.321 41.784 433.363 44.164V44.486H427.609C427.679 46.068 428.603 47.146 430.101 47.146C431.137 47.146 431.893 46.628 432.201 45.662H433.335C432.999 47.188 431.795 48.154 430.101 48.154ZM427.679 43.52H432.145C431.935 42.218 431.151 41.42 429.961 41.42C428.785 41.42 427.917 42.19 427.679 43.52ZM441.298 48.154C438.918 48.154 437.658 46.46 437.658 44.22C437.658 41.742 439.282 40.412 441.298 40.412C443.664 40.412 444.938 42.12 444.938 44.22C444.938 46.782 443.384 48.154 441.298 48.154ZM441.298 47.146C442.88 47.146 443.748 45.83 443.748 44.22C443.748 42.554 442.782 41.42 441.298 41.42C439.814 41.42 438.848 42.554 438.848 44.22C438.848 46.124 439.954 47.146 441.298 47.146ZM447.648 50.8H446.486V40.58H447.41L447.536 41.924C448.068 41 449.048 40.412 450.252 40.412C452.212 40.412 453.584 41.98 453.584 44.248C453.584 46.558 452.212 48.154 450.252 48.154C449.118 48.154 448.18 47.636 447.648 46.768V50.8ZM450.07 47.146C451.442 47.146 452.38 45.956 452.38 44.248C452.38 42.582 451.442 41.42 450.056 41.42C448.656 41.42 447.648 42.554 447.648 44.192C447.648 45.928 448.656 47.146 450.07 47.146ZM456.302 50.8H455.14V40.58H456.064L456.19 41.924C456.722 41 457.702 40.412 458.906 40.412C460.866 40.412 462.238 41.98 462.238 44.248C462.238 46.558 460.866 48.154 458.906 48.154C457.772 48.154 456.834 47.636 456.302 46.768V50.8ZM458.724 47.146C460.096 47.146 461.034 45.956 461.034 44.248C461.034 42.582 460.096 41.42 458.71 41.42C457.31 41.42 456.302 42.554 456.302 44.192C456.302 45.928 457.31 47.146 458.724 47.146ZM464.97 48H463.808V37.5H464.97V48ZM470.187 48.154C467.989 48.154 466.533 46.544 466.533 44.318C466.533 41.784 468.171 40.412 470.047 40.412C472.091 40.412 473.407 41.784 473.449 44.164V44.486H467.695C467.765 46.068 468.689 47.146 470.187 47.146C471.223 47.146 471.979 46.628 472.287 45.662H473.421C473.085 47.188 471.881 48.154 470.187 48.154ZM467.765 43.52H472.231C472.021 42.218 471.237 41.42 470.047 41.42C468.871 41.42 468.003 42.19 467.765 43.52ZM478.344 48H477.126L474.032 40.58H475.292L477.742 46.642L480.178 40.58H481.438L478.344 48ZM485.677 48.154C483.479 48.154 482.023 46.544 482.023 44.318C482.023 41.784 483.661 40.412 485.537 40.412C487.581 40.412 488.897 41.784 488.939 44.164V44.486H483.185C483.255 46.068 484.179 47.146 485.677 47.146C486.713 47.146 487.469 46.628 487.777 45.662H488.911C488.575 47.188 487.371 48.154 485.677 48.154ZM483.255 43.52H487.721C487.511 42.218 486.727 41.42 485.537 41.42C484.361 41.42 483.493 42.19 483.255 43.52ZM493.24 48.154C491.476 48.154 490.174 47.23 490.076 45.662H491.21C491.294 46.628 492.176 47.16 493.296 47.16C494.346 47.16 494.85 46.754 494.85 46.012C494.85 45.312 494.304 45.158 493.534 44.892L492.456 44.528C491.364 44.164 490.272 43.828 490.272 42.484C490.272 41.224 491.252 40.412 492.876 40.412C494.514 40.412 495.648 41.294 495.83 42.946H494.696C494.57 41.91 493.842 41.406 492.834 41.406C491.924 41.406 491.392 41.812 491.392 42.456C491.392 43.226 492.204 43.38 492.82 43.59L493.828 43.926C495.186 44.374 495.998 44.836 495.998 46.068C495.998 47.37 495.046 48.154 493.24 48.154ZM503.273 48.154C501.467 48.154 500.431 47.048 500.431 45.536V40.58H501.593V45.494C501.593 46.558 502.335 47.132 503.385 47.132C504.771 47.132 505.527 46.208 505.541 45.088V40.58H506.703V48H505.779L505.681 46.88C505.191 47.72 504.295 48.154 503.273 48.154ZM512.474 48H511.648C510.206 48 509.436 47.258 509.436 45.886V41.56H508.064V40.58H509.436V38.046H510.598V40.58H512.6V41.56H510.598V45.886C510.598 46.628 510.962 47.02 511.648 47.02H512.474V48ZM514.866 50.8H513.676V49.82H514.866C515.622 49.82 515.944 49.554 516.112 49.106L516.518 48H516.238L513.298 40.58H514.544L516.952 46.838L519.276 40.58H520.466L517.134 49.554C516.826 50.366 516.14 50.8 514.866 50.8ZM524.417 48.154C522.429 48.154 521.043 46.558 521.043 44.248C521.043 41.98 522.415 40.412 524.403 40.412C525.523 40.412 526.461 40.902 526.993 41.686V37.5H528.155V48H527.231L527.105 46.572C526.615 47.538 525.635 48.154 524.417 48.154ZM524.599 47.146C526.013 47.146 526.993 45.942 526.993 44.22C526.993 42.554 526.041 41.406 524.669 41.406C523.241 41.406 522.247 42.568 522.247 44.248C522.247 45.956 523.213 47.146 524.599 47.146ZM533.378 48.154C531.18 48.154 529.724 46.544 529.724 44.318C529.724 41.784 531.362 40.412 533.238 40.412C535.282 40.412 536.598 41.784 536.64 44.164V44.486H530.886C530.956 46.068 531.88 47.146 533.378 47.146C534.414 47.146 535.17 46.628 535.478 45.662H536.612C536.276 47.188 535.072 48.154 533.378 48.154ZM530.956 43.52H535.422C535.212 42.218 534.428 41.42 533.238 41.42C532.062 41.42 531.194 42.19 530.956 43.52ZM539.373 48H538.211V37.5H539.373V48ZM541.901 39.334C541.411 39.334 541.033 38.956 541.033 38.466C541.033 37.976 541.411 37.612 541.901 37.612C542.391 37.612 542.755 37.976 542.755 38.466C542.755 38.956 542.391 39.334 541.901 39.334ZM542.475 48H541.313V40.58H542.475V48ZM547.61 50.968C545.608 50.968 544.25 50.002 544.25 48.434H545.412C545.412 49.316 546.308 49.988 547.61 49.988C549.136 49.988 549.934 49.078 549.934 47.804V46.6C549.416 47.37 548.52 47.874 547.386 47.874C545.412 47.874 543.998 46.362 543.998 44.178C543.998 41.952 545.426 40.412 547.386 40.412C548.576 40.412 549.542 40.972 550.046 41.868L550.172 40.58H551.082V47.804C551.082 49.68 549.822 50.968 547.61 50.968ZM547.554 46.866C548.954 46.866 549.934 45.746 549.934 44.136C549.934 42.54 548.954 41.42 547.554 41.42C546.168 41.42 545.202 42.54 545.202 44.164C545.202 45.76 546.168 46.866 547.554 46.866ZM559.074 39.782C558.276 39.782 557.674 39.208 557.674 38.452C557.674 37.696 558.276 37.122 559.074 37.122C559.872 37.122 560.474 37.696 560.474 38.452C560.474 39.208 559.872 39.782 559.074 39.782ZM559.074 39.082C559.438 39.082 559.704 38.816 559.704 38.452C559.704 38.088 559.438 37.822 559.074 37.822C558.71 37.822 558.444 38.088 558.444 38.452C558.444 38.816 558.71 39.082 559.074 39.082ZM558.528 48.112C556.848 48.112 555.77 47.244 555.77 45.886C555.77 44.178 557.422 43.856 558.906 43.702C560.04 43.59 561.02 43.604 561.034 43.002C561.02 42.064 560.25 41.406 559.13 41.406C558.052 41.406 557.212 42.008 557.086 42.89H555.938C556.078 41.434 557.394 40.412 559.158 40.412C560.992 40.412 562.168 41.504 562.168 43.072V46.684C562.168 46.922 562.294 47.048 562.546 47.048H562.966V48H562.308C561.51 48 561.09 47.636 561.09 46.95V46.726C560.656 47.58 559.816 48.112 558.528 48.112ZM558.696 47.118C560.082 47.118 561.034 46.236 561.034 45.004V44.038C560.712 44.472 559.886 44.556 558.976 44.654C557.954 44.766 556.932 44.906 556.932 45.858C556.932 46.628 557.632 47.118 558.696 47.118ZM568.617 48H567.455V37.5H568.617V48ZM573.833 48.154C571.635 48.154 570.179 46.544 570.179 44.318C570.179 41.784 571.817 40.412 573.693 40.412C575.737 40.412 577.053 41.784 577.095 44.164V44.486H571.341C571.411 46.068 572.335 47.146 573.833 47.146C574.869 47.146 575.625 46.628 575.933 45.662H577.067C576.731 47.188 575.527 48.154 573.833 48.154ZM571.411 43.52H575.877C575.667 42.218 574.883 41.42 573.693 41.42C572.517 41.42 571.649 42.19 571.411 43.52ZM581.396 48.154C579.632 48.154 578.33 47.23 578.232 45.662H579.366C579.45 46.628 580.332 47.16 581.452 47.16C582.502 47.16 583.006 46.754 583.006 46.012C583.006 45.312 582.46 45.158 581.69 44.892L580.612 44.528C579.52 44.164 578.428 43.828 578.428 42.484C578.428 41.224 579.408 40.412 581.032 40.412C582.67 40.412 583.804 41.294 583.986 42.946H582.852C582.726 41.91 581.998 41.406 580.99 41.406C580.08 41.406 579.548 41.812 579.548 42.456C579.548 43.226 580.36 43.38 580.976 43.59L581.984 43.926C583.342 44.374 584.154 44.836 584.154 46.068C584.154 47.37 583.202 48.154 581.396 48.154ZM588.859 48.154C586.661 48.154 585.205 46.544 585.205 44.318C585.205 41.784 586.843 40.412 588.719 40.412C590.763 40.412 592.079 41.784 592.121 44.164V44.486H586.367C586.437 46.068 587.361 47.146 588.859 47.146C589.895 47.146 590.651 46.628 590.959 45.662H592.093C591.757 47.188 590.553 48.154 588.859 48.154ZM586.437 43.52H590.903C590.693 42.218 589.909 41.42 588.719 41.42C587.543 41.42 586.675 42.19 586.437 43.52ZM598.782 48H597.62V41.56H596.248V40.58H597.62V39.544C597.62 38.214 598.362 37.5 599.734 37.5H601.386V38.48H599.734C599.118 38.48 598.782 38.858 598.782 39.544V40.58H601.19V41.56H598.782V48ZM605.484 48.154C603.104 48.154 601.844 46.46 601.844 44.22C601.844 41.742 603.468 40.412 605.484 40.412C607.85 40.412 609.124 42.12 609.124 44.22C609.124 46.782 607.57 48.154 605.484 48.154ZM605.484 47.146C607.066 47.146 607.934 45.83 607.934 44.22C607.934 42.554 606.968 41.42 605.484 41.42C604 41.42 603.034 42.554 603.034 44.22C603.034 46.124 604.14 47.146 605.484 47.146ZM611.805 48H610.643V40.58H611.567L611.707 41.994C612.183 41.042 613.051 40.538 614.283 40.538H614.535V41.686H614.283C612.715 41.686 611.805 42.582 611.805 44.108V48ZM622.819 48.154C621.601 48.154 620.607 47.552 620.103 46.586L619.977 48H619.053V37.5H620.215V41.742C620.761 40.93 621.699 40.412 622.819 40.412C624.779 40.412 626.151 41.98 626.151 44.248C626.151 46.558 624.779 48.154 622.819 48.154ZM622.637 47.146C624.009 47.146 624.947 45.956 624.947 44.248C624.947 42.582 624.009 41.42 622.623 41.42C621.223 41.42 620.215 42.554 620.215 44.192C620.215 45.928 621.223 47.146 622.637 47.146ZM628.841 48H627.679V40.58H628.603L628.743 41.994C629.219 41.042 630.087 40.538 631.319 40.538H631.571V41.686H631.319C629.751 41.686 628.841 42.582 628.841 44.108V48ZM635.603 48.154C633.797 48.154 632.761 47.048 632.761 45.536V40.58H633.923V45.494C633.923 46.558 634.665 47.132 635.715 47.132C637.101 47.132 637.857 46.208 637.871 45.088V40.58H639.033V48H638.109L638.011 46.88C637.521 47.72 636.625 48.154 635.603 48.154ZM642.144 48H640.982V37.5H642.144V44.234L645.756 40.58H647.156L644.482 43.282L647.562 48H646.204L643.684 44.094L642.144 45.648V48ZM651.421 48.154C649.223 48.154 647.767 46.544 647.767 44.318C647.767 41.784 649.405 40.412 651.281 40.412C653.325 40.412 654.641 41.784 654.683 44.164V44.486H648.929C648.999 46.068 649.923 47.146 651.421 47.146C652.457 47.146 653.213 46.628 653.521 45.662H654.655C654.319 47.188 653.115 48.154 651.421 48.154ZM648.999 43.52H653.465C653.255 42.218 652.471 41.42 651.281 41.42C650.105 41.42 649.237 42.19 648.999 43.52ZM657.374 48H656.212V40.58H657.136L657.276 41.994C657.752 41.042 658.62 40.538 659.852 40.538H660.104V41.686H659.852C658.284 41.686 657.374 42.582 657.374 44.108V48ZM664.369 48.154C662.171 48.154 660.715 46.544 660.715 44.318C660.715 41.784 662.353 40.412 664.229 40.412C666.273 40.412 667.589 41.784 667.631 44.164V44.486H661.877C661.947 46.068 662.871 47.146 664.369 47.146C665.405 47.146 666.161 46.628 666.469 45.662H667.603C667.267 47.188 666.063 48.154 664.369 48.154ZM661.947 43.52H666.413C666.203 42.218 665.419 41.42 664.229 41.42C663.053 41.42 662.185 42.19 661.947 43.52ZM670.321 48H669.159V40.58H670.083L670.195 41.714C670.699 40.93 671.665 40.412 672.771 40.412C674.367 40.412 675.431 41.448 675.431 43.086V48H674.269V43.128C674.269 42.092 673.597 41.434 672.477 41.434C671.147 41.434 670.335 42.358 670.321 43.492V48ZM677.883 48.14C677.379 48.14 677.001 47.762 677.001 47.258C677.001 46.768 677.379 46.39 677.883 46.39C678.387 46.39 678.765 46.768 678.765 47.258C678.765 47.762 678.387 48.14 677.883 48.14Z" fill="#481125"/>
<rect x="32.5" y="73.5" width="670" height="145" rx="15.5" fill="white"/>
<rect x="32.5" y="73.5" width="670" height="145" rx="15.5" stroke="#691837"/>
<rect x="48" y="89" width="639" height="49" rx="16" fill="white"/>
<mask id="path-8-inside-1_621_2657" fill="white">
<path d="M52 101C52 96.5817 55.5817 93 60 93H675C679.418 93 683 96.5817 683 101V134H52V101Z"/>
</mask>
<path d="M52 93H683H52ZM683 135H52V133H683V135ZM52 134V93V134ZM683 93V134V93Z" fill="#481125" mask="url(#path-8-inside-1_621_2657)"/>
<path d="M64.576 118H63.232V109.28C62.704 109.984 61.84 110.336 60.672 110.336H60.48V109.024H60.672C62.352 109.024 63.248 108.304 63.248 106.96V106.8H64.576V118ZM68.7375 118H67.2015L72.4335 108.032H66.4015V106.8H73.9215V108.032L68.7375 118ZM74.3393 118.16C73.7633 118.16 73.3313 117.728 73.3313 117.152C73.3313 116.592 73.7633 116.16 74.3393 116.16C74.9153 116.16 75.3473 116.592 75.3473 117.152C75.3473 117.728 74.9153 118.16 74.3393 118.16ZM79.2791 118H77.9351V109.28C77.4071 109.984 76.5431 110.336 75.3751 110.336H75.1831V109.024H75.3751C77.0551 109.024 77.9511 108.304 77.9511 106.96V106.8H79.2791V118ZM85.7606 118.176C83.1526 118.176 81.4886 115.904 81.4886 112.368C81.4886 108.864 83.1526 106.624 85.7606 106.624C88.3686 106.624 90.0326 108.864 90.0326 112.368C90.0326 115.904 88.3686 118.176 85.7606 118.176ZM85.7606 116.944C87.5206 116.944 88.6566 115.152 88.6566 112.368C88.6566 109.616 87.5206 107.856 85.7606 107.856C84.0006 107.856 82.8646 109.616 82.8646 112.368C82.8646 115.152 84.0006 116.944 85.7606 116.944ZM92.2299 118.16C91.6539 118.16 91.2219 117.728 91.2219 117.152C91.2219 116.592 91.6539 116.16 92.2299 116.16C92.8059 116.16 93.2379 116.592 93.2379 117.152C93.2379 117.728 92.8059 118.16 92.2299 118.16ZM102.367 109.84C102.367 113.68 96.4953 113.52 96.4953 116.768H102.207V118H95.0713V116.944C95.0713 112.832 100.975 112.88 100.975 109.84C100.975 108.656 100.143 107.856 98.7993 107.856C97.3913 107.856 96.2713 108.736 96.2393 110.544H94.8313C94.9593 107.984 96.6393 106.624 98.8153 106.624C100.959 106.624 102.367 107.92 102.367 109.84ZM108.229 118.176C105.621 118.176 103.957 115.904 103.957 112.368C103.957 108.864 105.621 106.624 108.229 106.624C110.837 106.624 112.501 108.864 112.501 112.368C112.501 115.904 110.837 118.176 108.229 118.176ZM108.229 116.944C109.989 116.944 111.125 115.152 111.125 112.368C111.125 109.616 109.989 107.856 108.229 107.856C106.469 107.856 105.333 109.616 105.333 112.368C105.333 115.152 106.469 116.944 108.229 116.944ZM121.367 109.84C121.367 113.68 115.495 113.52 115.495 116.768H121.207V118H114.071V116.944C114.071 112.832 119.975 112.88 119.975 109.84C119.975 108.656 119.143 107.856 117.799 107.856C116.391 107.856 115.271 108.736 115.239 110.544H113.831C113.959 107.984 115.639 106.624 117.815 106.624C119.959 106.624 121.367 107.92 121.367 109.84ZM128.849 118H127.505V115.2H121.953V114L127.489 106.8H128.849V113.968H130.817V115.2H128.849V118ZM127.505 108.672L123.424 113.968H127.505V108.672Z" fill="#330314"/>
<g clip-path="url(#clip1_621_2657)">
<path d="M656.877 123.5C656.38 123.5 655.903 123.302 655.551 122.95C655.2 122.599 655.002 122.122 655.002 121.625V107.875C655.002 107.378 655.2 106.901 655.551 106.55C655.903 106.198 656.38 106 656.877 106H660.002V104.125C660.002 103.959 660.068 103.8 660.185 103.683C660.302 103.566 660.461 103.5 660.627 103.5C660.792 103.5 660.951 103.566 661.069 103.683C661.186 103.8 661.252 103.959 661.252 104.125V106H668.752V104.125C668.752 103.959 668.818 103.8 668.935 103.683C669.052 103.566 669.211 103.5 669.377 103.5C669.542 103.5 669.701 103.566 669.819 103.683C669.936 103.8 670.002 103.959 670.002 104.125V106H673.127C673.624 106 674.1 106.198 674.452 106.55C674.804 106.901 675.001 107.378 675.002 107.875V121.625C675.001 122.122 674.804 122.599 674.452 122.95C674.1 123.302 673.624 123.5 673.127 123.5H656.877ZM656.252 121.625C656.252 121.97 656.532 122.25 656.877 122.25H673.127C673.292 122.25 673.451 122.184 673.569 122.067C673.686 121.95 673.752 121.791 673.752 121.625V112.25H656.252V121.625ZM673.752 111V107.875C673.752 107.709 673.686 107.55 673.569 107.433C673.451 107.316 673.292 107.25 673.127 107.25H670.002V108.5C670.002 108.666 669.936 108.825 669.819 108.942C669.701 109.059 669.542 109.125 669.377 109.125C669.211 109.125 669.052 109.059 668.935 108.942C668.818 108.825 668.752 108.666 668.752 108.5V107.25H661.252V108.5C661.252 108.666 661.186 108.825 661.069 108.942C660.951 109.059 660.792 109.125 660.627 109.125C660.461 109.125 660.302 109.059 660.185 108.942C660.068 108.825 660.002 108.666 660.002 108.5V107.25H656.877C656.711 107.25 656.552 107.316 656.435 107.433C656.318 107.55 656.252 107.709 656.252 107.875V111H673.752Z" fill="#481125"/>
</g>
<rect x="48" y="154" width="639" height="49" rx="16" fill="white"/>
<mask id="path-13-inside-2_621_2657" fill="white">
<path d="M52 166C52 161.582 55.5817 158 60 158H675C679.418 158 683 161.582 683 166V199H52V166Z"/>
</mask>
<path d="M52 158H683H52ZM683 200H52V198H683V200ZM52 199V158V199ZM683 158V199V158Z" fill="#481125" mask="url(#path-13-inside-2_621_2657)"/>
<path d="M62.704 183H61.36V171.8H62.896L69.232 181.08V171.8H70.576V183H69.04L62.704 173.72V183ZM76.7535 183.176C74.0335 183.176 72.5935 181.24 72.5935 178.68C72.5935 175.848 74.4495 174.328 76.7535 174.328C79.4575 174.328 80.9135 176.28 80.9135 178.68C80.9135 181.608 79.1375 183.176 76.7535 183.176ZM76.7535 182.024C78.5615 182.024 79.5535 180.52 79.5535 178.68C79.5535 176.776 78.4495 175.48 76.7535 175.48C75.0575 175.48 73.9535 176.776 73.9535 178.68C73.9535 180.856 75.2175 182.024 76.7535 182.024ZM83.9785 183H82.6505V174.52H83.7065L83.8665 176.136C84.4105 175.048 85.4025 174.472 86.8105 174.472H87.0985V175.784H86.8105C85.0185 175.784 83.9785 176.808 83.9785 178.552V183ZM91.5998 183.176C89.5838 183.176 88.0958 182.12 87.9838 180.328H89.2798C89.3758 181.432 90.3838 182.04 91.6638 182.04C92.8638 182.04 93.4398 181.576 93.4398 180.728C93.4398 179.928 92.8158 179.752 91.9358 179.448L90.7038 179.032C89.4557 178.616 88.2078 178.232 88.2078 176.696C88.2078 175.256 89.3278 174.328 91.1838 174.328C93.0558 174.328 94.3518 175.336 94.5598 177.224H93.2638C93.1198 176.04 92.2878 175.464 91.1358 175.464C90.0958 175.464 89.4878 175.928 89.4878 176.664C89.4878 177.544 90.4158 177.72 91.1198 177.96L92.2718 178.344C93.8238 178.856 94.7518 179.384 94.7518 180.792C94.7518 182.28 93.6638 183.176 91.5998 183.176ZM97.7609 183H96.4329V171H97.7609V178.696L101.889 174.52H103.489L100.433 177.608L103.953 183H102.401L99.5209 178.536L97.7609 180.312V183Z" fill="#330314"/>
<g clip-path="url(#clip2_621_2657)">
<path d="M664.999 184.335C664.666 184.335 664.353 184.205 664.117 183.97L655.183 175.034C655.125 174.976 655.079 174.907 655.047 174.831C655.016 174.756 655 174.674 655 174.592C655 174.425 655.065 174.268 655.183 174.15C655.241 174.091 655.31 174.045 655.386 174.013C655.461 173.981 655.543 173.965 655.625 173.965C655.707 173.965 655.789 173.981 655.864 174.013C655.94 174.045 656.009 174.091 656.067 174.15L664.999 183.085L673.932 174.15C673.99 174.091 674.058 174.045 674.134 174.013C674.21 173.981 674.291 173.965 674.374 173.965C674.456 173.965 674.537 173.981 674.613 174.013C674.689 174.045 674.757 174.091 674.815 174.15C674.874 174.208 674.92 174.276 674.952 174.352C674.984 174.428 675 174.51 675 174.592C675 174.674 674.984 174.755 674.952 174.831C674.92 174.907 674.874 174.976 674.815 175.034L665.882 183.969C665.767 184.086 665.629 184.178 665.478 184.241C665.326 184.304 665.163 184.336 664.999 184.335Z" fill="#481125"/>
</g>
<defs>
<clipPath id="clip0_621_2657">
<rect width="8" height="8" fill="white" transform="translate(38 40.5)"/>
</clipPath>
<clipPath id="clip1_621_2657">
<rect width="20" height="20" fill="white" transform="translate(655 103.5)"/>
</clipPath>
<clipPath id="clip2_621_2657">
<rect width="20" height="20" fill="white" transform="translate(655 168.5)"/>
</clipPath>
</defs>
</svg>
