<svg width="735" height="296" viewBox="0 0 735 296" fill="none" xmlns="http://www.w3.org/2000/svg">
<rect width="735" height="296" rx="16" fill="white"/>
<rect x="20.5" y="28" width="20" height="20" rx="10" fill="#CE3871"/>
<g clip-path="url(#clip0_621_2158)">
<path d="M38 46C37.8667 46 37.7407 45.948 37.6467 45.8533L30.5 38.7076L23.3533 45.8533C23.2587 45.948 23.1333 46 23 46C22.8667 46 22.7407 45.948 22.6467 45.8533C22.452 45.6587 22.452 45.3414 22.6467 45.146L29.7933 37.9997L22.6467 30.854C22.552 30.76 22.5 30.634 22.5 30.5006C22.5 30.3673 22.552 30.2413 22.6467 30.1473C22.7407 30.0527 22.8667 30.0007 23 30.0007C23.1333 30.0007 23.2593 30.0527 23.3533 30.1473L30.5 37.293L37.6467 30.1467C37.7413 30.052 37.8667 30 38 30C38.1333 30 38.2593 30.052 38.3533 30.1467C38.448 30.2413 38.5 30.3673 38.5 30.5006C38.5 30.634 38.448 30.76 38.3533 30.854L31.2067 38.0003L38.3533 45.1467C38.548 45.3414 38.548 45.6587 38.3533 45.854C38.2593 45.948 38.1333 46 38 46Z" fill="#FDF9F9"/>
</g>
<path d="M53.512 44.154C50.978 44.154 49.606 42.572 49.606 40.71V34.2H50.782V40.682C50.782 42.236 52.014 43.062 53.512 43.062C55.01 43.062 56.242 42.236 56.242 40.682V34.2H57.418V40.71C57.418 42.572 56.032 44.168 53.512 44.154ZM60.6355 44H59.4735V36.58H60.3975L60.5095 37.714C61.0135 36.93 61.9795 36.412 63.0855 36.412C64.6815 36.412 65.7455 37.448 65.7455 39.086V44H64.5835V39.128C64.5835 38.092 63.9115 37.434 62.7915 37.434C61.4615 37.434 60.6495 38.358 60.6355 39.492V44ZM68.7292 44H67.5672V36.58H68.4912L68.6032 37.714C69.1072 36.93 70.0732 36.412 71.1792 36.412C72.7752 36.412 73.8392 37.448 73.8392 39.086V44H72.6772V39.128C72.6772 38.092 72.0052 37.434 70.8852 37.434C69.5552 37.434 68.7432 38.358 68.7292 39.492V44ZM78.895 46.968C76.893 46.968 75.535 46.002 75.535 44.434H76.697C76.697 45.316 77.593 45.988 78.895 45.988C80.421 45.988 81.219 45.078 81.219 43.804V42.6C80.701 43.37 79.805 43.874 78.671 43.874C76.697 43.874 75.283 42.362 75.283 40.178C75.283 37.952 76.711 36.412 78.671 36.412C79.861 36.412 80.827 36.972 81.331 37.868L81.457 36.58H82.367V43.804C82.367 45.68 81.107 46.968 78.895 46.968ZM78.839 42.866C80.239 42.866 81.219 41.746 81.219 40.136C81.219 38.54 80.239 37.42 78.839 37.42C77.453 37.42 76.487 38.54 76.487 40.164C76.487 41.76 77.453 42.866 78.839 42.866ZM87.2143 35.782C86.4163 35.782 85.8143 35.208 85.8143 34.452C85.8143 33.696 86.4163 33.122 87.2143 33.122C88.0123 33.122 88.6143 33.696 88.6143 34.452C88.6143 35.208 88.0123 35.782 87.2143 35.782ZM87.2143 35.082C87.5783 35.082 87.8443 34.816 87.8443 34.452C87.8443 34.088 87.5783 33.822 87.2143 33.822C86.8503 33.822 86.5843 34.088 86.5843 34.452C86.5843 34.816 86.8503 35.082 87.2143 35.082ZM86.6683 44.112C84.9883 44.112 83.9103 43.244 83.9103 41.886C83.9103 40.178 85.5623 39.856 87.0463 39.702C88.1803 39.59 89.1603 39.604 89.1743 39.002C89.1603 38.064 88.3903 37.406 87.2703 37.406C86.1923 37.406 85.3523 38.008 85.2263 38.89H84.0783C84.2183 37.434 85.5343 36.412 87.2983 36.412C89.1323 36.412 90.3083 37.504 90.3083 39.072V42.684C90.3083 42.922 90.4343 43.048 90.6863 43.048H91.1063V44H90.4483C89.6503 44 89.2303 43.636 89.2303 42.95V42.726C88.7963 43.58 87.9563 44.112 86.6683 44.112ZM86.8363 43.118C88.2223 43.118 89.1743 42.236 89.1743 41.004V40.038C88.8523 40.472 88.0263 40.556 87.1163 40.654C86.0943 40.766 85.0723 40.906 85.0723 41.858C85.0723 42.628 85.7723 43.118 86.8363 43.118ZM96.7576 44H95.5956V33.5H96.7576V44ZM101.092 44.112C99.4121 44.112 98.3341 43.244 98.3341 41.886C98.3341 40.178 99.9861 39.856 101.47 39.702C102.604 39.59 103.584 39.604 103.598 39.002C103.584 38.064 102.814 37.406 101.694 37.406C100.616 37.406 99.7761 38.008 99.6501 38.89H98.5021C98.6421 37.434 99.9581 36.412 101.722 36.412C103.556 36.412 104.732 37.504 104.732 39.072V42.684C104.732 42.922 104.858 43.048 105.11 43.048H105.53V44H104.872C104.074 44 103.654 43.636 103.654 42.95V42.726C103.22 43.58 102.38 44.112 101.092 44.112ZM101.26 43.118C102.646 43.118 103.598 42.236 103.598 41.004V40.038C103.276 40.472 102.45 40.556 101.54 40.654C100.518 40.766 99.4961 40.906 99.4961 41.858C99.4961 42.628 100.196 43.118 101.26 43.118ZM107.995 44H106.833V36.58H107.757L107.869 37.714C108.373 36.93 109.339 36.412 110.445 36.412C112.041 36.412 113.105 37.448 113.105 39.086V44H111.943V39.128C111.943 38.092 111.271 37.434 110.151 37.434C108.821 37.434 108.009 38.358 107.995 39.492V44ZM118.161 46.968C116.159 46.968 114.801 46.002 114.801 44.434H115.963C115.963 45.316 116.859 45.988 118.161 45.988C119.687 45.988 120.485 45.078 120.485 43.804V42.6C119.967 43.37 119.071 43.874 117.937 43.874C115.963 43.874 114.549 42.362 114.549 40.178C114.549 37.952 115.977 36.412 117.937 36.412C119.127 36.412 120.093 36.972 120.597 37.868L120.723 36.58H121.633V43.804C121.633 45.68 120.373 46.968 118.161 46.968ZM118.105 42.866C119.505 42.866 120.485 41.746 120.485 40.136C120.485 38.54 119.505 37.42 118.105 37.42C116.719 37.42 115.753 38.54 115.753 40.164C115.753 41.76 116.719 42.866 118.105 42.866ZM126.816 44.154C124.618 44.154 123.162 42.544 123.162 40.318C123.162 37.784 124.8 36.412 126.676 36.412C128.72 36.412 130.036 37.784 130.078 40.164V40.486H124.324C124.394 42.068 125.318 43.146 126.816 43.146C127.852 43.146 128.608 42.628 128.916 41.662H130.05C129.714 43.188 128.51 44.154 126.816 44.154ZM124.394 39.52H128.86C128.65 38.218 127.866 37.42 126.676 37.42C125.5 37.42 124.632 38.19 124.394 39.52ZM138.027 44.154C135.829 44.154 134.373 42.544 134.373 40.318C134.373 37.784 136.011 36.412 137.887 36.412C139.931 36.412 141.247 37.784 141.289 40.164V40.486H135.535C135.605 42.068 136.529 43.146 138.027 43.146C139.063 43.146 139.819 42.628 140.127 41.662H141.261C140.925 43.188 139.721 44.154 138.027 44.154ZM135.605 39.52H140.071C139.861 38.218 139.077 37.42 137.887 37.42C136.711 37.42 135.843 38.19 135.605 39.52ZM146.49 44H145.664C144.222 44 143.452 43.258 143.452 41.886V37.56H142.08V36.58H143.452V34.046H144.614V36.58H146.616V37.56H144.614V41.886C144.614 42.628 144.978 43.02 145.664 43.02H146.49V44ZM148.573 35.334C148.083 35.334 147.705 34.956 147.705 34.466C147.705 33.976 148.083 33.612 148.573 33.612C149.063 33.612 149.427 33.976 149.427 34.466C149.427 34.956 149.063 35.334 148.573 35.334ZM149.147 44H147.985V36.58H149.147V44ZM152.252 44H151.09V33.5H152.252V40.234L155.864 36.58H157.264L154.59 39.282L157.67 44H156.312L153.792 40.094L152.252 41.648V44ZM161.529 44.154C159.331 44.154 157.875 42.544 157.875 40.318C157.875 37.784 159.513 36.412 161.389 36.412C163.433 36.412 164.749 37.784 164.791 40.164V40.486H159.037C159.107 42.068 160.031 43.146 161.529 43.146C162.565 43.146 163.321 42.628 163.629 41.662H164.763C164.427 43.188 163.223 44.154 161.529 44.154ZM159.107 39.52H163.573C163.363 38.218 162.579 37.42 161.389 37.42C160.213 37.42 159.345 38.19 159.107 39.52ZM169.992 44H169.166C167.724 44 166.954 43.258 166.954 41.886V37.56H165.582V36.58H166.954V34.046H168.116V36.58H171V34.046H172.162V36.58H174.164V37.56H172.162V41.886C172.162 42.628 172.526 43.02 173.212 43.02H174.038V44H173.212C171.77 44 171 43.258 171 41.886V37.56H168.116V41.886C168.116 42.628 168.48 43.02 169.166 43.02H169.992V44ZM181.204 40.136H175.212V39.156H181.204V40.136ZM186.644 44H185.818C184.376 44 183.606 43.258 183.606 41.886V37.56H182.234V36.58H183.606V34.046H184.768V36.58H186.77V37.56H184.768V41.886C184.768 42.628 185.132 43.02 185.818 43.02H186.644V44ZM191.238 44.154C189.04 44.154 187.584 42.544 187.584 40.318C187.584 37.784 189.222 36.412 191.098 36.412C193.142 36.412 194.458 37.784 194.5 40.164V40.486H188.746C188.816 42.068 189.74 43.146 191.238 43.146C192.274 43.146 193.03 42.628 193.338 41.662H194.472C194.136 43.188 192.932 44.154 191.238 44.154ZM188.816 39.52H193.282C193.072 38.218 192.288 37.42 191.098 37.42C189.922 37.42 189.054 38.19 188.816 39.52ZM197.232 44H196.07V33.5H197.232V40.234L200.844 36.58H202.244L199.57 39.282L202.65 44H201.292L198.772 40.094L197.232 41.648V44ZM206.374 44.154C204.61 44.154 203.308 43.23 203.21 41.662H204.344C204.428 42.628 205.31 43.16 206.43 43.16C207.48 43.16 207.984 42.754 207.984 42.012C207.984 41.312 207.438 41.158 206.668 40.892L205.59 40.528C204.498 40.164 203.406 39.828 203.406 38.484C203.406 37.224 204.386 36.412 206.01 36.412C207.648 36.412 208.782 37.294 208.964 38.946H207.83C207.704 37.91 206.976 37.406 205.968 37.406C205.058 37.406 204.526 37.812 204.526 38.456C204.526 39.226 205.338 39.38 205.954 39.59L206.962 39.926C208.32 40.374 209.132 40.836 209.132 42.068C209.132 43.37 208.18 44.154 206.374 44.154ZM214.234 44H213.408C211.966 44 211.196 43.258 211.196 41.886V37.56H209.824V36.58H211.196V34.046H212.358V36.58H214.36V37.56H212.358V41.886C212.358 42.628 212.722 43.02 213.408 43.02H214.234V44ZM218.828 44.154C216.63 44.154 215.174 42.544 215.174 40.318C215.174 37.784 216.812 36.412 218.688 36.412C220.732 36.412 222.048 37.784 222.09 40.164V40.486H216.336C216.406 42.068 217.33 43.146 218.828 43.146C219.864 43.146 220.62 42.628 220.928 41.662H222.062C221.726 43.188 220.522 44.154 218.828 44.154ZM216.406 39.52H220.872C220.662 38.218 219.878 37.42 218.688 37.42C217.512 37.42 216.644 38.19 216.406 39.52ZM224.78 44H223.618V36.58H224.542L224.682 37.994C225.158 37.042 226.026 36.538 227.258 36.538H227.51V37.686H227.258C225.69 37.686 224.78 38.582 224.78 40.108V44ZM228.404 44.14C227.9 44.14 227.522 43.762 227.522 43.258C227.522 42.768 227.9 42.39 228.404 42.39C228.908 42.39 229.286 42.768 229.286 43.258C229.286 43.762 228.908 44.14 228.404 44.14ZM237.773 44H234.315V34.2H237.773C240.587 34.2 242.547 36.188 242.547 39.044C242.547 41.97 240.587 44 237.773 44ZM235.491 35.278V42.922H237.843C239.873 42.922 241.301 41.326 241.301 39.044C241.301 36.93 239.873 35.278 237.843 35.278H235.491ZM247.511 44.154C245.313 44.154 243.857 42.544 243.857 40.318C243.857 37.784 245.495 36.412 247.371 36.412C249.415 36.412 250.731 37.784 250.773 40.164V40.486H245.019C245.089 42.068 246.013 43.146 247.511 43.146C248.547 43.146 249.303 42.628 249.611 41.662H250.745C250.409 43.188 249.205 44.154 247.511 44.154ZM245.089 39.52H249.555C249.345 38.218 248.561 37.42 247.371 37.42C246.195 37.42 245.327 38.19 245.089 39.52ZM258.218 44.154C256.454 44.154 255.152 43.23 255.054 41.662H256.188C256.272 42.628 257.154 43.16 258.274 43.16C259.324 43.16 259.828 42.754 259.828 42.012C259.828 41.312 259.282 41.158 258.512 40.892L257.434 40.528C256.342 40.164 255.25 39.828 255.25 38.484C255.25 37.224 256.23 36.412 257.854 36.412C259.492 36.412 260.626 37.294 260.808 38.946H259.674C259.548 37.91 258.82 37.406 257.812 37.406C256.902 37.406 256.37 37.812 256.37 38.456C256.37 39.226 257.182 39.38 257.798 39.59L258.806 39.926C260.164 40.374 260.976 40.836 260.976 42.068C260.976 43.37 260.024 44.154 258.218 44.154ZM263.609 44H262.447V33.5H263.609V40.234L267.221 36.58H268.621L265.947 39.282L269.027 44H267.669L265.149 40.094L263.609 41.648V44ZM272.332 44.112C270.652 44.112 269.574 43.244 269.574 41.886C269.574 40.178 271.226 39.856 272.71 39.702C273.844 39.59 274.824 39.604 274.838 39.002C274.824 38.064 274.054 37.406 272.934 37.406C271.856 37.406 271.016 38.008 270.89 38.89H269.742C269.882 37.434 271.198 36.412 272.962 36.412C274.796 36.412 275.972 37.504 275.972 39.072V42.684C275.972 42.922 276.098 43.048 276.35 43.048H276.77V44H276.112C275.314 44 274.894 43.636 274.894 42.95V42.726C274.46 43.58 273.62 44.112 272.332 44.112ZM272.5 43.118C273.886 43.118 274.838 42.236 274.838 41.004V40.038C274.516 40.472 273.69 40.556 272.78 40.654C271.758 40.766 270.736 40.906 270.736 41.858C270.736 42.628 271.436 43.118 272.5 43.118ZM279.277 44H278.115V33.5H279.277V44ZM284.95 35.334C284.46 35.334 284.082 34.956 284.082 34.466C284.082 33.976 284.46 33.612 284.95 33.612C285.44 33.612 285.804 33.976 285.804 34.466C285.804 34.956 285.44 35.334 284.95 35.334ZM285.524 44H284.362V36.58H285.524V44ZM288.629 44H287.467V33.5H288.629V40.234L292.241 36.58H293.641L290.967 39.282L294.047 44H292.689L290.169 40.094L288.629 41.648V44ZM296.23 44H295.068V33.5H296.23V40.234L299.842 36.58H301.242L298.568 39.282L301.648 44H300.29L297.77 40.094L296.23 41.648V44ZM305.507 44.154C303.309 44.154 301.853 42.544 301.853 40.318C301.853 37.784 303.491 36.412 305.367 36.412C307.411 36.412 308.727 37.784 308.769 40.164V40.486H303.015C303.085 42.068 304.009 43.146 305.507 43.146C306.543 43.146 307.299 42.628 307.607 41.662H308.741C308.405 43.188 307.201 44.154 305.507 44.154ZM303.085 39.52H307.551C307.341 38.218 306.557 37.42 305.367 37.42C304.191 37.42 303.323 38.19 303.085 39.52ZM53.26 69.154C52.042 69.154 51.048 68.552 50.544 67.586L50.418 69H49.494V58.5H50.656V62.742C51.202 61.93 52.14 61.412 53.26 61.412C55.22 61.412 56.592 62.98 56.592 65.248C56.592 67.558 55.22 69.154 53.26 69.154ZM53.078 68.146C54.45 68.146 55.388 66.956 55.388 65.248C55.388 63.582 54.45 62.42 53.064 62.42C51.664 62.42 50.656 63.554 50.656 65.192C50.656 66.928 51.664 68.146 53.078 68.146ZM59.282 69H58.12V61.58H59.044L59.184 62.994C59.66 62.042 60.528 61.538 61.76 61.538H62.012V62.686H61.76C60.192 62.686 59.282 63.582 59.282 65.108V69ZM66.2768 69.154C64.0788 69.154 62.6228 67.544 62.6228 65.318C62.6228 62.784 64.2608 61.412 66.1368 61.412C68.1808 61.412 69.4968 62.784 69.5388 65.164V65.486H63.7848C63.8548 67.068 64.7788 68.146 66.2768 68.146C67.3128 68.146 68.0688 67.628 68.3768 66.662H69.5108C69.1748 68.188 67.9708 69.154 66.2768 69.154ZM63.8548 64.52H68.3208C68.1108 63.218 67.3268 62.42 66.1368 62.42C64.9608 62.42 64.0928 63.19 63.8548 64.52ZM72.2712 69H71.1092V58.5H72.2712V65.234L75.8832 61.58H77.2832L74.6092 64.282L77.6892 69H76.3312L73.8112 65.094L72.2712 66.648V69ZM79.8728 69H78.7108V58.5H79.8728V65.234L83.4848 61.58H84.8848L82.2108 64.282L85.2908 69H83.9328L81.4128 65.094L79.8728 66.648V69ZM89.1499 69.154C86.9519 69.154 85.4959 67.544 85.4959 65.318C85.4959 62.784 87.1339 61.412 89.0099 61.412C91.0539 61.412 92.3699 62.784 92.4119 65.164V65.486H86.6579C86.7279 67.068 87.6519 68.146 89.1499 68.146C90.1859 68.146 90.9419 67.628 91.2499 66.662H92.3839C92.0479 68.188 90.8439 69.154 89.1499 69.154ZM86.7279 64.52H91.1939C90.9839 63.218 90.1999 62.42 89.0099 62.42C87.8339 62.42 86.9659 63.19 86.7279 64.52ZM100.347 69.154C97.9668 69.154 96.7068 67.46 96.7068 65.22C96.7068 62.742 98.3308 61.412 100.347 61.412C102.713 61.412 103.987 63.12 103.987 65.22C103.987 67.782 102.433 69.154 100.347 69.154ZM100.347 68.146C101.929 68.146 102.797 66.83 102.797 65.22C102.797 63.554 101.831 62.42 100.347 62.42C98.8628 62.42 97.8968 63.554 97.8968 65.22C97.8968 67.124 99.0028 68.146 100.347 68.146ZM108.873 69H107.655L104.561 61.58H105.821L108.271 67.642L110.707 61.58H111.967L108.873 69ZM116.207 69.154C114.009 69.154 112.553 67.544 112.553 65.318C112.553 62.784 114.191 61.412 116.067 61.412C118.111 61.412 119.427 62.784 119.469 65.164V65.486H113.715C113.785 67.068 114.709 68.146 116.207 68.146C117.243 68.146 117.999 67.628 118.307 66.662H119.441C119.105 68.188 117.901 69.154 116.207 69.154ZM113.785 64.52H118.251C118.041 63.218 117.257 62.42 116.067 62.42C114.891 62.42 114.023 63.19 113.785 64.52ZM122.159 69H120.997V61.58H121.921L122.061 62.994C122.537 62.042 123.405 61.538 124.637 61.538H124.889V62.686H124.637C123.069 62.686 122.159 63.582 122.159 65.108V69ZM131.352 69H130.19V62.56H128.818V61.58H130.19V60.544C130.19 59.214 130.932 58.5 132.304 58.5H133.956V59.48H132.304C131.688 59.48 131.352 59.858 131.352 60.544V61.58H133.76V62.56H131.352V69ZM136.228 69H135.066V58.5H136.228V69ZM141.445 69.154C139.247 69.154 137.791 67.544 137.791 65.318C137.791 62.784 139.429 61.412 141.305 61.412C143.349 61.412 144.665 62.784 144.707 65.164V65.486H138.953C139.023 67.068 139.947 68.146 141.445 68.146C142.481 68.146 143.237 67.628 143.545 66.662H144.679C144.343 68.188 143.139 69.154 141.445 69.154ZM139.023 64.52H143.489C143.279 63.218 142.495 62.42 141.305 62.42C140.129 62.42 139.261 63.19 139.023 64.52ZM147.397 69H146.235V61.58H147.159L147.299 62.994C147.775 62.042 148.643 61.538 149.875 61.538H150.127V62.686H149.875C148.307 62.686 147.397 63.582 147.397 65.108V69ZM155.806 69H154.644V58.5H155.806V69ZM158.335 60.334C157.845 60.334 157.467 59.956 157.467 59.466C157.467 58.976 157.845 58.612 158.335 58.612C158.825 58.612 159.189 58.976 159.189 59.466C159.189 59.956 158.825 60.334 158.335 60.334ZM158.909 69H157.747V61.58H158.909V69ZM161.971 69H160.809V61.58H161.733L161.845 62.714C162.349 61.93 163.315 61.412 164.421 61.412C166.017 61.412 167.081 62.448 167.081 64.086V69H165.919V64.128C165.919 63.092 165.247 62.434 164.127 62.434C162.797 62.434 161.985 63.358 161.971 64.492V69ZM169.491 60.334C168.987 60.334 168.623 59.97 168.623 59.466C168.623 58.976 168.987 58.612 169.491 58.612C169.981 58.612 170.345 58.976 170.345 59.466C170.345 59.97 169.981 60.334 169.491 60.334ZM167.853 71.8H166.817V70.82H167.853C168.539 70.82 168.903 70.428 168.903 69.686V61.58H170.065V69.686C170.065 71.058 169.295 71.8 167.853 71.8ZM175.242 69.154C173.044 69.154 171.588 67.544 171.588 65.318C171.588 62.784 173.226 61.412 175.102 61.412C177.146 61.412 178.462 62.784 178.504 65.164V65.486H172.75C172.82 67.068 173.744 68.146 175.242 68.146C176.278 68.146 177.034 67.628 177.342 66.662H178.476C178.14 68.188 176.936 69.154 175.242 69.154ZM172.82 64.52H177.286C177.076 63.218 176.292 62.42 175.102 62.42C173.926 62.42 173.058 63.19 172.82 64.52ZM181.194 69H180.032V61.58H180.956L181.096 62.994C181.572 62.042 182.44 61.538 183.672 61.538H183.924V62.686H183.672C182.104 62.686 181.194 63.582 181.194 65.108V69ZM184.818 69.14C184.314 69.14 183.936 68.762 183.936 68.258C183.936 67.768 184.314 67.39 184.818 67.39C185.322 67.39 185.7 67.768 185.7 68.258C185.7 68.762 185.322 69.14 184.818 69.14Z" fill="#481125"/>
<rect x="35" y="102.5" width="297.5" height="165" rx="15.5" fill="white"/>
<rect x="35" y="102.5" width="297.5" height="165" rx="15.5" stroke="#691837"/>
<rect x="50.5" y="118" width="266.5" height="49" rx="16" fill="white"/>
<mask id="path-8-inside-1_621_2158" fill="white">
<path d="M54.5 130C54.5 125.582 58.0817 122 62.5 122H305C309.418 122 313 125.582 313 130V163H54.5V130Z"/>
</mask>
<path d="M54.5 122H313H54.5ZM313 164H54.5V162H313V164ZM54.5 163V122V163ZM313 122V163V122Z" fill="#481125" mask="url(#path-8-inside-1_621_2158)"/>
<g clip-path="url(#clip1_621_2158)">
<path d="M72.5 142.5C69.7433 142.5 67.5 140.257 67.5 137.5C67.5 136.624 67.7317 135.761 68.1708 135.003L68.1783 134.988C68.6198 134.233 69.2507 133.607 70.0086 133.17C70.7666 132.734 71.6254 132.503 72.5 132.5C75.2567 132.5 77.5 134.743 77.5 137.5C77.5 140.257 75.2567 142.5 72.5 142.5ZM68.9425 136.322C68.815 136.702 68.75 137.1 68.75 137.5C68.75 139.567 70.4325 141.25 72.5 141.25C73.4443 141.249 74.3535 140.892 75.0464 140.25C75.7393 139.609 76.1652 138.73 76.2392 137.788C75.5022 138.011 74.7366 138.124 73.9667 138.125H73.95C72.1239 138.114 70.3566 137.478 68.9425 136.322ZM69.5458 135.193C70.7635 136.27 72.3311 136.868 73.9567 136.875C74.6958 136.875 75.4208 136.753 76.1167 136.513C75.899 135.721 75.4274 135.021 74.7742 134.522C74.121 134.023 73.3221 133.752 72.5 133.75C71.3417 133.75 70.2558 134.285 69.5458 135.193Z" fill="#481125"/>
<path d="M80.625 152.5C80.4592 152.5 80.3003 152.434 80.1831 152.317C80.0658 152.2 80 152.041 80 151.875C80 147.739 76.6358 144.375 72.5 144.375C68.3642 144.375 65 147.739 65 151.875C65 152.041 64.9342 152.2 64.8169 152.317C64.6997 152.434 64.5408 152.5 64.375 152.5C64.2092 152.5 64.0503 152.434 63.9331 152.317C63.8158 152.2 63.75 152.041 63.75 151.875C63.75 147.05 67.675 143.125 72.5 143.125C77.325 143.125 81.25 147.05 81.25 151.875C81.25 152.041 81.1842 152.2 81.0669 152.317C80.9497 152.434 80.7908 152.5 80.625 152.5Z" fill="#481125"/>
</g>
<path d="M93.204 147H91.86V135.8H99.492V137.032H93.204V140.664H99.012V141.896H93.204V147ZM102.268 150.2H100.908V149.08H102.268C103.132 149.08 103.5 148.776 103.692 148.264L104.156 147H103.836L100.476 138.52H101.9L104.652 145.672L107.308 138.52H108.668L104.86 148.776C104.508 149.704 103.724 150.2 102.268 150.2ZM111.448 147H110.12V135H111.448V147ZM115.042 147H113.714V135H115.042V147ZM123.942 147.176C121.878 147.176 120.694 145.912 120.694 144.184V138.52H122.022V144.136C122.022 145.352 122.87 146.008 124.07 146.008C125.654 146.008 126.518 144.952 126.534 143.672V138.52H127.862V147H126.806L126.694 145.72C126.134 146.68 125.11 147.176 123.942 147.176ZM134.457 147H133.513C131.865 147 130.985 146.152 130.985 144.584V139.64H129.417V138.52H130.985V135.624H132.313V138.52H134.601V139.64H132.313V144.584C132.313 145.432 132.729 145.88 133.513 145.88H134.457V147ZM143.184 147.176C140.912 147.176 139.328 145.352 139.328 142.712C139.328 140.12 140.896 138.328 143.168 138.328C144.448 138.328 145.52 138.888 146.128 139.784V135H147.456V147H146.4L146.256 145.368C145.696 146.472 144.576 147.176 143.184 147.176ZM143.392 146.024C145.008 146.024 146.128 144.648 146.128 142.68C146.128 140.776 145.04 139.464 143.472 139.464C141.84 139.464 140.704 140.792 140.704 142.712C140.704 144.664 141.808 146.024 143.392 146.024ZM150.354 137.096C149.794 137.096 149.362 136.664 149.362 136.104C149.362 135.544 149.794 135.128 150.354 135.128C150.914 135.128 151.33 135.544 151.33 136.104C151.33 136.664 150.914 137.096 150.354 137.096ZM151.01 147H149.682V138.52H151.01V147ZM157.598 147H156.654C155.006 147 154.126 146.152 154.126 144.584V139.64H152.558V138.52H154.126V135.624H155.454V138.52H158.75V135.624H160.078V138.52H162.366V139.64H160.078V144.584C160.078 145.432 160.494 145.88 161.278 145.88H162.222V147H161.278C159.63 147 158.75 146.152 158.75 144.584V139.64H155.454V144.584C155.454 145.432 155.87 145.88 156.654 145.88H157.598V147ZM169.798 147H168.47V139.64H166.902V138.52H168.47V137.336C168.47 135.816 169.318 135 170.886 135H172.774V136.12H170.886C170.182 136.12 169.798 136.552 169.798 137.336V138.52H172.55V139.64H169.798V147ZM177.457 147.176C174.737 147.176 173.297 145.24 173.297 142.68C173.297 139.848 175.153 138.328 177.457 138.328C180.161 138.328 181.617 140.28 181.617 142.68C181.617 145.608 179.841 147.176 177.457 147.176ZM177.457 146.024C179.265 146.024 180.257 144.52 180.257 142.68C180.257 140.776 179.153 139.48 177.457 139.48C175.761 139.48 174.657 140.776 174.657 142.68C174.657 144.856 175.921 146.024 177.457 146.024ZM184.682 147H183.354V138.52H184.41L184.57 140.136C185.114 139.048 186.106 138.472 187.514 138.472H187.802V139.784H187.514C185.722 139.784 184.682 140.808 184.682 142.552V147ZM190.65 147H189.322V138.52H190.378L190.506 139.816C191.082 138.92 192.186 138.328 193.45 138.328C195.274 138.328 196.49 139.512 196.49 141.384V147H195.162V141.432C195.162 140.248 194.394 139.496 193.114 139.496C191.594 139.496 190.666 140.552 190.65 141.848V147ZM201.308 147.128C199.388 147.128 198.156 146.136 198.156 144.584C198.156 142.632 200.044 142.264 201.74 142.088C203.036 141.96 204.156 141.976 204.172 141.288C204.156 140.216 203.276 139.464 201.996 139.464C200.764 139.464 199.804 140.152 199.66 141.16H198.348C198.508 139.496 200.012 138.328 202.028 138.328C204.124 138.328 205.468 139.576 205.468 141.368V145.496C205.468 145.768 205.612 145.912 205.9 145.912H206.38V147H205.628C204.716 147 204.236 146.584 204.236 145.8V145.544C203.74 146.52 202.78 147.128 201.308 147.128ZM201.5 145.992C203.084 145.992 204.172 144.984 204.172 143.576V142.472C203.804 142.968 202.86 143.064 201.82 143.176C200.652 143.304 199.484 143.464 199.484 144.552C199.484 145.432 200.284 145.992 201.5 145.992ZM211.623 147H210.231L206.695 138.52H208.135L210.935 145.448L213.719 138.52H215.159L211.623 147ZM217.9 147H216.572V138.52H217.628L217.756 139.816C218.332 138.92 219.436 138.328 220.7 138.328C222.524 138.328 223.74 139.512 223.74 141.384V147H222.412V141.432C222.412 140.248 221.644 139.496 220.364 139.496C218.844 139.496 217.916 140.552 217.9 141.848V147ZM230.792 147H229.464V135H230.792V139.608C231.4 138.84 232.44 138.328 233.592 138.328C235.416 138.328 236.632 139.512 236.632 141.384V147H235.304V141.432C235.304 140.248 234.536 139.496 233.336 139.496C231.736 139.496 230.808 140.552 230.792 141.848V147ZM242.457 147.176C239.945 147.176 238.281 145.336 238.281 142.792C238.281 139.896 240.153 138.328 242.297 138.328C244.633 138.328 246.137 139.896 246.185 142.616V142.984H239.609C239.689 144.792 240.745 146.024 242.457 146.024C243.641 146.024 244.505 145.432 244.857 144.328H246.153C245.769 146.072 244.393 147.176 242.457 147.176ZM239.689 141.88H244.793C244.553 140.392 243.657 139.48 242.297 139.48C240.953 139.48 239.961 140.36 239.689 141.88ZM249.26 147H247.932V138.52H248.988L249.148 140.136C249.692 139.048 250.684 138.472 252.092 138.472H252.38V139.784H252.092C250.3 139.784 249.26 140.808 249.26 142.552V147Z" fill="#A35E70"/>
<rect x="50.5" y="183" width="266.5" height="69" rx="16" fill="white"/>
<mask id="path-14-inside-2_621_2158" fill="white">
<path d="M54.5 195C54.5 190.582 58.0817 187 62.5 187H305C309.418 187 313 190.582 313 195V248H54.5V195Z"/>
</mask>
<path d="M54.5 195C54.5 190.582 58.0817 187 62.5 187H305C309.418 187 313 190.582 313 195V248H54.5V195Z" fill="#F9EAED"/>
<path d="M54.5 187H313H54.5ZM313 250H54.5V246H313V250ZM54.5 248V187V248ZM313 187V248V187Z" fill="#481125" mask="url(#path-14-inside-2_621_2158)"/>
<g clip-path="url(#clip2_621_2158)">
<path d="M72.5 217.5C69.7433 217.5 67.5 215.257 67.5 212.5C67.5 211.624 67.7317 210.761 68.1708 210.003L68.1783 209.988C68.6198 209.233 69.2507 208.607 70.0086 208.17C70.7666 207.734 71.6254 207.503 72.5 207.5C75.2567 207.5 77.5 209.743 77.5 212.5C77.5 215.257 75.2567 217.5 72.5 217.5ZM68.9425 211.322C68.815 211.702 68.75 212.1 68.75 212.5C68.75 214.567 70.4325 216.25 72.5 216.25C73.4443 216.249 74.3535 215.892 75.0464 215.25C75.7393 214.609 76.1652 213.73 76.2392 212.788C75.5022 213.011 74.7366 213.124 73.9667 213.125H73.95C72.1239 213.114 70.3566 212.478 68.9425 211.322ZM69.5458 210.193C70.7635 211.27 72.3311 211.868 73.9567 211.875C74.6958 211.875 75.4208 211.753 76.1167 211.513C75.899 210.721 75.4274 210.021 74.7742 209.522C74.121 209.023 73.3221 208.752 72.5 208.75C71.3417 208.75 70.2558 209.285 69.5458 210.193Z" fill="#481125"/>
<path d="M80.625 227.5C80.4592 227.5 80.3003 227.434 80.1831 227.317C80.0658 227.2 80 227.041 80 226.875C80 222.739 76.6358 219.375 72.5 219.375C68.3642 219.375 65 222.739 65 226.875C65 227.041 64.9342 227.2 64.8169 227.317C64.6997 227.434 64.5408 227.5 64.375 227.5C64.2092 227.5 64.0503 227.434 63.9331 227.317C63.8158 227.2 63.75 227.041 63.75 226.875C63.75 222.05 67.675 218.125 72.5 218.125C77.325 218.125 81.25 222.05 81.25 226.875C81.25 227.041 81.1842 227.2 81.0669 227.317C80.9497 227.434 80.7908 227.5 80.625 227.5Z" fill="#481125"/>
</g>
<path d="M92.528 208H91.52V199.6H97.244V200.524H92.528V203.248H96.884V204.172H92.528V208ZM99.3262 210.4H98.3062V209.56H99.3262C99.9742 209.56 100.25 209.332 100.394 208.948L100.742 208H100.502L97.9822 201.64H99.0502L101.114 207.004L103.106 201.64H104.126L101.27 209.332C101.006 210.028 100.418 210.4 99.3262 210.4ZM106.211 208H105.215V199H106.211V208ZM108.907 208H107.911V199H108.907V208ZM115.581 208.132C114.033 208.132 113.145 207.184 113.145 205.888V201.64H114.141V205.852C114.141 206.764 114.777 207.256 115.677 207.256C116.865 207.256 117.513 206.464 117.525 205.504V201.64H118.521V208H117.729L117.645 207.04C117.225 207.76 116.457 208.132 115.581 208.132ZM123.468 208H122.76C121.524 208 120.864 207.364 120.864 206.188V202.48H119.688V201.64H120.864V199.468H121.86V201.64H123.576V202.48H121.86V206.188C121.86 206.824 122.172 207.16 122.76 207.16H123.468V208ZM130.013 208.132C128.309 208.132 127.121 206.764 127.121 204.784C127.121 202.84 128.297 201.496 130.001 201.496C130.961 201.496 131.765 201.916 132.221 202.588V199H133.217V208H132.425L132.317 206.776C131.897 207.604 131.057 208.132 130.013 208.132ZM130.169 207.268C131.381 207.268 132.221 206.236 132.221 204.76C132.221 203.332 131.405 202.348 130.229 202.348C129.005 202.348 128.153 203.344 128.153 204.784C128.153 206.248 128.981 207.268 130.169 207.268ZM135.39 200.572C134.97 200.572 134.646 200.248 134.646 199.828C134.646 199.408 134.97 199.096 135.39 199.096C135.81 199.096 136.122 199.408 136.122 199.828C136.122 200.248 135.81 200.572 135.39 200.572ZM135.882 208H134.886V201.64H135.882V208ZM140.823 208H140.115C138.879 208 138.219 207.364 138.219 206.188V202.48H137.043V201.64H138.219V199.468H139.215V201.64H141.687V199.468H142.683V201.64H144.399V202.48H142.683V206.188C142.683 206.824 142.995 207.16 143.583 207.16H144.291V208H143.583C142.347 208 141.687 207.364 141.687 206.188V202.48H139.215V206.188C139.215 206.824 139.527 207.16 140.115 207.16H140.823V208ZM149.973 208H148.977V202.48H147.801V201.64H148.977V200.752C148.977 199.612 149.613 199 150.789 199H152.205V199.84H150.789C150.261 199.84 149.973 200.164 149.973 200.752V201.64H152.037V202.48H149.973V208ZM155.717 208.132C153.677 208.132 152.597 206.68 152.597 204.76C152.597 202.636 153.989 201.496 155.717 201.496C157.745 201.496 158.837 202.96 158.837 204.76C158.837 206.956 157.505 208.132 155.717 208.132ZM155.717 207.268C157.073 207.268 157.817 206.14 157.817 204.76C157.817 203.332 156.989 202.36 155.717 202.36C154.445 202.36 153.617 203.332 153.617 204.76C153.617 206.392 154.565 207.268 155.717 207.268ZM161.136 208H160.14V201.64H160.932L161.052 202.852C161.46 202.036 162.204 201.604 163.26 201.604H163.476V202.588H163.26C161.916 202.588 161.136 203.356 161.136 204.664V208ZM165.613 208H164.617V201.64H165.409L165.505 202.612C165.937 201.94 166.765 201.496 167.713 201.496C169.081 201.496 169.993 202.384 169.993 203.788V208H168.997V203.824C168.997 202.936 168.421 202.372 167.461 202.372C166.321 202.372 165.625 203.164 165.613 204.136V208ZM173.606 208.096C172.166 208.096 171.242 207.352 171.242 206.188C171.242 204.724 172.658 204.448 173.93 204.316C174.902 204.22 175.742 204.232 175.754 203.716C175.742 202.912 175.082 202.348 174.122 202.348C173.198 202.348 172.478 202.864 172.37 203.62H171.386C171.506 202.372 172.634 201.496 174.146 201.496C175.718 201.496 176.726 202.432 176.726 203.776V206.872C176.726 207.076 176.834 207.184 177.05 207.184H177.41V208H176.846C176.162 208 175.802 207.688 175.802 207.1V206.908C175.43 207.64 174.71 208.096 173.606 208.096ZM173.75 207.244C174.938 207.244 175.754 206.488 175.754 205.432V204.604C175.478 204.976 174.77 205.048 173.99 205.132C173.114 205.228 172.238 205.348 172.238 206.164C172.238 206.824 172.838 207.244 173.75 207.244ZM181.342 208H180.298L177.646 201.64H178.726L180.826 206.836L182.914 201.64H183.994L181.342 208ZM186.05 208H185.054V201.64H185.846L185.942 202.612C186.374 201.94 187.202 201.496 188.15 201.496C189.518 201.496 190.43 202.384 190.43 203.788V208H189.434V203.824C189.434 202.936 188.858 202.372 187.898 202.372C186.758 202.372 186.062 203.164 186.05 204.136V208ZM195.719 208H194.723V199H195.719V202.456C196.175 201.88 196.955 201.496 197.819 201.496C199.187 201.496 200.099 202.384 200.099 203.788V208H199.103V203.824C199.103 202.936 198.527 202.372 197.627 202.372C196.427 202.372 195.731 203.164 195.719 204.136V208ZM204.468 208.132C202.584 208.132 201.336 206.752 201.336 204.844C201.336 202.672 202.74 201.496 204.348 201.496C206.1 201.496 207.228 202.672 207.264 204.712V204.988H202.332C202.392 206.344 203.184 207.268 204.468 207.268C205.356 207.268 206.004 206.824 206.268 205.996H207.24C206.952 207.304 205.92 208.132 204.468 208.132ZM202.392 204.16H206.22C206.04 203.044 205.368 202.36 204.348 202.36C203.34 202.36 202.596 203.02 202.392 204.16ZM209.57 208H208.574V201.64H209.366L209.486 202.852C209.894 202.036 210.638 201.604 211.694 201.604H211.91V202.588H211.694C210.35 202.588 209.57 203.356 209.57 204.664V208Z" fill="#481125"/>
<path d="M92.964 232H91.636V220H92.964V232Z" fill="#481125"/>
<rect x="397.75" y="32" width="20" height="20" rx="10" fill="#03834E"/>
<path d="M405.5 46.9167H405.167C404.75 46.8333 404.417 46.5833 404.25 46.25L402.25 43.3333C402.083 43.0833 402.083 42.6667 402.417 42.5C402.5 42.4167 402.667 42.4167 402.75 42.4167C402.917 42.4167 403.167 42.5 403.25 42.6667L405.333 45.5833C405.417 45.6667 405.417 45.6667 405.5 45.6667H405.583C405.667 45.6667 405.667 45.6667 405.75 45.5833C405.75 45.5833 405.833 45.5833 405.833 45.5L412.417 37.25C412.5 37.0833 412.75 37 412.917 37C413.083 37 413.167 37.0833 413.333 37.1667C413.5 37.25 413.583 37.4167 413.583 37.5833C413.583 37.75 413.583 37.9167 413.417 38.0833L406.917 46.3333L406.583 46.6667C406.083 46.8333 405.833 46.9167 405.5 46.9167Z" fill="#FDF9F9"/>
<path d="M433.758 48H426.94V38.2H433.632V39.278H428.102V42.372H433.072V43.422H428.102V46.922H433.758V48ZM439.261 48H438.435C436.993 48 436.223 47.258 436.223 45.886V41.56H434.851V40.58H436.223V38.046H437.385V40.58H439.387V41.56H437.385V45.886C437.385 46.628 437.749 47.02 438.435 47.02H439.261V48ZM441.345 39.334C440.855 39.334 440.477 38.956 440.477 38.466C440.477 37.976 440.855 37.612 441.345 37.612C441.835 37.612 442.199 37.976 442.199 38.466C442.199 38.956 441.835 39.334 441.345 39.334ZM441.919 48H440.757V40.58H441.919V48ZM445.023 48H443.861V37.5H445.023V44.234L448.635 40.58H450.035L447.361 43.282L450.441 48H449.083L446.563 44.094L445.023 45.648V48ZM454.3 48.154C452.102 48.154 450.646 46.544 450.646 44.318C450.646 41.784 452.284 40.412 454.16 40.412C456.204 40.412 457.52 41.784 457.562 44.164V44.486H451.808C451.878 46.068 452.802 47.146 454.3 47.146C455.336 47.146 456.092 46.628 456.4 45.662H457.534C457.198 47.188 455.994 48.154 454.3 48.154ZM451.878 43.52H456.344C456.134 42.218 455.35 41.42 454.16 41.42C452.984 41.42 452.116 42.19 451.878 43.52ZM462.763 48H461.937C460.495 48 459.725 47.258 459.725 45.886V41.56H458.353V40.58H459.725V38.046H460.887V40.58H463.771V38.046H464.933V40.58H466.935V41.56H464.933V45.886C464.933 46.628 465.297 47.02 465.983 47.02H466.809V48H465.983C464.541 48 463.771 47.258 463.771 45.886V41.56H460.887V45.886C460.887 46.628 461.251 47.02 461.937 47.02H462.763V48ZM473.976 44.136H467.984V43.156H473.976V44.136ZM479.416 48H478.59C477.148 48 476.378 47.258 476.378 45.886V41.56H475.006V40.58H476.378V38.046H477.54V40.58H479.542V41.56H477.54V45.886C477.54 46.628 477.904 47.02 478.59 47.02H479.416V48ZM484.009 48.154C481.811 48.154 480.355 46.544 480.355 44.318C480.355 41.784 481.993 40.412 483.869 40.412C485.913 40.412 487.229 41.784 487.271 44.164V44.486H481.517C481.587 46.068 482.511 47.146 484.009 47.146C485.045 47.146 485.801 46.628 486.109 45.662H487.243C486.907 47.188 485.703 48.154 484.009 48.154ZM481.587 43.52H486.053C485.843 42.218 485.059 41.42 483.869 41.42C482.693 41.42 481.825 42.19 481.587 43.52ZM490.004 48H488.842V37.5H490.004V44.234L493.616 40.58H495.016L492.342 43.282L495.422 48H494.064L491.544 44.094L490.004 45.648V48ZM499.146 48.154C497.382 48.154 496.08 47.23 495.982 45.662H497.116C497.2 46.628 498.082 47.16 499.202 47.16C500.252 47.16 500.756 46.754 500.756 46.012C500.756 45.312 500.21 45.158 499.44 44.892L498.362 44.528C497.27 44.164 496.178 43.828 496.178 42.484C496.178 41.224 497.158 40.412 498.782 40.412C500.42 40.412 501.554 41.294 501.736 42.946H500.602C500.476 41.91 499.748 41.406 498.74 41.406C497.83 41.406 497.298 41.812 497.298 42.456C497.298 43.226 498.11 43.38 498.726 43.59L499.734 43.926C501.092 44.374 501.904 44.836 501.904 46.068C501.904 47.37 500.952 48.154 499.146 48.154ZM507.005 48H506.179C504.737 48 503.967 47.258 503.967 45.886V41.56H502.595V40.58H503.967V38.046H505.129V40.58H507.131V41.56H505.129V45.886C505.129 46.628 505.493 47.02 506.179 47.02H507.005V48ZM511.599 48.154C509.401 48.154 507.945 46.544 507.945 44.318C507.945 41.784 509.583 40.412 511.459 40.412C513.503 40.412 514.819 41.784 514.861 44.164V44.486H509.107C509.177 46.068 510.101 47.146 511.599 47.146C512.635 47.146 513.391 46.628 513.699 45.662H514.833C514.497 47.188 513.293 48.154 511.599 48.154ZM509.177 43.52H513.643C513.433 42.218 512.649 41.42 511.459 41.42C510.283 41.42 509.415 42.19 509.177 43.52ZM517.552 48H516.39V40.58H517.314L517.454 41.994C517.93 41.042 518.798 40.538 520.03 40.538H520.282V41.686H520.03C518.462 41.686 517.552 42.582 517.552 44.108V48ZM527.529 48.154C525.765 48.154 524.463 47.23 524.365 45.662H525.499C525.583 46.628 526.465 47.16 527.585 47.16C528.635 47.16 529.139 46.754 529.139 46.012C529.139 45.312 528.593 45.158 527.823 44.892L526.745 44.528C525.653 44.164 524.561 43.828 524.561 42.484C524.561 41.224 525.541 40.412 527.165 40.412C528.803 40.412 529.937 41.294 530.119 42.946H528.985C528.859 41.91 528.131 41.406 527.123 41.406C526.213 41.406 525.681 41.812 525.681 42.456C525.681 43.226 526.493 43.38 527.109 43.59L528.117 43.926C529.475 44.374 530.287 44.836 530.287 46.068C530.287 47.37 529.335 48.154 527.529 48.154ZM532.92 48H531.758V37.5H532.92V44.234L536.532 40.58H537.932L535.258 43.282L538.338 48H536.98L534.46 44.094L532.92 45.648V48ZM541.643 48.112C539.963 48.112 538.885 47.244 538.885 45.886C538.885 44.178 540.537 43.856 542.021 43.702C543.155 43.59 544.135 43.604 544.149 43.002C544.135 42.064 543.365 41.406 542.245 41.406C541.167 41.406 540.327 42.008 540.201 42.89H539.053C539.193 41.434 540.509 40.412 542.273 40.412C544.107 40.412 545.283 41.504 545.283 43.072V46.684C545.283 46.922 545.409 47.048 545.661 47.048H546.081V48H545.423C544.625 48 544.205 47.636 544.205 46.95V46.726C543.771 47.58 542.931 48.112 541.643 48.112ZM541.811 47.118C543.197 47.118 544.149 46.236 544.149 45.004V44.038C543.827 44.472 543.001 44.556 542.091 44.654C541.069 44.766 540.047 44.906 540.047 45.858C540.047 46.628 540.747 47.118 541.811 47.118ZM548.588 48H547.426V37.5H548.588V48ZM557.313 48H556.095L553.001 40.58H554.261L556.711 46.642L559.147 40.58H560.407L557.313 48ZM569.938 48.154C568.37 48.154 567.194 47.342 566.634 46.068C566.312 47.314 565.374 48.112 563.778 48.112C562.098 48.112 561.02 47.244 561.02 45.886C561.02 44.178 562.672 43.856 564.156 43.702C565.29 43.59 566.27 43.604 566.284 43.002C566.27 42.064 565.5 41.406 564.38 41.406C563.302 41.406 562.462 42.008 562.336 42.89H561.188C561.328 41.434 562.644 40.412 564.408 40.412C565.654 40.412 566.592 40.916 567.068 41.728C567.726 40.86 568.72 40.412 569.798 40.412C571.842 40.412 573.158 41.784 573.2 44.164V44.486H567.446C567.516 46.068 568.44 47.146 569.938 47.146C570.974 47.146 571.73 46.628 572.038 45.662H573.172C572.836 47.188 571.632 48.154 569.938 48.154ZM567.516 43.52H571.982C571.772 42.218 570.988 41.42 569.798 41.42C568.622 41.42 567.754 42.19 567.516 43.52ZM563.946 47.118C565.332 47.118 566.284 46.236 566.284 45.004V44.038C565.962 44.472 565.136 44.556 564.226 44.654C563.204 44.766 562.182 44.906 562.182 45.858C562.182 46.628 562.882 47.118 563.946 47.118ZM575.889 48H574.727V40.58H575.651L575.791 41.994C576.267 41.042 577.135 40.538 578.367 40.538H578.619V41.686H578.367C576.799 41.686 575.889 42.582 575.889 44.108V48ZM582.884 48.154C580.686 48.154 579.23 46.544 579.23 44.318C579.23 41.784 580.868 40.412 582.744 40.412C584.788 40.412 586.104 41.784 586.146 44.164V44.486H580.392C580.462 46.068 581.386 47.146 582.884 47.146C583.92 47.146 584.676 46.628 584.984 45.662H586.118C585.782 47.188 584.578 48.154 582.884 48.154ZM580.462 43.52H584.928C584.718 42.218 583.934 41.42 582.744 41.42C581.568 41.42 580.7 42.19 580.462 43.52ZM592.023 48H590.861V37.5H592.023V44.234L595.635 40.58H597.035L594.361 43.282L597.441 48H596.083L593.563 44.094L592.023 45.648V48ZM601.286 48.154C598.906 48.154 597.646 46.46 597.646 44.22C597.646 41.742 599.27 40.412 601.286 40.412C603.652 40.412 604.926 42.12 604.926 44.22C604.926 46.782 603.372 48.154 601.286 48.154ZM601.286 47.146C602.868 47.146 603.736 45.83 603.736 44.22C603.736 42.554 602.77 41.42 601.286 41.42C599.802 41.42 598.836 42.554 598.836 44.22C598.836 46.124 599.942 47.146 601.286 47.146ZM607.608 48H606.446V40.58H607.37L607.51 41.994C607.986 41.042 608.854 40.538 610.086 40.538H610.338V41.686H610.086C608.518 41.686 607.608 42.582 607.608 44.108V48ZM615.533 48H614.707C613.265 48 612.495 47.258 612.495 45.886V41.56H611.123V40.58H612.495V38.046H613.657V40.58H615.659V41.56H613.657V45.886C613.657 46.628 614.021 47.02 614.707 47.02H615.533V48ZM620.126 48.154C617.928 48.154 616.472 46.544 616.472 44.318C616.472 41.784 618.11 40.412 619.986 40.412C622.03 40.412 623.346 41.784 623.388 44.164V44.486H617.634C617.704 46.068 618.628 47.146 620.126 47.146C621.162 47.146 621.918 46.628 622.226 45.662H623.36C623.024 47.188 621.82 48.154 620.126 48.154ZM617.704 43.52H622.17C621.96 42.218 621.176 41.42 619.986 41.42C618.81 41.42 617.942 42.19 617.704 43.52ZM631.323 48.154C628.943 48.154 627.683 46.46 627.683 44.22C627.683 41.742 629.307 40.412 631.323 40.412C633.689 40.412 634.963 42.12 634.963 44.22C634.963 46.782 633.409 48.154 631.323 48.154ZM631.323 47.146C632.905 47.146 633.773 45.83 633.773 44.22C633.773 42.554 632.807 41.42 631.323 41.42C629.839 41.42 628.873 42.554 628.873 44.22C628.873 46.124 629.979 47.146 631.323 47.146ZM639.717 50.968C637.715 50.968 636.357 50.002 636.357 48.434H637.519C637.519 49.316 638.415 49.988 639.717 49.988C641.243 49.988 642.041 49.078 642.041 47.804V46.6C641.523 47.37 640.627 47.874 639.493 47.874C637.519 47.874 636.105 46.362 636.105 44.178C636.105 41.952 637.533 40.412 639.493 40.412C640.683 40.412 641.649 40.972 642.153 41.868L642.279 40.58H643.189V47.804C643.189 49.68 641.929 50.968 639.717 50.968ZM639.661 46.866C641.061 46.866 642.041 45.746 642.041 44.136C642.041 42.54 641.061 41.42 639.661 41.42C638.275 41.42 637.309 42.54 637.309 44.164C637.309 45.76 638.275 46.866 639.661 46.866ZM652.105 48H651.279C649.837 48 649.067 47.258 649.067 45.886V41.56H647.695V40.58H649.067V38.046H650.229V40.58H652.231V41.56H650.229V45.886C650.229 46.628 650.593 47.02 651.279 47.02H652.105V48ZM654.496 50.8H653.306V49.82H654.496C655.252 49.82 655.574 49.554 655.742 49.106L656.148 48H655.868L652.928 40.58H654.174L656.582 46.838L658.906 40.58H660.096L656.764 49.554C656.456 50.366 655.77 50.8 654.496 50.8ZM664.048 48.154C662.06 48.154 660.674 46.558 660.674 44.248C660.674 41.98 662.046 40.412 664.034 40.412C665.154 40.412 666.092 40.902 666.624 41.686V37.5H667.786V48H666.862L666.736 46.572C666.246 47.538 665.266 48.154 664.048 48.154ZM664.23 47.146C665.644 47.146 666.624 45.942 666.624 44.22C666.624 42.554 665.672 41.406 664.3 41.406C662.872 41.406 661.878 42.568 661.878 44.248C661.878 45.956 662.844 47.146 664.23 47.146ZM673.009 48.154C670.811 48.154 669.355 46.544 669.355 44.318C669.355 41.784 670.993 40.412 672.869 40.412C674.913 40.412 676.229 41.784 676.271 44.164V44.486H670.517C670.587 46.068 671.511 47.146 673.009 47.146C674.045 47.146 674.801 46.628 675.109 45.662H676.243C675.907 47.188 674.703 48.154 673.009 48.154ZM670.587 43.52H675.053C674.843 42.218 674.059 41.42 672.869 41.42C671.693 41.42 670.825 42.19 670.587 43.52ZM679.004 48H677.842V37.5H679.004V48ZM681.532 39.334C681.042 39.334 680.664 38.956 680.664 38.466C680.664 37.976 681.042 37.612 681.532 37.612C682.022 37.612 682.386 37.976 682.386 38.466C682.386 38.956 682.022 39.334 681.532 39.334ZM682.106 48H680.944V40.58H682.106V48ZM687.241 50.968C685.239 50.968 683.881 50.002 683.881 48.434H685.043C685.043 49.316 685.939 49.988 687.241 49.988C688.767 49.988 689.565 49.078 689.565 47.804V46.6C689.047 47.37 688.151 47.874 687.017 47.874C685.043 47.874 683.629 46.362 683.629 44.178C683.629 41.952 685.057 40.412 687.017 40.412C688.207 40.412 689.173 40.972 689.677 41.868L689.803 40.58H690.713V47.804C690.713 49.68 689.453 50.968 687.241 50.968ZM687.185 46.866C688.585 46.866 689.565 45.746 689.565 44.136C689.565 42.54 688.585 41.42 687.185 41.42C685.799 41.42 684.833 42.54 684.833 44.164C684.833 45.76 685.799 46.866 687.185 46.866ZM695.896 48.154C693.698 48.154 692.242 46.544 692.242 44.318C692.242 41.784 693.88 40.412 695.756 40.412C697.8 40.412 699.116 41.784 699.158 44.164V44.486H693.404C693.474 46.068 694.398 47.146 695.896 47.146C696.932 47.146 697.688 46.628 697.996 45.662H699.13C698.794 47.188 697.59 48.154 695.896 48.154ZM693.474 43.52H697.94C697.73 42.218 696.946 41.42 695.756 41.42C694.58 41.42 693.712 42.19 693.474 43.52ZM701.316 48.14C700.812 48.14 700.434 47.762 700.434 47.258C700.434 46.768 700.812 46.39 701.316 46.39C701.82 46.39 702.198 46.768 702.198 47.258C702.198 47.762 701.82 48.14 701.316 48.14Z" fill="#481125"/>
<rect x="398.25" y="98.5" width="306" height="165" rx="15.5" fill="white"/>
<rect x="398.25" y="98.5" width="306" height="165" rx="15.5" stroke="#691837"/>
<rect x="413.75" y="114" width="275" height="49" rx="16" fill="white"/>
<mask id="path-26-inside-3_621_2158" fill="white">
<path d="M417.75 126C417.75 121.582 421.332 118 425.75 118H676.75C681.168 118 684.75 121.582 684.75 126V159H417.75V126Z"/>
</mask>
<path d="M417.75 118H684.75H417.75ZM684.75 160H417.75V158H684.75V160ZM417.75 159V118V159ZM684.75 118V159V118Z" fill="#481125" mask="url(#path-26-inside-3_621_2158)"/>
<g clip-path="url(#clip3_621_2158)">
<path d="M435.75 138.5C432.993 138.5 430.75 136.257 430.75 133.5C430.75 132.624 430.982 131.761 431.421 131.003L431.428 130.988C431.87 130.233 432.501 129.607 433.259 129.17C434.017 128.734 434.875 128.503 435.75 128.5C438.507 128.5 440.75 130.743 440.75 133.5C440.75 136.257 438.507 138.5 435.75 138.5ZM432.192 132.322C432.065 132.702 432 133.1 432 133.5C432 135.567 433.682 137.25 435.75 137.25C436.694 137.249 437.603 136.892 438.296 136.25C438.989 135.609 439.415 134.73 439.489 133.788C438.752 134.011 437.987 134.124 437.217 134.125H437.2C435.374 134.114 433.607 133.478 432.192 132.322ZM432.796 131.193C434.013 132.27 435.581 132.868 437.207 132.875C437.946 132.875 438.671 132.753 439.367 132.513C439.149 131.721 438.677 131.021 438.024 130.522C437.371 130.023 436.572 129.752 435.75 129.75C434.592 129.75 433.506 130.285 432.796 131.193Z" fill="#481125"/>
<path d="M443.875 148.5C443.709 148.5 443.55 148.434 443.433 148.317C443.316 148.2 443.25 148.041 443.25 147.875C443.25 143.739 439.886 140.375 435.75 140.375C431.614 140.375 428.25 143.739 428.25 147.875C428.25 148.041 428.184 148.2 428.067 148.317C427.95 148.434 427.791 148.5 427.625 148.5C427.459 148.5 427.3 148.434 427.183 148.317C427.066 148.2 427 148.041 427 147.875C427 143.05 430.925 139.125 435.75 139.125C440.575 139.125 444.5 143.05 444.5 147.875C444.5 148.041 444.434 148.2 444.317 148.317C444.2 148.434 444.041 148.5 443.875 148.5Z" fill="#481125"/>
</g>
<path d="M456.454 143H455.11V131.8H462.742V133.032H456.454V136.664H462.262V137.896H456.454V143ZM468.222 143.176C465.502 143.176 464.062 141.24 464.062 138.68C464.062 135.848 465.918 134.328 468.222 134.328C470.926 134.328 472.382 136.28 472.382 138.68C472.382 141.608 470.606 143.176 468.222 143.176ZM468.222 142.024C470.03 142.024 471.022 140.52 471.022 138.68C471.022 136.776 469.918 135.48 468.222 135.48C466.526 135.48 465.422 136.776 465.422 138.68C465.422 140.856 466.686 142.024 468.222 142.024ZM475.447 143H474.119V134.52H475.175L475.335 136.136C475.879 135.048 476.871 134.472 478.279 134.472H478.567V135.784H478.279C476.487 135.784 475.447 136.808 475.447 138.552V143ZM481.416 143H480.088V134.52H481.144L481.272 135.816C481.848 134.92 482.952 134.328 484.216 134.328C486.04 134.328 487.256 135.512 487.256 137.384V143H485.928V137.432C485.928 136.248 485.16 135.496 483.88 135.496C482.36 135.496 481.432 136.552 481.416 137.848V143ZM492.074 143.128C490.154 143.128 488.922 142.136 488.922 140.584C488.922 138.632 490.81 138.264 492.506 138.088C493.802 137.96 494.922 137.976 494.938 137.288C494.922 136.216 494.042 135.464 492.762 135.464C491.53 135.464 490.57 136.152 490.426 137.16H489.114C489.274 135.496 490.778 134.328 492.794 134.328C494.89 134.328 496.234 135.576 496.234 137.368V141.496C496.234 141.768 496.378 141.912 496.666 141.912H497.146V143H496.394C495.482 143 495.002 142.584 495.002 141.8V141.544C494.506 142.52 493.546 143.128 492.074 143.128ZM492.266 141.992C493.85 141.992 494.938 140.984 494.938 139.576V138.472C494.57 138.968 493.626 139.064 492.586 139.176C491.418 139.304 490.25 139.464 490.25 140.552C490.25 141.432 491.05 141.992 492.266 141.992ZM502.389 143H500.997L497.461 134.52H498.901L501.701 141.448L504.485 134.52H505.925L502.389 143ZM508.666 143H507.338V134.52H508.394L508.522 135.816C509.098 134.92 510.202 134.328 511.466 134.328C513.29 134.328 514.506 135.512 514.506 137.384V143H513.178V137.432C513.178 136.248 512.41 135.496 511.13 135.496C509.61 135.496 508.682 136.552 508.666 137.848V143Z" fill="#A35E70"/>
<rect x="413.75" y="179" width="275" height="69" rx="16" fill="white"/>
<mask id="path-32-inside-4_621_2158" fill="white">
<path d="M417.75 191C417.75 186.582 421.332 183 425.75 183H676.75C681.168 183 684.75 186.582 684.75 191V244H417.75V191Z"/>
</mask>
<path d="M417.75 191C417.75 186.582 421.332 183 425.75 183H676.75C681.168 183 684.75 186.582 684.75 191V244H417.75V191Z" fill="#F9EAED"/>
<path d="M417.75 183H684.75H417.75ZM684.75 246H417.75V242H684.75V246ZM417.75 244V183V244ZM684.75 183V244V183Z" fill="#481125" mask="url(#path-32-inside-4_621_2158)"/>
<g clip-path="url(#clip4_621_2158)">
<path d="M435.75 213.5C432.993 213.5 430.75 211.257 430.75 208.5C430.75 207.624 430.982 206.761 431.421 206.003L431.428 205.988C431.87 205.233 432.501 204.607 433.259 204.17C434.017 203.734 434.875 203.503 435.75 203.5C438.507 203.5 440.75 205.743 440.75 208.5C440.75 211.257 438.507 213.5 435.75 213.5ZM432.192 207.322C432.065 207.702 432 208.1 432 208.5C432 210.567 433.682 212.25 435.75 212.25C436.694 212.249 437.603 211.892 438.296 211.25C438.989 210.609 439.415 209.73 439.489 208.788C438.752 209.011 437.987 209.124 437.217 209.125H437.2C435.374 209.114 433.607 208.478 432.192 207.322ZM432.796 206.193C434.013 207.27 435.581 207.868 437.207 207.875C437.946 207.875 438.671 207.753 439.367 207.513C439.149 206.721 438.677 206.021 438.024 205.522C437.371 205.023 436.572 204.752 435.75 204.75C434.592 204.75 433.506 205.285 432.796 206.193Z" fill="#481125"/>
<path d="M443.875 223.5C443.709 223.5 443.55 223.434 443.433 223.317C443.316 223.2 443.25 223.041 443.25 222.875C443.25 218.739 439.886 215.375 435.75 215.375C431.614 215.375 428.25 218.739 428.25 222.875C428.25 223.041 428.184 223.2 428.067 223.317C427.95 223.434 427.791 223.5 427.625 223.5C427.459 223.5 427.3 223.434 427.183 223.317C427.066 223.2 427 223.041 427 222.875C427 218.05 430.925 214.125 435.75 214.125C440.575 214.125 444.5 218.05 444.5 222.875C444.5 223.041 444.434 223.2 444.317 223.317C444.2 223.434 444.041 223.5 443.875 223.5Z" fill="#481125"/>
</g>
<path d="M455.778 204H454.77V195.6H460.494V196.524H455.778V199.248H460.134V200.172H455.778V204ZM464.604 204.132C462.564 204.132 461.484 202.68 461.484 200.76C461.484 198.636 462.876 197.496 464.604 197.496C466.632 197.496 467.724 198.96 467.724 200.76C467.724 202.956 466.392 204.132 464.604 204.132ZM464.604 203.268C465.96 203.268 466.704 202.14 466.704 200.76C466.704 199.332 465.876 198.36 464.604 198.36C463.332 198.36 462.504 199.332 462.504 200.76C462.504 202.392 463.452 203.268 464.604 203.268ZM470.023 204H469.027V197.64H469.819L469.939 198.852C470.347 198.036 471.091 197.604 472.147 197.604H472.363V198.588H472.147C470.803 198.588 470.023 199.356 470.023 200.664V204ZM474.5 204H473.504V197.64H474.296L474.392 198.612C474.824 197.94 475.652 197.496 476.6 197.496C477.968 197.496 478.88 198.384 478.88 199.788V204H477.884V199.824C477.884 198.936 477.308 198.372 476.348 198.372C475.208 198.372 474.512 199.164 474.5 200.136V204ZM482.493 204.096C481.053 204.096 480.129 203.352 480.129 202.188C480.129 200.724 481.545 200.448 482.817 200.316C483.789 200.22 484.629 200.232 484.641 199.716C484.629 198.912 483.969 198.348 483.009 198.348C482.085 198.348 481.365 198.864 481.257 199.62H480.273C480.393 198.372 481.521 197.496 483.033 197.496C484.605 197.496 485.613 198.432 485.613 199.776V202.872C485.613 203.076 485.721 203.184 485.937 203.184H486.297V204H485.733C485.049 204 484.689 203.688 484.689 203.1V202.908C484.317 203.64 483.597 204.096 482.493 204.096ZM482.637 203.244C483.825 203.244 484.641 202.488 484.641 201.432V200.604C484.365 200.976 483.657 201.048 482.877 201.132C482.001 201.228 481.125 201.348 481.125 202.164C481.125 202.824 481.725 203.244 482.637 203.244ZM490.229 204H489.185L486.533 197.64H487.613L489.713 202.836L491.801 197.64H492.881L490.229 204ZM494.937 204H493.941V197.64H494.733L494.829 198.612C495.261 197.94 496.089 197.496 497.037 197.496C498.405 197.496 499.317 198.384 499.317 199.788V204H498.321V199.824C498.321 198.936 497.745 198.372 496.785 198.372C495.645 198.372 494.949 199.164 494.937 200.136V204Z" fill="#481125"/>
<path d="M456.214 228H454.886V216H456.214V228Z" fill="#481125"/>
<defs>
<clipPath id="clip0_621_2158">
<rect width="8" height="8" fill="white" transform="translate(26.5 34)"/>
</clipPath>
<clipPath id="clip1_621_2158">
<rect width="20" height="20" fill="white" transform="translate(62.5 132.5)"/>
</clipPath>
<clipPath id="clip2_621_2158">
<rect width="20" height="20" fill="white" transform="translate(62.5 207.5)"/>
</clipPath>
<clipPath id="clip3_621_2158">
<rect width="20" height="20" fill="white" transform="translate(425.75 128.5)"/>
</clipPath>
<clipPath id="clip4_621_2158">
<rect width="20" height="20" fill="white" transform="translate(425.75 203.5)"/>
</clipPath>
</defs>
</svg>
