<svg width="736" height="337" viewBox="0 0 736 337" fill="none" xmlns="http://www.w3.org/2000/svg">
<path d="M0 16.0322C0 7.19567 7.16344 0.0322266 16 0.0322266H720C728.837 0.0322266 736 7.19567 736 16.0322V168.032H0V16.0322Z" fill="white"/>
<path d="M110.5 50.0322C110.5 45.6139 114.082 42.0322 118.5 42.0322H185.5C189.918 42.0322 193.5 45.6139 193.5 50.0322V74.0322C193.5 78.4505 189.918 82.0322 185.5 82.0322H118.5C114.082 82.0322 110.5 78.4505 110.5 74.0322V50.0322Z" fill="#F9EAED"/>
<path d="M129.204 67.5322H127.86V56.3322H129.204V67.5322ZM135.075 67.7082C132.803 67.7082 131.219 65.8842 131.219 63.2442C131.219 60.6522 132.787 58.8602 135.059 58.8602C136.339 58.8602 137.411 59.4202 138.019 60.3162V55.5322H139.347V67.5322H138.291L138.147 65.9002C137.587 67.0042 136.467 67.7082 135.075 67.7082ZM135.283 66.5562C136.899 66.5562 138.019 65.1802 138.019 63.2122C138.019 61.3082 136.931 59.9962 135.363 59.9962C133.731 59.9962 132.595 61.3242 132.595 63.2442C132.595 65.1962 133.699 66.5562 135.283 66.5562ZM142.948 67.5322H141.62V55.5322H142.948V67.5322ZM148.91 67.7082C146.398 67.7082 144.734 65.8682 144.734 63.3242C144.734 60.4282 146.606 58.8602 148.75 58.8602C151.086 58.8602 152.59 60.4282 152.638 63.1482V63.5162H146.062C146.142 65.3242 147.198 66.5562 148.91 66.5562C150.094 66.5562 150.958 65.9642 151.31 64.8602H152.606C152.222 66.6042 150.846 67.7082 148.91 67.7082ZM146.142 62.4122H151.246C151.006 60.9242 150.11 60.0122 148.75 60.0122C147.406 60.0122 146.414 60.8922 146.142 62.4122Z" fill="#3A0710"/>
<g clip-path="url(#clip0_573_1589)">
<path d="M170 69.5322C169.901 69.5316 169.805 69.5019 169.723 69.4469C169.641 69.3918 169.578 69.3138 169.54 69.2226C169.502 69.1314 169.492 69.0311 169.511 68.9343C169.53 68.8374 169.577 68.7484 169.647 68.6782L175.793 62.5316H162C161.868 62.5316 161.74 62.4789 161.647 62.3852C161.553 62.2915 161.5 62.1644 161.5 62.0319C161.5 61.8994 161.553 61.7723 161.647 61.6786C161.74 61.5849 161.868 61.5322 162 61.5322H175.793L169.646 55.3856C169.599 55.3393 169.562 55.2842 169.537 55.2235C169.512 55.1629 169.499 55.0978 169.499 55.0321C169.499 54.9664 169.512 54.9013 169.538 54.8407C169.563 54.7801 169.6 54.7251 169.647 54.6789C169.741 54.5842 169.867 54.5322 170 54.5322C170.133 54.5322 170.259 54.5842 170.353 54.6789L177.353 61.6789C177.4 61.7255 177.437 61.7811 177.462 61.8422L177.469 61.8596C177.511 61.9706 177.511 62.0932 177.469 62.2042L177.465 62.2149C177.44 62.2791 177.402 62.3374 177.353 62.3862L170.353 69.3856C170.307 69.4322 170.252 69.4692 170.192 69.4944C170.131 69.5196 170.066 69.5324 170 69.5322Z" fill="#3A0710"/>
</g>
<path d="M217.5 50.0322C217.5 45.6139 221.082 42.0322 225.5 42.0322H292.5C296.918 42.0322 300.5 45.6139 300.5 50.0322V74.0322C300.5 78.4505 296.918 82.0322 292.5 82.0322H225.5C221.082 82.0322 217.5 78.4505 217.5 74.0322V50.0322Z" fill="#F9EAED"/>
<path d="M236.204 67.5322H234.86V56.3322H236.204V67.5322ZM242.075 67.7082C239.803 67.7082 238.219 65.8842 238.219 63.2442C238.219 60.6522 239.787 58.8602 242.059 58.8602C243.339 58.8602 244.411 59.4202 245.019 60.3162V55.5322H246.347V67.5322H245.291L245.147 65.9002C244.587 67.0042 243.467 67.7082 242.075 67.7082ZM242.283 66.5562C243.899 66.5562 245.019 65.1802 245.019 63.2122C245.019 61.3082 243.931 59.9962 242.363 59.9962C240.731 59.9962 239.595 61.3242 239.595 63.2442C239.595 65.1962 240.699 66.5562 242.283 66.5562ZM249.948 67.5322H248.62V55.5322H249.948V67.5322ZM255.91 67.7082C253.398 67.7082 251.734 65.8682 251.734 63.3242C251.734 60.4282 253.606 58.8602 255.75 58.8602C258.086 58.8602 259.59 60.4282 259.638 63.1482V63.5162H253.062C253.142 65.3242 254.198 66.5562 255.91 66.5562C257.094 66.5562 257.958 65.9642 258.31 64.8602H259.606C259.222 66.6042 257.846 67.7082 255.91 67.7082ZM253.142 62.4122H258.246C258.006 60.9242 257.11 60.0122 255.75 60.0122C254.406 60.0122 253.414 60.8922 253.142 62.4122Z" fill="#3A0710"/>
<g clip-path="url(#clip1_573_1589)">
<path d="M277 69.5322C276.902 69.5316 276.805 69.5019 276.723 69.4469C276.641 69.3918 276.578 69.3138 276.54 69.2226C276.502 69.1314 276.492 69.0311 276.511 68.9343C276.53 68.8374 276.577 68.7484 276.647 68.6782L282.794 62.5316H269C268.868 62.5316 268.741 62.4789 268.647 62.3852C268.553 62.2915 268.5 62.1644 268.5 62.0319C268.5 61.8994 268.553 61.7723 268.647 61.6786C268.741 61.5849 268.868 61.5322 269 61.5322H282.793L276.646 55.3856C276.6 55.3393 276.563 55.2842 276.537 55.2235C276.512 55.1629 276.499 55.0978 276.499 55.0321C276.499 54.9664 276.512 54.9013 276.538 54.8407C276.563 54.7801 276.6 54.7251 276.647 54.6789C276.741 54.5842 276.867 54.5322 277 54.5322C277.134 54.5322 277.26 54.5842 277.354 54.6789L284.354 61.6789C284.4 61.7255 284.437 61.7811 284.462 61.8422L284.469 61.8596C284.511 61.9706 284.511 62.0932 284.469 62.2042L284.465 62.2149C284.44 62.2791 284.402 62.3374 284.353 62.3862L277.354 69.3856C277.307 69.4322 277.252 69.4692 277.192 69.4944C277.131 69.5196 277.066 69.5324 277 69.5322Z" fill="#3A0710"/>
</g>
<rect x="215.5" y="41.0322" width="87.8" height="43" rx="8.4" fill="#F9EAED"/>
<path d="M235.139 68.5322H233.728V56.7722H235.139V68.5322ZM241.303 68.717C238.918 68.717 237.254 66.8018 237.254 64.0298C237.254 61.3082 238.901 59.4266 241.286 59.4266C242.63 59.4266 243.756 60.0146 244.394 60.9554V55.9322H245.789V68.5322H244.68L244.529 66.8186C243.941 67.9778 242.765 68.717 241.303 68.717ZM241.522 67.5074C243.218 67.5074 244.394 66.0626 244.394 63.9962C244.394 61.997 243.252 60.6194 241.606 60.6194C239.892 60.6194 238.699 62.0138 238.699 64.0298C238.699 66.0794 239.858 67.5074 241.522 67.5074ZM249.571 68.5322H248.176V55.9322H249.571V68.5322ZM255.831 68.717C253.193 68.717 251.446 66.785 251.446 64.1138C251.446 61.073 253.411 59.4266 255.663 59.4266C258.115 59.4266 259.695 61.073 259.745 63.929V64.3154H252.84C252.924 66.2138 254.033 67.5074 255.831 67.5074C257.074 67.5074 257.981 66.8858 258.351 65.7266H259.711C259.308 67.5578 257.863 68.717 255.831 68.717ZM252.924 63.1562H258.283C258.031 61.5938 257.091 60.6362 255.663 60.6362C254.251 60.6362 253.21 61.5602 252.924 63.1562Z" fill="#3A0710"/>
<g clip-path="url(#clip2_573_1589)">
<path d="M278.625 70.4072C278.522 70.4066 278.42 70.3754 278.334 70.3176C278.248 70.2598 278.181 70.1778 278.142 70.0821C278.102 69.9863 278.092 69.881 278.112 69.7794C278.132 69.6777 278.181 69.5842 278.254 69.5105L284.708 63.0565H270.225C270.086 63.0565 269.952 63.0012 269.854 62.9029C269.756 62.8045 269.7 62.671 269.7 62.5319C269.7 62.3927 269.756 62.2593 269.854 62.1609C269.952 62.0625 270.086 62.0072 270.225 62.0072H284.708L278.253 55.5532C278.204 55.5046 278.166 55.4468 278.139 55.3831C278.113 55.3194 278.099 55.2511 278.099 55.1821C278.099 55.1131 278.113 55.0448 278.14 54.9811C278.166 54.9175 278.205 54.8597 278.254 54.8112C278.353 54.7118 278.485 54.6572 278.625 54.6572C278.765 54.6572 278.897 54.7118 278.996 54.8112L286.346 62.1612C286.395 62.2102 286.434 62.2685 286.46 62.3327L286.467 62.3509C286.511 62.4675 286.511 62.5962 286.467 62.7128L286.463 62.724C286.437 62.7914 286.397 62.8526 286.346 62.9039L278.996 70.2532C278.948 70.3022 278.89 70.341 278.826 70.3675C278.762 70.3939 278.694 70.4074 278.625 70.4072Z" fill="#3A0710"/>
</g>
<path d="M324.5 50.0322C324.5 45.6139 328.082 42.0322 332.5 42.0322H399.5C403.918 42.0322 407.5 45.6139 407.5 50.0322V74.0322C407.5 78.4505 403.918 82.0322 399.5 82.0322H332.5C328.082 82.0322 324.5 78.4505 324.5 74.0322V50.0322Z" fill="#F9EAED"/>
<path d="M343.204 67.5322H341.86V56.3322H343.204V67.5322ZM349.075 67.7082C346.803 67.7082 345.219 65.8842 345.219 63.2442C345.219 60.6522 346.787 58.8602 349.059 58.8602C350.339 58.8602 351.411 59.4202 352.019 60.3162V55.5322H353.347V67.5322H352.291L352.147 65.9002C351.587 67.0042 350.467 67.7082 349.075 67.7082ZM349.283 66.5562C350.899 66.5562 352.019 65.1802 352.019 63.2122C352.019 61.3082 350.931 59.9962 349.363 59.9962C347.731 59.9962 346.595 61.3242 346.595 63.2442C346.595 65.1962 347.699 66.5562 349.283 66.5562ZM356.948 67.5322H355.62V55.5322H356.948V67.5322ZM362.91 67.7082C360.398 67.7082 358.734 65.8682 358.734 63.3242C358.734 60.4282 360.606 58.8602 362.75 58.8602C365.086 58.8602 366.59 60.4282 366.638 63.1482V63.5162H360.062C360.142 65.3242 361.198 66.5562 362.91 66.5562C364.094 66.5562 364.958 65.9642 365.31 64.8602H366.606C366.222 66.6042 364.846 67.7082 362.91 67.7082ZM360.142 62.4122H365.246C365.006 60.9242 364.11 60.0122 362.75 60.0122C361.406 60.0122 360.414 60.8922 360.142 62.4122Z" fill="#3A0710"/>
<g clip-path="url(#clip3_573_1589)">
<path d="M384 69.5322C383.902 69.5316 383.805 69.5019 383.723 69.4469C383.641 69.3918 383.578 69.3138 383.54 69.2226C383.502 69.1314 383.492 69.0311 383.511 68.9343C383.53 68.8374 383.577 68.7484 383.647 68.6782L389.794 62.5316H376C375.868 62.5316 375.741 62.4789 375.647 62.3852C375.553 62.2915 375.5 62.1644 375.5 62.0319C375.5 61.8994 375.553 61.7723 375.647 61.6786C375.741 61.5849 375.868 61.5322 376 61.5322H389.793L383.646 55.3856C383.6 55.3393 383.563 55.2842 383.537 55.2235C383.512 55.1629 383.499 55.0978 383.499 55.0321C383.499 54.9664 383.512 54.9013 383.538 54.8407C383.563 54.7801 383.6 54.7251 383.647 54.6789C383.741 54.5842 383.867 54.5322 384 54.5322C384.134 54.5322 384.26 54.5842 384.354 54.6789L391.354 61.6789C391.4 61.7255 391.437 61.7811 391.462 61.8422L391.469 61.8596C391.511 61.9706 391.511 62.0932 391.469 62.2042L391.465 62.2149C391.44 62.2791 391.402 62.3374 391.353 62.3862L384.354 69.3856C384.307 69.4322 384.252 69.4692 384.192 69.4944C384.131 69.5196 384.066 69.5324 384 69.5322Z" fill="#3A0710"/>
</g>
<mask id="path-14-outside-1_573_1589" maskUnits="userSpaceOnUse" x="429.5" y="38.0322" width="91" height="48" fill="black">
<rect fill="white" x="429.5" y="38.0322" width="91" height="48"/>
<path d="M431.5 50.0322C431.5 44.5094 435.977 40.0322 441.5 40.0322H508.5C514.023 40.0322 518.5 44.5094 518.5 50.0322V74.0322C518.5 79.5551 514.023 84.0322 508.5 84.0322H441.5C435.977 84.0322 431.5 79.5551 431.5 74.0322V50.0322Z"/>
</mask>
<path d="M441.5 42.0322H508.5V38.0322H441.5V42.0322ZM516.5 50.0322V74.0322H520.5V50.0322H516.5ZM508.5 82.0322H441.5V86.0322H508.5V82.0322ZM433.5 74.0322V50.0322H429.5V74.0322H433.5ZM441.5 82.0322C437.082 82.0322 433.5 78.4505 433.5 74.0322H429.5C429.5 80.6596 434.873 86.0322 441.5 86.0322V82.0322ZM516.5 74.0322C516.5 78.4505 512.918 82.0322 508.5 82.0322V86.0322C515.127 86.0322 520.5 80.6596 520.5 74.0322H516.5ZM508.5 42.0322C512.918 42.0322 516.5 45.6139 516.5 50.0322H520.5C520.5 43.4048 515.127 38.0322 508.5 38.0322V42.0322ZM441.5 38.0322C434.873 38.0322 429.5 43.4048 429.5 50.0322H433.5C433.5 45.6139 437.082 42.0322 441.5 42.0322V38.0322Z" fill="#7155F0" mask="url(#path-14-outside-1_573_1589)"/>
<path d="M433.5 50.0322C433.5 45.6139 437.082 42.0322 441.5 42.0322H508.5C512.918 42.0322 516.5 45.6139 516.5 50.0322V74.0322C516.5 78.4505 512.918 82.0322 508.5 82.0322H441.5C437.082 82.0322 433.5 78.4505 433.5 74.0322V50.0322Z" fill="#F9EAED"/>
<path d="M452.204 67.5322H450.86V56.3322H452.204V67.5322ZM458.075 67.7082C455.803 67.7082 454.219 65.8842 454.219 63.2442C454.219 60.6522 455.787 58.8602 458.059 58.8602C459.339 58.8602 460.411 59.4202 461.019 60.3162V55.5322H462.347V67.5322H461.291L461.147 65.9002C460.587 67.0042 459.467 67.7082 458.075 67.7082ZM458.283 66.5562C459.899 66.5562 461.019 65.1802 461.019 63.2122C461.019 61.3082 459.931 59.9962 458.363 59.9962C456.731 59.9962 455.595 61.3242 455.595 63.2442C455.595 65.1962 456.699 66.5562 458.283 66.5562ZM465.948 67.5322H464.62V55.5322H465.948V67.5322ZM471.91 67.7082C469.398 67.7082 467.734 65.8682 467.734 63.3242C467.734 60.4282 469.606 58.8602 471.75 58.8602C474.086 58.8602 475.59 60.4282 475.638 63.1482V63.5162H469.062C469.142 65.3242 470.198 66.5562 471.91 66.5562C473.094 66.5562 473.958 65.9642 474.31 64.8602H475.606C475.222 66.6042 473.846 67.7082 471.91 67.7082ZM469.142 62.4122H474.246C474.006 60.9242 473.11 60.0122 471.75 60.0122C470.406 60.0122 469.414 60.8922 469.142 62.4122Z" fill="#3A0710"/>
<g clip-path="url(#clip4_573_1589)">
<path d="M493 69.5322C492.902 69.5316 492.805 69.5019 492.723 69.4469C492.641 69.3918 492.578 69.3138 492.54 69.2226C492.502 69.1314 492.492 69.0311 492.511 68.9343C492.53 68.8374 492.577 68.7484 492.647 68.6782L498.794 62.5316H485C484.868 62.5316 484.741 62.4789 484.647 62.3852C484.553 62.2915 484.5 62.1644 484.5 62.0319C484.5 61.8994 484.553 61.7723 484.647 61.6786C484.741 61.5849 484.868 61.5322 485 61.5322H498.793L492.646 55.3856C492.6 55.3393 492.563 55.2842 492.537 55.2235C492.512 55.1629 492.499 55.0978 492.499 55.0321C492.499 54.9664 492.512 54.9013 492.538 54.8407C492.563 54.7801 492.6 54.7251 492.647 54.6789C492.741 54.5842 492.867 54.5322 493 54.5322C493.134 54.5322 493.26 54.5842 493.354 54.6789L500.354 61.6789C500.4 61.7255 500.437 61.7811 500.462 61.8422L500.469 61.8596C500.511 61.9706 500.511 62.0932 500.469 62.2042L500.465 62.2149C500.44 62.2791 500.402 62.3374 500.353 62.3862L493.354 69.3856C493.307 69.4322 493.252 69.4692 493.192 69.4944C493.131 69.5196 493.066 69.5324 493 69.5322Z" fill="#3A0710"/>
</g>
<path d="M542.5 50.0322C542.5 45.6139 546.082 42.0322 550.5 42.0322H617.5C621.918 42.0322 625.5 45.6139 625.5 50.0322V74.0322C625.5 78.4505 621.918 82.0322 617.5 82.0322H550.5C546.082 82.0322 542.5 78.4505 542.5 74.0322V50.0322Z" fill="#F9EAED" fill-opacity="0.5"/>
<path d="M561.204 67.5322H559.86V56.3322H561.204V67.5322ZM567.075 67.7082C564.803 67.7082 563.219 65.8842 563.219 63.2442C563.219 60.6522 564.787 58.8602 567.059 58.8602C568.339 58.8602 569.411 59.4202 570.019 60.3162V55.5322H571.347V67.5322H570.291L570.147 65.9002C569.587 67.0042 568.467 67.7082 567.075 67.7082ZM567.283 66.5562C568.899 66.5562 570.019 65.1802 570.019 63.2122C570.019 61.3082 568.931 59.9962 567.363 59.9962C565.731 59.9962 564.595 61.3242 564.595 63.2442C564.595 65.1962 565.699 66.5562 567.283 66.5562ZM574.948 67.5322H573.62V55.5322H574.948V67.5322ZM580.91 67.7082C578.398 67.7082 576.734 65.8682 576.734 63.3242C576.734 60.4282 578.606 58.8602 580.75 58.8602C583.086 58.8602 584.59 60.4282 584.638 63.1482V63.5162H578.062C578.142 65.3242 579.198 66.5562 580.91 66.5562C582.094 66.5562 582.958 65.9642 583.31 64.8602H584.606C584.222 66.6042 582.846 67.7082 580.91 67.7082ZM578.142 62.4122H583.246C583.006 60.9242 582.11 60.0122 580.75 60.0122C579.406 60.0122 578.414 60.8922 578.142 62.4122Z" fill="#3A0710" fill-opacity="0.5"/>
<g clip-path="url(#clip5_573_1589)">
<path d="M602 69.5322C601.902 69.5316 601.805 69.5019 601.723 69.4469C601.641 69.3918 601.578 69.3138 601.54 69.2226C601.502 69.1314 601.492 69.0311 601.511 68.9343C601.53 68.8374 601.577 68.7484 601.647 68.6782L607.794 62.5316H594C593.868 62.5316 593.741 62.4789 593.647 62.3852C593.553 62.2915 593.5 62.1644 593.5 62.0319C593.5 61.8994 593.553 61.7723 593.647 61.6786C593.741 61.5849 593.868 61.5322 594 61.5322H607.793L601.646 55.3856C601.6 55.3393 601.563 55.2842 601.537 55.2235C601.512 55.1629 601.499 55.0978 601.499 55.0321C601.499 54.9664 601.512 54.9013 601.538 54.8407C601.563 54.7801 601.6 54.7251 601.647 54.6789C601.741 54.5842 601.867 54.5322 602 54.5322C602.134 54.5322 602.26 54.5842 602.354 54.6789L609.354 61.6789C609.4 61.7255 609.437 61.7811 609.462 61.8422L609.469 61.8596C609.511 61.9706 609.511 62.0932 609.469 62.2042L609.465 62.2149C609.44 62.2791 609.402 62.3374 609.353 62.3862L602.354 69.3856C602.307 69.4322 602.252 69.4692 602.192 69.4944C602.131 69.5196 602.066 69.5324 602 69.5322Z" fill="#3A0710" fill-opacity="0.5"/>
</g>
<path d="M137.979 121.032H136.971V112.632H137.979V121.032ZM142.382 121.164C140.678 121.164 139.49 119.796 139.49 117.816C139.49 115.872 140.666 114.528 142.37 114.528C143.33 114.528 144.134 114.948 144.59 115.62V112.032H145.586V121.032H144.794L144.686 119.808C144.266 120.636 143.426 121.164 142.382 121.164ZM142.538 120.3C143.75 120.3 144.59 119.268 144.59 117.792C144.59 116.364 143.774 115.38 142.598 115.38C141.374 115.38 140.522 116.376 140.522 117.816C140.522 119.28 141.35 120.3 142.538 120.3ZM148.287 121.032H147.291V112.032H148.287V121.032ZM152.759 121.164C150.875 121.164 149.627 119.784 149.627 117.876C149.627 115.704 151.031 114.528 152.639 114.528C154.391 114.528 155.519 115.704 155.555 117.744V118.02H150.623C150.683 119.376 151.475 120.3 152.759 120.3C153.647 120.3 154.295 119.856 154.559 119.028H155.531C155.243 120.336 154.211 121.164 152.759 121.164ZM150.683 117.192H154.511C154.331 116.076 153.659 115.392 152.639 115.392C151.631 115.392 150.887 116.052 150.683 117.192Z" fill="#884D5D"/>
<path d="M238.936 121.032H237.928V112.632H238.936V116.244H244.096V112.632H245.104V121.032H244.096V117.168H238.936V121.032ZM249.731 121.164C247.691 121.164 246.611 119.712 246.611 117.792C246.611 115.668 248.003 114.528 249.731 114.528C251.759 114.528 252.851 115.992 252.851 117.792C252.851 119.988 251.519 121.164 249.731 121.164ZM249.731 120.3C251.087 120.3 251.831 119.172 251.831 117.792C251.831 116.364 251.003 115.392 249.731 115.392C248.459 115.392 247.631 116.364 247.631 117.792C247.631 119.424 248.579 120.3 249.731 120.3ZM257.04 121.032H255.996L253.344 114.672H254.424L256.524 119.868L258.612 114.672H259.692L257.04 121.032ZM263.325 121.164C261.441 121.164 260.193 119.784 260.193 117.876C260.193 115.704 261.597 114.528 263.205 114.528C264.957 114.528 266.085 115.704 266.121 117.744V118.02H261.189C261.249 119.376 262.041 120.3 263.325 120.3C264.213 120.3 264.861 119.856 265.125 119.028H266.097C265.809 120.336 264.777 121.164 263.325 121.164ZM261.249 117.192H265.077C264.897 116.076 264.225 115.392 263.205 115.392C262.197 115.392 261.453 116.052 261.249 117.192ZM268.427 121.032H267.431V114.672H268.223L268.343 115.884C268.751 115.068 269.495 114.636 270.551 114.636H270.767V115.62H270.551C269.207 115.62 268.427 116.388 268.427 117.696V121.032Z" fill="#884D5D"/>
<path d="M345.392 121.032H344.348L347.804 112.632H348.824L352.292 121.032H351.248L350.264 118.632H346.376L345.392 121.032ZM348.32 113.916L346.76 117.72H349.88L348.32 113.916ZM356.051 121.164C353.987 121.164 352.883 119.652 352.883 117.816C352.883 115.68 354.287 114.528 356.015 114.528C357.611 114.528 358.751 115.488 358.931 117.12H357.959C357.791 116.064 357.059 115.392 355.991 115.392C354.731 115.392 353.891 116.316 353.891 117.816C353.891 119.436 354.875 120.3 356.063 120.3C357.083 120.3 357.779 119.652 357.959 118.548H358.931C358.751 120.192 357.695 121.164 356.051 121.164ZM363.386 121.032H362.678C361.442 121.032 360.782 120.396 360.782 119.22V115.512H359.606V114.672H360.782V112.5H361.778V114.672H363.494V115.512H361.778V119.22C361.778 119.856 362.09 120.192 362.678 120.192H363.386V121.032ZM365.172 113.604C364.752 113.604 364.428 113.28 364.428 112.86C364.428 112.44 364.752 112.128 365.172 112.128C365.592 112.128 365.904 112.44 365.904 112.86C365.904 113.28 365.592 113.604 365.172 113.604ZM365.664 121.032H364.668V114.672H365.664V121.032ZM370.413 121.032H369.369L366.717 114.672H367.797L369.897 119.868L371.985 114.672H373.065L370.413 121.032ZM376.698 121.164C374.814 121.164 373.566 119.784 373.566 117.876C373.566 115.704 374.97 114.528 376.578 114.528C378.33 114.528 379.458 115.704 379.494 117.744V118.02H374.562C374.622 119.376 375.414 120.3 376.698 120.3C377.586 120.3 378.234 119.856 378.498 119.028H379.47C379.182 120.336 378.15 121.164 376.698 121.164ZM374.622 117.192H378.45C378.27 116.076 377.598 115.392 376.578 115.392C375.57 115.392 374.826 116.052 374.622 117.192Z" fill="#884D5D"/>
<path d="M454.854 121.032H453.846V112.632H459.57V113.556H454.854V116.28H459.21V117.204H454.854V121.032ZM463.68 121.164C461.64 121.164 460.56 119.712 460.56 117.792C460.56 115.668 461.952 114.528 463.68 114.528C465.708 114.528 466.8 115.992 466.8 117.792C466.8 119.988 465.468 121.164 463.68 121.164ZM463.68 120.3C465.036 120.3 465.78 119.172 465.78 117.792C465.78 116.364 464.952 115.392 463.68 115.392C462.408 115.392 461.58 116.364 461.58 117.792C461.58 119.424 462.528 120.3 463.68 120.3ZM470.947 121.164C468.883 121.164 467.779 119.652 467.779 117.816C467.779 115.68 469.183 114.528 470.911 114.528C472.507 114.528 473.647 115.488 473.827 117.12H472.855C472.687 116.064 471.955 115.392 470.887 115.392C469.627 115.392 468.787 116.316 468.787 117.816C468.787 119.436 469.771 120.3 470.959 120.3C471.979 120.3 472.675 119.652 472.855 118.548H473.827C473.647 120.192 472.591 121.164 470.947 121.164ZM477.45 121.164C475.902 121.164 475.014 120.216 475.014 118.92V114.672H476.01V118.884C476.01 119.796 476.646 120.288 477.546 120.288C478.734 120.288 479.382 119.496 479.394 118.536V114.672H480.39V121.032H479.598L479.514 120.072C479.094 120.792 478.326 121.164 477.45 121.164ZM484.401 121.164C482.889 121.164 481.773 120.372 481.689 119.028H482.661C482.733 119.856 483.489 120.312 484.449 120.312C485.349 120.312 485.781 119.964 485.781 119.328C485.781 118.728 485.313 118.596 484.653 118.368L483.729 118.056C482.793 117.744 481.857 117.456 481.857 116.304C481.857 115.224 482.697 114.528 484.089 114.528C485.493 114.528 486.465 115.284 486.621 116.7H485.649C485.541 115.812 484.917 115.38 484.053 115.38C483.273 115.38 482.817 115.728 482.817 116.28C482.817 116.94 483.513 117.072 484.041 117.252L484.905 117.54C486.069 117.924 486.765 118.32 486.765 119.376C486.765 120.492 485.949 121.164 484.401 121.164Z" fill="#884D5D"/>
<path d="M563.568 121.032H560.604V112.632H563.568C565.98 112.632 567.66 114.336 567.66 116.784C567.66 119.292 565.98 121.032 563.568 121.032ZM561.612 113.556V120.108H563.628C565.368 120.108 566.592 118.74 566.592 116.784C566.592 114.972 565.368 113.556 563.628 113.556H561.612ZM569.611 113.604C569.191 113.604 568.867 113.28 568.867 112.86C568.867 112.44 569.191 112.128 569.611 112.128C570.031 112.128 570.343 112.44 570.343 112.86C570.343 113.28 570.031 113.604 569.611 113.604ZM570.103 121.032H569.107V114.672H570.103V121.032ZM574.108 121.164C572.596 121.164 571.48 120.372 571.396 119.028H572.368C572.44 119.856 573.196 120.312 574.156 120.312C575.056 120.312 575.488 119.964 575.488 119.328C575.488 118.728 575.02 118.596 574.36 118.368L573.436 118.056C572.5 117.744 571.564 117.456 571.564 116.304C571.564 115.224 572.404 114.528 573.796 114.528C575.2 114.528 576.172 115.284 576.328 116.7H575.356C575.248 115.812 574.624 115.38 573.76 115.38C572.98 115.38 572.524 115.728 572.524 116.28C572.524 116.94 573.22 117.072 573.748 117.252L574.612 117.54C575.776 117.924 576.472 118.32 576.472 119.376C576.472 120.492 575.656 121.164 574.108 121.164ZM579.831 121.128C578.391 121.128 577.467 120.384 577.467 119.22C577.467 117.756 578.883 117.48 580.155 117.348C581.127 117.252 581.967 117.264 581.979 116.748C581.967 115.944 581.307 115.38 580.347 115.38C579.423 115.38 578.703 115.896 578.595 116.652H577.611C577.731 115.404 578.859 114.528 580.371 114.528C581.943 114.528 582.951 115.464 582.951 116.808V119.904C582.951 120.108 583.059 120.216 583.275 120.216H583.635V121.032H583.071C582.387 121.032 582.027 120.72 582.027 120.132V119.94C581.655 120.672 580.935 121.128 579.831 121.128ZM579.975 120.276C581.163 120.276 581.979 119.52 581.979 118.464V117.636C581.703 118.008 580.995 118.08 580.215 118.164C579.339 118.26 578.463 118.38 578.463 119.196C578.463 119.856 579.063 120.276 579.975 120.276ZM588.016 121.164C586.972 121.164 586.12 120.648 585.688 119.82L585.58 121.032H584.788V112.032H585.784V115.668C586.252 114.972 587.056 114.528 588.016 114.528C589.696 114.528 590.872 115.872 590.872 117.816C590.872 119.796 589.696 121.164 588.016 121.164ZM587.86 120.3C589.036 120.3 589.84 119.28 589.84 117.816C589.84 116.388 589.036 115.392 587.848 115.392C586.648 115.392 585.784 116.364 585.784 117.768C585.784 119.256 586.648 120.3 587.86 120.3ZM593.213 121.032H592.217V112.032H593.213V121.032ZM597.685 121.164C595.801 121.164 594.553 119.784 594.553 117.876C594.553 115.704 595.957 114.528 597.565 114.528C599.317 114.528 600.445 115.704 600.481 117.744V118.02H595.549C595.609 119.376 596.401 120.3 597.685 120.3C598.573 120.3 599.221 119.856 599.485 119.028H600.457C600.169 120.336 599.137 121.164 597.685 121.164ZM595.609 117.192H599.437C599.257 116.076 598.585 115.392 597.565 115.392C596.557 115.392 595.813 116.052 595.609 117.192ZM604.359 121.164C602.655 121.164 601.467 119.796 601.467 117.816C601.467 115.872 602.643 114.528 604.347 114.528C605.307 114.528 606.111 114.948 606.567 115.62V112.032H607.563V121.032H606.771L606.663 119.808C606.243 120.636 605.403 121.164 604.359 121.164ZM604.515 120.3C605.727 120.3 606.567 119.268 606.567 117.792C606.567 116.364 605.751 115.38 604.575 115.38C603.351 115.38 602.499 116.376 602.499 117.816C602.499 119.28 603.327 120.3 604.515 120.3Z" fill="#884D5D"/>
<path d="M0 168.032H736V320.032C736 328.869 728.837 336.032 720 336.032H16C7.16344 336.032 0 328.869 0 320.032V168.032Z" fill="#330314"/>
<path d="M110.5 218.032C110.5 213.614 114.082 210.032 118.5 210.032H185.5C189.918 210.032 193.5 213.614 193.5 218.032V242.032C193.5 246.451 189.918 250.032 185.5 250.032H118.5C114.082 250.032 110.5 246.451 110.5 242.032V218.032Z" fill="#DC134F"/>
<path d="M129.204 235.532H127.86V224.332H129.204V235.532ZM135.075 235.708C132.803 235.708 131.219 233.884 131.219 231.244C131.219 228.652 132.787 226.86 135.059 226.86C136.339 226.86 137.411 227.42 138.019 228.316V223.532H139.347V235.532H138.291L138.147 233.9C137.587 235.004 136.467 235.708 135.075 235.708ZM135.283 234.556C136.899 234.556 138.019 233.18 138.019 231.212C138.019 229.308 136.931 227.996 135.363 227.996C133.731 227.996 132.595 229.324 132.595 231.244C132.595 233.196 133.699 234.556 135.283 234.556ZM142.948 235.532H141.62V223.532H142.948V235.532ZM148.91 235.708C146.398 235.708 144.734 233.868 144.734 231.324C144.734 228.428 146.606 226.86 148.75 226.86C151.086 226.86 152.59 228.428 152.638 231.148V231.516H146.062C146.142 233.324 147.198 234.556 148.91 234.556C150.094 234.556 150.958 233.964 151.31 232.86H152.606C152.222 234.604 150.846 235.708 148.91 235.708ZM146.142 230.412H151.246C151.006 228.924 150.11 228.012 148.75 228.012C147.406 228.012 146.414 228.892 146.142 230.412Z" fill="#FBEAEA"/>
<g clip-path="url(#clip6_573_1589)">
<path d="M170 237.532C169.901 237.532 169.805 237.502 169.723 237.447C169.641 237.392 169.578 237.314 169.54 237.223C169.502 237.131 169.492 237.031 169.511 236.934C169.53 236.837 169.577 236.748 169.647 236.678L175.793 230.532H162C161.868 230.532 161.74 230.479 161.647 230.385C161.553 230.292 161.5 230.164 161.5 230.032C161.5 229.899 161.553 229.772 161.647 229.679C161.74 229.585 161.868 229.532 162 229.532H175.793L169.646 223.386C169.599 223.339 169.562 223.284 169.537 223.224C169.512 223.163 169.499 223.098 169.499 223.032C169.499 222.966 169.512 222.901 169.538 222.841C169.563 222.78 169.6 222.725 169.647 222.679C169.741 222.584 169.867 222.532 170 222.532C170.133 222.532 170.259 222.584 170.353 222.679L177.353 229.679C177.4 229.726 177.437 229.781 177.462 229.842L177.469 229.86C177.511 229.971 177.511 230.093 177.469 230.204L177.465 230.215C177.44 230.279 177.402 230.337 177.353 230.386L170.353 237.386C170.307 237.432 170.252 237.469 170.192 237.494C170.131 237.52 170.066 237.532 170 237.532Z" fill="#FBEAEA"/>
</g>
<path d="M217.5 218.032C217.5 213.614 221.082 210.032 225.5 210.032H292.5C296.918 210.032 300.5 213.614 300.5 218.032V242.032C300.5 246.451 296.918 250.032 292.5 250.032H225.5C221.082 250.032 217.5 246.451 217.5 242.032V218.032Z" fill="#DC134F"/>
<path d="M236.204 235.532H234.86V224.332H236.204V235.532ZM242.075 235.708C239.803 235.708 238.219 233.884 238.219 231.244C238.219 228.652 239.787 226.86 242.059 226.86C243.339 226.86 244.411 227.42 245.019 228.316V223.532H246.347V235.532H245.291L245.147 233.9C244.587 235.004 243.467 235.708 242.075 235.708ZM242.283 234.556C243.899 234.556 245.019 233.18 245.019 231.212C245.019 229.308 243.931 227.996 242.363 227.996C240.731 227.996 239.595 229.324 239.595 231.244C239.595 233.196 240.699 234.556 242.283 234.556ZM249.948 235.532H248.62V223.532H249.948V235.532ZM255.91 235.708C253.398 235.708 251.734 233.868 251.734 231.324C251.734 228.428 253.606 226.86 255.75 226.86C258.086 226.86 259.59 228.428 259.638 231.148V231.516H253.062C253.142 233.324 254.198 234.556 255.91 234.556C257.094 234.556 257.958 233.964 258.31 232.86H259.606C259.222 234.604 257.846 235.708 255.91 235.708ZM253.142 230.412H258.246C258.006 228.924 257.11 228.012 255.75 228.012C254.406 228.012 253.414 228.892 253.142 230.412Z" fill="#FBEAEA"/>
<g clip-path="url(#clip7_573_1589)">
<path d="M277 237.532C276.902 237.532 276.805 237.502 276.723 237.447C276.641 237.392 276.578 237.314 276.54 237.223C276.502 237.131 276.492 237.031 276.511 236.934C276.53 236.837 276.577 236.748 276.647 236.678L282.794 230.532H269C268.868 230.532 268.741 230.479 268.647 230.385C268.553 230.292 268.5 230.164 268.5 230.032C268.5 229.899 268.553 229.772 268.647 229.679C268.741 229.585 268.868 229.532 269 229.532H282.793L276.646 223.386C276.6 223.339 276.563 223.284 276.537 223.224C276.512 223.163 276.499 223.098 276.499 223.032C276.499 222.966 276.512 222.901 276.538 222.841C276.563 222.78 276.6 222.725 276.647 222.679C276.741 222.584 276.867 222.532 277 222.532C277.134 222.532 277.26 222.584 277.354 222.679L284.354 229.679C284.4 229.726 284.437 229.781 284.462 229.842L284.469 229.86C284.511 229.971 284.511 230.093 284.469 230.204L284.465 230.215C284.44 230.279 284.402 230.337 284.353 230.386L277.354 237.386C277.307 237.432 277.252 237.469 277.192 237.494C277.131 237.52 277.066 237.532 277 237.532Z" fill="#FBEAEA"/>
</g>
<rect x="215.5" y="209.032" width="87.8" height="43" rx="8.4" fill="#DC134F"/>
<path d="M235.139 236.532H233.728V224.772H235.139V236.532ZM241.303 236.717C238.918 236.717 237.254 234.802 237.254 232.03C237.254 229.308 238.901 227.427 241.286 227.427C242.63 227.427 243.756 228.015 244.394 228.955V223.932H245.789V236.532H244.68L244.529 234.819C243.941 235.978 242.765 236.717 241.303 236.717ZM241.522 235.507C243.218 235.507 244.394 234.063 244.394 231.996C244.394 229.997 243.252 228.619 241.606 228.619C239.892 228.619 238.699 230.014 238.699 232.03C238.699 234.079 239.858 235.507 241.522 235.507ZM249.571 236.532H248.176V223.932H249.571V236.532ZM255.831 236.717C253.193 236.717 251.446 234.785 251.446 232.114C251.446 229.073 253.411 227.427 255.663 227.427C258.115 227.427 259.695 229.073 259.745 231.929V232.315H252.84C252.924 234.214 254.033 235.507 255.831 235.507C257.074 235.507 257.981 234.886 258.351 233.727H259.711C259.308 235.558 257.863 236.717 255.831 236.717ZM252.924 231.156H258.283C258.031 229.594 257.091 228.636 255.663 228.636C254.251 228.636 253.21 229.56 252.924 231.156Z" fill="#FBEAEA"/>
<g clip-path="url(#clip8_573_1589)">
<path d="M278.625 238.407C278.522 238.407 278.42 238.375 278.334 238.318C278.248 238.26 278.181 238.178 278.142 238.082C278.102 237.986 278.092 237.881 278.112 237.779C278.132 237.678 278.181 237.584 278.254 237.511L284.708 231.057H270.225C270.086 231.057 269.952 231.001 269.854 230.903C269.756 230.804 269.7 230.671 269.7 230.532C269.7 230.393 269.756 230.259 269.854 230.161C269.952 230.063 270.086 230.007 270.225 230.007H284.708L278.253 223.553C278.204 223.505 278.166 223.447 278.139 223.383C278.113 223.319 278.099 223.251 278.099 223.182C278.099 223.113 278.113 223.045 278.14 222.981C278.166 222.917 278.205 222.86 278.254 222.811C278.353 222.712 278.485 222.657 278.625 222.657C278.765 222.657 278.897 222.712 278.996 222.811L286.346 230.161C286.395 230.21 286.434 230.268 286.46 230.333L286.467 230.351C286.511 230.468 286.511 230.596 286.467 230.713L286.463 230.724C286.437 230.791 286.397 230.853 286.346 230.904L278.996 238.253C278.948 238.302 278.89 238.341 278.826 238.367C278.762 238.394 278.694 238.407 278.625 238.407Z" fill="#FBEAEA"/>
</g>
<path d="M324.5 218.032C324.5 213.614 328.082 210.032 332.5 210.032H399.5C403.918 210.032 407.5 213.614 407.5 218.032V242.032C407.5 246.451 403.918 250.032 399.5 250.032H332.5C328.082 250.032 324.5 246.451 324.5 242.032V218.032Z" fill="#DC134F"/>
<path d="M343.204 235.532H341.86V224.332H343.204V235.532ZM349.075 235.708C346.803 235.708 345.219 233.884 345.219 231.244C345.219 228.652 346.787 226.86 349.059 226.86C350.339 226.86 351.411 227.42 352.019 228.316V223.532H353.347V235.532H352.291L352.147 233.9C351.587 235.004 350.467 235.708 349.075 235.708ZM349.283 234.556C350.899 234.556 352.019 233.18 352.019 231.212C352.019 229.308 350.931 227.996 349.363 227.996C347.731 227.996 346.595 229.324 346.595 231.244C346.595 233.196 347.699 234.556 349.283 234.556ZM356.948 235.532H355.62V223.532H356.948V235.532ZM362.91 235.708C360.398 235.708 358.734 233.868 358.734 231.324C358.734 228.428 360.606 226.86 362.75 226.86C365.086 226.86 366.59 228.428 366.638 231.148V231.516H360.062C360.142 233.324 361.198 234.556 362.91 234.556C364.094 234.556 364.958 233.964 365.31 232.86H366.606C366.222 234.604 364.846 235.708 362.91 235.708ZM360.142 230.412H365.246C365.006 228.924 364.11 228.012 362.75 228.012C361.406 228.012 360.414 228.892 360.142 230.412Z" fill="#FBEAEA"/>
<g clip-path="url(#clip9_573_1589)">
<path d="M384 237.532C383.902 237.532 383.805 237.502 383.723 237.447C383.641 237.392 383.578 237.314 383.54 237.223C383.502 237.131 383.492 237.031 383.511 236.934C383.53 236.837 383.577 236.748 383.647 236.678L389.794 230.532H376C375.868 230.532 375.741 230.479 375.647 230.385C375.553 230.292 375.5 230.164 375.5 230.032C375.5 229.899 375.553 229.772 375.647 229.679C375.741 229.585 375.868 229.532 376 229.532H389.793L383.646 223.386C383.6 223.339 383.563 223.284 383.537 223.224C383.512 223.163 383.499 223.098 383.499 223.032C383.499 222.966 383.512 222.901 383.538 222.841C383.563 222.78 383.6 222.725 383.647 222.679C383.741 222.584 383.867 222.532 384 222.532C384.134 222.532 384.26 222.584 384.354 222.679L391.354 229.679C391.4 229.726 391.437 229.781 391.462 229.842L391.469 229.86C391.511 229.971 391.511 230.093 391.469 230.204L391.465 230.215C391.44 230.279 391.402 230.337 391.353 230.386L384.354 237.386C384.307 237.432 384.252 237.469 384.192 237.494C384.131 237.52 384.066 237.532 384 237.532Z" fill="#FBEAEA"/>
</g>
<mask id="path-40-outside-2_573_1589" maskUnits="userSpaceOnUse" x="429.5" y="206.032" width="91" height="48" fill="black">
<rect fill="white" x="429.5" y="206.032" width="91" height="48"/>
<path d="M431.5 218.032C431.5 212.509 435.977 208.032 441.5 208.032H508.5C514.023 208.032 518.5 212.509 518.5 218.032V242.032C518.5 247.555 514.023 252.032 508.5 252.032H441.5C435.977 252.032 431.5 247.555 431.5 242.032V218.032Z"/>
</mask>
<path d="M441.5 210.032H508.5V206.032H441.5V210.032ZM516.5 218.032V242.032H520.5V218.032H516.5ZM508.5 250.032H441.5V254.032H508.5V250.032ZM433.5 242.032V218.032H429.5V242.032H433.5ZM441.5 250.032C437.082 250.032 433.5 246.451 433.5 242.032H429.5C429.5 248.66 434.873 254.032 441.5 254.032V250.032ZM516.5 242.032C516.5 246.451 512.918 250.032 508.5 250.032V254.032C515.127 254.032 520.5 248.66 520.5 242.032H516.5ZM508.5 210.032C512.918 210.032 516.5 213.614 516.5 218.032H520.5C520.5 211.405 515.127 206.032 508.5 206.032V210.032ZM441.5 206.032C434.873 206.032 429.5 211.405 429.5 218.032H433.5C433.5 213.614 437.082 210.032 441.5 210.032V206.032Z" fill="#7155F0" mask="url(#path-40-outside-2_573_1589)"/>
<path d="M433.5 218.032C433.5 213.614 437.082 210.032 441.5 210.032H508.5C512.918 210.032 516.5 213.614 516.5 218.032V242.032C516.5 246.451 512.918 250.032 508.5 250.032H441.5C437.082 250.032 433.5 246.451 433.5 242.032V218.032Z" fill="#DC134F"/>
<path d="M452.204 235.532H450.86V224.332H452.204V235.532ZM458.075 235.708C455.803 235.708 454.219 233.884 454.219 231.244C454.219 228.652 455.787 226.86 458.059 226.86C459.339 226.86 460.411 227.42 461.019 228.316V223.532H462.347V235.532H461.291L461.147 233.9C460.587 235.004 459.467 235.708 458.075 235.708ZM458.283 234.556C459.899 234.556 461.019 233.18 461.019 231.212C461.019 229.308 459.931 227.996 458.363 227.996C456.731 227.996 455.595 229.324 455.595 231.244C455.595 233.196 456.699 234.556 458.283 234.556ZM465.948 235.532H464.62V223.532H465.948V235.532ZM471.91 235.708C469.398 235.708 467.734 233.868 467.734 231.324C467.734 228.428 469.606 226.86 471.75 226.86C474.086 226.86 475.59 228.428 475.638 231.148V231.516H469.062C469.142 233.324 470.198 234.556 471.91 234.556C473.094 234.556 473.958 233.964 474.31 232.86H475.606C475.222 234.604 473.846 235.708 471.91 235.708ZM469.142 230.412H474.246C474.006 228.924 473.11 228.012 471.75 228.012C470.406 228.012 469.414 228.892 469.142 230.412Z" fill="#FBEAEA"/>
<g clip-path="url(#clip10_573_1589)">
<path d="M493 237.532C492.902 237.532 492.805 237.502 492.723 237.447C492.641 237.392 492.578 237.314 492.54 237.223C492.502 237.131 492.492 237.031 492.511 236.934C492.53 236.837 492.577 236.748 492.647 236.678L498.794 230.532H485C484.868 230.532 484.741 230.479 484.647 230.385C484.553 230.292 484.5 230.164 484.5 230.032C484.5 229.899 484.553 229.772 484.647 229.679C484.741 229.585 484.868 229.532 485 229.532H498.793L492.646 223.386C492.6 223.339 492.563 223.284 492.537 223.224C492.512 223.163 492.499 223.098 492.499 223.032C492.499 222.966 492.512 222.901 492.538 222.841C492.563 222.78 492.6 222.725 492.647 222.679C492.741 222.584 492.867 222.532 493 222.532C493.134 222.532 493.26 222.584 493.354 222.679L500.354 229.679C500.4 229.726 500.437 229.781 500.462 229.842L500.469 229.86C500.511 229.971 500.511 230.093 500.469 230.204L500.465 230.215C500.44 230.279 500.402 230.337 500.353 230.386L493.354 237.386C493.307 237.432 493.252 237.469 493.192 237.494C493.131 237.52 493.066 237.532 493 237.532Z" fill="#FBEAEA"/>
</g>
<path d="M542.5 218.032C542.5 213.614 546.082 210.032 550.5 210.032H617.5C621.918 210.032 625.5 213.614 625.5 218.032V242.032C625.5 246.451 621.918 250.032 617.5 250.032H550.5C546.082 250.032 542.5 246.451 542.5 242.032V218.032Z" fill="#DC134F" fill-opacity="0.5"/>
<path d="M561.204 235.532H559.86V224.332H561.204V235.532ZM567.075 235.708C564.803 235.708 563.219 233.884 563.219 231.244C563.219 228.652 564.787 226.86 567.059 226.86C568.339 226.86 569.411 227.42 570.019 228.316V223.532H571.347V235.532H570.291L570.147 233.9C569.587 235.004 568.467 235.708 567.075 235.708ZM567.283 234.556C568.899 234.556 570.019 233.18 570.019 231.212C570.019 229.308 568.931 227.996 567.363 227.996C565.731 227.996 564.595 229.324 564.595 231.244C564.595 233.196 565.699 234.556 567.283 234.556ZM574.948 235.532H573.62V223.532H574.948V235.532ZM580.91 235.708C578.398 235.708 576.734 233.868 576.734 231.324C576.734 228.428 578.606 226.86 580.75 226.86C583.086 226.86 584.59 228.428 584.638 231.148V231.516H578.062C578.142 233.324 579.198 234.556 580.91 234.556C582.094 234.556 582.958 233.964 583.31 232.86H584.606C584.222 234.604 582.846 235.708 580.91 235.708ZM578.142 230.412H583.246C583.006 228.924 582.11 228.012 580.75 228.012C579.406 228.012 578.414 228.892 578.142 230.412Z" fill="#FBEAEA" fill-opacity="0.5"/>
<g clip-path="url(#clip11_573_1589)">
<path d="M602 237.532C601.902 237.532 601.805 237.502 601.723 237.447C601.641 237.392 601.578 237.314 601.54 237.223C601.502 237.131 601.492 237.031 601.511 236.934C601.53 236.837 601.577 236.748 601.647 236.678L607.794 230.532H594C593.868 230.532 593.741 230.479 593.647 230.385C593.553 230.292 593.5 230.164 593.5 230.032C593.5 229.899 593.553 229.772 593.647 229.679C593.741 229.585 593.868 229.532 594 229.532H607.793L601.646 223.386C601.6 223.339 601.563 223.284 601.537 223.224C601.512 223.163 601.499 223.098 601.499 223.032C601.499 222.966 601.512 222.901 601.538 222.841C601.563 222.78 601.6 222.725 601.647 222.679C601.741 222.584 601.867 222.532 602 222.532C602.134 222.532 602.26 222.584 602.354 222.679L609.354 229.679C609.4 229.726 609.437 229.781 609.462 229.842L609.469 229.86C609.511 229.971 609.511 230.093 609.469 230.204L609.465 230.215C609.44 230.279 609.402 230.337 609.353 230.386L602.354 237.386C602.307 237.432 602.252 237.469 602.192 237.494C602.131 237.52 602.066 237.532 602 237.532Z" fill="#FBEAEA" fill-opacity="0.5"/>
</g>
<path d="M137.979 289.032H136.971V280.632H137.979V289.032ZM142.382 289.164C140.678 289.164 139.49 287.796 139.49 285.816C139.49 283.872 140.666 282.528 142.37 282.528C143.33 282.528 144.134 282.948 144.59 283.62V280.032H145.586V289.032H144.794L144.686 287.808C144.266 288.636 143.426 289.164 142.382 289.164ZM142.538 288.3C143.75 288.3 144.59 287.268 144.59 285.792C144.59 284.364 143.774 283.38 142.598 283.38C141.374 283.38 140.522 284.376 140.522 285.816C140.522 287.28 141.35 288.3 142.538 288.3ZM148.287 289.032H147.291V280.032H148.287V289.032ZM152.759 289.164C150.875 289.164 149.627 287.784 149.627 285.876C149.627 283.704 151.031 282.528 152.639 282.528C154.391 282.528 155.519 283.704 155.555 285.744V286.02H150.623C150.683 287.376 151.475 288.3 152.759 288.3C153.647 288.3 154.295 287.856 154.559 287.028H155.531C155.243 288.336 154.211 289.164 152.759 289.164ZM150.683 285.192H154.511C154.331 284.076 153.659 283.392 152.639 283.392C151.631 283.392 150.887 284.052 150.683 285.192Z" fill="#F9EAED"/>
<path d="M238.936 289.032H237.928V280.632H238.936V284.244H244.096V280.632H245.104V289.032H244.096V285.168H238.936V289.032ZM249.731 289.164C247.691 289.164 246.611 287.712 246.611 285.792C246.611 283.668 248.003 282.528 249.731 282.528C251.759 282.528 252.851 283.992 252.851 285.792C252.851 287.988 251.519 289.164 249.731 289.164ZM249.731 288.3C251.087 288.3 251.831 287.172 251.831 285.792C251.831 284.364 251.003 283.392 249.731 283.392C248.459 283.392 247.631 284.364 247.631 285.792C247.631 287.424 248.579 288.3 249.731 288.3ZM257.04 289.032H255.996L253.344 282.672H254.424L256.524 287.868L258.612 282.672H259.692L257.04 289.032ZM263.325 289.164C261.441 289.164 260.193 287.784 260.193 285.876C260.193 283.704 261.597 282.528 263.205 282.528C264.957 282.528 266.085 283.704 266.121 285.744V286.02H261.189C261.249 287.376 262.041 288.3 263.325 288.3C264.213 288.3 264.861 287.856 265.125 287.028H266.097C265.809 288.336 264.777 289.164 263.325 289.164ZM261.249 285.192H265.077C264.897 284.076 264.225 283.392 263.205 283.392C262.197 283.392 261.453 284.052 261.249 285.192ZM268.427 289.032H267.431V282.672H268.223L268.343 283.884C268.751 283.068 269.495 282.636 270.551 282.636H270.767V283.62H270.551C269.207 283.62 268.427 284.388 268.427 285.696V289.032Z" fill="#F9EAED"/>
<path d="M345.392 289.032H344.348L347.804 280.632H348.824L352.292 289.032H351.248L350.264 286.632H346.376L345.392 289.032ZM348.32 281.916L346.76 285.72H349.88L348.32 281.916ZM356.051 289.164C353.987 289.164 352.883 287.652 352.883 285.816C352.883 283.68 354.287 282.528 356.015 282.528C357.611 282.528 358.751 283.488 358.931 285.12H357.959C357.791 284.064 357.059 283.392 355.991 283.392C354.731 283.392 353.891 284.316 353.891 285.816C353.891 287.436 354.875 288.3 356.063 288.3C357.083 288.3 357.779 287.652 357.959 286.548H358.931C358.751 288.192 357.695 289.164 356.051 289.164ZM363.386 289.032H362.678C361.442 289.032 360.782 288.396 360.782 287.22V283.512H359.606V282.672H360.782V280.5H361.778V282.672H363.494V283.512H361.778V287.22C361.778 287.856 362.09 288.192 362.678 288.192H363.386V289.032ZM365.172 281.604C364.752 281.604 364.428 281.28 364.428 280.86C364.428 280.44 364.752 280.128 365.172 280.128C365.592 280.128 365.904 280.44 365.904 280.86C365.904 281.28 365.592 281.604 365.172 281.604ZM365.664 289.032H364.668V282.672H365.664V289.032ZM370.413 289.032H369.369L366.717 282.672H367.797L369.897 287.868L371.985 282.672H373.065L370.413 289.032ZM376.698 289.164C374.814 289.164 373.566 287.784 373.566 285.876C373.566 283.704 374.97 282.528 376.578 282.528C378.33 282.528 379.458 283.704 379.494 285.744V286.02H374.562C374.622 287.376 375.414 288.3 376.698 288.3C377.586 288.3 378.234 287.856 378.498 287.028H379.47C379.182 288.336 378.15 289.164 376.698 289.164ZM374.622 285.192H378.45C378.27 284.076 377.598 283.392 376.578 283.392C375.57 283.392 374.826 284.052 374.622 285.192Z" fill="#F9EAED"/>
<path d="M454.854 289.032H453.846V280.632H459.57V281.556H454.854V284.28H459.21V285.204H454.854V289.032ZM463.68 289.164C461.64 289.164 460.56 287.712 460.56 285.792C460.56 283.668 461.952 282.528 463.68 282.528C465.708 282.528 466.8 283.992 466.8 285.792C466.8 287.988 465.468 289.164 463.68 289.164ZM463.68 288.3C465.036 288.3 465.78 287.172 465.78 285.792C465.78 284.364 464.952 283.392 463.68 283.392C462.408 283.392 461.58 284.364 461.58 285.792C461.58 287.424 462.528 288.3 463.68 288.3ZM470.947 289.164C468.883 289.164 467.779 287.652 467.779 285.816C467.779 283.68 469.183 282.528 470.911 282.528C472.507 282.528 473.647 283.488 473.827 285.12H472.855C472.687 284.064 471.955 283.392 470.887 283.392C469.627 283.392 468.787 284.316 468.787 285.816C468.787 287.436 469.771 288.3 470.959 288.3C471.979 288.3 472.675 287.652 472.855 286.548H473.827C473.647 288.192 472.591 289.164 470.947 289.164ZM477.45 289.164C475.902 289.164 475.014 288.216 475.014 286.92V282.672H476.01V286.884C476.01 287.796 476.646 288.288 477.546 288.288C478.734 288.288 479.382 287.496 479.394 286.536V282.672H480.39V289.032H479.598L479.514 288.072C479.094 288.792 478.326 289.164 477.45 289.164ZM484.401 289.164C482.889 289.164 481.773 288.372 481.689 287.028H482.661C482.733 287.856 483.489 288.312 484.449 288.312C485.349 288.312 485.781 287.964 485.781 287.328C485.781 286.728 485.313 286.596 484.653 286.368L483.729 286.056C482.793 285.744 481.857 285.456 481.857 284.304C481.857 283.224 482.697 282.528 484.089 282.528C485.493 282.528 486.465 283.284 486.621 284.7H485.649C485.541 283.812 484.917 283.38 484.053 283.38C483.273 283.38 482.817 283.728 482.817 284.28C482.817 284.94 483.513 285.072 484.041 285.252L484.905 285.54C486.069 285.924 486.765 286.32 486.765 287.376C486.765 288.492 485.949 289.164 484.401 289.164Z" fill="#F9EAED"/>
<path d="M563.568 289.032H560.604V280.632H563.568C565.98 280.632 567.66 282.336 567.66 284.784C567.66 287.292 565.98 289.032 563.568 289.032ZM561.612 281.556V288.108H563.628C565.368 288.108 566.592 286.74 566.592 284.784C566.592 282.972 565.368 281.556 563.628 281.556H561.612ZM569.611 281.604C569.191 281.604 568.867 281.28 568.867 280.86C568.867 280.44 569.191 280.128 569.611 280.128C570.031 280.128 570.343 280.44 570.343 280.86C570.343 281.28 570.031 281.604 569.611 281.604ZM570.103 289.032H569.107V282.672H570.103V289.032ZM574.108 289.164C572.596 289.164 571.48 288.372 571.396 287.028H572.368C572.44 287.856 573.196 288.312 574.156 288.312C575.056 288.312 575.488 287.964 575.488 287.328C575.488 286.728 575.02 286.596 574.36 286.368L573.436 286.056C572.5 285.744 571.564 285.456 571.564 284.304C571.564 283.224 572.404 282.528 573.796 282.528C575.2 282.528 576.172 283.284 576.328 284.7H575.356C575.248 283.812 574.624 283.38 573.76 283.38C572.98 283.38 572.524 283.728 572.524 284.28C572.524 284.94 573.22 285.072 573.748 285.252L574.612 285.54C575.776 285.924 576.472 286.32 576.472 287.376C576.472 288.492 575.656 289.164 574.108 289.164ZM579.831 289.128C578.391 289.128 577.467 288.384 577.467 287.22C577.467 285.756 578.883 285.48 580.155 285.348C581.127 285.252 581.967 285.264 581.979 284.748C581.967 283.944 581.307 283.38 580.347 283.38C579.423 283.38 578.703 283.896 578.595 284.652H577.611C577.731 283.404 578.859 282.528 580.371 282.528C581.943 282.528 582.951 283.464 582.951 284.808V287.904C582.951 288.108 583.059 288.216 583.275 288.216H583.635V289.032H583.071C582.387 289.032 582.027 288.72 582.027 288.132V287.94C581.655 288.672 580.935 289.128 579.831 289.128ZM579.975 288.276C581.163 288.276 581.979 287.52 581.979 286.464V285.636C581.703 286.008 580.995 286.08 580.215 286.164C579.339 286.26 578.463 286.38 578.463 287.196C578.463 287.856 579.063 288.276 579.975 288.276ZM588.016 289.164C586.972 289.164 586.12 288.648 585.688 287.82L585.58 289.032H584.788V280.032H585.784V283.668C586.252 282.972 587.056 282.528 588.016 282.528C589.696 282.528 590.872 283.872 590.872 285.816C590.872 287.796 589.696 289.164 588.016 289.164ZM587.86 288.3C589.036 288.3 589.84 287.28 589.84 285.816C589.84 284.388 589.036 283.392 587.848 283.392C586.648 283.392 585.784 284.364 585.784 285.768C585.784 287.256 586.648 288.3 587.86 288.3ZM593.213 289.032H592.217V280.032H593.213V289.032ZM597.685 289.164C595.801 289.164 594.553 287.784 594.553 285.876C594.553 283.704 595.957 282.528 597.565 282.528C599.317 282.528 600.445 283.704 600.481 285.744V286.02H595.549C595.609 287.376 596.401 288.3 597.685 288.3C598.573 288.3 599.221 287.856 599.485 287.028H600.457C600.169 288.336 599.137 289.164 597.685 289.164ZM595.609 285.192H599.437C599.257 284.076 598.585 283.392 597.565 283.392C596.557 283.392 595.813 284.052 595.609 285.192ZM604.359 289.164C602.655 289.164 601.467 287.796 601.467 285.816C601.467 283.872 602.643 282.528 604.347 282.528C605.307 282.528 606.111 282.948 606.567 283.62V280.032H607.563V289.032H606.771L606.663 287.808C606.243 288.636 605.403 289.164 604.359 289.164ZM604.515 288.3C605.727 288.3 606.567 287.268 606.567 285.792C606.567 284.364 605.751 283.38 604.575 283.38C603.351 283.38 602.499 284.376 602.499 285.816C602.499 287.28 603.327 288.3 604.515 288.3Z" fill="#F9EAED"/>
<defs>
<clipPath id="clip0_573_1589">
<rect width="16" height="16" fill="white" transform="translate(161.5 54.0322)"/>
</clipPath>
<clipPath id="clip1_573_1589">
<rect width="16" height="16" fill="white" transform="translate(268.5 54.0322)"/>
</clipPath>
<clipPath id="clip2_573_1589">
<rect width="16.8" height="16.8" fill="white" transform="translate(269.7 54.1322)"/>
</clipPath>
<clipPath id="clip3_573_1589">
<rect width="16" height="16" fill="white" transform="translate(375.5 54.0322)"/>
</clipPath>
<clipPath id="clip4_573_1589">
<rect width="16" height="16" fill="white" transform="translate(484.5 54.0322)"/>
</clipPath>
<clipPath id="clip5_573_1589">
<rect width="16" height="16" fill="white" transform="translate(593.5 54.0322)"/>
</clipPath>
<clipPath id="clip6_573_1589">
<rect width="16" height="16" fill="white" transform="translate(161.5 222.032)"/>
</clipPath>
<clipPath id="clip7_573_1589">
<rect width="16" height="16" fill="white" transform="translate(268.5 222.032)"/>
</clipPath>
<clipPath id="clip8_573_1589">
<rect width="16.8" height="16.8" fill="white" transform="translate(269.7 222.132)"/>
</clipPath>
<clipPath id="clip9_573_1589">
<rect width="16" height="16" fill="white" transform="translate(375.5 222.032)"/>
</clipPath>
<clipPath id="clip10_573_1589">
<rect width="16" height="16" fill="white" transform="translate(484.5 222.032)"/>
</clipPath>
<clipPath id="clip11_573_1589">
<rect width="16" height="16" fill="white" transform="translate(593.5 222.032)"/>
</clipPath>
</defs>
</svg>
