<svg width="733" height="224" viewBox="0 0 733 224" fill="none" xmlns="http://www.w3.org/2000/svg">
<rect y="0.032196" width="733" height="223" rx="24" fill="white"/>
<rect x="24" y="24.0322" width="20" height="20" rx="10" fill="#CE3871"/>
<g clip-path="url(#clip0_581_1664)">
<path d="M41.5 42.0322C41.3667 42.0322 41.2407 41.9802 41.1467 41.8856L34 34.7399L26.8533 41.8856C26.7587 41.9802 26.6333 42.0322 26.5 42.0322C26.3667 42.0322 26.2407 41.9802 26.1467 41.8856C25.952 41.6909 25.952 41.3736 26.1467 41.1783L33.2933 34.0319L26.1467 26.8862C26.052 26.7922 26 26.6662 26 26.5329C26 26.3996 26.052 26.2736 26.1467 26.1796C26.2407 26.0849 26.3667 26.0329 26.5 26.0329C26.6333 26.0329 26.7593 26.0849 26.8533 26.1796L34 33.3253L41.1467 26.1789C41.2413 26.0842 41.3667 26.0322 41.5 26.0322C41.6333 26.0322 41.7593 26.0842 41.8533 26.1789C41.948 26.2736 42 26.3996 42 26.5329C42 26.6662 41.948 26.7922 41.8533 26.8862L34.7067 34.0326L41.8533 41.1789C42.048 41.3736 42.048 41.6909 41.8533 41.8862C41.7593 41.9802 41.6333 42.0322 41.5 42.0322Z" fill="#FDF9F9"/>
</g>
<path d="M54.366 40.0322H53.19V30.2322H54.366V35.5942L59.42 30.2322H60.946L57.04 34.3202L61.212 40.0322H59.756L56.228 35.1742L54.366 37.1202V40.0322ZM63.616 40.0322H62.454V32.6122H63.378L63.49 33.7462C63.994 32.9622 64.96 32.4442 66.066 32.4442C67.662 32.4442 68.726 33.4802 68.726 35.1182V40.0322H67.564V35.1602C67.564 34.1242 66.892 33.4662 65.772 33.4662C64.442 33.4662 63.63 34.3902 63.616 35.5242V40.0322ZM72.9417 40.1442C71.2617 40.1442 70.1837 39.2762 70.1837 37.9182C70.1837 36.2102 71.8357 35.8882 73.3197 35.7342C74.4537 35.6222 75.4337 35.6362 75.4477 35.0342C75.4337 34.0962 74.6637 33.4382 73.5437 33.4382C72.4657 33.4382 71.6257 34.0402 71.4997 34.9222H70.3517C70.4917 33.4662 71.8077 32.4442 73.5717 32.4442C75.4057 32.4442 76.5817 33.5362 76.5817 35.1042V38.7162C76.5817 38.9542 76.7077 39.0802 76.9597 39.0802H77.3797V40.0322H76.7217C75.9237 40.0322 75.5037 39.6682 75.5037 38.9822V38.7582C75.0697 39.6122 74.2297 40.1442 72.9417 40.1442ZM73.1097 39.1502C74.4957 39.1502 75.4477 38.2682 75.4477 37.0362V36.0702C75.1257 36.5042 74.2997 36.5882 73.3897 36.6862C72.3677 36.7982 71.3457 36.9382 71.3457 37.8902C71.3457 38.6602 72.0457 39.1502 73.1097 39.1502ZM79.8725 42.8322H78.7105V32.6122H79.6345L79.7605 33.9562C80.2925 33.0322 81.2725 32.4442 82.4765 32.4442C84.4365 32.4442 85.8085 34.0122 85.8085 36.2802C85.8085 38.5902 84.4365 40.1862 82.4765 40.1862C81.3425 40.1862 80.4045 39.6682 79.8725 38.8002V42.8322ZM82.2945 39.1782C83.6665 39.1782 84.6045 37.9882 84.6045 36.2802C84.6045 34.6142 83.6665 33.4522 82.2805 33.4522C80.8805 33.4522 79.8725 34.5862 79.8725 36.2242C79.8725 37.9602 80.8805 39.1782 82.2945 39.1782ZM88.5268 42.8322H87.3648V32.6122H88.2888L88.4148 33.9562C88.9468 33.0322 89.9268 32.4442 91.1308 32.4442C93.0908 32.4442 94.4628 34.0122 94.4628 36.2802C94.4628 38.5902 93.0908 40.1862 91.1308 40.1862C89.9968 40.1862 89.0588 39.6682 88.5268 38.8002V42.8322ZM90.9488 39.1782C92.3208 39.1782 93.2588 37.9882 93.2588 36.2802C93.2588 34.6142 92.3208 33.4522 90.9348 33.4522C89.5348 33.4522 88.5268 34.5862 88.5268 36.2242C88.5268 37.9602 89.5348 39.1782 90.9488 39.1782ZM99.2671 40.1862C97.0691 40.1862 95.6131 38.5762 95.6131 36.3502C95.6131 33.8162 97.2511 32.4442 99.1271 32.4442C101.171 32.4442 102.487 33.8162 102.529 36.1962V36.5182H96.7751C96.8451 38.1002 97.7691 39.1782 99.2671 39.1782C100.303 39.1782 101.059 38.6602 101.367 37.6942H102.501C102.165 39.2202 100.961 40.1862 99.2671 40.1862ZM96.8451 35.5522H101.311C101.101 34.2502 100.317 33.4522 99.1271 33.4522C97.9511 33.4522 97.0831 34.2222 96.8451 35.5522ZM105.219 40.0322H104.057V32.6122H104.981L105.093 33.7462C105.597 32.9622 106.563 32.4442 107.669 32.4442C109.265 32.4442 110.329 33.4802 110.329 35.1182V40.0322H109.167V35.1602C109.167 34.1242 108.495 33.4662 107.375 33.4662C106.045 33.4662 105.233 34.3902 105.219 35.5242V40.0322ZM118.068 40.1862C116.304 40.1862 115.002 39.2622 114.904 37.6942H116.038C116.122 38.6602 117.004 39.1922 118.124 39.1922C119.174 39.1922 119.678 38.7862 119.678 38.0442C119.678 37.3442 119.132 37.1902 118.362 36.9242L117.284 36.5602C116.192 36.1962 115.1 35.8602 115.1 34.5162C115.1 33.2562 116.08 32.4442 117.704 32.4442C119.342 32.4442 120.476 33.3262 120.658 34.9782H119.524C119.398 33.9422 118.67 33.4382 117.662 33.4382C116.752 33.4382 116.22 33.8442 116.22 34.4882C116.22 35.2582 117.032 35.4122 117.648 35.6222L118.656 35.9582C120.014 36.4062 120.826 36.8682 120.826 38.1002C120.826 39.4022 119.874 40.1862 118.068 40.1862ZM123.459 40.0322H122.297V29.5322H123.459V36.2662L127.071 32.6122H128.471L125.797 35.3142L128.877 40.0322H127.519L124.999 36.1262L123.459 37.6802V40.0322ZM132.182 40.1442C130.502 40.1442 129.424 39.2762 129.424 37.9182C129.424 36.2102 131.076 35.8882 132.56 35.7342C133.694 35.6222 134.674 35.6362 134.688 35.0342C134.674 34.0962 133.904 33.4382 132.784 33.4382C131.706 33.4382 130.866 34.0402 130.74 34.9222H129.592C129.732 33.4662 131.048 32.4442 132.812 32.4442C134.646 32.4442 135.822 33.5362 135.822 35.1042V38.7162C135.822 38.9542 135.948 39.0802 136.2 39.0802H136.62V40.0322H135.962C135.164 40.0322 134.744 39.6682 134.744 38.9822V38.7582C134.31 39.6122 133.47 40.1442 132.182 40.1442ZM132.35 39.1502C133.736 39.1502 134.688 38.2682 134.688 37.0362V36.0702C134.366 36.5042 133.54 36.5882 132.63 36.6862C131.608 36.7982 130.586 36.9382 130.586 37.8902C130.586 38.6602 131.286 39.1502 132.35 39.1502ZM139.127 40.0322H137.965V29.5322H139.127V40.0322ZM144.8 31.3662C144.31 31.3662 143.932 30.9882 143.932 30.4982C143.932 30.0082 144.31 29.6442 144.8 29.6442C145.29 29.6442 145.654 30.0082 145.654 30.4982C145.654 30.9882 145.29 31.3662 144.8 31.3662ZM145.374 40.0322H144.212V32.6122H145.374V40.0322ZM148.478 40.0322H147.316V29.5322H148.478V36.2662L152.09 32.6122H153.49L150.816 35.3142L153.896 40.0322H152.538L150.018 36.1262L148.478 37.6802V40.0322ZM156.08 40.0322H154.918V29.5322H156.08V36.2662L159.692 32.6122H161.092L158.418 35.3142L161.498 40.0322H160.14L157.62 36.1262L156.08 37.6802V40.0322ZM165.357 40.1862C163.159 40.1862 161.703 38.5762 161.703 36.3502C161.703 33.8162 163.341 32.4442 165.217 32.4442C167.261 32.4442 168.577 33.8162 168.619 36.1962V36.5182H162.865C162.935 38.1002 163.859 39.1782 165.357 39.1782C166.393 39.1782 167.149 38.6602 167.457 37.6942H168.591C168.255 39.2202 167.051 40.1862 165.357 40.1862ZM162.935 35.5522H167.401C167.191 34.2502 166.407 33.4522 165.217 33.4522C164.041 33.4522 163.173 34.2222 162.935 35.5522ZM177.1 40.1862C175.882 40.1862 174.888 39.5842 174.384 38.6182L174.258 40.0322H173.334V29.5322H174.496V33.7742C175.042 32.9622 175.98 32.4442 177.1 32.4442C179.06 32.4442 180.432 34.0122 180.432 36.2802C180.432 38.5902 179.06 40.1862 177.1 40.1862ZM176.918 39.1782C178.29 39.1782 179.228 37.9882 179.228 36.2802C179.228 34.6142 178.29 33.4522 176.904 33.4522C175.504 33.4522 174.496 34.5862 174.496 36.2242C174.496 37.9602 175.504 39.1782 176.918 39.1782ZM183.122 40.0322H181.96V32.6122H182.884L183.024 34.0262C183.5 33.0742 184.368 32.5702 185.6 32.5702H185.852V33.7182H185.6C184.032 33.7182 183.122 34.6142 183.122 36.1402V40.0322ZM190.117 40.1862C187.919 40.1862 186.463 38.5762 186.463 36.3502C186.463 33.8162 188.101 32.4442 189.977 32.4442C192.021 32.4442 193.337 33.8162 193.379 36.1962V36.5182H187.625C187.695 38.1002 188.619 39.1782 190.117 39.1782C191.153 39.1782 191.909 38.6602 192.217 37.6942H193.351C193.015 39.2202 191.811 40.1862 190.117 40.1862ZM187.695 35.5522H192.161C191.951 34.2502 191.167 33.4522 189.977 33.4522C188.801 33.4522 187.933 34.2222 187.695 35.5522ZM196.111 40.0322H194.949V29.5322H196.111V36.2662L199.723 32.6122H201.123L198.449 35.3142L201.529 40.0322H200.171L197.651 36.1262L196.111 37.6802V40.0322ZM203.713 40.0322H202.551V29.5322H203.713V36.2662L207.325 32.6122H208.725L206.051 35.3142L209.131 40.0322H207.773L205.253 36.1262L203.713 37.6802V40.0322ZM212.99 40.1862C210.792 40.1862 209.336 38.5762 209.336 36.3502C209.336 33.8162 210.974 32.4442 212.85 32.4442C214.894 32.4442 216.21 33.8162 216.252 36.1962V36.5182H210.498C210.568 38.1002 211.492 39.1782 212.99 39.1782C214.026 39.1782 214.782 38.6602 215.09 37.6942H216.224C215.888 39.2202 214.684 40.1862 212.99 40.1862ZM210.568 35.5522H215.034C214.824 34.2502 214.04 33.4522 212.85 33.4522C211.674 33.4522 210.806 34.2222 210.568 35.5522ZM224.187 40.1862C221.807 40.1862 220.547 38.4922 220.547 36.2522C220.547 33.7742 222.171 32.4442 224.187 32.4442C226.553 32.4442 227.827 34.1522 227.827 36.2522C227.827 38.8142 226.273 40.1862 224.187 40.1862ZM224.187 39.1782C225.769 39.1782 226.637 37.8622 226.637 36.2522C226.637 34.5862 225.671 33.4522 224.187 33.4522C222.703 33.4522 221.737 34.5862 221.737 36.2522C221.737 38.1562 222.843 39.1782 224.187 39.1782ZM232.713 40.0322H231.495L228.401 32.6122H229.661L232.111 38.6742L234.547 32.6122H235.807L232.713 40.0322ZM240.046 40.1862C237.848 40.1862 236.392 38.5762 236.392 36.3502C236.392 33.8162 238.03 32.4442 239.906 32.4442C241.95 32.4442 243.266 33.8162 243.308 36.1962V36.5182H237.554C237.624 38.1002 238.548 39.1782 240.046 39.1782C241.082 39.1782 241.838 38.6602 242.146 37.6942H243.28C242.944 39.2202 241.74 40.1862 240.046 40.1862ZM237.624 35.5522H242.09C241.88 34.2502 241.096 33.4522 239.906 33.4522C238.73 33.4522 237.862 34.2222 237.624 35.5522ZM245.999 40.0322H244.837V32.6122H245.761L245.901 34.0262C246.377 33.0742 247.245 32.5702 248.477 32.5702H248.729V33.7182H248.477C246.909 33.7182 245.999 34.6142 245.999 36.1402V40.0322ZM257.068 40.0322H256.242C254.8 40.0322 254.03 39.2902 254.03 37.9182V33.5922H252.658V32.6122H254.03V30.0782H255.192V32.6122H257.194V33.5922H255.192V37.9182C255.192 38.6602 255.556 39.0522 256.242 39.0522H257.068V40.0322ZM261.648 40.1862C259.268 40.1862 258.008 38.4922 258.008 36.2522C258.008 33.7742 259.632 32.4442 261.648 32.4442C264.014 32.4442 265.288 34.1522 265.288 36.2522C265.288 38.8142 263.734 40.1862 261.648 40.1862ZM261.648 39.1782C263.23 39.1782 264.098 37.8622 264.098 36.2522C264.098 34.5862 263.132 33.4522 261.648 33.4522C260.164 33.4522 259.198 34.5862 259.198 36.2522C259.198 38.1562 260.304 39.1782 261.648 39.1782ZM271.156 40.0322H269.994V29.5322H271.156V40.0322ZM273.685 31.3662C273.195 31.3662 272.817 30.9882 272.817 30.4982C272.817 30.0082 273.195 29.6442 273.685 29.6442C274.175 29.6442 274.539 30.0082 274.539 30.4982C274.539 30.9882 274.175 31.3662 273.685 31.3662ZM274.259 40.0322H273.097V32.6122H274.259V40.0322ZM277.321 40.0322H276.159V32.6122H277.083L277.195 33.7462C277.699 32.9622 278.665 32.4442 279.771 32.4442C281.367 32.4442 282.431 33.4802 282.431 35.1182V40.0322H281.269V35.1602C281.269 34.1242 280.597 33.4662 279.477 33.4662C278.147 33.4662 277.335 34.3902 277.321 35.5242V40.0322ZM284.841 31.3662C284.337 31.3662 283.973 31.0022 283.973 30.4982C283.973 30.0082 284.337 29.6442 284.841 29.6442C285.331 29.6442 285.695 30.0082 285.695 30.4982C285.695 31.0022 285.331 31.3662 284.841 31.3662ZM283.203 42.8322H282.167V41.8522H283.203C283.889 41.8522 284.253 41.4602 284.253 40.7182V32.6122H285.415V40.7182C285.415 42.0902 284.645 42.8322 283.203 42.8322ZM290.591 40.1862C288.393 40.1862 286.937 38.5762 286.937 36.3502C286.937 33.8162 288.575 32.4442 290.451 32.4442C292.495 32.4442 293.811 33.8162 293.853 36.1962V36.5182H288.099C288.169 38.1002 289.093 39.1782 290.591 39.1782C291.627 39.1782 292.383 38.6602 292.691 37.6942H293.825C293.489 39.2202 292.285 40.1862 290.591 40.1862ZM288.169 35.5522H292.635C292.425 34.2502 291.641 33.4522 290.451 33.4522C289.275 33.4522 288.407 34.2222 288.169 35.5522ZM296.544 40.0322H295.382V32.6122H296.306L296.446 34.0262C296.922 33.0742 297.79 32.5702 299.022 32.5702H299.274V33.7182H299.022C297.454 33.7182 296.544 34.6142 296.544 36.1402V40.0322ZM301.1 37.9182L299.574 42.5942L298.636 42.3002L300.106 37.6102L301.1 37.9182ZM309.158 40.1862C306.96 40.1862 305.504 38.5762 305.504 36.3502C305.504 33.8162 307.142 32.4442 309.018 32.4442C311.062 32.4442 312.378 33.8162 312.42 36.1962V36.5182H306.666C306.736 38.1002 307.66 39.1782 309.158 39.1782C310.194 39.1782 310.95 38.6602 311.258 37.6942H312.392C312.056 39.2202 310.852 40.1862 309.158 40.1862ZM306.736 35.5522H311.202C310.992 34.2502 310.208 33.4522 309.018 33.4522C307.842 33.4522 306.974 34.2222 306.736 35.5522ZM315.152 40.0322H313.99V29.5322H315.152V40.0322ZM318.297 40.0322H317.135V29.5322H318.297V40.0322ZM323.513 40.1862C321.315 40.1862 319.859 38.5762 319.859 36.3502C319.859 33.8162 321.497 32.4442 323.373 32.4442C325.417 32.4442 326.733 33.8162 326.775 36.1962V36.5182H321.021C321.091 38.1002 322.015 39.1782 323.513 39.1782C324.549 39.1782 325.305 38.6602 325.613 37.6942H326.747C326.411 39.2202 325.207 40.1862 323.513 40.1862ZM321.091 35.5522H325.557C325.347 34.2502 324.563 33.4522 323.373 33.4522C322.197 33.4522 321.329 34.2222 321.091 35.5522ZM329.466 40.0322H328.304V32.6122H329.228L329.368 34.0262C329.844 33.0742 330.712 32.5702 331.944 32.5702H332.196V33.7182H331.944C330.376 33.7182 329.466 34.6142 329.466 36.1402V40.0322ZM56.214 65.1862C53.834 65.1862 52.574 63.4922 52.574 61.2522C52.574 58.7742 54.198 57.4442 56.214 57.4442C58.58 57.4442 59.854 59.1522 59.854 61.2522C59.854 63.8142 58.3 65.1862 56.214 65.1862ZM56.214 64.1782C57.796 64.1782 58.664 62.8622 58.664 61.2522C58.664 59.5862 57.698 58.4522 56.214 58.4522C54.73 58.4522 53.764 59.5862 53.764 61.2522C53.764 63.1562 54.87 64.1782 56.214 64.1782ZM64.7404 65.0322H63.5224L60.4284 57.6122H61.6884L64.1384 63.6742L66.5744 57.6122H67.8344L64.7404 65.0322ZM72.0737 65.1862C69.8757 65.1862 68.4197 63.5762 68.4197 61.3502C68.4197 58.8162 70.0577 57.4442 71.9337 57.4442C73.9777 57.4442 75.2937 58.8162 75.3357 61.1962V61.5182H69.5817C69.6517 63.1002 70.5757 64.1782 72.0737 64.1782C73.1097 64.1782 73.8657 63.6602 74.1737 62.6942H75.3077C74.9717 64.2202 73.7677 65.1862 72.0737 65.1862ZM69.6517 60.5522H74.1177C73.9077 59.2502 73.1237 58.4522 71.9337 58.4522C70.7577 58.4522 69.8897 59.2222 69.6517 60.5522ZM78.0261 65.0322H76.8641V57.6122H77.7881L77.9281 59.0262C78.4041 58.0742 79.2721 57.5702 80.5041 57.5702H80.7561V58.7182H80.5041C78.9361 58.7182 78.0261 59.6142 78.0261 61.1402V65.0322ZM84.6947 65.1862C82.9307 65.1862 81.6287 64.2622 81.5307 62.6942H82.6647C82.7487 63.6602 83.6307 64.1922 84.7507 64.1922C85.8007 64.1922 86.3047 63.7862 86.3047 63.0442C86.3047 62.3442 85.7587 62.1902 84.9887 61.9242L83.9107 61.5602C82.8187 61.1962 81.7267 60.8602 81.7267 59.5162C81.7267 58.2562 82.7067 57.4442 84.3307 57.4442C85.9687 57.4442 87.1027 58.3262 87.2847 59.9782H86.1507C86.0247 58.9422 85.2967 58.4382 84.2887 58.4382C83.3787 58.4382 82.8467 58.8442 82.8467 59.4882C82.8467 60.2582 83.6587 60.4122 84.2747 60.6222L85.2827 60.9582C86.6407 61.4062 87.4527 61.8682 87.4527 63.1002C87.4527 64.4022 86.5007 65.1862 84.6947 65.1862ZM90.0857 65.0322H88.9237V54.5322H90.0857V61.2662L93.6977 57.6122H95.0977L92.4237 60.3142L95.5037 65.0322H94.1457L91.6257 61.1262L90.0857 62.6802V65.0322ZM97.6453 65.0322H96.4833V57.6122H97.4073L97.5473 59.0262C98.0233 58.0742 98.8913 57.5702 100.123 57.5702H100.375V58.7182H100.123C98.5553 58.7182 97.6453 59.6142 97.6453 61.1402V65.0322ZM102.294 56.3662C101.804 56.3662 101.426 55.9882 101.426 55.4982C101.426 55.0082 101.804 54.6442 102.294 54.6442C102.784 54.6442 103.148 55.0082 103.148 55.4982C103.148 55.9882 102.784 56.3662 102.294 56.3662ZM102.868 65.0322H101.706V57.6122H102.868V65.0322ZM107.764 65.1862C105.776 65.1862 104.39 63.5902 104.39 61.2802C104.39 59.0122 105.762 57.4442 107.75 57.4442C108.87 57.4442 109.808 57.9342 110.34 58.7182V54.5322H111.502V65.0322H110.578L110.452 63.6042C109.962 64.5702 108.982 65.1862 107.764 65.1862ZM107.946 64.1782C109.36 64.1782 110.34 62.9742 110.34 61.2522C110.34 59.5862 109.388 58.4382 108.016 58.4382C106.588 58.4382 105.594 59.6002 105.594 61.2802C105.594 62.9882 106.56 64.1782 107.946 64.1782ZM116.726 65.1862C114.528 65.1862 113.072 63.5762 113.072 61.3502C113.072 58.8162 114.71 57.4442 116.586 57.4442C118.63 57.4442 119.946 58.8162 119.988 61.1962V61.5182H114.234C114.304 63.1002 115.228 64.1782 116.726 64.1782C117.762 64.1782 118.518 63.6602 118.826 62.6942H119.96C119.624 64.2202 118.42 65.1862 116.726 65.1862ZM114.304 60.5522H118.77C118.56 59.2502 117.776 58.4522 116.586 58.4522C115.41 58.4522 114.542 59.2222 114.304 60.5522ZM125.865 65.0322H124.703V54.5322H125.865V61.2662L129.477 57.6122H130.877L128.203 60.3142L131.283 65.0322H129.925L127.405 61.1262L125.865 62.6802V65.0322ZM133.425 65.0322H132.263V57.6122H133.187L133.299 58.7462C133.803 57.9622 134.769 57.4442 135.875 57.4442C137.471 57.4442 138.535 58.4802 138.535 60.1182V65.0322H137.373V60.1602C137.373 59.1242 136.701 58.4662 135.581 58.4662C134.251 58.4662 133.439 59.3902 133.425 60.5242V65.0322ZM142.75 65.1442C141.07 65.1442 139.992 64.2762 139.992 62.9182C139.992 61.2102 141.644 60.8882 143.128 60.7342C144.262 60.6222 145.242 60.6362 145.256 60.0342C145.242 59.0962 144.472 58.4382 143.352 58.4382C142.274 58.4382 141.434 59.0402 141.308 59.9222H140.16C140.3 58.4662 141.616 57.4442 143.38 57.4442C145.214 57.4442 146.39 58.5362 146.39 60.1042V63.7162C146.39 63.9542 146.516 64.0802 146.768 64.0802H147.188V65.0322H146.53C145.732 65.0322 145.312 64.6682 145.312 63.9822V63.7582C144.878 64.6122 144.038 65.1442 142.75 65.1442ZM142.918 64.1502C144.304 64.1502 145.256 63.2682 145.256 62.0362V61.0702C144.934 61.5042 144.108 61.5882 143.198 61.6862C142.176 61.7982 141.154 61.9382 141.154 62.8902C141.154 63.6602 141.854 64.1502 142.918 64.1502ZM149.681 67.8322H148.519V57.6122H149.443L149.569 58.9562C150.101 58.0322 151.081 57.4442 152.285 57.4442C154.245 57.4442 155.617 59.0122 155.617 61.2802C155.617 63.5902 154.245 65.1862 152.285 65.1862C151.151 65.1862 150.213 64.6682 149.681 63.8002V67.8322ZM152.103 64.1782C153.475 64.1782 154.413 62.9882 154.413 61.2802C154.413 59.6142 153.475 58.4522 152.089 58.4522C150.689 58.4522 149.681 59.5862 149.681 61.2242C149.681 62.9602 150.689 64.1782 152.103 64.1782ZM158.335 67.8322H157.173V57.6122H158.097L158.223 58.9562C158.755 58.0322 159.735 57.4442 160.939 57.4442C162.899 57.4442 164.271 59.0122 164.271 61.2802C164.271 63.5902 162.899 65.1862 160.939 65.1862C159.805 65.1862 158.867 64.6682 158.335 63.8002V67.8322ZM160.757 64.1782C162.129 64.1782 163.067 62.9882 163.067 61.2802C163.067 59.6142 162.129 58.4522 160.743 58.4522C159.343 58.4522 158.335 59.5862 158.335 61.2242C158.335 62.9602 159.343 64.1782 160.757 64.1782ZM169.076 65.1862C166.878 65.1862 165.422 63.5762 165.422 61.3502C165.422 58.8162 167.06 57.4442 168.936 57.4442C170.98 57.4442 172.296 58.8162 172.338 61.1962V61.5182H166.584C166.654 63.1002 167.578 64.1782 169.076 64.1782C170.112 64.1782 170.868 63.6602 171.176 62.6942H172.31C171.974 64.2202 170.77 65.1862 169.076 65.1862ZM166.654 60.5522H171.12C170.91 59.2502 170.126 58.4522 168.936 58.4522C167.76 58.4522 166.892 59.2222 166.654 60.5522ZM175.028 65.0322H173.866V57.6122H174.79L174.902 58.7462C175.406 57.9622 176.372 57.4442 177.478 57.4442C179.074 57.4442 180.138 58.4802 180.138 60.1182V65.0322H178.976V60.1602C178.976 59.1242 178.304 58.4662 177.184 58.4662C175.854 58.4662 175.042 59.3902 175.028 60.5242V65.0322ZM184.732 65.1862C182.968 65.1862 181.666 64.2622 181.568 62.6942H182.702C182.786 63.6602 183.668 64.1922 184.788 64.1922C185.838 64.1922 186.342 63.7862 186.342 63.0442C186.342 62.3442 185.796 62.1902 185.026 61.9242L183.948 61.5602C182.856 61.1962 181.764 60.8602 181.764 59.5162C181.764 58.2562 182.744 57.4442 184.368 57.4442C186.006 57.4442 187.14 58.3262 187.322 59.9782H186.188C186.062 58.9422 185.334 58.4382 184.326 58.4382C183.416 58.4382 182.884 58.8442 182.884 59.4882C182.884 60.2582 183.696 60.4122 184.312 60.6222L185.32 60.9582C186.678 61.4062 187.49 61.8682 187.49 63.1002C187.49 64.4022 186.538 65.1862 184.732 65.1862ZM193.225 65.0322H192.063V57.6122H192.987L193.127 59.0262C193.603 58.0742 194.471 57.5702 195.703 57.5702H195.955V58.7182H195.703C194.135 58.7182 193.225 59.6142 193.225 61.1402V65.0322ZM199.516 65.1442C197.836 65.1442 196.758 64.2762 196.758 62.9182C196.758 61.2102 198.41 60.8882 199.894 60.7342C201.028 60.6222 202.008 60.6362 202.022 60.0342C202.008 59.0962 201.238 58.4382 200.118 58.4382C199.04 58.4382 198.2 59.0402 198.074 59.9222H196.926C197.066 58.4662 198.382 57.4442 200.146 57.4442C201.98 57.4442 203.156 58.5362 203.156 60.1042V63.7162C203.156 63.9542 203.282 64.0802 203.534 64.0802H203.954V65.0322H203.296C202.498 65.0322 202.078 64.6682 202.078 63.9822V63.7582C201.644 64.6122 200.804 65.1442 199.516 65.1442ZM199.684 64.1502C201.07 64.1502 202.022 63.2682 202.022 62.0362V61.0702C201.7 61.5042 200.874 61.5882 199.964 61.6862C198.942 61.7982 197.92 61.9382 197.92 62.8902C197.92 63.6602 198.62 64.1502 199.684 64.1502ZM206.419 65.0322H205.257V57.6122H206.181L206.293 58.7602C206.797 57.9622 207.763 57.4442 208.827 57.4442C209.947 57.4442 210.787 58.0182 211.165 58.9142C211.641 58.0462 212.663 57.4442 213.797 57.4442C215.365 57.4442 216.373 58.5502 216.373 60.0622V65.0322H215.211V60.1042C215.211 59.1102 214.595 58.4662 213.601 58.4662C212.215 58.4662 211.403 59.3902 211.389 60.5242V65.0322H210.241V60.1042C210.241 59.1102 209.625 58.4662 208.631 58.4662C207.245 58.4662 206.433 59.3902 206.419 60.5242V65.0322ZM219.352 65.0322H218.19V57.6122H219.114L219.226 58.7602C219.73 57.9622 220.696 57.4442 221.76 57.4442C222.88 57.4442 223.72 58.0182 224.098 58.9142C224.574 58.0462 225.596 57.4442 226.73 57.4442C228.298 57.4442 229.306 58.5502 229.306 60.0622V65.0322H228.144V60.1042C228.144 59.1102 227.528 58.4662 226.534 58.4662C225.148 58.4662 224.336 59.3902 224.322 60.5242V65.0322H223.174V60.1042C223.174 59.1102 222.558 58.4662 221.564 58.4662C220.178 58.4662 219.366 59.3902 219.352 60.5242V65.0322ZM234.4 65.1862C232.202 65.1862 230.746 63.5762 230.746 61.3502C230.746 58.8162 232.384 57.4442 234.26 57.4442C236.304 57.4442 237.62 58.8162 237.662 61.1962V61.5182H231.908C231.978 63.1002 232.902 64.1782 234.4 64.1782C235.436 64.1782 236.192 63.6602 236.5 62.6942H237.634C237.298 64.2202 236.094 65.1862 234.4 65.1862ZM231.978 60.5522H236.444C236.234 59.2502 235.45 58.4522 234.26 58.4522C233.084 58.4522 232.216 59.2222 231.978 60.5522ZM240.352 65.0322H239.19V57.6122H240.114L240.254 59.0262C240.73 58.0742 241.598 57.5702 242.83 57.5702H243.082V58.7182H242.83C241.262 58.7182 240.352 59.6142 240.352 61.1402V65.0322ZM243.977 65.1722C243.473 65.1722 243.095 64.7942 243.095 64.2902C243.095 63.8002 243.473 63.4222 243.977 63.4222C244.481 63.4222 244.859 63.8002 244.859 64.2902C244.859 64.7942 244.481 65.1722 243.977 65.1722Z" fill="#481125"/>
<rect x="24.5" y="98.5322" width="313" height="100" rx="12.7123" fill="#FDF9F9"/>
<rect x="24.5" y="98.5322" width="313" height="100" rx="12.7123" stroke="#691837"/>
<g clip-path="url(#clip1_581_1664)">
<rect x="130" y="114.032" width="102" height="69" rx="8" fill="#F9EAED"/>
<g clip-path="url(#clip2_581_1664)">
<path d="M181.001 135.782C180.927 135.782 180.854 135.769 180.784 135.743L180.766 135.736C180.688 135.705 180.617 135.658 180.558 135.599L176.809 131.849C176.691 131.731 176.626 131.574 176.626 131.407C176.626 131.241 176.691 131.083 176.809 130.966C176.927 130.847 177.084 130.782 177.251 130.782C177.417 130.782 177.575 130.847 177.692 130.966L180.376 133.649V125.157C180.376 124.991 180.442 124.832 180.559 124.715C180.676 124.598 180.835 124.532 181.001 124.532C181.167 124.532 181.326 124.598 181.443 124.715C181.56 124.832 181.626 124.991 181.626 125.157V133.648L184.309 130.965C184.367 130.906 184.436 130.86 184.511 130.828C184.587 130.796 184.669 130.78 184.751 130.78C184.833 130.78 184.914 130.796 184.99 130.828C185.066 130.86 185.135 130.906 185.192 130.965C185.311 131.082 185.376 131.24 185.376 131.406C185.376 131.573 185.311 131.731 185.192 131.848L181.442 135.598C181.384 135.657 181.314 135.703 181.237 135.735L181.216 135.743C181.147 135.769 181.074 135.782 181.001 135.782Z" fill="#330314"/>
<path d="M174.126 139.532C173.297 139.531 172.503 139.202 171.917 138.616C171.331 138.03 171.002 137.236 171.001 136.407V135.157C171.001 134.991 171.067 134.832 171.184 134.715C171.301 134.598 171.46 134.532 171.626 134.532C171.792 134.532 171.951 134.598 172.068 134.715C172.185 134.832 172.251 134.991 172.251 135.157V136.407C172.251 136.904 172.449 137.381 172.801 137.733C173.152 138.084 173.629 138.282 174.126 138.282H187.876C188.373 138.282 188.85 138.084 189.201 137.733C189.553 137.381 189.751 136.904 189.751 136.407V135.157C189.751 134.991 189.817 134.832 189.934 134.715C190.051 134.598 190.21 134.532 190.376 134.532C190.542 134.532 190.701 134.598 190.818 134.715C190.935 134.832 191.001 134.991 191.001 135.157V136.407C191 137.236 190.671 138.03 190.085 138.616C189.499 139.202 188.705 139.531 187.876 139.532H174.126Z" fill="#330314"/>
</g>
<path d="M120.884 167.032H113.54V155.832H114.884V165.8H120.884V167.032ZM125.347 167.16C123.427 167.16 122.195 166.168 122.195 164.616C122.195 162.664 124.083 162.296 125.779 162.12C127.075 161.992 128.195 162.008 128.211 161.32C128.195 160.248 127.315 159.496 126.035 159.496C124.803 159.496 123.843 160.184 123.699 161.192H122.387C122.547 159.528 124.051 158.36 126.067 158.36C128.163 158.36 129.507 159.608 129.507 161.4V165.528C129.507 165.8 129.651 165.944 129.939 165.944H130.419V167.032H129.667C128.755 167.032 128.275 166.616 128.275 165.832V165.576C127.779 166.552 126.819 167.16 125.347 167.16ZM125.539 166.024C127.123 166.024 128.211 165.016 128.211 163.608V162.504C127.843 163 126.899 163.096 125.859 163.208C124.691 163.336 123.523 163.496 123.523 164.584C123.523 165.464 124.323 166.024 125.539 166.024ZM135.076 167.208C133.06 167.208 131.572 166.152 131.46 164.36H132.756C132.852 165.464 133.86 166.072 135.14 166.072C136.34 166.072 136.916 165.608 136.916 164.76C136.916 163.96 136.292 163.784 135.412 163.48L134.18 163.064C132.932 162.648 131.684 162.264 131.684 160.728C131.684 159.288 132.804 158.36 134.66 158.36C136.532 158.36 137.828 159.368 138.036 161.256H136.74C136.596 160.072 135.764 159.496 134.612 159.496C133.572 159.496 132.964 159.96 132.964 160.696C132.964 161.576 133.892 161.752 134.596 161.992L135.748 162.376C137.3 162.888 138.228 163.416 138.228 164.824C138.228 166.312 137.14 167.208 135.076 167.208ZM144.059 167.032H143.115C141.467 167.032 140.587 166.184 140.587 164.616V159.672H139.019V158.552H140.587V155.656H141.915V158.552H144.203V159.672H141.915V164.616C141.915 165.464 142.331 165.912 143.115 165.912H144.059V167.032ZM150.689 167.032H149.361V158.552H150.417L150.545 159.848C151.121 158.952 152.225 158.36 153.489 158.36C155.313 158.36 156.529 159.544 156.529 161.416V167.032H155.201V161.464C155.201 160.28 154.433 159.528 153.153 159.528C151.633 159.528 150.705 160.584 150.689 161.88V167.032ZM162.355 167.208C159.843 167.208 158.179 165.368 158.179 162.824C158.179 159.928 160.051 158.36 162.195 158.36C164.531 158.36 166.035 159.928 166.083 162.648V163.016H159.507C159.587 164.824 160.643 166.056 162.355 166.056C163.539 166.056 164.403 165.464 164.755 164.36H166.051C165.667 166.104 164.291 167.208 162.355 167.208ZM159.587 161.912H164.691C164.451 160.424 163.555 159.512 162.195 159.512C160.851 159.512 159.859 160.392 159.587 161.912ZM171.254 167.208C168.982 167.208 167.398 165.384 167.398 162.744C167.398 160.152 168.966 158.36 171.238 158.36C172.518 158.36 173.59 158.92 174.198 159.816V155.032H175.526V167.032H174.47L174.326 165.4C173.766 166.504 172.646 167.208 171.254 167.208ZM171.462 166.056C173.078 166.056 174.198 164.68 174.198 162.712C174.198 160.808 173.11 159.496 171.542 159.496C169.91 159.496 168.774 160.824 168.774 162.744C168.774 164.696 169.878 166.056 171.462 166.056ZM182.018 157.128C181.458 157.128 181.026 156.696 181.026 156.136C181.026 155.576 181.458 155.16 182.018 155.16C182.578 155.16 182.994 155.576 182.994 156.136C182.994 156.696 182.578 157.128 182.018 157.128ZM182.674 167.032H181.346V158.552H182.674V167.032ZM186.174 167.032H184.846V158.552H185.902L186.03 159.848C186.606 158.952 187.71 158.36 188.974 158.36C190.798 158.36 192.014 159.544 192.014 161.416V167.032H190.686V161.464C190.686 160.28 189.918 159.528 188.638 159.528C187.118 159.528 186.19 160.584 186.174 161.88V167.032ZM195.424 167.032H194.096V158.552H195.152L195.28 159.848C195.856 158.952 196.96 158.36 198.224 158.36C200.048 158.36 201.264 159.544 201.264 161.416V167.032H199.936V161.464C199.936 160.28 199.168 159.528 197.888 159.528C196.368 159.528 195.44 160.584 195.424 161.88V167.032ZM204.722 167.032H203.394V155.032H204.722V159.64C205.33 158.872 206.37 158.36 207.522 158.36C209.346 158.36 210.562 159.544 210.562 161.416V167.032H209.234V161.464C209.234 160.28 208.466 159.528 207.266 159.528C205.666 159.528 204.738 160.584 204.722 161.88V167.032ZM216.371 167.208C213.651 167.208 212.211 165.272 212.211 162.712C212.211 159.88 214.067 158.36 216.371 158.36C219.075 158.36 220.531 160.312 220.531 162.712C220.531 165.64 218.755 167.208 216.371 167.208ZM216.371 166.056C218.179 166.056 219.171 164.552 219.171 162.712C219.171 160.808 218.067 159.512 216.371 159.512C214.675 159.512 213.571 160.808 213.571 162.712C213.571 164.888 214.835 166.056 216.371 166.056ZM223.644 167.032H222.316V155.032H223.644V167.032ZM229.285 167.208C227.013 167.208 225.429 165.384 225.429 162.744C225.429 160.152 226.997 158.36 229.269 158.36C230.549 158.36 231.621 158.92 232.229 159.816V155.032H233.557V167.032H232.501L232.357 165.4C231.797 166.504 230.677 167.208 229.285 167.208ZM229.493 166.056C231.109 166.056 232.229 164.68 232.229 162.712C232.229 160.808 231.141 159.496 229.573 159.496C227.941 159.496 226.805 160.824 226.805 162.744C226.805 164.696 227.909 166.056 229.493 166.056ZM239.527 167.208C237.015 167.208 235.351 165.368 235.351 162.824C235.351 159.928 237.223 158.36 239.367 158.36C241.703 158.36 243.207 159.928 243.255 162.648V163.016H236.679C236.759 164.824 237.815 166.056 239.527 166.056C240.711 166.056 241.575 165.464 241.927 164.36H243.223C242.839 166.104 241.463 167.208 239.527 167.208ZM236.759 161.912H241.863C241.623 160.424 240.727 159.512 239.367 159.512C238.023 159.512 237.031 160.392 236.759 161.912ZM249.199 167.032H248.255C246.607 167.032 245.727 166.184 245.727 164.616V159.672H244.159V158.552H245.727V155.656H247.055V158.552H249.343V159.672H247.055V164.616C247.055 165.464 247.471 165.912 248.255 165.912H249.199V167.032Z" fill="#481125"/>
</g>
<rect x="382.5" y="24.0322" width="20" height="20" rx="10" fill="#03834E"/>
<path d="M390.25 38.9489H389.917C389.5 38.8655 389.167 38.6155 389 38.2822L387 35.3655C386.833 35.1155 386.833 34.6989 387.167 34.5322C387.25 34.4489 387.417 34.4489 387.5 34.4489C387.667 34.4489 387.917 34.5322 388 34.6989L390.083 37.6155C390.167 37.6989 390.167 37.6989 390.25 37.6989H390.333C390.417 37.6989 390.417 37.6989 390.5 37.6155C390.5 37.6155 390.583 37.6155 390.583 37.5322L397.167 29.2822C397.25 29.1155 397.5 29.0322 397.667 29.0322C397.833 29.0322 397.917 29.1155 398.083 29.1989C398.25 29.2822 398.333 29.4489 398.333 29.6155C398.333 29.7822 398.333 29.9489 398.167 30.1155L391.667 38.3655L391.333 38.6989C390.833 38.8655 390.583 38.9489 390.25 38.9489Z" fill="#FDF9F9"/>
<path d="M415.848 40.0322H414.588L410.78 30.2322H412.04L415.218 38.4082L418.298 30.2322H419.544L415.848 40.0322ZM423.205 40.1862C421.007 40.1862 419.551 38.5762 419.551 36.3502C419.551 33.8162 421.189 32.4442 423.065 32.4442C425.109 32.4442 426.425 33.8162 426.467 36.1962V36.5182H420.713C420.783 38.1002 421.707 39.1782 423.205 39.1782C424.241 39.1782 424.997 38.6602 425.305 37.6942H426.439C426.103 39.2202 424.899 40.1862 423.205 40.1862ZM420.783 35.5522H425.249C425.039 34.2502 424.255 33.4522 423.065 33.4522C421.889 33.4522 421.021 34.2222 420.783 35.5522ZM429.199 40.0322H428.037V29.5322H429.199V40.0322ZM434.374 43.0002C432.372 43.0002 431.014 42.0342 431.014 40.4662H432.176C432.176 41.3482 433.072 42.0202 434.374 42.0202C435.9 42.0202 436.698 41.1102 436.698 39.8362V38.6322C436.18 39.4022 435.284 39.9062 434.15 39.9062C432.176 39.9062 430.762 38.3942 430.762 36.2102C430.762 33.9842 432.19 32.4442 434.15 32.4442C435.34 32.4442 436.306 33.0042 436.81 33.9002L436.936 32.6122H437.846V39.8362C437.846 41.7122 436.586 43.0002 434.374 43.0002ZM434.318 38.8982C435.718 38.8982 436.698 37.7782 436.698 36.1682C436.698 34.5722 435.718 33.4522 434.318 33.4522C432.932 33.4522 431.966 34.5722 431.966 36.1962C431.966 37.7922 432.932 38.8982 434.318 38.8982ZM444.101 40.0322H442.939V29.5322H444.101V36.2662L447.713 32.6122H449.113L446.439 35.3142L449.519 40.0322H448.161L445.641 36.1262L444.101 37.6802V40.0322ZM453.364 40.1862C450.984 40.1862 449.724 38.4922 449.724 36.2522C449.724 33.7742 451.348 32.4442 453.364 32.4442C455.73 32.4442 457.004 34.1522 457.004 36.2522C457.004 38.8142 455.45 40.1862 453.364 40.1862ZM453.364 39.1782C454.946 39.1782 455.814 37.8622 455.814 36.2522C455.814 34.5862 454.848 33.4522 453.364 33.4522C451.88 33.4522 450.914 34.5862 450.914 36.2522C450.914 38.1562 452.02 39.1782 453.364 39.1782ZM459.686 40.0322H458.524V32.6122H459.448L459.588 34.0262C460.064 33.0742 460.932 32.5702 462.164 32.5702H462.416V33.7182H462.164C460.596 33.7182 459.686 34.6142 459.686 36.1402V40.0322ZM467.611 40.0322H466.785C465.343 40.0322 464.573 39.2902 464.573 37.9182V33.5922H463.201V32.6122H464.573V30.0782H465.735V32.6122H467.737V33.5922H465.735V37.9182C465.735 38.6602 466.099 39.0522 466.785 39.0522H467.611V40.0322ZM472.205 40.1862C470.007 40.1862 468.551 38.5762 468.551 36.3502C468.551 33.8162 470.189 32.4442 472.065 32.4442C474.109 32.4442 475.425 33.8162 475.467 36.1962V36.5182H469.713C469.783 38.1002 470.707 39.1782 472.205 39.1782C473.241 39.1782 473.997 38.6602 474.305 37.6942H475.439C475.103 39.2202 473.899 40.1862 472.205 40.1862ZM469.783 35.5522H474.249C474.039 34.2502 473.255 33.4522 472.065 33.4522C470.889 33.4522 470.021 34.2222 469.783 35.5522ZM483.948 40.1862C482.73 40.1862 481.736 39.5842 481.232 38.6182L481.106 40.0322H480.182V29.5322H481.344V33.7742C481.89 32.9622 482.828 32.4442 483.948 32.4442C485.908 32.4442 487.28 34.0122 487.28 36.2802C487.28 38.5902 485.908 40.1862 483.948 40.1862ZM483.766 39.1782C485.138 39.1782 486.076 37.9882 486.076 36.2802C486.076 34.6142 485.138 33.4522 483.752 33.4522C482.352 33.4522 481.344 34.5862 481.344 36.2242C481.344 37.9602 482.352 39.1782 483.766 39.1782ZM492.083 40.1862C489.885 40.1862 488.429 38.5762 488.429 36.3502C488.429 33.8162 490.067 32.4442 491.943 32.4442C493.987 32.4442 495.303 33.8162 495.345 36.1962V36.5182H489.591C489.661 38.1002 490.585 39.1782 492.083 39.1782C493.119 39.1782 493.875 38.6602 494.183 37.6942H495.317C494.981 39.2202 493.777 40.1862 492.083 40.1862ZM489.661 35.5522H494.127C493.917 34.2502 493.133 33.4522 491.943 33.4522C490.767 33.4522 489.899 34.2222 489.661 35.5522ZM499.646 40.1862C497.882 40.1862 496.58 39.2622 496.482 37.6942H497.616C497.7 38.6602 498.582 39.1922 499.702 39.1922C500.752 39.1922 501.256 38.7862 501.256 38.0442C501.256 37.3442 500.71 37.1902 499.94 36.9242L498.862 36.5602C497.77 36.1962 496.678 35.8602 496.678 34.5162C496.678 33.2562 497.658 32.4442 499.282 32.4442C500.92 32.4442 502.054 33.3262 502.236 34.9782H501.102C500.976 33.9422 500.248 33.4382 499.24 33.4382C498.33 33.4382 497.798 33.8442 497.798 34.4882C497.798 35.2582 498.61 35.4122 499.226 35.6222L500.234 35.9582C501.592 36.4062 502.404 36.8682 502.404 38.1002C502.404 39.4022 501.452 40.1862 499.646 40.1862ZM505.037 40.0322H503.875V29.5322H505.037V36.2662L508.649 32.6122H510.049L507.375 35.3142L510.455 40.0322H509.097L506.577 36.1262L505.037 37.6802V40.0322ZM512.596 40.0322H511.434V32.6122H512.358L512.498 34.0262C512.974 33.0742 513.842 32.5702 515.074 32.5702H515.326V33.7182H515.074C513.506 33.7182 512.596 34.6142 512.596 36.1402V40.0322ZM517.245 31.3662C516.755 31.3662 516.377 30.9882 516.377 30.4982C516.377 30.0082 516.755 29.6442 517.245 29.6442C517.735 29.6442 518.099 30.0082 518.099 30.4982C518.099 30.9882 517.735 31.3662 517.245 31.3662ZM517.819 40.0322H516.657V32.6122H517.819V40.0322ZM523.36 40.0322H522.142L519.048 32.6122H520.308L522.758 38.6742L525.194 32.6122H526.454L523.36 40.0322ZM530.693 40.1862C528.495 40.1862 527.039 38.5762 527.039 36.3502C527.039 33.8162 528.677 32.4442 530.553 32.4442C532.597 32.4442 533.913 33.8162 533.955 36.1962V36.5182H528.201C528.271 38.1002 529.195 39.1782 530.693 39.1782C531.729 39.1782 532.485 38.6602 532.793 37.6942H533.927C533.591 39.2202 532.387 40.1862 530.693 40.1862ZM528.271 35.5522H532.737C532.527 34.2502 531.743 33.4522 530.553 33.4522C529.377 33.4522 528.509 34.2222 528.271 35.5522ZM536.687 40.0322H535.525V29.5322H536.687V40.0322ZM541.4 40.1862C539.636 40.1862 538.334 39.2622 538.236 37.6942H539.37C539.454 38.6602 540.336 39.1922 541.456 39.1922C542.506 39.1922 543.01 38.7862 543.01 38.0442C543.01 37.3442 542.464 37.1902 541.694 36.9242L540.616 36.5602C539.524 36.1962 538.432 35.8602 538.432 34.5162C538.432 33.2562 539.412 32.4442 541.036 32.4442C542.674 32.4442 543.808 33.3262 543.99 34.9782H542.856C542.73 33.9422 542.002 33.4382 540.994 33.4382C540.084 33.4382 539.552 33.8442 539.552 34.4882C539.552 35.2582 540.364 35.4122 540.98 35.6222L541.988 35.9582C543.346 36.4062 544.158 36.8682 544.158 38.1002C544.158 39.4022 543.206 40.1862 541.4 40.1862ZM548.863 40.1862C546.665 40.1862 545.209 38.5762 545.209 36.3502C545.209 33.8162 546.847 32.4442 548.723 32.4442C550.767 32.4442 552.083 33.8162 552.125 36.1962V36.5182H546.371C546.441 38.1002 547.365 39.1782 548.863 39.1782C549.899 39.1782 550.655 38.6602 550.963 37.6942H552.097C551.761 39.2202 550.557 40.1862 548.863 40.1862ZM546.441 35.5522H550.907C550.697 34.2502 549.913 33.4522 548.723 33.4522C547.547 33.4522 546.679 34.2222 546.441 35.5522ZM554.815 40.0322H553.653V32.6122H554.577L554.717 34.0262C555.193 33.0742 556.061 32.5702 557.293 32.5702H557.545V33.7182H557.293C555.725 33.7182 554.815 34.6142 554.815 36.1402V40.0322ZM564.414 40.1442C562.734 40.1442 561.656 39.2762 561.656 37.9182C561.656 36.2102 563.308 35.8882 564.792 35.7342C565.926 35.6222 566.906 35.6362 566.92 35.0342C566.906 34.0962 566.136 33.4382 565.016 33.4382C563.938 33.4382 563.098 34.0402 562.972 34.9222H561.824C561.964 33.4662 563.28 32.4442 565.044 32.4442C566.878 32.4442 568.054 33.5362 568.054 35.1042V38.7162C568.054 38.9542 568.18 39.0802 568.432 39.0802H568.852V40.0322H568.194C567.396 40.0322 566.976 39.6682 566.976 38.9822V38.7582C566.542 39.6122 565.702 40.1442 564.414 40.1442ZM564.582 39.1502C565.968 39.1502 566.92 38.2682 566.92 37.0362V36.0702C566.598 36.5042 565.772 36.5882 564.862 36.6862C563.84 36.7982 562.818 36.9382 562.818 37.8902C562.818 38.6602 563.518 39.1502 564.582 39.1502ZM573.44 40.0322H572.222L569.128 32.6122H570.388L572.838 38.6742L575.274 32.6122H576.534L573.44 40.0322ZM582.119 40.0322H580.957V29.5322H582.119V33.5642C582.651 32.8922 583.561 32.4442 584.569 32.4442C586.165 32.4442 587.229 33.4802 587.229 35.1182V40.0322H586.067V35.1602C586.067 34.1242 585.395 33.4662 584.345 33.4662C582.945 33.4662 582.133 34.3902 582.119 35.5242V40.0322ZM591.444 40.1442C589.764 40.1442 588.686 39.2762 588.686 37.9182C588.686 36.2102 590.338 35.8882 591.822 35.7342C592.956 35.6222 593.936 35.6362 593.95 35.0342C593.936 34.0962 593.166 33.4382 592.046 33.4382C590.968 33.4382 590.128 34.0402 590.002 34.9222H588.854C588.994 33.4662 590.31 32.4442 592.074 32.4442C593.908 32.4442 595.084 33.5362 595.084 35.1042V38.7162C595.084 38.9542 595.21 39.0802 595.462 39.0802H595.882V40.0322H595.224C594.426 40.0322 594.006 39.6682 594.006 38.9822V38.7582C593.572 39.6122 592.732 40.1442 591.444 40.1442ZM591.612 39.1502C592.998 39.1502 593.95 38.2682 593.95 37.0362V36.0702C593.628 36.5042 592.802 36.5882 591.892 36.6862C590.87 36.7982 589.848 36.9382 589.848 37.8902C589.848 38.6602 590.548 39.1502 591.612 39.1502ZM598.346 40.0322H597.184V32.6122H598.108L598.22 33.7462C598.724 32.9622 599.69 32.4442 600.796 32.4442C602.392 32.4442 603.456 33.4802 603.456 35.1182V40.0322H602.294V35.1602C602.294 34.1242 601.622 33.4662 600.502 33.4662C599.172 33.4662 598.36 34.3902 598.346 35.5242V40.0322ZM608.274 40.1862C606.286 40.1862 604.9 38.5902 604.9 36.2802C604.9 34.0122 606.272 32.4442 608.26 32.4442C609.38 32.4442 610.318 32.9342 610.85 33.7182V29.5322H612.012V40.0322H611.088L610.962 38.6042C610.472 39.5702 609.492 40.1862 608.274 40.1862ZM608.456 39.1782C609.87 39.1782 610.85 37.9742 610.85 36.2522C610.85 34.5862 609.898 33.4382 608.526 33.4382C607.098 33.4382 606.104 34.6002 606.104 36.2802C606.104 37.9882 607.07 39.1782 608.456 39.1782ZM615.164 40.0322H614.002V29.5322H615.164V40.0322ZM617.692 31.3662C617.202 31.3662 616.824 30.9882 616.824 30.4982C616.824 30.0082 617.202 29.6442 617.692 29.6442C618.182 29.6442 618.546 30.0082 618.546 30.4982C618.546 30.9882 618.182 31.3662 617.692 31.3662ZM618.266 40.0322H617.104V32.6122H618.266V40.0322ZM621.329 40.0322H620.167V32.6122H621.091L621.203 33.7462C621.707 32.9622 622.673 32.4442 623.779 32.4442C625.375 32.4442 626.439 33.4802 626.439 35.1182V40.0322H625.277V35.1602C625.277 34.1242 624.605 33.4662 623.485 33.4662C622.155 33.4662 621.343 34.3902 621.329 35.5242V40.0322ZM631.495 43.0002C629.493 43.0002 628.135 42.0342 628.135 40.4662H629.297C629.297 41.3482 630.193 42.0202 631.495 42.0202C633.021 42.0202 633.819 41.1102 633.819 39.8362V38.6322C633.301 39.4022 632.405 39.9062 631.271 39.9062C629.297 39.9062 627.883 38.3942 627.883 36.2102C627.883 33.9842 629.311 32.4442 631.271 32.4442C632.461 32.4442 633.427 33.0042 633.931 33.9002L634.057 32.6122H634.967V39.8362C634.967 41.7122 633.707 43.0002 631.495 43.0002ZM631.439 38.8982C632.839 38.8982 633.819 37.7782 633.819 36.1682C633.819 34.5722 632.839 33.4522 631.439 33.4522C630.053 33.4522 629.087 34.5722 629.087 36.1962C629.087 37.7922 630.053 38.8982 631.439 38.8982ZM640.15 40.1862C637.952 40.1862 636.496 38.5762 636.496 36.3502C636.496 33.8162 638.134 32.4442 640.01 32.4442C642.054 32.4442 643.37 33.8162 643.412 36.1962V36.5182H637.658C637.728 38.1002 638.652 39.1782 640.15 39.1782C641.186 39.1782 641.942 38.6602 642.25 37.6942H643.384C643.048 39.2202 641.844 40.1862 640.15 40.1862ZM637.728 35.5522H642.194C641.984 34.2502 641.2 33.4522 640.01 33.4522C638.834 33.4522 637.966 34.2222 637.728 35.5522ZM646.102 40.0322H644.94V32.6122H645.864L645.976 33.7462C646.48 32.9622 647.446 32.4442 648.552 32.4442C650.148 32.4442 651.212 33.4802 651.212 35.1182V40.0322H650.05V35.1602C650.05 34.1242 649.378 33.4662 648.258 33.4662C646.928 33.4662 646.116 34.3902 646.102 35.5242V40.0322ZM415.26 65.1862C414.042 65.1862 413.048 64.5842 412.544 63.6182L412.418 65.0322H411.494V54.5322H412.656V58.7742C413.202 57.9622 414.14 57.4442 415.26 57.4442C417.22 57.4442 418.592 59.0122 418.592 61.2802C418.592 63.5902 417.22 65.1862 415.26 65.1862ZM415.078 64.1782C416.45 64.1782 417.388 62.9882 417.388 61.2802C417.388 59.6142 416.45 58.4522 415.064 58.4522C413.664 58.4522 412.656 59.5862 412.656 61.2242C412.656 62.9602 413.664 64.1782 415.078 64.1782ZM421.282 65.0322H420.12V57.6122H421.044L421.184 59.0262C421.66 58.0742 422.528 57.5702 423.76 57.5702H424.012V58.7182H423.76C422.192 58.7182 421.282 59.6142 421.282 61.1402V65.0322ZM428.045 65.1862C426.239 65.1862 425.203 64.0802 425.203 62.5682V57.6122H426.365V62.5262C426.365 63.5902 427.107 64.1642 428.157 64.1642C429.543 64.1642 430.299 63.2402 430.313 62.1202V57.6122H431.475V65.0322H430.551L430.453 63.9122C429.963 64.7522 429.067 65.1862 428.045 65.1862ZM434.586 65.0322H433.424V54.5322H434.586V61.2662L438.198 57.6122H439.598L436.924 60.3142L440.004 65.0322H438.646L436.126 61.1262L434.586 62.6802V65.0322ZM443.863 65.1862C441.665 65.1862 440.209 63.5762 440.209 61.3502C440.209 58.8162 441.847 57.4442 443.723 57.4442C445.767 57.4442 447.083 58.8162 447.125 61.1962V61.5182H441.371C441.441 63.1002 442.365 64.1782 443.863 64.1782C444.899 64.1782 445.655 63.6602 445.963 62.6942H447.097C446.761 64.2202 445.557 65.1862 443.863 65.1862ZM441.441 60.5522H445.907C445.697 59.2502 444.913 58.4522 443.723 58.4522C442.547 58.4522 441.679 59.2222 441.441 60.5522ZM449.815 65.0322H448.653V57.6122H449.577L449.717 59.0262C450.193 58.0742 451.061 57.5702 452.293 57.5702H452.545V58.7182H452.293C450.725 58.7182 449.815 59.6142 449.815 61.1402V65.0322ZM456.81 65.1862C454.612 65.1862 453.156 63.5762 453.156 61.3502C453.156 58.8162 454.794 57.4442 456.67 57.4442C458.714 57.4442 460.03 58.8162 460.072 61.1962V61.5182H454.318C454.388 63.1002 455.312 64.1782 456.81 64.1782C457.846 64.1782 458.602 63.6602 458.91 62.6942H460.044C459.708 64.2202 458.504 65.1862 456.81 65.1862ZM454.388 60.5522H458.854C458.644 59.2502 457.86 58.4522 456.67 58.4522C455.494 58.4522 454.626 59.2222 454.388 60.5522ZM462.762 65.0322H461.6V57.6122H462.524L462.636 58.7462C463.14 57.9622 464.106 57.4442 465.212 57.4442C466.808 57.4442 467.872 58.4802 467.872 60.1182V65.0322H466.71V60.1602C466.71 59.1242 466.038 58.4662 464.918 58.4662C463.588 58.4662 462.776 59.3902 462.762 60.5242V65.0322ZM474.043 65.0322H472.881V54.5322H474.043V61.2662L477.655 57.6122H479.055L476.381 60.3142L479.461 65.0322H478.103L475.583 61.1262L474.043 62.6802V65.0322ZM482.766 65.1442C481.086 65.1442 480.008 64.2762 480.008 62.9182C480.008 61.2102 481.66 60.8882 483.144 60.7342C484.278 60.6222 485.258 60.6362 485.272 60.0342C485.258 59.0962 484.488 58.4382 483.368 58.4382C482.29 58.4382 481.45 59.0402 481.324 59.9222H480.176C480.316 58.4662 481.632 57.4442 483.396 57.4442C485.23 57.4442 486.406 58.5362 486.406 60.1042V63.7162C486.406 63.9542 486.532 64.0802 486.784 64.0802H487.204V65.0322H486.546C485.748 65.0322 485.328 64.6682 485.328 63.9822V63.7582C484.894 64.6122 484.054 65.1442 482.766 65.1442ZM482.934 64.1502C484.32 64.1502 485.272 63.2682 485.272 62.0362V61.0702C484.95 61.5042 484.124 61.5882 483.214 61.6862C482.192 61.7982 481.17 61.9382 481.17 62.8902C481.17 63.6602 481.87 64.1502 482.934 64.1502ZM489.669 65.0322H488.507V57.6122H489.431L489.543 58.7462C490.047 57.9622 491.013 57.4442 492.119 57.4442C493.715 57.4442 494.779 58.4802 494.779 60.1182V65.0322H493.617V60.1602C493.617 59.1242 492.945 58.4662 491.825 58.4662C490.495 58.4662 489.683 59.3902 489.669 60.5242V65.0322ZM503.609 65.0322H502.783C501.341 65.0322 500.571 64.2902 500.571 62.9182V58.5922H499.199V57.6122H500.571V55.0782H501.733V57.6122H503.735V58.5922H501.733V62.9182C501.733 63.6602 502.097 64.0522 502.783 64.0522H503.609V65.0322ZM507.498 65.1442C505.818 65.1442 504.74 64.2762 504.74 62.9182C504.74 61.2102 506.392 60.8882 507.876 60.7342C509.01 60.6222 509.99 60.6362 510.004 60.0342C509.99 59.0962 509.22 58.4382 508.1 58.4382C507.022 58.4382 506.182 59.0402 506.056 59.9222H504.908C505.048 58.4662 506.364 57.4442 508.128 57.4442C509.962 57.4442 511.138 58.5362 511.138 60.1042V63.7162C511.138 63.9542 511.264 64.0802 511.516 64.0802H511.936V65.0322H511.278C510.48 65.0322 510.06 64.6682 510.06 63.9822V63.7582C509.626 64.6122 508.786 65.1442 507.498 65.1442ZM507.666 64.1502C509.052 64.1502 510.004 63.2682 510.004 62.0362V61.0702C509.682 61.5042 508.856 61.5882 507.946 61.6862C506.924 61.7982 505.902 61.9382 505.902 62.8902C505.902 63.6602 506.602 64.1502 507.666 64.1502ZM514.061 65.1722C513.557 65.1722 513.179 64.7942 513.179 64.2902C513.179 63.8002 513.557 63.4222 514.061 63.4222C514.565 63.4222 514.943 63.8002 514.943 64.2902C514.943 64.7942 514.565 65.1722 514.061 65.1722Z" fill="#481125"/>
<rect x="383" y="98.5322" width="313" height="62.0322" rx="12.7123" fill="#FDF9F9"/>
<rect x="383" y="98.5322" width="313" height="62.0322" rx="12.7123" stroke="#691837"/>
<path d="M479 117.548C479 113.13 482.582 109.548 487 109.548H592C596.418 109.548 600 113.13 600 117.548V141.548C600 145.967 596.418 149.548 592 149.548H487C482.582 149.548 479 145.967 479 141.548V117.548Z" fill="#F9EAED"/>
<path d="M503.704 135.048H496.36V123.848H497.704V133.816H503.704V135.048ZM508.168 135.176C506.248 135.176 505.016 134.184 505.016 132.632C505.016 130.68 506.904 130.312 508.6 130.136C509.896 130.008 511.016 130.024 511.032 129.336C511.016 128.264 510.136 127.512 508.856 127.512C507.624 127.512 506.664 128.2 506.52 129.208H505.208C505.368 127.544 506.872 126.376 508.888 126.376C510.984 126.376 512.328 127.624 512.328 129.416V133.544C512.328 133.816 512.472 133.96 512.76 133.96H513.24V135.048H512.488C511.576 135.048 511.096 134.632 511.096 133.848V133.592C510.6 134.568 509.64 135.176 508.168 135.176ZM508.36 134.04C509.944 134.04 511.032 133.032 511.032 131.624V130.52C510.664 131.016 509.72 131.112 508.68 131.224C507.512 131.352 506.344 131.512 506.344 132.6C506.344 133.48 507.144 134.04 508.36 134.04ZM517.897 135.224C515.881 135.224 514.393 134.168 514.281 132.376H515.577C515.673 133.48 516.681 134.088 517.961 134.088C519.161 134.088 519.737 133.624 519.737 132.776C519.737 131.976 519.113 131.8 518.233 131.496L517.001 131.08C515.753 130.664 514.505 130.28 514.505 128.744C514.505 127.304 515.625 126.376 517.481 126.376C519.353 126.376 520.649 127.384 520.857 129.272H519.561C519.417 128.088 518.585 127.512 517.433 127.512C516.393 127.512 515.785 127.976 515.785 128.712C515.785 129.592 516.713 129.768 517.417 130.008L518.569 130.392C520.121 130.904 521.049 131.432 521.049 132.84C521.049 134.328 519.961 135.224 517.897 135.224ZM526.879 135.048H525.935C524.287 135.048 523.407 134.2 523.407 132.632V127.688H521.839V126.568H523.407V123.672H524.735V126.568H527.023V127.688H524.735V132.632C524.735 133.48 525.151 133.928 525.935 133.928H526.879V135.048ZM533.51 135.048H532.182V126.568H533.238L533.366 127.864C533.942 126.968 535.046 126.376 536.31 126.376C538.134 126.376 539.35 127.56 539.35 129.432V135.048H538.022V129.48C538.022 128.296 537.254 127.544 535.974 127.544C534.454 127.544 533.526 128.6 533.51 129.896V135.048ZM545.176 135.224C542.664 135.224 541 133.384 541 130.84C541 127.944 542.872 126.376 545.016 126.376C547.352 126.376 548.856 127.944 548.904 130.664V131.032H542.328C542.408 132.84 543.464 134.072 545.176 134.072C546.36 134.072 547.224 133.48 547.576 132.376H548.872C548.488 134.12 547.112 135.224 545.176 135.224ZM542.408 129.928H547.512C547.272 128.44 546.376 127.528 545.016 127.528C543.672 127.528 542.68 128.408 542.408 129.928ZM554.075 135.224C551.803 135.224 550.219 133.4 550.219 130.76C550.219 128.168 551.787 126.376 554.059 126.376C555.339 126.376 556.411 126.936 557.019 127.832V123.048H558.347V135.048H557.291L557.147 133.416C556.587 134.52 555.467 135.224 554.075 135.224ZM554.283 134.072C555.899 134.072 557.019 132.696 557.019 130.728C557.019 128.824 555.931 127.512 554.363 127.512C552.731 127.512 551.595 128.84 551.595 130.76C551.595 132.712 552.699 134.072 554.283 134.072Z" fill="#3A0710"/>
<g clip-path="url(#clip3_581_1664)">
<path d="M576.001 132.548C575.941 132.548 575.883 132.538 575.827 132.517L575.813 132.512C575.75 132.487 575.694 132.449 575.647 132.402L572.647 129.402C572.553 129.308 572.501 129.182 572.501 129.048C572.501 128.915 572.553 128.789 572.647 128.695C572.741 128.6 572.867 128.548 573.001 128.548C573.134 128.548 573.26 128.6 573.354 128.695L575.501 130.842V124.048C575.501 123.916 575.553 123.789 575.647 123.695C575.741 123.601 575.868 123.548 576.001 123.548C576.133 123.548 576.26 123.601 576.354 123.695C576.448 123.789 576.501 123.916 576.501 124.048V130.841L578.647 128.694C578.693 128.647 578.748 128.61 578.809 128.585C578.87 128.559 578.935 128.546 579.001 128.546C579.066 128.546 579.131 128.559 579.192 128.585C579.253 128.61 579.308 128.647 579.354 128.694C579.449 128.788 579.501 128.914 579.501 129.048C579.501 129.181 579.449 129.307 579.354 129.401L576.354 132.401C576.307 132.448 576.251 132.485 576.19 132.51L576.173 132.517C576.118 132.538 576.059 132.548 576.001 132.548Z" fill="#3A0710"/>
<path d="M570.501 135.548C569.838 135.548 569.202 135.284 568.734 134.815C568.265 134.347 568.001 133.711 568.001 133.048V132.048C568.001 131.916 568.053 131.789 568.147 131.695C568.241 131.601 568.368 131.548 568.501 131.548C568.633 131.548 568.761 131.601 568.854 131.695C568.948 131.789 569.001 131.916 569.001 132.048V133.048C569.001 133.446 569.159 133.827 569.44 134.109C569.722 134.39 570.103 134.548 570.501 134.548H581.501C581.898 134.548 582.28 134.39 582.561 134.109C582.842 133.827 583 133.446 583.001 133.048V132.048C583.001 131.916 583.053 131.789 583.147 131.695C583.241 131.601 583.368 131.548 583.501 131.548C583.633 131.548 583.761 131.601 583.854 131.695C583.948 131.789 584.001 131.916 584.001 132.048V133.048C584 133.711 583.736 134.347 583.268 134.815C582.799 135.284 582.164 135.548 581.501 135.548H570.501Z" fill="#3A0710"/>
</g>
<defs>
<clipPath id="clip0_581_1664">
<rect width="8" height="8" fill="white" transform="translate(30 30.0322)"/>
</clipPath>
<clipPath id="clip1_581_1664">
<rect x="130" y="114.032" width="102" height="69" rx="8" fill="white"/>
</clipPath>
<clipPath id="clip2_581_1664">
<rect width="20" height="20" fill="white" transform="translate(171 122.032)"/>
</clipPath>
<clipPath id="clip3_581_1664">
<rect width="16" height="16" fill="white" transform="translate(568 121.548)"/>
</clipPath>
</defs>
</svg>
