<svg width="735" height="170" viewBox="0 0 735 170" fill="none" xmlns="http://www.w3.org/2000/svg">
<rect width="735" height="170" rx="24" fill="white"/>
<mask id="path-2-inside-1_616_2227" fill="white">
<path d="M28 44C28 39.5817 31.5817 36 36 36H344.5C348.918 36 352.5 39.5817 352.5 44V77H28V44Z"/>
</mask>
<path d="M28 36H352.5H28ZM352.5 78H28V76H352.5V78ZM28 77V36V77ZM352.5 36V77V36Z" fill="#481125" mask="url(#path-2-inside-1_616_2227)"/>
<g clip-path="url(#clip0_616_2227)">
<path d="M57.3708 66.4967C57.2887 66.4969 57.2074 66.4808 57.1316 66.4493C57.0558 66.4179 56.987 66.3716 56.9292 66.3133L51.5 60.8833C50.8624 61.4283 50.1449 61.8721 49.3725 62.1992C48.3847 62.6213 47.3232 62.8437 46.2491 62.8536C45.175 62.8634 44.1095 62.6606 43.1142 62.2567C42.1167 61.8575 41.2084 61.2644 40.4418 60.5117C39.6753 59.759 39.0657 58.8616 38.6483 57.8717C37.7942 55.8617 37.7733 53.6383 38.5908 51.6133C39.4083 49.5883 40.965 48.0017 42.975 47.1475C43.9625 46.7244 45.0241 46.5014 46.0984 46.4916C47.1727 46.4817 48.2382 46.6851 49.2333 47.09C50.2308 47.4892 51.1391 48.0823 51.9057 48.835C52.6722 49.5877 53.2818 50.485 53.6992 51.475C54.1221 52.4625 54.3449 53.5241 54.3548 54.5984C54.3647 55.6726 54.1614 56.7382 53.7567 57.7333C53.4248 58.558 52.9607 59.3231 52.3825 59.9983L57.8133 65.43C57.9161 65.43 58.0173 65.4554 58.1079 65.5039C58.1986 65.5524 58.2758 65.6225 58.3329 65.708C58.39 65.7935 58.425 65.8918 58.4351 65.994C58.4451 66.0963 58.4297 66.1995 58.3903 66.2945C58.351 66.3894 58.2888 66.4732 58.2093 66.5383C58.1298 66.6035 58.0354 66.6481 57.9346 66.668C57.8338 66.688 57.7296 66.6829 57.6313 66.653C57.5329 66.6231 57.4435 66.5694 57.3708 66.4967ZM46.1725 47.7417C45.2414 47.7418 44.3201 47.9309 43.4642 48.2975C42.6256 48.6512 41.8654 49.1677 41.2278 49.8171C40.5901 50.4665 40.0875 51.2359 39.7492 52.0808C39.4064 52.9238 39.2341 53.8265 39.2424 54.7365C39.2507 55.6465 39.4394 56.5459 39.7975 57.3825C40.1512 58.2211 40.6677 58.9812 41.3171 59.6189C41.9665 60.2566 42.7359 60.7591 43.5808 61.0975C44.4239 61.4402 45.3266 61.6123 46.2366 61.6039C47.1466 61.5955 48.0459 61.4066 48.8825 61.0483C49.6882 60.7074 50.4218 60.2165 51.0442 59.6017C51.0623 59.5775 51.0839 59.5561 51.1083 59.5383C51.7508 58.8872 52.2568 58.1143 52.5967 57.265C52.9396 56.422 53.1118 55.5193 53.1034 54.6092C53.0949 53.6992 52.906 52.7998 52.5475 51.9633C52.1939 51.1246 51.6775 50.3645 51.028 49.7268C50.3786 49.0891 49.6091 48.5866 48.7642 48.2483C47.941 47.9142 47.061 47.7421 46.1725 47.7417Z" fill="#481125"/>
</g>
<path d="M71.696 61.176C68.88 61.176 66.944 59.72 66.8 57.608H68.208C68.368 59.048 69.728 59.96 71.696 59.96C73.408 59.96 74.304 59.256 74.304 58.088C74.304 56.952 73.312 56.52 72.24 56.184L70.304 55.576C69.408 55.288 67.152 54.808 67.152 52.616C67.152 50.808 68.64 49.624 70.96 49.624C73.52 49.624 75.104 50.92 75.28 53.304H73.888C73.776 51.72 72.672 50.84 70.896 50.84C69.488 50.84 68.496 51.48 68.496 52.552C68.496 53.784 69.776 54.04 70.736 54.344L72.544 54.904C73.968 55.352 75.68 55.912 75.68 58.024C75.68 59.992 74.176 61.176 71.696 61.176ZM85.1914 52.328L84.2314 53.56C84.9514 54.344 85.3354 55.448 85.3354 56.68C85.3354 59.608 83.5594 61.176 81.1754 61.176C80.2154 61.176 79.4154 60.936 78.7754 60.504L77.8314 61.704L77.1594 61.24L78.1514 59.976C77.3994 59.16 77.0154 58.008 77.0154 56.68C77.0154 53.848 78.8714 52.328 81.1754 52.328C82.1514 52.328 82.9674 52.584 83.6074 53.016L84.5034 51.864L85.1914 52.328ZM78.3754 56.68C78.3754 57.608 78.5994 58.36 78.9834 58.904L82.8234 54.008C82.3754 53.672 81.8154 53.48 81.1754 53.48C79.4794 53.48 78.3754 54.776 78.3754 56.68ZM81.1754 60.024C82.9834 60.024 83.9754 58.52 83.9754 56.68C83.9754 55.864 83.7674 55.144 83.3994 54.616L79.5594 59.496C80.0234 59.848 80.5834 60.024 81.1754 60.024ZM88.4484 61H87.1204V49H88.4484V56.696L92.5764 52.52H94.1764L91.1204 55.608L94.6404 61H93.0884L90.2084 56.536L88.4484 58.312V61Z" fill="#A35E70"/>
<mask id="path-6-inside-2_616_2227" fill="white">
<path d="M382.5 44C382.5 39.5817 386.082 36 390.5 36H699C703.418 36 707 39.5817 707 44V77H382.5V44Z"/>
</mask>
<path d="M382.5 36H707H382.5ZM707 78H382.5V76H707V78ZM382.5 77V36V77ZM707 36V77V36Z" fill="#481125" mask="url(#path-6-inside-2_616_2227)"/>
<path d="M397.62 61.176C395.012 61.176 393.348 58.904 393.348 55.368C393.348 51.864 395.012 49.624 397.62 49.624C400.228 49.624 401.892 51.864 401.892 55.368C401.892 58.904 400.228 61.176 397.62 61.176ZM397.62 59.944C399.38 59.944 400.516 58.152 400.516 55.368C400.516 52.616 399.38 50.856 397.62 50.856C395.86 50.856 394.724 52.616 394.724 55.368C394.724 58.152 395.86 59.944 397.62 59.944ZM407.726 61.176C405.198 61.176 403.454 59.896 403.454 57.896C403.454 56.6 404.302 55.592 405.662 55.096C404.606 54.616 403.966 53.72 403.966 52.616C403.966 50.856 405.502 49.624 407.726 49.624C409.918 49.624 411.454 50.856 411.454 52.616C411.454 53.72 410.814 54.6 409.774 55.096C411.118 55.592 411.966 56.6 411.966 57.896C411.966 59.832 410.318 61.176 407.726 61.176ZM407.726 54.632C409.134 54.632 410.11 53.832 410.11 52.68C410.11 51.592 409.134 50.824 407.726 50.824C406.302 50.824 405.31 51.592 405.31 52.68C405.31 53.832 406.302 54.632 407.726 54.632ZM407.726 59.944C409.406 59.944 410.574 59.064 410.574 57.816C410.574 56.552 409.406 55.672 407.726 55.672C406.03 55.672 404.846 56.552 404.846 57.816C404.846 59.064 406.03 59.944 407.726 59.944ZM414.496 61.16C413.92 61.16 413.488 60.728 413.488 60.152C413.488 59.592 413.92 59.16 414.496 59.16C415.072 59.16 415.504 59.592 415.504 60.152C415.504 60.728 415.072 61.16 414.496 61.16ZM419.435 61H418.091V52.28C417.563 52.984 416.699 53.336 415.531 53.336H415.339V52.024H415.531C417.211 52.024 418.107 51.304 418.107 49.96V49.8H419.435V61ZM425.917 61.176C423.309 61.176 421.645 58.904 421.645 55.368C421.645 51.864 423.309 49.624 425.917 49.624C428.525 49.624 430.189 51.864 430.189 55.368C430.189 58.904 428.525 61.176 425.917 61.176ZM425.917 59.944C427.677 59.944 428.813 58.152 428.813 55.368C428.813 52.616 427.677 50.856 425.917 50.856C424.157 50.856 423.021 52.616 423.021 55.368C423.021 58.152 424.157 59.944 425.917 59.944ZM432.386 61.16C431.81 61.16 431.378 60.728 431.378 60.152C431.378 59.592 431.81 59.16 432.386 59.16C432.962 59.16 433.394 59.592 433.394 60.152C433.394 60.728 432.962 61.16 432.386 61.16ZM442.524 52.84C442.524 56.68 436.652 56.52 436.652 59.768H442.364V61H435.228V59.944C435.228 55.832 441.132 55.88 441.132 52.84C441.132 51.656 440.3 50.856 438.956 50.856C437.548 50.856 436.428 51.736 436.396 53.544H434.988C435.116 50.984 436.796 49.624 438.972 49.624C441.116 49.624 442.524 50.92 442.524 52.84ZM448.386 61.176C445.778 61.176 444.114 58.904 444.114 55.368C444.114 51.864 445.778 49.624 448.386 49.624C450.994 49.624 452.658 51.864 452.658 55.368C452.658 58.904 450.994 61.176 448.386 61.176ZM448.386 59.944C450.146 59.944 451.282 58.152 451.282 55.368C451.282 52.616 450.146 50.856 448.386 50.856C446.626 50.856 445.49 52.616 445.49 55.368C445.49 58.152 446.626 59.944 448.386 59.944ZM461.524 52.84C461.524 56.68 455.652 56.52 455.652 59.768H461.364V61H454.228V59.944C454.228 55.832 460.132 55.88 460.132 52.84C460.132 51.656 459.3 50.856 457.956 50.856C456.548 50.856 455.428 51.736 455.396 53.544H453.988C454.116 50.984 455.796 49.624 457.972 49.624C460.116 49.624 461.524 50.92 461.524 52.84ZM469.005 61H467.661V58.2H462.109V57L467.645 49.8H469.005V56.968H470.973V58.2H469.005V61ZM467.661 51.672L463.581 56.968H467.661V51.672Z" fill="#330314"/>
<g clip-path="url(#clip1_616_2227)">
<path d="M678.877 66.5C678.38 66.4996 677.903 66.3019 677.551 65.9503C677.2 65.5988 677.002 65.1221 677.002 64.625V50.875C677.002 50.3779 677.2 49.9012 677.551 49.5497C677.903 49.1981 678.38 49.0004 678.877 49H682.002V47.125C682.002 46.9592 682.067 46.8003 682.185 46.6831C682.302 46.5658 682.461 46.5 682.627 46.5C682.792 46.5 682.951 46.5658 683.069 46.6831C683.186 46.8003 683.252 46.9592 683.252 47.125V49H690.752V47.125C690.752 46.9592 690.817 46.8003 690.935 46.6831C691.052 46.5658 691.211 46.5 691.377 46.5C691.542 46.5 691.701 46.5658 691.819 46.6831C691.936 46.8003 692.002 46.9592 692.002 47.125V49H695.127C695.624 49.0004 696.1 49.1981 696.452 49.5497C696.804 49.9012 697.001 50.3779 697.002 50.875V64.625C697.001 65.1221 696.804 65.5988 696.452 65.9503C696.1 66.3019 695.624 66.4996 695.127 66.5H678.877ZM678.252 64.625C678.252 64.97 678.532 65.25 678.877 65.25H695.127C695.292 65.25 695.451 65.1842 695.569 65.0669C695.686 64.9497 695.752 64.7908 695.752 64.625V55.25H678.252V64.625ZM695.752 54V50.875C695.752 50.7092 695.686 50.5503 695.569 50.4331C695.451 50.3158 695.292 50.25 695.127 50.25H692.002V51.5C692.002 51.6658 691.936 51.8247 691.819 51.9419C691.701 52.0592 691.542 52.125 691.377 52.125C691.211 52.125 691.052 52.0592 690.935 51.9419C690.817 51.8247 690.752 51.6658 690.752 51.5V50.25H683.252V51.5C683.252 51.6658 683.186 51.8247 683.069 51.9419C682.951 52.0592 682.792 52.125 682.627 52.125C682.461 52.125 682.302 52.0592 682.185 51.9419C682.067 51.8247 682.002 51.6658 682.002 51.5V50.25H678.877C678.711 50.25 678.552 50.3158 678.435 50.4331C678.317 50.5503 678.252 50.7092 678.252 50.875V54H695.752Z" fill="#481125"/>
</g>
<mask id="path-10-inside-3_616_2227" fill="white">
<path d="M28 101C28 96.5817 31.5817 93 36 93H344.5C348.918 93 352.5 96.5817 352.5 101V134H28V101Z"/>
</mask>
<path d="M28 93H352.5H28ZM352.5 135H28V133H352.5V135ZM28 134V93V134ZM352.5 93V134V93Z" fill="#481125" mask="url(#path-10-inside-3_616_2227)"/>
<path d="M46.704 118H39.36V106.8H40.704V116.768H46.704V118ZM51.1678 118.128C49.2478 118.128 48.0158 117.136 48.0158 115.584C48.0158 113.632 49.9038 113.264 51.5998 113.088C52.8958 112.96 54.0158 112.976 54.0318 112.288C54.0158 111.216 53.1358 110.464 51.8558 110.464C50.6238 110.464 49.6638 111.152 49.5198 112.16H48.2078C48.3678 110.496 49.8718 109.328 51.8878 109.328C53.9838 109.328 55.3278 110.576 55.3278 112.368V116.496C55.3278 116.768 55.4718 116.912 55.7598 116.912H56.2398V118H55.4878C54.5758 118 54.0958 117.584 54.0958 116.8V116.544C53.5998 117.52 52.6398 118.128 51.1678 118.128ZM51.3598 116.992C52.9438 116.992 54.0318 115.984 54.0318 114.576V113.472C53.6638 113.968 52.7198 114.064 51.6798 114.176C50.5118 114.304 49.3438 114.464 49.3438 115.552C49.3438 116.432 50.1438 116.992 51.3598 116.992ZM62.0806 118.176C60.6886 118.176 59.5526 117.488 58.9766 116.384L58.8326 118H57.7766V106H59.1046V110.848C59.7286 109.92 60.8006 109.328 62.0806 109.328C64.3206 109.328 65.8886 111.12 65.8886 113.712C65.8886 116.352 64.3206 118.176 62.0806 118.176ZM61.8726 117.024C63.4406 117.024 64.5126 115.664 64.5126 113.712C64.5126 111.808 63.4406 110.48 61.8566 110.48C60.2566 110.48 59.1046 111.776 59.1046 113.648C59.1046 115.632 60.2566 117.024 61.8726 117.024ZM71.3789 118.176C68.8669 118.176 67.2029 116.336 67.2029 113.792C67.2029 110.896 69.0749 109.328 71.2189 109.328C73.5549 109.328 75.0589 110.896 75.1069 113.616V113.984H68.5309C68.6109 115.792 69.6669 117.024 71.3789 117.024C72.5629 117.024 73.4269 116.432 73.7789 115.328H75.0749C74.6909 117.072 73.3149 118.176 71.3789 118.176ZM68.6109 112.88H73.7149C73.4749 111.392 72.5789 110.48 71.2189 110.48C69.8749 110.48 68.8829 111.36 68.6109 112.88ZM78.2296 118H76.9016V106H78.2296V118ZM88.4571 118H87.5131C85.8651 118 84.9851 117.152 84.9851 115.584V110.64H83.4171V109.52H84.9851V106.624H86.3131V109.52H88.6011V110.64H86.3131V115.584C86.3131 116.432 86.7291 116.88 87.5131 116.88H88.4571V118ZM93.707 118.176C91.195 118.176 89.531 116.336 89.531 113.792C89.531 110.896 91.403 109.328 93.547 109.328C95.883 109.328 97.387 110.896 97.435 113.616V113.984H90.859C90.939 115.792 91.995 117.024 93.707 117.024C94.891 117.024 95.755 116.432 96.107 115.328H97.403C97.019 117.072 95.643 118.176 93.707 118.176ZM90.939 112.88H96.043C95.803 111.392 94.907 110.48 93.547 110.48C92.203 110.48 91.211 111.36 90.939 112.88ZM99.5606 118H98.0566L101.129 113.792L98.0886 109.52H99.5766L101.881 112.8L104.169 109.52H105.657L102.617 113.776L105.689 118H104.185L101.881 114.736L99.5606 118ZM111.613 118H110.669C109.021 118 108.141 117.152 108.141 115.584V110.64H106.573V109.52H108.141V106.624H109.469V109.52H111.757V110.64H109.469V115.584C109.469 116.432 109.885 116.88 110.669 116.88H111.613V118Z" fill="#A35E70"/>
<g clip-path="url(#clip2_616_2227)">
<path d="M330 123.5C329.834 123.5 329.675 123.434 329.558 123.317C329.441 123.2 329.375 123.041 329.375 122.875C329.375 122.709 329.441 122.55 329.558 122.433C329.675 122.316 329.834 122.25 330 122.25H331.875V118.5H331.25C329.759 118.498 328.329 117.905 327.274 116.851C326.22 115.796 325.627 114.366 325.625 112.875V110.375C325.625 110.209 325.691 110.05 325.808 109.933C325.925 109.816 326.084 109.75 326.25 109.75C326.416 109.75 326.575 109.816 326.692 109.933C326.809 110.05 326.875 110.209 326.875 110.375V112.875C326.876 114.035 327.338 115.147 328.158 115.967C328.978 116.787 330.09 117.249 331.25 117.25H333.75C334.91 117.249 336.022 116.787 336.842 115.967C337.662 115.147 338.124 114.035 338.125 112.875V110.375C338.125 110.209 338.191 110.05 338.308 109.933C338.425 109.816 338.584 109.75 338.75 109.75C338.916 109.75 339.075 109.816 339.192 109.933C339.309 110.05 339.375 110.209 339.375 110.375V112.875C339.373 114.366 338.78 115.796 337.726 116.851C336.671 117.905 335.241 118.498 333.75 118.5H333.125V122.25H335C335.166 122.25 335.325 122.316 335.442 122.433C335.559 122.55 335.625 122.709 335.625 122.875C335.625 123.041 335.559 123.2 335.442 123.317C335.325 123.434 335.166 123.5 335 123.5H330Z" fill="#481125"/>
<path d="M331.25 116C329.417 115.889 328.024 114.332 328.126 112.528L328.125 106.938C328.023 105.161 329.408 103.612 331.212 103.501L333.75 103.5C335.583 103.611 336.976 105.168 336.874 106.972L336.875 112.562C336.977 114.339 335.592 115.889 333.788 115.999L333.75 116H331.25ZM329.375 112.562C329.311 113.709 330.169 114.682 331.288 114.751L333.741 114.75C334.835 114.678 335.69 113.712 335.627 112.597V111H333.75C333.584 111 333.425 110.934 333.308 110.817C333.191 110.7 333.125 110.541 333.125 110.375C333.125 110.209 333.191 110.05 333.308 109.933C333.425 109.816 333.584 109.75 333.75 109.75H335.625V108.5H333.75C333.584 108.5 333.425 108.434 333.308 108.317C333.191 108.2 333.125 108.041 333.125 107.875C333.125 107.709 333.191 107.55 333.308 107.433C333.425 107.316 333.584 107.25 333.75 107.25H335.625V106.938C335.689 105.791 334.831 104.817 333.712 104.749L331.25 104.75C330.161 104.817 329.311 105.783 329.374 106.903V107.25H331.25C331.416 107.25 331.575 107.316 331.692 107.433C331.809 107.55 331.875 107.709 331.875 107.875C331.875 108.041 331.809 108.2 331.692 108.317C331.575 108.434 331.416 108.5 331.25 108.5H329.375V109.75H331.25C331.416 109.75 331.575 109.816 331.692 109.933C331.809 110.05 331.875 110.209 331.875 110.375C331.875 110.541 331.809 110.7 331.692 110.817C331.575 110.934 331.416 111 331.25 111H329.375V112.562Z" fill="#481125"/>
</g>
<mask id="path-14-inside-4_616_2227" fill="white">
<path d="M382.5 101C382.5 96.5817 386.082 93 390.5 93H699C703.418 93 707 96.5817 707 101V134H382.5V101Z"/>
</mask>
<path d="M382.5 93H707H382.5ZM707 135H382.5V133H707V135ZM382.5 134V93V134ZM707 93V134V93Z" fill="#481125" mask="url(#path-14-inside-4_616_2227)"/>
<path d="M395.204 118H393.86V106.8H395.396L401.732 116.08V106.8H403.076V118H401.54L395.204 108.72V118ZM409.254 118.176C406.534 118.176 405.094 116.24 405.094 113.68C405.094 110.848 406.95 109.328 409.254 109.328C411.958 109.328 413.414 111.28 413.414 113.68C413.414 116.608 411.638 118.176 409.254 118.176ZM409.254 117.024C411.062 117.024 412.054 115.52 412.054 113.68C412.054 111.776 410.95 110.48 409.254 110.48C407.558 110.48 406.454 111.776 406.454 113.68C406.454 115.856 407.718 117.024 409.254 117.024ZM416.479 118H415.151V109.52H416.207L416.367 111.136C416.911 110.048 417.903 109.472 419.311 109.472H419.599V110.784H419.311C417.519 110.784 416.479 111.808 416.479 113.552V118ZM424.425 121.392C422.137 121.392 420.585 120.288 420.585 118.496H421.913C421.913 119.504 422.937 120.272 424.425 120.272C426.169 120.272 427.081 119.232 427.081 117.776V116.4C426.489 117.28 425.465 117.856 424.169 117.856C421.913 117.856 420.297 116.128 420.297 113.632C420.297 111.088 421.929 109.328 424.169 109.328C425.529 109.328 426.633 109.968 427.209 110.992L427.353 109.52H428.393V117.776C428.393 119.92 426.953 121.392 424.425 121.392ZM424.361 116.704C425.961 116.704 427.081 115.424 427.081 113.584C427.081 111.76 425.961 110.48 424.361 110.48C422.777 110.48 421.673 111.76 421.673 113.616C421.673 115.44 422.777 116.704 424.361 116.704ZM434.316 118.176C431.804 118.176 430.14 116.336 430.14 113.792C430.14 110.896 432.012 109.328 434.156 109.328C436.492 109.328 437.996 110.896 438.044 113.616V113.984H431.468C431.548 115.792 432.604 117.024 434.316 117.024C435.5 117.024 436.364 116.432 436.716 115.328H438.012C437.628 117.072 436.252 118.176 434.316 118.176ZM431.548 112.88H436.652C436.412 111.392 435.516 110.48 434.156 110.48C432.812 110.48 431.82 111.36 431.548 112.88Z" fill="#330314"/>
<g clip-path="url(#clip3_616_2227)">
<path d="M686.999 119.335C686.666 119.335 686.353 119.205 686.117 118.97L677.183 110.034C677.125 109.976 677.079 109.907 677.047 109.831C677.016 109.756 677 109.674 677 109.592C677 109.425 677.065 109.268 677.183 109.15C677.241 109.091 677.31 109.045 677.386 109.013C677.461 108.981 677.543 108.965 677.625 108.965C677.707 108.965 677.789 108.981 677.864 109.013C677.94 109.045 678.009 109.091 678.067 109.15L686.999 118.085L695.932 109.15C695.99 109.091 696.058 109.045 696.134 109.013C696.21 108.981 696.291 108.965 696.374 108.965C696.456 108.965 696.537 108.981 696.613 109.013C696.689 109.045 696.757 109.091 696.815 109.15C696.874 109.208 696.92 109.276 696.952 109.352C696.984 109.428 697 109.51 697 109.592C697 109.674 696.984 109.755 696.952 109.831C696.92 109.907 696.874 109.976 696.815 110.034L687.882 118.969C687.767 119.086 687.629 119.178 687.478 119.241C687.326 119.304 687.163 119.336 686.999 119.335Z" fill="#481125"/>
</g>
<defs>
<clipPath id="clip0_616_2227">
<rect width="20" height="20" fill="white" transform="translate(38 46.5)"/>
</clipPath>
<clipPath id="clip1_616_2227">
<rect width="20" height="20" fill="white" transform="translate(677 46.5)"/>
</clipPath>
<clipPath id="clip2_616_2227">
<rect width="20" height="20" fill="white" transform="translate(322.5 103.5)"/>
</clipPath>
<clipPath id="clip3_616_2227">
<rect width="20" height="20" fill="white" transform="translate(677 103.5)"/>
</clipPath>
</defs>
</svg>
