<svg width="735" height="332" viewBox="0 0 735 332" fill="none" xmlns="http://www.w3.org/2000/svg">
<rect width="735" height="332" rx="24" fill="white"/>
<path d="M0 24C0 10.7452 10.7452 0 24 0H711C724.255 0 735 10.7452 735 24V166H0V24Z" fill="white"/>
<mask id="path-3-inside-1_596_2056" fill="white">
<path d="M28 64C28 59.5817 31.5817 56 36 56H167.25C171.668 56 175.25 59.5817 175.25 64V97H28V64Z"/>
</mask>
<path d="M28 56H175.25H28ZM175.25 98H28V96H175.25V98ZM28 97V56V97ZM175.25 56V97V56Z" fill="#481125" mask="url(#path-3-inside-1_596_2056)"/>
<g clip-path="url(#clip0_596_2056)">
<path d="M48 76.5C45.2433 76.5 43 74.2567 43 71.5C43 70.6242 43.2317 69.7608 43.6708 69.0025L43.6783 68.9883C44.1198 68.2333 44.7507 67.6066 45.5086 67.1701C46.2666 66.7337 47.1254 66.5027 48 66.5C50.7567 66.5 53 68.7433 53 71.5C53 74.2567 50.7567 76.5 48 76.5ZM44.4425 70.3225C44.315 70.702 44.25 71.0997 44.25 71.5C44.25 73.5675 45.9325 75.25 48 75.25C48.9443 75.2487 49.8535 74.8918 50.5464 74.2502C51.2393 73.6087 51.6652 72.7297 51.7392 71.7883C51.0022 72.0111 50.2366 72.1245 49.4667 72.125H49.45C47.6239 72.1141 45.8566 71.4779 44.4425 70.3225ZM45.0458 69.1933C46.2635 70.2703 47.8311 70.868 49.4567 70.875C50.1958 70.875 50.9208 70.7533 51.6167 70.5133C51.399 69.7206 50.9274 69.021 50.2742 68.5219C49.621 68.0228 48.8221 67.7517 48 67.75C46.8417 67.75 45.7558 68.285 45.0458 69.1933Z" fill="#481125"/>
<path d="M56.125 86.5C55.9592 86.5 55.8003 86.4342 55.6831 86.3169C55.5658 86.1997 55.5 86.0408 55.5 85.875C55.5 81.7392 52.1358 78.375 48 78.375C43.8642 78.375 40.5 81.7392 40.5 85.875C40.5 86.0408 40.4342 86.1997 40.3169 86.3169C40.1997 86.4342 40.0408 86.5 39.875 86.5C39.7092 86.5 39.5503 86.4342 39.4331 86.3169C39.3158 86.1997 39.25 86.0408 39.25 85.875C39.25 81.05 43.175 77.125 48 77.125C52.825 77.125 56.75 81.05 56.75 85.875C56.75 86.0408 56.6842 86.1997 56.5669 86.3169C56.4497 86.4342 56.2908 86.5 56.125 86.5Z" fill="#481125"/>
</g>
<path d="M68.704 81H67.36V69.8H74.992V71.032H68.704V74.664H74.512V75.896H68.704V81ZM80.4723 81.176C77.7523 81.176 76.3123 79.24 76.3123 76.68C76.3123 73.848 78.1683 72.328 80.4723 72.328C83.1763 72.328 84.6323 74.28 84.6323 76.68C84.6323 79.608 82.8563 81.176 80.4723 81.176ZM80.4723 80.024C82.2803 80.024 83.2723 78.52 83.2723 76.68C83.2723 74.776 82.1683 73.48 80.4723 73.48C78.7763 73.48 77.6723 74.776 77.6723 76.68C77.6723 78.856 78.9363 80.024 80.4723 80.024ZM87.6973 81H86.3693V72.52H87.4253L87.5853 74.136C88.1293 73.048 89.1213 72.472 90.5293 72.472H90.8173V73.784H90.5293C88.7373 73.784 87.6973 74.808 87.6973 76.552V81ZM93.666 81H92.338V72.52H93.394L93.522 73.816C94.098 72.92 95.202 72.328 96.466 72.328C98.29 72.328 99.506 73.512 99.506 75.384V81H98.178V75.432C98.178 74.248 97.41 73.496 96.13 73.496C94.61 73.496 93.682 74.552 93.666 75.848V81ZM104.324 81.128C102.404 81.128 101.172 80.136 101.172 78.584C101.172 76.632 103.06 76.264 104.756 76.088C106.052 75.96 107.172 75.976 107.188 75.288C107.172 74.216 106.292 73.464 105.012 73.464C103.78 73.464 102.82 74.152 102.676 75.16H101.364C101.524 73.496 103.028 72.328 105.044 72.328C107.14 72.328 108.484 73.576 108.484 75.368V79.496C108.484 79.768 108.628 79.912 108.916 79.912H109.396V81H108.644C107.732 81 107.252 80.584 107.252 79.8V79.544C106.756 80.52 105.796 81.128 104.324 81.128ZM104.516 79.992C106.1 79.992 107.188 78.984 107.188 77.576V76.472C106.82 76.968 105.876 77.064 104.836 77.176C103.668 77.304 102.5 77.464 102.5 78.552C102.5 79.432 103.3 79.992 104.516 79.992ZM114.639 81H113.247L109.711 72.52H111.151L113.951 79.448L116.735 72.52H118.175L114.639 81ZM120.916 81H119.588V72.52H120.644L120.772 73.816C121.348 72.92 122.452 72.328 123.716 72.328C125.54 72.328 126.756 73.512 126.756 75.384V81H125.428V75.432C125.428 74.248 124.66 73.496 123.38 73.496C121.86 73.496 120.932 74.552 120.916 75.848V81Z" fill="#A35E70"/>
<mask id="path-8-inside-2_596_2056" fill="white">
<path d="M205.25 64C205.25 59.5817 208.832 56 213.25 56H344.5C348.918 56 352.5 59.5817 352.5 64V97H205.25V64Z"/>
</mask>
<path d="M205.25 64C205.25 59.5817 208.832 56 213.25 56H344.5C348.918 56 352.5 59.5817 352.5 64V97H205.25V64Z" fill="#F9EAED"/>
<path d="M205.25 56H352.5H205.25ZM352.5 98H205.25V96H352.5V98ZM205.25 97V56V97ZM352.5 56V97V56Z" fill="#481125" mask="url(#path-8-inside-2_596_2056)"/>
<g clip-path="url(#clip1_596_2056)">
<path d="M225.25 76.5C222.493 76.5 220.25 74.2567 220.25 71.5C220.25 70.6242 220.482 69.7608 220.921 69.0025L220.928 68.9883C221.37 68.2333 222.001 67.6066 222.759 67.1701C223.517 66.7337 224.375 66.5027 225.25 66.5C228.007 66.5 230.25 68.7433 230.25 71.5C230.25 74.2567 228.007 76.5 225.25 76.5ZM221.692 70.3225C221.565 70.702 221.5 71.0997 221.5 71.5C221.5 73.5675 223.182 75.25 225.25 75.25C226.194 75.2487 227.103 74.8918 227.796 74.2502C228.489 73.6087 228.915 72.7297 228.989 71.7883C228.252 72.0111 227.487 72.1245 226.717 72.125H226.7C224.874 72.1141 223.107 71.4779 221.692 70.3225ZM222.296 69.1933C223.513 70.2703 225.081 70.868 226.707 70.875C227.446 70.875 228.171 70.7533 228.867 70.5133C228.649 69.7206 228.177 69.021 227.524 68.5219C226.871 68.0228 226.072 67.7517 225.25 67.75C224.092 67.75 223.006 68.285 222.296 69.1933Z" fill="#481125"/>
<path d="M233.375 86.5C233.209 86.5 233.05 86.4342 232.933 86.3169C232.816 86.1997 232.75 86.0408 232.75 85.875C232.75 81.7392 229.386 78.375 225.25 78.375C221.114 78.375 217.75 81.7392 217.75 85.875C217.75 86.0408 217.684 86.1997 217.567 86.3169C217.45 86.4342 217.291 86.5 217.125 86.5C216.959 86.5 216.8 86.4342 216.683 86.3169C216.566 86.1997 216.5 86.0408 216.5 85.875C216.5 81.05 220.425 77.125 225.25 77.125C230.075 77.125 234 81.05 234 85.875C234 86.0408 233.934 86.1997 233.817 86.3169C233.7 86.4342 233.541 86.5 233.375 86.5Z" fill="#481125"/>
</g>
<path d="M245.954 81H244.61V69.8H252.242V71.032H245.954V74.664H251.762V75.896H245.954V81ZM257.722 81.176C255.002 81.176 253.562 79.24 253.562 76.68C253.562 73.848 255.418 72.328 257.722 72.328C260.426 72.328 261.882 74.28 261.882 76.68C261.882 79.608 260.106 81.176 257.722 81.176ZM257.722 80.024C259.53 80.024 260.522 78.52 260.522 76.68C260.522 74.776 259.418 73.48 257.722 73.48C256.026 73.48 254.922 74.776 254.922 76.68C254.922 78.856 256.186 80.024 257.722 80.024ZM264.947 81H263.619V72.52H264.675L264.835 74.136C265.379 73.048 266.371 72.472 267.779 72.472H268.067V73.784H267.779C265.987 73.784 264.947 74.808 264.947 76.552V81ZM270.916 81H269.588V72.52H270.644L270.772 73.816C271.348 72.92 272.452 72.328 273.716 72.328C275.54 72.328 276.756 73.512 276.756 75.384V81H275.428V75.432C275.428 74.248 274.66 73.496 273.38 73.496C271.86 73.496 270.932 74.552 270.916 75.848V81ZM281.574 81.128C279.654 81.128 278.422 80.136 278.422 78.584C278.422 76.632 280.31 76.264 282.006 76.088C283.302 75.96 284.422 75.976 284.438 75.288C284.422 74.216 283.542 73.464 282.262 73.464C281.03 73.464 280.07 74.152 279.926 75.16H278.614C278.774 73.496 280.278 72.328 282.294 72.328C284.39 72.328 285.734 73.576 285.734 75.368V79.496C285.734 79.768 285.878 79.912 286.166 79.912H286.646V81H285.894C284.982 81 284.502 80.584 284.502 79.8V79.544C284.006 80.52 283.046 81.128 281.574 81.128ZM281.766 79.992C283.35 79.992 284.438 78.984 284.438 77.576V76.472C284.07 76.968 283.126 77.064 282.086 77.176C280.918 77.304 279.75 77.464 279.75 78.552C279.75 79.432 280.55 79.992 281.766 79.992ZM291.889 81H290.497L286.961 72.52H288.401L291.201 79.448L293.985 72.52H295.425L291.889 81ZM298.166 81H296.838V72.52H297.894L298.022 73.816C298.598 72.92 299.702 72.328 300.966 72.328C302.79 72.328 304.006 73.512 304.006 75.384V81H302.678V75.432C302.678 74.248 301.91 73.496 300.63 73.496C299.11 73.496 298.182 74.552 298.166 75.848V81Z" fill="#A35E70"/>
<mask id="path-13-inside-3_596_2056" fill="white">
<path d="M382.5 44C382.5 39.5817 386.082 36 390.5 36H521.75C526.168 36 529.75 39.5817 529.75 44V97H382.5V44Z"/>
</mask>
<path d="M382.5 44C382.5 39.5817 386.082 36 390.5 36H521.75C526.168 36 529.75 39.5817 529.75 44V97H382.5V44Z" fill="#F9EAED"/>
<path d="M382.5 36H529.75H382.5ZM529.75 99H382.5V95H529.75V99ZM382.5 97V36V97ZM529.75 36V97V36Z" fill="#481125" mask="url(#path-13-inside-3_596_2056)"/>
<g clip-path="url(#clip2_596_2056)">
<path d="M402.5 66.5C399.743 66.5 397.5 64.2567 397.5 61.5C397.5 60.6242 397.732 59.7608 398.171 59.0025L398.178 58.9883C398.62 58.2333 399.251 57.6066 400.009 57.1701C400.767 56.7337 401.625 56.5027 402.5 56.5C405.257 56.5 407.5 58.7433 407.5 61.5C407.5 64.2567 405.257 66.5 402.5 66.5ZM398.942 60.3225C398.815 60.702 398.75 61.0997 398.75 61.5C398.75 63.5675 400.432 65.25 402.5 65.25C403.444 65.2487 404.353 64.8918 405.046 64.2502C405.739 63.6087 406.165 62.7297 406.239 61.7883C405.502 62.0111 404.737 62.1245 403.967 62.125H403.95C402.124 62.1141 400.357 61.4779 398.942 60.3225ZM399.546 59.1933C400.763 60.2703 402.331 60.868 403.957 60.875C404.696 60.875 405.421 60.7533 406.117 60.5133C405.899 59.7206 405.427 59.021 404.774 58.5219C404.121 58.0228 403.322 57.7517 402.5 57.75C401.342 57.75 400.256 58.285 399.546 59.1933Z" fill="#481125"/>
<path d="M410.625 76.5C410.459 76.5 410.3 76.4342 410.183 76.3169C410.066 76.1997 410 76.0408 410 75.875C410 71.7392 406.636 68.375 402.5 68.375C398.364 68.375 395 71.7392 395 75.875C395 76.0408 394.934 76.1997 394.817 76.3169C394.7 76.4342 394.541 76.5 394.375 76.5C394.209 76.5 394.05 76.4342 393.933 76.3169C393.816 76.1997 393.75 76.0408 393.75 75.875C393.75 71.05 397.675 67.125 402.5 67.125C407.325 67.125 411.25 71.05 411.25 75.875C411.25 76.0408 411.184 76.1997 411.067 76.3169C410.95 76.4342 410.791 76.5 410.625 76.5Z" fill="#481125"/>
</g>
<path d="M422.528 57H421.52V48.6H427.244V49.524H422.528V52.248H426.884V53.172H422.528V57ZM431.354 57.132C429.314 57.132 428.234 55.68 428.234 53.76C428.234 51.636 429.626 50.496 431.354 50.496C433.382 50.496 434.474 51.96 434.474 53.76C434.474 55.956 433.142 57.132 431.354 57.132ZM431.354 56.268C432.71 56.268 433.454 55.14 433.454 53.76C433.454 52.332 432.626 51.36 431.354 51.36C430.082 51.36 429.254 52.332 429.254 53.76C429.254 55.392 430.202 56.268 431.354 56.268ZM436.773 57H435.777V50.64H436.569L436.689 51.852C437.097 51.036 437.841 50.604 438.897 50.604H439.113V51.588H438.897C437.553 51.588 436.773 52.356 436.773 53.664V57ZM441.25 57H440.254V50.64H441.046L441.142 51.612C441.574 50.94 442.402 50.496 443.35 50.496C444.718 50.496 445.63 51.384 445.63 52.788V57H444.634V52.824C444.634 51.936 444.058 51.372 443.098 51.372C441.958 51.372 441.262 52.164 441.25 53.136V57ZM449.243 57.096C447.803 57.096 446.879 56.352 446.879 55.188C446.879 53.724 448.295 53.448 449.567 53.316C450.539 53.22 451.379 53.232 451.391 52.716C451.379 51.912 450.719 51.348 449.759 51.348C448.835 51.348 448.115 51.864 448.007 52.62H447.023C447.143 51.372 448.271 50.496 449.783 50.496C451.355 50.496 452.363 51.432 452.363 52.776V55.872C452.363 56.076 452.471 56.184 452.687 56.184H453.047V57H452.483C451.799 57 451.439 56.688 451.439 56.1V55.908C451.067 56.64 450.347 57.096 449.243 57.096ZM449.387 56.244C450.575 56.244 451.391 55.488 451.391 54.432V53.604C451.115 53.976 450.407 54.048 449.627 54.132C448.751 54.228 447.875 54.348 447.875 55.164C447.875 55.824 448.475 56.244 449.387 56.244ZM456.979 57H455.935L453.283 50.64H454.363L456.463 55.836L458.551 50.64H459.631L456.979 57ZM461.687 57H460.691V50.64H461.483L461.579 51.612C462.011 50.94 462.839 50.496 463.787 50.496C465.155 50.496 466.067 51.384 466.067 52.788V57H465.071V52.824C465.071 51.936 464.495 51.372 463.535 51.372C462.395 51.372 461.699 52.164 461.687 53.136V57Z" fill="#481125"/>
<path d="M422.964 81H421.636V69H422.964V81Z" fill="#481125"/>
<g opacity="0.48">
<mask id="path-19-inside-4_596_2056" fill="white">
<path d="M559.75 64.5C559.75 60.0817 563.332 56.5 567.75 56.5H699C703.418 56.5 707 60.0817 707 64.5V97.5H559.75V64.5Z"/>
</mask>
<path d="M559.75 56.5H707H559.75ZM707 98.5H559.75V96.5H707V98.5ZM559.75 97.5V56.5V97.5ZM707 56.5V97.5V56.5Z" fill="#481125" mask="url(#path-19-inside-4_596_2056)"/>
<path d="M579.75 77C576.993 77 574.75 74.7567 574.75 72C574.75 71.1242 574.982 70.2608 575.421 69.5025L575.428 69.4883C575.87 68.7333 576.501 68.1066 577.259 67.6701C578.017 67.2337 578.875 67.0027 579.75 67C582.507 67 584.75 69.2433 584.75 72C584.75 74.7567 582.507 77 579.75 77ZM576.192 70.8225C576.065 71.202 576 71.5997 576 72C576 74.0675 577.682 75.75 579.75 75.75C580.694 75.7487 581.603 75.3918 582.296 74.7502C582.989 74.1087 583.415 73.2297 583.489 72.2883C582.752 72.5111 581.987 72.6245 581.217 72.625H581.2C579.374 72.6141 577.607 71.9779 576.192 70.8225ZM576.796 69.6933C578.013 70.7703 579.581 71.368 581.207 71.375C581.946 71.375 582.671 71.2533 583.367 71.0133C583.149 70.2206 582.677 69.521 582.024 69.0219C581.371 68.5228 580.572 68.2517 579.75 68.25C578.592 68.25 577.506 68.785 576.796 69.6933Z" fill="#481125"/>
<path d="M587.875 87C587.709 87 587.55 86.9342 587.433 86.8169C587.316 86.6997 587.25 86.5408 587.25 86.375C587.25 82.2392 583.886 78.875 579.75 78.875C575.614 78.875 572.25 82.2392 572.25 86.375C572.25 86.5408 572.184 86.6997 572.067 86.8169C571.95 86.9342 571.791 87 571.625 87C571.459 87 571.3 86.9342 571.183 86.8169C571.066 86.6997 571 86.5408 571 86.375C571 81.55 574.925 77.625 579.75 77.625C584.575 77.625 588.5 81.55 588.5 86.375C588.5 86.5408 588.434 86.6997 588.317 86.8169C588.2 86.9342 588.041 87 587.875 87Z" fill="#481125"/>
<path d="M600.454 81.5H599.11V70.3H606.742V71.532H600.454V75.164H606.262V76.396H600.454V81.5ZM612.222 81.676C609.502 81.676 608.062 79.74 608.062 77.18C608.062 74.348 609.918 72.828 612.222 72.828C614.926 72.828 616.382 74.78 616.382 77.18C616.382 80.108 614.606 81.676 612.222 81.676ZM612.222 80.524C614.03 80.524 615.022 79.02 615.022 77.18C615.022 75.276 613.918 73.98 612.222 73.98C610.526 73.98 609.422 75.276 609.422 77.18C609.422 79.356 610.686 80.524 612.222 80.524ZM619.447 81.5H618.119V73.02H619.175L619.335 74.636C619.879 73.548 620.871 72.972 622.279 72.972H622.567V74.284H622.279C620.487 74.284 619.447 75.308 619.447 77.052V81.5ZM625.416 81.5H624.088V73.02H625.144L625.272 74.316C625.848 73.42 626.952 72.828 628.216 72.828C630.04 72.828 631.256 74.012 631.256 75.884V81.5H629.928V75.932C629.928 74.748 629.16 73.996 627.88 73.996C626.36 73.996 625.432 75.052 625.416 76.348V81.5ZM636.074 81.628C634.154 81.628 632.922 80.636 632.922 79.084C632.922 77.132 634.81 76.764 636.506 76.588C637.802 76.46 638.922 76.476 638.938 75.788C638.922 74.716 638.042 73.964 636.762 73.964C635.53 73.964 634.57 74.652 634.426 75.66H633.114C633.274 73.996 634.778 72.828 636.794 72.828C638.89 72.828 640.234 74.076 640.234 75.868V79.996C640.234 80.268 640.378 80.412 640.666 80.412H641.146V81.5H640.394C639.482 81.5 639.002 81.084 639.002 80.3V80.044C638.506 81.02 637.546 81.628 636.074 81.628ZM636.266 80.492C637.85 80.492 638.938 79.484 638.938 78.076V76.972C638.57 77.468 637.626 77.564 636.586 77.676C635.418 77.804 634.25 77.964 634.25 79.052C634.25 79.932 635.05 80.492 636.266 80.492ZM646.389 81.5H644.997L641.461 73.02H642.901L645.701 79.948L648.485 73.02H649.925L646.389 81.5ZM652.666 81.5H651.338V73.02H652.394L652.522 74.316C653.098 73.42 654.202 72.828 655.466 72.828C657.29 72.828 658.506 74.012 658.506 75.884V81.5H657.178V75.932C657.178 74.748 656.41 73.996 655.13 73.996C653.61 73.996 652.682 75.052 652.666 76.348V81.5Z" fill="#481125"/>
</g>
<path d="M28.576 126H27.232V117.28C26.704 117.984 25.84 118.336 24.672 118.336H24.48V117.024H24.672C26.352 117.024 27.248 116.304 27.248 114.96V114.8H28.576V126ZM31.7455 126.16C31.1695 126.16 30.7375 125.728 30.7375 125.152C30.7375 124.592 31.1695 124.16 31.7455 124.16C32.3215 124.16 32.7535 124.592 32.7535 125.152C32.7535 125.728 32.3215 126.16 31.7455 126.16Z" fill="#330314"/>
<path d="M209.003 117.84C209.003 121.68 203.131 121.52 203.131 124.768H208.843V126H201.707V124.944C201.707 120.832 207.611 120.88 207.611 117.84C207.611 116.656 206.779 115.856 205.435 115.856C204.027 115.856 202.907 116.736 202.875 118.544H201.467C201.595 115.984 203.275 114.624 205.451 114.624C207.595 114.624 209.003 115.92 209.003 117.84ZM211.553 126.16C210.977 126.16 210.545 125.728 210.545 125.152C210.545 124.592 210.977 124.16 211.553 124.16C212.129 124.16 212.561 124.592 212.561 125.152C212.561 125.728 212.129 126.16 211.553 126.16Z" fill="#330314"/>
<path d="M385.357 126.176C382.829 126.176 381.117 124.72 380.973 122.432H382.365C382.461 123.968 383.629 124.944 385.373 124.944C386.973 124.944 388.013 124.096 388.013 122.816C388.013 121.568 387.021 120.8 385.325 120.8H383.821V119.696H385.325C386.653 119.696 387.581 118.928 387.581 117.792C387.581 116.672 386.669 115.856 385.309 115.856C383.917 115.856 382.877 116.736 382.669 118.112H381.277C381.565 115.984 383.165 114.624 385.389 114.624C387.469 114.624 388.925 115.824 388.925 117.52C388.925 118.816 388.077 119.808 386.829 120.144C388.429 120.512 389.341 121.52 389.341 122.96C389.341 124.864 387.757 126.176 385.357 126.176ZM391.844 126.16C391.268 126.16 390.836 125.728 390.836 125.152C390.836 124.592 391.268 124.16 391.844 124.16C392.42 124.16 392.852 124.592 392.852 125.152C392.852 125.728 392.42 126.16 391.844 126.16Z" fill="#330314"/>
<path d="M568.536 126H567.192V123.2H561.64V122L567.176 114.8H568.536V121.968H570.504V123.2H568.536V126ZM567.192 116.672L563.112 121.968H567.192V116.672ZM572.714 126.16C572.138 126.16 571.706 125.728 571.706 125.152C571.706 124.592 572.138 124.16 572.714 124.16C573.29 124.16 573.722 124.592 573.722 125.152C573.722 125.728 573.29 126.16 572.714 126.16Z" fill="#330314"/>
<path d="M0 166H735V308C735 321.255 724.255 332 711 332H24C10.7451 332 0 321.255 0 308V166Z" fill="#330314"/>
<mask id="path-29-inside-5_596_2056" fill="white">
<path d="M28 230C28 225.582 31.5817 222 36 222H167.25C171.668 222 175.25 225.582 175.25 230V263H28V230Z"/>
</mask>
<path d="M28 222H175.25H28ZM175.25 264H28V262H175.25V264ZM28 263V222V263ZM175.25 222V263V222Z" fill="#8A224A" mask="url(#path-29-inside-5_596_2056)"/>
<g clip-path="url(#clip3_596_2056)">
<path d="M48 242.5C45.2433 242.5 43 240.257 43 237.5C43 236.624 43.2317 235.761 43.6708 235.003L43.6783 234.988C44.1198 234.233 44.7507 233.607 45.5086 233.17C46.2666 232.734 47.1254 232.503 48 232.5C50.7567 232.5 53 234.743 53 237.5C53 240.257 50.7567 242.5 48 242.5ZM44.4425 236.322C44.315 236.702 44.25 237.1 44.25 237.5C44.25 239.567 45.9325 241.25 48 241.25C48.9443 241.249 49.8535 240.892 50.5464 240.25C51.2393 239.609 51.6652 238.73 51.7392 237.788C51.0022 238.011 50.2366 238.124 49.4667 238.125H49.45C47.6239 238.114 45.8566 237.478 44.4425 236.322ZM45.0458 235.193C46.2635 236.27 47.8311 236.868 49.4567 236.875C50.1958 236.875 50.9208 236.753 51.6167 236.513C51.399 235.721 50.9274 235.021 50.2742 234.522C49.621 234.023 48.8221 233.752 48 233.75C46.8417 233.75 45.7558 234.285 45.0458 235.193Z" fill="#F5C9D3"/>
<path d="M56.125 252.5C55.9592 252.5 55.8003 252.434 55.6831 252.317C55.5658 252.2 55.5 252.041 55.5 251.875C55.5 247.739 52.1358 244.375 48 244.375C43.8642 244.375 40.5 247.739 40.5 251.875C40.5 252.041 40.4342 252.2 40.3169 252.317C40.1997 252.434 40.0408 252.5 39.875 252.5C39.7092 252.5 39.5503 252.434 39.4331 252.317C39.3158 252.2 39.25 252.041 39.25 251.875C39.25 247.05 43.175 243.125 48 243.125C52.825 243.125 56.75 247.05 56.75 251.875C56.75 252.041 56.6842 252.2 56.5669 252.317C56.4497 252.434 56.2908 252.5 56.125 252.5Z" fill="#F5C9D3"/>
</g>
<path d="M67.84 247H66.448L71.056 235.8H72.416L77.04 247H75.648L74.336 243.8H69.152L67.84 247ZM71.744 237.512L69.664 242.584H73.824L71.744 237.512ZM79.9004 247H78.5724V238.52H79.6284L79.7564 239.816C80.3324 238.92 81.4364 238.328 82.7004 238.328C84.5244 238.328 85.7404 239.512 85.7404 241.384V247H84.4124V241.432C84.4124 240.248 83.6444 239.496 82.3644 239.496C80.8444 239.496 79.9164 240.552 79.9004 241.848V247ZM89.1504 247H87.8224V238.52H88.8784L89.0064 239.816C89.5824 238.92 90.6864 238.328 91.9504 238.328C93.7744 238.328 94.9904 239.512 94.9904 241.384V247H93.6624V241.432C93.6624 240.248 92.8944 239.496 91.6144 239.496C90.0944 239.496 89.1664 240.552 89.1504 241.848V247ZM100.816 247.176C98.3044 247.176 96.6404 245.336 96.6404 242.792C96.6404 239.896 98.5124 238.328 100.656 238.328C102.992 238.328 104.496 239.896 104.544 242.616V242.984H97.9684C98.0484 244.792 99.1044 246.024 100.816 246.024C102 246.024 102.864 245.432 103.216 244.328H104.512C104.128 246.072 102.752 247.176 100.816 247.176ZM98.0484 241.88H103.152C102.912 240.392 102.016 239.48 100.656 239.48C99.3124 239.48 98.3204 240.36 98.0484 241.88Z" fill="#F5C9D3"/>
<mask id="path-34-inside-6_596_2056" fill="white">
<path d="M205.25 230C205.25 225.582 208.832 222 213.25 222H344.5C348.918 222 352.5 225.582 352.5 230V263H205.25V230Z"/>
</mask>
<path d="M205.25 230C205.25 225.582 208.832 222 213.25 222H344.5C348.918 222 352.5 225.582 352.5 230V263H205.25V230Z" fill="#481125"/>
<path d="M205.25 222H352.5H205.25ZM352.5 264H205.25V262H352.5V264ZM205.25 263V222V263ZM352.5 222V263V222Z" fill="#8A224A" mask="url(#path-34-inside-6_596_2056)"/>
<g clip-path="url(#clip4_596_2056)">
<path d="M225.25 242.5C222.493 242.5 220.25 240.257 220.25 237.5C220.25 236.624 220.482 235.761 220.921 235.003L220.928 234.988C221.37 234.233 222.001 233.607 222.759 233.17C223.517 232.734 224.375 232.503 225.25 232.5C228.007 232.5 230.25 234.743 230.25 237.5C230.25 240.257 228.007 242.5 225.25 242.5ZM221.692 236.322C221.565 236.702 221.5 237.1 221.5 237.5C221.5 239.567 223.182 241.25 225.25 241.25C226.194 241.249 227.103 240.892 227.796 240.25C228.489 239.609 228.915 238.73 228.989 237.788C228.252 238.011 227.487 238.124 226.717 238.125H226.7C224.874 238.114 223.107 237.478 221.692 236.322ZM222.296 235.193C223.513 236.27 225.081 236.868 226.707 236.875C227.446 236.875 228.171 236.753 228.867 236.513C228.649 235.721 228.177 235.021 227.524 234.522C226.871 234.023 226.072 233.752 225.25 233.75C224.092 233.75 223.006 234.285 222.296 235.193Z" fill="#F5C9D3"/>
<path d="M233.375 252.5C233.209 252.5 233.05 252.434 232.933 252.317C232.816 252.2 232.75 252.041 232.75 251.875C232.75 247.739 229.386 244.375 225.25 244.375C221.114 244.375 217.75 247.739 217.75 251.875C217.75 252.041 217.684 252.2 217.567 252.317C217.45 252.434 217.291 252.5 217.125 252.5C216.959 252.5 216.8 252.434 216.683 252.317C216.566 252.2 216.5 252.041 216.5 251.875C216.5 247.05 220.425 243.125 225.25 243.125C230.075 243.125 234 247.05 234 251.875C234 252.041 233.934 252.2 233.817 252.317C233.7 252.434 233.541 252.5 233.375 252.5Z" fill="#F5C9D3"/>
</g>
<path d="M245.09 247H243.698L248.306 235.8H249.666L254.29 247H252.898L251.586 243.8H246.402L245.09 247ZM248.994 237.512L246.914 242.584H251.074L248.994 237.512ZM257.15 247H255.822V238.52H256.878L257.006 239.816C257.582 238.92 258.686 238.328 259.95 238.328C261.774 238.328 262.99 239.512 262.99 241.384V247H261.662V241.432C261.662 240.248 260.894 239.496 259.614 239.496C258.094 239.496 257.166 240.552 257.15 241.848V247ZM266.4 247H265.072V238.52H266.128L266.256 239.816C266.832 238.92 267.936 238.328 269.2 238.328C271.024 238.328 272.24 239.512 272.24 241.384V247H270.912V241.432C270.912 240.248 270.144 239.496 268.864 239.496C267.344 239.496 266.416 240.552 266.4 241.848V247ZM278.066 247.176C275.554 247.176 273.89 245.336 273.89 242.792C273.89 239.896 275.762 238.328 277.906 238.328C280.242 238.328 281.746 239.896 281.794 242.616V242.984H275.218C275.298 244.792 276.354 246.024 278.066 246.024C279.25 246.024 280.114 245.432 280.466 244.328H281.762C281.378 246.072 280.002 247.176 278.066 247.176ZM275.298 241.88H280.402C280.162 240.392 279.266 239.48 277.906 239.48C276.562 239.48 275.57 240.36 275.298 241.88Z" fill="#F5C9D3"/>
<mask id="path-39-inside-7_596_2056" fill="white">
<path d="M382.5 210C382.5 205.582 386.082 202 390.5 202H521.75C526.168 202 529.75 205.582 529.75 210V263H382.5V210Z"/>
</mask>
<path d="M382.5 210C382.5 205.582 386.082 202 390.5 202H521.75C526.168 202 529.75 205.582 529.75 210V263H382.5V210Z" fill="#481125"/>
<path d="M382.5 202H529.75H382.5ZM529.75 265H382.5V261H529.75V265ZM382.5 263V202V263ZM529.75 202V263V202Z" fill="#8A224A" mask="url(#path-39-inside-7_596_2056)"/>
<g clip-path="url(#clip5_596_2056)">
<path d="M402.5 232.5C399.743 232.5 397.5 230.257 397.5 227.5C397.5 226.624 397.732 225.761 398.171 225.003L398.178 224.988C398.62 224.233 399.251 223.607 400.009 223.17C400.767 222.734 401.625 222.503 402.5 222.5C405.257 222.5 407.5 224.743 407.5 227.5C407.5 230.257 405.257 232.5 402.5 232.5ZM398.942 226.322C398.815 226.702 398.75 227.1 398.75 227.5C398.75 229.567 400.432 231.25 402.5 231.25C403.444 231.249 404.353 230.892 405.046 230.25C405.739 229.609 406.165 228.73 406.239 227.788C405.502 228.011 404.737 228.124 403.967 228.125H403.95C402.124 228.114 400.357 227.478 398.942 226.322ZM399.546 225.193C400.763 226.27 402.331 226.868 403.957 226.875C404.696 226.875 405.421 226.753 406.117 226.513C405.899 225.721 405.427 225.021 404.774 224.522C404.121 224.023 403.322 223.752 402.5 223.75C401.342 223.75 400.256 224.285 399.546 225.193Z" fill="#F5C9D3"/>
<path d="M410.625 242.5C410.459 242.5 410.3 242.434 410.183 242.317C410.066 242.2 410 242.041 410 241.875C410 237.739 406.636 234.375 402.5 234.375C398.364 234.375 395 237.739 395 241.875C395 242.041 394.934 242.2 394.817 242.317C394.7 242.434 394.541 242.5 394.375 242.5C394.209 242.5 394.05 242.434 393.933 242.317C393.816 242.2 393.75 242.041 393.75 241.875C393.75 237.05 397.675 233.125 402.5 233.125C407.325 233.125 411.25 237.05 411.25 241.875C411.25 242.041 411.184 242.2 411.067 242.317C410.95 242.434 410.791 242.5 410.625 242.5Z" fill="#F5C9D3"/>
</g>
<path d="M422.528 223H421.52V214.6H427.244V215.524H422.528V218.248H426.884V219.172H422.528V223ZM431.354 223.132C429.314 223.132 428.234 221.68 428.234 219.76C428.234 217.636 429.626 216.496 431.354 216.496C433.382 216.496 434.474 217.96 434.474 219.76C434.474 221.956 433.142 223.132 431.354 223.132ZM431.354 222.268C432.71 222.268 433.454 221.14 433.454 219.76C433.454 218.332 432.626 217.36 431.354 217.36C430.082 217.36 429.254 218.332 429.254 219.76C429.254 221.392 430.202 222.268 431.354 222.268ZM436.773 223H435.777V216.64H436.569L436.689 217.852C437.097 217.036 437.841 216.604 438.897 216.604H439.113V217.588H438.897C437.553 217.588 436.773 218.356 436.773 219.664V223ZM441.25 223H440.254V216.64H441.046L441.142 217.612C441.574 216.94 442.402 216.496 443.35 216.496C444.718 216.496 445.63 217.384 445.63 218.788V223H444.634V218.824C444.634 217.936 444.058 217.372 443.098 217.372C441.958 217.372 441.262 218.164 441.25 219.136V223ZM449.243 223.096C447.803 223.096 446.879 222.352 446.879 221.188C446.879 219.724 448.295 219.448 449.567 219.316C450.539 219.22 451.379 219.232 451.391 218.716C451.379 217.912 450.719 217.348 449.759 217.348C448.835 217.348 448.115 217.864 448.007 218.62H447.023C447.143 217.372 448.271 216.496 449.783 216.496C451.355 216.496 452.363 217.432 452.363 218.776V221.872C452.363 222.076 452.471 222.184 452.687 222.184H453.047V223H452.483C451.799 223 451.439 222.688 451.439 222.1V221.908C451.067 222.64 450.347 223.096 449.243 223.096ZM449.387 222.244C450.575 222.244 451.391 221.488 451.391 220.432V219.604C451.115 219.976 450.407 220.048 449.627 220.132C448.751 220.228 447.875 220.348 447.875 221.164C447.875 221.824 448.475 222.244 449.387 222.244ZM456.979 223H455.935L453.283 216.64H454.363L456.463 221.836L458.551 216.64H459.631L456.979 223ZM461.687 223H460.691V216.64H461.483L461.579 217.612C462.011 216.94 462.839 216.496 463.787 216.496C465.155 216.496 466.067 217.384 466.067 218.788V223H465.071V218.824C465.071 217.936 464.495 217.372 463.535 217.372C462.395 217.372 461.699 218.164 461.687 219.136V223Z" fill="#F5C9D3"/>
<path d="M422.34 247H420.948L425.556 235.8H426.916L431.54 247H430.148L428.836 243.8H423.652L422.34 247ZM426.244 237.512L424.164 242.584H428.324L426.244 237.512ZM434.4 247H433.072V238.52H434.128L434.256 239.816C434.832 238.92 435.936 238.328 437.2 238.328C439.024 238.328 440.24 239.512 440.24 241.384V247H438.912V241.432C438.912 240.248 438.144 239.496 436.864 239.496C435.344 239.496 434.416 240.552 434.4 241.848V247ZM443.65 247H442.322V238.52H443.378L443.506 239.816C444.082 238.92 445.186 238.328 446.45 238.328C448.274 238.328 449.49 239.512 449.49 241.384V247H448.162V241.432C448.162 240.248 447.394 239.496 446.114 239.496C444.594 239.496 443.666 240.552 443.65 241.848V247ZM455.316 247.176C452.804 247.176 451.14 245.336 451.14 242.792C451.14 239.896 453.012 238.328 455.156 238.328C457.492 238.328 458.996 239.896 459.044 242.616V242.984H452.468C452.548 244.792 453.604 246.024 455.316 246.024C456.5 246.024 457.364 245.432 457.716 244.328H459.012C458.628 246.072 457.252 247.176 455.316 247.176ZM452.548 241.88H457.652C457.412 240.392 456.516 239.48 455.156 239.48C453.812 239.48 452.82 240.36 452.548 241.88Z" fill="#F5C9D3"/>
<path d="M517.25 240.5C517.117 240.5 516.991 240.448 516.897 240.353L509.75 233.208L502.603 240.353C502.509 240.448 502.383 240.5 502.25 240.5C502.117 240.5 501.991 240.448 501.897 240.353C501.702 240.159 501.702 239.841 501.897 239.646L509.043 232.5L501.897 225.354C501.802 225.26 501.75 225.134 501.75 225.001C501.75 224.867 501.802 224.741 501.897 224.647C501.991 224.553 502.117 224.501 502.25 224.501C502.383 224.501 502.509 224.553 502.603 224.647L509.75 231.793L516.897 224.647C516.991 224.552 517.117 224.5 517.25 224.5C517.383 224.5 517.509 224.552 517.603 224.647C517.698 224.741 517.75 224.867 517.75 225.001C517.75 225.134 517.698 225.26 517.603 225.354L510.457 232.5L517.603 239.647C517.798 239.841 517.798 240.159 517.603 240.354C517.509 240.448 517.383 240.5 517.25 240.5Z" fill="#F5C9D3"/>
<g opacity="0.48">
<mask id="path-46-inside-8_596_2056" fill="white">
<path d="M559.75 229C559.75 224.582 563.332 221 567.75 221H699C703.418 221 707 224.582 707 229V262H559.75V229Z"/>
</mask>
<path d="M559.75 221H707H559.75ZM707 263H559.75V261H707V263ZM559.75 262V221V262ZM707 221V262V221Z" fill="#8A224A" mask="url(#path-46-inside-8_596_2056)"/>
<g clip-path="url(#clip6_596_2056)">
<path d="M579.75 241.5C576.993 241.5 574.75 239.257 574.75 236.5C574.75 235.624 574.982 234.761 575.421 234.003L575.428 233.988C575.87 233.233 576.501 232.607 577.259 232.17C578.017 231.734 578.875 231.503 579.75 231.5C582.507 231.5 584.75 233.743 584.75 236.5C584.75 239.257 582.507 241.5 579.75 241.5ZM576.192 235.322C576.065 235.702 576 236.1 576 236.5C576 238.567 577.682 240.25 579.75 240.25C580.694 240.249 581.603 239.892 582.296 239.25C582.989 238.609 583.415 237.73 583.489 236.788C582.752 237.011 581.987 237.124 581.217 237.125H581.2C579.374 237.114 577.607 236.478 576.192 235.322ZM576.796 234.193C578.013 235.27 579.581 235.868 581.207 235.875C581.946 235.875 582.671 235.753 583.367 235.513C583.149 234.721 582.677 234.021 582.024 233.522C581.371 233.023 580.572 232.752 579.75 232.75C578.592 232.75 577.506 233.285 576.796 234.193Z" fill="#F5C9D3"/>
<path d="M587.875 251.5C587.709 251.5 587.55 251.434 587.433 251.317C587.316 251.2 587.25 251.041 587.25 250.875C587.25 246.739 583.886 243.375 579.75 243.375C575.614 243.375 572.25 246.739 572.25 250.875C572.25 251.041 572.184 251.2 572.067 251.317C571.95 251.434 571.791 251.5 571.625 251.5C571.459 251.5 571.3 251.434 571.183 251.317C571.066 251.2 571 251.041 571 250.875C571 246.05 574.925 242.125 579.75 242.125C584.575 242.125 588.5 246.05 588.5 250.875C588.5 251.041 588.434 251.2 588.317 251.317C588.2 251.434 588.041 251.5 587.875 251.5Z" fill="#F5C9D3"/>
</g>
<path d="M600.454 246H599.11V234.8H606.742V236.032H600.454V239.664H606.262V240.896H600.454V246ZM612.222 246.176C609.502 246.176 608.062 244.24 608.062 241.68C608.062 238.848 609.918 237.328 612.222 237.328C614.926 237.328 616.382 239.28 616.382 241.68C616.382 244.608 614.606 246.176 612.222 246.176ZM612.222 245.024C614.03 245.024 615.022 243.52 615.022 241.68C615.022 239.776 613.918 238.48 612.222 238.48C610.526 238.48 609.422 239.776 609.422 241.68C609.422 243.856 610.686 245.024 612.222 245.024ZM619.447 246H618.119V237.52H619.175L619.335 239.136C619.879 238.048 620.871 237.472 622.279 237.472H622.567V238.784H622.279C620.487 238.784 619.447 239.808 619.447 241.552V246ZM625.416 246H624.088V237.52H625.144L625.272 238.816C625.848 237.92 626.952 237.328 628.216 237.328C630.04 237.328 631.256 238.512 631.256 240.384V246H629.928V240.432C629.928 239.248 629.16 238.496 627.88 238.496C626.36 238.496 625.432 239.552 625.416 240.848V246ZM636.074 246.128C634.154 246.128 632.922 245.136 632.922 243.584C632.922 241.632 634.81 241.264 636.506 241.088C637.802 240.96 638.922 240.976 638.938 240.288C638.922 239.216 638.042 238.464 636.762 238.464C635.53 238.464 634.57 239.152 634.426 240.16H633.114C633.274 238.496 634.778 237.328 636.794 237.328C638.89 237.328 640.234 238.576 640.234 240.368V244.496C640.234 244.768 640.378 244.912 640.666 244.912H641.146V246H640.394C639.482 246 639.002 245.584 639.002 244.8V244.544C638.506 245.52 637.546 246.128 636.074 246.128ZM636.266 244.992C637.85 244.992 638.938 243.984 638.938 242.576V241.472C638.57 241.968 637.626 242.064 636.586 242.176C635.418 242.304 634.25 242.464 634.25 243.552C634.25 244.432 635.05 244.992 636.266 244.992ZM646.389 246H644.997L641.461 237.52H642.901L645.701 244.448L648.485 237.52H649.925L646.389 246ZM652.666 246H651.338V237.52H652.394L652.522 238.816C653.098 237.92 654.202 237.328 655.466 237.328C657.29 237.328 658.506 238.512 658.506 240.384V246H657.178V240.432C657.178 239.248 656.41 238.496 655.13 238.496C653.61 238.496 652.682 239.552 652.666 240.848V246Z" fill="#CC94A1"/>
</g>
<path d="M28.576 292H27.232V283.28C26.704 283.984 25.84 284.336 24.672 284.336H24.48V283.024H24.672C26.352 283.024 27.248 282.304 27.248 280.96V280.8H28.576V292ZM31.7455 292.16C31.1695 292.16 30.7375 291.728 30.7375 291.152C30.7375 290.592 31.1695 290.16 31.7455 290.16C32.3215 290.16 32.7535 290.592 32.7535 291.152C32.7535 291.728 32.3215 292.16 31.7455 292.16Z" fill="#F9EAED"/>
<path d="M212.336 283.84C212.336 287.68 206.464 287.52 206.464 290.768H212.176V292H205.04V290.944C205.04 286.832 210.944 286.88 210.944 283.84C210.944 282.656 210.112 281.856 208.768 281.856C207.36 281.856 206.24 282.736 206.208 284.544H204.8C204.928 281.984 206.608 280.624 208.784 280.624C210.928 280.624 212.336 281.92 212.336 283.84ZM214.886 292.16C214.31 292.16 213.878 291.728 213.878 291.152C213.878 290.592 214.31 290.16 214.886 290.16C215.462 290.16 215.894 290.592 215.894 291.152C215.894 291.728 215.462 292.16 214.886 292.16Z" fill="#F9EAED"/>
<path d="M392.024 292.176C389.496 292.176 387.784 290.72 387.64 288.432H389.032C389.128 289.968 390.296 290.944 392.04 290.944C393.64 290.944 394.68 290.096 394.68 288.816C394.68 287.568 393.688 286.8 391.992 286.8H390.488V285.696H391.992C393.32 285.696 394.248 284.928 394.248 283.792C394.248 282.672 393.336 281.856 391.976 281.856C390.584 281.856 389.544 282.736 389.336 284.112H387.944C388.232 281.984 389.832 280.624 392.056 280.624C394.136 280.624 395.592 281.824 395.592 283.52C395.592 284.816 394.744 285.808 393.496 286.144C395.096 286.512 396.008 287.52 396.008 288.96C396.008 290.864 394.424 292.176 392.024 292.176ZM398.511 292.16C397.935 292.16 397.503 291.728 397.503 291.152C397.503 290.592 397.935 290.16 398.511 290.16C399.087 290.16 399.519 290.592 399.519 291.152C399.519 291.728 399.087 292.16 398.511 292.16Z" fill="#F9EAED"/>
<path d="M578.536 292H577.192V289.2H571.64V288L577.176 280.8H578.536V287.968H580.504V289.2H578.536V292ZM577.192 282.672L573.112 287.968H577.192V282.672ZM582.714 292.16C582.138 292.16 581.706 291.728 581.706 291.152C581.706 290.592 582.138 290.16 582.714 290.16C583.29 290.16 583.722 290.592 583.722 291.152C583.722 291.728 583.29 292.16 582.714 292.16Z" fill="#F9EAED"/>
<defs>
<clipPath id="clip0_596_2056">
<rect width="20" height="20" fill="white" transform="translate(38 66.5)"/>
</clipPath>
<clipPath id="clip1_596_2056">
<rect width="20" height="20" fill="white" transform="translate(215.25 66.5)"/>
</clipPath>
<clipPath id="clip2_596_2056">
<rect width="20" height="20" fill="white" transform="translate(392.5 56.5)"/>
</clipPath>
<clipPath id="clip3_596_2056">
<rect width="20" height="20" fill="white" transform="translate(38 232.5)"/>
</clipPath>
<clipPath id="clip4_596_2056">
<rect width="20" height="20" fill="white" transform="translate(215.25 232.5)"/>
</clipPath>
<clipPath id="clip5_596_2056">
<rect width="20" height="20" fill="white" transform="translate(392.5 222.5)"/>
</clipPath>
<clipPath id="clip6_596_2056">
<rect width="20" height="20" fill="white" transform="translate(569.75 231.5)"/>
</clipPath>
</defs>
</svg>
