<svg width="735" height="193" viewBox="0 0 735 193" fill="none" xmlns="http://www.w3.org/2000/svg">
<rect width="735" height="193" rx="10.9729" fill="white"/>
<mask id="path-2-inside-1_618_7270" fill="white">
<path d="M130.5 72C130.5 67.5817 134.082 64 138.5 64H344.5C348.918 64 352.5 67.5817 352.5 72V105H130.5V72Z"/>
</mask>
<path d="M130.5 64H352.5H130.5ZM352.5 106H130.5V104H352.5V106ZM130.5 105V64V105ZM352.5 64V105V64Z" fill="#481125" mask="url(#path-2-inside-1_618_7270)"/>
<g clip-path="url(#clip0_618_7270)">
<path d="M150.5 84.5C147.743 84.5 145.5 82.2567 145.5 79.5C145.5 78.6242 145.732 77.7608 146.171 77.0025L146.178 76.9883C146.62 76.2333 147.251 75.6066 148.009 75.1701C148.767 74.7337 149.625 74.5027 150.5 74.5C153.257 74.5 155.5 76.7433 155.5 79.5C155.5 82.2567 153.257 84.5 150.5 84.5ZM146.942 78.3225C146.815 78.702 146.75 79.0997 146.75 79.5C146.75 81.5675 148.432 83.25 150.5 83.25C151.444 83.2487 152.353 82.8918 153.046 82.2502C153.739 81.6087 154.165 80.7297 154.239 79.7883C153.502 80.0111 152.737 80.1245 151.967 80.125H151.95C150.124 80.1141 148.357 79.4779 146.942 78.3225ZM147.546 77.1933C148.763 78.2703 150.331 78.868 151.957 78.875C152.696 78.875 153.421 78.7533 154.117 78.5133C153.899 77.7206 153.427 77.021 152.774 76.5219C152.121 76.0228 151.322 75.7517 150.5 75.75C149.342 75.75 148.256 76.285 147.546 77.1933Z" fill="#481125"/>
<path d="M158.625 94.5C158.459 94.5 158.3 94.4342 158.183 94.3169C158.066 94.1997 158 94.0408 158 93.875C158 89.7392 154.636 86.375 150.5 86.375C146.364 86.375 143 89.7392 143 93.875C143 94.0408 142.934 94.1997 142.817 94.3169C142.7 94.4342 142.541 94.5 142.375 94.5C142.209 94.5 142.05 94.4342 141.933 94.3169C141.816 94.1997 141.75 94.0408 141.75 93.875C141.75 89.05 145.675 85.125 150.5 85.125C155.325 85.125 159.25 89.05 159.25 93.875C159.25 94.0408 159.184 94.1997 159.067 94.3169C158.95 94.4342 158.791 94.5 158.625 94.5Z" fill="#481125"/>
</g>
<path d="M177.204 89H169.86V77.8H171.204V87.768H177.204V89ZM181.668 89.128C179.748 89.128 178.516 88.136 178.516 86.584C178.516 84.632 180.404 84.264 182.1 84.088C183.396 83.96 184.516 83.976 184.532 83.288C184.516 82.216 183.636 81.464 182.356 81.464C181.124 81.464 180.164 82.152 180.02 83.16H178.708C178.868 81.496 180.372 80.328 182.388 80.328C184.484 80.328 185.828 81.576 185.828 83.368V87.496C185.828 87.768 185.972 87.912 186.26 87.912H186.74V89H185.988C185.076 89 184.596 88.584 184.596 87.8V87.544C184.1 88.52 183.14 89.128 181.668 89.128ZM181.86 87.992C183.444 87.992 184.532 86.984 184.532 85.576V84.472C184.164 84.968 183.22 85.064 182.18 85.176C181.012 85.304 179.844 85.464 179.844 86.552C179.844 87.432 180.644 87.992 181.86 87.992ZM192.581 89.176C191.189 89.176 190.053 88.488 189.477 87.384L189.333 89H188.277V77H189.605V81.848C190.229 80.92 191.301 80.328 192.581 80.328C194.821 80.328 196.389 82.12 196.389 84.712C196.389 87.352 194.821 89.176 192.581 89.176ZM192.373 88.024C193.941 88.024 195.013 86.664 195.013 84.712C195.013 82.808 193.941 81.48 192.357 81.48C190.757 81.48 189.605 82.776 189.605 84.648C189.605 86.632 190.757 88.024 192.373 88.024ZM201.879 89.176C199.367 89.176 197.703 87.336 197.703 84.792C197.703 81.896 199.575 80.328 201.719 80.328C204.055 80.328 205.559 81.896 205.607 84.616V84.984H199.031C199.111 86.792 200.167 88.024 201.879 88.024C203.063 88.024 203.927 87.432 204.279 86.328H205.575C205.191 88.072 203.815 89.176 201.879 89.176ZM199.111 83.88H204.215C203.975 82.392 203.079 81.48 201.719 81.48C200.375 81.48 199.383 82.36 199.111 83.88ZM208.73 89H207.402V77H208.73V89ZM218.957 89H218.013C216.365 89 215.485 88.152 215.485 86.584V81.64H213.917V80.52H215.485V77.624H216.813V80.52H219.101V81.64H216.813V86.584C216.813 87.432 217.229 87.88 218.013 87.88H218.957V89ZM224.207 89.176C221.695 89.176 220.031 87.336 220.031 84.792C220.031 81.896 221.903 80.328 224.047 80.328C226.383 80.328 227.887 81.896 227.935 84.616V84.984H221.359C221.439 86.792 222.495 88.024 224.207 88.024C225.391 88.024 226.255 87.432 226.607 86.328H227.903C227.519 88.072 226.143 89.176 224.207 89.176ZM221.439 83.88H226.543C226.303 82.392 225.407 81.48 224.047 81.48C222.703 81.48 221.711 82.36 221.439 83.88ZM230.061 89H228.557L231.629 84.792L228.589 80.52H230.077L232.381 83.8L234.669 80.52H236.157L233.117 84.776L236.189 89H234.685L232.381 85.736L230.061 89ZM242.113 89H241.169C239.521 89 238.641 88.152 238.641 86.584V81.64H237.073V80.52H238.641V77.624H239.969V80.52H242.257V81.64H239.969V86.584C239.969 87.432 240.385 87.88 241.169 87.88H242.113V89Z" fill="#A35E70"/>
<path d="M134.772 122.132C132.66 122.132 131.208 121.04 131.1 119.456H132.156C132.276 120.536 133.296 121.22 134.772 121.22C136.056 121.22 136.728 120.692 136.728 119.816C136.728 118.964 135.984 118.64 135.18 118.388L133.728 117.932C133.056 117.716 131.364 117.356 131.364 115.712C131.364 114.356 132.48 113.468 134.22 113.468C136.14 113.468 137.328 114.44 137.46 116.228H136.416C136.332 115.04 135.504 114.38 134.172 114.38C133.116 114.38 132.372 114.86 132.372 115.664C132.372 116.588 133.332 116.78 134.052 117.008L135.408 117.428C136.476 117.764 137.76 118.184 137.76 119.768C137.76 121.244 136.632 122.132 134.772 122.132ZM141.402 122.132C139.854 122.132 138.966 121.184 138.966 119.888V115.64H139.962V119.852C139.962 120.764 140.598 121.256 141.498 121.256C142.686 121.256 143.334 120.464 143.346 119.504V115.64H144.342V122H143.55L143.466 121.04C143.046 121.76 142.278 122.132 141.402 122.132ZM146.996 124.4H146V115.64H146.792L146.9 116.792C147.356 116 148.196 115.496 149.228 115.496C150.908 115.496 152.084 116.84 152.084 118.784C152.084 120.764 150.908 122.132 149.228 122.132C148.256 122.132 147.452 121.688 146.996 120.944V124.4ZM149.072 121.268C150.248 121.268 151.052 120.248 151.052 118.784C151.052 117.356 150.248 116.36 149.06 116.36C147.86 116.36 146.996 117.332 146.996 118.736C146.996 120.224 147.86 121.268 149.072 121.268ZM154.414 124.4H153.418V115.64H154.21L154.318 116.792C154.774 116 155.614 115.496 156.646 115.496C158.326 115.496 159.502 116.84 159.502 118.784C159.502 120.764 158.326 122.132 156.646 122.132C155.674 122.132 154.87 121.688 154.414 120.944V124.4ZM156.49 121.268C157.666 121.268 158.47 120.248 158.47 118.784C158.47 117.356 157.666 116.36 156.478 116.36C155.278 116.36 154.414 117.332 154.414 118.736C154.414 120.224 155.278 121.268 156.49 121.268ZM163.608 122.132C161.568 122.132 160.488 120.68 160.488 118.76C160.488 116.636 161.88 115.496 163.608 115.496C165.636 115.496 166.728 116.96 166.728 118.76C166.728 120.956 165.396 122.132 163.608 122.132ZM163.608 121.268C164.964 121.268 165.708 120.14 165.708 118.76C165.708 117.332 164.88 116.36 163.608 116.36C162.336 116.36 161.508 117.332 161.508 118.76C161.508 120.392 162.456 121.268 163.608 121.268ZM169.027 122H168.031V115.64H168.823L168.943 116.852C169.351 116.036 170.095 115.604 171.151 115.604H171.367V116.588H171.151C169.807 116.588 169.027 117.356 169.027 118.664V122ZM175.819 122H175.111C173.875 122 173.215 121.364 173.215 120.188V116.48H172.039V115.64H173.215V113.468H174.211V115.64H175.927V116.48H174.211V120.188C174.211 120.824 174.523 121.16 175.111 121.16H175.819V122ZM177.605 114.572C177.185 114.572 176.861 114.248 176.861 113.828C176.861 113.408 177.185 113.096 177.605 113.096C178.025 113.096 178.337 113.408 178.337 113.828C178.337 114.248 178.025 114.572 177.605 114.572ZM178.097 122H177.101V115.64H178.097V122ZM182.846 122H181.802L179.15 115.64H180.23L182.33 120.836L184.418 115.64H185.498L182.846 122ZM189.132 122.132C187.248 122.132 186 120.752 186 118.844C186 116.672 187.404 115.496 189.012 115.496C190.764 115.496 191.892 116.672 191.928 118.712V118.988H186.996C187.056 120.344 187.848 121.268 189.132 121.268C190.02 121.268 190.668 120.824 190.932 119.996H191.904C191.616 121.304 190.584 122.132 189.132 122.132ZM187.056 118.16H190.884C190.704 117.044 190.032 116.36 189.012 116.36C188.004 116.36 187.26 117.02 187.056 118.16ZM199.245 122H198.537C197.301 122 196.641 121.364 196.641 120.188V116.48H195.465V115.64H196.641V113.468H197.637V115.64H199.353V116.48H197.637V120.188C197.637 120.824 197.949 121.16 198.537 121.16H199.245V122ZM203.183 122.132C201.299 122.132 200.051 120.752 200.051 118.844C200.051 116.672 201.455 115.496 203.063 115.496C204.815 115.496 205.943 116.672 205.979 118.712V118.988H201.047C201.107 120.344 201.899 121.268 203.183 121.268C204.071 121.268 204.719 120.824 204.983 119.996H205.955C205.667 121.304 204.635 122.132 203.183 122.132ZM201.107 118.16H204.935C204.755 117.044 204.083 116.36 203.063 116.36C202.055 116.36 201.311 117.02 201.107 118.16ZM207.573 122H206.445L208.749 118.844L206.469 115.64H207.585L209.313 118.1L211.029 115.64H212.145L209.865 118.832L212.169 122H211.041L209.313 119.552L207.573 122ZM216.612 122H215.904C214.668 122 214.008 121.364 214.008 120.188V116.48H212.832V115.64H214.008V113.468H215.004V115.64H216.72V116.48H215.004V120.188C215.004 120.824 215.316 121.16 215.904 121.16H216.612V122Z" fill="#481125"/>
<mask id="path-8-inside-2_618_7270" fill="white">
<path d="M382.5 52C382.5 47.5817 386.082 44 390.5 44H596.5C600.918 44 604.5 47.5817 604.5 52V105H382.5V52Z"/>
</mask>
<path d="M382.5 52C382.5 47.5817 386.082 44 390.5 44H596.5C600.918 44 604.5 47.5817 604.5 52V105H382.5V52Z" fill="#F9EAED"/>
<path d="M382.5 44H604.5H382.5ZM604.5 107H382.5V103H604.5V107ZM382.5 105V44V105ZM604.5 44V105V44Z" fill="#481125" mask="url(#path-8-inside-2_618_7270)"/>
<path d="M399.028 65H393.52V56.6H394.528V64.076H399.028V65ZM402.376 65.096C400.936 65.096 400.012 64.352 400.012 63.188C400.012 61.724 401.428 61.448 402.7 61.316C403.672 61.22 404.512 61.232 404.524 60.716C404.512 59.912 403.852 59.348 402.892 59.348C401.968 59.348 401.248 59.864 401.14 60.62H400.156C400.276 59.372 401.404 58.496 402.916 58.496C404.488 58.496 405.496 59.432 405.496 60.776V63.872C405.496 64.076 405.604 64.184 405.82 64.184H406.18V65H405.616C404.932 65 404.572 64.688 404.572 64.1V63.908C404.2 64.64 403.48 65.096 402.376 65.096ZM402.52 64.244C403.708 64.244 404.524 63.488 404.524 62.432V61.604C404.248 61.976 403.54 62.048 402.76 62.132C401.884 62.228 401.008 62.348 401.008 63.164C401.008 63.824 401.608 64.244 402.52 64.244ZM410.56 65.132C409.516 65.132 408.664 64.616 408.232 63.788L408.124 65H407.332V56H408.328V59.636C408.796 58.94 409.6 58.496 410.56 58.496C412.24 58.496 413.416 59.84 413.416 61.784C413.416 63.764 412.24 65.132 410.56 65.132ZM410.404 64.268C411.58 64.268 412.384 63.248 412.384 61.784C412.384 60.356 411.58 59.36 410.392 59.36C409.192 59.36 408.328 60.332 408.328 61.736C408.328 63.224 409.192 64.268 410.404 64.268ZM417.534 65.132C415.65 65.132 414.402 63.752 414.402 61.844C414.402 59.672 415.806 58.496 417.414 58.496C419.166 58.496 420.294 59.672 420.33 61.712V61.988H415.398C415.458 63.344 416.25 64.268 417.534 64.268C418.422 64.268 419.07 63.824 419.334 62.996H420.306C420.018 64.304 418.986 65.132 417.534 65.132ZM415.458 61.16H419.286C419.106 60.044 418.434 59.36 417.414 59.36C416.406 59.36 415.662 60.02 415.458 61.16ZM422.672 65H421.676V56H422.672V65ZM430.343 65H429.635C428.399 65 427.739 64.364 427.739 63.188V59.48H426.563V58.64H427.739V56.468H428.735V58.64H430.451V59.48H428.735V63.188C428.735 63.824 429.047 64.16 429.635 64.16H430.343V65ZM434.28 65.132C432.396 65.132 431.148 63.752 431.148 61.844C431.148 59.672 432.552 58.496 434.16 58.496C435.912 58.496 437.04 59.672 437.076 61.712V61.988H432.144C432.204 63.344 432.996 64.268 434.28 64.268C435.168 64.268 435.816 63.824 436.08 62.996H437.052C436.764 64.304 435.732 65.132 434.28 65.132ZM432.204 61.16H436.032C435.852 60.044 435.18 59.36 434.16 59.36C433.152 59.36 432.408 60.02 432.204 61.16ZM438.67 65H437.542L439.846 61.844L437.566 58.64H438.682L440.41 61.1L442.126 58.64H443.242L440.962 61.832L443.266 65H442.138L440.41 62.552L438.67 65ZM447.71 65H447.002C445.766 65 445.106 64.364 445.106 63.188V59.48H443.93V58.64H445.106V56.468H446.102V58.64H447.818V59.48H446.102V63.188C446.102 63.824 446.414 64.16 447.002 64.16H447.71V65Z" fill="#481125"/>
<path d="M395.204 89H393.86V77.8H395.204V89ZM398.979 89H397.651V80.52H398.707L398.835 81.816C399.411 80.92 400.515 80.328 401.779 80.328C403.603 80.328 404.819 81.512 404.819 83.384V89H403.491V83.432C403.491 82.248 402.723 81.496 401.443 81.496C399.923 81.496 398.995 82.552 398.979 83.848V89ZM408.261 92.2H406.933V80.52H407.989L408.133 82.056C408.741 81 409.861 80.328 411.237 80.328C413.477 80.328 415.045 82.12 415.045 84.712C415.045 87.352 413.477 89.176 411.237 89.176C409.941 89.176 408.869 88.584 408.261 87.592V92.2ZM411.029 88.024C412.597 88.024 413.669 86.664 413.669 84.712C413.669 82.808 412.597 81.48 411.013 81.48C409.413 81.48 408.261 82.776 408.261 84.648C408.261 86.632 409.413 88.024 411.029 88.024ZM419.879 89.176C417.815 89.176 416.631 87.912 416.631 86.184V80.52H417.959V86.136C417.959 87.352 418.807 88.008 420.007 88.008C421.591 88.008 422.455 86.952 422.471 85.672V80.52H423.799V89H422.743L422.631 87.72C422.071 88.68 421.047 89.176 419.879 89.176ZM430.395 89H429.451C427.803 89 426.923 88.152 426.923 86.584V81.64H425.355V80.52H426.923V77.624H428.251V80.52H430.539V81.64H428.251V86.584C428.251 87.432 428.667 87.88 429.451 87.88H430.395V89ZM440.113 89H439.169C437.521 89 436.641 88.152 436.641 86.584V81.64H435.073V80.52H436.641V77.624H437.969V80.52H440.257V81.64H437.969V86.584C437.969 87.432 438.385 87.88 439.169 87.88H440.113V89ZM445.363 89.176C442.851 89.176 441.187 87.336 441.187 84.792C441.187 81.896 443.059 80.328 445.203 80.328C447.539 80.328 449.043 81.896 449.091 84.616V84.984H442.515C442.595 86.792 443.651 88.024 445.363 88.024C446.547 88.024 447.411 87.432 447.763 86.328H449.059C448.675 88.072 447.299 89.176 445.363 89.176ZM442.595 83.88H447.699C447.459 82.392 446.563 81.48 445.203 81.48C443.859 81.48 442.867 82.36 442.595 83.88ZM451.217 89H449.713L452.785 84.792L449.745 80.52H451.233L453.537 83.8L455.825 80.52H457.313L454.273 84.776L457.345 89H455.841L453.537 85.736L451.217 89ZM463.27 89H462.326C460.678 89 459.798 88.152 459.798 86.584V81.64H458.23V80.52H459.798V77.624H461.126V80.52H463.414V81.64H461.126V86.584C461.126 87.432 461.542 87.88 462.326 87.88H463.27V89Z" fill="#481125"/>
<path d="M592 82.5C591.867 82.5 591.741 82.448 591.647 82.3534L584.5 75.2077L577.353 82.3534C577.259 82.448 577.133 82.5 577 82.5C576.867 82.5 576.741 82.448 576.647 82.3534C576.452 82.1587 576.452 81.8414 576.647 81.6461L583.793 74.4997L576.647 67.354C576.552 67.26 576.5 67.134 576.5 67.0007C576.5 66.8674 576.552 66.7414 576.647 66.6474C576.741 66.5527 576.867 66.5007 577 66.5007C577.133 66.5007 577.259 66.5527 577.353 66.6474L584.5 73.7931L591.647 66.6467C591.741 66.552 591.867 66.5 592 66.5C592.133 66.5 592.259 66.552 592.353 66.6467C592.448 66.7414 592.5 66.8674 592.5 67.0007C592.5 67.134 592.448 67.26 592.353 67.354L585.207 74.5004L592.353 81.6467C592.548 81.8414 592.548 82.1587 592.353 82.3541C592.259 82.448 592.133 82.5 592 82.5Z" fill="#481125"/>
<path d="M122.528 27.4385H117.02V19.0385H118.028V26.5145H122.528V27.4385ZM126.632 27.5705C124.748 27.5705 123.5 26.1905 123.5 24.2825C123.5 22.1105 124.904 20.9345 126.512 20.9345C128.264 20.9345 129.392 22.1105 129.428 24.1505V24.4265H124.496C124.556 25.7825 125.348 26.7065 126.632 26.7065C127.52 26.7065 128.168 26.2625 128.432 25.4345H129.404C129.116 26.7425 128.084 27.5705 126.632 27.5705ZM124.556 23.5985H128.384C128.204 22.4825 127.532 21.7985 126.512 21.7985C125.504 21.7985 124.76 22.4585 124.556 23.5985ZM133.306 27.5705C131.602 27.5705 130.414 26.2025 130.414 24.2225C130.414 22.2785 131.59 20.9345 133.294 20.9345C134.254 20.9345 135.058 21.3545 135.514 22.0265V18.4385H136.51V27.4385H135.718L135.61 26.2145C135.19 27.0425 134.35 27.5705 133.306 27.5705ZM133.462 26.7065C134.674 26.7065 135.514 25.6745 135.514 24.1985C135.514 22.7705 134.698 21.7865 133.522 21.7865C132.298 21.7865 131.446 22.7825 131.446 24.2225C131.446 25.6865 132.274 26.7065 133.462 26.7065ZM140.987 27.5705C139.103 27.5705 137.855 26.1905 137.855 24.2825C137.855 22.1105 139.259 20.9345 140.867 20.9345C142.619 20.9345 143.747 22.1105 143.783 24.1505V24.4265H138.851C138.911 25.7825 139.703 26.7065 140.987 26.7065C141.875 26.7065 142.523 26.2625 142.787 25.4345H143.759C143.471 26.7425 142.439 27.5705 140.987 27.5705ZM138.911 23.5985H142.739C142.559 22.4825 141.887 21.7985 140.867 21.7985C139.859 21.7985 139.115 22.4585 138.911 23.5985ZM147.469 27.5705C145.957 27.5705 144.841 26.7785 144.757 25.4345H145.729C145.801 26.2625 146.557 26.7185 147.517 26.7185C148.417 26.7185 148.849 26.3705 148.849 25.7345C148.849 25.1345 148.381 25.0025 147.721 24.7745L146.797 24.4625C145.861 24.1505 144.925 23.8625 144.925 22.7105C144.925 21.6305 145.765 20.9345 147.157 20.9345C148.561 20.9345 149.533 21.6905 149.689 23.1065H148.717C148.609 22.2185 147.985 21.7865 147.121 21.7865C146.341 21.7865 145.885 22.1345 145.885 22.6865C145.885 23.3465 146.581 23.4785 147.109 23.6585L147.973 23.9465C149.137 24.3305 149.833 24.7265 149.833 25.7825C149.833 26.8985 149.017 27.5705 147.469 27.5705ZM151.756 29.8385H150.736V28.9985H151.756C152.404 28.9985 152.68 28.7705 152.824 28.3865L153.172 27.4385H152.932L150.412 21.0785H151.48L153.544 26.4425L155.536 21.0785H156.556L153.7 28.7705C153.436 29.4665 152.848 29.8385 151.756 29.8385ZM158.605 27.4385H157.609V21.0785H158.401L158.497 22.0625C158.929 21.3785 159.757 20.9345 160.669 20.9345C161.629 20.9345 162.349 21.4265 162.673 22.1945C163.081 21.4505 163.957 20.9345 164.929 20.9345C166.273 20.9345 167.137 21.8825 167.137 23.1785V27.4385H166.141V23.2145C166.141 22.3625 165.613 21.8105 164.761 21.8105C163.573 21.8105 162.877 22.6025 162.865 23.5745V27.4385H161.881V23.2145C161.881 22.3625 161.353 21.8105 160.501 21.8105C159.313 21.8105 158.617 22.6025 158.605 23.5745V27.4385ZM171.959 27.5705C170.915 27.5705 170.063 27.0545 169.631 26.2265L169.523 27.4385H168.731V18.4385H169.727V22.0745C170.195 21.3785 170.999 20.9345 171.959 20.9345C173.639 20.9345 174.815 22.2785 174.815 24.2225C174.815 26.2025 173.639 27.5705 171.959 27.5705ZM171.803 26.7065C172.979 26.7065 173.783 25.6865 173.783 24.2225C173.783 22.7945 172.979 21.7985 171.791 21.7985C170.591 21.7985 169.727 22.7705 169.727 24.1745C169.727 25.6625 170.591 26.7065 171.803 26.7065ZM178.921 27.5705C176.881 27.5705 175.801 26.1185 175.801 24.1985C175.801 22.0745 177.193 20.9345 178.921 20.9345C180.949 20.9345 182.041 22.3985 182.041 24.1985C182.041 26.3945 180.709 27.5705 178.921 27.5705ZM178.921 26.7065C180.277 26.7065 181.021 25.5785 181.021 24.1985C181.021 22.7705 180.193 21.7985 178.921 21.7985C177.649 21.7985 176.821 22.7705 176.821 24.1985C176.821 25.8305 177.769 26.7065 178.921 26.7065ZM184.375 27.4385H183.379V18.4385H184.375V27.4385Z" fill="#4420B0"/>
<path d="M151 63.7718C149.527 63.7718 148.333 64.9657 148.333 66.4385C148.333 67.9112 149.527 69.1051 151 69.1051C152.473 69.1051 153.667 67.9112 153.667 66.4385C153.667 64.9657 152.473 63.7718 151 63.7718ZM150.5 34.4385L150.5 35.7718L151.5 35.7718L151.5 34.4385L150.5 34.4385ZM150.5 38.4385L150.5 41.1051L151.5 41.1051L151.5 38.4385L150.5 38.4385ZM150.5 43.7718L150.5 46.4385L151.5 46.4385L151.5 43.7718L150.5 43.7718ZM150.5 49.1051L150.5 51.7718L151.5 51.7718L151.5 49.1051L150.5 49.1051ZM150.5 54.4385L150.5 57.1051L151.5 57.1051L151.5 54.4385L150.5 54.4385ZM150.5 59.7718L150.5 62.4385L151.5 62.4385L151.5 59.7718L150.5 59.7718ZM150.5 65.1051L150.5 66.4385L151.5 66.4385L151.5 65.1051L150.5 65.1051Z" fill="#4420B0"/>
<path d="M195.864 42.4385H190.02V34.0385H195.756V34.9625H191.016V37.6145H195.276V38.5145H191.016V41.5145H195.864V42.4385ZM200.581 42.4385H199.873C198.637 42.4385 197.977 41.8025 197.977 40.6265V36.9185H196.801V36.0785H197.977V33.9065H198.973V36.0785H200.689V36.9185H198.973V40.6265C198.973 41.2625 199.285 41.5985 199.873 41.5985H200.581V42.4385ZM202.367 35.0105C201.947 35.0105 201.623 34.6865 201.623 34.2665C201.623 33.8465 201.947 33.5345 202.367 33.5345C202.787 33.5345 203.099 33.8465 203.099 34.2665C203.099 34.6865 202.787 35.0105 202.367 35.0105ZM202.859 42.4385H201.863V36.0785H202.859V42.4385ZM205.52 42.4385H204.524V33.4385H205.52V39.2105L208.616 36.0785H209.816L207.524 38.3945L210.164 42.4385H209L206.84 39.0905L205.52 40.4225V42.4385ZM213.472 42.5705C211.588 42.5705 210.34 41.1905 210.34 39.2825C210.34 37.1105 211.744 35.9345 213.352 35.9345C215.104 35.9345 216.232 37.1105 216.268 39.1505V39.4265H211.336C211.396 40.7825 212.188 41.7065 213.472 41.7065C214.36 41.7065 215.008 41.2625 215.272 40.4345H216.244C215.956 41.7425 214.924 42.5705 213.472 42.5705ZM211.396 38.5985H215.224C215.044 37.4825 214.372 36.7985 213.352 36.7985C212.344 36.7985 211.6 37.4585 211.396 38.5985ZM220.726 42.4385H220.018C218.782 42.4385 218.122 41.8025 218.122 40.6265V36.9185H216.946V36.0785H218.122V33.9065H219.118V36.0785H221.59V33.9065H222.586V36.0785H224.302V36.9185H222.586V40.6265C222.586 41.2625 222.898 41.5985 223.486 41.5985H224.194V42.4385H223.486C222.25 42.4385 221.59 41.8025 221.59 40.6265V36.9185H219.118V40.6265C219.118 41.2625 219.43 41.5985 220.018 41.5985H220.726V42.4385Z" fill="#4420B0"/>
<path d="M207 59.7718C205.527 59.7718 204.333 60.9657 204.333 62.4385C204.333 63.9112 205.527 65.1051 207 65.1051C208.473 65.1051 209.667 63.9112 209.667 62.4385C209.667 60.9657 208.473 59.7718 207 59.7718ZM206.5 49.4385L206.5 51.0635L207.5 51.0635L207.5 49.4385L206.5 49.4385ZM206.5 54.3135L206.5 57.5635L207.5 57.5635L207.5 54.3135L206.5 54.3135ZM206.5 60.8135L206.5 62.4385L207.5 62.4385L207.5 60.8135L206.5 60.8135Z" fill="#4420B0"/>
<path d="M171.5 140.105C172.973 140.105 174.167 138.911 174.167 137.438C174.167 135.966 172.973 134.772 171.5 134.772C170.027 134.772 168.833 135.966 168.833 137.438C168.833 138.911 170.027 140.105 171.5 140.105ZM172 150.438L172 148.813L171 148.813L171 150.438L172 150.438ZM172 145.563L172 142.313L171 142.313L171 145.563L172 145.563ZM172 139.063L172 137.438L171 137.438L171 139.063L172 139.063Z" fill="#4420B0"/>
<path d="M144.272 163.57C142.16 163.57 140.708 162.478 140.6 160.894H141.656C141.776 161.974 142.796 162.658 144.272 162.658C145.556 162.658 146.228 162.13 146.228 161.254C146.228 160.402 145.484 160.078 144.68 159.826L143.228 159.37C142.556 159.154 140.864 158.794 140.864 157.15C140.864 155.794 141.98 154.906 143.72 154.906C145.64 154.906 146.828 155.878 146.96 157.666H145.916C145.832 156.478 145.004 155.818 143.672 155.818C142.616 155.818 141.872 156.298 141.872 157.102C141.872 158.026 142.832 158.218 143.552 158.446L144.908 158.866C145.976 159.202 147.26 159.622 147.26 161.206C147.26 162.682 146.132 163.57 144.272 163.57ZM151.898 163.438H151.19C149.954 163.438 149.294 162.802 149.294 161.626V157.918H148.118V157.078H149.294V154.906H150.29V157.078H152.006V157.918H150.29V161.626C150.29 162.262 150.602 162.598 151.19 162.598H151.898V163.438ZM158.835 156.934L158.115 157.858C158.655 158.446 158.943 159.274 158.943 160.198C158.943 162.394 157.611 163.57 155.823 163.57C155.103 163.57 154.503 163.39 154.023 163.066L153.315 163.966L152.811 163.618L153.555 162.67C152.991 162.058 152.703 161.194 152.703 160.198C152.703 158.074 154.095 156.934 155.823 156.934C156.555 156.934 157.167 157.126 157.647 157.45L158.319 156.586L158.835 156.934ZM153.723 160.198C153.723 160.894 153.891 161.458 154.179 161.866L157.059 158.194C156.723 157.942 156.303 157.798 155.823 157.798C154.551 157.798 153.723 158.77 153.723 160.198ZM155.823 162.706C157.179 162.706 157.923 161.578 157.923 160.198C157.923 159.586 157.767 159.046 157.491 158.65L154.611 162.31C154.959 162.574 155.379 162.706 155.823 162.706ZM163.394 163.438H162.686C161.45 163.438 160.79 162.802 160.79 161.626V157.918H159.614V157.078H160.79V154.906H161.786V157.078H164.258V154.906H165.254V157.078H166.97V157.918H165.254V161.626C165.254 162.262 165.566 162.598 166.154 162.598H166.862V163.438H166.154C164.918 163.438 164.258 162.802 164.258 161.626V157.918H161.786V161.626C161.786 162.262 162.098 162.598 162.686 162.598H163.394V163.438ZM170.8 163.57C168.916 163.57 167.668 162.19 167.668 160.282C167.668 158.11 169.072 156.934 170.68 156.934C172.432 156.934 173.56 158.11 173.596 160.15V160.426H168.664C168.724 161.782 169.516 162.706 170.8 162.706C171.688 162.706 172.336 162.262 172.6 161.434H173.572C173.284 162.742 172.252 163.57 170.8 163.57ZM168.724 159.598H172.552C172.372 158.482 171.7 157.798 170.68 157.798C169.672 157.798 168.928 158.458 168.724 159.598ZM178.054 163.438H177.346C176.11 163.438 175.45 162.802 175.45 161.626V157.918H174.274V157.078H175.45V154.906H176.446V157.078H178.162V157.918H176.446V161.626C176.446 162.262 176.758 162.598 177.346 162.598H178.054V163.438ZM181.991 163.57C180.107 163.57 178.859 162.19 178.859 160.282C178.859 158.11 180.263 156.934 181.871 156.934C183.623 156.934 184.751 158.11 184.787 160.15V160.426H179.855C179.915 161.782 180.707 162.706 181.991 162.706C182.879 162.706 183.527 162.262 183.791 161.434H184.763C184.475 162.742 183.443 163.57 181.991 163.57ZM179.915 159.598H183.743C183.563 158.482 182.891 157.798 181.871 157.798C180.863 157.798 180.119 158.458 179.915 159.598ZM187.129 163.438H186.133V154.438H187.129V160.21L190.225 157.078H191.425L189.133 159.394L191.773 163.438H190.609L188.449 160.09L187.129 161.422V163.438ZM194.965 163.57C193.453 163.57 192.337 162.778 192.253 161.434H193.225C193.297 162.262 194.053 162.718 195.013 162.718C195.913 162.718 196.345 162.37 196.345 161.734C196.345 161.134 195.877 161.002 195.217 160.774L194.293 160.462C193.357 160.15 192.421 159.862 192.421 158.71C192.421 157.63 193.261 156.934 194.653 156.934C196.057 156.934 197.029 157.69 197.185 159.106H196.213C196.105 158.218 195.481 157.786 194.617 157.786C193.837 157.786 193.381 158.134 193.381 158.686C193.381 159.346 194.077 159.478 194.605 159.658L195.469 159.946C196.633 160.33 197.329 160.726 197.329 161.782C197.329 162.898 196.513 163.57 194.965 163.57ZM201.702 163.438H200.994C199.758 163.438 199.098 162.802 199.098 161.626V157.918H197.922V157.078H199.098V154.906H200.094V157.078H201.81V157.918H200.094V161.626C200.094 162.262 200.406 162.598 200.994 162.598H201.702V163.438Z" fill="#4420B0"/>
<path d="M443 108.105C444.473 108.105 445.667 106.911 445.667 105.438C445.667 103.966 444.473 102.772 443 102.772C441.527 102.772 440.333 103.966 440.333 105.438C440.333 106.911 441.527 108.105 443 108.105ZM443.5 136.438L443.5 135.147L442.5 135.147L442.5 136.438L443.5 136.438ZM443.5 132.563L443.5 129.98L442.5 129.98L442.5 132.563L443.5 132.563ZM443.5 127.397L443.5 124.813L442.5 124.813L442.5 127.397L443.5 127.397ZM443.5 122.23L443.5 119.647L442.5 119.647L442.5 122.23L443.5 122.23ZM443.5 117.063L443.5 114.48L442.5 114.48L442.5 117.063L443.5 117.063ZM443.5 111.897L443.5 109.313L442.5 109.313L442.5 111.897L443.5 111.897ZM443.5 106.73L443.5 105.438L442.5 105.438L442.5 106.73L443.5 106.73Z" fill="#4420B0"/>
<path d="M420.272 149.57C418.16 149.57 416.708 148.478 416.6 146.894H417.656C417.776 147.974 418.796 148.658 420.272 148.658C421.556 148.658 422.228 148.13 422.228 147.254C422.228 146.402 421.484 146.078 420.68 145.826L419.228 145.37C418.556 145.154 416.864 144.794 416.864 143.15C416.864 141.794 417.98 140.906 419.72 140.906C421.64 140.906 422.828 141.878 422.96 143.666H421.916C421.832 142.478 421.004 141.818 419.672 141.818C418.616 141.818 417.872 142.298 417.872 143.102C417.872 144.026 418.832 144.218 419.552 144.446L420.908 144.866C421.976 145.202 423.26 145.622 423.26 147.206C423.26 148.682 422.132 149.57 420.272 149.57ZM425.618 149.438H424.622V140.438H425.618V146.21L428.714 143.078H429.914L427.622 145.394L430.262 149.438H429.098L426.938 146.09L425.618 147.422V149.438ZM432.097 149.438H431.101V143.078H431.893L432.013 144.29C432.421 143.474 433.165 143.042 434.221 143.042H434.437V144.026H434.221C432.877 144.026 432.097 144.794 432.097 146.102V149.438ZM436.082 142.01C435.662 142.01 435.338 141.686 435.338 141.266C435.338 140.846 435.662 140.534 436.082 140.534C436.502 140.534 436.814 140.846 436.814 141.266C436.814 141.686 436.502 142.01 436.082 142.01ZM436.574 149.438H435.578V143.078H436.574V149.438ZM441.323 149.438H440.279L437.627 143.078H438.707L440.807 148.274L442.895 143.078H443.975L441.323 149.438ZM447.608 149.57C445.724 149.57 444.476 148.19 444.476 146.282C444.476 144.11 445.88 142.934 447.488 142.934C449.24 142.934 450.368 144.11 450.404 146.15V146.426H445.472C445.532 147.782 446.324 148.706 447.608 148.706C448.496 148.706 449.144 148.262 449.408 147.434H450.38C450.092 148.742 449.06 149.57 447.608 149.57ZM445.532 145.598H449.36C449.18 144.482 448.508 143.798 447.488 143.798C446.48 143.798 445.736 144.458 445.532 145.598ZM453.254 149.438H452.258V143.918H451.082V143.078H452.258V142.19C452.258 141.05 452.894 140.438 454.07 140.438H455.486V141.278H454.07C453.542 141.278 453.254 141.602 453.254 142.19V143.078H455.318V143.918H453.254V149.438ZM459.011 149.57C457.127 149.57 455.879 148.19 455.879 146.282C455.879 144.11 457.283 142.934 458.891 142.934C460.643 142.934 461.771 144.11 461.807 146.15V146.426H456.875C456.935 147.782 457.727 148.706 459.011 148.706C459.899 148.706 460.547 148.262 460.811 147.434H461.783C461.495 148.742 460.463 149.57 459.011 149.57ZM456.935 145.598H460.763C460.583 144.482 459.911 143.798 458.891 143.798C457.883 143.798 457.139 144.458 456.935 145.598ZM464.149 149.438H463.153V140.438H464.149V149.438ZM469.124 149.438H468.416C467.18 149.438 466.52 148.802 466.52 147.626V143.918H465.344V143.078H466.52V140.906H467.516V143.078H469.232V143.918H467.516V147.626C467.516 148.262 467.828 148.598 468.416 148.598H469.124V149.438Z" fill="#4420B0"/>
<path d="M544.5 107.105C545.973 107.105 547.167 105.911 547.167 104.438C547.167 102.966 545.973 101.772 544.5 101.772C543.027 101.772 541.833 102.966 541.833 104.438C541.833 105.911 543.027 107.105 544.5 107.105ZM545 135.438L545 134.147L544 134.147L544 135.438L545 135.438ZM545 131.563L545 128.98L544 128.98L544 131.563L545 131.563ZM545 126.397L545 123.813L544 123.813L544 126.397L545 126.397ZM545 121.23L545 118.647L544 118.647L544 121.23L545 121.23ZM545 116.063L545 113.48L544 113.48L544 116.063L545 116.063ZM545 110.897L545 108.313L544 108.313L544 110.897L545 110.897ZM545 105.73L545 104.438L544 104.438L544 105.73L545 105.73Z" fill="#4420B0"/>
<path d="M505.38 148.438H504.336L507.792 140.038H508.812L512.28 148.438H511.236L510.252 146.038H506.364L505.38 148.438ZM508.308 141.322L506.748 145.126H509.868L508.308 141.322ZM514.461 148.438H513.465V139.438H514.461V145.21L517.557 142.078H518.757L516.465 144.394L519.105 148.438H517.941L515.781 145.09L514.461 146.422V148.438ZM523.257 148.438H522.549C521.313 148.438 520.653 147.802 520.653 146.626V142.918H519.477V142.078H520.653V139.906H521.649V142.078H523.365V142.918H521.649V146.626C521.649 147.262 521.961 147.598 522.549 147.598H523.257V148.438ZM525.043 141.01C524.623 141.01 524.299 140.686 524.299 140.266C524.299 139.846 524.623 139.534 525.043 139.534C525.463 139.534 525.775 139.846 525.775 140.266C525.775 140.686 525.463 141.01 525.043 141.01ZM525.535 148.438H524.539V142.078H525.535V148.438ZM530.284 148.438H529.24L526.588 142.078H527.668L529.768 147.274L531.856 142.078H532.936L530.284 148.438ZM537.195 141.01C536.775 141.01 536.451 140.686 536.451 140.266C536.451 139.846 536.775 139.534 537.195 139.534C537.615 139.534 537.927 139.846 537.927 140.266C537.927 140.686 537.615 141.01 537.195 141.01ZM537.687 148.438H536.691V142.078H537.687V148.438ZM540.312 148.438H539.316V142.078H540.108L540.204 143.05C540.636 142.378 541.464 141.934 542.412 141.934C543.78 141.934 544.692 142.822 544.692 144.226V148.438H543.696V144.262C543.696 143.374 543.12 142.81 542.16 142.81C541.02 142.81 540.324 143.602 540.312 144.574V148.438ZM548.822 148.57C547.118 148.57 545.93 147.202 545.93 145.222C545.93 143.278 547.106 141.934 548.81 141.934C549.77 141.934 550.574 142.354 551.03 143.026V139.438H552.026V148.438H551.234L551.126 147.214C550.706 148.042 549.866 148.57 548.822 148.57ZM548.978 147.706C550.19 147.706 551.03 146.674 551.03 145.198C551.03 143.77 550.214 142.786 549.038 142.786C547.814 142.786 546.962 143.782 546.962 145.222C546.962 146.686 547.79 147.706 548.978 147.706ZM554.199 141.01C553.779 141.01 553.455 140.686 553.455 140.266C553.455 139.846 553.779 139.534 554.199 139.534C554.619 139.534 554.931 139.846 554.931 140.266C554.931 140.686 554.619 141.01 554.199 141.01ZM554.691 148.438H553.695V142.078H554.691V148.438ZM557.352 148.438H556.356V139.438H557.352V145.21L560.448 142.078H561.648L559.356 144.394L561.996 148.438H560.832L558.672 145.09L557.352 146.422V148.438ZM564.829 148.534C563.389 148.534 562.465 147.79 562.465 146.626C562.465 145.162 563.881 144.886 565.153 144.754C566.125 144.658 566.965 144.67 566.977 144.154C566.965 143.35 566.305 142.786 565.345 142.786C564.421 142.786 563.701 143.302 563.593 144.058H562.609C562.729 142.81 563.857 141.934 565.369 141.934C566.941 141.934 567.949 142.87 567.949 144.214V147.31C567.949 147.514 568.057 147.622 568.273 147.622H568.633V148.438H568.069C567.385 148.438 567.025 148.126 567.025 147.538V147.346C566.653 148.078 565.933 148.534 564.829 148.534ZM564.973 147.682C566.161 147.682 566.977 146.926 566.977 145.87V145.042C566.701 145.414 565.993 145.486 565.213 145.57C564.337 145.666 563.461 145.786 563.461 146.602C563.461 147.262 564.061 147.682 564.973 147.682ZM572.898 148.438H572.19C570.954 148.438 570.294 147.802 570.294 146.626V142.918H569.118V142.078H570.294V139.906H571.29V142.078H573.006V142.918H571.29V146.626C571.29 147.262 571.602 147.598 572.19 147.598H572.898V148.438ZM576.823 148.57C574.783 148.57 573.703 147.118 573.703 145.198C573.703 143.074 575.095 141.934 576.823 141.934C578.851 141.934 579.943 143.398 579.943 145.198C579.943 147.394 578.611 148.57 576.823 148.57ZM576.823 147.706C578.179 147.706 578.923 146.578 578.923 145.198C578.923 143.77 578.095 142.798 576.823 142.798C575.551 142.798 574.723 143.77 574.723 145.198C574.723 146.83 575.671 147.706 576.823 147.706ZM582.242 148.438H581.246V142.078H582.038L582.158 143.29C582.566 142.474 583.31 142.042 584.366 142.042H584.582V143.026H584.366C583.022 143.026 582.242 143.794 582.242 145.102V148.438Z" fill="#4420B0"/>
<path d="M550.028 29.4385H549.02V21.0385H554.744V21.9625H550.028V24.6865H554.384V25.6105H550.028V29.4385ZM561.866 22.9345L561.146 23.8585C561.686 24.4465 561.974 25.2745 561.974 26.1985C561.974 28.3945 560.642 29.5705 558.854 29.5705C558.134 29.5705 557.534 29.3905 557.054 29.0665L556.346 29.9665L555.842 29.6185L556.586 28.6705C556.022 28.0585 555.734 27.1945 555.734 26.1985C555.734 24.0745 557.126 22.9345 558.854 22.9345C559.586 22.9345 560.198 23.1265 560.678 23.4505L561.35 22.5865L561.866 22.9345ZM556.754 26.1985C556.754 26.8945 556.922 27.4585 557.21 27.8665L560.09 24.1945C559.754 23.9425 559.334 23.7985 558.854 23.7985C557.582 23.7985 556.754 24.7705 556.754 26.1985ZM558.854 28.7065C560.21 28.7065 560.954 27.5785 560.954 26.1985C560.954 25.5865 560.798 25.0465 560.522 24.6505L557.642 28.3105C557.99 28.5745 558.41 28.7065 558.854 28.7065ZM564.309 29.4385H563.313V20.4385H564.309V29.4385ZM568.744 31.9825C567.028 31.9825 565.864 31.1545 565.864 29.8105H566.86C566.86 30.5665 567.628 31.1425 568.744 31.1425C570.052 31.1425 570.736 30.3625 570.736 29.2705V28.2385C570.292 28.8985 569.524 29.3305 568.552 29.3305C566.86 29.3305 565.648 28.0345 565.648 26.1625C565.648 24.2545 566.872 22.9345 568.552 22.9345C569.572 22.9345 570.4 23.4145 570.832 24.1825L570.94 23.0785H571.72V29.2705C571.72 30.8785 570.64 31.9825 568.744 31.9825ZM568.696 28.4665C569.896 28.4665 570.736 27.5065 570.736 26.1265C570.736 24.7585 569.896 23.7985 568.696 23.7985C567.508 23.7985 566.68 24.7585 566.68 26.1505C566.68 27.5185 567.508 28.4665 568.696 28.4665ZM576.163 29.5705C574.279 29.5705 573.031 28.1905 573.031 26.2825C573.031 24.1105 574.435 22.9345 576.043 22.9345C577.795 22.9345 578.923 24.1105 578.959 26.1505V26.4265H574.027C574.087 27.7825 574.879 28.7065 576.163 28.7065C577.051 28.7065 577.699 28.2625 577.963 27.4345H578.935C578.647 28.7425 577.615 29.5705 576.163 29.5705ZM574.087 25.5985H577.915C577.735 24.4825 577.063 23.7985 576.043 23.7985C575.035 23.7985 574.291 24.4585 574.087 25.5985ZM582.645 29.5705C581.133 29.5705 580.017 28.7785 579.933 27.4345H580.905C580.977 28.2625 581.733 28.7185 582.693 28.7185C583.593 28.7185 584.025 28.3705 584.025 27.7345C584.025 27.1345 583.557 27.0025 582.897 26.7745L581.973 26.4625C581.037 26.1505 580.101 25.8625 580.101 24.7105C580.101 23.6305 580.941 22.9345 582.333 22.9345C583.737 22.9345 584.709 23.6905 584.865 25.1065H583.893C583.785 24.2185 583.161 23.7865 582.297 23.7865C581.517 23.7865 581.061 24.1345 581.061 24.6865C581.061 25.3465 581.757 25.4785 582.285 25.6585L583.149 25.9465C584.313 26.3305 585.009 26.7265 585.009 27.7825C585.009 28.8985 584.193 29.5705 582.645 29.5705ZM586.932 31.8385H585.912V30.9985H586.932C587.58 30.9985 587.856 30.7705 588 30.3865L588.348 29.4385H588.108L585.588 23.0785H586.656L588.72 28.4425L590.712 23.0785H591.732L588.876 30.7705C588.612 31.4665 588.024 31.8385 586.932 31.8385ZM593.781 29.4385H592.785V23.0785H593.577L593.673 24.0625C594.105 23.3785 594.933 22.9345 595.845 22.9345C596.805 22.9345 597.525 23.4265 597.849 24.1945C598.257 23.4505 599.133 22.9345 600.105 22.9345C601.449 22.9345 602.313 23.8825 602.313 25.1785V29.4385H601.317V25.2145C601.317 24.3625 600.789 23.8105 599.937 23.8105C598.749 23.8105 598.053 24.6025 598.041 25.5745V29.4385H597.057V25.2145C597.057 24.3625 596.529 23.8105 595.677 23.8105C594.489 23.8105 593.793 24.6025 593.781 25.5745V29.4385ZM607.135 29.5705C606.091 29.5705 605.239 29.0545 604.807 28.2265L604.699 29.4385H603.907V20.4385H604.903V24.0745C605.371 23.3785 606.175 22.9345 607.135 22.9345C608.815 22.9345 609.991 24.2785 609.991 26.2225C609.991 28.2025 608.815 29.5705 607.135 29.5705ZM606.979 28.7065C608.155 28.7065 608.959 27.6865 608.959 26.2225C608.959 24.7945 608.155 23.7985 606.967 23.7985C605.767 23.7985 604.903 24.7705 604.903 26.1745C604.903 27.6625 605.767 28.7065 606.979 28.7065ZM614.096 29.5705C612.056 29.5705 610.976 28.1185 610.976 26.1985C610.976 24.0745 612.368 22.9345 614.096 22.9345C616.124 22.9345 617.216 24.3985 617.216 26.1985C617.216 28.3945 615.884 29.5705 614.096 29.5705ZM614.096 28.7065C615.452 28.7065 616.196 27.5785 616.196 26.1985C616.196 24.7705 615.368 23.7985 614.096 23.7985C612.824 23.7985 611.996 24.7705 611.996 26.1985C611.996 27.8305 612.944 28.7065 614.096 28.7065ZM619.551 29.4385H618.555V20.4385H619.551V29.4385Z" fill="#4420B0"/>
<path d="M584.5 56.7718C583.027 56.7718 581.833 57.9657 581.833 59.4385C581.833 60.9112 583.027 62.1051 584.5 62.1051C585.973 62.1051 587.167 60.9112 587.167 59.4385C587.167 57.9657 585.973 56.7718 584.5 56.7718ZM584 36.4385L584 37.876L585 37.876L585 36.4385L584 36.4385ZM584 40.751L584 43.626L585 43.626L585 40.751L584 40.751ZM584 46.501L584 49.376L585 49.376L585 46.501L584 46.501ZM584 52.251L584 55.126L585 55.126L585 52.251L584 52.251ZM584 58.001L584 59.4385L585 59.4385L585 58.001L584 58.001Z" fill="#4420B0"/>
<defs>
<clipPath id="clip0_618_7270">
<rect width="20" height="20" fill="white" transform="translate(140.5 74.5)"/>
</clipPath>
</defs>
</svg>
