<svg width="735" height="346" viewBox="0 0 735 346" fill="none" xmlns="http://www.w3.org/2000/svg">
<rect width="735" height="346" rx="16" fill="white"/>
<rect x="32" y="32" width="20" height="20" rx="10" fill="#CE3871"/>
<g clip-path="url(#clip0_621_2577)">
<path d="M49.5 50C49.3667 50 49.2407 49.948 49.1467 49.8533L42 42.7076L34.8533 49.8533C34.7587 49.948 34.6333 50 34.5 50C34.3667 50 34.2407 49.948 34.1467 49.8533C33.952 49.6587 33.952 49.3414 34.1467 49.146L41.2933 41.9997L34.1467 34.854C34.052 34.76 34 34.634 34 34.5006C34 34.3673 34.052 34.2413 34.1467 34.1473C34.2407 34.0527 34.3667 34.0007 34.5 34.0007C34.6333 34.0007 34.7593 34.0527 34.8533 34.1473L42 41.293L49.1467 34.1467C49.2413 34.052 49.3667 34 49.5 34C49.6333 34 49.7593 34.052 49.8533 34.1467C49.948 34.2413 50 34.3673 50 34.5006C50 34.634 49.948 34.76 49.8533 34.854L42.7067 42.0003L49.8533 49.1467C50.048 49.3414 50.048 49.6587 49.8533 49.854C49.7593 49.948 49.6333 50 49.5 50Z" fill="#FDF9F9"/>
</g>
<path d="M65.054 48H63.878V39.278H60.49V38.2H68.442V39.278H65.054V48ZM71.7612 48.154C69.5632 48.154 68.1072 46.544 68.1072 44.318C68.1072 41.784 69.7452 40.412 71.6212 40.412C73.6652 40.412 74.9812 41.784 75.0232 44.164V44.486H69.2692C69.3392 46.068 70.2632 47.146 71.7612 47.146C72.7972 47.146 73.5532 46.628 73.8612 45.662H74.9952C74.6592 47.188 73.4552 48.154 71.7612 48.154ZM69.3392 43.52H73.8052C73.5952 42.218 72.8112 41.42 71.6212 41.42C70.4452 41.42 69.5772 42.19 69.3392 43.52ZM77.7556 48H76.5936V37.5H77.7556V44.234L81.3676 40.58H82.7676L80.0936 43.282L83.1736 48H81.8156L79.2956 44.094L77.7556 45.648V48ZM86.8978 48.154C85.1338 48.154 83.8318 47.23 83.7338 45.662H84.8678C84.9518 46.628 85.8338 47.16 86.9538 47.16C88.0038 47.16 88.5078 46.754 88.5078 46.012C88.5078 45.312 87.9618 45.158 87.1918 44.892L86.1138 44.528C85.0218 44.164 83.9298 43.828 83.9298 42.484C83.9298 41.224 84.9098 40.412 86.5338 40.412C88.1718 40.412 89.3058 41.294 89.4878 42.946H88.3538C88.2278 41.91 87.4998 41.406 86.4918 41.406C85.5818 41.406 85.0498 41.812 85.0498 42.456C85.0498 43.226 85.8618 43.38 86.4778 43.59L87.4858 43.926C88.8438 44.374 89.6558 44.836 89.6558 46.068C89.6558 47.37 88.7038 48.154 86.8978 48.154ZM94.7574 48H93.9314C92.4894 48 91.7194 47.258 91.7194 45.886V41.56H90.3474V40.58H91.7194V38.046H92.8814V40.58H95.5694V39.544C95.5694 38.214 96.3114 37.5 97.6834 37.5H99.3354V38.48H97.6834C97.0674 38.48 96.7314 38.858 96.7314 39.544V40.58H99.1394V41.56H96.7314V48H95.5694V41.56H92.8814V45.886C92.8814 46.628 93.2454 47.02 93.9314 47.02H94.7574V48ZM103.494 48.154C101.296 48.154 99.8396 46.544 99.8396 44.318C99.8396 41.784 101.478 40.412 103.354 40.412C105.398 40.412 106.714 41.784 106.756 44.164V44.486H101.002C101.072 46.068 101.996 47.146 103.494 47.146C104.53 47.146 105.286 46.628 105.594 45.662H106.728C106.392 47.188 105.188 48.154 103.494 48.154ZM101.072 43.52H105.538C105.328 42.218 104.544 41.42 103.354 41.42C102.178 41.42 101.31 42.19 101.072 43.52ZM109.488 48H108.326V37.5H109.488V48ZM115.293 48H114.467C113.025 48 112.255 47.258 112.255 45.886V41.56H110.883V40.58H112.255V38.046H113.417V40.58H115.419V41.56H113.417V45.886C113.417 46.628 113.781 47.02 114.467 47.02H115.293V48ZM119.886 48.154C117.688 48.154 116.232 46.544 116.232 44.318C116.232 41.784 117.87 40.412 119.746 40.412C121.79 40.412 123.106 41.784 123.148 44.164V44.486H117.394C117.464 46.068 118.388 47.146 119.886 47.146C120.922 47.146 121.678 46.628 121.986 45.662H123.12C122.784 47.188 121.58 48.154 119.886 48.154ZM117.464 43.52H121.93C121.72 42.218 120.936 41.42 119.746 41.42C118.57 41.42 117.702 42.19 117.464 43.52ZM128.349 48H127.523C126.081 48 125.311 47.258 125.311 45.886V41.56H123.939V40.58H125.311V38.046H126.473V40.58H128.475V41.56H126.473V45.886C126.473 46.628 126.837 47.02 127.523 47.02H128.349V48ZM135.761 48.154C133.997 48.154 132.695 47.23 132.597 45.662H133.731C133.815 46.628 134.697 47.16 135.817 47.16C136.867 47.16 137.371 46.754 137.371 46.012C137.371 45.312 136.825 45.158 136.055 44.892L134.977 44.528C133.885 44.164 132.793 43.828 132.793 42.484C132.793 41.224 133.773 40.412 135.397 40.412C137.035 40.412 138.169 41.294 138.351 42.946H137.217C137.091 41.91 136.363 41.406 135.355 41.406C134.445 41.406 133.913 41.812 133.913 42.456C133.913 43.226 134.725 43.38 135.341 43.59L136.349 43.926C137.707 44.374 138.519 44.836 138.519 46.068C138.519 47.37 137.567 48.154 135.761 48.154ZM141.152 48H139.99V37.5H141.152V44.234L144.764 40.58H146.164L143.49 43.282L146.57 48H145.212L142.692 44.094L141.152 45.648V48ZM149.875 48.112C148.195 48.112 147.117 47.244 147.117 45.886C147.117 44.178 148.769 43.856 150.253 43.702C151.387 43.59 152.367 43.604 152.381 43.002C152.367 42.064 151.597 41.406 150.477 41.406C149.399 41.406 148.559 42.008 148.433 42.89H147.285C147.425 41.434 148.741 40.412 150.505 40.412C152.339 40.412 153.515 41.504 153.515 43.072V46.684C153.515 46.922 153.641 47.048 153.893 47.048H154.313V48H153.655C152.857 48 152.437 47.636 152.437 46.95V46.726C152.003 47.58 151.163 48.112 149.875 48.112ZM150.043 47.118C151.429 47.118 152.381 46.236 152.381 45.004V44.038C152.059 44.472 151.233 44.556 150.323 44.654C149.301 44.766 148.279 44.906 148.279 45.858C148.279 46.628 148.979 47.118 150.043 47.118ZM156.82 48H155.658V37.5H156.82V48ZM162.493 39.334C162.003 39.334 161.625 38.956 161.625 38.466C161.625 37.976 162.003 37.612 162.493 37.612C162.983 37.612 163.347 37.976 163.347 38.466C163.347 38.956 162.983 39.334 162.493 39.334ZM163.067 48H161.905V40.58H163.067V48ZM166.172 48H165.01V37.5H166.172V44.234L169.784 40.58H171.184L168.51 43.282L171.59 48H170.232L167.712 44.094L166.172 45.648V48ZM173.773 48H172.611V37.5H173.773V44.234L177.385 40.58H178.785L176.111 43.282L179.191 48H177.833L175.313 44.094L173.773 45.648V48ZM183.05 48.154C180.852 48.154 179.396 46.544 179.396 44.318C179.396 41.784 181.034 40.412 182.91 40.412C184.954 40.412 186.27 41.784 186.312 44.164V44.486H180.558C180.628 46.068 181.552 47.146 183.05 47.146C184.086 47.146 184.842 46.628 185.15 45.662H186.284C185.948 47.188 184.744 48.154 183.05 48.154ZM180.628 43.52H185.094C184.884 42.218 184.1 41.42 182.91 41.42C181.734 41.42 180.866 42.19 180.628 43.52ZM194.625 48H193.407L190.313 40.58H191.573L194.023 46.642L196.459 40.58H197.719L194.625 48ZM207.25 48.154C205.682 48.154 204.506 47.342 203.946 46.068C203.624 47.314 202.686 48.112 201.09 48.112C199.41 48.112 198.332 47.244 198.332 45.886C198.332 44.178 199.984 43.856 201.468 43.702C202.602 43.59 203.582 43.604 203.596 43.002C203.582 42.064 202.812 41.406 201.692 41.406C200.614 41.406 199.774 42.008 199.648 42.89H198.5C198.64 41.434 199.956 40.412 201.72 40.412C202.966 40.412 203.904 40.916 204.38 41.728C205.038 40.86 206.032 40.412 207.11 40.412C209.154 40.412 210.47 41.784 210.512 44.164V44.486H204.758C204.828 46.068 205.752 47.146 207.25 47.146C208.286 47.146 209.042 46.628 209.35 45.662H210.484C210.148 47.188 208.944 48.154 207.25 48.154ZM204.828 43.52H209.294C209.084 42.218 208.3 41.42 207.11 41.42C205.934 41.42 205.066 42.19 204.828 43.52ZM201.258 47.118C202.644 47.118 203.596 46.236 203.596 45.004V44.038C203.274 44.472 202.448 44.556 201.538 44.654C200.516 44.766 199.494 44.906 199.494 45.858C199.494 46.628 200.194 47.118 201.258 47.118ZM213.202 48H212.04V40.58H212.964L213.104 41.994C213.58 41.042 214.448 40.538 215.68 40.538H215.932V41.686H215.68C214.112 41.686 213.202 42.582 213.202 44.108V48ZM220.197 48.154C217.999 48.154 216.543 46.544 216.543 44.318C216.543 41.784 218.181 40.412 220.057 40.412C222.101 40.412 223.417 41.784 223.459 44.164V44.486H217.705C217.775 46.068 218.699 47.146 220.197 47.146C221.233 47.146 221.989 46.628 222.297 45.662H223.431C223.095 47.188 221.891 48.154 220.197 48.154ZM217.775 43.52H222.241C222.031 42.218 221.247 41.42 220.057 41.42C218.881 41.42 218.013 42.19 217.775 43.52ZM229.336 48H228.174V37.5H229.336V48ZM234.216 39.782C233.418 39.782 232.816 39.208 232.816 38.452C232.816 37.696 233.418 37.122 234.216 37.122C235.014 37.122 235.616 37.696 235.616 38.452C235.616 39.208 235.014 39.782 234.216 39.782ZM234.216 39.082C234.58 39.082 234.846 38.816 234.846 38.452C234.846 38.088 234.58 37.822 234.216 37.822C233.852 37.822 233.586 38.088 233.586 38.452C233.586 38.816 233.852 39.082 234.216 39.082ZM233.67 48.112C231.99 48.112 230.912 47.244 230.912 45.886C230.912 44.178 232.564 43.856 234.048 43.702C235.182 43.59 236.162 43.604 236.176 43.002C236.162 42.064 235.392 41.406 234.272 41.406C233.194 41.406 232.354 42.008 232.228 42.89H231.08C231.22 41.434 232.536 40.412 234.3 40.412C236.134 40.412 237.31 41.504 237.31 43.072V46.684C237.31 46.922 237.436 47.048 237.688 47.048H238.108V48H237.45C236.652 48 236.232 47.636 236.232 46.95V46.726C235.798 47.58 234.958 48.112 233.67 48.112ZM233.838 47.118C235.224 47.118 236.176 46.236 236.176 45.004V44.038C235.854 44.472 235.028 44.556 234.118 44.654C233.096 44.766 232.074 44.906 232.074 45.858C232.074 46.628 232.774 47.118 233.838 47.118ZM242.183 48.154C240.419 48.154 239.117 47.23 239.019 45.662H240.153C240.237 46.628 241.119 47.16 242.239 47.16C243.289 47.16 243.793 46.754 243.793 46.012C243.793 45.312 243.247 45.158 242.477 44.892L241.399 44.528C240.307 44.164 239.215 43.828 239.215 42.484C239.215 41.224 240.195 40.412 241.819 40.412C243.457 40.412 244.591 41.294 244.773 42.946H243.639C243.513 41.91 242.785 41.406 241.777 41.406C240.867 41.406 240.335 41.812 240.335 42.456C240.335 43.226 241.147 43.38 241.763 43.59L242.771 43.926C244.129 44.374 244.941 44.836 244.941 46.068C244.941 47.37 243.989 48.154 242.183 48.154ZM250.043 48H249.217C247.775 48 247.005 47.258 247.005 45.886V41.56H245.633V40.58H247.005V38.046H248.167V40.58H250.169V41.56H248.167V45.886C248.167 46.628 248.531 47.02 249.217 47.02H250.043V48ZM258.546 48H257.72C256.278 48 255.508 47.258 255.508 45.886V41.56H254.136V40.58H255.508V38.046H256.67V40.58H258.672V41.56H256.67V45.886C256.67 46.628 257.034 47.02 257.72 47.02H258.546V48ZM260.63 39.334C260.14 39.334 259.762 38.956 259.762 38.466C259.762 37.976 260.14 37.612 260.63 37.612C261.12 37.612 261.484 37.976 261.484 38.466C261.484 38.956 261.12 39.334 260.63 39.334ZM261.204 48H260.042V40.58H261.204V48ZM264.308 48H263.146V37.5H264.308V48ZM276.155 36.562L272.221 39.74L271.563 39.012L275.497 35.834L276.155 36.562ZM272.669 48.154C270.471 48.154 269.015 46.544 269.015 44.318C269.015 41.784 270.653 40.412 272.529 40.412C274.573 40.412 275.889 41.784 275.931 44.164V44.486H270.177C270.247 46.068 271.171 47.146 272.669 47.146C273.705 47.146 274.461 46.628 274.769 45.662H275.903C275.567 47.188 274.363 48.154 272.669 48.154ZM270.247 43.52H274.713C274.503 42.218 273.719 41.42 272.529 41.42C271.353 41.42 270.485 42.19 270.247 43.52ZM278.622 48H277.46V40.58H278.384L278.496 41.714C279 40.93 279.966 40.412 281.072 40.412C282.668 40.412 283.732 41.448 283.732 43.086V48H282.57V43.128C282.57 42.092 281.898 41.434 280.778 41.434C279.448 41.434 278.636 42.358 278.622 43.492V48ZM289.902 48H288.74V37.5H289.902V48ZM292.431 39.334C291.941 39.334 291.563 38.956 291.563 38.466C291.563 37.976 291.941 37.612 292.431 37.612C292.921 37.612 293.285 37.976 293.285 38.466C293.285 38.956 292.921 39.334 292.431 39.334ZM293.005 48H291.843V40.58H293.005V48ZM296.067 48H294.905V40.58H295.829L295.941 41.714C296.445 40.93 297.411 40.412 298.517 40.412C300.113 40.412 301.177 41.448 301.177 43.086V48H300.015V43.128C300.015 42.092 299.343 41.434 298.223 41.434C296.893 41.434 296.081 42.358 296.067 43.492V48ZM303.587 39.334C303.083 39.334 302.719 38.97 302.719 38.466C302.719 37.976 303.083 37.612 303.587 37.612C304.077 37.612 304.441 37.976 304.441 38.466C304.441 38.97 304.077 39.334 303.587 39.334ZM301.949 50.8H300.913V49.82H301.949C302.635 49.82 302.999 49.428 302.999 48.686V40.58H304.161V48.686C304.161 50.058 303.391 50.8 301.949 50.8ZM309.337 48.154C307.139 48.154 305.683 46.544 305.683 44.318C305.683 41.784 307.321 40.412 309.197 40.412C311.241 40.412 312.557 41.784 312.599 44.164V44.486H306.845C306.915 46.068 307.839 47.146 309.337 47.146C310.373 47.146 311.129 46.628 311.437 45.662H312.571C312.235 47.188 311.031 48.154 309.337 48.154ZM306.915 43.52H311.381C311.171 42.218 310.387 41.42 309.197 41.42C308.021 41.42 307.153 42.19 306.915 43.52ZM320.268 48.154C318.28 48.154 316.894 46.558 316.894 44.248C316.894 41.98 318.266 40.412 320.254 40.412C321.374 40.412 322.312 40.902 322.844 41.686V37.5H324.006V48H323.082L322.956 46.572C322.466 47.538 321.486 48.154 320.268 48.154ZM320.45 47.146C321.864 47.146 322.844 45.942 322.844 44.22C322.844 42.554 321.892 41.406 320.52 41.406C319.092 41.406 318.098 42.568 318.098 44.248C318.098 45.956 319.064 47.146 320.45 47.146ZM329.23 48.154C327.032 48.154 325.576 46.544 325.576 44.318C325.576 41.784 327.214 40.412 329.09 40.412C331.134 40.412 332.45 41.784 332.492 44.164V44.486H326.738C326.808 46.068 327.732 47.146 329.23 47.146C330.266 47.146 331.022 46.628 331.33 45.662H332.464C332.128 47.188 330.924 48.154 329.23 48.154ZM326.808 43.52H331.274C331.064 42.218 330.28 41.42 329.09 41.42C327.914 41.42 327.046 42.19 326.808 43.52ZM335.182 48H334.02V40.58H334.944L335.084 41.994C335.56 41.042 336.428 40.538 337.66 40.538H337.912V41.686H337.66C336.092 41.686 335.182 42.582 335.182 44.108V48ZM61.54 64.334C61.05 64.334 60.672 63.956 60.672 63.466C60.672 62.976 61.05 62.612 61.54 62.612C62.03 62.612 62.394 62.976 62.394 63.466C62.394 63.956 62.03 64.334 61.54 64.334ZM62.114 73H60.952V65.58H62.114V73ZM65.1765 73H64.0145V65.58H64.9385L65.0505 66.714C65.5545 65.93 66.5205 65.412 67.6265 65.412C69.2225 65.412 70.2865 66.448 70.2865 68.086V73H69.1245V68.128C69.1245 67.092 68.4525 66.434 67.3325 66.434C66.0025 66.434 65.1905 67.358 65.1765 68.492V73ZM73.2703 73H72.1083V65.58H73.0323L73.1443 66.714C73.6483 65.93 74.6143 65.412 75.7203 65.412C77.3163 65.412 78.3803 66.448 78.3803 68.086V73H77.2183V68.128C77.2183 67.092 76.5463 66.434 75.4263 66.434C74.0963 66.434 73.2843 67.358 73.2703 68.492V73ZM81.406 73H80.244V62.5H81.406V66.532C81.938 65.86 82.848 65.412 83.856 65.412C85.452 65.412 86.516 66.448 86.516 68.086V73H85.354V68.128C85.354 67.092 84.682 66.434 83.632 66.434C82.232 66.434 81.42 67.358 81.406 68.492V73ZM91.5988 73.154C89.2188 73.154 87.9588 71.46 87.9588 69.22C87.9588 66.742 89.5828 65.412 91.5988 65.412C93.9648 65.412 95.2388 67.12 95.2388 69.22C95.2388 71.782 93.6848 73.154 91.5988 73.154ZM91.5988 72.146C93.1808 72.146 94.0488 70.83 94.0488 69.22C94.0488 67.554 93.0828 66.42 91.5988 66.42C90.1148 66.42 89.1488 67.554 89.1488 69.22C89.1488 71.124 90.2548 72.146 91.5988 72.146ZM97.9626 73H96.8006V62.5H97.9626V73ZM102.899 73.154C100.911 73.154 99.5252 71.558 99.5252 69.248C99.5252 66.98 100.897 65.412 102.885 65.412C104.005 65.412 104.943 65.902 105.475 66.686V62.5H106.637V73H105.713L105.587 71.572C105.097 72.538 104.117 73.154 102.899 73.154ZM103.081 72.146C104.495 72.146 105.475 70.942 105.475 69.22C105.475 67.554 104.523 66.406 103.151 66.406C101.723 66.406 100.729 67.568 100.729 69.248C100.729 70.956 101.695 72.146 103.081 72.146ZM111.861 73.154C109.663 73.154 108.207 71.544 108.207 69.318C108.207 66.784 109.845 65.412 111.721 65.412C113.765 65.412 115.081 66.784 115.123 69.164V69.486H109.369C109.439 71.068 110.363 72.146 111.861 72.146C112.897 72.146 113.653 71.628 113.961 70.662H115.095C114.759 72.188 113.555 73.154 111.861 73.154ZM109.439 68.52H113.905C113.695 67.218 112.911 66.42 111.721 66.42C110.545 66.42 109.677 67.19 109.439 68.52ZM120.324 73H119.498C118.056 73 117.286 72.258 117.286 70.886V66.56H115.914V65.58H117.286V63.046H118.448V65.58H120.45V66.56H118.448V70.886C118.448 71.628 118.812 72.02 119.498 72.02H120.324V73ZM126.952 73H125.79V66.56H124.418V65.58H125.79V64.544C125.79 63.214 126.532 62.5 127.904 62.5H129.556V63.48H127.904C127.288 63.48 126.952 63.858 126.952 64.544V65.58H129.36V66.56H126.952V73ZM133.653 73.154C131.273 73.154 130.013 71.46 130.013 69.22C130.013 66.742 131.637 65.412 133.653 65.412C136.019 65.412 137.293 67.12 137.293 69.22C137.293 71.782 135.739 73.154 133.653 73.154ZM133.653 72.146C135.235 72.146 136.103 70.83 136.103 69.22C136.103 67.554 135.137 66.42 133.653 66.42C132.169 66.42 131.203 67.554 131.203 69.22C131.203 71.124 132.309 72.146 133.653 72.146ZM139.975 73H138.813V65.58H139.737L139.877 66.994C140.353 66.042 141.221 65.538 142.453 65.538H142.705V66.686H142.453C140.885 66.686 139.975 67.582 139.975 69.108V73ZM146.644 73.154C144.88 73.154 143.578 72.23 143.48 70.662H144.614C144.698 71.628 145.58 72.16 146.7 72.16C147.75 72.16 148.254 71.754 148.254 71.012C148.254 70.312 147.708 70.158 146.938 69.892L145.86 69.528C144.768 69.164 143.676 68.828 143.676 67.484C143.676 66.224 144.656 65.412 146.28 65.412C147.918 65.412 149.052 66.294 149.234 67.946H148.1C147.974 66.91 147.246 66.406 146.238 66.406C145.328 66.406 144.796 66.812 144.796 67.456C144.796 68.226 145.608 68.38 146.224 68.59L147.232 68.926C148.59 69.374 149.402 69.836 149.402 71.068C149.402 72.37 148.45 73.154 146.644 73.154ZM154.389 73H153.171L150.077 65.58H151.337L153.787 71.642L156.223 65.58H157.483L154.389 73ZM159.308 64.334C158.818 64.334 158.44 63.956 158.44 63.466C158.44 62.976 158.818 62.612 159.308 62.612C159.798 62.612 160.162 62.976 160.162 63.466C160.162 63.956 159.798 64.334 159.308 64.334ZM159.882 73H158.72V65.58H159.882V73ZM162.944 73H161.782V65.58H162.706L162.818 66.714C163.322 65.93 164.288 65.412 165.394 65.412C166.99 65.412 168.054 66.448 168.054 68.086V73H166.892V68.128C166.892 67.092 166.22 66.434 165.1 66.434C163.77 66.434 162.958 67.358 162.944 68.492V73ZM171.038 73H169.876V65.58H170.8L170.912 66.714C171.416 65.93 172.382 65.412 173.488 65.412C175.084 65.412 176.148 66.448 176.148 68.086V73H174.986V68.128C174.986 67.092 174.314 66.434 173.194 66.434C171.864 66.434 171.052 67.358 171.038 68.492V73ZM181.246 73.154C179.048 73.154 177.592 71.544 177.592 69.318C177.592 66.784 179.23 65.412 181.106 65.412C183.15 65.412 184.466 66.784 184.508 69.164V69.486H178.754C178.824 71.068 179.748 72.146 181.246 72.146C182.282 72.146 183.038 71.628 183.346 70.662H184.48C184.144 72.188 182.94 73.154 181.246 73.154ZM178.824 68.52H183.29C183.08 67.218 182.296 66.42 181.106 66.42C179.93 66.42 179.062 67.19 178.824 68.52ZM187.198 73H186.036V65.58H186.96L187.1 66.994C187.576 66.042 188.444 65.538 189.676 65.538H189.928V66.686H189.676C188.108 66.686 187.198 67.582 187.198 69.108V73ZM198.043 73H196.825L193.731 65.58H194.991L197.441 71.642L199.877 65.58H201.137L198.043 73ZM205.376 73.154C203.178 73.154 201.722 71.544 201.722 69.318C201.722 66.784 203.36 65.412 205.236 65.412C207.28 65.412 208.596 66.784 208.638 69.164V69.486H202.884C202.954 71.068 203.878 72.146 205.376 72.146C206.412 72.146 207.168 71.628 207.476 70.662H208.61C208.274 72.188 207.07 73.154 205.376 73.154ZM202.954 68.52H207.42C207.21 67.218 206.426 66.42 205.236 66.42C204.06 66.42 203.192 67.19 202.954 68.52ZM213.163 73.154C211.175 73.154 209.789 71.558 209.789 69.248C209.789 66.98 211.161 65.412 213.149 65.412C214.269 65.412 215.207 65.902 215.739 66.686V62.5H216.901V73H215.977L215.851 71.572C215.361 72.538 214.381 73.154 213.163 73.154ZM213.345 72.146C214.759 72.146 215.739 70.942 215.739 69.22C215.739 67.554 214.787 66.406 213.415 66.406C211.987 66.406 210.993 67.568 210.993 69.248C210.993 70.956 211.959 72.146 213.345 72.146ZM223.197 73H222.035V62.5H223.197V73ZM228.414 73.154C226.216 73.154 224.76 71.544 224.76 69.318C224.76 66.784 226.398 65.412 228.274 65.412C230.318 65.412 231.634 66.784 231.676 69.164V69.486H225.922C225.992 71.068 226.916 72.146 228.414 72.146C229.45 72.146 230.206 71.628 230.514 70.662H231.648C231.312 72.188 230.108 73.154 228.414 73.154ZM225.992 68.52H230.458C230.248 67.218 229.464 66.42 228.274 66.42C227.098 66.42 226.23 67.19 225.992 68.52ZM234.366 73H233.204V65.58H234.128L234.24 66.714C234.744 65.93 235.71 65.412 236.816 65.412C238.412 65.412 239.476 66.448 239.476 68.086V73H238.314V68.128C238.314 67.092 237.642 66.434 236.522 66.434C235.192 66.434 234.38 67.358 234.366 68.492V73ZM244.532 75.968C242.53 75.968 241.172 75.002 241.172 73.434H242.334C242.334 74.316 243.23 74.988 244.532 74.988C246.058 74.988 246.856 74.078 246.856 72.804V71.6C246.338 72.37 245.442 72.874 244.308 72.874C242.334 72.874 240.92 71.362 240.92 69.178C240.92 66.952 242.348 65.412 244.308 65.412C245.498 65.412 246.464 65.972 246.968 66.868L247.094 65.58H248.004V72.804C248.004 74.68 246.744 75.968 244.532 75.968ZM244.476 71.866C245.876 71.866 246.856 70.746 246.856 69.136C246.856 67.54 245.876 66.42 244.476 66.42C243.09 66.42 242.124 67.54 242.124 69.164C242.124 70.76 243.09 71.866 244.476 71.866ZM251.073 73H249.911V65.58H250.835L250.975 66.994C251.451 66.042 252.319 65.538 253.551 65.538H253.803V66.686H253.551C251.983 66.686 251.073 67.582 251.073 69.108V73ZM258.068 73.154C255.87 73.154 254.414 71.544 254.414 69.318C254.414 66.784 256.052 65.412 257.928 65.412C259.972 65.412 261.288 66.784 261.33 69.164V69.486H255.576C255.646 71.068 256.57 72.146 258.068 72.146C259.104 72.146 259.86 71.628 260.168 70.662H261.302C260.966 72.188 259.762 73.154 258.068 73.154ZM255.646 68.52H260.112C259.902 67.218 259.118 66.42 257.928 66.42C256.752 66.42 255.884 67.19 255.646 68.52ZM269.867 73H269.041C267.599 73 266.829 72.258 266.829 70.886V66.56H265.457V65.58H266.829V63.046H267.991V65.58H269.993V66.56H267.991V70.886C267.991 71.628 268.355 72.02 269.041 72.02H269.867V73ZM274.46 73.154C272.262 73.154 270.806 71.544 270.806 69.318C270.806 66.784 272.444 65.412 274.32 65.412C276.364 65.412 277.68 66.784 277.722 69.164V69.486H271.968C272.038 71.068 272.962 72.146 274.46 72.146C275.496 72.146 276.252 71.628 276.56 70.662H277.694C277.358 72.188 276.154 73.154 274.46 73.154ZM272.038 68.52H276.504C276.294 67.218 275.51 66.42 274.32 66.42C273.144 66.42 272.276 67.19 272.038 68.52ZM280.455 73H279.293V62.5H280.455V69.234L284.067 65.58H285.467L282.793 68.282L285.873 73H284.515L281.995 69.094L280.455 70.648V73ZM289.597 73.154C287.833 73.154 286.531 72.23 286.433 70.662H287.567C287.651 71.628 288.533 72.16 289.653 72.16C290.703 72.16 291.207 71.754 291.207 71.012C291.207 70.312 290.661 70.158 289.891 69.892L288.813 69.528C287.721 69.164 286.629 68.828 286.629 67.484C286.629 66.224 287.609 65.412 289.233 65.412C290.871 65.412 292.005 66.294 292.187 67.946H291.053C290.927 66.91 290.199 66.406 289.191 66.406C288.281 66.406 287.749 66.812 287.749 67.456C287.749 68.226 288.561 68.38 289.177 68.59L290.185 68.926C291.543 69.374 292.355 69.836 292.355 71.068C292.355 72.37 291.403 73.154 289.597 73.154ZM297.457 73H296.631C295.189 73 294.419 72.258 294.419 70.886V66.56H293.047V65.58H294.419V63.046H295.581V65.58H297.583V66.56H295.581V70.886C295.581 71.628 295.945 72.02 296.631 72.02H297.457V73ZM299.582 73.14C299.078 73.14 298.7 72.762 298.7 72.258C298.7 71.768 299.078 71.39 299.582 71.39C300.086 71.39 300.464 71.768 300.464 72.258C300.464 72.762 300.086 73.14 299.582 73.14Z" fill="#481125"/>
<rect x="32.5" y="123.5" width="302.5" height="165" rx="15.5" fill="white"/>
<rect x="32.5" y="123.5" width="302.5" height="165" rx="15.5" stroke="#691837"/>
<rect x="48" y="139" width="271.5" height="49" rx="16" fill="white"/>
<mask id="path-8-inside-1_621_2577" fill="white">
<path d="M52 151C52 146.582 55.5817 143 60 143H307.5C311.918 143 315.5 146.582 315.5 151V184H52V151Z"/>
</mask>
<path d="M52 143H315.5H52ZM315.5 185H52V183H315.5V185ZM52 184V143V184ZM315.5 143V184V143Z" fill="#481125" mask="url(#path-8-inside-1_621_2577)"/>
<g clip-path="url(#clip1_621_2577)">
<path d="M70 163.5C67.2433 163.5 65 161.257 65 158.5C65 157.624 65.2317 156.761 65.6708 156.003L65.6783 155.988C66.1198 155.233 66.7507 154.607 67.5086 154.17C68.2666 153.734 69.1254 153.503 70 153.5C72.7567 153.5 75 155.743 75 158.5C75 161.257 72.7567 163.5 70 163.5ZM66.4425 157.322C66.315 157.702 66.25 158.1 66.25 158.5C66.25 160.567 67.9325 162.25 70 162.25C70.9443 162.249 71.8535 161.892 72.5464 161.25C73.2393 160.609 73.6652 159.73 73.7392 158.788C73.0022 159.011 72.2366 159.124 71.4667 159.125H71.45C69.6239 159.114 67.8566 158.478 66.4425 157.322ZM67.0458 156.193C68.2635 157.27 69.8311 157.868 71.4567 157.875C72.1958 157.875 72.9208 157.753 73.6167 157.513C73.399 156.721 72.9274 156.021 72.2742 155.522C71.621 155.023 70.8221 154.752 70 154.75C68.8417 154.75 67.7558 155.285 67.0458 156.193Z" fill="#481125"/>
<path d="M78.125 173.5C77.9592 173.5 77.8003 173.434 77.6831 173.317C77.5658 173.2 77.5 173.041 77.5 172.875C77.5 168.739 74.1358 165.375 70 165.375C65.8642 165.375 62.5 168.739 62.5 172.875C62.5 173.041 62.4342 173.2 62.3169 173.317C62.1997 173.434 62.0408 173.5 61.875 173.5C61.7092 173.5 61.5503 173.434 61.4331 173.317C61.3158 173.2 61.25 173.041 61.25 172.875C61.25 168.05 65.175 164.125 70 164.125C74.825 164.125 78.75 168.05 78.75 172.875C78.75 173.041 78.6842 173.2 78.5669 173.317C78.4497 173.434 78.2908 173.5 78.125 173.5Z" fill="#481125"/>
</g>
<path d="M90.704 168H89.36V156.8H96.992V158.032H90.704V161.664H96.512V162.896H90.704V168ZM101.832 168.176C99.7682 168.176 98.5843 166.912 98.5843 165.184V159.52H99.9123V165.136C99.9123 166.352 100.76 167.008 101.96 167.008C103.544 167.008 104.408 165.952 104.424 164.672V159.52H105.752V168H104.696L104.584 166.72C104.024 167.68 103 168.176 101.832 168.176ZM109.308 168H107.98V156H109.308V168ZM112.902 168H111.574V156H112.902V168ZM119.535 168H118.591C116.943 168 116.063 167.152 116.063 165.584V160.64H114.495V159.52H116.063V156.624H117.391V159.52H119.679V160.64H117.391V165.584C117.391 166.432 117.807 166.88 118.591 166.88H119.535V168ZM126.166 168H124.838V159.52H125.894L126.022 160.816C126.598 159.92 127.702 159.328 128.966 159.328C130.79 159.328 132.006 160.512 132.006 162.384V168H130.678V162.432C130.678 161.248 129.91 160.496 128.63 160.496C127.11 160.496 126.182 161.552 126.166 162.848V168ZM136.824 168.128C134.904 168.128 133.672 167.136 133.672 165.584C133.672 163.632 135.56 163.264 137.256 163.088C138.552 162.96 139.672 162.976 139.688 162.288C139.672 161.216 138.792 160.464 137.512 160.464C136.28 160.464 135.32 161.152 135.176 162.16H133.864C134.024 160.496 135.528 159.328 137.544 159.328C139.64 159.328 140.984 160.576 140.984 162.368V166.496C140.984 166.768 141.128 166.912 141.416 166.912H141.896V168H141.144C140.232 168 139.752 167.584 139.752 166.8V166.544C139.256 167.52 138.296 168.128 136.824 168.128ZM137.016 166.992C138.6 166.992 139.688 165.984 139.688 164.576V163.472C139.32 163.968 138.376 164.064 137.336 164.176C136.168 164.304 135 164.464 135 165.552C135 166.432 135.8 166.992 137.016 166.992ZM147.139 168H145.747L142.211 159.52H143.651L146.451 166.448L149.235 159.52H150.675L147.139 168ZM153.416 168H152.088V159.52H153.144L153.272 160.816C153.848 159.92 154.952 159.328 156.216 159.328C158.04 159.328 159.256 160.512 159.256 162.384V168H157.928V162.432C157.928 161.248 157.16 160.496 155.88 160.496C154.36 160.496 153.432 161.552 153.416 162.848V168Z" fill="#A35E70"/>
<rect x="48" y="204" width="271.5" height="69" rx="16" fill="white"/>
<mask id="path-14-inside-2_621_2577" fill="white">
<path d="M52 216C52 211.582 55.5817 208 60 208H307.5C311.918 208 315.5 211.582 315.5 216V269H52V216Z"/>
</mask>
<path d="M52 216C52 211.582 55.5817 208 60 208H307.5C311.918 208 315.5 211.582 315.5 216V269H52V216Z" fill="#F9EAED"/>
<path d="M52 208H315.5H52ZM315.5 271H52V267H315.5V271ZM52 269V208V269ZM315.5 208V269V208Z" fill="#481125" mask="url(#path-14-inside-2_621_2577)"/>
<g clip-path="url(#clip2_621_2577)">
<path d="M70 238.5C67.2433 238.5 65 236.257 65 233.5C65 232.624 65.2317 231.761 65.6708 231.003L65.6783 230.988C66.1198 230.233 66.7507 229.607 67.5086 229.17C68.2666 228.734 69.1254 228.503 70 228.5C72.7567 228.5 75 230.743 75 233.5C75 236.257 72.7567 238.5 70 238.5ZM66.4425 232.322C66.315 232.702 66.25 233.1 66.25 233.5C66.25 235.567 67.9325 237.25 70 237.25C70.9443 237.249 71.8535 236.892 72.5464 236.25C73.2393 235.609 73.6652 234.73 73.7392 233.788C73.0022 234.011 72.2366 234.124 71.4667 234.125H71.45C69.6239 234.114 67.8566 233.478 66.4425 232.322ZM67.0458 231.193C68.2635 232.27 69.8311 232.868 71.4567 232.875C72.1958 232.875 72.9208 232.753 73.6167 232.513C73.399 231.721 72.9274 231.021 72.2742 230.522C71.621 230.023 70.8221 229.752 70 229.75C68.8417 229.75 67.7558 230.285 67.0458 231.193Z" fill="#481125"/>
<path d="M78.125 248.5C77.9592 248.5 77.8003 248.434 77.6831 248.317C77.5658 248.2 77.5 248.041 77.5 247.875C77.5 243.739 74.1358 240.375 70 240.375C65.8642 240.375 62.5 243.739 62.5 247.875C62.5 248.041 62.4342 248.2 62.3169 248.317C62.1997 248.434 62.0408 248.5 61.875 248.5C61.7092 248.5 61.5503 248.434 61.4331 248.317C61.3158 248.2 61.25 248.041 61.25 247.875C61.25 243.05 65.175 239.125 70 239.125C74.825 239.125 78.75 243.05 78.75 247.875C78.75 248.041 78.6842 248.2 78.5669 248.317C78.4497 248.434 78.2908 248.5 78.125 248.5Z" fill="#481125"/>
</g>
<path d="M90.028 229H89.02V220.6H94.744V221.524H90.028V224.248H94.384V225.172H90.028V229ZM98.8542 229.132C96.8142 229.132 95.7342 227.68 95.7342 225.76C95.7342 223.636 97.1262 222.496 98.8542 222.496C100.882 222.496 101.974 223.96 101.974 225.76C101.974 227.956 100.642 229.132 98.8542 229.132ZM98.8542 228.268C100.21 228.268 100.954 227.14 100.954 225.76C100.954 224.332 100.126 223.36 98.8542 223.36C97.5822 223.36 96.7542 224.332 96.7542 225.76C96.7542 227.392 97.7022 228.268 98.8542 228.268ZM104.273 229H103.277V222.64H104.069L104.189 223.852C104.597 223.036 105.341 222.604 106.397 222.604H106.613V223.588H106.397C105.053 223.588 104.273 224.356 104.273 225.664V229ZM108.75 229H107.754V222.64H108.546L108.642 223.612C109.074 222.94 109.902 222.496 110.85 222.496C112.218 222.496 113.13 223.384 113.13 224.788V229H112.134V224.824C112.134 223.936 111.558 223.372 110.598 223.372C109.458 223.372 108.762 224.164 108.75 225.136V229ZM116.743 229.096C115.303 229.096 114.379 228.352 114.379 227.188C114.379 225.724 115.795 225.448 117.067 225.316C118.039 225.22 118.879 225.232 118.891 224.716C118.879 223.912 118.219 223.348 117.259 223.348C116.335 223.348 115.615 223.864 115.507 224.62H114.523C114.643 223.372 115.771 222.496 117.283 222.496C118.855 222.496 119.863 223.432 119.863 224.776V227.872C119.863 228.076 119.971 228.184 120.187 228.184H120.547V229H119.983C119.299 229 118.939 228.688 118.939 228.1V227.908C118.567 228.64 117.847 229.096 116.743 229.096ZM116.887 228.244C118.075 228.244 118.891 227.488 118.891 226.432V225.604C118.615 225.976 117.907 226.048 117.127 226.132C116.251 226.228 115.375 226.348 115.375 227.164C115.375 227.824 115.975 228.244 116.887 228.244ZM124.479 229H123.435L120.783 222.64H121.863L123.963 227.836L126.051 222.64H127.131L124.479 229ZM129.187 229H128.191V222.64H128.983L129.079 223.612C129.511 222.94 130.339 222.496 131.287 222.496C132.655 222.496 133.567 223.384 133.567 224.788V229H132.571V224.824C132.571 223.936 131.995 223.372 131.035 223.372C129.895 223.372 129.199 224.164 129.187 225.136V229Z" fill="#481125"/>
<path d="M90.416 253H89.088V244.52H90.144L90.272 245.816C90.848 244.92 91.952 244.328 93.216 244.328C95.04 244.328 96.256 245.512 96.256 247.384V253H94.928V247.432C94.928 246.248 94.16 245.496 92.88 245.496C91.36 245.496 90.432 246.552 90.416 247.848V253ZM104.818 248.584H97.97V247.464H104.818V248.584ZM108.235 253H106.891V241.8H108.571L112.523 251.4L116.459 241.8H118.155V253H116.811V244.136L113.163 253H111.867L108.235 244.168V253ZM123.34 253.128C121.42 253.128 120.188 252.136 120.188 250.584C120.188 248.632 122.076 248.264 123.772 248.088C125.068 247.96 126.188 247.976 126.204 247.288C126.188 246.216 125.308 245.464 124.028 245.464C122.796 245.464 121.836 246.152 121.692 247.16H120.38C120.54 245.496 122.044 244.328 124.06 244.328C126.156 244.328 127.5 245.576 127.5 247.368V251.496C127.5 251.768 127.644 251.912 127.932 251.912H128.412V253H127.66C126.748 253 126.268 252.584 126.268 251.8V251.544C125.772 252.52 124.812 253.128 123.34 253.128ZM123.532 251.992C125.116 251.992 126.204 250.984 126.204 249.576V248.472C125.836 248.968 124.892 249.064 123.852 249.176C122.684 249.304 121.516 249.464 121.516 250.552C121.516 251.432 122.316 251.992 123.532 251.992ZM133.597 256.392C131.309 256.392 129.757 255.288 129.757 253.496H131.085C131.085 254.504 132.109 255.272 133.597 255.272C135.341 255.272 136.253 254.232 136.253 252.776V251.4C135.661 252.28 134.637 252.856 133.341 252.856C131.085 252.856 129.469 251.128 129.469 248.632C129.469 246.088 131.101 244.328 133.341 244.328C134.701 244.328 135.805 244.968 136.381 245.992L136.525 244.52H137.565V252.776C137.565 254.92 136.125 256.392 133.597 256.392ZM133.533 251.704C135.133 251.704 136.253 250.424 136.253 248.584C136.253 246.76 135.133 245.48 133.533 245.48C131.949 245.48 130.845 246.76 130.845 248.616C130.845 250.44 131.949 251.704 133.533 251.704ZM141.072 253H139.744V244.52H140.8L140.928 245.816C141.504 244.92 142.608 244.328 143.872 244.328C145.696 244.328 146.912 245.512 146.912 247.384V253H145.584V247.432C145.584 246.248 144.816 245.496 143.536 245.496C142.016 245.496 141.088 246.552 141.072 247.848V253ZM152.082 253.176C150.018 253.176 148.834 251.912 148.834 250.184V244.52H150.162V250.136C150.162 251.352 151.01 252.008 152.21 252.008C153.794 252.008 154.658 250.952 154.674 249.672V244.52H156.002V253H154.946L154.834 251.72C154.274 252.68 153.25 253.176 152.082 253.176ZM161.35 253.176C159.334 253.176 157.846 252.12 157.734 250.328H159.03C159.126 251.432 160.134 252.04 161.414 252.04C162.614 252.04 163.19 251.576 163.19 250.728C163.19 249.928 162.566 249.752 161.686 249.448L160.454 249.032C159.206 248.616 157.958 248.232 157.958 246.696C157.958 245.256 159.078 244.328 160.934 244.328C162.806 244.328 164.102 245.336 164.31 247.224H163.014C162.87 246.04 162.038 245.464 160.886 245.464C159.846 245.464 159.238 245.928 159.238 246.664C159.238 247.544 160.166 247.72 160.87 247.96L162.022 248.344C163.574 248.856 164.502 249.384 164.502 250.792C164.502 252.28 163.414 253.176 161.35 253.176ZM171.345 253H170.001V241.8H175.105C177.217 241.8 178.673 243.064 178.673 244.888C178.673 246.216 177.777 247.336 176.417 247.768C177.009 247.928 177.425 248.312 177.633 248.872L179.185 253H177.745L176.305 249.112C176.129 248.632 175.745 248.376 175.217 248.376H171.345V253ZM171.345 243.032V247.176H175.169C176.561 247.176 177.313 246.216 177.313 245.016C177.313 243.704 176.385 243.032 175.169 243.032H171.345ZM183.895 253.176C181.831 253.176 180.647 251.912 180.647 250.184V244.52H181.975V250.136C181.975 251.352 182.823 252.008 184.023 252.008C185.607 252.008 186.471 250.952 186.487 249.672V244.52H187.815V253H186.759L186.647 251.72C186.087 252.68 185.063 253.176 183.895 253.176ZM193.082 253.176C191.018 253.176 189.834 251.912 189.834 250.184V244.52H191.162V250.136C191.162 251.352 192.01 252.008 193.21 252.008C194.794 252.008 195.658 250.952 195.674 249.672V244.52H197.002V253H195.946L195.834 251.72C195.274 252.68 194.25 253.176 193.082 253.176ZM202.606 253.176C200.334 253.176 198.75 251.352 198.75 248.712C198.75 246.12 200.318 244.328 202.59 244.328C203.87 244.328 204.942 244.888 205.55 245.784V241H206.878V253H205.822L205.678 251.368C205.118 252.472 203.998 253.176 202.606 253.176ZM202.814 252.024C204.43 252.024 205.55 250.648 205.55 248.68C205.55 246.776 204.462 245.464 202.894 245.464C201.262 245.464 200.126 246.792 200.126 248.712C200.126 250.664 201.23 252.024 202.814 252.024ZM214.313 253H212.969V241.8H214.313V247.928L220.089 241.8H221.833L217.369 246.472L222.137 253H220.473L216.441 247.448L214.313 249.672V253ZM224.885 253H223.557V244.52H224.613L224.773 246.136C225.317 245.048 226.309 244.472 227.717 244.472H228.005V245.784H227.717C225.925 245.784 224.885 246.808 224.885 248.552V253ZM230.198 243.096C229.638 243.096 229.206 242.664 229.206 242.104C229.206 241.544 229.638 241.128 230.198 241.128C230.758 241.128 231.174 241.544 231.174 242.104C231.174 242.664 230.758 243.096 230.198 243.096ZM230.854 253H229.526V244.52H230.854V253ZM236.194 253.176C234.178 253.176 232.69 252.12 232.578 250.328H233.874C233.97 251.432 234.978 252.04 236.258 252.04C237.458 252.04 238.034 251.576 238.034 250.728C238.034 249.928 237.41 249.752 236.53 249.448L235.298 249.032C234.049 248.616 232.802 248.232 232.802 246.696C232.802 245.256 233.922 244.328 235.778 244.328C237.65 244.328 238.946 245.336 239.154 247.224H237.858C237.714 246.04 236.882 245.464 235.73 245.464C234.69 245.464 234.082 245.928 234.082 246.664C234.082 247.544 235.01 247.72 235.714 247.96L236.866 248.344C238.418 248.856 239.346 249.384 239.346 250.792C239.346 252.28 238.258 253.176 236.194 253.176ZM245.176 253H244.232C242.584 253 241.704 252.152 241.704 250.584V245.64H240.136V244.52H241.704V241.624H243.032V244.52H245.32V245.64H243.032V250.584C243.032 251.432 243.448 251.88 244.232 251.88H245.176V253ZM250.41 253.176C247.69 253.176 246.25 251.24 246.25 248.68C246.25 245.848 248.106 244.328 250.41 244.328C253.114 244.328 254.57 246.28 254.57 248.68C254.57 251.608 252.794 253.176 250.41 253.176ZM250.41 252.024C252.218 252.024 253.21 250.52 253.21 248.68C253.21 246.776 252.106 245.48 250.41 245.48C248.714 245.48 247.61 246.776 247.61 248.68C247.61 250.856 248.874 252.024 250.41 252.024ZM258.36 253H257.032V245.64H255.464V244.52H257.032V243.336C257.032 241.816 257.88 241 259.448 241H261.336V242.12H259.448C258.744 242.12 258.36 242.552 258.36 243.336V244.52H261.816V243.336C261.816 241.816 262.664 241 264.232 241H266.12V242.12H264.232C263.528 242.12 263.144 242.552 263.144 243.336V244.52H265.896V245.64H263.144V253H261.816V245.64H258.36V253ZM270.816 253.176C268.304 253.176 266.64 251.336 266.64 248.792C266.64 245.896 268.512 244.328 270.656 244.328C272.992 244.328 274.496 245.896 274.544 248.616V248.984H267.968C268.048 250.792 269.104 252.024 270.816 252.024C272 252.024 272.864 251.432 273.216 250.328H274.512C274.128 252.072 272.752 253.176 270.816 253.176ZM268.048 247.88H273.152C272.912 246.392 272.016 245.48 270.656 245.48C269.312 245.48 268.32 246.36 268.048 247.88ZM277.619 253H276.291V244.52H277.347L277.507 246.136C278.051 245.048 279.043 244.472 280.451 244.472H280.739V245.784H280.451C278.659 245.784 277.619 246.808 277.619 248.552V253ZM285.24 253.176C283.224 253.176 281.736 252.12 281.624 250.328H282.92C283.016 251.432 284.024 252.04 285.304 252.04C286.504 252.04 287.08 251.576 287.08 250.728C287.08 249.928 286.456 249.752 285.576 249.448L284.344 249.032C283.096 248.616 281.848 248.232 281.848 246.696C281.848 245.256 282.968 244.328 284.824 244.328C286.696 244.328 287.992 245.336 288.2 247.224H286.904C286.76 246.04 285.928 245.464 284.776 245.464C283.736 245.464 283.128 245.928 283.128 246.664C283.128 247.544 284.056 247.72 284.76 247.96L285.912 248.344C287.464 248.856 288.392 249.384 288.392 250.792C288.392 252.28 287.304 253.176 285.24 253.176ZM293.77 253.176C291.258 253.176 289.594 251.336 289.594 248.792C289.594 245.896 291.466 244.328 293.61 244.328C295.946 244.328 297.45 245.896 297.498 248.616V248.984H290.922C291.002 250.792 292.058 252.024 293.77 252.024C294.954 252.024 295.818 251.432 296.17 250.328H297.466C297.082 252.072 295.706 253.176 293.77 253.176ZM291.002 247.88H296.106C295.866 246.392 294.97 245.48 293.61 245.48C292.266 245.48 291.274 246.36 291.002 247.88ZM300.572 253H299.244V244.52H300.3L300.428 245.816C301.004 244.92 302.108 244.328 303.372 244.328C305.196 244.328 306.412 245.512 306.412 247.384V253H305.084V247.432C305.084 246.248 304.316 245.496 303.036 245.496C301.516 245.496 300.588 246.552 300.572 247.848V253Z" fill="#481125"/>
<rect x="399.5" y="32" width="20" height="20" rx="10" fill="#03834E"/>
<path d="M407.25 46.9167H406.917C406.5 46.8333 406.167 46.5833 406 46.25L404 43.3333C403.833 43.0833 403.833 42.6667 404.167 42.5C404.25 42.4167 404.417 42.4167 404.5 42.4167C404.667 42.4167 404.917 42.5 405 42.6667L407.083 45.5833C407.167 45.6667 407.167 45.6667 407.25 45.6667H407.333C407.417 45.6667 407.417 45.6667 407.5 45.5833C407.5 45.5833 407.583 45.5833 407.583 45.5L414.167 37.25C414.25 37.0833 414.5 37 414.667 37C414.833 37 414.917 37.0833 415.083 37.1667C415.25 37.25 415.333 37.4167 415.333 37.5833C415.333 37.75 415.333 37.9167 415.167 38.0833L408.667 46.3333L408.333 46.6667C407.833 46.8333 407.583 46.9167 407.25 46.9167Z" fill="#FDF9F9"/>
<path d="M432.848 48H431.588L427.78 38.2H429.04L432.218 46.376L435.298 38.2H436.544L432.848 48ZM440.205 48.154C438.007 48.154 436.551 46.544 436.551 44.318C436.551 41.784 438.189 40.412 440.065 40.412C442.109 40.412 443.425 41.784 443.467 44.164V44.486H437.713C437.783 46.068 438.707 47.146 440.205 47.146C441.241 47.146 441.997 46.628 442.305 45.662H443.439C443.103 47.188 441.899 48.154 440.205 48.154ZM437.783 43.52H442.249C442.039 42.218 441.255 41.42 440.065 41.42C438.889 41.42 438.021 42.19 437.783 43.52ZM447.991 48.154C446.003 48.154 444.617 46.558 444.617 44.248C444.617 41.98 445.989 40.412 447.977 40.412C449.097 40.412 450.035 40.902 450.567 41.686V37.5H451.729V48H450.805L450.679 46.572C450.189 47.538 449.209 48.154 447.991 48.154ZM448.173 47.146C449.587 47.146 450.567 45.942 450.567 44.22C450.567 42.554 449.615 41.406 448.243 41.406C446.815 41.406 445.821 42.568 445.821 44.248C445.821 45.956 446.787 47.146 448.173 47.146ZM458.025 48H456.863V37.5H458.025V48ZM463.242 48.154C461.044 48.154 459.588 46.544 459.588 44.318C459.588 41.784 461.226 40.412 463.102 40.412C465.146 40.412 466.462 41.784 466.504 44.164V44.486H460.75C460.82 46.068 461.744 47.146 463.242 47.146C464.278 47.146 465.034 46.628 465.342 45.662H466.476C466.14 47.188 464.936 48.154 463.242 48.154ZM460.82 43.52H465.286C465.076 42.218 464.292 41.42 463.102 41.42C461.926 41.42 461.058 42.19 460.82 43.52ZM469.194 48H468.032V40.58H468.956L469.068 41.714C469.572 40.93 470.538 40.412 471.644 40.412C473.24 40.412 474.304 41.448 474.304 43.086V48H473.142V43.128C473.142 42.092 472.47 41.434 471.35 41.434C470.02 41.434 469.208 42.358 469.194 43.492V48ZM479.36 50.968C477.358 50.968 476 50.002 476 48.434H477.162C477.162 49.316 478.058 49.988 479.36 49.988C480.886 49.988 481.684 49.078 481.684 47.804V46.6C481.166 47.37 480.27 47.874 479.136 47.874C477.162 47.874 475.748 46.362 475.748 44.178C475.748 41.952 477.176 40.412 479.136 40.412C480.326 40.412 481.292 40.972 481.796 41.868L481.922 40.58H482.832V47.804C482.832 49.68 481.572 50.968 479.36 50.968ZM479.304 46.866C480.704 46.866 481.684 45.746 481.684 44.136C481.684 42.54 480.704 41.42 479.304 41.42C477.918 41.42 476.952 42.54 476.952 44.164C476.952 45.76 477.918 46.866 479.304 46.866ZM485.901 48H484.739V40.58H485.663L485.803 41.994C486.279 41.042 487.147 40.538 488.379 40.538H488.631V41.686H488.379C486.811 41.686 485.901 42.582 485.901 44.108V48ZM492.896 48.154C490.698 48.154 489.242 46.544 489.242 44.318C489.242 41.784 490.88 40.412 492.756 40.412C494.8 40.412 496.116 41.784 496.158 44.164V44.486H490.404C490.474 46.068 491.398 47.146 492.896 47.146C493.932 47.146 494.688 46.628 494.996 45.662H496.13C495.794 47.188 494.59 48.154 492.896 48.154ZM490.474 43.52H494.94C494.73 42.218 493.946 41.42 492.756 41.42C491.58 41.42 490.712 42.19 490.474 43.52ZM504.695 48H503.869C502.427 48 501.657 47.258 501.657 45.886V41.56H500.285V40.58H501.657V38.046H502.819V40.58H504.821V41.56H502.819V45.886C502.819 46.628 503.183 47.02 503.869 47.02H504.695V48ZM509.289 48.154C507.091 48.154 505.635 46.544 505.635 44.318C505.635 41.784 507.273 40.412 509.149 40.412C511.193 40.412 512.509 41.784 512.551 44.164V44.486H506.797C506.867 46.068 507.791 47.146 509.289 47.146C510.325 47.146 511.081 46.628 511.389 45.662H512.523C512.187 47.188 510.983 48.154 509.289 48.154ZM506.867 43.52H511.333C511.123 42.218 510.339 41.42 509.149 41.42C507.973 41.42 507.105 42.19 506.867 43.52ZM515.283 48H514.121V37.5H515.283V44.234L518.895 40.58H520.295L517.621 43.282L520.701 48H519.343L516.823 44.094L515.283 45.648V48ZM524.425 48.154C522.661 48.154 521.359 47.23 521.261 45.662H522.395C522.479 46.628 523.361 47.16 524.481 47.16C525.531 47.16 526.035 46.754 526.035 46.012C526.035 45.312 525.489 45.158 524.719 44.892L523.641 44.528C522.549 44.164 521.457 43.828 521.457 42.484C521.457 41.224 522.437 40.412 524.061 40.412C525.699 40.412 526.833 41.294 527.015 42.946H525.881C525.755 41.91 525.027 41.406 524.019 41.406C523.109 41.406 522.577 41.812 522.577 42.456C522.577 43.226 523.389 43.38 524.005 43.59L525.013 43.926C526.371 44.374 527.183 44.836 527.183 46.068C527.183 47.37 526.231 48.154 524.425 48.154ZM532.285 48H531.459C530.017 48 529.247 47.258 529.247 45.886V41.56H527.875V40.58H529.247V38.046H530.409V40.58H532.411V41.56H530.409V45.886C530.409 46.628 530.773 47.02 531.459 47.02H532.285V48ZM539.697 48.154C537.933 48.154 536.631 47.23 536.533 45.662H537.667C537.751 46.628 538.633 47.16 539.753 47.16C540.803 47.16 541.307 46.754 541.307 46.012C541.307 45.312 540.761 45.158 539.991 44.892L538.913 44.528C537.821 44.164 536.729 43.828 536.729 42.484C536.729 41.224 537.709 40.412 539.333 40.412C540.971 40.412 542.105 41.294 542.287 42.946H541.153C541.027 41.91 540.299 41.406 539.291 41.406C538.381 41.406 537.849 41.812 537.849 42.456C537.849 43.226 538.661 43.38 539.277 43.59L540.285 43.926C541.643 44.374 542.455 44.836 542.455 46.068C542.455 47.37 541.503 48.154 539.697 48.154ZM545.088 48H543.926V37.5H545.088V44.234L548.7 40.58H550.1L547.426 43.282L550.506 48H549.148L546.628 44.094L545.088 45.648V48ZM553.811 48.112C552.131 48.112 551.053 47.244 551.053 45.886C551.053 44.178 552.705 43.856 554.189 43.702C555.323 43.59 556.303 43.604 556.317 43.002C556.303 42.064 555.533 41.406 554.413 41.406C553.335 41.406 552.495 42.008 552.369 42.89H551.221C551.361 41.434 552.677 40.412 554.441 40.412C556.275 40.412 557.451 41.504 557.451 43.072V46.684C557.451 46.922 557.577 47.048 557.829 47.048H558.249V48H557.591C556.793 48 556.373 47.636 556.373 46.95V46.726C555.939 47.58 555.099 48.112 553.811 48.112ZM553.979 47.118C555.365 47.118 556.317 46.236 556.317 45.004V44.038C555.995 44.472 555.169 44.556 554.259 44.654C553.237 44.766 552.215 44.906 552.215 45.858C552.215 46.628 552.915 47.118 553.979 47.118ZM560.756 48H559.594V37.5H560.756V48ZM567.045 48H565.883V37.5H567.045V44.234L570.657 40.58H572.057L569.383 43.282L572.463 48H571.105L568.585 44.094L567.045 45.648V48ZM576.308 48.154C573.928 48.154 572.668 46.46 572.668 44.22C572.668 41.742 574.292 40.412 576.308 40.412C578.674 40.412 579.948 42.12 579.948 44.22C579.948 46.782 578.394 48.154 576.308 48.154ZM576.308 47.146C577.89 47.146 578.758 45.83 578.758 44.22C578.758 42.554 577.792 41.42 576.308 41.42C574.824 41.42 573.858 42.554 573.858 44.22C573.858 46.124 574.964 47.146 576.308 47.146ZM582.63 48H581.468V40.58H582.392L582.504 41.728C583.008 40.93 583.974 40.412 585.038 40.412C586.158 40.412 586.998 40.986 587.376 41.882C587.852 41.014 588.874 40.412 590.008 40.412C591.576 40.412 592.584 41.518 592.584 43.03V48H591.422V43.072C591.422 42.078 590.806 41.434 589.812 41.434C588.426 41.434 587.614 42.358 587.6 43.492V48H586.452V43.072C586.452 42.078 585.836 41.434 584.842 41.434C583.456 41.434 582.644 42.358 582.63 43.492V48ZM595.591 50.8H594.429V40.58H595.353L595.479 41.924C596.011 41 596.991 40.412 598.195 40.412C600.155 40.412 601.527 41.98 601.527 44.248C601.527 46.558 600.155 48.154 598.195 48.154C597.061 48.154 596.123 47.636 595.591 46.768V50.8ZM598.013 47.146C599.385 47.146 600.323 45.956 600.323 44.248C600.323 42.582 599.385 41.42 597.999 41.42C596.599 41.42 595.591 42.554 595.591 44.192C595.591 45.928 596.599 47.146 598.013 47.146ZM606.318 48.154C603.938 48.154 602.678 46.46 602.678 44.22C602.678 41.742 604.302 40.412 606.318 40.412C608.684 40.412 609.958 42.12 609.958 44.22C609.958 46.782 608.404 48.154 606.318 48.154ZM606.318 47.146C607.9 47.146 608.768 45.83 608.768 44.22C608.768 42.554 607.802 41.42 606.318 41.42C604.834 41.42 603.868 42.554 603.868 44.22C603.868 46.124 604.974 47.146 606.318 47.146ZM612.639 48H611.477V40.58H612.401L612.513 41.714C613.017 40.93 613.983 40.412 615.089 40.412C616.685 40.412 617.749 41.448 617.749 43.086V48H616.587V43.128C616.587 42.092 615.915 41.434 614.795 41.434C613.465 41.434 612.653 42.358 612.639 43.492V48ZM622.847 48.154C620.649 48.154 619.193 46.544 619.193 44.318C619.193 41.784 620.831 40.412 622.707 40.412C624.751 40.412 626.067 41.784 626.109 44.164V44.486H620.355C620.425 46.068 621.349 47.146 622.847 47.146C623.883 47.146 624.639 46.628 624.947 45.662H626.081C625.745 47.188 624.541 48.154 622.847 48.154ZM620.425 43.52H624.891C624.681 42.218 623.897 41.42 622.707 41.42C621.531 41.42 620.663 42.19 620.425 43.52ZM628.8 48H627.638V40.58H628.562L628.674 41.714C629.178 40.93 630.144 40.412 631.25 40.412C632.846 40.412 633.91 41.448 633.91 43.086V48H632.748V43.128C632.748 42.092 632.076 41.434 630.956 41.434C629.626 41.434 628.814 42.358 628.8 43.492V48ZM639.459 48H638.633C637.191 48 636.421 47.258 636.421 45.886V41.56H635.049V40.58H636.421V38.046H637.583V40.58H639.585V41.56H637.583V45.886C637.583 46.628 637.947 47.02 638.633 47.02H639.459V48ZM644.052 48.154C641.854 48.154 640.398 46.544 640.398 44.318C640.398 41.784 642.036 40.412 643.912 40.412C645.956 40.412 647.272 41.784 647.314 44.164V44.486H641.56C641.63 46.068 642.554 47.146 644.052 47.146C645.088 47.146 645.844 46.628 646.152 45.662H647.286C646.95 47.188 645.746 48.154 644.052 48.154ZM641.63 43.52H646.096C645.886 42.218 645.102 41.42 643.912 41.42C642.736 41.42 641.868 42.19 641.63 43.52ZM652.515 48H651.689C650.247 48 649.477 47.258 649.477 45.886V41.56H648.105V40.58H649.477V38.046H650.639V40.58H652.641V41.56H650.639V45.886C650.639 46.628 651.003 47.02 651.689 47.02H652.515V48ZM660.963 48.154C659.745 48.154 658.751 47.552 658.247 46.586L658.121 48H657.197V37.5H658.359V41.742C658.905 40.93 659.843 40.412 660.963 40.412C662.923 40.412 664.295 41.98 664.295 44.248C664.295 46.558 662.923 48.154 660.963 48.154ZM660.781 47.146C662.153 47.146 663.091 45.956 663.091 44.248C663.091 42.582 662.153 41.42 660.767 41.42C659.367 41.42 658.359 42.554 658.359 44.192C658.359 45.928 659.367 47.146 660.781 47.146ZM666.446 50.8H665.256V49.82H666.446C667.202 49.82 667.524 49.554 667.692 49.106L668.098 48H667.818L664.878 40.58H666.124L668.532 46.838L670.856 40.58H672.046L668.714 49.554C668.406 50.366 667.72 50.8 666.446 50.8ZM676.235 50.968C674.233 50.968 672.875 50.002 672.875 48.434H674.037C674.037 49.316 674.933 49.988 676.235 49.988C677.761 49.988 678.559 49.078 678.559 47.804V46.6C678.041 47.37 677.145 47.874 676.011 47.874C674.037 47.874 672.623 46.362 672.623 44.178C672.623 41.952 674.051 40.412 676.011 40.412C677.201 40.412 678.167 40.972 678.671 41.868L678.797 40.58H679.707V47.804C679.707 49.68 678.447 50.968 676.235 50.968ZM676.179 46.866C677.579 46.866 678.559 45.746 678.559 44.136C678.559 42.54 677.579 41.42 676.179 41.42C674.793 41.42 673.827 42.54 673.827 44.164C673.827 45.76 674.793 46.866 676.179 46.866ZM684.848 50.968C682.846 50.968 681.488 50.002 681.488 48.434H682.65C682.65 49.316 683.546 49.988 684.848 49.988C686.374 49.988 687.172 49.078 687.172 47.804V46.6C686.654 47.37 685.758 47.874 684.624 47.874C682.65 47.874 681.236 46.362 681.236 44.178C681.236 41.952 682.664 40.412 684.624 40.412C685.814 40.412 686.78 40.972 687.284 41.868L687.41 40.58H688.32V47.804C688.32 49.68 687.06 50.968 684.848 50.968ZM684.792 46.866C686.192 46.866 687.172 45.746 687.172 44.136C687.172 42.54 686.192 41.42 684.792 41.42C683.406 41.42 682.44 42.54 682.44 44.164C682.44 45.76 683.406 46.866 684.792 46.866ZM693.503 48.154C691.305 48.154 689.849 46.544 689.849 44.318C689.849 41.784 691.487 40.412 693.363 40.412C695.407 40.412 696.723 41.784 696.765 44.164V44.486H691.011C691.081 46.068 692.005 47.146 693.503 47.146C694.539 47.146 695.295 46.628 695.603 45.662H696.737C696.401 47.188 695.197 48.154 693.503 48.154ZM691.081 43.52H695.547C695.337 42.218 694.553 41.42 693.363 41.42C692.187 41.42 691.319 42.19 691.081 43.52ZM429.614 73H428.452V65.58H429.376L429.488 66.714C429.992 65.93 430.958 65.412 432.064 65.412C433.66 65.412 434.724 66.448 434.724 68.086V73H433.562V68.128C433.562 67.092 432.89 66.434 431.77 66.434C430.44 66.434 429.628 67.358 429.614 68.492V73ZM439.822 73.154C437.624 73.154 436.168 71.544 436.168 69.318C436.168 66.784 437.806 65.412 439.682 65.412C441.726 65.412 443.042 66.784 443.084 69.164V69.486H437.33C437.4 71.068 438.324 72.146 439.822 72.146C440.858 72.146 441.614 71.628 441.922 70.662H443.056C442.72 72.188 441.516 73.154 439.822 73.154ZM437.4 68.52H441.866C441.656 67.218 440.872 66.42 439.682 66.42C438.506 66.42 437.638 67.19 437.4 68.52ZM447.608 73.154C445.62 73.154 444.234 71.558 444.234 69.248C444.234 66.98 445.606 65.412 447.594 65.412C448.714 65.412 449.652 65.902 450.184 66.686V62.5H451.346V73H450.422L450.296 71.572C449.806 72.538 448.826 73.154 447.608 73.154ZM447.79 72.146C449.204 72.146 450.184 70.942 450.184 69.22C450.184 67.554 449.232 66.406 447.86 66.406C446.432 66.406 445.438 67.568 445.438 69.248C445.438 70.956 446.404 72.146 447.79 72.146ZM456.556 73.154C454.176 73.154 452.916 71.46 452.916 69.22C452.916 66.742 454.54 65.412 456.556 65.412C458.922 65.412 460.196 67.12 460.196 69.22C460.196 71.782 458.642 73.154 456.556 73.154ZM456.556 72.146C458.138 72.146 459.006 70.83 459.006 69.22C459.006 67.554 458.04 66.42 456.556 66.42C455.072 66.42 454.106 67.554 454.106 69.22C454.106 71.124 455.212 72.146 456.556 72.146ZM465.082 73H463.864L460.77 65.58H462.03L464.48 71.642L466.916 65.58H468.176L465.082 73ZM472.416 73.154C470.218 73.154 468.762 71.544 468.762 69.318C468.762 66.784 470.4 65.412 472.276 65.412C474.32 65.412 475.636 66.784 475.678 69.164V69.486H469.924C469.994 71.068 470.918 72.146 472.416 72.146C473.452 72.146 474.208 71.628 474.516 70.662H475.65C475.314 72.188 474.11 73.154 472.416 73.154ZM469.994 68.52H474.46C474.25 67.218 473.466 66.42 472.276 66.42C471.1 66.42 470.232 67.19 469.994 68.52ZM478.368 73H477.206V65.58H478.13L478.27 66.994C478.746 66.042 479.614 65.538 480.846 65.538H481.098V66.686H480.846C479.278 66.686 478.368 67.582 478.368 69.108V73ZM488.345 73.154C486.581 73.154 485.279 72.23 485.181 70.662H486.315C486.399 71.628 487.281 72.16 488.401 72.16C489.451 72.16 489.955 71.754 489.955 71.012C489.955 70.312 489.409 70.158 488.639 69.892L487.561 69.528C486.469 69.164 485.377 68.828 485.377 67.484C485.377 66.224 486.357 65.412 487.981 65.412C489.619 65.412 490.753 66.294 490.935 67.946H489.801C489.675 66.91 488.947 66.406 487.939 66.406C487.029 66.406 486.497 66.812 486.497 67.456C486.497 68.226 487.309 68.38 487.925 68.59L488.933 68.926C490.291 69.374 491.103 69.836 491.103 71.068C491.103 72.37 490.151 73.154 488.345 73.154ZM493.736 73H492.574V62.5H493.736V73ZM496.265 64.334C495.775 64.334 495.397 63.956 495.397 63.466C495.397 62.976 495.775 62.612 496.265 62.612C496.755 62.612 497.119 62.976 497.119 63.466C497.119 63.956 496.755 64.334 496.265 64.334ZM496.839 73H495.677V65.58H496.839V73ZM499.943 73H498.781V62.5H499.943V69.234L503.555 65.58H504.955L502.281 68.282L505.361 73H504.003L501.483 69.094L499.943 70.648V73ZM511.879 73.112C510.199 73.112 509.121 72.244 509.121 70.886C509.121 69.178 510.773 68.856 512.257 68.702C513.391 68.59 514.371 68.604 514.385 68.002C514.371 67.064 513.601 66.406 512.481 66.406C511.403 66.406 510.563 67.008 510.437 67.89H509.289C509.429 66.434 510.745 65.412 512.509 65.412C514.343 65.412 515.519 66.504 515.519 68.072V71.684C515.519 71.922 515.645 72.048 515.897 72.048H516.317V73H515.659C514.861 73 514.441 72.636 514.441 71.95V71.726C514.007 72.58 513.167 73.112 511.879 73.112ZM512.047 72.118C513.433 72.118 514.385 71.236 514.385 70.004V69.038C514.063 69.472 513.237 69.556 512.327 69.654C511.305 69.766 510.283 69.906 510.283 70.858C510.283 71.628 510.983 72.118 512.047 72.118ZM521.293 73H520.467C519.025 73 518.255 72.258 518.255 70.886V66.56H516.883V65.58H518.255V63.046H519.417V65.58H521.419V66.56H519.417V70.886C519.417 71.628 519.781 72.02 520.467 72.02H521.293V73ZM528.326 73.112C526.646 73.112 525.568 72.244 525.568 70.886C525.568 69.178 527.22 68.856 528.704 68.702C529.838 68.59 530.818 68.604 530.832 68.002C530.818 67.064 530.048 66.406 528.928 66.406C527.85 66.406 527.01 67.008 526.884 67.89H525.736C525.876 66.434 527.192 65.412 528.956 65.412C530.79 65.412 531.966 66.504 531.966 68.072V71.684C531.966 71.922 532.092 72.048 532.344 72.048H532.764V73H532.106C531.308 73 530.888 72.636 530.888 71.95V71.726C530.454 72.58 529.614 73.112 528.326 73.112ZM528.494 72.118C529.88 72.118 530.832 71.236 530.832 70.004V69.038C530.51 69.472 529.684 69.556 528.774 69.654C527.752 69.766 526.73 69.906 526.73 70.858C526.73 71.628 527.43 72.118 528.494 72.118ZM535.271 73H534.109V62.5H535.271V73ZM541.076 73H540.25C538.808 73 538.038 72.258 538.038 70.886V66.56H536.666V65.58H538.038V63.046H539.2V65.58H541.202V66.56H539.2V70.886C539.2 71.628 539.564 72.02 540.25 72.02H541.076V73ZM546.304 64.334C545.814 64.334 545.436 63.956 545.436 63.466C545.436 62.976 545.814 62.612 546.304 62.612C546.794 62.612 547.158 62.976 547.158 63.466C547.158 63.956 546.794 64.334 546.304 64.334ZM546.878 73H545.716V65.58H546.878V73ZM549.94 73H548.778V65.58H549.702L549.814 66.714C550.318 65.93 551.284 65.412 552.39 65.412C553.986 65.412 555.05 66.448 555.05 68.086V73H553.888V68.128C553.888 67.092 553.216 66.434 552.096 66.434C550.766 66.434 549.954 67.358 549.94 68.492V73ZM558.034 73H556.872V65.58H557.796L557.908 66.714C558.412 65.93 559.378 65.412 560.484 65.412C562.08 65.412 563.144 66.448 563.144 68.086V73H561.982V68.128C561.982 67.092 561.31 66.434 560.19 66.434C558.86 66.434 558.048 67.358 558.034 68.492V73ZM566.17 73H565.008V62.5H566.17V66.532C566.702 65.86 567.612 65.412 568.62 65.412C570.216 65.412 571.28 66.448 571.28 68.086V73H570.118V68.128C570.118 67.092 569.446 66.434 568.396 66.434C566.996 66.434 566.184 67.358 566.17 68.492V73ZM576.362 73.154C573.982 73.154 572.722 71.46 572.722 69.22C572.722 66.742 574.346 65.412 576.362 65.412C578.728 65.412 580.002 67.12 580.002 69.22C580.002 71.782 578.448 73.154 576.362 73.154ZM576.362 72.146C577.944 72.146 578.812 70.83 578.812 69.22C578.812 67.554 577.846 66.42 576.362 66.42C574.878 66.42 573.912 67.554 573.912 69.22C573.912 71.124 575.018 72.146 576.362 72.146ZM582.726 73H581.564V62.5H582.726V73ZM587.663 73.154C585.675 73.154 584.289 71.558 584.289 69.248C584.289 66.98 585.661 65.412 587.649 65.412C588.769 65.412 589.707 65.902 590.239 66.686V62.5H591.401V73H590.477L590.351 71.572C589.861 72.538 588.881 73.154 587.663 73.154ZM587.845 72.146C589.259 72.146 590.239 70.942 590.239 69.22C590.239 67.554 589.287 66.406 587.915 66.406C586.487 66.406 585.493 67.568 585.493 69.248C585.493 70.956 586.459 72.146 587.845 72.146ZM596.624 73.154C594.426 73.154 592.97 71.544 592.97 69.318C592.97 66.784 594.608 65.412 596.484 65.412C598.528 65.412 599.844 66.784 599.886 69.164V69.486H594.132C594.202 71.068 595.126 72.146 596.624 72.146C597.66 72.146 598.416 71.628 598.724 70.662H599.858C599.522 72.188 598.318 73.154 596.624 73.154ZM594.202 68.52H598.668C598.458 67.218 597.674 66.42 596.484 66.42C595.308 66.42 594.44 67.19 594.202 68.52ZM605.087 73H604.261C602.819 73 602.049 72.258 602.049 70.886V66.56H600.677V65.58H602.049V63.046H603.211V65.58H605.213V66.56H603.211V70.886C603.211 71.628 603.575 72.02 604.261 72.02H605.087V73ZM613.003 73.154C610.805 73.154 609.349 71.544 609.349 69.318C609.349 66.784 610.987 65.412 612.863 65.412C614.907 65.412 616.223 66.784 616.265 69.164V69.486H610.511C610.581 71.068 611.505 72.146 613.003 72.146C614.039 72.146 614.795 71.628 615.103 70.662H616.237C615.901 72.188 614.697 73.154 613.003 73.154ZM610.581 68.52H615.047C614.837 67.218 614.053 66.42 612.863 66.42C611.687 66.42 610.819 67.19 610.581 68.52ZM618.956 73H617.794V65.58H618.718L618.858 66.994C619.334 66.042 620.202 65.538 621.434 65.538H621.686V66.686H621.434C619.866 66.686 618.956 67.582 618.956 69.108V73ZM628.933 73.154C627.169 73.154 625.867 72.23 625.769 70.662H626.903C626.987 71.628 627.869 72.16 628.989 72.16C630.039 72.16 630.543 71.754 630.543 71.012C630.543 70.312 629.997 70.158 629.227 69.892L628.149 69.528C627.057 69.164 625.965 68.828 625.965 67.484C625.965 66.224 626.945 65.412 628.569 65.412C630.207 65.412 631.341 66.294 631.523 67.946H630.389C630.263 66.91 629.535 66.406 628.527 66.406C627.617 66.406 627.085 66.812 627.085 67.456C627.085 68.226 627.897 68.38 628.513 68.59L629.521 68.926C630.879 69.374 631.691 69.836 631.691 71.068C631.691 72.37 630.739 73.154 628.933 73.154ZM633.934 75.8H632.744V74.82H633.934C634.69 74.82 635.012 74.554 635.18 74.106L635.586 73H635.306L632.366 65.58H633.612L636.02 71.838L638.344 65.58H639.534L636.202 74.554C635.894 75.366 635.208 75.8 633.934 75.8ZM641.925 73H640.763V65.58H641.687L641.799 66.714C642.303 65.93 643.269 65.412 644.375 65.412C645.971 65.412 647.035 66.448 647.035 68.086V73H645.873V68.128C645.873 67.092 645.201 66.434 644.081 66.434C642.751 66.434 641.939 67.358 641.925 68.492V73ZM650.06 73H648.898V62.5H650.06V73ZM652.589 64.334C652.099 64.334 651.721 63.956 651.721 63.466C651.721 62.976 652.099 62.612 652.589 62.612C653.079 62.612 653.443 62.976 653.443 63.466C653.443 63.956 653.079 64.334 652.589 64.334ZM653.163 73H652.001V65.58H653.163V73ZM658.297 75.968C656.295 75.968 654.937 75.002 654.937 73.434H656.099C656.099 74.316 656.995 74.988 658.297 74.988C659.823 74.988 660.621 74.078 660.621 72.804V71.6C660.103 72.37 659.207 72.874 658.073 72.874C656.099 72.874 654.685 71.362 654.685 69.178C654.685 66.952 656.113 65.412 658.073 65.412C659.263 65.412 660.229 65.972 660.733 66.868L660.859 65.58H661.769V72.804C661.769 74.68 660.509 75.968 658.297 75.968ZM658.241 71.866C659.641 71.866 660.621 70.746 660.621 69.136C660.621 67.54 659.641 66.42 658.241 66.42C656.855 66.42 655.889 67.54 655.889 69.164C655.889 70.76 656.855 71.866 658.241 71.866ZM670.083 73.154C667.703 73.154 666.443 71.46 666.443 69.22C666.443 66.742 668.067 65.412 670.083 65.412C672.449 65.412 673.723 67.12 673.723 69.22C673.723 71.782 672.169 73.154 670.083 73.154ZM670.083 72.146C671.665 72.146 672.533 70.83 672.533 69.22C672.533 67.554 671.567 66.42 670.083 66.42C668.599 66.42 667.633 67.554 667.633 69.22C667.633 71.124 668.739 72.146 670.083 72.146ZM678.61 73H677.392L674.298 65.58H675.558L678.008 71.642L680.444 65.58H681.704L678.61 73ZM685.943 73.154C683.745 73.154 682.289 71.544 682.289 69.318C682.289 66.784 683.927 65.412 685.803 65.412C687.847 65.412 689.163 66.784 689.205 69.164V69.486H683.451C683.521 71.068 684.445 72.146 685.943 72.146C686.979 72.146 687.735 71.628 688.043 70.662H689.177C688.841 72.188 687.637 73.154 685.943 73.154ZM683.521 68.52H687.987C687.777 67.218 686.993 66.42 685.803 66.42C684.627 66.42 683.759 67.19 683.521 68.52ZM691.895 73H690.733V65.58H691.657L691.797 66.994C692.273 66.042 693.141 65.538 694.373 65.538H694.625V66.686H694.373C692.805 66.686 691.895 67.582 691.895 69.108V73ZM430.44 98H429.278V91.56H427.906V90.58H429.278V89.544C429.278 88.214 430.02 87.5 431.392 87.5H433.044V88.48H431.392C430.776 88.48 430.44 88.858 430.44 89.544V90.58H432.848V91.56H430.44V98ZM435.316 98H434.154V87.5H435.316V98ZM440.533 98.154C438.335 98.154 436.879 96.544 436.879 94.318C436.879 91.784 438.517 90.412 440.393 90.412C442.437 90.412 443.753 91.784 443.795 94.164V94.486H438.041C438.111 96.068 439.035 97.146 440.533 97.146C441.569 97.146 442.325 96.628 442.633 95.662H443.767C443.431 97.188 442.227 98.154 440.533 98.154ZM438.111 93.52H442.577C442.367 92.218 441.583 91.42 440.393 91.42C439.217 91.42 438.349 92.19 438.111 93.52ZM446.485 98H445.323V90.58H446.247L446.387 91.994C446.863 91.042 447.731 90.538 448.963 90.538H449.215V91.686H448.963C447.395 91.686 446.485 92.582 446.485 94.108V98ZM454.894 98H453.732V87.5H454.894V98ZM457.423 89.334C456.933 89.334 456.555 88.956 456.555 88.466C456.555 87.976 456.933 87.612 457.423 87.612C457.913 87.612 458.277 87.976 458.277 88.466C458.277 88.956 457.913 89.334 457.423 89.334ZM457.997 98H456.835V90.58H457.997V98ZM461.059 98H459.897V90.58H460.821L460.933 91.714C461.437 90.93 462.403 90.412 463.509 90.412C465.105 90.412 466.169 91.448 466.169 93.086V98H465.007V93.128C465.007 92.092 464.335 91.434 463.215 91.434C461.885 91.434 461.073 92.358 461.059 93.492V98ZM468.579 89.334C468.075 89.334 467.711 88.97 467.711 88.466C467.711 87.976 468.075 87.612 468.579 87.612C469.069 87.612 469.433 87.976 469.433 88.466C469.433 88.97 469.069 89.334 468.579 89.334ZM466.941 100.8H465.905V99.82H466.941C467.627 99.82 467.991 99.428 467.991 98.686V90.58H469.153V98.686C469.153 100.058 468.383 100.8 466.941 100.8ZM474.33 98.154C472.132 98.154 470.676 96.544 470.676 94.318C470.676 91.784 472.314 90.412 474.19 90.412C476.234 90.412 477.55 91.784 477.592 94.164V94.486H471.838C471.908 96.068 472.832 97.146 474.33 97.146C475.366 97.146 476.122 96.628 476.43 95.662H477.564C477.228 97.188 476.024 98.154 474.33 98.154ZM471.908 93.52H476.374C476.164 92.218 475.38 91.42 474.19 91.42C473.014 91.42 472.146 92.19 471.908 93.52ZM480.282 98H479.12V90.58H480.044L480.184 91.994C480.66 91.042 481.528 90.538 482.76 90.538H483.012V91.686H482.76C481.192 91.686 480.282 92.582 480.282 94.108V98ZM483.906 98.14C483.402 98.14 483.024 97.762 483.024 97.258C483.024 96.768 483.402 96.39 483.906 96.39C484.41 96.39 484.788 96.768 484.788 97.258C484.788 97.762 484.41 98.14 483.906 98.14Z" fill="#481125"/>
<rect x="400" y="123.5" width="302.5" height="190" rx="15.5" fill="white"/>
<rect x="400" y="123.5" width="302.5" height="190" rx="15.5" stroke="#691837"/>
<rect x="415.5" y="139" width="271.5" height="49" rx="16" fill="white"/>
<mask id="path-26-inside-3_621_2577" fill="white">
<path d="M419.5 151C419.5 146.582 423.082 143 427.5 143H675C679.418 143 683 146.582 683 151V184H419.5V151Z"/>
</mask>
<path d="M419.5 143H683H419.5ZM683 185H419.5V183H683V185ZM419.5 184V143V184ZM683 143V184V143Z" fill="#481125" mask="url(#path-26-inside-3_621_2577)"/>
<g clip-path="url(#clip3_621_2577)">
<path d="M437.5 163.5C434.743 163.5 432.5 161.257 432.5 158.5C432.5 157.624 432.732 156.761 433.171 156.002L433.178 155.988C433.62 155.233 434.251 154.607 435.009 154.17C435.767 153.734 436.625 153.503 437.5 153.5C440.257 153.5 442.5 155.743 442.5 158.5C442.5 161.257 440.257 163.5 437.5 163.5ZM433.942 157.322C433.815 157.702 433.75 158.1 433.75 158.5C433.75 160.567 435.432 162.25 437.5 162.25C438.444 162.249 439.353 161.892 440.046 161.25C440.739 160.609 441.165 159.73 441.239 158.788C440.502 159.011 439.737 159.124 438.967 159.125H438.95C437.124 159.114 435.357 158.478 433.942 157.322ZM434.546 156.193C435.763 157.27 437.331 157.868 438.957 157.875C439.696 157.875 440.421 157.753 441.117 157.513C440.899 156.721 440.427 156.021 439.774 155.522C439.121 155.023 438.322 154.752 437.5 154.75C436.342 154.75 435.256 155.285 434.546 156.193Z" fill="#481125"/>
<path d="M445.625 173.5C445.459 173.5 445.3 173.434 445.183 173.317C445.066 173.2 445 173.041 445 172.875C445 168.739 441.636 165.375 437.5 165.375C433.364 165.375 430 168.739 430 172.875C430 173.041 429.934 173.2 429.817 173.317C429.7 173.434 429.541 173.5 429.375 173.5C429.209 173.5 429.05 173.434 428.933 173.317C428.816 173.2 428.75 173.041 428.75 172.875C428.75 168.05 432.675 164.125 437.5 164.125C442.325 164.125 446.25 168.05 446.25 172.875C446.25 173.041 446.184 173.2 446.067 173.317C445.95 173.434 445.791 173.5 445.625 173.5Z" fill="#481125"/>
</g>
<path d="M458.204 168H456.86V156.8H464.492V158.032H458.204V161.664H464.012V162.896H458.204V168ZM469.332 168.176C467.268 168.176 466.084 166.912 466.084 165.184V159.52H467.412V165.136C467.412 166.352 468.26 167.008 469.46 167.008C471.044 167.008 471.908 165.952 471.924 164.672V159.52H473.252V168H472.196L472.084 166.72C471.524 167.68 470.5 168.176 469.332 168.176ZM476.808 168H475.48V156H476.808V168ZM480.402 168H479.074V156H480.402V168ZM487.035 168H486.091C484.443 168 483.563 167.152 483.563 165.584V160.64H481.995V159.52H483.563V156.624H484.891V159.52H487.179V160.64H484.891V165.584C484.891 166.432 485.307 166.88 486.091 166.88H487.035V168ZM493.666 168H492.338V159.52H493.394L493.522 160.816C494.098 159.92 495.202 159.328 496.466 159.328C498.29 159.328 499.506 160.512 499.506 162.384V168H498.178V162.432C498.178 161.248 497.41 160.496 496.13 160.496C494.61 160.496 493.682 161.552 493.666 162.848V168ZM504.324 168.128C502.404 168.128 501.172 167.136 501.172 165.584C501.172 163.632 503.06 163.264 504.756 163.088C506.052 162.96 507.172 162.976 507.188 162.288C507.172 161.216 506.292 160.464 505.012 160.464C503.78 160.464 502.82 161.152 502.676 162.16H501.364C501.524 160.496 503.028 159.328 505.044 159.328C507.14 159.328 508.484 160.576 508.484 162.368V166.496C508.484 166.768 508.628 166.912 508.916 166.912H509.396V168H508.644C507.732 168 507.252 167.584 507.252 166.8V166.544C506.756 167.52 505.796 168.128 504.324 168.128ZM504.516 166.992C506.1 166.992 507.188 165.984 507.188 164.576V163.472C506.82 163.968 505.876 164.064 504.836 164.176C503.668 164.304 502.5 164.464 502.5 165.552C502.5 166.432 503.3 166.992 504.516 166.992ZM514.639 168H513.247L509.711 159.52H511.151L513.951 166.448L516.735 159.52H518.175L514.639 168ZM520.916 168H519.588V159.52H520.644L520.772 160.816C521.348 159.92 522.452 159.328 523.716 159.328C525.54 159.328 526.756 160.512 526.756 162.384V168H525.428V162.432C525.428 161.248 524.66 160.496 523.38 160.496C521.86 160.496 520.932 161.552 520.916 162.848V168Z" fill="#A35E70"/>
<rect x="415.5" y="204" width="271.5" height="94" rx="16" fill="white"/>
<mask id="path-32-inside-4_621_2577" fill="white">
<path d="M419.5 216C419.5 211.582 423.082 208 427.5 208H675C679.418 208 683 211.582 683 216V294H419.5V216Z"/>
</mask>
<path d="M419.5 216C419.5 211.582 423.082 208 427.5 208H675C679.418 208 683 211.582 683 216V294H419.5V216Z" fill="#F9EAED"/>
<path d="M419.5 208H683H419.5ZM683 296H419.5V292H683V296ZM419.5 294V208V294ZM683 208V294V208Z" fill="#481125" mask="url(#path-32-inside-4_621_2577)"/>
<path d="M437.5 251C434.743 251 432.5 248.757 432.5 246C432.5 245.124 432.732 244.261 433.171 243.502L433.178 243.488C433.62 242.733 434.251 242.107 435.009 241.67C435.767 241.234 436.625 241.003 437.5 241C440.257 241 442.5 243.243 442.5 246C442.5 248.757 440.257 251 437.5 251ZM433.942 244.822C433.815 245.202 433.75 245.6 433.75 246C433.75 248.067 435.432 249.75 437.5 249.75C438.444 249.749 439.353 249.392 440.046 248.75C440.739 248.109 441.165 247.23 441.239 246.288C440.502 246.511 439.737 246.624 438.967 246.625H438.95C437.124 246.614 435.357 245.978 433.942 244.822ZM434.546 243.693C435.763 244.77 437.331 245.368 438.957 245.375C439.696 245.375 440.421 245.253 441.117 245.013C440.899 244.221 440.427 243.521 439.774 243.022C439.121 242.523 438.322 242.252 437.5 242.25C436.342 242.25 435.256 242.785 434.546 243.693Z" fill="#481125"/>
<path d="M445.625 261C445.459 261 445.3 260.934 445.183 260.817C445.066 260.7 445 260.541 445 260.375C445 256.239 441.636 252.875 437.5 252.875C433.364 252.875 430 256.239 430 260.375C430 260.541 429.934 260.7 429.817 260.817C429.7 260.934 429.541 261 429.375 261C429.209 261 429.05 260.934 428.933 260.817C428.816 260.7 428.75 260.541 428.75 260.375C428.75 255.55 432.675 251.625 437.5 251.625C442.325 251.625 446.25 255.55 446.25 260.375C446.25 260.541 446.184 260.7 446.067 260.817C445.95 260.934 445.791 261 445.625 261Z" fill="#481125"/>
<path d="M457.528 229H456.52V220.6H462.244V221.524H457.528V224.248H461.884V225.172H457.528V229ZM465.874 229.132C464.326 229.132 463.438 228.184 463.438 226.888V222.64H464.434V226.852C464.434 227.764 465.07 228.256 465.97 228.256C467.158 228.256 467.806 227.464 467.818 226.504V222.64H468.814V229H468.022L467.938 228.04C467.518 228.76 466.75 229.132 465.874 229.132ZM471.481 229H470.485V220H471.481V229ZM474.176 229H473.18V220H474.176V229ZM479.151 229H478.443C477.207 229 476.547 228.364 476.547 227.188V223.48H475.371V222.64H476.547V220.468H477.543V222.64H479.259V223.48H477.543V227.188C477.543 227.824 477.855 228.16 478.443 228.16H479.151V229ZM484.125 229H483.129V222.64H483.921L484.017 223.612C484.449 222.94 485.277 222.496 486.225 222.496C487.593 222.496 488.505 223.384 488.505 224.788V229H487.509V224.824C487.509 223.936 486.933 223.372 485.973 223.372C484.833 223.372 484.137 224.164 484.125 225.136V229ZM492.118 229.096C490.678 229.096 489.754 228.352 489.754 227.188C489.754 225.724 491.17 225.448 492.442 225.316C493.414 225.22 494.254 225.232 494.266 224.716C494.254 223.912 493.594 223.348 492.634 223.348C491.71 223.348 490.99 223.864 490.882 224.62H489.898C490.018 223.372 491.146 222.496 492.658 222.496C494.23 222.496 495.238 223.432 495.238 224.776V227.872C495.238 228.076 495.346 228.184 495.562 228.184H495.922V229H495.358C494.674 229 494.314 228.688 494.314 228.1V227.908C493.942 228.64 493.222 229.096 492.118 229.096ZM492.262 228.244C493.45 228.244 494.266 227.488 494.266 226.432V225.604C493.99 225.976 493.282 226.048 492.502 226.132C491.626 226.228 490.75 226.348 490.75 227.164C490.75 227.824 491.35 228.244 492.262 228.244ZM499.854 229H498.81L496.158 222.64H497.238L499.338 227.836L501.426 222.64H502.506L499.854 229ZM504.562 229H503.566V222.64H504.358L504.454 223.612C504.886 222.94 505.714 222.496 506.662 222.496C508.03 222.496 508.942 223.384 508.942 224.788V229H507.946V224.824C507.946 223.936 507.37 223.372 506.41 223.372C505.27 223.372 504.574 224.164 504.562 225.136V229Z" fill="#481125"/>
<path d="M461.82 253.176C458.38 253.176 456.348 250.76 456.348 247.368C456.348 244.04 458.38 241.624 461.82 241.624C464.668 241.624 466.62 243.288 467.1 246.104H465.708C465.292 244.056 463.852 242.856 461.82 242.856C459.308 242.856 457.756 244.6 457.756 247.368C457.756 250.232 459.308 251.944 461.82 251.944C463.916 251.944 465.276 250.808 465.708 248.696H467.1C466.604 251.608 464.748 253.176 461.82 253.176ZM470.417 253H469.089V241H470.417V245.608C471.025 244.84 472.065 244.328 473.217 244.328C475.041 244.328 476.257 245.512 476.257 247.384V253H474.929V247.432C474.929 246.248 474.161 245.496 472.961 245.496C471.361 245.496 470.433 246.552 470.417 247.848V253ZM479.666 253H478.338V244.52H479.394L479.554 246.136C480.098 245.048 481.09 244.472 482.498 244.472H482.786V245.784H482.498C480.706 245.784 479.666 246.808 479.666 248.552V253ZM484.979 243.096C484.419 243.096 483.987 242.664 483.987 242.104C483.987 241.544 484.419 241.128 484.979 241.128C485.539 241.128 485.955 241.544 485.955 242.104C485.955 242.664 485.539 243.096 484.979 243.096ZM485.635 253H484.307V244.52H485.635V253ZM490.975 253.176C488.959 253.176 487.471 252.12 487.359 250.328H488.655C488.751 251.432 489.759 252.04 491.039 252.04C492.239 252.04 492.815 251.576 492.815 250.728C492.815 249.928 492.191 249.752 491.311 249.448L490.079 249.032C488.831 248.616 487.583 248.232 487.583 246.696C487.583 245.256 488.703 244.328 490.559 244.328C492.431 244.328 493.727 245.336 493.935 247.224H492.639C492.495 246.04 491.663 245.464 490.511 245.464C489.471 245.464 488.863 245.928 488.863 246.664C488.863 247.544 489.791 247.72 490.495 247.96L491.647 248.344C493.199 248.856 494.127 249.384 494.127 250.792C494.127 252.28 493.039 253.176 490.975 253.176ZM499.957 253H499.013C497.365 253 496.485 252.152 496.485 250.584V245.64H494.917V244.52H496.485V241.624H497.813V244.52H500.101V245.64H497.813V250.584C497.813 251.432 498.229 251.88 499.013 251.88H499.957V253ZM502.338 243.096C501.778 243.096 501.346 242.664 501.346 242.104C501.346 241.544 501.778 241.128 502.338 241.128C502.898 241.128 503.314 241.544 503.314 242.104C503.314 242.664 502.898 243.096 502.338 243.096ZM502.994 253H501.666V244.52H502.994V253ZM507.902 253.128C505.982 253.128 504.75 252.136 504.75 250.584C504.75 248.632 506.638 248.264 508.334 248.088C509.63 247.96 510.75 247.976 510.766 247.288C510.75 246.216 509.87 245.464 508.59 245.464C507.358 245.464 506.398 246.152 506.254 247.16H504.942C505.102 245.496 506.606 244.328 508.622 244.328C510.718 244.328 512.062 245.576 512.062 247.368V251.496C512.062 251.768 512.206 251.912 512.494 251.912H512.974V253H512.222C511.31 253 510.83 252.584 510.83 251.8V251.544C510.334 252.52 509.374 253.128 507.902 253.128ZM508.094 251.992C509.678 251.992 510.766 250.984 510.766 249.576V248.472C510.398 248.968 509.454 249.064 508.414 249.176C507.246 249.304 506.078 249.464 506.078 250.552C506.078 251.432 506.878 251.992 508.094 251.992ZM515.791 253H514.463V244.52H515.519L515.647 245.816C516.223 244.92 517.327 244.328 518.591 244.328C520.415 244.328 521.631 245.512 521.631 247.384V253H520.303V247.432C520.303 246.248 519.535 245.496 518.255 245.496C516.735 245.496 515.807 246.552 515.791 247.848V253ZM530.193 248.584H523.345V247.464H530.193V248.584ZM533.61 253H532.266V241.8H533.946L537.898 251.4L541.834 241.8H543.53V253H542.186V244.136L538.538 253H537.242L533.61 244.168V253ZM548.715 253.128C546.795 253.128 545.563 252.136 545.563 250.584C545.563 248.632 547.451 248.264 549.147 248.088C550.443 247.96 551.563 247.976 551.579 247.288C551.563 246.216 550.683 245.464 549.403 245.464C548.171 245.464 547.211 246.152 547.067 247.16H545.755C545.915 245.496 547.419 244.328 549.435 244.328C551.531 244.328 552.875 245.576 552.875 247.368V251.496C552.875 251.768 553.019 251.912 553.307 251.912H553.787V253H553.035C552.123 253 551.643 252.584 551.643 251.8V251.544C551.147 252.52 550.187 253.128 548.715 253.128ZM548.907 251.992C550.491 251.992 551.579 250.984 551.579 249.576V248.472C551.211 248.968 550.267 249.064 549.227 249.176C548.059 249.304 546.891 249.464 546.891 250.552C546.891 251.432 547.691 251.992 548.907 251.992ZM558.972 256.392C556.684 256.392 555.132 255.288 555.132 253.496H556.46C556.46 254.504 557.484 255.272 558.972 255.272C560.716 255.272 561.628 254.232 561.628 252.776V251.4C561.036 252.28 560.012 252.856 558.716 252.856C556.46 252.856 554.844 251.128 554.844 248.632C554.844 246.088 556.476 244.328 558.716 244.328C560.076 244.328 561.18 244.968 561.756 245.992L561.9 244.52H562.94V252.776C562.94 254.92 561.5 256.392 558.972 256.392ZM558.908 251.704C560.508 251.704 561.628 250.424 561.628 248.584C561.628 246.76 560.508 245.48 558.908 245.48C557.324 245.48 556.22 246.76 556.22 248.616C556.22 250.44 557.324 251.704 558.908 251.704ZM566.447 253H565.119V244.52H566.175L566.303 245.816C566.879 244.92 567.983 244.328 569.247 244.328C571.071 244.328 572.287 245.512 572.287 247.384V253H570.959V247.432C570.959 246.248 570.191 245.496 568.911 245.496C567.391 245.496 566.463 246.552 566.447 247.848V253ZM577.457 253.176C575.393 253.176 574.209 251.912 574.209 250.184V244.52H575.537V250.136C575.537 251.352 576.385 252.008 577.585 252.008C579.169 252.008 580.033 250.952 580.049 249.672V244.52H581.377V253H580.321L580.209 251.72C579.649 252.68 578.625 253.176 577.457 253.176ZM586.725 253.176C584.709 253.176 583.221 252.12 583.109 250.328H584.405C584.501 251.432 585.509 252.04 586.789 252.04C587.989 252.04 588.565 251.576 588.565 250.728C588.565 249.928 587.941 249.752 587.061 249.448L585.829 249.032C584.581 248.616 583.333 248.232 583.333 246.696C583.333 245.256 584.453 244.328 586.309 244.328C588.181 244.328 589.477 245.336 589.685 247.224H588.389C588.245 246.04 587.413 245.464 586.261 245.464C585.221 245.464 584.613 245.928 584.613 246.664C584.613 247.544 585.541 247.72 586.245 247.96L587.397 248.344C588.949 248.856 589.877 249.384 589.877 250.792C589.877 252.28 588.789 253.176 586.725 253.176ZM596.72 253H595.376V241.8H600.48C602.592 241.8 604.048 243.064 604.048 244.888C604.048 246.216 603.152 247.336 601.792 247.768C602.384 247.928 602.8 248.312 603.008 248.872L604.56 253H603.12L601.68 249.112C601.504 248.632 601.12 248.376 600.592 248.376H596.72V253ZM596.72 243.032V247.176H600.544C601.936 247.176 602.688 246.216 602.688 245.016C602.688 243.704 601.76 243.032 600.544 243.032H596.72ZM609.27 253.176C607.206 253.176 606.022 251.912 606.022 250.184V244.52H607.35V250.136C607.35 251.352 608.198 252.008 609.398 252.008C610.982 252.008 611.846 250.952 611.862 249.672V244.52H613.19V253H612.134L612.022 251.72C611.462 252.68 610.438 253.176 609.27 253.176ZM618.457 253.176C616.393 253.176 615.209 251.912 615.209 250.184V244.52H616.537V250.136C616.537 251.352 617.385 252.008 618.585 252.008C620.169 252.008 621.033 250.952 621.049 249.672V244.52H622.377V253H621.321L621.209 251.72C620.649 252.68 619.625 253.176 618.457 253.176ZM627.981 253.176C625.709 253.176 624.125 251.352 624.125 248.712C624.125 246.12 625.693 244.328 627.965 244.328C629.245 244.328 630.317 244.888 630.925 245.784V241H632.253V253H631.197L631.053 251.368C630.493 252.472 629.373 253.176 627.981 253.176ZM628.189 252.024C629.805 252.024 630.925 250.648 630.925 248.68C630.925 246.776 629.837 245.464 628.269 245.464C626.637 245.464 625.501 246.792 625.501 248.712C625.501 250.664 626.605 252.024 628.189 252.024ZM458.204 278H456.86V266.8H458.204V272.928L463.98 266.8H465.724L461.26 271.472L466.028 278H464.364L460.332 272.448L458.204 274.672V278ZM468.775 278H467.447V269.52H468.503L468.663 271.136C469.207 270.048 470.199 269.472 471.607 269.472H471.895V270.784H471.607C469.815 270.784 468.775 271.808 468.775 273.552V278ZM474.088 268.096C473.528 268.096 473.096 267.664 473.096 267.104C473.096 266.544 473.528 266.128 474.088 266.128C474.648 266.128 475.064 266.544 475.064 267.104C475.064 267.664 474.648 268.096 474.088 268.096ZM474.744 278H473.416V269.52H474.744V278ZM480.084 278.176C478.068 278.176 476.58 277.12 476.468 275.328H477.764C477.86 276.432 478.868 277.04 480.148 277.04C481.348 277.04 481.924 276.576 481.924 275.728C481.924 274.928 481.3 274.752 480.42 274.448L479.188 274.032C477.94 273.616 476.692 273.232 476.692 271.696C476.692 270.256 477.812 269.328 479.668 269.328C481.54 269.328 482.836 270.336 483.044 272.224H481.748C481.604 271.04 480.772 270.464 479.62 270.464C478.58 270.464 477.972 270.928 477.972 271.664C477.972 272.544 478.9 272.72 479.604 272.96L480.756 273.344C482.308 273.856 483.236 274.384 483.236 275.792C483.236 277.28 482.148 278.176 480.084 278.176ZM489.067 278H488.123C486.475 278 485.595 277.152 485.595 275.584V270.64H484.027V269.52H485.595V266.624H486.923V269.52H489.211V270.64H486.923V275.584C486.923 276.432 487.339 276.88 488.123 276.88H489.067V278ZM494.3 278.176C491.58 278.176 490.14 276.24 490.14 273.68C490.14 270.848 491.996 269.328 494.3 269.328C497.004 269.328 498.46 271.28 498.46 273.68C498.46 276.608 496.684 278.176 494.3 278.176ZM494.3 277.024C496.108 277.024 497.1 275.52 497.1 273.68C497.1 271.776 495.996 270.48 494.3 270.48C492.604 270.48 491.5 271.776 491.5 273.68C491.5 275.856 492.764 277.024 494.3 277.024ZM502.251 278H500.923V270.64H499.355V269.52H500.923V268.336C500.923 266.816 501.771 266 503.339 266H505.227V267.12H503.339C502.635 267.12 502.251 267.552 502.251 268.336V269.52H505.707V268.336C505.707 266.816 506.555 266 508.123 266H510.011V267.12H508.123C507.419 267.12 507.035 267.552 507.035 268.336V269.52H509.787V270.64H507.035V278H505.707V270.64H502.251V278ZM514.707 278.176C512.195 278.176 510.531 276.336 510.531 273.792C510.531 270.896 512.403 269.328 514.547 269.328C516.883 269.328 518.387 270.896 518.435 273.616V273.984H511.859C511.939 275.792 512.995 277.024 514.707 277.024C515.891 277.024 516.755 276.432 517.107 275.328H518.403C518.019 277.072 516.643 278.176 514.707 278.176ZM511.939 272.88H517.043C516.803 271.392 515.907 270.48 514.547 270.48C513.203 270.48 512.211 271.36 511.939 272.88ZM521.51 278H520.182V269.52H521.238L521.398 271.136C521.942 270.048 522.934 269.472 524.342 269.472H524.63V270.784H524.342C522.55 270.784 521.51 271.808 521.51 273.552V278ZM529.131 278.176C527.115 278.176 525.627 277.12 525.515 275.328H526.811C526.907 276.432 527.915 277.04 529.195 277.04C530.395 277.04 530.971 276.576 530.971 275.728C530.971 274.928 530.347 274.752 529.467 274.448L528.235 274.032C526.987 273.616 525.739 273.232 525.739 271.696C525.739 270.256 526.859 269.328 528.715 269.328C530.587 269.328 531.883 270.336 532.091 272.224H530.795C530.651 271.04 529.819 270.464 528.667 270.464C527.627 270.464 527.019 270.928 527.019 271.664C527.019 272.544 527.947 272.72 528.651 272.96L529.803 273.344C531.355 273.856 532.283 274.384 532.283 275.792C532.283 277.28 531.195 278.176 529.131 278.176ZM537.66 278.176C535.148 278.176 533.484 276.336 533.484 273.792C533.484 270.896 535.356 269.328 537.5 269.328C539.836 269.328 541.34 270.896 541.388 273.616V273.984H534.812C534.892 275.792 535.948 277.024 537.66 277.024C538.844 277.024 539.708 276.432 540.06 275.328H541.356C540.972 277.072 539.596 278.176 537.66 278.176ZM534.892 272.88H539.996C539.756 271.392 538.86 270.48 537.5 270.48C536.156 270.48 535.164 271.36 534.892 272.88ZM544.463 278H543.135V269.52H544.191L544.319 270.816C544.895 269.92 545.999 269.328 547.263 269.328C549.087 269.328 550.303 270.512 550.303 272.384V278H548.975V272.432C548.975 271.248 548.207 270.496 546.927 270.496C545.407 270.496 544.479 271.552 544.463 272.848V278Z" fill="#481125"/>
<defs>
<clipPath id="clip0_621_2577">
<rect width="8" height="8" fill="white" transform="translate(38 38)"/>
</clipPath>
<clipPath id="clip1_621_2577">
<rect width="20" height="20" fill="white" transform="translate(60 153.5)"/>
</clipPath>
<clipPath id="clip2_621_2577">
<rect width="20" height="20" fill="white" transform="translate(60 228.5)"/>
</clipPath>
<clipPath id="clip3_621_2577">
<rect width="20" height="20" fill="white" transform="translate(427.5 153.5)"/>
</clipPath>
</defs>
</svg>
