<svg width="735" height="302" viewBox="0 0 735 302" fill="none" xmlns="http://www.w3.org/2000/svg">
<rect width="735" height="302" rx="24" fill="white"/>
<mask id="path-2-inside-1_616_2352" fill="white">
<path d="M20 65C20 60.5817 23.5817 57 28 57H347.5C351.918 57 355.5 60.5817 355.5 65V98H20V65Z"/>
</mask>
<path d="M20 57H355.5H20ZM355.5 99H20V97H355.5V99ZM20 98V57V98ZM355.5 57V98V57Z" fill="#481125" mask="url(#path-2-inside-1_616_2352)"/>
<path d="M39.152 82H31.36V70.8H39.008V72.032H32.688V75.568H38.368V76.768H32.688V80.768H39.152V82ZM47.5055 77.584H40.6575V76.464H47.5055V77.584ZM50.6668 85.2H49.3388V73.52H50.3948L50.5388 75.056C51.1468 74 52.2668 73.328 53.6428 73.328C55.8828 73.328 57.4508 75.12 57.4508 77.712C57.4508 80.352 55.8828 82.176 53.6428 82.176C52.3468 82.176 51.2748 81.584 50.6668 80.592V85.2ZM53.4348 81.024C55.0028 81.024 56.0748 79.664 56.0748 77.712C56.0748 75.808 55.0028 74.48 53.4188 74.48C51.8188 74.48 50.6668 75.776 50.6668 77.648C50.6668 79.632 51.8188 81.024 53.4348 81.024ZM62.9254 82.176C60.2054 82.176 58.7654 80.24 58.7654 77.68C58.7654 74.848 60.6214 73.328 62.9254 73.328C65.6294 73.328 67.0854 75.28 67.0854 77.68C67.0854 80.608 65.3094 82.176 62.9254 82.176ZM62.9254 81.024C64.7334 81.024 65.7254 79.52 65.7254 77.68C65.7254 75.776 64.6214 74.48 62.9254 74.48C61.2294 74.48 60.1254 75.776 60.1254 77.68C60.1254 79.856 61.3894 81.024 62.9254 81.024ZM71.9904 82.176C69.9744 82.176 68.4864 81.12 68.3744 79.328H69.6704C69.7664 80.432 70.7744 81.04 72.0544 81.04C73.2544 81.04 73.8304 80.576 73.8304 79.728C73.8304 78.928 73.2064 78.752 72.3264 78.448L71.0944 78.032C69.8464 77.616 68.5984 77.232 68.5984 75.696C68.5984 74.256 69.7184 73.328 71.5744 73.328C73.4464 73.328 74.7424 74.336 74.9504 76.224H73.6544C73.5104 75.04 72.6784 74.464 71.5264 74.464C70.4864 74.464 69.8784 74.928 69.8784 75.664C69.8784 76.544 70.8064 76.72 71.5104 76.96L72.6624 77.344C74.2144 77.856 75.1424 78.384 75.1424 79.792C75.1424 81.28 74.0544 82.176 71.9904 82.176ZM80.9728 82H80.0288C78.3808 82 77.5008 81.152 77.5008 79.584V74.64H75.9328V73.52H77.5008V70.624H78.8288V73.52H81.1168V74.64H78.8288V79.584C78.8288 80.432 79.2448 80.88 80.0288 80.88H80.9728V82Z" fill="#A35E70"/>
<path d="M22.028 115H21.02V106.6H26.744V107.524H22.028V110.248H26.384V111.172H22.028V115ZM30.8542 115.132C28.8142 115.132 27.7342 113.68 27.7342 111.76C27.7342 109.636 29.1262 108.496 30.8542 108.496C32.8822 108.496 33.9742 109.96 33.9742 111.76C33.9742 113.956 32.6422 115.132 30.8542 115.132ZM30.8542 114.268C32.2102 114.268 32.9542 113.14 32.9542 111.76C32.9542 110.332 32.1262 109.36 30.8542 109.36C29.5822 109.36 28.7542 110.332 28.7542 111.76C28.7542 113.392 29.7022 114.268 30.8542 114.268ZM36.2729 115H35.2769V108.64H36.0689L36.1889 109.852C36.5969 109.036 37.3409 108.604 38.3969 108.604H38.6129V109.588H38.3969C37.0529 109.588 36.2729 110.356 36.2729 111.664V115ZM40.7495 115H39.7535V108.64H40.5455L40.6415 109.624C41.0735 108.94 41.9015 108.496 42.8135 108.496C43.7735 108.496 44.4935 108.988 44.8175 109.756C45.2255 109.012 46.1015 108.496 47.0735 108.496C48.4175 108.496 49.2815 109.444 49.2815 110.74V115H48.2855V110.776C48.2855 109.924 47.7575 109.372 46.9055 109.372C45.7175 109.372 45.0215 110.164 45.0095 111.136V115H44.0255V110.776C44.0255 109.924 43.4975 109.372 42.6455 109.372C41.4575 109.372 40.7615 110.164 40.7495 111.136V115ZM52.8914 115.096C51.4514 115.096 50.5274 114.352 50.5274 113.188C50.5274 111.724 51.9434 111.448 53.2154 111.316C54.1874 111.22 55.0274 111.232 55.0394 110.716C55.0274 109.912 54.3674 109.348 53.4074 109.348C52.4834 109.348 51.7634 109.864 51.6554 110.62H50.6714C50.7914 109.372 51.9194 108.496 53.4314 108.496C55.0034 108.496 56.0114 109.432 56.0114 110.776V113.872C56.0114 114.076 56.1194 114.184 56.3354 114.184H56.6954V115H56.1314C55.4474 115 55.0874 114.688 55.0874 114.1V113.908C54.7154 114.64 53.9954 115.096 52.8914 115.096ZM53.0354 114.244C54.2234 114.244 55.0394 113.488 55.0394 112.432V111.604C54.7634 111.976 54.0554 112.048 53.2754 112.132C52.3994 112.228 51.5234 112.348 51.5234 113.164C51.5234 113.824 52.1234 114.244 53.0354 114.244ZM60.96 115H60.252C59.016 115 58.356 114.364 58.356 113.188V109.48H57.18V108.64H58.356V106.468H59.352V108.64H61.068V109.48H59.352V113.188C59.352 113.824 59.664 114.16 60.252 114.16H60.96V115ZM62.7818 109.996C62.3498 109.996 62.0258 109.672 62.0258 109.24C62.0258 108.82 62.3498 108.496 62.7818 108.496C63.2138 108.496 63.5378 108.82 63.5378 109.24C63.5378 109.672 63.2138 109.996 62.7818 109.996ZM62.7818 115.12C62.3498 115.12 62.0258 114.796 62.0258 114.364C62.0258 113.944 62.3498 113.62 62.7818 113.62C63.2138 113.62 63.5378 113.944 63.5378 114.364C63.5378 114.796 63.2138 115.12 62.7818 115.12ZM68.6401 115H67.6441V108.64H68.4361L68.5321 109.612C68.9641 108.94 69.7921 108.496 70.7401 108.496C72.1081 108.496 73.0201 109.384 73.0201 110.788V115H72.0241V110.824C72.0241 109.936 71.4481 109.372 70.4881 109.372C69.3481 109.372 68.6521 110.164 68.6401 111.136V115ZM76.6336 115.096C75.1936 115.096 74.2696 114.352 74.2696 113.188C74.2696 111.724 75.6856 111.448 76.9576 111.316C77.9296 111.22 78.7696 111.232 78.7816 110.716C78.7696 109.912 78.1096 109.348 77.1496 109.348C76.2256 109.348 75.5056 109.864 75.3976 110.62H74.4136C74.5336 109.372 75.6616 108.496 77.1736 108.496C78.7456 108.496 79.7536 109.432 79.7536 110.776V113.872C79.7536 114.076 79.8616 114.184 80.0776 114.184H80.4376V115H79.8736C79.1896 115 78.8296 114.688 78.8296 114.1V113.908C78.4576 114.64 77.7376 115.096 76.6336 115.096ZM76.7776 114.244C77.9656 114.244 78.7816 113.488 78.7816 112.432V111.604C78.5056 111.976 77.7976 112.048 77.0176 112.132C76.1416 112.228 75.2656 112.348 75.2656 113.164C75.2656 113.824 75.8656 114.244 76.7776 114.244ZM84.3696 115H83.3256L80.6736 108.64H81.7536L83.8536 113.836L85.9416 108.64H87.0216L84.3696 115ZM89.0776 115H88.0816V108.64H88.8736L88.9696 109.612C89.4016 108.94 90.2296 108.496 91.1776 108.496C92.5456 108.496 93.4576 109.384 93.4576 110.788V115H92.4616V110.824C92.4616 109.936 91.8856 109.372 90.9256 109.372C89.7856 109.372 89.0896 110.164 89.0776 111.136V115ZM99.8671 116.224C96.8671 116.224 94.9111 114.52 94.9111 111.736C94.9111 108.88 96.9271 106.828 99.8071 106.828C102.435 106.828 104.259 108.58 104.259 111.088C104.259 112.792 103.431 113.968 102.219 113.968C101.487 113.968 101.019 113.536 101.019 112.9C100.635 113.56 99.9871 113.968 99.1711 113.968C97.9711 113.968 97.1791 113.068 97.1791 111.772C97.1791 110.176 98.2471 108.964 99.5791 108.964C100.359 108.964 100.983 109.384 101.283 110.008L101.487 109.132H101.967L101.607 112.552C101.559 113.044 101.787 113.368 102.243 113.368C103.023 113.368 103.563 112.432 103.563 111.136C103.563 108.976 102.027 107.524 99.8191 107.524C97.3711 107.524 95.6671 109.3 95.6671 111.724C95.6671 114.1 97.3231 115.54 99.9151 115.54C100.863 115.54 101.691 115.348 102.435 114.976V115.732C101.703 116.044 100.851 116.224 99.8671 116.224ZM99.3151 113.308C100.215 113.308 100.887 112.528 100.995 111.46C101.115 110.38 100.539 109.624 99.6391 109.624C98.6671 109.624 97.9231 110.524 97.9231 111.712C97.9231 112.648 98.4751 113.308 99.3151 113.308ZM108.275 115.132C106.571 115.132 105.383 113.764 105.383 111.784C105.383 109.84 106.559 108.496 108.263 108.496C109.223 108.496 110.027 108.916 110.483 109.588V106H111.479V115H110.687L110.579 113.776C110.159 114.604 109.319 115.132 108.275 115.132ZM108.431 114.268C109.643 114.268 110.483 113.236 110.483 111.76C110.483 110.332 109.667 109.348 108.491 109.348C107.267 109.348 106.415 110.344 106.415 111.784C106.415 113.248 107.243 114.268 108.431 114.268ZM115.944 115.132C113.904 115.132 112.824 113.68 112.824 111.76C112.824 109.636 114.216 108.496 115.944 108.496C117.972 108.496 119.064 109.96 119.064 111.76C119.064 113.956 117.732 115.132 115.944 115.132ZM115.944 114.268C117.3 114.268 118.044 113.14 118.044 111.76C118.044 110.332 117.216 109.36 115.944 109.36C114.672 109.36 113.844 110.332 113.844 111.76C113.844 113.392 114.792 114.268 115.944 114.268ZM121.363 115H120.367V108.64H121.159L121.255 109.624C121.687 108.94 122.515 108.496 123.427 108.496C124.387 108.496 125.107 108.988 125.431 109.756C125.839 109.012 126.715 108.496 127.687 108.496C129.031 108.496 129.895 109.444 129.895 110.74V115H128.899V110.776C128.899 109.924 128.371 109.372 127.519 109.372C126.331 109.372 125.635 110.164 125.623 111.136V115H124.639V110.776C124.639 109.924 124.111 109.372 123.259 109.372C122.071 109.372 121.375 110.164 121.363 111.136V115ZM134.261 115.132C132.377 115.132 131.129 113.752 131.129 111.844C131.129 109.672 132.533 108.496 134.141 108.496C135.893 108.496 137.021 109.672 137.057 111.712V111.988H132.125C132.185 113.344 132.977 114.268 134.261 114.268C135.149 114.268 135.797 113.824 136.061 112.996H137.033C136.745 114.304 135.713 115.132 134.261 115.132ZM132.185 111.16H136.013C135.833 110.044 135.161 109.36 134.141 109.36C133.133 109.36 132.389 110.02 132.185 111.16ZM139.363 115H138.367V108.64H139.159L139.255 109.612C139.687 108.94 140.515 108.496 141.463 108.496C142.831 108.496 143.743 109.384 143.743 110.788V115H142.747V110.824C142.747 109.936 142.171 109.372 141.211 109.372C140.071 109.372 139.375 110.164 139.363 111.136V115ZM148.112 115.132C146.228 115.132 144.98 113.752 144.98 111.844C144.98 109.672 146.384 108.496 147.992 108.496C149.744 108.496 150.872 109.672 150.908 111.712V111.988H145.976C146.036 113.344 146.828 114.268 148.112 114.268C149 114.268 149.648 113.824 149.912 112.996H150.884C150.596 114.304 149.564 115.132 148.112 115.132ZM146.036 111.16H149.864C149.684 110.044 149.012 109.36 147.992 109.36C146.984 109.36 146.24 110.02 146.036 111.16ZM152.758 115.12C152.326 115.12 152.002 114.796 152.002 114.364C152.002 113.944 152.326 113.62 152.758 113.62C153.19 113.62 153.514 113.944 153.514 114.364C153.514 114.796 153.19 115.12 152.758 115.12ZM157.769 115.132C155.705 115.132 154.601 113.62 154.601 111.784C154.601 109.648 156.005 108.496 157.733 108.496C159.329 108.496 160.469 109.456 160.649 111.088H159.677C159.509 110.032 158.777 109.36 157.709 109.36C156.449 109.36 155.609 110.284 155.609 111.784C155.609 113.404 156.593 114.268 157.781 114.268C158.801 114.268 159.497 113.62 159.677 112.516H160.649C160.469 114.16 159.413 115.132 157.769 115.132ZM164.753 115.132C162.713 115.132 161.633 113.68 161.633 111.76C161.633 109.636 163.025 108.496 164.753 108.496C166.781 108.496 167.873 109.96 167.873 111.76C167.873 113.956 166.541 115.132 164.753 115.132ZM164.753 114.268C166.109 114.268 166.853 113.14 166.853 111.76C166.853 110.332 166.025 109.36 164.753 109.36C163.481 109.36 162.653 110.332 162.653 111.76C162.653 113.392 163.601 114.268 164.753 114.268ZM170.171 115H169.175V108.64H169.967L170.063 109.624C170.495 108.94 171.323 108.496 172.235 108.496C173.195 108.496 173.915 108.988 174.239 109.756C174.647 109.012 175.523 108.496 176.495 108.496C177.839 108.496 178.703 109.444 178.703 110.74V115H177.707V110.776C177.707 109.924 177.179 109.372 176.327 109.372C175.139 109.372 174.443 110.164 174.431 111.136V115H173.447V110.776C173.447 109.924 172.919 109.372 172.067 109.372C170.879 109.372 170.183 110.164 170.171 111.136V115ZM180.801 115.12C180.369 115.12 180.045 114.796 180.045 114.364C180.045 113.944 180.369 113.62 180.801 113.62C181.233 113.62 181.557 113.944 181.557 114.364C181.557 114.796 181.233 115.12 180.801 115.12Z" fill="#481125"/>
<mask id="path-6-inside-2_616_2352" fill="white">
<path d="M379.5 44C379.5 39.5817 383.082 36 387.5 36H707C711.418 36 715 39.5817 715 44V97H379.5V44Z"/>
</mask>
<path d="M379.5 44C379.5 39.5817 383.082 36 387.5 36H707C711.418 36 715 39.5817 715 44V97H379.5V44Z" fill="#F9EAED"/>
<path d="M379.5 36H715H379.5ZM715 99H379.5V95H715V99ZM379.5 97V36V97ZM715 36V97V36Z" fill="#481125" mask="url(#path-6-inside-2_616_2352)"/>
<path d="M396.364 57H390.52V48.6H396.256V49.524H391.516V52.176H395.776V53.076H391.516V56.076H396.364V57ZM402.629 53.688H397.493V52.848H402.629V53.688ZM405 59.4H404.004V50.64H404.796L404.904 51.792C405.36 51 406.2 50.496 407.232 50.496C408.912 50.496 410.088 51.84 410.088 53.784C410.088 55.764 408.912 57.132 407.232 57.132C406.26 57.132 405.456 56.688 405 55.944V59.4ZM407.076 56.268C408.252 56.268 409.056 55.248 409.056 53.784C409.056 52.356 408.252 51.36 407.064 51.36C405.864 51.36 405 52.332 405 53.736C405 55.224 405.864 56.268 407.076 56.268ZM414.194 57.132C412.154 57.132 411.074 55.68 411.074 53.76C411.074 51.636 412.466 50.496 414.194 50.496C416.222 50.496 417.314 51.96 417.314 53.76C417.314 55.956 415.982 57.132 414.194 57.132ZM414.194 56.268C415.55 56.268 416.294 55.14 416.294 53.76C416.294 52.332 415.466 51.36 414.194 51.36C412.922 51.36 412.094 52.332 412.094 53.76C412.094 55.392 413.042 56.268 414.194 56.268ZM420.993 57.132C419.481 57.132 418.365 56.34 418.281 54.996H419.253C419.325 55.824 420.081 56.28 421.041 56.28C421.941 56.28 422.373 55.932 422.373 55.296C422.373 54.696 421.905 54.564 421.245 54.336L420.321 54.024C419.385 53.712 418.449 53.424 418.449 52.272C418.449 51.192 419.289 50.496 420.681 50.496C422.085 50.496 423.057 51.252 423.213 52.668H422.241C422.133 51.78 421.509 51.348 420.645 51.348C419.865 51.348 419.409 51.696 419.409 52.248C419.409 52.908 420.105 53.04 420.633 53.22L421.497 53.508C422.661 53.892 423.357 54.288 423.357 55.344C423.357 56.46 422.541 57.132 420.993 57.132ZM427.73 57H427.022C425.786 57 425.126 56.364 425.126 55.188V51.48H423.95V50.64H425.126V48.468H426.122V50.64H427.838V51.48H426.122V55.188C426.122 55.824 426.434 56.16 427.022 56.16H427.73V57Z" fill="#481125"/>
<path d="M391.964 81H390.636V69H391.964V73.608C392.572 72.84 393.612 72.328 394.764 72.328C396.588 72.328 397.804 73.512 397.804 75.384V81H396.476V75.432C396.476 74.248 395.708 73.496 394.508 73.496C392.908 73.496 391.98 74.552 391.964 75.848V81ZM403.629 81.176C401.117 81.176 399.453 79.336 399.453 76.792C399.453 73.896 401.325 72.328 403.469 72.328C405.805 72.328 407.309 73.896 407.357 76.616V76.984H400.781C400.861 78.792 401.917 80.024 403.629 80.024C404.813 80.024 405.677 79.432 406.029 78.328H407.325C406.941 80.072 405.565 81.176 403.629 81.176ZM400.861 75.88H405.965C405.725 74.392 404.829 73.48 403.469 73.48C402.125 73.48 401.133 74.36 400.861 75.88ZM409.776 71.096C409.216 71.096 408.784 70.664 408.784 70.104C408.784 69.544 409.216 69.128 409.776 69.128C410.336 69.128 410.752 69.544 410.752 70.104C410.752 70.664 410.336 71.096 409.776 71.096ZM410.432 81H409.104V72.52H410.432V81ZM419.068 82.632C415.068 82.632 412.46 80.36 412.46 76.648C412.46 72.84 415.148 70.104 418.988 70.104C422.492 70.104 424.924 72.44 424.924 75.784C424.924 78.056 423.82 79.624 422.204 79.624C421.228 79.624 420.604 79.048 420.604 78.2C420.092 79.08 419.228 79.624 418.14 79.624C416.54 79.624 415.484 78.424 415.484 76.696C415.484 74.568 416.908 72.952 418.684 72.952C419.724 72.952 420.556 73.512 420.956 74.344L421.228 73.176H421.868L421.388 77.736C421.324 78.392 421.628 78.824 422.236 78.824C423.276 78.824 423.996 77.576 423.996 75.848C423.996 72.968 421.948 71.032 419.004 71.032C415.74 71.032 413.468 73.4 413.468 76.632C413.468 79.8 415.676 81.72 419.132 81.72C420.396 81.72 421.5 81.464 422.492 80.968V81.976C421.516 82.392 420.38 82.632 419.068 82.632ZM418.332 78.744C419.532 78.744 420.428 77.704 420.572 76.28C420.732 74.84 419.964 73.832 418.764 73.832C417.468 73.832 416.476 75.032 416.476 76.616C416.476 77.864 417.212 78.744 418.332 78.744ZM430.598 81.176C428.086 81.176 426.422 79.336 426.422 76.792C426.422 73.896 428.294 72.328 430.438 72.328C432.774 72.328 434.278 73.896 434.326 76.616V76.984H427.75C427.83 78.792 428.886 80.024 430.598 80.024C431.782 80.024 432.646 79.432 432.998 78.328H434.294C433.91 80.072 432.534 81.176 430.598 81.176ZM427.83 75.88H432.934C432.694 74.392 431.798 73.48 430.438 73.48C429.094 73.48 428.102 74.36 427.83 75.88ZM437.432 84.2H436.104V72.52H437.16L437.304 74.056C437.912 73 439.032 72.328 440.408 72.328C442.648 72.328 444.216 74.12 444.216 76.712C444.216 79.352 442.648 81.176 440.408 81.176C439.112 81.176 438.04 80.584 437.432 79.592V84.2ZM440.2 80.024C441.768 80.024 442.84 78.664 442.84 76.712C442.84 74.808 441.768 73.48 440.184 73.48C438.584 73.48 437.432 74.776 437.432 76.648C437.432 78.632 438.584 80.024 440.2 80.024ZM449.691 81.176C446.971 81.176 445.531 79.24 445.531 76.68C445.531 73.848 447.387 72.328 449.691 72.328C452.395 72.328 453.851 74.28 453.851 76.68C453.851 79.608 452.075 81.176 449.691 81.176ZM449.691 80.024C451.499 80.024 452.491 78.52 452.491 76.68C452.491 74.776 451.387 73.48 449.691 73.48C447.995 73.48 446.891 74.776 446.891 76.68C446.891 78.856 448.155 80.024 449.691 80.024ZM458.756 81.176C456.74 81.176 455.252 80.12 455.14 78.328H456.436C456.532 79.432 457.54 80.04 458.82 80.04C460.02 80.04 460.596 79.576 460.596 78.728C460.596 77.928 459.972 77.752 459.092 77.448L457.86 77.032C456.612 76.616 455.364 76.232 455.364 74.696C455.364 73.256 456.484 72.328 458.34 72.328C460.212 72.328 461.508 73.336 461.716 75.224H460.42C460.276 74.04 459.444 73.464 458.292 73.464C457.252 73.464 456.644 73.928 456.644 74.664C456.644 75.544 457.572 75.72 458.276 75.96L459.428 76.344C460.98 76.856 461.908 77.384 461.908 78.792C461.908 80.28 460.82 81.176 458.756 81.176ZM467.738 81H466.794C465.146 81 464.266 80.152 464.266 78.584V73.64H462.698V72.52H464.266V69.624H465.594V72.52H467.882V73.64H465.594V78.584C465.594 79.432 466.01 79.88 466.794 79.88H467.738V81ZM470.167 81.16C469.591 81.16 469.159 80.728 469.159 80.152C469.159 79.592 469.591 79.16 470.167 79.16C470.743 79.16 471.175 79.592 471.175 80.152C471.175 80.728 470.743 81.16 470.167 81.16ZM476.849 81.176C474.097 81.176 472.625 79.16 472.625 76.712C472.625 73.864 474.497 72.328 476.801 72.328C478.929 72.328 480.449 73.608 480.689 75.784H479.393C479.169 74.376 478.193 73.48 476.769 73.48C475.089 73.48 473.969 74.712 473.969 76.712C473.969 78.872 475.281 80.024 476.865 80.024C478.225 80.024 479.153 79.16 479.393 77.688H480.689C480.449 79.88 479.041 81.176 476.849 81.176ZM486.16 81.176C483.44 81.176 482 79.24 482 76.68C482 73.848 483.856 72.328 486.16 72.328C488.864 72.328 490.32 74.28 490.32 76.68C490.32 79.608 488.544 81.176 486.16 81.176ZM486.16 80.024C487.968 80.024 488.96 78.52 488.96 76.68C488.96 74.776 487.856 73.48 486.16 73.48C484.464 73.48 483.36 74.776 483.36 76.68C483.36 78.856 484.624 80.024 486.16 80.024ZM493.385 81H492.057V72.52H493.113L493.241 73.832C493.817 72.92 494.921 72.328 496.137 72.328C497.417 72.328 498.377 72.984 498.809 74.008C499.353 73.016 500.521 72.328 501.817 72.328C503.609 72.328 504.761 73.592 504.761 75.32V81H503.433V75.368C503.433 74.232 502.729 73.496 501.593 73.496C500.009 73.496 499.081 74.552 499.065 75.848V81H497.753V75.368C497.753 74.232 497.049 73.496 495.913 73.496C494.329 73.496 493.401 74.552 493.385 75.848V81Z" fill="#481125"/>
<path d="M381.528 114H380.52V105.6H386.244V106.524H381.528V109.248H385.884V110.172H381.528V114ZM390.354 114.132C388.314 114.132 387.234 112.68 387.234 110.76C387.234 108.636 388.626 107.496 390.354 107.496C392.382 107.496 393.474 108.96 393.474 110.76C393.474 112.956 392.142 114.132 390.354 114.132ZM390.354 113.268C391.71 113.268 392.454 112.14 392.454 110.76C392.454 109.332 391.626 108.36 390.354 108.36C389.082 108.36 388.254 109.332 388.254 110.76C388.254 112.392 389.202 113.268 390.354 113.268ZM395.773 114H394.777V107.64H395.569L395.689 108.852C396.097 108.036 396.841 107.604 397.897 107.604H398.113V108.588H397.897C396.553 108.588 395.773 109.356 395.773 110.664V114ZM400.25 114H399.254V107.64H400.046L400.142 108.624C400.574 107.94 401.402 107.496 402.314 107.496C403.274 107.496 403.994 107.988 404.318 108.756C404.726 108.012 405.602 107.496 406.574 107.496C407.918 107.496 408.782 108.444 408.782 109.74V114H407.786V109.776C407.786 108.924 407.258 108.372 406.406 108.372C405.217 108.372 404.522 109.164 404.51 110.136V114H403.526V109.776C403.526 108.924 402.998 108.372 402.146 108.372C400.958 108.372 400.262 109.164 400.25 110.136V114ZM412.391 114.096C410.951 114.096 410.027 113.352 410.027 112.188C410.027 110.724 411.443 110.448 412.715 110.316C413.687 110.22 414.527 110.232 414.539 109.716C414.527 108.912 413.867 108.348 412.907 108.348C411.983 108.348 411.263 108.864 411.155 109.62H410.171C410.291 108.372 411.419 107.496 412.931 107.496C414.503 107.496 415.511 108.432 415.511 109.776V112.872C415.511 113.076 415.619 113.184 415.835 113.184H416.195V114H415.631C414.947 114 414.587 113.688 414.587 113.1V112.908C414.215 113.64 413.495 114.096 412.391 114.096ZM412.535 113.244C413.723 113.244 414.539 112.488 414.539 111.432V110.604C414.263 110.976 413.555 111.048 412.775 111.132C411.899 111.228 411.023 111.348 411.023 112.164C411.023 112.824 411.623 113.244 412.535 113.244ZM420.46 114H419.752C418.516 114 417.856 113.364 417.856 112.188V108.48H416.68V107.64H417.856V105.468H418.852V107.64H420.568V108.48H418.852V112.188C418.852 112.824 419.164 113.16 419.752 113.16H420.46V114ZM422.282 108.996C421.85 108.996 421.526 108.672 421.526 108.24C421.526 107.82 421.85 107.496 422.282 107.496C422.714 107.496 423.038 107.82 423.038 108.24C423.038 108.672 422.714 108.996 422.282 108.996ZM422.282 114.12C421.85 114.12 421.526 113.796 421.526 113.364C421.526 112.944 421.85 112.62 422.282 112.62C422.714 112.62 423.038 112.944 423.038 113.364C423.038 113.796 422.714 114.12 422.282 114.12ZM428.14 114H427.144V107.64H427.936L428.032 108.612C428.464 107.94 429.292 107.496 430.24 107.496C431.608 107.496 432.52 108.384 432.52 109.788V114H431.524V109.824C431.524 108.936 430.948 108.372 429.988 108.372C428.848 108.372 428.152 109.164 428.14 110.136V114ZM436.134 114.096C434.694 114.096 433.77 113.352 433.77 112.188C433.77 110.724 435.186 110.448 436.458 110.316C437.43 110.22 438.27 110.232 438.282 109.716C438.27 108.912 437.61 108.348 436.65 108.348C435.726 108.348 435.006 108.864 434.898 109.62H433.914C434.034 108.372 435.162 107.496 436.674 107.496C438.246 107.496 439.254 108.432 439.254 109.776V112.872C439.254 113.076 439.362 113.184 439.578 113.184H439.938V114H439.374C438.69 114 438.33 113.688 438.33 113.1V112.908C437.958 113.64 437.238 114.096 436.134 114.096ZM436.278 113.244C437.466 113.244 438.282 112.488 438.282 111.432V110.604C438.006 110.976 437.298 111.048 436.518 111.132C435.642 111.228 434.766 111.348 434.766 112.164C434.766 112.824 435.366 113.244 436.278 113.244ZM443.87 114H442.826L440.174 107.64H441.254L443.354 112.836L445.442 107.64H446.522L443.87 114ZM448.578 114H447.582V107.64H448.374L448.47 108.612C448.902 107.94 449.73 107.496 450.678 107.496C452.046 107.496 452.958 108.384 452.958 109.788V114H451.962V109.824C451.962 108.936 451.386 108.372 450.426 108.372C449.286 108.372 448.59 109.164 448.578 110.136V114ZM459.367 115.224C456.367 115.224 454.411 113.52 454.411 110.736C454.411 107.88 456.427 105.828 459.307 105.828C461.935 105.828 463.759 107.58 463.759 110.088C463.759 111.792 462.931 112.968 461.719 112.968C460.987 112.968 460.519 112.536 460.519 111.9C460.135 112.56 459.487 112.968 458.671 112.968C457.471 112.968 456.679 112.068 456.679 110.772C456.679 109.176 457.747 107.964 459.079 107.964C459.859 107.964 460.483 108.384 460.783 109.008L460.987 108.132H461.467L461.107 111.552C461.059 112.044 461.287 112.368 461.743 112.368C462.523 112.368 463.063 111.432 463.063 110.136C463.063 107.976 461.527 106.524 459.319 106.524C456.871 106.524 455.167 108.3 455.167 110.724C455.167 113.1 456.823 114.54 459.415 114.54C460.363 114.54 461.191 114.348 461.935 113.976V114.732C461.203 115.044 460.351 115.224 459.367 115.224ZM458.815 112.308C459.715 112.308 460.387 111.528 460.495 110.46C460.615 109.38 460.039 108.624 459.139 108.624C458.167 108.624 457.423 109.524 457.423 110.712C457.423 111.648 457.975 112.308 458.815 112.308ZM467.775 114.132C466.071 114.132 464.883 112.764 464.883 110.784C464.883 108.84 466.059 107.496 467.763 107.496C468.723 107.496 469.527 107.916 469.983 108.588V105H470.979V114H470.187L470.079 112.776C469.659 113.604 468.819 114.132 467.775 114.132ZM467.931 113.268C469.143 113.268 469.983 112.236 469.983 110.76C469.983 109.332 469.167 108.348 467.991 108.348C466.767 108.348 465.915 109.344 465.915 110.784C465.915 112.248 466.743 113.268 467.931 113.268ZM475.444 114.132C473.404 114.132 472.324 112.68 472.324 110.76C472.324 108.636 473.716 107.496 475.444 107.496C477.472 107.496 478.564 108.96 478.564 110.76C478.564 112.956 477.232 114.132 475.444 114.132ZM475.444 113.268C476.8 113.268 477.544 112.14 477.544 110.76C477.544 109.332 476.716 108.36 475.444 108.36C474.172 108.36 473.344 109.332 473.344 110.76C473.344 112.392 474.292 113.268 475.444 113.268ZM480.863 114H479.867V107.64H480.659L480.755 108.624C481.187 107.94 482.015 107.496 482.927 107.496C483.887 107.496 484.607 107.988 484.931 108.756C485.339 108.012 486.215 107.496 487.187 107.496C488.531 107.496 489.395 108.444 489.395 109.74V114H488.399V109.776C488.399 108.924 487.871 108.372 487.019 108.372C485.831 108.372 485.135 109.164 485.123 110.136V114H484.139V109.776C484.139 108.924 483.611 108.372 482.759 108.372C481.571 108.372 480.875 109.164 480.863 110.136V114ZM493.761 114.132C491.877 114.132 490.629 112.752 490.629 110.844C490.629 108.672 492.033 107.496 493.641 107.496C495.393 107.496 496.521 108.672 496.557 110.712V110.988H491.625C491.685 112.344 492.477 113.268 493.761 113.268C494.649 113.268 495.297 112.824 495.561 111.996H496.533C496.245 113.304 495.213 114.132 493.761 114.132ZM491.685 110.16H495.513C495.333 109.044 494.661 108.36 493.641 108.36C492.633 108.36 491.889 109.02 491.685 110.16ZM498.863 114H497.867V107.64H498.659L498.755 108.612C499.187 107.94 500.015 107.496 500.963 107.496C502.331 107.496 503.243 108.384 503.243 109.788V114H502.247V109.824C502.247 108.936 501.671 108.372 500.711 108.372C499.571 108.372 498.875 109.164 498.863 110.136V114ZM507.612 114.132C505.728 114.132 504.48 112.752 504.48 110.844C504.48 108.672 505.884 107.496 507.492 107.496C509.244 107.496 510.372 108.672 510.408 110.712V110.988H505.476C505.536 112.344 506.328 113.268 507.612 113.268C508.5 113.268 509.148 112.824 509.412 111.996H510.384C510.096 113.304 509.064 114.132 507.612 114.132ZM505.536 110.16H509.364C509.184 109.044 508.512 108.36 507.492 108.36C506.484 108.36 505.74 109.02 505.536 110.16ZM512.258 114.12C511.826 114.12 511.502 113.796 511.502 113.364C511.502 112.944 511.826 112.62 512.258 112.62C512.69 112.62 513.014 112.944 513.014 113.364C513.014 113.796 512.69 114.12 512.258 114.12ZM517.269 114.132C515.205 114.132 514.101 112.62 514.101 110.784C514.101 108.648 515.505 107.496 517.233 107.496C518.829 107.496 519.969 108.456 520.149 110.088H519.177C519.009 109.032 518.277 108.36 517.209 108.36C515.949 108.36 515.109 109.284 515.109 110.784C515.109 112.404 516.093 113.268 517.281 113.268C518.301 113.268 518.997 112.62 519.177 111.516H520.149C519.969 113.16 518.913 114.132 517.269 114.132ZM524.253 114.132C522.213 114.132 521.133 112.68 521.133 110.76C521.133 108.636 522.525 107.496 524.253 107.496C526.281 107.496 527.373 108.96 527.373 110.76C527.373 112.956 526.041 114.132 524.253 114.132ZM524.253 113.268C525.609 113.268 526.353 112.14 526.353 110.76C526.353 109.332 525.525 108.36 524.253 108.36C522.981 108.36 522.153 109.332 522.153 110.76C522.153 112.392 523.101 113.268 524.253 113.268ZM529.671 114H528.675V107.64H529.467L529.563 108.624C529.995 107.94 530.823 107.496 531.735 107.496C532.695 107.496 533.415 107.988 533.739 108.756C534.147 108.012 535.023 107.496 535.995 107.496C537.339 107.496 538.203 108.444 538.203 109.74V114H537.207V109.776C537.207 108.924 536.679 108.372 535.827 108.372C534.639 108.372 533.943 109.164 533.931 110.136V114H532.947V109.776C532.947 108.924 532.419 108.372 531.567 108.372C530.379 108.372 529.683 109.164 529.671 110.136V114ZM540.301 114.12C539.869 114.12 539.545 113.796 539.545 113.364C539.545 112.944 539.869 112.62 540.301 112.62C540.733 112.62 541.057 112.944 541.057 113.364C541.057 113.796 540.733 114.12 540.301 114.12Z" fill="#481125"/>
<mask id="path-11-inside-3_616_2352" fill="white">
<path d="M20 187C20 182.582 23.5817 179 28 179H347.5C351.918 179 355.5 182.582 355.5 187V220H20V187Z"/>
</mask>
<path d="M20 179H355.5H20ZM355.5 221H20V219H355.5V221ZM20 220V179V220ZM355.5 179V220V179Z" fill="#481125" mask="url(#path-11-inside-3_616_2352)"/>
<path d="M32.464 204H31.136V192H32.464V196.608C33.072 195.84 34.112 195.328 35.264 195.328C37.088 195.328 38.304 196.512 38.304 198.384V204H36.976V198.432C36.976 197.248 36.208 196.496 35.008 196.496C33.408 196.496 32.48 197.552 32.464 198.848V204ZM44.1289 204.176C41.6169 204.176 39.9529 202.336 39.9529 199.792C39.9529 196.896 41.8249 195.328 43.9689 195.328C46.3049 195.328 47.8089 196.896 47.8569 199.616V199.984H41.2809C41.3609 201.792 42.4169 203.024 44.1289 203.024C45.3129 203.024 46.1769 202.432 46.5289 201.328H47.8249C47.4409 203.072 46.0649 204.176 44.1289 204.176ZM41.3609 198.88H46.4649C46.2249 197.392 45.3289 196.48 43.9689 196.48C42.6249 196.48 41.6329 197.36 41.3609 198.88ZM50.2756 194.096C49.7156 194.096 49.2836 193.664 49.2836 193.104C49.2836 192.544 49.7156 192.128 50.2756 192.128C50.8356 192.128 51.2516 192.544 51.2516 193.104C51.2516 193.664 50.8356 194.096 50.2756 194.096ZM50.9316 204H49.6036V195.52H50.9316V204ZM59.5676 205.632C55.5676 205.632 52.9596 203.36 52.9596 199.648C52.9596 195.84 55.6476 193.104 59.4876 193.104C62.9916 193.104 65.4236 195.44 65.4236 198.784C65.4236 201.056 64.3196 202.624 62.7036 202.624C61.7276 202.624 61.1036 202.048 61.1036 201.2C60.5916 202.08 59.7276 202.624 58.6396 202.624C57.0396 202.624 55.9836 201.424 55.9836 199.696C55.9836 197.568 57.4076 195.952 59.1836 195.952C60.2236 195.952 61.0556 196.512 61.4556 197.344L61.7276 196.176H62.3676L61.8876 200.736C61.8236 201.392 62.1276 201.824 62.7356 201.824C63.7756 201.824 64.4956 200.576 64.4956 198.848C64.4956 195.968 62.4476 194.032 59.5036 194.032C56.2396 194.032 53.9676 196.4 53.9676 199.632C53.9676 202.8 56.1756 204.72 59.6316 204.72C60.8956 204.72 61.9996 204.464 62.9916 203.968V204.976C62.0156 205.392 60.8796 205.632 59.5676 205.632ZM58.8316 201.744C60.0316 201.744 60.9276 200.704 61.0716 199.28C61.2316 197.84 60.4636 196.832 59.2636 196.832C57.9676 196.832 56.9756 198.032 56.9756 199.616C56.9756 200.864 57.7116 201.744 58.8316 201.744ZM71.0976 204.176C68.5856 204.176 66.9216 202.336 66.9216 199.792C66.9216 196.896 68.7936 195.328 70.9376 195.328C73.2736 195.328 74.7776 196.896 74.8256 199.616V199.984H68.2496C68.3296 201.792 69.3856 203.024 71.0976 203.024C72.2816 203.024 73.1456 202.432 73.4976 201.328H74.7936C74.4096 203.072 73.0336 204.176 71.0976 204.176ZM68.3296 198.88H73.4336C73.1936 197.392 72.2976 196.48 70.9376 196.48C69.5936 196.48 68.6016 197.36 68.3296 198.88ZM77.9324 207.2H76.6044V195.52H77.6604L77.8044 197.056C78.4124 196 79.5324 195.328 80.9084 195.328C83.1484 195.328 84.7164 197.12 84.7164 199.712C84.7164 202.352 83.1484 204.176 80.9084 204.176C79.6124 204.176 78.5404 203.584 77.9324 202.592V207.2ZM80.7004 203.024C82.2684 203.024 83.3404 201.664 83.3404 199.712C83.3404 197.808 82.2684 196.48 80.6844 196.48C79.0844 196.48 77.9324 197.776 77.9324 199.648C77.9324 201.632 79.0844 203.024 80.7004 203.024ZM90.191 204.176C87.471 204.176 86.031 202.24 86.031 199.68C86.031 196.848 87.887 195.328 90.191 195.328C92.895 195.328 94.351 197.28 94.351 199.68C94.351 202.608 92.575 204.176 90.191 204.176ZM90.191 203.024C91.999 203.024 92.991 201.52 92.991 199.68C92.991 197.776 91.887 196.48 90.191 196.48C88.495 196.48 87.391 197.776 87.391 199.68C87.391 201.856 88.655 203.024 90.191 203.024ZM99.256 204.176C97.24 204.176 95.752 203.12 95.64 201.328H96.936C97.032 202.432 98.04 203.04 99.32 203.04C100.52 203.04 101.096 202.576 101.096 201.728C101.096 200.928 100.472 200.752 99.592 200.448L98.36 200.032C97.112 199.616 95.864 199.232 95.864 197.696C95.864 196.256 96.984 195.328 98.84 195.328C100.712 195.328 102.008 196.336 102.216 198.224H100.92C100.776 197.04 99.944 196.464 98.792 196.464C97.752 196.464 97.144 196.928 97.144 197.664C97.144 198.544 98.072 198.72 98.776 198.96L99.928 199.344C101.48 199.856 102.408 200.384 102.408 201.792C102.408 203.28 101.32 204.176 99.256 204.176ZM108.238 204H107.294C105.646 204 104.766 203.152 104.766 201.584V196.64H103.198V195.52H104.766V192.624H106.094V195.52H108.382V196.64H106.094V201.584C106.094 202.432 106.51 202.88 107.294 202.88H108.238V204ZM110.667 204.16C110.091 204.16 109.659 203.728 109.659 203.152C109.659 202.592 110.091 202.16 110.667 202.16C111.243 202.16 111.675 202.592 111.675 203.152C111.675 203.728 111.243 204.16 110.667 204.16ZM117.349 204.176C114.597 204.176 113.125 202.16 113.125 199.712C113.125 196.864 114.997 195.328 117.301 195.328C119.429 195.328 120.949 196.608 121.189 198.784H119.893C119.669 197.376 118.693 196.48 117.269 196.48C115.589 196.48 114.469 197.712 114.469 199.712C114.469 201.872 115.781 203.024 117.365 203.024C118.725 203.024 119.653 202.16 119.893 200.688H121.189C120.949 202.88 119.541 204.176 117.349 204.176ZM126.66 204.176C123.94 204.176 122.5 202.24 122.5 199.68C122.5 196.848 124.356 195.328 126.66 195.328C129.364 195.328 130.82 197.28 130.82 199.68C130.82 202.608 129.044 204.176 126.66 204.176ZM126.66 203.024C128.468 203.024 129.46 201.52 129.46 199.68C129.46 197.776 128.356 196.48 126.66 196.48C124.964 196.48 123.86 197.776 123.86 199.68C123.86 201.856 125.124 203.024 126.66 203.024ZM133.885 204H132.557V195.52H133.613L133.741 196.832C134.317 195.92 135.421 195.328 136.637 195.328C137.917 195.328 138.877 195.984 139.309 197.008C139.853 196.016 141.021 195.328 142.317 195.328C144.109 195.328 145.261 196.592 145.261 198.32V204H143.933V198.368C143.933 197.232 143.229 196.496 142.093 196.496C140.509 196.496 139.581 197.552 139.565 198.848V204H138.253V198.368C138.253 197.232 137.549 196.496 136.413 196.496C134.829 196.496 133.901 197.552 133.885 198.848V204Z" fill="#481125"/>
<path d="M22.028 237H21.02V228.6H26.744V229.524H22.028V232.248H26.384V233.172H22.028V237ZM30.8542 237.132C28.8142 237.132 27.7342 235.68 27.7342 233.76C27.7342 231.636 29.1262 230.496 30.8542 230.496C32.8822 230.496 33.9742 231.96 33.9742 233.76C33.9742 235.956 32.6422 237.132 30.8542 237.132ZM30.8542 236.268C32.2102 236.268 32.9542 235.14 32.9542 233.76C32.9542 232.332 32.1262 231.36 30.8542 231.36C29.5822 231.36 28.7542 232.332 28.7542 233.76C28.7542 235.392 29.7022 236.268 30.8542 236.268ZM36.2729 237H35.2769V230.64H36.0689L36.1889 231.852C36.5969 231.036 37.3409 230.604 38.3969 230.604H38.6129V231.588H38.3969C37.0529 231.588 36.2729 232.356 36.2729 233.664V237ZM40.7495 237H39.7535V230.64H40.5455L40.6415 231.624C41.0735 230.94 41.9015 230.496 42.8135 230.496C43.7735 230.496 44.4935 230.988 44.8175 231.756C45.2255 231.012 46.1015 230.496 47.0735 230.496C48.4175 230.496 49.2815 231.444 49.2815 232.74V237H48.2855V232.776C48.2855 231.924 47.7575 231.372 46.9055 231.372C45.7175 231.372 45.0215 232.164 45.0095 233.136V237H44.0255V232.776C44.0255 231.924 43.4975 231.372 42.6455 231.372C41.4575 231.372 40.7615 232.164 40.7495 233.136V237ZM52.8914 237.096C51.4514 237.096 50.5274 236.352 50.5274 235.188C50.5274 233.724 51.9434 233.448 53.2154 233.316C54.1874 233.22 55.0274 233.232 55.0394 232.716C55.0274 231.912 54.3674 231.348 53.4074 231.348C52.4834 231.348 51.7634 231.864 51.6554 232.62H50.6714C50.7914 231.372 51.9194 230.496 53.4314 230.496C55.0034 230.496 56.0114 231.432 56.0114 232.776V235.872C56.0114 236.076 56.1194 236.184 56.3354 236.184H56.6954V237H56.1314C55.4474 237 55.0874 236.688 55.0874 236.1V235.908C54.7154 236.64 53.9954 237.096 52.8914 237.096ZM53.0354 236.244C54.2234 236.244 55.0394 235.488 55.0394 234.432V233.604C54.7634 233.976 54.0554 234.048 53.2754 234.132C52.3994 234.228 51.5234 234.348 51.5234 235.164C51.5234 235.824 52.1234 236.244 53.0354 236.244ZM60.96 237H60.252C59.016 237 58.356 236.364 58.356 235.188V231.48H57.18V230.64H58.356V228.468H59.352V230.64H61.068V231.48H59.352V235.188C59.352 235.824 59.664 236.16 60.252 236.16H60.96V237ZM62.7818 231.996C62.3498 231.996 62.0258 231.672 62.0258 231.24C62.0258 230.82 62.3498 230.496 62.7818 230.496C63.2138 230.496 63.5378 230.82 63.5378 231.24C63.5378 231.672 63.2138 231.996 62.7818 231.996ZM62.7818 237.12C62.3498 237.12 62.0258 236.796 62.0258 236.364C62.0258 235.944 62.3498 235.62 62.7818 235.62C63.2138 235.62 63.5378 235.944 63.5378 236.364C63.5378 236.796 63.2138 237.12 62.7818 237.12ZM68.6401 237H67.6441V230.64H68.4361L68.5321 231.612C68.9641 230.94 69.7921 230.496 70.7401 230.496C72.1081 230.496 73.0201 231.384 73.0201 232.788V237H72.0241V232.824C72.0241 231.936 71.4481 231.372 70.4881 231.372C69.3481 231.372 68.6521 232.164 68.6401 233.136V237ZM76.6336 237.096C75.1936 237.096 74.2696 236.352 74.2696 235.188C74.2696 233.724 75.6856 233.448 76.9576 233.316C77.9296 233.22 78.7696 233.232 78.7816 232.716C78.7696 231.912 78.1096 231.348 77.1496 231.348C76.2256 231.348 75.5056 231.864 75.3976 232.62H74.4136C74.5336 231.372 75.6616 230.496 77.1736 230.496C78.7456 230.496 79.7536 231.432 79.7536 232.776V235.872C79.7536 236.076 79.8616 236.184 80.0776 236.184H80.4376V237H79.8736C79.1896 237 78.8296 236.688 78.8296 236.1V235.908C78.4576 236.64 77.7376 237.096 76.6336 237.096ZM76.7776 236.244C77.9656 236.244 78.7816 235.488 78.7816 234.432V233.604C78.5056 233.976 77.7976 234.048 77.0176 234.132C76.1416 234.228 75.2656 234.348 75.2656 235.164C75.2656 235.824 75.8656 236.244 76.7776 236.244ZM84.3696 237H83.3256L80.6736 230.64H81.7536L83.8536 235.836L85.9416 230.64H87.0216L84.3696 237ZM89.0776 237H88.0816V230.64H88.8736L88.9696 231.612C89.4016 230.94 90.2296 230.496 91.1776 230.496C92.5456 230.496 93.4576 231.384 93.4576 232.788V237H92.4616V232.824C92.4616 231.936 91.8856 231.372 90.9256 231.372C89.7856 231.372 89.0896 232.164 89.0776 233.136V237ZM99.8671 238.224C96.8671 238.224 94.9111 236.52 94.9111 233.736C94.9111 230.88 96.9271 228.828 99.8071 228.828C102.435 228.828 104.259 230.58 104.259 233.088C104.259 234.792 103.431 235.968 102.219 235.968C101.487 235.968 101.019 235.536 101.019 234.9C100.635 235.56 99.9871 235.968 99.1711 235.968C97.9711 235.968 97.1791 235.068 97.1791 233.772C97.1791 232.176 98.2471 230.964 99.5791 230.964C100.359 230.964 100.983 231.384 101.283 232.008L101.487 231.132H101.967L101.607 234.552C101.559 235.044 101.787 235.368 102.243 235.368C103.023 235.368 103.563 234.432 103.563 233.136C103.563 230.976 102.027 229.524 99.8191 229.524C97.3711 229.524 95.6671 231.3 95.6671 233.724C95.6671 236.1 97.3231 237.54 99.9151 237.54C100.863 237.54 101.691 237.348 102.435 236.976V237.732C101.703 238.044 100.851 238.224 99.8671 238.224ZM99.3151 235.308C100.215 235.308 100.887 234.528 100.995 233.46C101.115 232.38 100.539 231.624 99.6391 231.624C98.6671 231.624 97.9231 232.524 97.9231 233.712C97.9231 234.648 98.4751 235.308 99.3151 235.308ZM108.275 237.132C106.571 237.132 105.383 235.764 105.383 233.784C105.383 231.84 106.559 230.496 108.263 230.496C109.223 230.496 110.027 230.916 110.483 231.588V228H111.479V237H110.687L110.579 235.776C110.159 236.604 109.319 237.132 108.275 237.132ZM108.431 236.268C109.643 236.268 110.483 235.236 110.483 233.76C110.483 232.332 109.667 231.348 108.491 231.348C107.267 231.348 106.415 232.344 106.415 233.784C106.415 235.248 107.243 236.268 108.431 236.268ZM115.944 237.132C113.904 237.132 112.824 235.68 112.824 233.76C112.824 231.636 114.216 230.496 115.944 230.496C117.972 230.496 119.064 231.96 119.064 233.76C119.064 235.956 117.732 237.132 115.944 237.132ZM115.944 236.268C117.3 236.268 118.044 235.14 118.044 233.76C118.044 232.332 117.216 231.36 115.944 231.36C114.672 231.36 113.844 232.332 113.844 233.76C113.844 235.392 114.792 236.268 115.944 236.268ZM121.363 237H120.367V230.64H121.159L121.255 231.624C121.687 230.94 122.515 230.496 123.427 230.496C124.387 230.496 125.107 230.988 125.431 231.756C125.839 231.012 126.715 230.496 127.687 230.496C129.031 230.496 129.895 231.444 129.895 232.74V237H128.899V232.776C128.899 231.924 128.371 231.372 127.519 231.372C126.331 231.372 125.635 232.164 125.623 233.136V237H124.639V232.776C124.639 231.924 124.111 231.372 123.259 231.372C122.071 231.372 121.375 232.164 121.363 233.136V237ZM134.261 237.132C132.377 237.132 131.129 235.752 131.129 233.844C131.129 231.672 132.533 230.496 134.141 230.496C135.893 230.496 137.021 231.672 137.057 233.712V233.988H132.125C132.185 235.344 132.977 236.268 134.261 236.268C135.149 236.268 135.797 235.824 136.061 234.996H137.033C136.745 236.304 135.713 237.132 134.261 237.132ZM132.185 233.16H136.013C135.833 232.044 135.161 231.36 134.141 231.36C133.133 231.36 132.389 232.02 132.185 233.16ZM139.363 237H138.367V230.64H139.159L139.255 231.612C139.687 230.94 140.515 230.496 141.463 230.496C142.831 230.496 143.743 231.384 143.743 232.788V237H142.747V232.824C142.747 231.936 142.171 231.372 141.211 231.372C140.071 231.372 139.375 232.164 139.363 233.136V237ZM148.112 237.132C146.228 237.132 144.98 235.752 144.98 233.844C144.98 231.672 146.384 230.496 147.992 230.496C149.744 230.496 150.872 231.672 150.908 233.712V233.988H145.976C146.036 235.344 146.828 236.268 148.112 236.268C149 236.268 149.648 235.824 149.912 234.996H150.884C150.596 236.304 149.564 237.132 148.112 237.132ZM146.036 233.16H149.864C149.684 232.044 149.012 231.36 147.992 231.36C146.984 231.36 146.24 232.02 146.036 233.16ZM152.758 237.12C152.326 237.12 152.002 236.796 152.002 236.364C152.002 235.944 152.326 235.62 152.758 235.62C153.19 235.62 153.514 235.944 153.514 236.364C153.514 236.796 153.19 237.12 152.758 237.12ZM157.769 237.132C155.705 237.132 154.601 235.62 154.601 233.784C154.601 231.648 156.005 230.496 157.733 230.496C159.329 230.496 160.469 231.456 160.649 233.088H159.677C159.509 232.032 158.777 231.36 157.709 231.36C156.449 231.36 155.609 232.284 155.609 233.784C155.609 235.404 156.593 236.268 157.781 236.268C158.801 236.268 159.497 235.62 159.677 234.516H160.649C160.469 236.16 159.413 237.132 157.769 237.132ZM164.753 237.132C162.713 237.132 161.633 235.68 161.633 233.76C161.633 231.636 163.025 230.496 164.753 230.496C166.781 230.496 167.873 231.96 167.873 233.76C167.873 235.956 166.541 237.132 164.753 237.132ZM164.753 236.268C166.109 236.268 166.853 235.14 166.853 233.76C166.853 232.332 166.025 231.36 164.753 231.36C163.481 231.36 162.653 232.332 162.653 233.76C162.653 235.392 163.601 236.268 164.753 236.268ZM170.171 237H169.175V230.64H169.967L170.063 231.624C170.495 230.94 171.323 230.496 172.235 230.496C173.195 230.496 173.915 230.988 174.239 231.756C174.647 231.012 175.523 230.496 176.495 230.496C177.839 230.496 178.703 231.444 178.703 232.74V237H177.707V232.776C177.707 231.924 177.179 231.372 176.327 231.372C175.139 231.372 174.443 232.164 174.431 233.136V237H173.447V232.776C173.447 231.924 172.919 231.372 172.067 231.372C170.879 231.372 170.183 232.164 170.171 233.136V237ZM180.801 237.12C180.369 237.12 180.045 236.796 180.045 236.364C180.045 235.944 180.369 235.62 180.801 235.62C181.233 235.62 181.557 235.944 181.557 236.364C181.557 236.796 181.233 237.12 180.801 237.12Z" fill="#481125"/>
<path d="M20 256C20 251.582 23.5817 248 28 248H347.5C351.918 248 355.5 251.582 355.5 256V276C355.5 280.418 351.918 284 347.5 284H28C23.5817 284 20 280.418 20 276V256Z" fill="#FFE6D2"/>
<g clip-path="url(#clip0_616_2352)">
<path fill-rule="evenodd" clip-rule="evenodd" d="M28 266C28 269.86 31.1401 273 35 273C38.8599 273 42 269.86 42 266C42 262.14 38.8599 259 35 259C31.1401 259 28 262.14 28 266ZM35 267.312C34.884 267.312 34.7727 267.266 34.6906 267.184C34.6086 267.102 34.5625 266.991 34.5625 266.875V262.062C34.5625 261.946 34.6086 261.835 34.6906 261.753C34.7727 261.671 34.884 261.625 35 261.625C35.116 261.625 35.2273 261.671 35.3094 261.753C35.3914 261.835 35.4375 261.946 35.4375 262.062V266.875C35.4375 266.991 35.3914 267.102 35.3094 267.184C35.2273 267.266 35.116 267.312 35 267.312ZM35 269.5C35.3624 269.5 35.6562 269.206 35.6562 268.844C35.6562 268.481 35.3624 268.188 35 268.188C34.6376 268.188 34.3438 268.481 34.3438 268.844C34.3438 269.206 34.6376 269.5 35 269.5Z" fill="#623A0E"/>
</g>
<path d="M50.296 269.132C48.124 269.132 46.948 267.776 46.948 266.18V260.6H47.956V266.156C47.956 267.488 49.012 268.196 50.296 268.196C51.58 268.196 52.636 267.488 52.636 266.156V260.6H53.644V266.18C53.644 267.776 52.456 269.144 50.296 269.132ZM58.1778 271.544C56.4618 271.544 55.2978 270.716 55.2978 269.372H56.2938C56.2938 270.128 57.0618 270.704 58.1778 270.704C59.4858 270.704 60.1698 269.924 60.1698 268.832V267.8C59.7258 268.46 58.9578 268.892 57.9858 268.892C56.2938 268.892 55.0818 267.596 55.0818 265.724C55.0818 263.816 56.3058 262.496 57.9858 262.496C59.0058 262.496 59.8338 262.976 60.2658 263.744L60.3738 262.64H61.1538V268.832C61.1538 270.44 60.0738 271.544 58.1778 271.544ZM58.1298 268.028C59.3298 268.028 60.1698 267.068 60.1698 265.688C60.1698 264.32 59.3298 263.36 58.1298 263.36C56.9418 263.36 56.1138 264.32 56.1138 265.712C56.1138 267.08 56.9418 268.028 58.1298 268.028ZM63.5567 271.4H62.5367V270.56H63.5567C64.2047 270.56 64.4807 270.332 64.6247 269.948L64.9727 269H64.7327L62.2127 262.64H63.2807L65.3447 268.004L67.3367 262.64H68.3567L65.5007 270.332C65.2367 271.028 64.6487 271.4 63.5567 271.4ZM70.4418 269H69.4458V260H70.4418V269ZM74.6731 269.132C72.9691 269.132 71.7811 267.764 71.7811 265.784C71.7811 263.84 72.9571 262.496 74.6611 262.496C75.6211 262.496 76.4251 262.916 76.8811 263.588V260H77.8771V269H77.0851L76.9771 267.776C76.5571 268.604 75.7171 269.132 74.6731 269.132ZM74.8291 268.268C76.0411 268.268 76.8811 267.236 76.8811 265.76C76.8811 264.332 76.0651 263.348 74.8891 263.348C73.6651 263.348 72.8131 264.344 72.8131 265.784C72.8131 267.248 73.6411 268.268 74.8291 268.268ZM80.0505 261.572C79.6305 261.572 79.3065 261.248 79.3065 260.828C79.3065 260.408 79.6305 260.096 80.0505 260.096C80.4705 260.096 80.7825 260.408 80.7825 260.828C80.7825 261.248 80.4705 261.572 80.0505 261.572ZM80.5425 269H79.5465V262.64H80.5425V269ZM84.9435 271.544C83.2275 271.544 82.0635 270.716 82.0635 269.372H83.0595C83.0595 270.128 83.8275 270.704 84.9435 270.704C86.2515 270.704 86.9355 269.924 86.9355 268.832V267.8C86.4915 268.46 85.7235 268.892 84.7515 268.892C83.0595 268.892 81.8475 267.596 81.8475 265.724C81.8475 263.816 83.0715 262.496 84.7515 262.496C85.7715 262.496 86.5995 262.976 87.0315 263.744L87.1395 262.64H87.9195V268.832C87.9195 270.44 86.8395 271.544 84.9435 271.544ZM84.8955 268.028C86.0955 268.028 86.9355 267.068 86.9355 265.688C86.9355 264.32 86.0955 263.36 84.8955 263.36C83.7075 263.36 82.8795 264.32 82.8795 265.712C82.8795 267.08 83.7075 268.028 84.8955 268.028ZM95.0576 269.132C93.1736 269.132 91.9256 267.752 91.9256 265.844C91.9256 263.672 93.3296 262.496 94.9376 262.496C96.6896 262.496 97.8176 263.672 97.8536 265.712V265.988H92.9216C92.9816 267.344 93.7736 268.268 95.0576 268.268C95.9456 268.268 96.5936 267.824 96.8576 266.996H97.8296C97.5416 268.304 96.5096 269.132 95.0576 269.132ZM92.9816 265.16H96.8096C96.6296 264.044 95.9576 263.36 94.9376 263.36C93.9296 263.36 93.1856 264.02 92.9816 265.16ZM104.024 265.688H98.8877V264.848H104.024V265.688ZM106.395 271.4H105.399V262.64H106.191L106.299 263.792C106.755 263 107.595 262.496 108.627 262.496C110.307 262.496 111.483 263.84 111.483 265.784C111.483 267.764 110.307 269.132 108.627 269.132C107.655 269.132 106.851 268.688 106.395 267.944V271.4ZM108.471 268.268C109.647 268.268 110.451 267.248 110.451 265.784C110.451 264.356 109.647 263.36 108.459 263.36C107.259 263.36 106.395 264.332 106.395 265.736C106.395 267.224 107.259 268.268 108.471 268.268ZM115.589 269.132C113.549 269.132 112.469 267.68 112.469 265.76C112.469 263.636 113.861 262.496 115.589 262.496C117.617 262.496 118.709 263.96 118.709 265.76C118.709 267.956 117.377 269.132 115.589 269.132ZM115.589 268.268C116.945 268.268 117.689 267.14 117.689 265.76C117.689 264.332 116.861 263.36 115.589 263.36C114.317 263.36 113.489 264.332 113.489 265.76C113.489 267.392 114.437 268.268 115.589 268.268ZM122.387 269.132C120.875 269.132 119.759 268.34 119.675 266.996H120.647C120.719 267.824 121.475 268.28 122.435 268.28C123.335 268.28 123.767 267.932 123.767 267.296C123.767 266.696 123.299 266.564 122.639 266.336L121.715 266.024C120.779 265.712 119.843 265.424 119.843 264.272C119.843 263.192 120.683 262.496 122.075 262.496C123.479 262.496 124.451 263.252 124.607 264.668H123.635C123.527 263.78 122.903 263.348 122.039 263.348C121.259 263.348 120.803 263.696 120.803 264.248C120.803 264.908 121.499 265.04 122.027 265.22L122.891 265.508C124.055 265.892 124.751 266.288 124.751 267.344C124.751 268.46 123.935 269.132 122.387 269.132ZM129.124 269H128.416C127.18 269 126.52 268.364 126.52 267.188V263.48H125.344V262.64H126.52V260.468H127.516V262.64H129.232V263.48H127.516V267.188C127.516 267.824 127.828 268.16 128.416 268.16H129.124V269ZM132.458 269.096C131.018 269.096 130.094 268.352 130.094 267.188C130.094 265.724 131.51 265.448 132.782 265.316C133.754 265.22 134.594 265.232 134.606 264.716C134.594 263.912 133.934 263.348 132.974 263.348C132.05 263.348 131.33 263.864 131.222 264.62H130.238C130.358 263.372 131.486 262.496 132.998 262.496C134.57 262.496 135.578 263.432 135.578 264.776V267.872C135.578 268.076 135.686 268.184 135.902 268.184H136.262V269H135.698C135.014 269 134.654 268.688 134.654 268.1V267.908C134.282 268.64 133.562 269.096 132.458 269.096ZM132.602 268.244C133.79 268.244 134.606 267.488 134.606 266.432V265.604C134.33 265.976 133.622 266.048 132.842 266.132C131.966 266.228 131.09 266.348 131.09 267.164C131.09 267.824 131.69 268.244 132.602 268.244ZM139.947 269.132C138.243 269.132 137.055 267.764 137.055 265.784C137.055 263.84 138.231 262.496 139.935 262.496C140.895 262.496 141.699 262.916 142.155 263.588V260H143.151V269H142.359L142.251 267.776C141.831 268.604 140.991 269.132 139.947 269.132ZM140.103 268.268C141.315 268.268 142.155 267.236 142.155 265.76C142.155 264.332 141.339 263.348 140.163 263.348C138.939 263.348 138.087 264.344 138.087 265.784C138.087 267.248 138.915 268.268 140.103 268.268ZM145.816 269H144.82V262.64H145.612L145.732 263.852C146.14 263.036 146.884 262.604 147.94 262.604H148.156V263.588H147.94C146.596 263.588 145.816 264.356 145.816 265.664V269ZM151.812 269.132C149.928 269.132 148.68 267.752 148.68 265.844C148.68 263.672 150.084 262.496 151.692 262.496C153.444 262.496 154.572 263.672 154.608 265.712V265.988H149.676C149.736 267.344 150.528 268.268 151.812 268.268C152.7 268.268 153.348 267.824 153.612 266.996H154.584C154.296 268.304 153.264 269.132 151.812 269.132ZM149.736 265.16H153.564C153.384 264.044 152.712 263.36 151.692 263.36C150.684 263.36 149.94 264.02 149.736 265.16ZM158.294 269.132C156.782 269.132 155.666 268.34 155.582 266.996H156.554C156.626 267.824 157.382 268.28 158.342 268.28C159.242 268.28 159.674 267.932 159.674 267.296C159.674 266.696 159.206 266.564 158.546 266.336L157.622 266.024C156.686 265.712 155.75 265.424 155.75 264.272C155.75 263.192 156.59 262.496 157.982 262.496C159.386 262.496 160.358 263.252 160.514 264.668H159.542C159.434 263.78 158.81 263.348 157.946 263.348C157.166 263.348 156.71 263.696 156.71 264.248C156.71 264.908 157.406 265.04 157.934 265.22L158.798 265.508C159.962 265.892 160.658 266.288 160.658 267.344C160.658 268.46 159.842 269.132 158.294 269.132ZM164.258 269.132C162.746 269.132 161.63 268.34 161.546 266.996H162.518C162.59 267.824 163.346 268.28 164.306 268.28C165.206 268.28 165.638 267.932 165.638 267.296C165.638 266.696 165.17 266.564 164.51 266.336L163.586 266.024C162.65 265.712 161.714 265.424 161.714 264.272C161.714 263.192 162.554 262.496 163.946 262.496C165.35 262.496 166.322 263.252 166.478 264.668H165.506C165.398 263.78 164.774 263.348 163.91 263.348C163.13 263.348 162.674 263.696 162.674 264.248C162.674 264.908 163.37 265.04 163.898 265.22L164.762 265.508C165.926 265.892 166.622 266.288 166.622 267.344C166.622 268.46 165.806 269.132 164.258 269.132ZM170.655 269.132C168.771 269.132 167.523 267.752 167.523 265.844C167.523 263.672 168.927 262.496 170.535 262.496C172.287 262.496 173.415 263.672 173.451 265.712V265.988H168.519C168.579 267.344 169.371 268.268 170.655 268.268C171.543 268.268 172.191 267.824 172.455 266.996H173.427C173.139 268.304 172.107 269.132 170.655 269.132ZM168.579 265.16H172.407C172.227 264.044 171.555 263.36 170.535 263.36C169.527 263.36 168.783 264.02 168.579 265.16ZM175.301 269.12C174.869 269.12 174.545 268.796 174.545 268.364C174.545 267.944 174.869 267.62 175.301 267.62C175.733 267.62 176.057 267.944 176.057 268.364C176.057 268.796 175.733 269.12 175.301 269.12Z" fill="#623A0E"/>
<mask id="path-18-inside-4_616_2352" fill="white">
<path d="M379.5 187.5C379.5 183.082 383.082 179.5 387.5 179.5H707C711.418 179.5 715 183.082 715 187.5V220.5H379.5V187.5Z"/>
</mask>
<path d="M379.5 179.5H715H379.5ZM715 221.5H379.5V219.5H715V221.5ZM379.5 220.5V179.5V220.5ZM715 179.5V220.5V179.5Z" fill="#481125" mask="url(#path-18-inside-4_616_2352)"/>
<path d="M391.964 204.5H390.636V192.5H391.964V197.108C392.572 196.34 393.612 195.828 394.764 195.828C396.588 195.828 397.804 197.012 397.804 198.884V204.5H396.476V198.932C396.476 197.748 395.708 196.996 394.508 196.996C392.908 196.996 391.98 198.052 391.964 199.348V204.5ZM403.629 204.676C401.117 204.676 399.453 202.836 399.453 200.292C399.453 197.396 401.325 195.828 403.469 195.828C405.805 195.828 407.309 197.396 407.357 200.116V200.484H400.781C400.861 202.292 401.917 203.524 403.629 203.524C404.813 203.524 405.677 202.932 406.029 201.828H407.325C406.941 203.572 405.565 204.676 403.629 204.676ZM400.861 199.38H405.965C405.725 197.892 404.829 196.98 403.469 196.98C402.125 196.98 401.133 197.86 400.861 199.38ZM409.776 194.596C409.216 194.596 408.784 194.164 408.784 193.604C408.784 193.044 409.216 192.628 409.776 192.628C410.336 192.628 410.752 193.044 410.752 193.604C410.752 194.164 410.336 194.596 409.776 194.596ZM410.432 204.5H409.104V196.02H410.432V204.5ZM419.068 206.132C415.068 206.132 412.46 203.86 412.46 200.148C412.46 196.34 415.148 193.604 418.988 193.604C422.492 193.604 424.924 195.94 424.924 199.284C424.924 201.556 423.82 203.124 422.204 203.124C421.228 203.124 420.604 202.548 420.604 201.7C420.092 202.58 419.228 203.124 418.14 203.124C416.54 203.124 415.484 201.924 415.484 200.196C415.484 198.068 416.908 196.452 418.684 196.452C419.724 196.452 420.556 197.012 420.956 197.844L421.228 196.676H421.868L421.388 201.236C421.324 201.892 421.628 202.324 422.236 202.324C423.276 202.324 423.996 201.076 423.996 199.348C423.996 196.468 421.948 194.532 419.004 194.532C415.74 194.532 413.468 196.9 413.468 200.132C413.468 203.3 415.676 205.22 419.132 205.22C420.396 205.22 421.5 204.964 422.492 204.468V205.476C421.516 205.892 420.38 206.132 419.068 206.132ZM418.332 202.244C419.532 202.244 420.428 201.204 420.572 199.78C420.732 198.34 419.964 197.332 418.764 197.332C417.468 197.332 416.476 198.532 416.476 200.116C416.476 201.364 417.212 202.244 418.332 202.244ZM430.598 204.676C428.086 204.676 426.422 202.836 426.422 200.292C426.422 197.396 428.294 195.828 430.438 195.828C432.774 195.828 434.278 197.396 434.326 200.116V200.484H427.75C427.83 202.292 428.886 203.524 430.598 203.524C431.782 203.524 432.646 202.932 432.998 201.828H434.294C433.91 203.572 432.534 204.676 430.598 204.676ZM427.83 199.38H432.934C432.694 197.892 431.798 196.98 430.438 196.98C429.094 196.98 428.102 197.86 427.83 199.38ZM437.432 207.7H436.104V196.02H437.16L437.304 197.556C437.912 196.5 439.032 195.828 440.408 195.828C442.648 195.828 444.216 197.62 444.216 200.212C444.216 202.852 442.648 204.676 440.408 204.676C439.112 204.676 438.04 204.084 437.432 203.092V207.7ZM440.2 203.524C441.768 203.524 442.84 202.164 442.84 200.212C442.84 198.308 441.768 196.98 440.184 196.98C438.584 196.98 437.432 198.276 437.432 200.148C437.432 202.132 438.584 203.524 440.2 203.524ZM449.691 204.676C446.971 204.676 445.531 202.74 445.531 200.18C445.531 197.348 447.387 195.828 449.691 195.828C452.395 195.828 453.851 197.78 453.851 200.18C453.851 203.108 452.075 204.676 449.691 204.676ZM449.691 203.524C451.499 203.524 452.491 202.02 452.491 200.18C452.491 198.276 451.387 196.98 449.691 196.98C447.995 196.98 446.891 198.276 446.891 200.18C446.891 202.356 448.155 203.524 449.691 203.524ZM458.756 204.676C456.74 204.676 455.252 203.62 455.14 201.828H456.436C456.532 202.932 457.54 203.54 458.82 203.54C460.02 203.54 460.596 203.076 460.596 202.228C460.596 201.428 459.972 201.252 459.092 200.948L457.86 200.532C456.612 200.116 455.364 199.732 455.364 198.196C455.364 196.756 456.484 195.828 458.34 195.828C460.212 195.828 461.508 196.836 461.716 198.724H460.42C460.276 197.54 459.444 196.964 458.292 196.964C457.252 196.964 456.644 197.428 456.644 198.164C456.644 199.044 457.572 199.22 458.276 199.46L459.428 199.844C460.98 200.356 461.908 200.884 461.908 202.292C461.908 203.78 460.82 204.676 458.756 204.676ZM467.738 204.5H466.794C465.146 204.5 464.266 203.652 464.266 202.084V197.14H462.698V196.02H464.266V193.124H465.594V196.02H467.882V197.14H465.594V202.084C465.594 202.932 466.01 203.38 466.794 203.38H467.738V204.5ZM470.167 204.66C469.591 204.66 469.159 204.228 469.159 203.652C469.159 203.092 469.591 202.66 470.167 202.66C470.743 202.66 471.175 203.092 471.175 203.652C471.175 204.228 470.743 204.66 470.167 204.66ZM476.849 204.676C474.097 204.676 472.625 202.66 472.625 200.212C472.625 197.364 474.497 195.828 476.801 195.828C478.929 195.828 480.449 197.108 480.689 199.284H479.393C479.169 197.876 478.193 196.98 476.769 196.98C475.089 196.98 473.969 198.212 473.969 200.212C473.969 202.372 475.281 203.524 476.865 203.524C478.225 203.524 479.153 202.66 479.393 201.188H480.689C480.449 203.38 479.041 204.676 476.849 204.676ZM486.16 204.676C483.44 204.676 482 202.74 482 200.18C482 197.348 483.856 195.828 486.16 195.828C488.864 195.828 490.32 197.78 490.32 200.18C490.32 203.108 488.544 204.676 486.16 204.676ZM486.16 203.524C487.968 203.524 488.96 202.02 488.96 200.18C488.96 198.276 487.856 196.98 486.16 196.98C484.464 196.98 483.36 198.276 483.36 200.18C483.36 202.356 484.624 203.524 486.16 203.524ZM493.385 204.5H492.057V196.02H493.113L493.241 197.332C493.817 196.42 494.921 195.828 496.137 195.828C497.417 195.828 498.377 196.484 498.809 197.508C499.353 196.516 500.521 195.828 501.817 195.828C503.609 195.828 504.761 197.092 504.761 198.82V204.5H503.433V198.868C503.433 197.732 502.729 196.996 501.593 196.996C500.009 196.996 499.081 198.052 499.065 199.348V204.5H497.753V198.868C497.753 197.732 497.049 196.996 495.913 196.996C494.329 196.996 493.401 198.052 493.385 199.348V204.5Z" fill="#481125"/>
<path d="M379.5 232.5C379.5 228.082 383.082 224.5 387.5 224.5H707C711.418 224.5 715 228.082 715 232.5V252.5C715 256.918 711.418 260.5 707 260.5H387.5C383.082 260.5 379.5 256.918 379.5 252.5V232.5Z" fill="#CBFBDB"/>
<g clip-path="url(#clip1_616_2352)">
<path fill-rule="evenodd" clip-rule="evenodd" d="M387.5 242.499C387.5 246.359 390.64 249.499 394.5 249.499C398.36 249.499 401.5 246.359 401.5 242.499C401.5 238.639 398.36 235.499 394.5 235.499C390.64 235.499 387.5 238.639 387.5 242.499ZM392.444 245.828C392.596 245.909 392.767 245.951 392.939 245.951C393.147 245.951 393.349 245.889 393.521 245.773C393.615 245.71 393.699 245.632 393.768 245.542L398.343 239.753C398.382 239.709 398.411 239.657 398.429 239.6C398.447 239.544 398.453 239.485 398.448 239.426C398.442 239.367 398.425 239.31 398.397 239.258C398.369 239.206 398.33 239.161 398.284 239.124C398.237 239.087 398.184 239.06 398.127 239.045C398.07 239.029 398.011 239.025 397.952 239.034C397.894 239.042 397.837 239.062 397.787 239.092C397.736 239.123 397.692 239.163 397.657 239.211L393.077 245.006C393.061 245.028 393.04 245.045 393.017 245.057C392.993 245.069 392.966 245.076 392.939 245.076C392.909 245.076 392.879 245.068 392.852 245.053C392.825 245.037 392.803 245.016 392.787 244.989L391.358 242.961C391.325 242.914 391.283 242.874 391.234 242.843C391.186 242.813 391.132 242.792 391.075 242.782C391.018 242.772 390.96 242.774 390.904 242.786C390.848 242.799 390.795 242.822 390.748 242.855C390.701 242.888 390.661 242.93 390.63 242.979C390.6 243.028 390.579 243.082 390.569 243.138C390.559 243.195 390.561 243.253 390.573 243.309C390.586 243.365 390.609 243.418 390.642 243.465L392.066 245.485C392.161 245.629 392.291 245.747 392.444 245.828Z" fill="#014F2D"/>
</g>
<path d="M412.364 245.5H406.52V237.1H412.256V238.024H407.516V240.676H411.776V241.576H407.516V244.576H412.364V245.5ZM418.629 242.188H413.493V241.348H418.629V242.188ZM421 247.9H420.004V239.14H420.796L420.904 240.292C421.36 239.5 422.2 238.996 423.232 238.996C424.912 238.996 426.088 240.34 426.088 242.284C426.088 244.264 424.912 245.632 423.232 245.632C422.26 245.632 421.456 245.188 421 244.444V247.9ZM423.076 244.768C424.252 244.768 425.056 243.748 425.056 242.284C425.056 240.856 424.252 239.86 423.064 239.86C421.864 239.86 421 240.832 421 242.236C421 243.724 421.864 244.768 423.076 244.768ZM430.194 245.632C428.154 245.632 427.074 244.18 427.074 242.26C427.074 240.136 428.466 238.996 430.194 238.996C432.222 238.996 433.314 240.46 433.314 242.26C433.314 244.456 431.982 245.632 430.194 245.632ZM430.194 244.768C431.55 244.768 432.294 243.64 432.294 242.26C432.294 240.832 431.466 239.86 430.194 239.86C428.922 239.86 428.094 240.832 428.094 242.26C428.094 243.892 429.042 244.768 430.194 244.768ZM436.993 245.632C435.481 245.632 434.365 244.84 434.281 243.496H435.253C435.325 244.324 436.081 244.78 437.041 244.78C437.941 244.78 438.373 244.432 438.373 243.796C438.373 243.196 437.905 243.064 437.245 242.836L436.321 242.524C435.385 242.212 434.449 241.924 434.449 240.772C434.449 239.692 435.289 238.996 436.681 238.996C438.085 238.996 439.057 239.752 439.213 241.168H438.241C438.133 240.28 437.509 239.848 436.645 239.848C435.865 239.848 435.409 240.196 435.409 240.748C435.409 241.408 436.105 241.54 436.633 241.72L437.497 242.008C438.661 242.392 439.357 242.788 439.357 243.844C439.357 244.96 438.541 245.632 436.993 245.632ZM443.73 245.5H443.022C441.786 245.5 441.126 244.864 441.126 243.688V239.98H439.95V239.14H441.126V236.968H442.122V239.14H443.838V239.98H442.122V243.688C442.122 244.324 442.434 244.66 443.022 244.66H443.73V245.5ZM447.063 245.596C445.623 245.596 444.699 244.852 444.699 243.688C444.699 242.224 446.115 241.948 447.387 241.816C448.359 241.72 449.199 241.732 449.211 241.216C449.199 240.412 448.539 239.848 447.579 239.848C446.655 239.848 445.935 240.364 445.827 241.12H444.843C444.963 239.872 446.091 238.996 447.603 238.996C449.175 238.996 450.183 239.932 450.183 241.276V244.372C450.183 244.576 450.291 244.684 450.507 244.684H450.867V245.5H450.303C449.619 245.5 449.259 245.188 449.259 244.6V244.408C448.887 245.14 448.167 245.596 447.063 245.596ZM447.207 244.744C448.395 244.744 449.211 243.988 449.211 242.932V242.104C448.935 242.476 448.227 242.548 447.447 242.632C446.571 242.728 445.695 242.848 445.695 243.664C445.695 244.324 446.295 244.744 447.207 244.744ZM454.552 245.632C452.848 245.632 451.66 244.264 451.66 242.284C451.66 240.34 452.836 238.996 454.54 238.996C455.5 238.996 456.304 239.416 456.76 240.088V236.5H457.756V245.5H456.964L456.856 244.276C456.436 245.104 455.596 245.632 454.552 245.632ZM454.708 244.768C455.92 244.768 456.76 243.736 456.76 242.26C456.76 240.832 455.944 239.848 454.768 239.848C453.544 239.848 452.692 240.844 452.692 242.284C452.692 243.748 453.52 244.768 454.708 244.768ZM460.421 245.5H459.425V239.14H460.217L460.337 240.352C460.745 239.536 461.489 239.104 462.545 239.104H462.761V240.088H462.545C461.201 240.088 460.421 240.856 460.421 242.164V245.5ZM466.417 245.632C464.533 245.632 463.285 244.252 463.285 242.344C463.285 240.172 464.689 238.996 466.297 238.996C468.049 238.996 469.177 240.172 469.213 242.212V242.488H464.281C464.341 243.844 465.133 244.768 466.417 244.768C467.305 244.768 467.953 244.324 468.217 243.496H469.189C468.901 244.804 467.869 245.632 466.417 245.632ZM464.341 241.66H468.169C467.989 240.544 467.317 239.86 466.297 239.86C465.289 239.86 464.545 240.52 464.341 241.66ZM472.899 245.632C471.387 245.632 470.271 244.84 470.187 243.496H471.159C471.231 244.324 471.987 244.78 472.947 244.78C473.847 244.78 474.279 244.432 474.279 243.796C474.279 243.196 473.811 243.064 473.151 242.836L472.227 242.524C471.291 242.212 470.355 241.924 470.355 240.772C470.355 239.692 471.195 238.996 472.587 238.996C473.991 238.996 474.963 239.752 475.119 241.168H474.147C474.039 240.28 473.415 239.848 472.551 239.848C471.771 239.848 471.315 240.196 471.315 240.748C471.315 241.408 472.011 241.54 472.539 241.72L473.403 242.008C474.567 242.392 475.263 242.788 475.263 243.844C475.263 244.96 474.447 245.632 472.899 245.632ZM478.864 245.632C477.352 245.632 476.236 244.84 476.152 243.496H477.124C477.196 244.324 477.952 244.78 478.912 244.78C479.812 244.78 480.244 244.432 480.244 243.796C480.244 243.196 479.776 243.064 479.116 242.836L478.192 242.524C477.256 242.212 476.32 241.924 476.32 240.772C476.32 239.692 477.16 238.996 478.552 238.996C479.956 238.996 480.928 239.752 481.084 241.168H480.112C480.004 240.28 479.38 239.848 478.516 239.848C477.736 239.848 477.28 240.196 477.28 240.748C477.28 241.408 477.976 241.54 478.504 241.72L479.368 242.008C480.532 242.392 481.228 242.788 481.228 243.844C481.228 244.96 480.412 245.632 478.864 245.632ZM485.261 245.632C483.377 245.632 482.129 244.252 482.129 242.344C482.129 240.172 483.533 238.996 485.141 238.996C486.893 238.996 488.021 240.172 488.057 242.212V242.488H483.125C483.185 243.844 483.977 244.768 485.261 244.768C486.149 244.768 486.797 244.324 487.061 243.496H488.033C487.745 244.804 486.713 245.632 485.261 245.632ZM483.185 241.66H487.013C486.833 240.544 486.161 239.86 485.141 239.86C484.133 239.86 483.389 240.52 483.185 241.66ZM490.363 245.5H489.367V239.14H490.159L490.255 240.112C490.687 239.44 491.515 238.996 492.463 238.996C493.831 238.996 494.743 239.884 494.743 241.288V245.5H493.747V241.324C493.747 240.436 493.171 239.872 492.211 239.872C491.071 239.872 490.375 240.664 490.363 241.636V245.5ZM501.808 245.632C499.924 245.632 498.676 244.252 498.676 242.344C498.676 240.172 500.08 238.996 501.688 238.996C503.44 238.996 504.568 240.172 504.604 242.212V242.488H499.672C499.732 243.844 500.524 244.768 501.808 244.768C502.696 244.768 503.344 244.324 503.608 243.496H504.58C504.292 244.804 503.26 245.632 501.808 245.632ZM499.732 241.66H503.56C503.38 240.544 502.708 239.86 501.688 239.86C500.68 239.86 499.936 240.52 499.732 241.66ZM506.91 245.5H505.914V239.14H506.706L506.826 240.352C507.234 239.536 507.978 239.104 509.034 239.104H509.25V240.088H509.034C507.69 240.088 506.91 240.856 506.91 242.164V245.5ZM515.858 248.044C514.142 248.044 512.978 247.216 512.978 245.872H513.974C513.974 246.628 514.742 247.204 515.858 247.204C517.166 247.204 517.85 246.424 517.85 245.332V244.3C517.406 244.96 516.638 245.392 515.666 245.392C513.974 245.392 512.762 244.096 512.762 242.224C512.762 240.316 513.986 238.996 515.666 238.996C516.686 238.996 517.514 239.476 517.946 240.244L518.054 239.14H518.834V245.332C518.834 246.94 517.754 248.044 515.858 248.044ZM515.81 244.528C517.01 244.528 517.85 243.568 517.85 242.188C517.85 240.82 517.01 239.86 515.81 239.86C514.622 239.86 513.794 240.82 513.794 242.212C513.794 243.58 514.622 244.528 515.81 244.528ZM523.264 245.632C521.224 245.632 520.144 244.18 520.144 242.26C520.144 240.136 521.536 238.996 523.264 238.996C525.292 238.996 526.384 240.46 526.384 242.26C526.384 244.456 525.052 245.632 523.264 245.632ZM523.264 244.768C524.62 244.768 525.364 243.64 525.364 242.26C525.364 240.832 524.536 239.86 523.264 239.86C521.992 239.86 521.164 240.832 521.164 242.26C521.164 243.892 522.112 244.768 523.264 244.768ZM530.255 245.632C528.551 245.632 527.363 244.264 527.363 242.284C527.363 240.34 528.539 238.996 530.243 238.996C531.203 238.996 532.007 239.416 532.463 240.088V236.5H533.459V245.5H532.667L532.559 244.276C532.139 245.104 531.299 245.632 530.255 245.632ZM530.411 244.768C531.623 244.768 532.463 243.736 532.463 242.26C532.463 240.832 531.647 239.848 530.471 239.848C529.247 239.848 528.395 240.844 528.395 242.284C528.395 243.748 529.223 244.768 530.411 244.768ZM536.161 245.5H535.165V236.5H536.161V242.272L539.257 239.14H540.457L538.165 241.456L540.805 245.5H539.641L537.48 242.152L536.161 243.484V245.5ZM542.148 238.072C541.716 238.072 541.404 237.76 541.404 237.328C541.404 236.908 541.716 236.596 542.148 236.596C542.568 236.596 542.88 236.908 542.88 237.328C542.88 237.76 542.568 238.072 542.148 238.072ZM540.744 247.9H539.856V247.06H540.744C541.332 247.06 541.644 246.724 541.644 246.088V239.14H542.64V246.088C542.64 247.264 541.98 247.9 540.744 247.9ZM547.077 245.632C545.193 245.632 543.945 244.252 543.945 242.344C543.945 240.172 545.349 238.996 546.957 238.996C548.709 238.996 549.837 240.172 549.873 242.212V242.488H544.941C545.001 243.844 545.793 244.768 547.077 244.768C547.965 244.768 548.613 244.324 548.877 243.496H549.849C549.561 244.804 548.529 245.632 547.077 245.632ZM545.001 241.66H548.829C548.649 240.544 547.977 239.86 546.957 239.86C545.949 239.86 545.205 240.52 545.001 241.66ZM552.179 245.5H551.183V239.14H551.975L552.071 240.112C552.503 239.44 553.331 238.996 554.279 238.996C555.647 238.996 556.559 239.884 556.559 241.288V245.5H555.563V241.324C555.563 240.436 554.987 239.872 554.027 239.872C552.887 239.872 552.191 240.664 552.179 241.636V245.5ZM561.316 245.5H560.608C559.372 245.5 558.712 244.864 558.712 243.688V239.98H557.536V239.14H558.712V236.968H559.708V239.14H561.424V239.98H559.708V243.688C559.708 244.324 560.02 244.66 560.608 244.66H561.316V245.5ZM563.137 245.62C562.705 245.62 562.381 245.296 562.381 244.864C562.381 244.444 562.705 244.12 563.137 244.12C563.569 244.12 563.893 244.444 563.893 244.864C563.893 245.296 563.569 245.62 563.137 245.62Z" fill="#014F2D"/>
<defs>
<clipPath id="clip0_616_2352">
<rect width="14" height="14" fill="white" transform="translate(28 259)"/>
</clipPath>
<clipPath id="clip1_616_2352">
<rect width="14" height="14" fill="white" transform="translate(387.5 235.5)"/>
</clipPath>
</defs>
</svg>
