<svg width="294" height="316" viewBox="0 0 294 316" fill="none" xmlns="http://www.w3.org/2000/svg">
<g clip-path="url(#clip0_1463_137)">
<mask id="mask0_1463_137" style="mask-type:luminance" maskUnits="userSpaceOnUse" x="0" y="0" width="300" height="323">
<path d="M300 0H0V322.449H300V0Z" fill="white"/>
</mask>
<g mask="url(#mask0_1463_137)">
<path d="M145.074 311.469C117.897 311.469 93.3919 305.046 72.2394 292.382C51.0761 279.713 34.3065 261.588 22.3971 238.513C10.4985 215.459 4.45801 188.09 4.45801 157.162C4.45801 126.233 10.3537 100.987 21.9733 77.9277C33.6037 54.8472 50.6577 36.6472 72.6632 23.8385C94.6579 11.0351 120.719 4.54199 150.117 4.54199C187.647 4.54199 219.18 15.2437 243.847 36.357C268.502 57.4702 284.274 87.0008 290.717 124.126L290.846 124.884H246.674L246.572 124.363C241.583 99.0249 230.414 78.9114 213.37 64.5761C196.333 50.2462 175.046 42.9844 150.106 42.9844C129.581 42.9844 111.449 47.6393 96.2136 56.8252C80.9836 66.0005 69.1118 79.3306 60.9469 96.4395C52.7606 113.575 48.6084 134.006 48.6084 157.162C48.6084 180.317 52.7606 201.318 60.9469 218.728C69.1172 236.127 80.7047 249.666 95.3875 258.987C110.06 268.302 127.339 273.026 146.743 273.026C163.357 273.026 178.174 269.43 190.77 262.341C203.355 255.256 213.242 245.259 220.157 232.622C226.98 220.141 230.489 205.763 230.585 189.89H135.595V153.56H237.962C255.139 153.56 268.298 157.812 277.075 166.192C285.857 174.587 290.304 186.751 290.304 202.334V306.406H252.446V216.454C249.952 234.041 244.641 249.822 236.621 263.448C227.495 278.96 215.039 290.974 199.589 299.155C184.144 307.33 165.803 311.474 145.063 311.474M150.117 5.82663C120.944 5.82663 95.1032 12.2606 73.3069 24.9511C51.5214 37.6363 34.6337 55.6535 23.1213 78.5029C11.5929 101.379 5.75087 127.841 5.75087 157.156C5.75087 186.472 11.7377 215.046 23.5398 237.911C35.3365 260.777 51.9398 278.729 72.8992 291.269C93.8532 303.815 118.133 310.173 145.074 310.173C165.599 310.173 183.742 306.078 198.999 298.004C214.229 289.936 226.519 278.09 235.521 262.787C244.539 247.463 250.091 229.37 252.038 209.02L252.097 208.434H253.75V305.11H289.027V202.328C289.027 187.111 284.709 175.265 276.2 167.127C267.676 158.978 254.812 154.856 237.978 154.856H136.899V188.595H231.894V189.245C231.894 205.596 228.332 220.399 221.305 233.251C214.272 246.103 204.219 256.272 191.419 263.475C178.624 270.672 163.598 274.322 146.759 274.322C127.103 274.322 109.593 269.533 94.7116 260.078C79.8195 250.623 68.0711 236.901 59.7936 219.276C51.5268 201.694 47.3317 180.79 47.3317 157.156C47.3317 133.522 51.5268 113.183 59.7936 95.8751C68.0711 78.5297 80.1038 65.0168 95.5592 55.7072C110.998 46.403 129.351 41.6837 150.111 41.6837C175.363 41.6837 196.928 49.0475 214.207 63.5763C231.358 78.003 242.64 98.1917 247.736 123.584H289.311C282.836 87.1191 267.258 58.1045 243.004 37.3406C218.58 16.437 187.326 5.83201 150.111 5.83201" fill="#471221"/>
<path d="M64.4768 96.4823C64.4768 98.9871 62.4544 101.014 59.9652 101.014C57.476 101.014 55.4482 98.9871 55.4482 96.4823C55.4482 93.9776 57.4707 91.9512 59.9652 91.9512C62.4597 91.9512 64.4768 93.9829 64.4768 96.4823Z" fill="#8C2140"/>
<path d="M100.58 56.3361C100.58 58.8409 98.5579 60.8673 96.0687 60.8673C93.5796 60.8673 91.5518 58.8355 91.5518 56.3361C91.5518 53.8367 93.5742 51.8049 96.0687 51.8049C98.5633 51.8049 100.58 53.8313 100.58 56.3361Z" fill="#8C2140"/>
<path d="M217.925 64.1083C217.925 66.6131 215.903 68.6395 213.413 68.6395C210.924 68.6395 208.896 66.6131 208.896 64.1083C208.896 61.6035 210.919 59.5771 213.413 59.5771C215.908 59.5771 217.925 61.6089 217.925 64.1083Z" fill="#8C2140"/>
<path d="M250.161 123.68C250.161 126.185 248.138 128.211 245.649 128.211C243.16 128.211 241.132 126.18 241.132 123.68C241.132 121.181 243.155 119.149 245.649 119.149C248.144 119.149 250.161 121.175 250.161 123.68Z" fill="#8C2140"/>
<path d="M294 123.68C294 126.185 291.977 128.211 289.488 128.211C286.999 128.211 284.971 126.18 284.971 123.68C284.971 121.181 286.994 119.149 289.488 119.149C291.983 119.149 294 121.175 294 123.68Z" fill="#8C2140"/>
<path d="M248.873 36.9106C248.873 39.4154 246.851 41.4417 244.362 41.4417C241.873 41.4417 239.845 39.4154 239.845 36.9106C239.845 34.4058 241.867 32.3794 244.362 32.3794C246.856 32.3794 248.873 34.4112 248.873 36.9106Z" fill="#8C2140"/>
<path d="M9.02857 156.054C9.02857 158.559 7.00613 160.585 4.51697 160.585C2.02781 160.585 0 158.559 0 156.054C0 153.549 2.02244 151.523 4.51697 151.523C7.0115 151.523 9.02857 153.555 9.02857 156.054Z" fill="#8C2140"/>
<path d="M27.0803 237.648C27.0803 240.152 25.0579 242.179 22.5687 242.179C20.0796 242.179 18.0518 240.147 18.0518 237.648C18.0518 235.148 20.0742 233.116 22.5687 233.116C25.0633 233.116 27.0803 235.143 27.0803 237.648Z" fill="#8C2140"/>
<path d="M77.3679 292.038C77.3679 294.543 75.3455 296.569 72.8563 296.569C70.3672 296.569 68.3394 294.543 68.3394 292.038C68.3394 289.533 70.3618 287.507 72.8563 287.507C75.3509 287.507 77.3679 289.533 77.3679 292.038Z" fill="#8C2140"/>
<path d="M99.2927 259.664C99.2927 262.169 97.2703 264.195 94.7811 264.195C92.292 264.195 90.2642 262.169 90.2642 259.664C90.2642 257.159 92.2866 255.133 94.7811 255.133C97.2757 255.133 99.2927 257.165 99.2927 259.664Z" fill="#8C2140"/>
<path d="M150.868 273.908C150.868 276.413 148.845 278.439 146.356 278.439C143.867 278.439 141.839 276.407 141.839 273.908C141.839 271.408 143.862 269.377 146.356 269.377C148.851 269.377 150.868 271.403 150.868 273.908Z" fill="#8C2140"/>
<path d="M196 263.55C196 266.055 193.977 268.081 191.488 268.081C188.999 268.081 186.971 266.055 186.971 263.55C186.971 261.045 188.994 259.019 191.488 259.019C193.983 259.019 196 261.051 196 263.55Z" fill="#8C2140"/>
<path d="M150.868 311.469C150.868 313.973 148.845 316 146.356 316C143.867 316 141.839 313.968 141.839 311.469C141.839 308.969 143.862 306.938 146.356 306.938C148.851 306.938 150.868 308.969 150.868 311.469Z" fill="#8C2140"/>
<path d="M205.029 298.515C205.029 301.02 203.006 303.046 200.517 303.046C198.028 303.046 196 301.014 196 298.515C196 296.015 198.022 293.984 200.517 293.984C203.012 293.984 205.029 296.015 205.029 298.515Z" fill="#8C2140"/>
<path d="M225.661 232.466C225.661 234.971 223.638 236.997 221.149 236.997C218.66 236.997 216.632 234.971 216.632 232.466C216.632 229.961 218.655 227.935 221.149 227.935C223.644 227.935 225.661 229.967 225.661 232.466Z" fill="#8C2140"/>
<path d="M140.552 188.434C140.552 190.938 138.53 192.965 136.04 192.965C133.551 192.965 131.523 190.933 131.523 188.434C131.523 185.934 133.546 183.902 136.04 183.902C138.535 183.902 140.552 185.929 140.552 188.434Z" fill="#8C2140"/>
<path d="M256.609 209.154C256.609 211.659 254.587 213.686 252.098 213.686C249.608 213.686 247.581 211.659 247.581 209.154C247.581 206.65 249.603 204.623 252.098 204.623C254.592 204.623 256.609 206.655 256.609 209.154Z" fill="#8C2140"/>
<path d="M234.684 188.434C234.684 190.938 232.661 192.965 230.172 192.965C227.683 192.965 225.655 190.933 225.655 188.434C225.655 185.934 227.678 183.902 230.172 183.902C232.667 183.902 234.684 185.929 234.684 188.434Z" fill="#8C2140"/>
<path d="M140.552 153.469C140.552 155.973 138.53 158 136.04 158C133.551 158 131.523 155.968 131.523 153.469C131.523 150.969 133.546 148.938 136.04 148.938C138.535 148.938 140.552 150.964 140.552 153.469Z" fill="#8C2140"/>
<path d="M239.844 263.55C239.844 266.055 237.822 268.081 235.333 268.081C232.844 268.081 230.816 266.055 230.816 263.55C230.816 261.045 232.838 259.019 235.333 259.019C237.827 259.019 239.844 261.051 239.844 263.55Z" fill="#8C2140"/>
<path d="M256.609 304.992C256.609 307.497 254.587 309.523 252.098 309.523C249.608 309.523 247.581 307.497 247.581 304.992C247.581 302.487 249.603 300.461 252.098 300.461C254.592 300.461 256.609 302.487 256.609 304.992Z" fill="#8C2140"/>
<path d="M294 304.992C294 307.497 291.977 309.523 289.488 309.523C286.999 309.523 284.971 307.497 284.971 304.992C284.971 302.487 286.994 300.461 289.488 300.461C291.983 300.461 294 302.487 294 304.992Z" fill="#8C2140"/>
<path d="M64.4768 218.222C64.4768 220.727 62.4544 222.753 59.9652 222.753C57.476 222.753 55.4482 220.727 55.4482 218.222C55.4482 215.717 57.4707 213.691 59.9652 213.691C62.4597 213.691 64.4768 215.717 64.4768 218.222Z" fill="#8C2140"/>
<path d="M52.8679 156.054C52.8679 158.559 50.8455 160.585 48.3563 160.585C45.8672 160.585 43.8394 158.559 43.8394 156.054C43.8394 153.549 45.8618 151.523 48.3563 151.523C50.8509 151.523 52.8679 153.555 52.8679 156.054Z" fill="#8C2140"/>
<path d="M154.741 42.0922C154.741 44.597 152.719 46.6234 150.224 46.6234C147.729 46.6234 145.712 44.597 145.712 42.0922C145.712 39.5874 147.735 37.561 150.224 37.561C152.713 37.561 154.741 39.5928 154.741 42.0922Z" fill="#8C2140"/>
<path d="M23.9957 76.8097C35.4812 54.7612 52.0685 37.3191 73.3122 24.9511C95.1085 12.2606 120.95 5.83201 150.122 5.83201C150.315 5.83201 150.508 5.83201 150.702 5.83201V4.53662C150.508 4.53662 150.315 4.53662 150.122 4.53662C120.719 4.53662 94.6632 11.0297 72.6685 23.8331C51.2155 36.3247 34.4673 53.9334 22.8638 76.197L23.9957 76.8151V76.8097Z" fill="#DC134F"/>
<path d="M24.3338 77.9276L21.7642 76.5247L22.1343 75.8098C33.8076 53.4119 50.6685 35.685 72.2501 23.1181C94.3736 10.2448 120.574 3.71411 150.122 3.71411H151.522V6.65427H150.122C121.1 6.6489 95.3929 13.0452 73.7254 25.6551C52.6265 37.9371 36.1412 55.2771 24.7254 77.1859L24.3392 77.9276H24.3338Z" fill="#DC134F"/>
<path d="M238.026 153.582L237.758 154.85H237.967C254.801 154.85 267.665 158.978 276.19 167.127C284.521 175.098 288.823 186.627 289 201.387H290.293C290.116 186.257 285.68 174.41 277.08 166.186C268.304 157.806 255.144 153.555 237.967 153.555" fill="#DC134F"/>
<path d="M291.125 202.205H288.196L288.185 201.393C288.013 186.848 283.786 175.517 275.627 167.713C267.258 159.72 254.587 155.662 237.967 155.662H236.75L237.227 153.404L237.967 153.56V152.722C255.359 152.722 268.712 157.049 277.644 165.579C286.399 173.953 290.932 185.993 291.114 201.361L291.125 202.188V202.205Z" fill="#DC134F"/>
<path d="M243.713 153.469C243.713 155.973 241.69 158 239.201 158C236.712 158 234.684 155.968 234.684 153.469C234.684 150.969 236.707 148.938 239.201 148.938C241.696 148.938 243.713 150.964 243.713 153.469Z" fill="#8C2140"/>
<path d="M281.109 166.417C281.109 168.922 279.087 170.949 276.598 170.949C274.108 170.949 272.081 168.917 272.081 166.417C272.081 163.918 274.103 161.886 276.598 161.886C279.092 161.886 281.109 163.913 281.109 166.417Z" fill="#8C2140"/>
<path d="M294 201.382C294 203.887 291.977 205.913 289.488 205.913C286.999 205.913 284.971 203.887 284.971 201.382C284.971 198.877 286.994 196.851 289.488 196.851C291.983 196.851 294 198.877 294 201.382Z" fill="#8C2140"/>
<path d="M154.741 4.53118C154.741 7.03596 152.719 9.06236 150.224 9.06236C147.729 9.06236 145.712 7.03058 145.712 4.53118C145.712 2.03177 147.735 0 150.224 0C152.713 0 154.741 2.0264 154.741 4.53118Z" fill="#8C2140"/>
<path d="M77.3679 25.2521C77.3679 27.7569 75.3455 29.7833 72.8563 29.7833C70.3672 29.7833 68.3394 27.7569 68.3394 25.2521C68.3394 22.7473 70.3618 20.7209 72.8563 20.7209C75.3509 20.7209 77.3679 22.7527 77.3679 25.2521Z" fill="#8C2140"/>
<path d="M27.0803 78.3522C27.0803 80.857 25.0579 82.8834 22.5687 82.8834C20.0796 82.8834 18.0518 80.857 18.0518 78.3522C18.0518 75.8474 20.0742 73.821 22.5687 73.821C25.0633 73.821 27.0803 75.8528 27.0803 78.3522Z" fill="#8C2140"/>
</g>
</g>
<defs>
<clipPath id="clip0_1463_137">
<rect width="294" height="316" fill="white"/>
</clipPath>
</defs>
</svg>
