<svg width="132" height="38" viewBox="0 0 132 38" fill="none" xmlns="http://www.w3.org/2000/svg">
<path d="M42.898 30.4282C41.558 30.4282 40.3616 30.1099 39.3088 29.4765C38.2591 28.8432 37.4392 27.9429 36.8522 26.7822C36.2651 25.6184 35.9716 24.2712 35.9716 22.7376C35.9716 21.2039 36.2683 19.9661 36.8617 18.8086C37.4552 17.6512 38.307 16.7509 39.4109 16.1015C40.5179 15.452 41.81 15.1305 43.2904 15.1305C45.1982 15.1305 46.7679 15.661 47.9962 16.7188C49.2277 17.7766 49.9998 19.2395 50.3188 21.1075H47.6006C47.3805 20.0079 46.8859 19.1366 46.1171 18.4968C45.3482 17.857 44.407 17.5354 43.2872 17.5354C42.362 17.5354 41.5484 17.7476 40.8497 18.172C40.151 18.5964 39.615 19.2041 39.2418 19.9918C38.8685 20.7795 38.6803 21.6959 38.6803 22.7408C38.6803 23.7857 38.8653 24.747 39.2418 25.5412C39.615 26.3353 40.1446 26.9494 40.8274 27.3803C41.5133 27.8111 42.3045 28.0297 43.201 28.0297C43.9189 28.0297 44.5506 27.8818 45.0898 27.5892C45.6289 27.2967 46.0469 26.8948 46.3436 26.3868C46.6403 25.8788 46.7902 25.2968 46.7902 24.6409H42.5406V22.4032H47.4538C48.4205 22.4032 49.1607 22.6411 49.6743 23.1137C50.1848 23.5864 50.44 24.2905 50.44 25.2261V30.0939H48.1398V25.7277H48.0791C47.9834 26.689 47.7123 27.5217 47.2688 28.2258C46.8253 28.93 46.2319 29.4733 45.4854 29.8559C44.7388 30.2385 43.8742 30.4314 42.8948 30.4314L42.898 30.4282Z" fill="#532D37"/>
<path d="M51.9778 34.2739V32.0587H54.0101C54.4536 32.0587 54.7981 31.9815 55.047 31.8272C55.2958 31.6729 55.4809 31.451 55.6053 31.1584L55.9977 30.091H55.5224L51.1675 19.0148H53.9686L57.0378 27.2263L60.0655 19.0148H62.7614L58.0141 31.9108C57.8067 32.4413 57.5323 32.8785 57.1941 33.2258C56.8559 33.573 56.4221 33.8367 55.8988 34.0103C55.3724 34.1839 54.7439 34.2707 54.0101 34.2707H51.9778V34.2739Z" fill="#532D37"/>
<path d="M63.8397 30.0941V14.4202H66.4526V30.0941H63.8397Z" fill="#532D37"/>
<path d="M73.0472 30.4284C72.0645 30.4284 71.184 30.1744 70.4023 29.6664C69.6207 29.1584 69.0113 28.4575 68.5774 27.5669C68.1435 26.6763 67.9234 25.6507 67.9234 24.4964C67.9234 23.3422 68.1403 22.3616 68.5774 21.4774C69.0145 20.5932 69.6111 19.902 70.3704 19.4068C71.1297 18.9117 71.9943 18.6641 72.961 18.6641C73.7076 18.6641 74.3871 18.812 75.0029 19.1046C75.6186 19.3972 76.1195 19.8087 76.5055 20.336V14.4233H79.0961V30.0973H77.0001L76.7927 28.1939C76.4609 28.8755 75.9696 29.4189 75.3219 29.824C74.6711 30.2291 73.9118 30.4284 73.0408 30.4284H73.0472ZM73.5257 28.2325C74.1064 28.2325 74.62 28.0717 75.0699 27.7502C75.5197 27.4287 75.8707 26.9882 76.1259 26.4223C76.3811 25.8565 76.5087 25.207 76.5087 24.4675C76.5087 23.7698 76.3843 23.1493 76.1355 22.5963C75.8866 22.0465 75.542 21.6189 75.0986 21.3102C74.6551 21.0048 74.151 20.8504 73.5831 20.8504C72.9897 20.8504 72.4665 21.008 72.0167 21.3199C71.5668 21.6317 71.2159 22.0658 70.9606 22.6156C70.7054 23.1654 70.5778 23.7955 70.5778 24.5061C70.5778 25.2166 70.7054 25.8757 70.9606 26.4384C71.2159 27.0011 71.5604 27.4415 71.9975 27.7566C72.4346 28.0685 72.9419 28.226 73.5225 28.226L73.5257 28.2325Z" fill="#532D37"/>
<path d="M86.3 30.4058C85.1929 30.4058 84.2039 30.1583 83.3361 29.6631C82.4652 29.168 81.792 28.48 81.3134 27.5926C80.8349 26.7084 80.5988 25.7085 80.5988 24.5928C80.5988 23.4096 80.8381 22.3679 81.3134 21.4677C81.7888 20.5674 82.446 19.8762 83.2819 19.3875C84.1178 18.8988 85.0558 18.6544 86.0926 18.6544C87.1295 18.6544 88.042 18.8923 88.83 19.365C89.618 19.8376 90.237 20.516 90.6868 21.3937C91.1366 22.2715 91.3664 23.3035 91.3823 24.4867V25.1137H83.1702C83.266 26.0461 83.5978 26.7984 84.1656 27.3707C84.7335 27.943 85.4514 28.2292 86.3223 28.2292C86.9445 28.2292 87.4741 28.0813 87.908 27.7887C88.345 27.4961 88.6513 27.091 88.83 26.5766H91.3408C91.0633 27.7758 90.4794 28.7114 89.5893 29.3866C88.696 30.0618 87.6017 30.3994 86.3032 30.3994L86.3 30.4058ZM88.7247 23.3228C88.5716 22.5576 88.2653 21.9596 87.8027 21.5352C87.3401 21.1108 86.769 20.8986 86.0926 20.8986C85.4163 20.8986 84.8292 21.1108 84.3315 21.5352C83.8338 21.9596 83.4893 22.5544 83.2947 23.3228H88.7279H88.7247Z" fill="#532D37"/>
<path d="M92.8307 30.0939V19.0176H94.9236L95.1725 20.6477C95.4915 20.0497 95.9829 19.5674 96.6465 19.2041C97.3101 18.8408 98.0438 18.6608 98.8446 18.6608C100.019 18.6608 100.96 19.0337 101.665 19.7796C102.37 20.5256 102.724 21.5255 102.724 22.7794V30.0939H100.111V22.9048C100.111 22.3068 99.9294 21.8309 99.5625 21.4837C99.1956 21.1364 98.6883 20.9628 98.0375 20.9628C97.5398 20.9628 97.0963 21.0689 96.7103 21.2779C96.3242 21.4869 96.0148 21.7795 95.7882 22.1556C95.5617 22.5318 95.4469 22.9434 95.4469 23.3871V30.0971H92.8339L92.8307 30.0939Z" fill="#532D37"/>
<path d="M109.153 30.4284C108.17 30.4284 107.29 30.1744 106.508 29.6664C105.726 29.1584 105.117 28.4575 104.683 27.5669C104.249 26.6763 104.029 25.6507 104.029 24.4964C104.029 23.3422 104.246 22.3616 104.683 21.4774C105.12 20.5932 105.717 19.902 106.476 19.4068C107.235 18.9117 108.1 18.6641 109.067 18.6641C109.813 18.6641 110.493 18.812 111.108 19.1046C111.724 19.3972 112.225 19.8087 112.611 20.336V14.4233H115.202V30.0973H113.106L112.898 28.1939C112.566 28.8755 112.075 29.4189 111.428 29.824C110.777 30.2291 110.017 30.4284 109.146 30.4284H109.153ZM109.628 28.2325C110.209 28.2325 110.722 28.0717 111.172 27.7502C111.622 27.4287 111.973 26.9882 112.228 26.4223C112.484 25.8565 112.611 25.207 112.611 24.4675C112.611 23.7698 112.487 23.1493 112.238 22.5963C111.989 22.0465 111.644 21.6189 111.201 21.3102C110.758 21.0048 110.253 20.8504 109.686 20.8504C109.092 20.8504 108.569 21.008 108.119 21.3199C107.669 21.6317 107.318 22.0658 107.063 22.6156C106.808 23.1654 106.68 23.7955 106.68 24.5061C106.68 25.2166 106.808 25.8757 107.063 26.4384C107.318 27.0011 107.663 27.4415 108.1 27.7566C108.537 28.0685 109.044 28.226 109.625 28.226L109.628 28.2325Z" fill="#532D37"/>
<path d="M120.932 30.3222C119.659 30.3222 118.641 30.0328 117.872 29.4541C117.106 28.8754 116.727 28.0716 116.743 27.0395C116.755 26.2325 116.988 25.5895 117.438 25.1169C117.888 24.6442 118.45 24.3002 119.129 24.0912C119.805 23.8822 120.587 23.7279 121.474 23.6314C121.57 23.6025 121.675 23.5864 121.784 23.58C121.895 23.5736 121.997 23.5639 122.093 23.5479C122.632 23.4932 123.047 23.4289 123.337 23.3614C123.628 23.2939 123.864 23.1878 124.042 23.0463C124.221 22.908 124.31 22.7183 124.31 22.4836C124.31 22.1493 124.227 21.8535 124.061 21.5963C123.896 21.339 123.647 21.1429 123.315 21.0111C122.983 20.8793 122.603 20.8118 122.176 20.8118C121.471 20.8118 120.887 20.9854 120.424 21.3326C119.962 21.6798 119.687 22.1332 119.604 22.6926H116.992C117.062 21.9274 117.33 21.2362 117.799 20.6221C118.268 20.008 118.883 19.5289 119.646 19.1784C120.405 18.8312 121.257 18.6576 122.198 18.6576C123.194 18.6576 124.036 18.828 124.728 19.1688C125.421 19.5096 125.947 19.9822 126.314 20.5803C126.681 21.1783 126.863 21.876 126.863 22.6701V27.6022C126.863 27.7565 126.904 27.869 126.987 27.9462C127.07 28.0234 127.201 28.0619 127.379 28.0619H127.979V30.0875H126.776C126.225 30.0875 125.775 29.9814 125.43 29.7756C125.086 29.5666 124.849 29.2612 124.725 28.8561C124.712 28.8014 124.693 28.7371 124.674 28.6696C124.655 28.5989 124.636 28.5378 124.623 28.4831C124.304 29.0811 123.838 29.5377 123.222 29.8528C122.607 30.1647 121.844 30.3222 120.932 30.3222ZM121.471 28.3159C122.3 28.3159 122.98 28.107 123.513 27.689C124.046 27.271 124.31 26.7148 124.31 26.0171V24.4288C124.144 24.7085 123.867 24.9111 123.481 25.0333C123.095 25.1586 122.562 25.2712 121.886 25.3676H121.761C121.209 25.4384 120.769 25.5187 120.444 25.6088C120.118 25.6988 119.857 25.8435 119.656 26.0364C119.455 26.2325 119.356 26.5026 119.356 26.853C119.356 27.3257 119.534 27.689 119.895 27.9398C120.255 28.1905 120.779 28.3159 121.471 28.3159Z" fill="#532D37"/>
<path d="M129.163 30.0941V14.4202H131.776V30.0941H129.163Z" fill="#532D37"/>
<path d="M3.79337 30.5987C3.03406 30.4701 2.40236 30.3447 1.77067 30.0875C1.26339 29.8335 0.759313 29.5763 0.252041 29.3223C0 29.1937 0 29.0683 0 29.0683C0 28.9397 0 28.8143 0.127616 28.8143H0.124425C2.27475 28.3031 4.17303 27.5379 6.07131 26.5187C7.84198 25.4994 9.48822 24.3516 11.0037 22.8212C8.72572 22.9498 6.45097 22.1846 4.67711 20.9082L4.5495 20.7796C4.5495 20.651 4.5495 20.5256 4.67711 20.5256C6.57539 20.0144 8.34606 19.2492 9.86468 17.976C11.2557 16.8282 12.3947 15.4263 13.2816 13.8959C12.3947 13.8959 11.5109 13.7673 10.7516 13.5133C10.2443 13.2593 9.74026 13.0021 9.23299 12.7481C9.23299 12.7481 9.10537 12.7481 9.10537 12.6195C8.97776 12.4909 9.10537 12.3655 9.23299 12.2369C10.876 11.3431 12.2702 10.3239 13.2816 9.05068C14.8002 6.88366 15.4319 2.93223 15.684 0.382604C15.684 0.253998 15.8116 0 15.936 0C16.0604 0 16.3157 0.128606 16.3157 0.253998V0.382604C16.5677 2.93223 17.075 6.88366 18.718 9.05068C19.7294 10.3271 21.1204 11.4717 22.639 12.1115C22.7666 12.1115 22.891 12.3655 22.7666 12.4941C22.7666 12.4941 22.7666 12.6227 22.639 12.6227C22.1317 13.0053 21.7521 13.2593 21.248 13.3879C20.4887 13.6419 19.6049 13.8991 18.718 13.7705C19.4773 15.047 20.4887 16.0662 21.7553 16.9568C23.0218 17.8506 24.5373 18.4872 26.0559 18.7412C26.1835 18.7412 26.308 18.8698 26.308 18.9952C26.308 18.9952 26.3079 19.1238 26.1803 19.1238L26.0527 19.2524C25.2934 19.7636 24.5341 20.2716 23.6504 20.5288C22.5114 20.9114 21.248 21.1654 20.109 21.04C21.3756 22.1878 22.891 23.0784 24.5373 23.8436C26.1803 24.6088 27.8266 25.1201 29.5972 25.3741C29.7249 25.3741 29.8493 25.5027 29.7249 25.6281C29.7249 25.6281 29.7249 25.7567 29.5972 25.7567L29.4696 25.8853C28.4583 26.6505 27.3193 27.2871 26.1803 27.6697C24.7893 28.1809 23.1431 28.4349 21.6276 28.3063L27.3193 30.7273C27.4469 30.7273 27.5713 30.9813 27.4469 31.1099C27.4469 31.2385 27.3193 31.2385 27.3193 31.2385C27.0673 31.3671 26.6876 31.4925 26.4324 31.6211C26.0527 31.7497 25.8007 31.8751 25.421 32.0037L26.1803 32.7689C27.3193 33.9167 28.4583 35.0646 29.7217 36.0838C29.8493 36.2124 29.8493 36.3378 29.7217 36.4664L29.594 36.595C27.951 36.7236 26.4324 36.595 24.7861 36.2124C23.3951 35.9584 22.0041 35.4472 20.7375 34.8106C20.8651 35.3218 21.1172 35.7044 21.2448 36.2124C21.4968 36.595 21.7521 37.1062 22.0041 37.4888C22.1317 37.6174 22.0041 37.7428 21.8765 37.8714C21.8765 37.8714 21.7489 38 21.6245 38C19.8538 37.4888 18.0831 36.7236 16.4369 35.579C14.7938 34.5598 13.3996 33.2834 12.1362 31.7529C12.1362 32.2641 12.2639 32.6468 12.3883 33.1547C12.5159 33.666 12.6403 34.174 12.8956 34.6852C11.5045 35.4504 9.8583 36.087 8.34287 36.341C6.44459 36.8522 4.92596 36.9776 3.28291 36.8522C3.19783 36.8522 3.15529 36.8093 3.15529 36.7236C3.02768 36.595 3.02768 36.4696 3.15529 36.341C4.42188 35.3218 5.55766 34.174 6.69663 33.0261C7.70798 31.8783 8.59491 30.8591 9.35422 29.8399V29.7113C8.59491 30.2225 7.71117 30.7305 6.82424 30.9877C5.68527 31.4989 4.5463 31.8815 3.40734 32.0069H3.15529C3.02768 31.8783 3.02768 31.7529 3.02768 31.6243L3.78699 30.6051L3.79337 30.5987Z" fill="#E50243"/>
</svg>
