<?xml version="1.0" encoding="UTF-8"?>
<svg id="b" data-name="Layer 2" xmlns="http://www.w3.org/2000/svg" viewBox="0 0 416.49 123.03">
  <g id="c" data-name="Foreground">
    <g>
      <g>
        <path d="M137.38,95.58c-4.2,0-7.95-.99-11.25-2.96-3.29-1.97-5.86-4.77-7.7-8.38-1.84-3.62-2.76-7.81-2.76-12.58s.93-8.62,2.79-12.22c1.86-3.6,4.53-6.4,7.99-8.42,3.47-2.02,7.52-3.02,12.16-3.02,5.98,0,10.9,1.65,14.75,4.94,3.86,3.29,6.28,7.84,7.28,13.65h-8.52c-.69-3.42-2.24-6.13-4.65-8.12-2.41-1.99-5.36-2.99-8.87-2.99-2.9,0-5.45.66-7.64,1.98-2.19,1.32-3.87,3.21-5.04,5.65-1.17,2.45-1.76,5.3-1.76,8.55s.58,6.24,1.76,8.71c1.17,2.47,2.83,4.38,4.97,5.72,2.15,1.34,4.63,2.02,7.44,2.02,2.25,0,4.23-.46,5.92-1.37s3-2.16,3.93-3.74c.93-1.58,1.4-3.39,1.4-5.43h-13.32v-6.96h15.4c3.03,0,5.35.74,6.96,2.21,1.6,1.47,2.4,3.66,2.4,6.57v15.14h-7.21v-13.58h-.19c-.3,2.99-1.15,5.58-2.54,7.77-1.39,2.19-3.25,3.88-5.59,5.07-2.34,1.19-5.05,1.79-8.12,1.79Z" fill="#691837" stroke-width="0"/>
        <path d="M165.92,107.54v-6.89h6.37c1.39,0,2.47-.24,3.25-.72.78-.48,1.36-1.17,1.75-2.08l1.23-3.32h-1.49l-13.65-34.45h8.78l9.62,25.54,9.49-25.54h8.45l-14.88,40.11c-.65,1.65-1.51,3.01-2.57,4.09-1.06,1.08-2.42,1.9-4.06,2.44-1.65.54-3.62.81-5.92.81h-6.37Z" fill="#691837" stroke-width="0"/>
        <path d="M203.16,94.54v-48.75h8.19v48.75h-8.19Z" fill="#691837" stroke-width="0"/>
        <path d="M232.08,95.58c-3.08,0-5.84-.79-8.29-2.37-2.45-1.58-4.36-3.76-5.72-6.53-1.36-2.77-2.05-5.96-2.05-9.55s.68-6.64,2.05-9.39c1.37-2.75,3.24-4.9,5.62-6.44,2.38-1.54,5.09-2.31,8.12-2.31,2.34,0,4.47.46,6.4,1.37,1.93.91,3.5,2.19,4.71,3.83v-18.39h8.12v48.75h-6.57l-.65-5.92c-1.04,2.12-2.58,3.81-4.61,5.07-2.04,1.26-4.42,1.88-7.15,1.88ZM233.58,88.76c1.82,0,3.43-.5,4.84-1.5,1.41-1,2.51-2.37,3.31-4.13s1.2-3.78,1.2-6.08c0-2.17-.39-4.1-1.17-5.82-.78-1.71-1.86-3.04-3.25-4-1.39-.95-2.97-1.43-4.75-1.43-1.86,0-3.5.49-4.91,1.46s-2.51,2.32-3.31,4.03c-.8,1.71-1.2,3.67-1.2,5.88s.4,4.26,1.2,6.01c.8,1.75,1.88,3.12,3.25,4.1,1.37.97,2.96,1.46,4.78,1.46Z" fill="#691837" stroke-width="0"/>
        <path d="M273.68,95.52c-3.47,0-6.57-.77-9.29-2.31-2.73-1.54-4.84-3.68-6.34-6.44-1.5-2.75-2.24-5.86-2.24-9.33,0-3.68.75-6.92,2.24-9.72s3.55-4.95,6.17-6.47c2.62-1.52,5.56-2.28,8.81-2.28s6.11.74,8.58,2.21c2.47,1.47,4.41,3.58,5.82,6.31,1.41,2.73,2.13,5.94,2.18,9.62v1.95h-25.74c.3,2.9,1.34,5.24,3.12,7.02,1.78,1.78,4.03,2.67,6.76,2.67,1.95,0,3.61-.46,4.97-1.37,1.37-.91,2.33-2.17,2.89-3.77h7.87c-.87,3.73-2.7,6.64-5.49,8.74-2.8,2.1-6.23,3.15-10.3,3.15ZM281.29,73.48c-.48-2.38-1.44-4.24-2.89-5.56-1.45-1.32-3.24-1.98-5.36-1.98s-3.96.66-5.52,1.98c-1.56,1.32-2.64,3.17-3.25,5.56h17.03Z" fill="#691837" stroke-width="0"/>
        <path d="M294.22,94.54v-34.45h6.56l.78,5.07c1-1.86,2.54-3.36,4.62-4.49,2.08-1.13,4.38-1.69,6.89-1.69,3.68,0,6.63,1.16,8.84,3.48,2.21,2.32,3.32,5.43,3.32,9.33v22.75h-8.19v-22.36c0-1.86-.57-3.34-1.72-4.42-1.15-1.08-2.74-1.62-4.78-1.62-1.56,0-2.95.33-4.16.98-1.21.65-2.18,1.56-2.89,2.73s-1.07,2.45-1.07,3.83v20.87h-8.19Z" fill="#691837" stroke-width="0"/>
        <path d="M345.44,95.58c-3.08,0-5.84-.79-8.29-2.37-2.45-1.58-4.36-3.76-5.72-6.53-1.36-2.77-2.05-5.96-2.05-9.55s.68-6.64,2.05-9.39c1.37-2.75,3.24-4.9,5.62-6.44,2.38-1.54,5.09-2.31,8.12-2.31,2.34,0,4.47.46,6.4,1.37,1.93.91,3.5,2.19,4.71,3.83v-18.39h8.12v48.75h-6.57l-.65-5.92c-1.04,2.12-2.58,3.81-4.61,5.07-2.04,1.26-4.42,1.88-7.15,1.88ZM346.94,88.76c1.82,0,3.43-.5,4.84-1.5,1.41-1,2.51-2.37,3.31-4.13s1.2-3.78,1.2-6.08c0-2.17-.39-4.1-1.17-5.82-.78-1.71-1.86-3.04-3.25-4-1.39-.95-2.97-1.43-4.75-1.43-1.86,0-3.5.49-4.91,1.46s-2.51,2.32-3.31,4.03c-.8,1.71-1.2,3.67-1.2,5.88s.4,4.26,1.2,6.01c.8,1.75,1.88,3.12,3.25,4.1,1.37.97,2.96,1.46,4.78,1.46Z" fill="#691837" stroke-width="0"/>
        <path d="M382.43,95.26c-3.99,0-7.18-.9-9.59-2.7-2.4-1.8-3.59-4.3-3.54-7.51.04-2.51.77-4.51,2.18-5.98,1.41-1.47,3.17-2.54,5.3-3.19,2.12-.65,4.57-1.13,7.35-1.43.3-.09.63-.14.97-.16.35-.02.67-.05.97-.1,1.69-.17,2.99-.37,3.9-.58s1.65-.54,2.21-.98c.56-.43.84-1.02.84-1.75,0-1.04-.26-1.96-.78-2.76-.52-.8-1.3-1.41-2.34-1.82s-2.23-.62-3.57-.62c-2.21,0-4.04.54-5.49,1.62-1.45,1.08-2.31,2.49-2.57,4.23h-8.19c.22-2.38,1.06-4.53,2.53-6.44,1.47-1.91,3.4-3.4,5.79-4.48,2.38-1.08,5.05-1.62,8-1.62,3.12,0,5.76.53,7.93,1.59,2.17,1.06,3.82,2.52,4.97,4.39,1.15,1.86,1.72,4.03,1.72,6.5v15.34c0,.48.13.83.39,1.07.26.24.67.36,1.23.36h1.88v6.3h-3.77c-1.73,0-3.14-.33-4.22-.97-1.08-.65-1.82-1.6-2.21-2.86-.04-.17-.1-.37-.16-.58-.06-.22-.12-.41-.16-.58-1,1.86-2.46,3.28-4.39,4.26-1.93.97-4.32,1.46-7.18,1.46ZM384.12,89.02c2.6,0,4.73-.65,6.4-1.95,1.67-1.3,2.5-3.03,2.5-5.2v-4.94c-.52.87-1.39,1.5-2.6,1.88-1.21.39-2.88.74-5,1.04h-.39c-1.73.22-3.11.47-4.13.75-1.02.28-1.84.73-2.47,1.33-.63.61-.94,1.45-.94,2.54,0,1.47.56,2.6,1.69,3.38,1.13.78,2.77,1.17,4.94,1.17Z" fill="#691837" stroke-width="0"/>
        <path d="M408.3,94.54v-48.75h8.19v48.75h-8.19Z" fill="#691837" stroke-width="0"/>
      </g>
      <path d="M92.58,86.74c-5.87-2.13-22.57-9.25-29.17-16.08,7.35-1.6,12.44-3.08,17.12-5.62.73-.4.74-1.43-.03-1.75-5.12-2.11-18.5-7.04-23.12-18.53,5.31-1.08,9.08-2.78,11.03-3.8.66-.35.67-1.28.02-1.65C53.24,30.46,50.53,12.24,48.51.73c-.18-1-1.63-.96-1.75.05-1.31,11.56-5.63,31.15-19.93,39.4-.55.32-.5,1.13.09,1.37,2.14.87,6.4,2.43,11.58,3.4-6.43,11.31-21.63,17.88-25.85,19.3-.37.13-.43.63-.09.83,5.14,3.06,11.31,4.78,17.54,5.83-4.41,5.33-13.42,13.48-29.44,20.28-.8.34-.93,1.57-.09,1.77,6.86,1.66,15.41,2.5,23.38,2.32-3.86,5.32-16.09,14.77-20.64,19.08-.63.59-.25,1.63.66,1.65,15.99.43,28.81-2.87,31.04-3.91.2-.09.31-.32.25-.53l-2.36-7.68c-.12-.46.46-.78.78-.43,3.91,4.27,16.8,17.2,30.86,19.57.36.06.64-.3.5-.64l-3.79-9c-.16-.38.23-.77.61-.59,4.83,2.3,16.1,3.75,28.1,2.06.96-.14,1.26-1.37.45-1.92-4.24-2.86-13.45-9.46-19.13-16.44,10.06-1.6,17.74-5.21,21.5-7.27,1.03-.57.91-2.08-.19-2.48Z" fill="#dc134f" stroke-width="0"/>
    </g>
  </g>
</svg>