<svg width="716" height="563" viewBox="0 0 716 563" fill="none" xmlns="http://www.w3.org/2000/svg">
<rect x="1.67812" y="1.67812" width="712.644" height="558.816" rx="7.27187" fill="#ECE6F9"/>
<rect x="1.67812" y="1.67812" width="712.644" height="558.816" rx="7.27187" stroke="#7E8D9D" stroke-width="3.35625"/>
<rect x="53.7" y="2.23755" width="64.3281" height="555.459" rx="2.2375" fill="#E0D4F8"/>
<path d="M87.9379 42.4861C87.9379 43.9293 86.9243 44.7818 85.5012 44.7818C84.105 44.7818 83.0914 43.9293 83.0914 42.4861C83.0914 41.2913 83.7895 40.4724 84.9709 40.271L84.9709 40.855C84.1117 41.0295 83.6083 41.6336 83.6083 42.4861C83.6083 43.54 84.34 44.1911 85.5012 44.1911C86.7028 44.1911 87.421 43.54 87.421 42.4861C87.421 41.6068 86.9444 41.0362 86.0584 40.855L86.0584 40.271C87.28 40.4791 87.9379 41.2577 87.9379 42.4861ZM87.9379 37.8926C87.9379 39.0338 87.1256 39.6379 86.0516 39.6379C84.8635 39.6379 84.2258 38.8592 84.2258 37.8926C84.2258 36.7582 85.0448 36.1474 86.0516 36.1474C87.28 36.1474 87.9379 36.8925 87.9379 37.8926ZM87.4546 37.8926C87.4546 37.1341 86.8236 36.7179 86.0516 36.7179C85.2529 36.7179 84.7091 37.1811 84.7091 37.8926C84.7091 38.6042 85.2529 39.0673 86.0516 39.0673C86.9645 39.0673 87.4546 38.537 87.4546 37.8926ZM87.864 34.8414L87.864 35.3985L82.8296 35.3985L82.8296 34.8414L87.864 34.8414ZM87.9379 32.6155C87.9379 33.4814 87.4076 33.9781 86.6826 33.9781L84.3064 33.9781L84.3064 33.421L86.6625 33.421C87.1726 33.421 87.4478 33.0652 87.4478 32.5618C87.4478 31.8972 87.0048 31.5347 86.4678 31.528L84.3064 31.528L84.3064 30.9709L87.864 30.9709L87.864 31.4139L87.327 31.4609C87.7298 31.6958 87.9379 32.1254 87.9379 32.6155ZM87.864 29.4994L87.864 30.0565L84.3064 30.0565L84.3064 29.6135L84.8568 29.5598C84.4742 29.3182 84.2258 28.855 84.2258 28.3448C84.2258 27.8078 84.5011 27.4051 84.9307 27.2239C84.5145 26.9956 84.2258 26.5056 84.2258 25.9619C84.2258 25.2101 84.7561 24.7268 85.4811 24.7268L87.864 24.7268L87.864 25.2839L85.5012 25.2839C85.0246 25.2839 84.7159 25.5793 84.7159 26.0559C84.7159 26.7204 85.1589 27.1097 85.7026 27.1165L87.864 27.1165L87.864 27.6669L85.5012 27.6669C85.0246 27.6669 84.7159 27.9622 84.7159 28.4388C84.7159 29.1034 85.1589 29.4927 85.7026 29.4994L87.864 29.4994ZM87.864 23.2982L87.864 23.8553L84.3064 23.8553L84.3064 23.4123L84.8501 23.3586C84.4742 23.117 84.2258 22.6538 84.2258 22.1235C84.2258 21.3583 84.7226 20.8481 85.5079 20.8481L87.864 20.8481L87.864 21.4053L85.5281 21.4053C85.0313 21.4053 84.7159 21.7275 84.7159 22.2645C84.7159 22.9022 85.1589 23.2915 85.7026 23.2982L87.864 23.2982Z" fill="#4420B0" fill-opacity="0.5"/>
<rect x="2.79688" y="2.23755" width="50.9031" height="555.459" rx="2.2375" fill="#FFE6D2"/>
<path d="M30.2485 289.833L30.2485 290.397L25.5498 290.397L25.5498 289.692L29.5773 288.034L25.5498 286.383L25.5498 285.671L30.2485 285.671L30.2485 286.235L26.5298 286.235L30.2485 287.765L30.2485 288.309L26.5432 289.833L30.2485 289.833ZM30.3022 283.496C30.3022 284.302 29.8861 284.818 29.2349 284.818C28.416 284.818 28.2616 284.026 28.1878 283.315C28.1341 282.771 28.1408 282.301 27.8522 282.295C27.4024 282.301 27.0869 282.67 27.0869 283.207C27.0869 283.724 27.3756 284.127 27.7985 284.187L27.7985 284.738C27.1004 284.671 26.6104 284.04 26.6104 283.194C26.6104 282.315 27.1339 281.751 27.8857 281.751L29.6176 281.751C29.7317 281.751 29.7921 281.69 29.7921 281.57L29.7921 281.368L30.2485 281.368L30.2485 281.684C30.2485 282.066 30.074 282.268 29.7451 282.268L29.6377 282.268C30.0472 282.476 30.3022 282.879 30.3022 283.496ZM29.8256 283.416C29.8256 282.751 29.4028 282.295 28.8121 282.295L28.3489 282.295C28.557 282.449 28.5973 282.845 28.6442 283.281C28.6979 283.771 28.7651 284.261 29.2215 284.261C29.5907 284.261 29.8256 283.926 29.8256 283.416ZM30.2485 280.186L30.2485 280.744L26.6909 280.744L26.6909 280.301L27.3689 280.233C26.9124 280.005 26.6708 279.589 26.6708 278.998L26.6708 278.877L27.2212 278.877L27.2212 278.998C27.2212 279.75 27.6508 280.186 28.3825 280.186L30.2485 280.186ZM31.6716 276.853C31.6716 277.813 31.2084 278.464 30.4566 278.464L30.4566 277.907C30.8795 277.907 31.2017 277.477 31.2017 276.853C31.2017 276.121 30.7654 275.739 30.1546 275.739L29.5773 275.739C29.9465 275.987 30.1881 276.416 30.1881 276.96C30.1881 277.907 29.4632 278.585 28.416 278.585C27.3487 278.585 26.6104 277.9 26.6104 276.96C26.6104 276.39 26.8789 275.926 27.3085 275.685L26.6909 275.624L26.6909 275.188L30.1546 275.188C31.054 275.188 31.6716 275.792 31.6716 276.853ZM29.7048 276.88C29.7048 276.208 29.1678 275.739 28.3959 275.739C27.6307 275.739 27.0937 276.208 27.0937 276.88C27.0937 277.544 27.6307 278.007 28.4093 278.007C29.1745 278.007 29.7048 277.544 29.7048 276.88ZM26.0935 273.992C26.0935 274.227 25.9123 274.408 25.6773 274.408C25.4424 274.408 25.2679 274.227 25.2679 273.992C25.2679 273.757 25.4424 273.582 25.6773 273.582C25.9123 273.582 26.0935 273.757 26.0935 273.992ZM30.2485 273.716L30.2485 274.274L26.6909 274.274L26.6909 273.716L30.2485 273.716ZM30.2485 272.248L30.2485 272.805L26.6909 272.805L26.6909 272.362L27.2346 272.309C26.8587 272.067 26.6104 271.604 26.6104 271.073C26.6104 270.308 27.1071 269.798 27.8924 269.798L30.2485 269.798L30.2485 270.355L27.9126 270.355C27.4159 270.355 27.1004 270.677 27.1004 271.214C27.1004 271.852 27.5434 272.241 28.0871 272.248L30.2485 272.248Z" fill="#623A0E"/>
<rect x="520.219" y="1.6781" width="64.3281" height="555.459" rx="2.2375" fill="#E0D4F8"/>
<path d="M554.457 41.9267C554.457 43.3699 553.443 44.2224 552.02 44.2224C550.624 44.2224 549.61 43.3699 549.61 41.9267C549.61 40.7319 550.308 39.9129 551.49 39.7116L551.49 40.2955C550.631 40.4701 550.127 41.0742 550.127 41.9267C550.127 42.9805 550.859 43.6317 552.02 43.6317C553.222 43.6317 553.94 42.9805 553.94 41.9267C553.94 41.0473 553.463 40.4768 552.577 40.2955L552.577 39.7116C553.799 39.9196 554.457 40.6983 554.457 41.9267ZM554.457 37.3332C554.457 38.4743 553.644 39.0784 552.57 39.0784C551.382 39.0784 550.745 38.2998 550.745 37.3332C550.745 36.1988 551.564 35.5879 552.57 35.5879C553.799 35.5879 554.457 36.333 554.457 37.3332ZM553.973 37.3332C553.973 36.5747 553.342 36.1585 552.57 36.1585C551.772 36.1585 551.228 36.6217 551.228 37.3332C551.228 38.0447 551.772 38.5079 552.57 38.5079C553.483 38.5079 553.973 37.9776 553.973 37.3332ZM554.383 34.2819L554.383 34.8391L549.348 34.8391L549.348 34.2819L554.383 34.2819ZM554.457 32.056C554.457 32.9219 553.926 33.4186 553.201 33.4186L550.825 33.4186L550.825 32.8615L553.181 32.8615C553.691 32.8615 553.967 32.5057 553.967 32.0023C553.967 31.3378 553.524 30.9753 552.987 30.9686L550.825 30.9686L550.825 30.4114L554.383 30.4114L554.383 30.8545L553.846 30.9015C554.249 31.1364 554.457 31.566 554.457 32.056ZM554.383 28.9399L554.383 29.4971L550.825 29.4971L550.825 29.0541L551.376 29.0004C550.993 28.7587 550.745 28.2955 550.745 27.7854C550.745 27.2484 551.02 26.8456 551.449 26.6644C551.033 26.4362 550.745 25.9462 550.745 25.4025C550.745 24.6507 551.275 24.1674 552 24.1674L554.383 24.1674L554.383 24.7245L552.02 24.7245C551.543 24.7245 551.235 25.0198 551.235 25.4964C551.235 26.161 551.678 26.5503 552.221 26.557L554.383 26.557L554.383 27.1074L552.02 27.1074C551.543 27.1074 551.235 27.4028 551.235 27.8794C551.235 28.5439 551.678 28.9332 552.221 28.9399L554.383 28.9399ZM554.383 22.7387L554.383 23.2959L550.825 23.2959L550.825 22.8529L551.369 22.7992C550.993 22.5575 550.745 22.0943 550.745 21.5641C550.745 20.7988 551.241 20.2887 552.027 20.2887L554.383 20.2887L554.383 20.8458L552.047 20.8458C551.55 20.8458 551.235 21.168 551.235 21.705C551.235 22.3427 551.678 22.732 552.221 22.7387L554.383 22.7387Z" fill="#4420B0" fill-opacity="0.5"/>
<path d="M126.78 39.9349C126.78 41.2304 125.827 42.1567 124.343 42.1567C122.947 42.1567 121.934 41.3042 121.934 39.8744C121.934 38.6796 122.659 37.854 123.813 37.6593L123.813 38.2433C122.954 38.4178 122.451 39.0152 122.451 39.8744C122.451 40.9149 123.169 41.566 124.343 41.566C125.532 41.566 126.263 40.9015 126.263 39.9349C126.263 39.0555 125.666 38.4984 124.813 38.4984L124.813 40.0825L124.33 40.0825L124.33 38.4313C124.33 37.9412 124.578 37.6795 125.035 37.6795L126.706 37.6795L126.706 38.1829L125.102 38.1829L125.102 38.1963C126.136 38.2836 126.78 38.8944 126.78 39.9349ZM126.78 35.4836C126.78 36.3495 126.25 36.8462 125.525 36.8462L123.149 36.8462L123.149 36.2891L125.505 36.2891C126.015 36.2891 126.29 35.9333 126.29 35.4299C126.29 34.7653 125.847 34.4029 125.31 34.3961L123.149 34.3961L123.149 33.839L126.706 33.839L126.706 34.282L126.169 34.329C126.572 34.564 126.78 34.9936 126.78 35.4836ZM126.706 31.072L126.706 31.468C126.706 32.1594 126.351 32.5286 125.693 32.5286L123.619 32.5286L123.619 33.1864L123.149 33.1864L123.149 32.5286L121.934 32.5286L121.934 31.9715L123.149 31.9715L123.149 30.5887L121.934 30.5887L121.934 30.0316L123.149 30.0316L123.149 29.0717L123.619 29.0717L123.619 30.0316L125.693 30.0316C126.048 30.0316 126.236 29.857 126.236 29.5281L126.236 29.1321L126.706 29.1321L126.706 29.5281C126.706 30.2195 126.351 30.5887 125.693 30.5887L123.619 30.5887L123.619 31.9715L125.693 31.9715C126.048 31.9715 126.236 31.7969 126.236 31.468L126.236 31.072L126.706 31.072ZM126.78 26.9292C126.78 27.983 126.008 28.6811 124.941 28.6811C123.726 28.6811 123.068 27.8958 123.068 26.9963C123.068 26.0163 123.726 25.3853 124.867 25.3652L125.021 25.3652L125.021 28.124C125.78 28.0904 126.297 27.6474 126.297 26.9292C126.297 26.4324 126.048 26.07 125.585 25.9223L125.585 25.3786C126.317 25.5397 126.78 26.117 126.78 26.9292ZM124.558 28.0904L124.558 25.9491C123.934 26.0498 123.551 26.4257 123.551 26.9963C123.551 27.5601 123.921 27.9763 124.558 28.0904ZM126.706 24.0752L126.706 24.6323L123.149 24.6323L123.149 24.1893L123.827 24.1222C123.37 23.894 123.129 23.4778 123.129 22.8871L123.129 22.7663L123.679 22.7663L123.679 22.8871C123.679 23.6389 124.109 24.0752 124.84 24.0752L126.706 24.0752Z" fill="#4420B0" fill-opacity="0.5"/>
<path d="M204.533 39.9349C204.533 41.2304 203.58 42.1567 202.097 42.1567C200.7 42.1567 199.687 41.3042 199.687 39.8744C199.687 38.6796 200.412 37.854 201.566 37.6593L201.566 38.2433C200.707 38.4178 200.204 39.0152 200.204 39.8744C200.204 40.9149 200.922 41.566 202.097 41.566C203.285 41.566 204.016 40.9015 204.016 39.9349C204.016 39.0555 203.419 38.4984 202.567 38.4984L202.567 40.0825L202.083 40.0825L202.083 38.4313C202.083 37.9412 202.332 37.6795 202.788 37.6795L204.459 37.6795L204.459 38.1829L202.855 38.1829L202.855 38.1963C203.889 38.2836 204.533 38.8944 204.533 39.9349ZM204.533 35.4836C204.533 36.3495 204.003 36.8462 203.278 36.8462L200.902 36.8462L200.902 36.2891L203.258 36.2891C203.768 36.2891 204.043 35.9333 204.043 35.4299C204.043 34.7653 203.6 34.4029 203.063 34.3961L200.902 34.3961L200.902 33.839L204.459 33.839L204.459 34.282L203.922 34.329C204.325 34.564 204.533 34.9936 204.533 35.4836ZM204.459 31.072L204.459 31.468C204.459 32.1594 204.104 32.5286 203.446 32.5286L201.372 32.5286L201.372 33.1864L200.902 33.1864L200.902 32.5286L199.687 32.5286L199.687 31.9715L200.902 31.9715L200.902 30.5887L199.687 30.5887L199.687 30.0316L200.902 30.0316L200.902 29.0717L201.372 29.0717L201.372 30.0316L203.446 30.0316C203.802 30.0316 203.99 29.857 203.99 29.5281L203.99 29.1321L204.459 29.1321L204.459 29.5281C204.459 30.2195 204.104 30.5887 203.446 30.5887L201.372 30.5887L201.372 31.9715L203.446 31.9715C203.802 31.9715 203.99 31.7969 203.99 31.468L203.99 31.072L204.459 31.072ZM204.533 26.9292C204.533 27.983 203.761 28.6811 202.694 28.6811C201.479 28.6811 200.821 27.8958 200.821 26.9963C200.821 26.0163 201.479 25.3853 202.62 25.3652L202.775 25.3652L202.775 28.124C203.533 28.0904 204.05 27.6474 204.05 26.9292C204.05 26.4324 203.802 26.07 203.338 25.9223L203.338 25.3786C204.07 25.5397 204.533 26.117 204.533 26.9292ZM202.311 28.0904L202.311 25.9491C201.687 26.0498 201.305 26.4257 201.305 26.9963C201.305 27.5601 201.674 27.9763 202.311 28.0904ZM204.459 24.0752L204.459 24.6323L200.902 24.6323L200.902 24.1893L201.58 24.1222C201.123 23.894 200.882 23.4778 200.882 22.8871L200.882 22.7663L201.432 22.7663L201.432 22.8871C201.432 23.6389 201.862 24.0752 202.593 24.0752L204.459 24.0752Z" fill="#4420B0" fill-opacity="0.5"/>
<path d="M282.286 39.9349C282.286 41.2304 281.333 42.1567 279.85 42.1567C278.453 42.1567 277.44 41.3042 277.44 39.8744C277.44 38.6796 278.165 37.854 279.319 37.6593L279.319 38.2433C278.46 38.4178 277.957 39.0152 277.957 39.8744C277.957 40.9149 278.675 41.566 279.85 41.566C281.038 41.566 281.769 40.9015 281.769 39.9349C281.769 39.0555 281.172 38.4984 280.319 38.4984L280.319 40.0825L279.836 40.0825L279.836 38.4313C279.836 37.9412 280.085 37.6795 280.541 37.6795L282.212 37.6795L282.212 38.1829L280.608 38.1829L280.608 38.1963C281.642 38.2836 282.286 38.8944 282.286 39.9349ZM282.286 35.4836C282.286 36.3495 281.756 36.8462 281.031 36.8462L278.655 36.8462L278.655 36.2891L281.011 36.2891C281.521 36.2891 281.796 35.9333 281.796 35.4299C281.796 34.7653 281.353 34.4029 280.816 34.3961L278.655 34.3961L278.655 33.839L282.212 33.839L282.212 34.282L281.675 34.329C282.078 34.564 282.286 34.9936 282.286 35.4836ZM282.212 31.072L282.212 31.468C282.212 32.1594 281.857 32.5286 281.199 32.5286L279.125 32.5286L279.125 33.1864L278.655 33.1864L278.655 32.5286L277.44 32.5286L277.44 31.9715L278.655 31.9715L278.655 30.5887L277.44 30.5887L277.44 30.0316L278.655 30.0316L278.655 29.0717L279.125 29.0717L279.125 30.0316L281.199 30.0316C281.555 30.0316 281.743 29.857 281.743 29.5281L281.743 29.1321L282.212 29.1321L282.212 29.5281C282.212 30.2195 281.857 30.5887 281.199 30.5887L279.125 30.5887L279.125 31.9715L281.199 31.9715C281.555 31.9715 281.743 31.7969 281.743 31.468L281.743 31.072L282.212 31.072ZM282.286 26.9292C282.286 27.983 281.514 28.6811 280.447 28.6811C279.232 28.6811 278.574 27.8958 278.574 26.9963C278.574 26.0163 279.232 25.3853 280.373 25.3652L280.528 25.3652L280.528 28.124C281.286 28.0904 281.803 27.6474 281.803 26.9292C281.803 26.4324 281.555 26.07 281.091 25.9223L281.091 25.3786C281.823 25.5397 282.286 26.117 282.286 26.9292ZM280.064 28.0904L280.064 25.9491C279.44 26.0498 279.058 26.4257 279.058 26.9963C279.058 27.5601 279.427 27.9763 280.064 28.0904ZM282.212 24.0752L282.212 24.6323L278.655 24.6323L278.655 24.1893L279.333 24.1222C278.876 23.894 278.635 23.4778 278.635 22.8871L278.635 22.7663L279.185 22.7663L279.185 22.8871C279.185 23.6389 279.615 24.0752 280.346 24.0752L282.212 24.0752Z" fill="#4420B0" fill-opacity="0.5"/>
<path d="M360.039 39.9349C360.039 41.2304 359.086 42.1567 357.603 42.1567C356.207 42.1567 355.193 41.3042 355.193 39.8744C355.193 38.6796 355.918 37.854 357.072 37.6593L357.072 38.2433C356.213 38.4178 355.71 39.0152 355.71 39.8744C355.71 40.9149 356.428 41.566 357.603 41.566C358.791 41.566 359.523 40.9015 359.523 39.9349C359.523 39.0555 358.925 38.4984 358.073 38.4984L358.073 40.0825L357.589 40.0825L357.589 38.4313C357.589 37.9412 357.838 37.6795 358.294 37.6795L359.966 37.6795L359.966 38.1829L358.361 38.1829L358.361 38.1963C359.395 38.2836 360.039 38.8944 360.039 39.9349ZM360.039 35.4836C360.039 36.3495 359.509 36.8462 358.784 36.8462L356.408 36.8462L356.408 36.2891L358.764 36.2891C359.274 36.2891 359.549 35.9333 359.549 35.4299C359.549 34.7653 359.106 34.4029 358.569 34.3961L356.408 34.3961L356.408 33.839L359.966 33.839L359.966 34.282L359.429 34.329C359.831 34.564 360.039 34.9936 360.039 35.4836ZM359.966 31.072L359.966 31.468C359.966 32.1594 359.61 32.5286 358.952 32.5286L356.878 32.5286L356.878 33.1864L356.408 33.1864L356.408 32.5286L355.193 32.5286L355.193 31.9715L356.408 31.9715L356.408 30.5887L355.193 30.5887L355.193 30.0316L356.408 30.0316L356.408 29.0717L356.878 29.0717L356.878 30.0316L358.952 30.0316C359.308 30.0316 359.496 29.857 359.496 29.5281L359.496 29.1321L359.966 29.1321L359.966 29.5281C359.966 30.2195 359.61 30.5887 358.952 30.5887L356.878 30.5887L356.878 31.9715L358.952 31.9715C359.308 31.9715 359.496 31.7969 359.496 31.468L359.496 31.072L359.966 31.072ZM360.039 26.9292C360.039 27.983 359.267 28.6811 358.2 28.6811C356.985 28.6811 356.327 27.8958 356.327 26.9963C356.327 26.0163 356.985 25.3853 358.126 25.3652L358.281 25.3652L358.281 28.124C359.039 28.0904 359.556 27.6474 359.556 26.9292C359.556 26.4324 359.308 26.07 358.845 25.9223L358.845 25.3786C359.576 25.5397 360.039 26.117 360.039 26.9292ZM357.818 28.0904L357.818 25.9491C357.193 26.0498 356.811 26.4257 356.811 26.9963C356.811 27.5601 357.18 27.9763 357.818 28.0904ZM359.966 24.0752L359.966 24.6323L356.408 24.6323L356.408 24.1893L357.086 24.1222C356.629 23.894 356.388 23.4778 356.388 22.8871L356.388 22.7663L356.938 22.7663L356.938 22.8871C356.938 23.6389 357.368 24.0752 358.1 24.0752L359.966 24.0752Z" fill="#4420B0" fill-opacity="0.5"/>
<path d="M437.793 39.9349C437.793 41.2304 436.839 42.1567 435.356 42.1567C433.96 42.1567 432.946 41.3042 432.946 39.8744C432.946 38.6796 433.671 37.854 434.826 37.6593L434.826 38.2433C433.966 38.4178 433.463 39.0152 433.463 39.8744C433.463 40.9149 434.181 41.566 435.356 41.566C436.544 41.566 437.276 40.9015 437.276 39.9349C437.276 39.0555 436.678 38.4984 435.826 38.4984L435.826 40.0825L435.343 40.0825L435.343 38.4313C435.343 37.9412 435.591 37.6795 436.047 37.6795L437.719 37.6795L437.719 38.1829L436.114 38.1829L436.114 38.1963C437.148 38.2836 437.793 38.8944 437.793 39.9349ZM437.793 35.4836C437.793 36.3495 437.262 36.8462 436.537 36.8462L434.161 36.8462L434.161 36.2891L436.517 36.2891C437.027 36.2891 437.303 35.9333 437.303 35.4299C437.303 34.7653 436.86 34.4029 436.323 34.3961L434.161 34.3961L434.161 33.839L437.719 33.839L437.719 34.282L437.182 34.329C437.584 34.564 437.793 34.9936 437.793 35.4836ZM437.719 31.072L437.719 31.468C437.719 32.1594 437.363 32.5286 436.705 32.5286L434.631 32.5286L434.631 33.1864L434.161 33.1864L434.161 32.5286L432.946 32.5286L432.946 31.9715L434.161 31.9715L434.161 30.5887L432.946 30.5887L432.946 30.0316L434.161 30.0316L434.161 29.0717L434.631 29.0717L434.631 30.0316L436.705 30.0316C437.061 30.0316 437.249 29.857 437.249 29.5281L437.249 29.1321L437.719 29.1321L437.719 29.5281C437.719 30.2195 437.363 30.5887 436.705 30.5887L434.631 30.5887L434.631 31.9715L436.705 31.9715C437.061 31.9715 437.249 31.7969 437.249 31.468L437.249 31.072L437.719 31.072ZM437.793 26.9292C437.793 27.983 437.021 28.6811 435.953 28.6811C434.738 28.6811 434.081 27.8958 434.081 26.9963C434.081 26.0163 434.738 25.3853 435.88 25.3652L436.034 25.3652L436.034 28.124C436.792 28.0904 437.309 27.6474 437.309 26.9292C437.309 26.4324 437.061 26.07 436.598 25.9223L436.598 25.3786C437.329 25.5397 437.793 26.117 437.793 26.9292ZM435.571 28.0904L435.571 25.9491C434.946 26.0498 434.564 26.4257 434.564 26.9963C434.564 27.5601 434.933 27.9763 435.571 28.0904ZM437.719 24.0752L437.719 24.6323L434.161 24.6323L434.161 24.1893L434.839 24.1222C434.383 23.894 434.141 23.4778 434.141 22.8871L434.141 22.7663L434.691 22.7663L434.691 22.8871C434.691 23.6389 435.121 24.0752 435.853 24.0752L437.719 24.0752Z" fill="#4420B0" fill-opacity="0.5"/>
<path d="M515.546 39.9349C515.546 41.2304 514.593 42.1567 513.109 42.1567C511.713 42.1567 510.699 41.3042 510.699 39.8744C510.699 38.6796 511.424 37.854 512.579 37.6593L512.579 38.2433C511.72 38.4178 511.216 39.0152 511.216 39.8744C511.216 40.9149 511.934 41.566 513.109 41.566C514.297 41.566 515.029 40.9015 515.029 39.9349C515.029 39.0555 514.431 38.4984 513.579 38.4984L513.579 40.0825L513.096 40.0825L513.096 38.4313C513.096 37.9412 513.344 37.6795 513.801 37.6795L515.472 37.6795L515.472 38.1829L513.868 38.1829L513.868 38.1963C514.901 38.2836 515.546 38.8944 515.546 39.9349ZM515.546 35.4836C515.546 36.3495 515.015 36.8462 514.291 36.8462L511.914 36.8462L511.914 36.2891L514.27 36.2891C514.781 36.2891 515.056 35.9333 515.056 35.4299C515.056 34.7653 514.613 34.4029 514.076 34.3961L511.914 34.3961L511.914 33.839L515.472 33.839L515.472 34.282L514.935 34.329C515.338 34.564 515.546 34.9936 515.546 35.4836ZM515.472 31.072L515.472 31.468C515.472 32.1594 515.116 32.5286 514.458 32.5286L512.384 32.5286L512.384 33.1864L511.914 33.1864L511.914 32.5286L510.699 32.5286L510.699 31.9715L511.914 31.9715L511.914 30.5887L510.699 30.5887L510.699 30.0316L511.914 30.0316L511.914 29.0717L512.384 29.0717L512.384 30.0316L514.458 30.0316C514.814 30.0316 515.002 29.857 515.002 29.5281L515.002 29.1321L515.472 29.1321L515.472 29.5281C515.472 30.2195 515.116 30.5887 514.458 30.5887L512.384 30.5887L512.384 31.9715L514.458 31.9715C514.814 31.9715 515.002 31.7969 515.002 31.468L515.002 31.072L515.472 31.072ZM515.546 26.9292C515.546 27.983 514.774 28.6811 513.707 28.6811C512.492 28.6811 511.834 27.8958 511.834 26.9963C511.834 26.0163 512.492 25.3853 513.633 25.3652L513.787 25.3652L513.787 28.124C514.546 28.0904 515.062 27.6474 515.062 26.9292C515.062 26.4324 514.814 26.07 514.351 25.9223L514.351 25.3786C515.083 25.5397 515.546 26.117 515.546 26.9292ZM513.324 28.0904L513.324 25.9491C512.7 26.0498 512.317 26.4257 512.317 26.9963C512.317 27.5601 512.686 27.9763 513.324 28.0904ZM515.472 24.0752L515.472 24.6323L511.914 24.6323L511.914 24.1893L512.592 24.1222C512.136 23.894 511.894 23.4778 511.894 22.8871L511.894 22.7663L512.445 22.7663L512.445 22.8871C512.445 23.6389 512.874 24.0752 513.606 24.0752L515.472 24.0752Z" fill="#4420B0" fill-opacity="0.5"/>
<path d="M593.299 39.9349C593.299 41.2304 592.346 42.1567 590.862 42.1567C589.466 42.1567 588.453 41.3042 588.453 39.8744C588.453 38.6796 589.177 37.854 590.332 37.6593L590.332 38.2433C589.473 38.4178 588.969 39.0152 588.969 39.8744C588.969 40.9149 589.688 41.566 590.862 41.566C592.05 41.566 592.782 40.9015 592.782 39.9349C592.782 39.0555 592.185 38.4984 591.332 38.4984L591.332 40.0825L590.849 40.0825L590.849 38.4313C590.849 37.9412 591.097 37.6795 591.554 37.6795L593.225 37.6795L593.225 38.1829L591.621 38.1829L591.621 38.1963C592.655 38.2836 593.299 38.8944 593.299 39.9349ZM593.299 35.4836C593.299 36.3495 592.769 36.8462 592.044 36.8462L589.667 36.8462L589.667 36.2891L592.024 36.2891C592.534 36.2891 592.809 35.9333 592.809 35.4299C592.809 34.7653 592.366 34.4029 591.829 34.3961L589.667 34.3961L589.667 33.839L593.225 33.839L593.225 34.282L592.688 34.329C593.091 34.564 593.299 34.9936 593.299 35.4836ZM593.225 31.072L593.225 31.468C593.225 32.1594 592.869 32.5286 592.212 32.5286L590.137 32.5286L590.137 33.1864L589.667 33.1864L589.667 32.5286L588.453 32.5286L588.453 31.9715L589.667 31.9715L589.667 30.5887L588.453 30.5887L588.453 30.0316L589.667 30.0316L589.667 29.0717L590.137 29.0717L590.137 30.0316L592.212 30.0316C592.567 30.0316 592.755 29.857 592.755 29.5281L592.755 29.1321L593.225 29.1321L593.225 29.5281C593.225 30.2195 592.869 30.5887 592.212 30.5887L590.137 30.5887L590.137 31.9715L592.212 31.9715C592.567 31.9715 592.755 31.7969 592.755 31.468L592.755 31.072L593.225 31.072ZM593.299 26.9292C593.299 27.983 592.527 28.6811 591.46 28.6811C590.245 28.6811 589.587 27.8958 589.587 26.9963C589.587 26.0163 590.245 25.3853 591.386 25.3652L591.54 25.3652L591.54 28.124C592.299 28.0904 592.816 27.6474 592.816 26.9292C592.816 26.4324 592.567 26.07 592.104 25.9223L592.104 25.3786C592.836 25.5397 593.299 26.117 593.299 26.9292ZM591.077 28.0904L591.077 25.9491C590.453 26.0498 590.07 26.4257 590.07 26.9963C590.07 27.5601 590.439 27.9763 591.077 28.0904ZM593.225 24.0752L593.225 24.6323L589.667 24.6323L589.667 24.1893L590.345 24.1222C589.889 23.894 589.647 23.4778 589.647 22.8871L589.647 22.7663L590.198 22.7663L590.198 22.8871C590.198 23.6389 590.627 24.0752 591.359 24.0752L593.225 24.0752Z" fill="#4420B0" fill-opacity="0.5"/>
<rect x="131.453" y="2.23755" width="64.3281" height="555.459" rx="2.2375" fill="#E0D4F8"/>
<path d="M165.691 42.4861C165.691 43.9293 164.677 44.7818 163.254 44.7818C161.858 44.7818 160.845 43.9293 160.845 42.4861C160.845 41.2913 161.543 40.4724 162.724 40.271L162.724 40.855C161.865 41.0295 161.361 41.6336 161.361 42.4861C161.361 43.54 162.093 44.1911 163.254 44.1911C164.456 44.1911 165.174 43.54 165.174 42.4861C165.174 41.6068 164.698 41.0362 163.812 40.855L163.812 40.271C165.033 40.4791 165.691 41.2577 165.691 42.4861ZM165.691 37.8926C165.691 39.0338 164.879 39.6379 163.805 39.6379C162.617 39.6379 161.979 38.8592 161.979 37.8926C161.979 36.7582 162.798 36.1474 163.805 36.1474C165.033 36.1474 165.691 36.8925 165.691 37.8926ZM165.208 37.8926C165.208 37.1341 164.577 36.7179 163.805 36.7179C163.006 36.7179 162.462 37.1811 162.462 37.8926C162.462 38.6042 163.006 39.0673 163.805 39.0673C164.718 39.0673 165.208 38.537 165.208 37.8926ZM165.617 34.8414L165.617 35.3985L160.583 35.3985L160.583 34.8414L165.617 34.8414ZM165.691 32.6155C165.691 33.4814 165.161 33.9781 164.436 33.9781L162.06 33.9781L162.06 33.421L164.416 33.421C164.926 33.421 165.201 33.0652 165.201 32.5618C165.201 31.8972 164.758 31.5347 164.221 31.528L162.06 31.528L162.06 30.9709L165.617 30.9709L165.617 31.4139L165.08 31.4609C165.483 31.6958 165.691 32.1254 165.691 32.6155ZM165.617 29.4994L165.617 30.0565L162.06 30.0565L162.06 29.6135L162.61 29.5598C162.227 29.3182 161.979 28.855 161.979 28.3448C161.979 27.8078 162.254 27.4051 162.684 27.2239C162.268 26.9956 161.979 26.5056 161.979 25.9619C161.979 25.2101 162.509 24.7268 163.234 24.7268L165.617 24.7268L165.617 25.2839L163.254 25.2839C162.778 25.2839 162.469 25.5793 162.469 26.0559C162.469 26.7204 162.912 27.1097 163.456 27.1165L165.617 27.1165L165.617 27.6669L163.254 27.6669C162.778 27.6669 162.469 27.9622 162.469 28.4388C162.469 29.1034 162.912 29.4927 163.456 29.4994L165.617 29.4994ZM165.617 23.2982L165.617 23.8553L162.06 23.8553L162.06 23.4123L162.603 23.3586C162.227 23.117 161.979 22.6538 161.979 22.1235C161.979 21.3583 162.476 20.8481 163.261 20.8481L165.617 20.8481L165.617 21.4053L163.281 21.4053C162.785 21.4053 162.469 21.7275 162.469 22.2645C162.469 22.9022 162.912 23.2915 163.456 23.2982L165.617 23.2982Z" fill="#4420B0" fill-opacity="0.5"/>
<rect x="209.206" y="2.23755" width="64.3281" height="555.459" rx="2.2375" fill="#E0D4F8"/>
<path d="M243.444 42.4861C243.444 43.9293 242.431 44.7818 241.008 44.7818C239.611 44.7818 238.598 43.9293 238.598 42.4861C238.598 41.2913 239.296 40.4724 240.477 40.271L240.477 40.855C239.618 41.0295 239.115 41.6336 239.115 42.4861C239.115 43.54 239.846 44.1911 241.008 44.1911C242.209 44.1911 242.927 43.54 242.927 42.4861C242.927 41.6068 242.451 41.0362 241.565 40.855L241.565 40.271C242.786 40.4791 243.444 41.2577 243.444 42.4861ZM243.444 37.8926C243.444 39.0338 242.632 39.6379 241.558 39.6379C240.37 39.6379 239.732 38.8592 239.732 37.8926C239.732 36.7582 240.551 36.1474 241.558 36.1474C242.786 36.1474 243.444 36.8925 243.444 37.8926ZM242.961 37.8926C242.961 37.1341 242.33 36.7179 241.558 36.7179C240.759 36.7179 240.215 37.1811 240.215 37.8926C240.215 38.6042 240.759 39.0673 241.558 39.0673C242.471 39.0673 242.961 38.537 242.961 37.8926ZM243.37 34.8414L243.37 35.3985L238.336 35.3985L238.336 34.8414L243.37 34.8414ZM243.444 32.6155C243.444 33.4814 242.914 33.9781 242.189 33.9781L239.813 33.9781L239.813 33.421L242.169 33.421C242.679 33.421 242.954 33.0652 242.954 32.5618C242.954 31.8972 242.511 31.5347 241.974 31.528L239.813 31.528L239.813 30.9709L243.37 30.9709L243.37 31.4139L242.833 31.4609C243.236 31.6958 243.444 32.1254 243.444 32.6155ZM243.37 29.4994L243.37 30.0565L239.813 30.0565L239.813 29.6135L240.363 29.5598C239.981 29.3182 239.732 28.855 239.732 28.3448C239.732 27.8078 240.007 27.4051 240.437 27.2239C240.021 26.9956 239.732 26.5056 239.732 25.9619C239.732 25.2101 240.262 24.7268 240.987 24.7268L243.37 24.7268L243.37 25.2839L241.008 25.2839C240.531 25.2839 240.222 25.5793 240.222 26.0559C240.222 26.7204 240.665 27.1097 241.209 27.1165L243.37 27.1165L243.37 27.6669L241.008 27.6669C240.531 27.6669 240.222 27.9622 240.222 28.4388C240.222 29.1034 240.665 29.4927 241.209 29.4994L243.37 29.4994ZM243.37 23.2982L243.37 23.8553L239.813 23.8553L239.813 23.4123L240.356 23.3586C239.981 23.117 239.732 22.6538 239.732 22.1235C239.732 21.3583 240.229 20.8481 241.014 20.8481L243.37 20.8481L243.37 21.4053L241.034 21.4053C240.538 21.4053 240.222 21.7275 240.222 22.2645C240.222 22.9022 240.665 23.2915 241.209 23.2982L243.37 23.2982Z" fill="#4420B0" fill-opacity="0.5"/>
<rect x="286.959" y="2.23755" width="64.3281" height="555.459" rx="2.2375" fill="#E0D4F8"/>
<path d="M321.197 42.4861C321.197 43.9293 320.184 44.7818 318.761 44.7818C317.365 44.7818 316.351 43.9293 316.351 42.4861C316.351 41.2913 317.049 40.4724 318.23 40.271L318.23 40.855C317.371 41.0295 316.868 41.6336 316.868 42.4861C316.868 43.54 317.599 44.1911 318.761 44.1911C319.962 44.1911 320.681 43.54 320.681 42.4861C320.681 41.6068 320.204 41.0362 319.318 40.855L319.318 40.271C320.54 40.4791 321.197 41.2577 321.197 42.4861ZM321.197 37.8926C321.197 39.0338 320.385 39.6379 319.311 39.6379C318.123 39.6379 317.485 38.8592 317.485 37.8926C317.485 36.7582 318.304 36.1474 319.311 36.1474C320.54 36.1474 321.197 36.8925 321.197 37.8926ZM320.714 37.8926C320.714 37.1341 320.083 36.7179 319.311 36.7179C318.512 36.7179 317.969 37.1811 317.969 37.8926C317.969 38.6042 318.512 39.0673 319.311 39.0673C320.224 39.0673 320.714 38.537 320.714 37.8926ZM321.124 34.8414L321.124 35.3985L316.089 35.3985L316.089 34.8414L321.124 34.8414ZM321.197 32.6155C321.197 33.4814 320.667 33.9781 319.942 33.9781L317.566 33.9781L317.566 33.421L319.922 33.421C320.432 33.421 320.707 33.0652 320.707 32.5618C320.707 31.8972 320.264 31.5347 319.727 31.528L317.566 31.528L317.566 30.9709L321.124 30.9709L321.124 31.4139L320.587 31.4609C320.989 31.6958 321.197 32.1254 321.197 32.6155ZM321.124 29.4994L321.124 30.0565L317.566 30.0565L317.566 29.6135L318.116 29.5598C317.734 29.3182 317.485 28.855 317.485 28.3448C317.485 27.8078 317.761 27.4051 318.19 27.2239C317.774 26.9956 317.485 26.5056 317.485 25.9619C317.485 25.2101 318.016 24.7268 318.741 24.7268L321.124 24.7268L321.124 25.2839L318.761 25.2839C318.284 25.2839 317.975 25.5793 317.975 26.0559C317.975 26.7204 318.418 27.1097 318.962 27.1165L321.124 27.1165L321.124 27.6669L318.761 27.6669C318.284 27.6669 317.975 27.9622 317.975 28.4388C317.975 29.1034 318.418 29.4927 318.962 29.4994L321.124 29.4994ZM321.124 23.2982L321.124 23.8553L317.566 23.8553L317.566 23.4123L318.11 23.3586C317.734 23.117 317.485 22.6538 317.485 22.1235C317.485 21.3583 317.982 20.8481 318.767 20.8481L321.124 20.8481L321.124 21.4053L318.788 21.4053C318.291 21.4053 317.975 21.7275 317.975 22.2645C317.975 22.9022 318.418 23.2915 318.962 23.2982L321.124 23.2982Z" fill="#4420B0" fill-opacity="0.5"/>
<rect x="364.712" y="2.23755" width="64.3281" height="555.459" rx="2.2375" fill="#E0D4F8"/>
<path d="M398.95 42.4861C398.95 43.9293 397.937 44.7818 396.514 44.7818C395.117 44.7818 394.104 43.9293 394.104 42.4861C394.104 41.2913 394.802 40.4724 395.983 40.271L395.983 40.855C395.124 41.0295 394.621 41.6336 394.621 42.4861C394.621 43.54 395.352 44.1911 396.514 44.1911C397.715 44.1911 398.433 43.54 398.433 42.4861C398.433 41.6068 397.957 41.0362 397.071 40.855L397.071 40.271C398.292 40.4791 398.95 41.2577 398.95 42.4861ZM398.95 37.8926C398.95 39.0338 398.138 39.6379 397.064 39.6379C395.876 39.6379 395.238 38.8592 395.238 37.8926C395.238 36.7582 396.057 36.1474 397.064 36.1474C398.292 36.1474 398.95 36.8925 398.95 37.8926ZM398.467 37.8926C398.467 37.1341 397.836 36.7179 397.064 36.7179C396.265 36.7179 395.722 37.1811 395.722 37.8926C395.722 38.6042 396.265 39.0673 397.064 39.0673C397.977 39.0673 398.467 38.537 398.467 37.8926ZM398.876 34.8414L398.876 35.3985L393.842 35.3985L393.842 34.8414L398.876 34.8414ZM398.95 32.6155C398.95 33.4814 398.42 33.9781 397.695 33.9781L395.319 33.9781L395.319 33.421L397.675 33.421C398.185 33.421 398.46 33.0652 398.46 32.5618C398.46 31.8972 398.017 31.5347 397.48 31.528L395.319 31.528L395.319 30.9709L398.876 30.9709L398.876 31.4139L398.339 31.4609C398.742 31.6958 398.95 32.1254 398.95 32.6155ZM398.876 29.4994L398.876 30.0565L395.319 30.0565L395.319 29.6135L395.869 29.5598C395.487 29.3182 395.238 28.855 395.238 28.3448C395.238 27.8078 395.514 27.4051 395.943 27.2239C395.527 26.9956 395.238 26.5056 395.238 25.9619C395.238 25.2101 395.769 24.7268 396.494 24.7268L398.876 24.7268L398.876 25.2839L396.514 25.2839C396.037 25.2839 395.728 25.5793 395.728 26.0559C395.728 26.7204 396.171 27.1097 396.715 27.1165L398.876 27.1165L398.876 27.6669L396.514 27.6669C396.037 27.6669 395.728 27.9622 395.728 28.4388C395.728 29.1034 396.171 29.4927 396.715 29.4994L398.876 29.4994ZM398.876 23.2982L398.876 23.8553L395.319 23.8553L395.319 23.4123L395.863 23.3586C395.487 23.117 395.238 22.6538 395.238 22.1235C395.238 21.3583 395.735 20.8481 396.52 20.8481L398.876 20.8481L398.876 21.4053L396.541 21.4053C396.044 21.4053 395.728 21.7275 395.728 22.2645C395.728 22.9022 396.171 23.2915 396.715 23.2982L398.876 23.2982Z" fill="#4420B0" fill-opacity="0.5"/>
<rect x="442.466" y="2.23755" width="64.3281" height="555.459" rx="2.2375" fill="#E0D4F8"/>
<path d="M476.703 42.4861C476.703 43.9293 475.69 44.7818 474.267 44.7818C472.871 44.7818 471.857 43.9293 471.857 42.4861C471.857 41.2913 472.555 40.4724 473.737 40.271L473.737 40.855C472.877 41.0295 472.374 41.6336 472.374 42.4861C472.374 43.54 473.106 44.1911 474.267 44.1911C475.468 44.1911 476.187 43.54 476.187 42.4861C476.187 41.6068 475.71 41.0362 474.824 40.855L474.824 40.271C476.046 40.4791 476.703 41.2577 476.703 42.4861ZM476.703 37.8926C476.703 39.0338 475.891 39.6379 474.817 39.6379C473.629 39.6379 472.991 38.8592 472.991 37.8926C472.991 36.7582 473.81 36.1474 474.817 36.1474C476.046 36.1474 476.703 36.8925 476.703 37.8926ZM476.22 37.8926C476.22 37.1341 475.589 36.7179 474.817 36.7179C474.018 36.7179 473.475 37.1811 473.475 37.8926C473.475 38.6042 474.018 39.0673 474.817 39.0673C475.73 39.0673 476.22 38.537 476.22 37.8926ZM476.63 34.8414L476.63 35.3985L471.595 35.3985L471.595 34.8414L476.63 34.8414ZM476.703 32.6155C476.703 33.4814 476.173 33.9781 475.448 33.9781L473.072 33.9781L473.072 33.421L475.428 33.421C475.938 33.421 476.213 33.0652 476.213 32.5618C476.213 31.8972 475.77 31.5347 475.233 31.528L473.072 31.528L473.072 30.9709L476.63 30.9709L476.63 31.4139L476.093 31.4609C476.495 31.6958 476.703 32.1254 476.703 32.6155ZM476.63 29.4994L476.63 30.0565L473.072 30.0565L473.072 29.6135L473.622 29.5598C473.24 29.3182 472.991 28.855 472.991 28.3448C472.991 27.8078 473.267 27.4051 473.696 27.2239C473.28 26.9956 472.991 26.5056 472.991 25.9619C472.991 25.2101 473.522 24.7268 474.247 24.7268L476.63 24.7268L476.63 25.2839L474.267 25.2839C473.79 25.2839 473.481 25.5793 473.481 26.0559C473.481 26.7204 473.925 27.1097 474.468 27.1165L476.63 27.1165L476.63 27.6669L474.267 27.6669C473.79 27.6669 473.481 27.9622 473.481 28.4388C473.481 29.1034 473.925 29.4927 474.468 29.4994L476.63 29.4994ZM476.63 23.2982L476.63 23.8553L473.072 23.8553L473.072 23.4123L473.616 23.3586C473.24 23.117 472.991 22.6538 472.991 22.1235C472.991 21.3583 473.488 20.8481 474.274 20.8481L476.63 20.8481L476.63 21.4053L474.294 21.4053C473.797 21.4053 473.481 21.7275 473.481 22.2645C473.481 22.9022 473.925 23.2915 474.468 23.2982L476.63 23.2982Z" fill="#4420B0" fill-opacity="0.5"/>
<rect x="662.3" y="2.23755" width="53.7" height="555.459" rx="2.2375" fill="#FFE6D2"/>
<path d="M691.15 289.833L691.15 290.397L686.451 290.397L686.451 289.692L690.479 288.034L686.451 286.383L686.451 285.671L691.15 285.671L691.15 286.235L687.431 286.235L691.15 287.765L691.15 288.309L687.445 289.833L691.15 289.833ZM691.204 283.496C691.204 284.302 690.788 284.818 690.137 284.818C689.318 284.818 689.163 284.026 689.089 283.315C689.036 282.771 689.042 282.301 688.754 282.295C688.304 282.301 687.989 282.67 687.989 283.207C687.989 283.724 688.277 284.127 688.7 284.187L688.7 284.738C688.002 284.671 687.512 284.04 687.512 283.194C687.512 282.315 688.036 281.751 688.787 281.751L690.519 281.751C690.633 281.751 690.694 281.69 690.694 281.57L690.694 281.368L691.15 281.368L691.15 281.684C691.15 282.066 690.976 282.268 690.647 282.268L690.539 282.268C690.949 282.476 691.204 282.879 691.204 283.496ZM690.727 283.416C690.727 282.751 690.304 282.295 689.714 282.295L689.251 282.295C689.459 282.449 689.499 282.845 689.546 283.281C689.6 283.771 689.667 284.261 690.123 284.261C690.492 284.261 690.727 283.926 690.727 283.416ZM691.15 280.186L691.15 280.744L687.593 280.744L687.593 280.301L688.27 280.233C687.814 280.005 687.572 279.589 687.572 278.998L687.572 278.877L688.123 278.877L688.123 278.998C688.123 279.75 688.552 280.186 689.284 280.186L691.15 280.186ZM692.573 276.853C692.573 277.813 692.11 278.464 691.358 278.464L691.358 277.907C691.781 277.907 692.103 277.477 692.103 276.853C692.103 276.121 691.667 275.739 691.056 275.739L690.479 275.739C690.848 275.987 691.09 276.416 691.09 276.96C691.09 277.907 690.365 278.585 689.318 278.585C688.25 278.585 687.512 277.9 687.512 276.96C687.512 276.39 687.78 275.926 688.21 275.685L687.593 275.624L687.593 275.188L691.056 275.188C691.956 275.188 692.573 275.792 692.573 276.853ZM690.606 276.88C690.606 276.208 690.069 275.739 689.297 275.739C688.532 275.739 687.995 276.208 687.995 276.88C687.995 277.544 688.532 278.007 689.311 278.007C690.076 278.007 690.606 277.544 690.606 276.88ZM686.995 273.992C686.995 274.227 686.814 274.408 686.579 274.408C686.344 274.408 686.169 274.227 686.169 273.992C686.169 273.757 686.344 273.582 686.579 273.582C686.814 273.582 686.995 273.757 686.995 273.992ZM691.15 273.716L691.15 274.274L687.593 274.274L687.593 273.716L691.15 273.716ZM691.15 272.248L691.15 272.805L687.593 272.805L687.593 272.362L688.136 272.309C687.76 272.067 687.512 271.604 687.512 271.073C687.512 270.308 688.009 269.798 688.794 269.798L691.15 269.798L691.15 270.355L688.814 270.355C688.317 270.355 688.002 270.677 688.002 271.214C688.002 271.852 688.445 272.241 688.989 272.248L691.15 272.248Z" fill="#623A0E"/>
<rect x="597.972" y="2.23755" width="64.3281" height="555.459" rx="2.2375" fill="#E0D4F8"/>
<path d="M632.21 42.4861C632.21 43.9293 631.196 44.7818 629.773 44.7818C628.377 44.7818 627.363 43.9293 627.363 42.4861C627.363 41.2913 628.061 40.4724 629.243 40.271L629.243 40.855C628.384 41.0295 627.88 41.6336 627.88 42.4861C627.88 43.54 628.612 44.1911 629.773 44.1911C630.975 44.1911 631.693 43.54 631.693 42.4861C631.693 41.6068 631.216 41.0362 630.33 40.855L630.33 40.271C631.552 40.4791 632.21 41.2577 632.21 42.4861ZM632.21 37.8926C632.21 39.0338 631.398 39.6379 630.324 39.6379C629.135 39.6379 628.498 38.8592 628.498 37.8926C628.498 36.7582 629.317 36.1474 630.324 36.1474C631.552 36.1474 632.21 36.8925 632.21 37.8926ZM631.727 37.8926C631.727 37.1341 631.096 36.7179 630.324 36.7179C629.525 36.7179 628.981 37.1811 628.981 37.8926C628.981 38.6042 629.525 39.0673 630.324 39.0673C631.237 39.0673 631.727 38.537 631.727 37.8926ZM632.136 34.8414L632.136 35.3985L627.102 35.3985L627.102 34.8414L632.136 34.8414ZM632.21 32.6155C632.21 33.4814 631.68 33.9781 630.955 33.9781L628.578 33.9781L628.578 33.421L630.934 33.421C631.445 33.421 631.72 33.0652 631.72 32.5618C631.72 31.8972 631.277 31.5347 630.74 31.528L628.578 31.528L628.578 30.9709L632.136 30.9709L632.136 31.4139L631.599 31.4609C632.002 31.6958 632.21 32.1254 632.21 32.6155ZM632.136 29.4994L632.136 30.0565L628.578 30.0565L628.578 29.6135L629.129 29.5598C628.746 29.3182 628.498 28.855 628.498 28.3448C628.498 27.8078 628.773 27.4051 629.203 27.2239C628.786 26.9956 628.498 26.5056 628.498 25.9619C628.498 25.2101 629.028 24.7268 629.753 24.7268L632.136 24.7268L632.136 25.2839L629.773 25.2839C629.297 25.2839 628.988 25.5793 628.988 26.0559C628.988 26.7204 629.431 27.1097 629.975 27.1165L632.136 27.1165L632.136 27.6669L629.773 27.6669C629.297 27.6669 628.988 27.9622 628.988 28.4388C628.988 29.1034 629.431 29.4927 629.975 29.4994L632.136 29.4994ZM632.136 23.2982L632.136 23.8553L628.578 23.8553L628.578 23.4123L629.122 23.3586C628.746 23.117 628.498 22.6538 628.498 22.1235C628.498 21.3583 628.995 20.8481 629.78 20.8481L632.136 20.8481L632.136 21.4053L629.8 21.4053C629.303 21.4053 628.988 21.7275 628.988 22.2645C628.988 22.9022 629.431 23.2915 629.975 23.2982L632.136 23.2982Z" fill="#4420B0" fill-opacity="0.5"/>
<rect x="53.9797" y="53.2931" width="297.673" height="159.504" rx="6.99351" fill="#F9FAFB"/>
<rect x="365.078" y="54.1156" width="141.725" height="158.682" rx="6.99351" fill="#F9FAFB"/>
<rect x="520.228" y="53.7361" width="141.725" height="159.061" rx="6.99351" fill="#F9FAFB"/>
<rect x="53.9795" y="236.915" width="142.004" height="159.745" rx="6.93273" fill="#F9FAFB"/>
<rect x="209.408" y="236.915" width="142.004" height="159.745" rx="6.93273" fill="#F9FAFB"/>
<rect x="364.837" y="236.915" width="142.004" height="159.745" rx="6.93273" fill="#F9FAFB"/>
<rect x="520.266" y="236.915" width="142.004" height="159.745" rx="6.93273" fill="#F9FAFB"/>
<rect x="53.9795" y="420.778" width="193.923" height="88.1009" rx="6.97083" fill="#F9FAFB"/>
<rect x="261.328" y="420.778" width="193.923" height="88.1009" rx="6.97083" fill="#F9FAFB"/>
<rect x="468.676" y="420.778" width="193.923" height="88.1009" rx="6.97083" fill="#F9FAFB"/>
</svg>
